M48
; DRILL file {KiCad 8.0.1-8.0.1-1~ubuntu22.04.1} date 2024-04-04T08:17:28+0200
; FORMAT={-:-/ absolute / inch / decimal}
; #@! TF.CreationDate,2024-04-04T08:17:28+02:00
; #@! TF.GenerationSoftware,Kicad,Pcbnew,8.0.1-8.0.1-1~ubuntu22.04.1
; #@! TF.FileFunction,Plated,1,4,PTH
FMAT,2
INCH
; #@! TA.AperFunction,Plated,PTH,ViaDrill
T1C0.0118
; #@! TA.AperFunction,Plated,PTH,ComponentDrill
T2C0.0374
; #@! TA.AperFunction,Plated,PTH,ComponentDrill
T3C0.0394
; #@! TA.AperFunction,Plated,PTH,ComponentDrill
T4C0.0728
; #@! TA.AperFunction,Plated,PTH,ComponentDrill
T5C0.1063
%
G90
G05
T1
X6.0551Y-2.1772
X6.0551Y-2.5197
X6.0827Y-2.1772
X6.0827Y-2.5197
X6.1102Y-2.1772
X6.1102Y-2.5197
X6.2244Y-2.5748
X6.2874Y-2.7362
X6.3425Y-2.6693
X6.5315Y-2.7795
X6.6535Y-2.2559
X6.6772Y-2.5118
X6.689Y-2.6732
X6.7087Y-2.2126
X6.7087Y-2.5118
X6.7205Y-2.122
X6.7402Y-2.5118
X6.752Y-2.689
X6.7598Y-2.2559
X6.7795Y-2.3465
X6.8346Y-2.3465
X6.8386Y-2.6339
X6.8898Y-2.3465
X6.9567Y-2.1063
X6.9724Y-2.6339
X7.0Y-2.689
X7.0354Y-2.4094
X7.0866Y-2.748
X7.0945Y-2.1693
X7.1063Y-2.5827
X7.1102Y-2.3031
X7.111Y-2.4055
X7.1614Y-2.1417
X7.1614Y-2.248
X7.248Y-2.374
X7.2559Y-2.4724
X7.2559Y-2.5827
X7.2598Y-2.1417
X7.2756Y-2.3425
X7.2913Y-2.565
X7.3169Y-2.6634
X7.3228Y-2.2441
X7.3228Y-2.565
X7.3543Y-2.2441
X7.372Y-2.7264
X7.4094Y-2.5906
X7.4154Y-2.7461
X7.4409Y-1.8661
X7.4409Y-2.5906
X7.4803Y-2.248
X7.4803Y-2.4646
X7.5217Y-2.6476
X7.5236Y-2.687
X7.5328Y-2.4904
X7.5433Y-1.8661
X7.5591Y-2.5079
X7.5748Y-2.248
X7.5748Y-2.2795
X7.5834Y-2.4454
X7.5887Y-2.3583
X7.6142Y-2.189
X7.6517Y-2.4254
X7.6575Y-2.6102
X7.6614Y-2.6614
X7.685Y-2.189
X7.815Y-2.6575
X7.9331Y-2.4606
X7.9331Y-2.5591
X7.9331Y-2.6102
T2
X7.7402Y-1.9843
X7.8386Y-1.9843
X7.937Y-1.9843
X8.1575Y-2.2953
X8.1575Y-2.3937
X8.1575Y-2.4921
T3
X5.9016Y-2.2047
X5.9016Y-2.3031
X5.9016Y-2.5472
X5.9016Y-2.6457
X6.0764Y-2.8331
X6.0764Y-2.9331
X6.1319Y-1.9843
X6.1764Y-2.8331
X6.1764Y-2.9331
X6.2303Y-1.9843
X6.2764Y-2.8331
X6.2764Y-2.9331
X6.3764Y-2.8331
X6.3764Y-2.9331
X6.4236Y-2.2386
X6.4236Y-2.3386
X6.4236Y-2.4386
X6.4236Y-2.5386
X6.4236Y-2.6386
X6.4764Y-2.8331
X6.4764Y-2.9331
X6.5236Y-2.2386
X6.5236Y-2.3386
X6.5236Y-2.4386
X6.5236Y-2.5386
X6.5236Y-2.6386
X6.5764Y-2.8331
X6.5764Y-2.9331
X6.6764Y-2.8331
X6.6764Y-2.9331
X6.7764Y-2.8331
X6.7764Y-2.9331
X6.8764Y-2.8331
X6.8764Y-2.9331
X6.9764Y-2.8331
X6.9764Y-2.9331
X6.9866Y-2.0522
X7.0764Y-2.8331
X7.0764Y-2.9331
X7.0866Y-2.0522
X7.1764Y-2.8331
X7.1764Y-2.9331
X7.1866Y-2.0522
X7.2764Y-2.8331
X7.2764Y-2.9331
X7.3764Y-2.8331
X7.3764Y-2.9331
X7.4764Y-2.8331
X7.4764Y-2.9331
X7.5764Y-2.8331
X7.5764Y-2.9331
X7.6764Y-2.8331
X7.6764Y-2.9331
X7.7764Y-2.8331
X7.7764Y-2.9331
X7.8764Y-2.8331
X7.8764Y-2.9331
X7.9764Y-2.8331
X7.9764Y-2.9331
T4
X6.4173Y-1.9685
X6.6024Y-1.9685
X6.7874Y-1.9685
T5
X5.8858Y-1.9685
X5.8858Y-2.874
X8.1693Y-1.9685
X8.1693Y-2.874
M30
