%TF.GenerationSoftware,KiCad,Pcbnew,8.0.1-8.0.1-1~ubuntu22.04.1*%
%TF.CreationDate,2024-04-04T08:17:27+02:00*%
%TF.ProjectId,Ingenuity,496e6765-6e75-4697-9479-2e6b69636164,rev?*%
%TF.SameCoordinates,Original*%
%TF.FileFunction,Copper,L4,Bot*%
%TF.FilePolarity,Positive*%
%FSLAX46Y46*%
G04 Gerber Fmt 4.6, Leading zero omitted, Abs format (unit mm)*
G04 Created by KiCad (PCBNEW 8.0.1-8.0.1-1~ubuntu22.04.1) date 2024-04-04 08:17:27*
%MOMM*%
%LPD*%
G01*
G04 APERTURE LIST*
G04 Aperture macros list*
%AMRoundRect*
0 Rectangle with rounded corners*
0 $1 Rounding radius*
0 $2 $3 $4 $5 $6 $7 $8 $9 X,Y pos of 4 corners*
0 Add a 4 corners polygon primitive as box body*
4,1,4,$2,$3,$4,$5,$6,$7,$8,$9,$2,$3,0*
0 Add four circle primitives for the rounded corners*
1,1,$1+$1,$2,$3*
1,1,$1+$1,$4,$5*
1,1,$1+$1,$6,$7*
1,1,$1+$1,$8,$9*
0 Add four rect primitives between the rounded corners*
20,1,$1+$1,$2,$3,$4,$5,0*
20,1,$1+$1,$4,$5,$6,$7,0*
20,1,$1+$1,$6,$7,$8,$9,0*
20,1,$1+$1,$8,$9,$2,$3,0*%
G04 Aperture macros list end*
%TA.AperFunction,ComponentPad*%
%ADD10RoundRect,0.250000X0.600000X0.725000X-0.600000X0.725000X-0.600000X-0.725000X0.600000X-0.725000X0*%
%TD*%
%TA.AperFunction,ComponentPad*%
%ADD11O,1.700000X1.950000*%
%TD*%
%TA.AperFunction,ComponentPad*%
%ADD12RoundRect,0.250000X0.600000X0.750000X-0.600000X0.750000X-0.600000X-0.750000X0.600000X-0.750000X0*%
%TD*%
%TA.AperFunction,ComponentPad*%
%ADD13O,1.700000X2.000000*%
%TD*%
%TA.AperFunction,ComponentPad*%
%ADD14C,4.700000*%
%TD*%
%TA.AperFunction,ComponentPad*%
%ADD15C,3.000000*%
%TD*%
%TA.AperFunction,ComponentPad*%
%ADD16RoundRect,0.250000X-0.750000X0.600000X-0.750000X-0.600000X0.750000X-0.600000X0.750000X0.600000X0*%
%TD*%
%TA.AperFunction,ComponentPad*%
%ADD17O,2.000000X1.700000*%
%TD*%
%TA.AperFunction,ComponentPad*%
%ADD18R,1.700000X1.700000*%
%TD*%
%TA.AperFunction,ComponentPad*%
%ADD19O,1.700000X1.700000*%
%TD*%
%TA.AperFunction,ComponentPad*%
%ADD20C,2.000000*%
%TD*%
%TA.AperFunction,ComponentPad*%
%ADD21RoundRect,0.250000X0.725000X-0.600000X0.725000X0.600000X-0.725000X0.600000X-0.725000X-0.600000X0*%
%TD*%
%TA.AperFunction,ComponentPad*%
%ADD22O,1.950000X1.700000*%
%TD*%
%TA.AperFunction,ViaPad*%
%ADD23C,0.600000*%
%TD*%
%TA.AperFunction,Conductor*%
%ADD24C,0.200000*%
%TD*%
G04 APERTURE END LIST*
D10*
%TO.P,J4,1,Pin_1*%
%TO.N,GND*%
X201600000Y-50400000D03*
D11*
%TO.P,J4,2,Pin_2*%
%TO.N,+5V*%
X199100000Y-50400000D03*
%TO.P,J4,3,Pin_3*%
%TO.N,PWM3*%
X196600000Y-50400000D03*
%TD*%
D12*
%TO.P,J1,1,Pin_1*%
%TO.N,GND*%
X158250000Y-50400000D03*
D13*
%TO.P,J1,2,Pin_2*%
%TO.N,+BATT*%
X155750000Y-50400000D03*
%TD*%
D14*
%TO.P,H3,1,1*%
%TO.N,GND*%
X149500000Y-73000000D03*
%TD*%
D15*
%TO.P,SW1,1,A*%
%TO.N,Net-(SW1-A)*%
X172400000Y-50000000D03*
%TO.P,SW1,2,B*%
%TO.N,+7.5V*%
X167700000Y-50000000D03*
%TO.P,SW1,3,C*%
%TO.N,+BATT*%
X163000000Y-50000000D03*
%TD*%
D16*
%TO.P,J6,1,Pin_1*%
%TO.N,+7.5V*%
X149900000Y-64700000D03*
D17*
%TO.P,J6,2,Pin_2*%
%TO.N,Net-(J6-Pin_2)*%
X149900000Y-67200000D03*
%TD*%
D18*
%TO.P,J3,1,Pin_1*%
%TO.N,unconnected-(J3-Pin_1-Pad1)*%
X154340000Y-74500000D03*
D19*
%TO.P,J3,2,Pin_2*%
%TO.N,+5V*%
X154340000Y-71960000D03*
%TO.P,J3,3,Pin_3*%
%TO.N,unconnected-(J3-Pin_3-Pad3)*%
X156880000Y-74500000D03*
%TO.P,J3,4,Pin_4*%
%TO.N,+5V*%
X156880000Y-71960000D03*
%TO.P,J3,5,Pin_5*%
%TO.N,unconnected-(J3-Pin_5-Pad5)*%
X159420000Y-74500000D03*
%TO.P,J3,6,Pin_6*%
%TO.N,GND*%
X159420000Y-71960000D03*
%TO.P,J3,7,Pin_7*%
%TO.N,unconnected-(J3-Pin_7-Pad7)*%
X161960000Y-74500000D03*
%TO.P,J3,8,Pin_8*%
%TO.N,USART2_RX*%
X161960000Y-71960000D03*
%TO.P,J3,9,Pin_9*%
%TO.N,GND*%
X164500000Y-74500000D03*
%TO.P,J3,10,Pin_10*%
%TO.N,USART2_TX*%
X164500000Y-71960000D03*
%TO.P,J3,11,Pin_11*%
%TO.N,unconnected-(J3-Pin_11-Pad11)*%
X167040000Y-74500000D03*
%TO.P,J3,12,Pin_12*%
%TO.N,unconnected-(J3-Pin_12-Pad12)*%
X167040000Y-71960000D03*
%TO.P,J3,13,Pin_13*%
%TO.N,unconnected-(J3-Pin_13-Pad13)*%
X169580000Y-74500000D03*
%TO.P,J3,14,Pin_14*%
%TO.N,GND*%
X169580000Y-71960000D03*
%TO.P,J3,15,Pin_15*%
%TO.N,unconnected-(J3-Pin_15-Pad15)*%
X172120000Y-74500000D03*
%TO.P,J3,16,Pin_16*%
%TO.N,unconnected-(J3-Pin_16-Pad16)*%
X172120000Y-71960000D03*
%TO.P,J3,17,Pin_17*%
%TO.N,unconnected-(J3-Pin_17-Pad17)*%
X174660000Y-74500000D03*
%TO.P,J3,18,Pin_18*%
%TO.N,unconnected-(J3-Pin_18-Pad18)*%
X174660000Y-71960000D03*
%TO.P,J3,19,Pin_19*%
%TO.N,unconnected-(J3-Pin_19-Pad19)*%
X177200000Y-74500000D03*
%TO.P,J3,20,Pin_20*%
%TO.N,GND*%
X177200000Y-71960000D03*
%TO.P,J3,21,Pin_21*%
%TO.N,unconnected-(J3-Pin_21-Pad21)*%
X179740000Y-74500000D03*
%TO.P,J3,22,Pin_22*%
%TO.N,unconnected-(J3-Pin_22-Pad22)*%
X179740000Y-71960000D03*
%TO.P,J3,23,Pin_23*%
%TO.N,unconnected-(J3-Pin_23-Pad23)*%
X182280000Y-74500000D03*
%TO.P,J3,24,Pin_24*%
%TO.N,unconnected-(J3-Pin_24-Pad24)*%
X182280000Y-71960000D03*
%TO.P,J3,25,Pin_25*%
%TO.N,GND*%
X184820000Y-74500000D03*
%TO.P,J3,26,Pin_26*%
%TO.N,unconnected-(J3-Pin_26-Pad26)*%
X184820000Y-71960000D03*
%TO.P,J3,27,Pin_27*%
%TO.N,unconnected-(J3-Pin_27-Pad27)*%
X187360000Y-74500000D03*
%TO.P,J3,28,Pin_28*%
%TO.N,unconnected-(J3-Pin_28-Pad28)*%
X187360000Y-71960000D03*
%TO.P,J3,29,Pin_29*%
%TO.N,unconnected-(J3-Pin_29-Pad29)*%
X189900000Y-74500000D03*
%TO.P,J3,30,Pin_30*%
%TO.N,GND*%
X189900000Y-71960000D03*
%TO.P,J3,31,Pin_31*%
%TO.N,unconnected-(J3-Pin_31-Pad31)*%
X192440000Y-74500000D03*
%TO.P,J3,32,Pin_32*%
%TO.N,unconnected-(J3-Pin_32-Pad32)*%
X192440000Y-71960000D03*
%TO.P,J3,33,Pin_33*%
%TO.N,unconnected-(J3-Pin_33-Pad33)*%
X194980000Y-74500000D03*
%TO.P,J3,34,Pin_34*%
%TO.N,GND*%
X194980000Y-71960000D03*
%TO.P,J3,35,Pin_35*%
%TO.N,unconnected-(J3-Pin_35-Pad35)*%
X197520000Y-74500000D03*
%TO.P,J3,36,Pin_36*%
%TO.N,unconnected-(J3-Pin_36-Pad36)*%
X197520000Y-71960000D03*
%TO.P,J3,37,Pin_37*%
%TO.N,unconnected-(J3-Pin_37-Pad37)*%
X200060000Y-74500000D03*
%TO.P,J3,38,Pin_38*%
%TO.N,unconnected-(J3-Pin_38-Pad38)*%
X200060000Y-71960000D03*
%TO.P,J3,39,Pin_39*%
%TO.N,GND*%
X202600000Y-74500000D03*
%TO.P,J3,40,Pin_40*%
%TO.N,unconnected-(J3-Pin_40-Pad40)*%
X202600000Y-71960000D03*
%TD*%
D20*
%TO.P,U1,1,Vin*%
%TO.N,+7.5V*%
X177460000Y-52125000D03*
%TO.P,U1,2,GND*%
%TO.N,GND*%
X180000000Y-52125000D03*
%TO.P,U1,3,Vout*%
%TO.N,+5V*%
X182540000Y-52125000D03*
%TD*%
D21*
%TO.P,J5,1,Pin_1*%
%TO.N,GND*%
X207200000Y-63300000D03*
D22*
%TO.P,J5,2,Pin_2*%
%TO.N,+5V*%
X207200000Y-60800000D03*
%TO.P,J5,3,Pin_3*%
%TO.N,PWM4*%
X207200000Y-58300000D03*
%TD*%
D14*
%TO.P,H2,1,1*%
%TO.N,GND*%
X207500000Y-50000000D03*
%TD*%
D16*
%TO.P,J7,1,Pin_1*%
%TO.N,+7.5V*%
X149900000Y-56000000D03*
D17*
%TO.P,J7,2,Pin_2*%
%TO.N,Net-(J7-Pin_2)*%
X149900000Y-58500000D03*
%TD*%
D18*
%TO.P,J2,1,Pin_1*%
%TO.N,unconnected-(J2-Pin_1-Pad1)*%
X163160000Y-56860000D03*
D19*
%TO.P,J2,2,Pin_2*%
%TO.N,I2C1_SCL*%
X165700000Y-56860000D03*
%TO.P,J2,3,Pin_3*%
%TO.N,+3.3V*%
X163160000Y-59400000D03*
%TO.P,J2,4,Pin_4*%
%TO.N,I2C1_SDA*%
X165700000Y-59400000D03*
%TO.P,J2,5,Pin_5*%
%TO.N,+3.3V*%
X163160000Y-61940000D03*
%TO.P,J2,6,Pin_6*%
%TO.N,GND*%
X165700000Y-61940000D03*
%TO.P,J2,7,Pin_7*%
%TO.N,unconnected-(J2-Pin_7-Pad7)*%
X163160000Y-64480000D03*
%TO.P,J2,8,Pin_8*%
%TO.N,unconnected-(J2-Pin_8-Pad8)*%
X165700000Y-64480000D03*
%TO.P,J2,9,Pin_9*%
%TO.N,GND*%
X163160000Y-67020000D03*
%TO.P,J2,10,Pin_10*%
%TO.N,unconnected-(J2-Pin_10-Pad10)*%
X165700000Y-67020000D03*
%TD*%
D14*
%TO.P,H4,1,1*%
%TO.N,GND*%
X207500000Y-73000000D03*
%TD*%
%TO.P,H1,1,1*%
%TO.N,GND*%
X149500000Y-50000000D03*
%TD*%
D23*
%TO.N,GND*%
X191600000Y-47400000D03*
X189000000Y-47400000D03*
%TO.N,NRST*%
X192752971Y-59900000D03*
%TO.N,PWM4*%
X194351994Y-61604633D03*
%TO.N,+3.3V*%
X191334358Y-63256239D03*
%TO.N,NRST*%
X192619344Y-62112315D03*
%TO.N,+3.3V*%
X198500000Y-67500000D03*
%TO.N,SWCLK*%
X194500000Y-66300000D03*
%TO.N,SWDIO*%
X194600000Y-67600000D03*
%TO.N,GND*%
X201500000Y-62500000D03*
X201500000Y-66300000D03*
X201500000Y-65000000D03*
X192000000Y-63700000D03*
%TO.N,NRST*%
X184800000Y-59500000D03*
%TO.N,+5V*%
X169600000Y-63800000D03*
X171200000Y-63800000D03*
X173700000Y-66900000D03*
X170400000Y-63800000D03*
%TO.N,+3.3V*%
X173600000Y-59600000D03*
X191100000Y-68250000D03*
X181900000Y-57100000D03*
X172200000Y-59600000D03*
X175000000Y-59600000D03*
X187250000Y-69250000D03*
X177100000Y-66900000D03*
X184100000Y-60300000D03*
%TO.N,+7.5V*%
X158100000Y-65400000D03*
%TO.N,SWCLK*%
X192400000Y-57100000D03*
%TO.N,SWDIO*%
X192400000Y-57900000D03*
%TO.N,USART2_RX*%
X165900000Y-70600000D03*
%TO.N,I2C1_SDA*%
X186000000Y-57000000D03*
%TO.N,I2C1_SCL*%
X186800000Y-57000000D03*
%TO.N,SPI_CS*%
X189000003Y-65800000D03*
X185200000Y-65150000D03*
%TO.N,SPI1_SCK*%
X188200000Y-65800000D03*
X186000000Y-65150000D03*
%TO.N,GND*%
X180000000Y-69800000D03*
X180620000Y-61100000D03*
X184300000Y-62800000D03*
X171500000Y-68300000D03*
X153800000Y-55300000D03*
X170400000Y-56200000D03*
X155200000Y-64000000D03*
X184300000Y-65600000D03*
X176700000Y-53500000D03*
X180500000Y-65600000D03*
X159700000Y-69500000D03*
X195200000Y-55600000D03*
X184400000Y-54400000D03*
X191050000Y-67250000D03*
X190000000Y-57100000D03*
X169000000Y-57300000D03*
X171700000Y-57300000D03*
X185850000Y-67650000D03*
X180600000Y-58500000D03*
X170700000Y-53900000D03*
X193400000Y-55600000D03*
X188350000Y-69750000D03*
X153800000Y-64000000D03*
X181900000Y-54400000D03*
X161100000Y-67800000D03*
X180200000Y-55100000D03*
X155200000Y-55300000D03*
X154500000Y-55300000D03*
X169900000Y-67900000D03*
X177800000Y-68300000D03*
X178700000Y-61200000D03*
X154500000Y-64000000D03*
X190000000Y-62600000D03*
%TD*%
D24*
%TO.N,NRST*%
X192752971Y-59900000D02*
X192752971Y-61978688D01*
X192752971Y-61978688D02*
X192619344Y-62112315D01*
%TO.N,SWDIO*%
X192400000Y-57900000D02*
X193352971Y-58852971D01*
X193352971Y-58852971D02*
X193352971Y-66352971D01*
X193352971Y-66352971D02*
X194600000Y-67600000D01*
%TO.N,NRST*%
X192431659Y-62300000D02*
X190548529Y-62300000D01*
X192619344Y-62112315D02*
X192431659Y-62300000D01*
X190548529Y-62300000D02*
X187748529Y-59500000D01*
X187748529Y-59500000D02*
X184800000Y-59500000D01*
%TO.N,PWM4*%
X194647361Y-61900000D02*
X203600000Y-61900000D01*
X194351994Y-61604633D02*
X194647361Y-61900000D01*
X203600000Y-61900000D02*
X207200000Y-58300000D01*
%TO.N,SWCLK*%
X194500000Y-66300000D02*
X194300000Y-66300000D01*
X193752971Y-65752971D02*
X193752971Y-58404442D01*
X194300000Y-66300000D02*
X193752971Y-65752971D01*
X193752971Y-58404442D02*
X192448529Y-57100000D01*
X192448529Y-57100000D02*
X192400000Y-57100000D01*
%TO.N,USART2_RX*%
X163670000Y-70250000D02*
X161960000Y-71960000D01*
X165550000Y-70250000D02*
X163670000Y-70250000D01*
X165900000Y-70600000D02*
X165550000Y-70250000D01*
%TO.N,I2C1_SDA*%
X175000000Y-57700000D02*
X185300000Y-57700000D01*
X185300000Y-57700000D02*
X186000000Y-57000000D01*
X174300000Y-58400000D02*
X175000000Y-57700000D01*
X166700000Y-58400000D02*
X174300000Y-58400000D01*
X165700000Y-59400000D02*
X166700000Y-58400000D01*
%TO.N,I2C1_SCL*%
X174134314Y-58000000D02*
X166800000Y-58000000D01*
X180600000Y-57300000D02*
X174834314Y-57300000D01*
X181500000Y-56400000D02*
X180600000Y-57300000D01*
X186800000Y-56951471D02*
X186248529Y-56400000D01*
X186800000Y-57000000D02*
X186800000Y-56951471D01*
X166800000Y-57960000D02*
X165700000Y-56860000D01*
X186248529Y-56400000D02*
X181500000Y-56400000D01*
X174834314Y-57300000D02*
X174134314Y-58000000D01*
X166800000Y-58000000D02*
X166800000Y-57960000D01*
%TO.N,SPI_CS*%
X189000003Y-65751474D02*
X188448529Y-65200000D01*
X185200000Y-65101471D02*
X185200000Y-65150000D01*
X186248529Y-64550000D02*
X185751471Y-64550000D01*
X188448529Y-65200000D02*
X186898529Y-65200000D01*
X186898529Y-65200000D02*
X186248529Y-64550000D01*
X185751471Y-64550000D02*
X185200000Y-65101471D01*
X189000003Y-65800000D02*
X189000003Y-65751474D01*
%TO.N,SPI1_SCK*%
X186450000Y-65600000D02*
X186000000Y-65150000D01*
X188200000Y-65800000D02*
X188000000Y-65600000D01*
X188000000Y-65600000D02*
X186450000Y-65600000D01*
%TD*%
%TA.AperFunction,Conductor*%
%TO.N,GND*%
G36*
X152937539Y-47020185D02*
G01*
X152983294Y-47072989D01*
X152994500Y-47124500D01*
X152994500Y-52676007D01*
X152999197Y-52719686D01*
X153010397Y-52771174D01*
X153012890Y-52781372D01*
X153012891Y-52781375D01*
X153055899Y-52862083D01*
X153055901Y-52862086D01*
X153101660Y-52914895D01*
X153119242Y-52932839D01*
X153119246Y-52932843D01*
X153119247Y-52932844D01*
X153119249Y-52932845D01*
X153199059Y-52977488D01*
X153199063Y-52977490D01*
X153266102Y-52997175D01*
X153324000Y-53005500D01*
X153324004Y-53005500D01*
X165475991Y-53005500D01*
X165476000Y-53005500D01*
X165519684Y-53000803D01*
X165548875Y-52994452D01*
X165571174Y-52989602D01*
X165571190Y-52989598D01*
X165571195Y-52989597D01*
X165581373Y-52987110D01*
X165662085Y-52944100D01*
X165714889Y-52898345D01*
X165732843Y-52880754D01*
X165777490Y-52800937D01*
X165797175Y-52733898D01*
X165805500Y-52676000D01*
X165805500Y-52125000D01*
X176254357Y-52125000D01*
X176274884Y-52346535D01*
X176274885Y-52346537D01*
X176335769Y-52560523D01*
X176335775Y-52560538D01*
X176434938Y-52759683D01*
X176434943Y-52759691D01*
X176569020Y-52937238D01*
X176733437Y-53087123D01*
X176733439Y-53087125D01*
X176922595Y-53204245D01*
X176922596Y-53204245D01*
X176922599Y-53204247D01*
X177130060Y-53284618D01*
X177348757Y-53325500D01*
X177348759Y-53325500D01*
X177571241Y-53325500D01*
X177571243Y-53325500D01*
X177789940Y-53284618D01*
X177997401Y-53204247D01*
X178186562Y-53087124D01*
X178350981Y-52937236D01*
X178485058Y-52759689D01*
X178584229Y-52560528D01*
X178645115Y-52346536D01*
X178665643Y-52125000D01*
X181334357Y-52125000D01*
X181354884Y-52346535D01*
X181354885Y-52346537D01*
X181415769Y-52560523D01*
X181415775Y-52560538D01*
X181514938Y-52759683D01*
X181514943Y-52759691D01*
X181649020Y-52937238D01*
X181813437Y-53087123D01*
X181813439Y-53087125D01*
X182002595Y-53204245D01*
X182002596Y-53204245D01*
X182002599Y-53204247D01*
X182210060Y-53284618D01*
X182428757Y-53325500D01*
X182428759Y-53325500D01*
X182651241Y-53325500D01*
X182651243Y-53325500D01*
X182869940Y-53284618D01*
X183077401Y-53204247D01*
X183266562Y-53087124D01*
X183430981Y-52937236D01*
X183565058Y-52759689D01*
X183664229Y-52560528D01*
X183725115Y-52346536D01*
X183745643Y-52125000D01*
X183725115Y-51903464D01*
X183664229Y-51689472D01*
X183650804Y-51662511D01*
X183565061Y-51490316D01*
X183565056Y-51490308D01*
X183430979Y-51312761D01*
X183266562Y-51162876D01*
X183266560Y-51162874D01*
X183077404Y-51045754D01*
X183077398Y-51045752D01*
X183077344Y-51045731D01*
X182869940Y-50965382D01*
X182651243Y-50924500D01*
X182428757Y-50924500D01*
X182210060Y-50965382D01*
X182126057Y-50997925D01*
X182002601Y-51045752D01*
X182002595Y-51045754D01*
X181813439Y-51162874D01*
X181813437Y-51162876D01*
X181649020Y-51312761D01*
X181514943Y-51490308D01*
X181514938Y-51490316D01*
X181415775Y-51689461D01*
X181415769Y-51689476D01*
X181354885Y-51903462D01*
X181354884Y-51903464D01*
X181334357Y-52124999D01*
X181334357Y-52125000D01*
X178665643Y-52125000D01*
X178645115Y-51903464D01*
X178584229Y-51689472D01*
X178570804Y-51662511D01*
X178485061Y-51490316D01*
X178485056Y-51490308D01*
X178350979Y-51312761D01*
X178186562Y-51162876D01*
X178186560Y-51162874D01*
X177997404Y-51045754D01*
X177997398Y-51045752D01*
X177997344Y-51045731D01*
X177789940Y-50965382D01*
X177571243Y-50924500D01*
X177348757Y-50924500D01*
X177130060Y-50965382D01*
X177046057Y-50997925D01*
X176922601Y-51045752D01*
X176922595Y-51045754D01*
X176733439Y-51162874D01*
X176733437Y-51162876D01*
X176569020Y-51312761D01*
X176434943Y-51490308D01*
X176434938Y-51490316D01*
X176335775Y-51689461D01*
X176335769Y-51689476D01*
X176274885Y-51903462D01*
X176274884Y-51903464D01*
X176254357Y-52124999D01*
X176254357Y-52125000D01*
X165805500Y-52125000D01*
X165805500Y-50442163D01*
X165825185Y-50375124D01*
X165877989Y-50329369D01*
X165947147Y-50319425D01*
X166010703Y-50348450D01*
X166048477Y-50407228D01*
X166050391Y-50414570D01*
X166070492Y-50502637D01*
X166163607Y-50739888D01*
X166291041Y-50960612D01*
X166449950Y-51159877D01*
X166636783Y-51333232D01*
X166847366Y-51476805D01*
X166847371Y-51476807D01*
X166847372Y-51476808D01*
X166847373Y-51476809D01*
X166955459Y-51528860D01*
X167076992Y-51587387D01*
X167076993Y-51587387D01*
X167076996Y-51587389D01*
X167320542Y-51662513D01*
X167572565Y-51700500D01*
X167827435Y-51700500D01*
X168079458Y-51662513D01*
X168323004Y-51587389D01*
X168552634Y-51476805D01*
X168763217Y-51333232D01*
X168950050Y-51159877D01*
X169108959Y-50960612D01*
X169236393Y-50739888D01*
X169329508Y-50502637D01*
X169386222Y-50254157D01*
X169394384Y-50145232D01*
X169405268Y-50000004D01*
X170694732Y-50000004D01*
X170713777Y-50254154D01*
X170735299Y-50348450D01*
X170770492Y-50502637D01*
X170863607Y-50739888D01*
X170991041Y-50960612D01*
X171149950Y-51159877D01*
X171336783Y-51333232D01*
X171547366Y-51476805D01*
X171547371Y-51476807D01*
X171547372Y-51476808D01*
X171547373Y-51476809D01*
X171655459Y-51528860D01*
X171776992Y-51587387D01*
X171776993Y-51587387D01*
X171776996Y-51587389D01*
X172020542Y-51662513D01*
X172272565Y-51700500D01*
X172527435Y-51700500D01*
X172779458Y-51662513D01*
X173023004Y-51587389D01*
X173252634Y-51476805D01*
X173463217Y-51333232D01*
X173650050Y-51159877D01*
X173808959Y-50960612D01*
X173936393Y-50739888D01*
X173980122Y-50628469D01*
X195549500Y-50628469D01*
X195589868Y-50831412D01*
X195589870Y-50831420D01*
X195645688Y-50966177D01*
X195669059Y-51022598D01*
X195723031Y-51103374D01*
X195784024Y-51194657D01*
X195930342Y-51340975D01*
X195930345Y-51340977D01*
X196102402Y-51455941D01*
X196293580Y-51535130D01*
X196496530Y-51575499D01*
X196496534Y-51575500D01*
X196496535Y-51575500D01*
X196703466Y-51575500D01*
X196703467Y-51575499D01*
X196906420Y-51535130D01*
X197097598Y-51455941D01*
X197269655Y-51340977D01*
X197415977Y-51194655D01*
X197530941Y-51022598D01*
X197610130Y-50831420D01*
X197650499Y-50628469D01*
X198049500Y-50628469D01*
X198089868Y-50831412D01*
X198089870Y-50831420D01*
X198145688Y-50966177D01*
X198169059Y-51022598D01*
X198223031Y-51103374D01*
X198284024Y-51194657D01*
X198430342Y-51340975D01*
X198430345Y-51340977D01*
X198602402Y-51455941D01*
X198793580Y-51535130D01*
X198996530Y-51575499D01*
X198996534Y-51575500D01*
X198996535Y-51575500D01*
X199203466Y-51575500D01*
X199203467Y-51575499D01*
X199406420Y-51535130D01*
X199597598Y-51455941D01*
X199769655Y-51340977D01*
X199915977Y-51194655D01*
X200030941Y-51022598D01*
X200110130Y-50831420D01*
X200150500Y-50628465D01*
X200150500Y-50171535D01*
X200110130Y-49968580D01*
X200030941Y-49777402D01*
X199915977Y-49605345D01*
X199915975Y-49605342D01*
X199769657Y-49459024D01*
X199646928Y-49377020D01*
X199597598Y-49344059D01*
X199406420Y-49264870D01*
X199406412Y-49264868D01*
X199203469Y-49224500D01*
X199203465Y-49224500D01*
X198996535Y-49224500D01*
X198996530Y-49224500D01*
X198793587Y-49264868D01*
X198793579Y-49264870D01*
X198602403Y-49344058D01*
X198430342Y-49459024D01*
X198284024Y-49605342D01*
X198169058Y-49777403D01*
X198089870Y-49968579D01*
X198089868Y-49968587D01*
X198049500Y-50171530D01*
X198049500Y-50628469D01*
X197650499Y-50628469D01*
X197650500Y-50628465D01*
X197650500Y-50171535D01*
X197610130Y-49968580D01*
X197530941Y-49777402D01*
X197415977Y-49605345D01*
X197415975Y-49605342D01*
X197269657Y-49459024D01*
X197146928Y-49377020D01*
X197097598Y-49344059D01*
X196906420Y-49264870D01*
X196906412Y-49264868D01*
X196703469Y-49224500D01*
X196703465Y-49224500D01*
X196496535Y-49224500D01*
X196496530Y-49224500D01*
X196293587Y-49264868D01*
X196293579Y-49264870D01*
X196102403Y-49344058D01*
X195930342Y-49459024D01*
X195784024Y-49605342D01*
X195669058Y-49777403D01*
X195589870Y-49968579D01*
X195589868Y-49968587D01*
X195549500Y-50171530D01*
X195549500Y-50628469D01*
X173980122Y-50628469D01*
X174029508Y-50502637D01*
X174086222Y-50254157D01*
X174094384Y-50145232D01*
X174105268Y-50000004D01*
X174105268Y-49999995D01*
X174090987Y-49809426D01*
X174086222Y-49745843D01*
X174029508Y-49497363D01*
X173936393Y-49260112D01*
X173808959Y-49039388D01*
X173650050Y-48840123D01*
X173463217Y-48666768D01*
X173252634Y-48523195D01*
X173252630Y-48523193D01*
X173252627Y-48523191D01*
X173252626Y-48523190D01*
X173023006Y-48412612D01*
X173023008Y-48412612D01*
X172779466Y-48337489D01*
X172779462Y-48337488D01*
X172779458Y-48337487D01*
X172658231Y-48319214D01*
X172527440Y-48299500D01*
X172527435Y-48299500D01*
X172272565Y-48299500D01*
X172272559Y-48299500D01*
X172115609Y-48323157D01*
X172020542Y-48337487D01*
X172020539Y-48337488D01*
X172020533Y-48337489D01*
X171776992Y-48412612D01*
X171547373Y-48523190D01*
X171547372Y-48523191D01*
X171336782Y-48666768D01*
X171149952Y-48840121D01*
X171149950Y-48840123D01*
X170991041Y-49039388D01*
X170863608Y-49260109D01*
X170770492Y-49497362D01*
X170770490Y-49497369D01*
X170713777Y-49745845D01*
X170694732Y-49999995D01*
X170694732Y-50000004D01*
X169405268Y-50000004D01*
X169405268Y-49999995D01*
X169390987Y-49809426D01*
X169386222Y-49745843D01*
X169329508Y-49497363D01*
X169236393Y-49260112D01*
X169108959Y-49039388D01*
X168950050Y-48840123D01*
X168763217Y-48666768D01*
X168552634Y-48523195D01*
X168552630Y-48523193D01*
X168552627Y-48523191D01*
X168552626Y-48523190D01*
X168323006Y-48412612D01*
X168323008Y-48412612D01*
X168079466Y-48337489D01*
X168079462Y-48337488D01*
X168079458Y-48337487D01*
X167958231Y-48319214D01*
X167827440Y-48299500D01*
X167827435Y-48299500D01*
X167572565Y-48299500D01*
X167572559Y-48299500D01*
X167415609Y-48323157D01*
X167320542Y-48337487D01*
X167320539Y-48337488D01*
X167320533Y-48337489D01*
X167076992Y-48412612D01*
X166847373Y-48523190D01*
X166847372Y-48523191D01*
X166636782Y-48666768D01*
X166449952Y-48840121D01*
X166449950Y-48840123D01*
X166291041Y-49039388D01*
X166163608Y-49260109D01*
X166070492Y-49497362D01*
X166070490Y-49497369D01*
X166050391Y-49585429D01*
X166016282Y-49646407D01*
X165954621Y-49679265D01*
X165884983Y-49673570D01*
X165829480Y-49631130D01*
X165805732Y-49565420D01*
X165805500Y-49557836D01*
X165805500Y-47124500D01*
X165825185Y-47057461D01*
X165877989Y-47011706D01*
X165929500Y-47000500D01*
X207434108Y-47000500D01*
X207496754Y-47000500D01*
X207503244Y-47000670D01*
X207807046Y-47016592D01*
X207819953Y-47017949D01*
X207891654Y-47029305D01*
X208117209Y-47065028D01*
X208129896Y-47067724D01*
X208420625Y-47145625D01*
X208432965Y-47149635D01*
X208713938Y-47257490D01*
X208725790Y-47262767D01*
X208993968Y-47399411D01*
X209005199Y-47405896D01*
X209257608Y-47569812D01*
X209268109Y-47577441D01*
X209502010Y-47766850D01*
X209511655Y-47775535D01*
X209724464Y-47988344D01*
X209733149Y-47997989D01*
X209922558Y-48231890D01*
X209930187Y-48242391D01*
X210094101Y-48494796D01*
X210100591Y-48506036D01*
X210237231Y-48774206D01*
X210242510Y-48786064D01*
X210350363Y-49067033D01*
X210354374Y-49079376D01*
X210432273Y-49370097D01*
X210434971Y-49382794D01*
X210482050Y-49680046D01*
X210483407Y-49692953D01*
X210499330Y-49996754D01*
X210499500Y-50003244D01*
X210499500Y-72996753D01*
X210499330Y-73003243D01*
X210483407Y-73307046D01*
X210482050Y-73319953D01*
X210434971Y-73617205D01*
X210432273Y-73629902D01*
X210354374Y-73920623D01*
X210350363Y-73932966D01*
X210242510Y-74213935D01*
X210237231Y-74225793D01*
X210100591Y-74493963D01*
X210094101Y-74505203D01*
X209930187Y-74757608D01*
X209922558Y-74768109D01*
X209733149Y-75002010D01*
X209724464Y-75011655D01*
X209511655Y-75224464D01*
X209502010Y-75233149D01*
X209268109Y-75422558D01*
X209257608Y-75430187D01*
X209005203Y-75594101D01*
X208993963Y-75600591D01*
X208725793Y-75737231D01*
X208713935Y-75742510D01*
X208432966Y-75850363D01*
X208420623Y-75854374D01*
X208129902Y-75932273D01*
X208117205Y-75934971D01*
X207819953Y-75982050D01*
X207807046Y-75983407D01*
X207503244Y-75999330D01*
X207496754Y-75999500D01*
X149503246Y-75999500D01*
X149496756Y-75999330D01*
X149192953Y-75983407D01*
X149180046Y-75982050D01*
X148882794Y-75934971D01*
X148870097Y-75932273D01*
X148579376Y-75854374D01*
X148567033Y-75850363D01*
X148286064Y-75742510D01*
X148274206Y-75737231D01*
X148006036Y-75600591D01*
X147994796Y-75594101D01*
X147742391Y-75430187D01*
X147731890Y-75422558D01*
X147666680Y-75369752D01*
X153289500Y-75369752D01*
X153301131Y-75428229D01*
X153301132Y-75428230D01*
X153345447Y-75494552D01*
X153411769Y-75538867D01*
X153411770Y-75538868D01*
X153470247Y-75550499D01*
X153470250Y-75550500D01*
X153470252Y-75550500D01*
X155209750Y-75550500D01*
X155209751Y-75550499D01*
X155224568Y-75547552D01*
X155268229Y-75538868D01*
X155268229Y-75538867D01*
X155268231Y-75538867D01*
X155334552Y-75494552D01*
X155378867Y-75428231D01*
X155378867Y-75428229D01*
X155378868Y-75428229D01*
X155390499Y-75369752D01*
X155390500Y-75369750D01*
X155390500Y-74500000D01*
X155824417Y-74500000D01*
X155844699Y-74705932D01*
X155844700Y-74705934D01*
X155904768Y-74903954D01*
X156002315Y-75086450D01*
X156002317Y-75086452D01*
X156133589Y-75246410D01*
X156230209Y-75325702D01*
X156293550Y-75377685D01*
X156476046Y-75475232D01*
X156674066Y-75535300D01*
X156674065Y-75535300D01*
X156692529Y-75537118D01*
X156880000Y-75555583D01*
X157085934Y-75535300D01*
X157283954Y-75475232D01*
X157466450Y-75377685D01*
X157626410Y-75246410D01*
X157757685Y-75086450D01*
X157855232Y-74903954D01*
X157915300Y-74705934D01*
X157935583Y-74500000D01*
X158364417Y-74500000D01*
X158384699Y-74705932D01*
X158384700Y-74705934D01*
X158444768Y-74903954D01*
X158542315Y-75086450D01*
X158542317Y-75086452D01*
X158673589Y-75246410D01*
X158770209Y-75325702D01*
X158833550Y-75377685D01*
X159016046Y-75475232D01*
X159214066Y-75535300D01*
X159214065Y-75535300D01*
X159232529Y-75537118D01*
X159420000Y-75555583D01*
X159625934Y-75535300D01*
X159823954Y-75475232D01*
X160006450Y-75377685D01*
X160166410Y-75246410D01*
X160297685Y-75086450D01*
X160395232Y-74903954D01*
X160455300Y-74705934D01*
X160475583Y-74500000D01*
X160904417Y-74500000D01*
X160924699Y-74705932D01*
X160924700Y-74705934D01*
X160984768Y-74903954D01*
X161082315Y-75086450D01*
X161082317Y-75086452D01*
X161213589Y-75246410D01*
X161310209Y-75325702D01*
X161373550Y-75377685D01*
X161556046Y-75475232D01*
X161754066Y-75535300D01*
X161754065Y-75535300D01*
X161772529Y-75537118D01*
X161960000Y-75555583D01*
X162165934Y-75535300D01*
X162363954Y-75475232D01*
X162546450Y-75377685D01*
X162706410Y-75246410D01*
X162837685Y-75086450D01*
X162935232Y-74903954D01*
X162995300Y-74705934D01*
X163015583Y-74500000D01*
X165984417Y-74500000D01*
X166004699Y-74705932D01*
X166004700Y-74705934D01*
X166064768Y-74903954D01*
X166162315Y-75086450D01*
X166162317Y-75086452D01*
X166293589Y-75246410D01*
X166390209Y-75325702D01*
X166453550Y-75377685D01*
X166636046Y-75475232D01*
X166834066Y-75535300D01*
X166834065Y-75535300D01*
X166852529Y-75537118D01*
X167040000Y-75555583D01*
X167245934Y-75535300D01*
X167443954Y-75475232D01*
X167626450Y-75377685D01*
X167786410Y-75246410D01*
X167917685Y-75086450D01*
X168015232Y-74903954D01*
X168075300Y-74705934D01*
X168095583Y-74500000D01*
X168524417Y-74500000D01*
X168544699Y-74705932D01*
X168544700Y-74705934D01*
X168604768Y-74903954D01*
X168702315Y-75086450D01*
X168702317Y-75086452D01*
X168833589Y-75246410D01*
X168930209Y-75325702D01*
X168993550Y-75377685D01*
X169176046Y-75475232D01*
X169374066Y-75535300D01*
X169374065Y-75535300D01*
X169392529Y-75537118D01*
X169580000Y-75555583D01*
X169785934Y-75535300D01*
X169983954Y-75475232D01*
X170166450Y-75377685D01*
X170326410Y-75246410D01*
X170457685Y-75086450D01*
X170555232Y-74903954D01*
X170615300Y-74705934D01*
X170635583Y-74500000D01*
X171064417Y-74500000D01*
X171084699Y-74705932D01*
X171084700Y-74705934D01*
X171144768Y-74903954D01*
X171242315Y-75086450D01*
X171242317Y-75086452D01*
X171373589Y-75246410D01*
X171470209Y-75325702D01*
X171533550Y-75377685D01*
X171716046Y-75475232D01*
X171914066Y-75535300D01*
X171914065Y-75535300D01*
X171932529Y-75537118D01*
X172120000Y-75555583D01*
X172325934Y-75535300D01*
X172523954Y-75475232D01*
X172706450Y-75377685D01*
X172866410Y-75246410D01*
X172997685Y-75086450D01*
X173095232Y-74903954D01*
X173155300Y-74705934D01*
X173175583Y-74500000D01*
X173604417Y-74500000D01*
X173624699Y-74705932D01*
X173624700Y-74705934D01*
X173684768Y-74903954D01*
X173782315Y-75086450D01*
X173782317Y-75086452D01*
X173913589Y-75246410D01*
X174010209Y-75325702D01*
X174073550Y-75377685D01*
X174256046Y-75475232D01*
X174454066Y-75535300D01*
X174454065Y-75535300D01*
X174472529Y-75537118D01*
X174660000Y-75555583D01*
X174865934Y-75535300D01*
X175063954Y-75475232D01*
X175246450Y-75377685D01*
X175406410Y-75246410D01*
X175537685Y-75086450D01*
X175635232Y-74903954D01*
X175695300Y-74705934D01*
X175715583Y-74500000D01*
X176144417Y-74500000D01*
X176164699Y-74705932D01*
X176164700Y-74705934D01*
X176224768Y-74903954D01*
X176322315Y-75086450D01*
X176322317Y-75086452D01*
X176453589Y-75246410D01*
X176550209Y-75325702D01*
X176613550Y-75377685D01*
X176796046Y-75475232D01*
X176994066Y-75535300D01*
X176994065Y-75535300D01*
X177012529Y-75537118D01*
X177200000Y-75555583D01*
X177405934Y-75535300D01*
X177603954Y-75475232D01*
X177786450Y-75377685D01*
X177946410Y-75246410D01*
X178077685Y-75086450D01*
X178175232Y-74903954D01*
X178235300Y-74705934D01*
X178255583Y-74500000D01*
X178684417Y-74500000D01*
X178704699Y-74705932D01*
X178704700Y-74705934D01*
X178764768Y-74903954D01*
X178862315Y-75086450D01*
X178862317Y-75086452D01*
X178993589Y-75246410D01*
X179090209Y-75325702D01*
X179153550Y-75377685D01*
X179336046Y-75475232D01*
X179534066Y-75535300D01*
X179534065Y-75535300D01*
X179552529Y-75537118D01*
X179740000Y-75555583D01*
X179945934Y-75535300D01*
X180143954Y-75475232D01*
X180326450Y-75377685D01*
X180486410Y-75246410D01*
X180617685Y-75086450D01*
X180715232Y-74903954D01*
X180775300Y-74705934D01*
X180795583Y-74500000D01*
X181224417Y-74500000D01*
X181244699Y-74705932D01*
X181244700Y-74705934D01*
X181304768Y-74903954D01*
X181402315Y-75086450D01*
X181402317Y-75086452D01*
X181533589Y-75246410D01*
X181630209Y-75325702D01*
X181693550Y-75377685D01*
X181876046Y-75475232D01*
X182074066Y-75535300D01*
X182074065Y-75535300D01*
X182092529Y-75537118D01*
X182280000Y-75555583D01*
X182485934Y-75535300D01*
X182683954Y-75475232D01*
X182866450Y-75377685D01*
X183026410Y-75246410D01*
X183157685Y-75086450D01*
X183255232Y-74903954D01*
X183315300Y-74705934D01*
X183335583Y-74500000D01*
X186304417Y-74500000D01*
X186324699Y-74705932D01*
X186324700Y-74705934D01*
X186384768Y-74903954D01*
X186482315Y-75086450D01*
X186482317Y-75086452D01*
X186613589Y-75246410D01*
X186710209Y-75325702D01*
X186773550Y-75377685D01*
X186956046Y-75475232D01*
X187154066Y-75535300D01*
X187154065Y-75535300D01*
X187172529Y-75537118D01*
X187360000Y-75555583D01*
X187565934Y-75535300D01*
X187763954Y-75475232D01*
X187946450Y-75377685D01*
X188106410Y-75246410D01*
X188237685Y-75086450D01*
X188335232Y-74903954D01*
X188395300Y-74705934D01*
X188415583Y-74500000D01*
X188844417Y-74500000D01*
X188864699Y-74705932D01*
X188864700Y-74705934D01*
X188924768Y-74903954D01*
X189022315Y-75086450D01*
X189022317Y-75086452D01*
X189153589Y-75246410D01*
X189250209Y-75325702D01*
X189313550Y-75377685D01*
X189496046Y-75475232D01*
X189694066Y-75535300D01*
X189694065Y-75535300D01*
X189712529Y-75537118D01*
X189900000Y-75555583D01*
X190105934Y-75535300D01*
X190303954Y-75475232D01*
X190486450Y-75377685D01*
X190646410Y-75246410D01*
X190777685Y-75086450D01*
X190875232Y-74903954D01*
X190935300Y-74705934D01*
X190955583Y-74500000D01*
X191384417Y-74500000D01*
X191404699Y-74705932D01*
X191404700Y-74705934D01*
X191464768Y-74903954D01*
X191562315Y-75086450D01*
X191562317Y-75086452D01*
X191693589Y-75246410D01*
X191790209Y-75325702D01*
X191853550Y-75377685D01*
X192036046Y-75475232D01*
X192234066Y-75535300D01*
X192234065Y-75535300D01*
X192252529Y-75537118D01*
X192440000Y-75555583D01*
X192645934Y-75535300D01*
X192843954Y-75475232D01*
X193026450Y-75377685D01*
X193186410Y-75246410D01*
X193317685Y-75086450D01*
X193415232Y-74903954D01*
X193475300Y-74705934D01*
X193495583Y-74500000D01*
X193924417Y-74500000D01*
X193944699Y-74705932D01*
X193944700Y-74705934D01*
X194004768Y-74903954D01*
X194102315Y-75086450D01*
X194102317Y-75086452D01*
X194233589Y-75246410D01*
X194330209Y-75325702D01*
X194393550Y-75377685D01*
X194576046Y-75475232D01*
X194774066Y-75535300D01*
X194774065Y-75535300D01*
X194792529Y-75537118D01*
X194980000Y-75555583D01*
X195185934Y-75535300D01*
X195383954Y-75475232D01*
X195566450Y-75377685D01*
X195726410Y-75246410D01*
X195857685Y-75086450D01*
X195955232Y-74903954D01*
X196015300Y-74705934D01*
X196035583Y-74500000D01*
X196464417Y-74500000D01*
X196484699Y-74705932D01*
X196484700Y-74705934D01*
X196544768Y-74903954D01*
X196642315Y-75086450D01*
X196642317Y-75086452D01*
X196773589Y-75246410D01*
X196870209Y-75325702D01*
X196933550Y-75377685D01*
X197116046Y-75475232D01*
X197314066Y-75535300D01*
X197314065Y-75535300D01*
X197332529Y-75537118D01*
X197520000Y-75555583D01*
X197725934Y-75535300D01*
X197923954Y-75475232D01*
X198106450Y-75377685D01*
X198266410Y-75246410D01*
X198397685Y-75086450D01*
X198495232Y-74903954D01*
X198555300Y-74705934D01*
X198575583Y-74500000D01*
X199004417Y-74500000D01*
X199024699Y-74705932D01*
X199024700Y-74705934D01*
X199084768Y-74903954D01*
X199182315Y-75086450D01*
X199182317Y-75086452D01*
X199313589Y-75246410D01*
X199410209Y-75325702D01*
X199473550Y-75377685D01*
X199656046Y-75475232D01*
X199854066Y-75535300D01*
X199854065Y-75535300D01*
X199872529Y-75537118D01*
X200060000Y-75555583D01*
X200265934Y-75535300D01*
X200463954Y-75475232D01*
X200646450Y-75377685D01*
X200806410Y-75246410D01*
X200937685Y-75086450D01*
X201035232Y-74903954D01*
X201095300Y-74705934D01*
X201115583Y-74500000D01*
X201095300Y-74294066D01*
X201035232Y-74096046D01*
X200937685Y-73913550D01*
X200885702Y-73850209D01*
X200806410Y-73753589D01*
X200656121Y-73630252D01*
X200646450Y-73622315D01*
X200463954Y-73524768D01*
X200265934Y-73464700D01*
X200265932Y-73464699D01*
X200265934Y-73464699D01*
X200060000Y-73444417D01*
X199854067Y-73464699D01*
X199656043Y-73524769D01*
X199568114Y-73571769D01*
X199473550Y-73622315D01*
X199473548Y-73622316D01*
X199473547Y-73622317D01*
X199313589Y-73753589D01*
X199182317Y-73913547D01*
X199182315Y-73913550D01*
X199171937Y-73932966D01*
X199084769Y-74096043D01*
X199024699Y-74294067D01*
X199004417Y-74500000D01*
X198575583Y-74500000D01*
X198555300Y-74294066D01*
X198495232Y-74096046D01*
X198397685Y-73913550D01*
X198345702Y-73850209D01*
X198266410Y-73753589D01*
X198116121Y-73630252D01*
X198106450Y-73622315D01*
X197923954Y-73524768D01*
X197725934Y-73464700D01*
X197725932Y-73464699D01*
X197725934Y-73464699D01*
X197520000Y-73444417D01*
X197314067Y-73464699D01*
X197116043Y-73524769D01*
X197028114Y-73571769D01*
X196933550Y-73622315D01*
X196933548Y-73622316D01*
X196933547Y-73622317D01*
X196773589Y-73753589D01*
X196642317Y-73913547D01*
X196642315Y-73913550D01*
X196631937Y-73932966D01*
X196544769Y-74096043D01*
X196484699Y-74294067D01*
X196464417Y-74500000D01*
X196035583Y-74500000D01*
X196015300Y-74294066D01*
X195955232Y-74096046D01*
X195857685Y-73913550D01*
X195805702Y-73850209D01*
X195726410Y-73753589D01*
X195576121Y-73630252D01*
X195566450Y-73622315D01*
X195383954Y-73524768D01*
X195185934Y-73464700D01*
X195185932Y-73464699D01*
X195185934Y-73464699D01*
X194980000Y-73444417D01*
X194774067Y-73464699D01*
X194576043Y-73524769D01*
X194488114Y-73571769D01*
X194393550Y-73622315D01*
X194393548Y-73622316D01*
X194393547Y-73622317D01*
X194233589Y-73753589D01*
X194102317Y-73913547D01*
X194102315Y-73913550D01*
X194091937Y-73932966D01*
X194004769Y-74096043D01*
X193944699Y-74294067D01*
X193924417Y-74500000D01*
X193495583Y-74500000D01*
X193475300Y-74294066D01*
X193415232Y-74096046D01*
X193317685Y-73913550D01*
X193265702Y-73850209D01*
X193186410Y-73753589D01*
X193036121Y-73630252D01*
X193026450Y-73622315D01*
X192843954Y-73524768D01*
X192645934Y-73464700D01*
X192645932Y-73464699D01*
X192645934Y-73464699D01*
X192440000Y-73444417D01*
X192234067Y-73464699D01*
X192036043Y-73524769D01*
X191948114Y-73571769D01*
X191853550Y-73622315D01*
X191853548Y-73622316D01*
X191853547Y-73622317D01*
X191693589Y-73753589D01*
X191562317Y-73913547D01*
X191562315Y-73913550D01*
X191551937Y-73932966D01*
X191464769Y-74096043D01*
X191404699Y-74294067D01*
X191384417Y-74500000D01*
X190955583Y-74500000D01*
X190935300Y-74294066D01*
X190875232Y-74096046D01*
X190777685Y-73913550D01*
X190725702Y-73850209D01*
X190646410Y-73753589D01*
X190496121Y-73630252D01*
X190486450Y-73622315D01*
X190303954Y-73524768D01*
X190105934Y-73464700D01*
X190105932Y-73464699D01*
X190105934Y-73464699D01*
X189900000Y-73444417D01*
X189694067Y-73464699D01*
X189496043Y-73524769D01*
X189408114Y-73571769D01*
X189313550Y-73622315D01*
X189313548Y-73622316D01*
X189313547Y-73622317D01*
X189153589Y-73753589D01*
X189022317Y-73913547D01*
X189022315Y-73913550D01*
X189011937Y-73932966D01*
X188924769Y-74096043D01*
X188864699Y-74294067D01*
X188844417Y-74500000D01*
X188415583Y-74500000D01*
X188395300Y-74294066D01*
X188335232Y-74096046D01*
X188237685Y-73913550D01*
X188185702Y-73850209D01*
X188106410Y-73753589D01*
X187956121Y-73630252D01*
X187946450Y-73622315D01*
X187763954Y-73524768D01*
X187565934Y-73464700D01*
X187565932Y-73464699D01*
X187565934Y-73464699D01*
X187360000Y-73444417D01*
X187154067Y-73464699D01*
X186956043Y-73524769D01*
X186868114Y-73571769D01*
X186773550Y-73622315D01*
X186773548Y-73622316D01*
X186773547Y-73622317D01*
X186613589Y-73753589D01*
X186482317Y-73913547D01*
X186482315Y-73913550D01*
X186471937Y-73932966D01*
X186384769Y-74096043D01*
X186324699Y-74294067D01*
X186304417Y-74500000D01*
X183335583Y-74500000D01*
X183315300Y-74294066D01*
X183255232Y-74096046D01*
X183157685Y-73913550D01*
X183105702Y-73850209D01*
X183026410Y-73753589D01*
X182876121Y-73630252D01*
X182866450Y-73622315D01*
X182683954Y-73524768D01*
X182485934Y-73464700D01*
X182485932Y-73464699D01*
X182485934Y-73464699D01*
X182280000Y-73444417D01*
X182074067Y-73464699D01*
X181876043Y-73524769D01*
X181788114Y-73571769D01*
X181693550Y-73622315D01*
X181693548Y-73622316D01*
X181693547Y-73622317D01*
X181533589Y-73753589D01*
X181402317Y-73913547D01*
X181402315Y-73913550D01*
X181391937Y-73932966D01*
X181304769Y-74096043D01*
X181244699Y-74294067D01*
X181224417Y-74500000D01*
X180795583Y-74500000D01*
X180775300Y-74294066D01*
X180715232Y-74096046D01*
X180617685Y-73913550D01*
X180565702Y-73850209D01*
X180486410Y-73753589D01*
X180336121Y-73630252D01*
X180326450Y-73622315D01*
X180143954Y-73524768D01*
X179945934Y-73464700D01*
X179945932Y-73464699D01*
X179945934Y-73464699D01*
X179740000Y-73444417D01*
X179534067Y-73464699D01*
X179336043Y-73524769D01*
X179248114Y-73571769D01*
X179153550Y-73622315D01*
X179153548Y-73622316D01*
X179153547Y-73622317D01*
X178993589Y-73753589D01*
X178862317Y-73913547D01*
X178862315Y-73913550D01*
X178851937Y-73932966D01*
X178764769Y-74096043D01*
X178704699Y-74294067D01*
X178684417Y-74500000D01*
X178255583Y-74500000D01*
X178235300Y-74294066D01*
X178175232Y-74096046D01*
X178077685Y-73913550D01*
X178025702Y-73850209D01*
X177946410Y-73753589D01*
X177796121Y-73630252D01*
X177786450Y-73622315D01*
X177603954Y-73524768D01*
X177405934Y-73464700D01*
X177405932Y-73464699D01*
X177405934Y-73464699D01*
X177200000Y-73444417D01*
X176994067Y-73464699D01*
X176796043Y-73524769D01*
X176708114Y-73571769D01*
X176613550Y-73622315D01*
X176613548Y-73622316D01*
X176613547Y-73622317D01*
X176453589Y-73753589D01*
X176322317Y-73913547D01*
X176322315Y-73913550D01*
X176311937Y-73932966D01*
X176224769Y-74096043D01*
X176164699Y-74294067D01*
X176144417Y-74500000D01*
X175715583Y-74500000D01*
X175695300Y-74294066D01*
X175635232Y-74096046D01*
X175537685Y-73913550D01*
X175485702Y-73850209D01*
X175406410Y-73753589D01*
X175256121Y-73630252D01*
X175246450Y-73622315D01*
X175063954Y-73524768D01*
X174865934Y-73464700D01*
X174865932Y-73464699D01*
X174865934Y-73464699D01*
X174660000Y-73444417D01*
X174454067Y-73464699D01*
X174256043Y-73524769D01*
X174168114Y-73571769D01*
X174073550Y-73622315D01*
X174073548Y-73622316D01*
X174073547Y-73622317D01*
X173913589Y-73753589D01*
X173782317Y-73913547D01*
X173782315Y-73913550D01*
X173771937Y-73932966D01*
X173684769Y-74096043D01*
X173624699Y-74294067D01*
X173604417Y-74500000D01*
X173175583Y-74500000D01*
X173155300Y-74294066D01*
X173095232Y-74096046D01*
X172997685Y-73913550D01*
X172945702Y-73850209D01*
X172866410Y-73753589D01*
X172716121Y-73630252D01*
X172706450Y-73622315D01*
X172523954Y-73524768D01*
X172325934Y-73464700D01*
X172325932Y-73464699D01*
X172325934Y-73464699D01*
X172120000Y-73444417D01*
X171914067Y-73464699D01*
X171716043Y-73524769D01*
X171628114Y-73571769D01*
X171533550Y-73622315D01*
X171533548Y-73622316D01*
X171533547Y-73622317D01*
X171373589Y-73753589D01*
X171242317Y-73913547D01*
X171242315Y-73913550D01*
X171231937Y-73932966D01*
X171144769Y-74096043D01*
X171084699Y-74294067D01*
X171064417Y-74500000D01*
X170635583Y-74500000D01*
X170615300Y-74294066D01*
X170555232Y-74096046D01*
X170457685Y-73913550D01*
X170405702Y-73850209D01*
X170326410Y-73753589D01*
X170176121Y-73630252D01*
X170166450Y-73622315D01*
X169983954Y-73524768D01*
X169785934Y-73464700D01*
X169785932Y-73464699D01*
X169785934Y-73464699D01*
X169580000Y-73444417D01*
X169374067Y-73464699D01*
X169176043Y-73524769D01*
X169088114Y-73571769D01*
X168993550Y-73622315D01*
X168993548Y-73622316D01*
X168993547Y-73622317D01*
X168833589Y-73753589D01*
X168702317Y-73913547D01*
X168702315Y-73913550D01*
X168691937Y-73932966D01*
X168604769Y-74096043D01*
X168544699Y-74294067D01*
X168524417Y-74500000D01*
X168095583Y-74500000D01*
X168075300Y-74294066D01*
X168015232Y-74096046D01*
X167917685Y-73913550D01*
X167865702Y-73850209D01*
X167786410Y-73753589D01*
X167636121Y-73630252D01*
X167626450Y-73622315D01*
X167443954Y-73524768D01*
X167245934Y-73464700D01*
X167245932Y-73464699D01*
X167245934Y-73464699D01*
X167040000Y-73444417D01*
X166834067Y-73464699D01*
X166636043Y-73524769D01*
X166548114Y-73571769D01*
X166453550Y-73622315D01*
X166453548Y-73622316D01*
X166453547Y-73622317D01*
X166293589Y-73753589D01*
X166162317Y-73913547D01*
X166162315Y-73913550D01*
X166151937Y-73932966D01*
X166064769Y-74096043D01*
X166004699Y-74294067D01*
X165984417Y-74500000D01*
X163015583Y-74500000D01*
X162995300Y-74294066D01*
X162935232Y-74096046D01*
X162837685Y-73913550D01*
X162785702Y-73850209D01*
X162706410Y-73753589D01*
X162556121Y-73630252D01*
X162546450Y-73622315D01*
X162363954Y-73524768D01*
X162165934Y-73464700D01*
X162165932Y-73464699D01*
X162165934Y-73464699D01*
X161960000Y-73444417D01*
X161754067Y-73464699D01*
X161556043Y-73524769D01*
X161468114Y-73571769D01*
X161373550Y-73622315D01*
X161373548Y-73622316D01*
X161373547Y-73622317D01*
X161213589Y-73753589D01*
X161082317Y-73913547D01*
X161082315Y-73913550D01*
X161071937Y-73932966D01*
X160984769Y-74096043D01*
X160924699Y-74294067D01*
X160904417Y-74500000D01*
X160475583Y-74500000D01*
X160455300Y-74294066D01*
X160395232Y-74096046D01*
X160297685Y-73913550D01*
X160245702Y-73850209D01*
X160166410Y-73753589D01*
X160016121Y-73630252D01*
X160006450Y-73622315D01*
X159823954Y-73524768D01*
X159625934Y-73464700D01*
X159625932Y-73464699D01*
X159625934Y-73464699D01*
X159420000Y-73444417D01*
X159214067Y-73464699D01*
X159016043Y-73524769D01*
X158928114Y-73571769D01*
X158833550Y-73622315D01*
X158833548Y-73622316D01*
X158833547Y-73622317D01*
X158673589Y-73753589D01*
X158542317Y-73913547D01*
X158542315Y-73913550D01*
X158531937Y-73932966D01*
X158444769Y-74096043D01*
X158384699Y-74294067D01*
X158364417Y-74500000D01*
X157935583Y-74500000D01*
X157915300Y-74294066D01*
X157855232Y-74096046D01*
X157757685Y-73913550D01*
X157705702Y-73850209D01*
X157626410Y-73753589D01*
X157476121Y-73630252D01*
X157466450Y-73622315D01*
X157283954Y-73524768D01*
X157085934Y-73464700D01*
X157085932Y-73464699D01*
X157085934Y-73464699D01*
X156880000Y-73444417D01*
X156674067Y-73464699D01*
X156476043Y-73524769D01*
X156388114Y-73571769D01*
X156293550Y-73622315D01*
X156293548Y-73622316D01*
X156293547Y-73622317D01*
X156133589Y-73753589D01*
X156002317Y-73913547D01*
X156002315Y-73913550D01*
X155991937Y-73932966D01*
X155904769Y-74096043D01*
X155844699Y-74294067D01*
X155824417Y-74500000D01*
X155390500Y-74500000D01*
X155390500Y-73630249D01*
X155390499Y-73630247D01*
X155378868Y-73571770D01*
X155378867Y-73571769D01*
X155334552Y-73505447D01*
X155268230Y-73461132D01*
X155268229Y-73461131D01*
X155209752Y-73449500D01*
X155209748Y-73449500D01*
X153470252Y-73449500D01*
X153470247Y-73449500D01*
X153411770Y-73461131D01*
X153411769Y-73461132D01*
X153345447Y-73505447D01*
X153301132Y-73571769D01*
X153301131Y-73571770D01*
X153289500Y-73630247D01*
X153289500Y-75369752D01*
X147666680Y-75369752D01*
X147497989Y-75233149D01*
X147488344Y-75224464D01*
X147275535Y-75011655D01*
X147266850Y-75002010D01*
X147077441Y-74768109D01*
X147069812Y-74757608D01*
X146905896Y-74505199D01*
X146899408Y-74493963D01*
X146797555Y-74294067D01*
X146762767Y-74225790D01*
X146757489Y-74213935D01*
X146649636Y-73932966D01*
X146645625Y-73920623D01*
X146643729Y-73913547D01*
X146567724Y-73629896D01*
X146565028Y-73617205D01*
X146517949Y-73319953D01*
X146516592Y-73307046D01*
X146500670Y-73003243D01*
X146500500Y-72996753D01*
X146500500Y-71960000D01*
X153284417Y-71960000D01*
X153304699Y-72165932D01*
X153304700Y-72165934D01*
X153364768Y-72363954D01*
X153462315Y-72546450D01*
X153462317Y-72546452D01*
X153593589Y-72706410D01*
X153690209Y-72785702D01*
X153753550Y-72837685D01*
X153936046Y-72935232D01*
X154134066Y-72995300D01*
X154134065Y-72995300D01*
X154148818Y-72996753D01*
X154340000Y-73015583D01*
X154545934Y-72995300D01*
X154743954Y-72935232D01*
X154926450Y-72837685D01*
X155086410Y-72706410D01*
X155217685Y-72546450D01*
X155315232Y-72363954D01*
X155375300Y-72165934D01*
X155395583Y-71960000D01*
X155824417Y-71960000D01*
X155844699Y-72165932D01*
X155844700Y-72165934D01*
X155904768Y-72363954D01*
X156002315Y-72546450D01*
X156002317Y-72546452D01*
X156133589Y-72706410D01*
X156230209Y-72785702D01*
X156293550Y-72837685D01*
X156476046Y-72935232D01*
X156674066Y-72995300D01*
X156674065Y-72995300D01*
X156688818Y-72996753D01*
X156880000Y-73015583D01*
X157085934Y-72995300D01*
X157283954Y-72935232D01*
X157466450Y-72837685D01*
X157626410Y-72706410D01*
X157757685Y-72546450D01*
X157855232Y-72363954D01*
X157915300Y-72165934D01*
X157935583Y-71960000D01*
X160904417Y-71960000D01*
X160924699Y-72165932D01*
X160924700Y-72165934D01*
X160984768Y-72363954D01*
X161082315Y-72546450D01*
X161082317Y-72546452D01*
X161213589Y-72706410D01*
X161310209Y-72785702D01*
X161373550Y-72837685D01*
X161556046Y-72935232D01*
X161754066Y-72995300D01*
X161754065Y-72995300D01*
X161768818Y-72996753D01*
X161960000Y-73015583D01*
X162165934Y-72995300D01*
X162363954Y-72935232D01*
X162546450Y-72837685D01*
X162706410Y-72706410D01*
X162837685Y-72546450D01*
X162935232Y-72363954D01*
X162995300Y-72165934D01*
X163015583Y-71960000D01*
X163444417Y-71960000D01*
X163464699Y-72165932D01*
X163464700Y-72165934D01*
X163524768Y-72363954D01*
X163622315Y-72546450D01*
X163622317Y-72546452D01*
X163753589Y-72706410D01*
X163850209Y-72785702D01*
X163913550Y-72837685D01*
X164096046Y-72935232D01*
X164294066Y-72995300D01*
X164294065Y-72995300D01*
X164308818Y-72996753D01*
X164500000Y-73015583D01*
X164705934Y-72995300D01*
X164903954Y-72935232D01*
X165086450Y-72837685D01*
X165246410Y-72706410D01*
X165377685Y-72546450D01*
X165475232Y-72363954D01*
X165535300Y-72165934D01*
X165555583Y-71960000D01*
X165535300Y-71754066D01*
X165475232Y-71556046D01*
X165377685Y-71373550D01*
X165325702Y-71310209D01*
X165246410Y-71213589D01*
X165128476Y-71116805D01*
X165086450Y-71082315D01*
X164903954Y-70984768D01*
X164705934Y-70924700D01*
X164705932Y-70924699D01*
X164705934Y-70924699D01*
X164500000Y-70904417D01*
X164294067Y-70924699D01*
X164096043Y-70984769D01*
X163985898Y-71043643D01*
X163913550Y-71082315D01*
X163913548Y-71082316D01*
X163913547Y-71082317D01*
X163753589Y-71213589D01*
X163622318Y-71373546D01*
X163622315Y-71373550D01*
X163583643Y-71445898D01*
X163524769Y-71556043D01*
X163464699Y-71754067D01*
X163444417Y-71960000D01*
X163015583Y-71960000D01*
X162995300Y-71754066D01*
X162935232Y-71556046D01*
X162927620Y-71541806D01*
X162913379Y-71473404D01*
X162938379Y-71408160D01*
X162949298Y-71395672D01*
X163340785Y-71004186D01*
X163758152Y-70586819D01*
X163819475Y-70553334D01*
X163845833Y-70550500D01*
X165279789Y-70550500D01*
X165346828Y-70570185D01*
X165392583Y-70622989D01*
X165402527Y-70656853D01*
X165414834Y-70742456D01*
X165474622Y-70873371D01*
X165474623Y-70873373D01*
X165568872Y-70982143D01*
X165689947Y-71059953D01*
X165689950Y-71059954D01*
X165689949Y-71059954D01*
X165828036Y-71100499D01*
X165828038Y-71100500D01*
X165828039Y-71100500D01*
X165971962Y-71100500D01*
X165971962Y-71100499D01*
X166095398Y-71064256D01*
X166110050Y-71059954D01*
X166110050Y-71059953D01*
X166110053Y-71059953D01*
X166110054Y-71059951D01*
X166118118Y-71056270D01*
X166119709Y-71059753D01*
X166169129Y-71044944D01*
X166236277Y-71064256D01*
X166282325Y-71116805D01*
X166292652Y-71185907D01*
X166265672Y-71247606D01*
X166162317Y-71373546D01*
X166064769Y-71556043D01*
X166004699Y-71754067D01*
X165984417Y-71960000D01*
X166004699Y-72165932D01*
X166004700Y-72165934D01*
X166064768Y-72363954D01*
X166162315Y-72546450D01*
X166162317Y-72546452D01*
X166293589Y-72706410D01*
X166390209Y-72785702D01*
X166453550Y-72837685D01*
X166636046Y-72935232D01*
X166834066Y-72995300D01*
X166834065Y-72995300D01*
X166848818Y-72996753D01*
X167040000Y-73015583D01*
X167245934Y-72995300D01*
X167443954Y-72935232D01*
X167626450Y-72837685D01*
X167786410Y-72706410D01*
X167917685Y-72546450D01*
X168015232Y-72363954D01*
X168075300Y-72165934D01*
X168095583Y-71960000D01*
X171064417Y-71960000D01*
X171084699Y-72165932D01*
X171084700Y-72165934D01*
X171144768Y-72363954D01*
X171242315Y-72546450D01*
X171242317Y-72546452D01*
X171373589Y-72706410D01*
X171470209Y-72785702D01*
X171533550Y-72837685D01*
X171716046Y-72935232D01*
X171914066Y-72995300D01*
X171914065Y-72995300D01*
X171928818Y-72996753D01*
X172120000Y-73015583D01*
X172325934Y-72995300D01*
X172523954Y-72935232D01*
X172706450Y-72837685D01*
X172866410Y-72706410D01*
X172997685Y-72546450D01*
X173095232Y-72363954D01*
X173155300Y-72165934D01*
X173175583Y-71960000D01*
X173604417Y-71960000D01*
X173624699Y-72165932D01*
X173624700Y-72165934D01*
X173684768Y-72363954D01*
X173782315Y-72546450D01*
X173782317Y-72546452D01*
X173913589Y-72706410D01*
X174010209Y-72785702D01*
X174073550Y-72837685D01*
X174256046Y-72935232D01*
X174454066Y-72995300D01*
X174454065Y-72995300D01*
X174468818Y-72996753D01*
X174660000Y-73015583D01*
X174865934Y-72995300D01*
X175063954Y-72935232D01*
X175246450Y-72837685D01*
X175406410Y-72706410D01*
X175537685Y-72546450D01*
X175635232Y-72363954D01*
X175695300Y-72165934D01*
X175715583Y-71960000D01*
X178684417Y-71960000D01*
X178704699Y-72165932D01*
X178704700Y-72165934D01*
X178764768Y-72363954D01*
X178862315Y-72546450D01*
X178862317Y-72546452D01*
X178993589Y-72706410D01*
X179090209Y-72785702D01*
X179153550Y-72837685D01*
X179336046Y-72935232D01*
X179534066Y-72995300D01*
X179534065Y-72995300D01*
X179548818Y-72996753D01*
X179740000Y-73015583D01*
X179945934Y-72995300D01*
X180143954Y-72935232D01*
X180326450Y-72837685D01*
X180486410Y-72706410D01*
X180617685Y-72546450D01*
X180715232Y-72363954D01*
X180775300Y-72165934D01*
X180795583Y-71960000D01*
X181224417Y-71960000D01*
X181244699Y-72165932D01*
X181244700Y-72165934D01*
X181304768Y-72363954D01*
X181402315Y-72546450D01*
X181402317Y-72546452D01*
X181533589Y-72706410D01*
X181630209Y-72785702D01*
X181693550Y-72837685D01*
X181876046Y-72935232D01*
X182074066Y-72995300D01*
X182074065Y-72995300D01*
X182088818Y-72996753D01*
X182280000Y-73015583D01*
X182485934Y-72995300D01*
X182683954Y-72935232D01*
X182866450Y-72837685D01*
X183026410Y-72706410D01*
X183157685Y-72546450D01*
X183255232Y-72363954D01*
X183315300Y-72165934D01*
X183335583Y-71960000D01*
X183764417Y-71960000D01*
X183784699Y-72165932D01*
X183784700Y-72165934D01*
X183844768Y-72363954D01*
X183942315Y-72546450D01*
X183942317Y-72546452D01*
X184073589Y-72706410D01*
X184170209Y-72785702D01*
X184233550Y-72837685D01*
X184416046Y-72935232D01*
X184614066Y-72995300D01*
X184614065Y-72995300D01*
X184628818Y-72996753D01*
X184820000Y-73015583D01*
X185025934Y-72995300D01*
X185223954Y-72935232D01*
X185406450Y-72837685D01*
X185566410Y-72706410D01*
X185697685Y-72546450D01*
X185795232Y-72363954D01*
X185855300Y-72165934D01*
X185875583Y-71960000D01*
X186304417Y-71960000D01*
X186324699Y-72165932D01*
X186324700Y-72165934D01*
X186384768Y-72363954D01*
X186482315Y-72546450D01*
X186482317Y-72546452D01*
X186613589Y-72706410D01*
X186710209Y-72785702D01*
X186773550Y-72837685D01*
X186956046Y-72935232D01*
X187154066Y-72995300D01*
X187154065Y-72995300D01*
X187168818Y-72996753D01*
X187360000Y-73015583D01*
X187565934Y-72995300D01*
X187763954Y-72935232D01*
X187946450Y-72837685D01*
X188106410Y-72706410D01*
X188237685Y-72546450D01*
X188335232Y-72363954D01*
X188395300Y-72165934D01*
X188415583Y-71960000D01*
X191384417Y-71960000D01*
X191404699Y-72165932D01*
X191404700Y-72165934D01*
X191464768Y-72363954D01*
X191562315Y-72546450D01*
X191562317Y-72546452D01*
X191693589Y-72706410D01*
X191790209Y-72785702D01*
X191853550Y-72837685D01*
X192036046Y-72935232D01*
X192234066Y-72995300D01*
X192234065Y-72995300D01*
X192248818Y-72996753D01*
X192440000Y-73015583D01*
X192645934Y-72995300D01*
X192843954Y-72935232D01*
X193026450Y-72837685D01*
X193186410Y-72706410D01*
X193317685Y-72546450D01*
X193415232Y-72363954D01*
X193475300Y-72165934D01*
X193495583Y-71960000D01*
X196464417Y-71960000D01*
X196484699Y-72165932D01*
X196484700Y-72165934D01*
X196544768Y-72363954D01*
X196642315Y-72546450D01*
X196642317Y-72546452D01*
X196773589Y-72706410D01*
X196870209Y-72785702D01*
X196933550Y-72837685D01*
X197116046Y-72935232D01*
X197314066Y-72995300D01*
X197314065Y-72995300D01*
X197328818Y-72996753D01*
X197520000Y-73015583D01*
X197725934Y-72995300D01*
X197923954Y-72935232D01*
X198106450Y-72837685D01*
X198266410Y-72706410D01*
X198397685Y-72546450D01*
X198495232Y-72363954D01*
X198555300Y-72165934D01*
X198575583Y-71960000D01*
X199004417Y-71960000D01*
X199024699Y-72165932D01*
X199024700Y-72165934D01*
X199084768Y-72363954D01*
X199182315Y-72546450D01*
X199182317Y-72546452D01*
X199313589Y-72706410D01*
X199410209Y-72785702D01*
X199473550Y-72837685D01*
X199656046Y-72935232D01*
X199854066Y-72995300D01*
X199854065Y-72995300D01*
X199868818Y-72996753D01*
X200060000Y-73015583D01*
X200265934Y-72995300D01*
X200463954Y-72935232D01*
X200646450Y-72837685D01*
X200806410Y-72706410D01*
X200937685Y-72546450D01*
X201035232Y-72363954D01*
X201095300Y-72165934D01*
X201115583Y-71960000D01*
X201544417Y-71960000D01*
X201564699Y-72165932D01*
X201564700Y-72165934D01*
X201624768Y-72363954D01*
X201722315Y-72546450D01*
X201722317Y-72546452D01*
X201853589Y-72706410D01*
X201950209Y-72785702D01*
X202013550Y-72837685D01*
X202196046Y-72935232D01*
X202394066Y-72995300D01*
X202394065Y-72995300D01*
X202408818Y-72996753D01*
X202600000Y-73015583D01*
X202805934Y-72995300D01*
X203003954Y-72935232D01*
X203186450Y-72837685D01*
X203346410Y-72706410D01*
X203477685Y-72546450D01*
X203575232Y-72363954D01*
X203635300Y-72165934D01*
X203655583Y-71960000D01*
X203635300Y-71754066D01*
X203575232Y-71556046D01*
X203477685Y-71373550D01*
X203425702Y-71310209D01*
X203346410Y-71213589D01*
X203228476Y-71116805D01*
X203186450Y-71082315D01*
X203003954Y-70984768D01*
X202805934Y-70924700D01*
X202805932Y-70924699D01*
X202805934Y-70924699D01*
X202600000Y-70904417D01*
X202394067Y-70924699D01*
X202196043Y-70984769D01*
X202085898Y-71043643D01*
X202013550Y-71082315D01*
X202013548Y-71082316D01*
X202013547Y-71082317D01*
X201853589Y-71213589D01*
X201722318Y-71373546D01*
X201722315Y-71373550D01*
X201683643Y-71445898D01*
X201624769Y-71556043D01*
X201564699Y-71754067D01*
X201544417Y-71960000D01*
X201115583Y-71960000D01*
X201095300Y-71754066D01*
X201035232Y-71556046D01*
X200937685Y-71373550D01*
X200885702Y-71310209D01*
X200806410Y-71213589D01*
X200688476Y-71116805D01*
X200646450Y-71082315D01*
X200463954Y-70984768D01*
X200265934Y-70924700D01*
X200265932Y-70924699D01*
X200265934Y-70924699D01*
X200060000Y-70904417D01*
X199854067Y-70924699D01*
X199656043Y-70984769D01*
X199545898Y-71043643D01*
X199473550Y-71082315D01*
X199473548Y-71082316D01*
X199473547Y-71082317D01*
X199313589Y-71213589D01*
X199182318Y-71373546D01*
X199182315Y-71373550D01*
X199143643Y-71445898D01*
X199084769Y-71556043D01*
X199024699Y-71754067D01*
X199004417Y-71960000D01*
X198575583Y-71960000D01*
X198555300Y-71754066D01*
X198495232Y-71556046D01*
X198397685Y-71373550D01*
X198345702Y-71310209D01*
X198266410Y-71213589D01*
X198148476Y-71116805D01*
X198106450Y-71082315D01*
X197923954Y-70984768D01*
X197725934Y-70924700D01*
X197725932Y-70924699D01*
X197725934Y-70924699D01*
X197520000Y-70904417D01*
X197314067Y-70924699D01*
X197116043Y-70984769D01*
X197005898Y-71043643D01*
X196933550Y-71082315D01*
X196933548Y-71082316D01*
X196933547Y-71082317D01*
X196773589Y-71213589D01*
X196642318Y-71373546D01*
X196642315Y-71373550D01*
X196603643Y-71445898D01*
X196544769Y-71556043D01*
X196484699Y-71754067D01*
X196464417Y-71960000D01*
X193495583Y-71960000D01*
X193475300Y-71754066D01*
X193415232Y-71556046D01*
X193317685Y-71373550D01*
X193265702Y-71310209D01*
X193186410Y-71213589D01*
X193068476Y-71116805D01*
X193026450Y-71082315D01*
X192843954Y-70984768D01*
X192645934Y-70924700D01*
X192645932Y-70924699D01*
X192645934Y-70924699D01*
X192440000Y-70904417D01*
X192234067Y-70924699D01*
X192036043Y-70984769D01*
X191925898Y-71043643D01*
X191853550Y-71082315D01*
X191853548Y-71082316D01*
X191853547Y-71082317D01*
X191693589Y-71213589D01*
X191562318Y-71373546D01*
X191562315Y-71373550D01*
X191523643Y-71445898D01*
X191464769Y-71556043D01*
X191404699Y-71754067D01*
X191384417Y-71960000D01*
X188415583Y-71960000D01*
X188395300Y-71754066D01*
X188335232Y-71556046D01*
X188237685Y-71373550D01*
X188185702Y-71310209D01*
X188106410Y-71213589D01*
X187988476Y-71116805D01*
X187946450Y-71082315D01*
X187763954Y-70984768D01*
X187565934Y-70924700D01*
X187565932Y-70924699D01*
X187565934Y-70924699D01*
X187360000Y-70904417D01*
X187154067Y-70924699D01*
X186956043Y-70984769D01*
X186845898Y-71043643D01*
X186773550Y-71082315D01*
X186773548Y-71082316D01*
X186773547Y-71082317D01*
X186613589Y-71213589D01*
X186482318Y-71373546D01*
X186482315Y-71373550D01*
X186443643Y-71445898D01*
X186384769Y-71556043D01*
X186324699Y-71754067D01*
X186304417Y-71960000D01*
X185875583Y-71960000D01*
X185855300Y-71754066D01*
X185795232Y-71556046D01*
X185697685Y-71373550D01*
X185645702Y-71310209D01*
X185566410Y-71213589D01*
X185448476Y-71116805D01*
X185406450Y-71082315D01*
X185223954Y-70984768D01*
X185025934Y-70924700D01*
X185025932Y-70924699D01*
X185025934Y-70924699D01*
X184820000Y-70904417D01*
X184614067Y-70924699D01*
X184416043Y-70984769D01*
X184305898Y-71043643D01*
X184233550Y-71082315D01*
X184233548Y-71082316D01*
X184233547Y-71082317D01*
X184073589Y-71213589D01*
X183942318Y-71373546D01*
X183942315Y-71373550D01*
X183903643Y-71445898D01*
X183844769Y-71556043D01*
X183784699Y-71754067D01*
X183764417Y-71960000D01*
X183335583Y-71960000D01*
X183315300Y-71754066D01*
X183255232Y-71556046D01*
X183157685Y-71373550D01*
X183105702Y-71310209D01*
X183026410Y-71213589D01*
X182908476Y-71116805D01*
X182866450Y-71082315D01*
X182683954Y-70984768D01*
X182485934Y-70924700D01*
X182485932Y-70924699D01*
X182485934Y-70924699D01*
X182280000Y-70904417D01*
X182074067Y-70924699D01*
X181876043Y-70984769D01*
X181765898Y-71043643D01*
X181693550Y-71082315D01*
X181693548Y-71082316D01*
X181693547Y-71082317D01*
X181533589Y-71213589D01*
X181402318Y-71373546D01*
X181402315Y-71373550D01*
X181363643Y-71445898D01*
X181304769Y-71556043D01*
X181244699Y-71754067D01*
X181224417Y-71960000D01*
X180795583Y-71960000D01*
X180775300Y-71754066D01*
X180715232Y-71556046D01*
X180617685Y-71373550D01*
X180565702Y-71310209D01*
X180486410Y-71213589D01*
X180368476Y-71116805D01*
X180326450Y-71082315D01*
X180143954Y-70984768D01*
X179945934Y-70924700D01*
X179945932Y-70924699D01*
X179945934Y-70924699D01*
X179740000Y-70904417D01*
X179534067Y-70924699D01*
X179336043Y-70984769D01*
X179225898Y-71043643D01*
X179153550Y-71082315D01*
X179153548Y-71082316D01*
X179153547Y-71082317D01*
X178993589Y-71213589D01*
X178862318Y-71373546D01*
X178862315Y-71373550D01*
X178823643Y-71445898D01*
X178764769Y-71556043D01*
X178704699Y-71754067D01*
X178684417Y-71960000D01*
X175715583Y-71960000D01*
X175695300Y-71754066D01*
X175635232Y-71556046D01*
X175537685Y-71373550D01*
X175485702Y-71310209D01*
X175406410Y-71213589D01*
X175288476Y-71116805D01*
X175246450Y-71082315D01*
X175063954Y-70984768D01*
X174865934Y-70924700D01*
X174865932Y-70924699D01*
X174865934Y-70924699D01*
X174660000Y-70904417D01*
X174454067Y-70924699D01*
X174256043Y-70984769D01*
X174145898Y-71043643D01*
X174073550Y-71082315D01*
X174073548Y-71082316D01*
X174073547Y-71082317D01*
X173913589Y-71213589D01*
X173782318Y-71373546D01*
X173782315Y-71373550D01*
X173743643Y-71445898D01*
X173684769Y-71556043D01*
X173624699Y-71754067D01*
X173604417Y-71960000D01*
X173175583Y-71960000D01*
X173155300Y-71754066D01*
X173095232Y-71556046D01*
X172997685Y-71373550D01*
X172945702Y-71310209D01*
X172866410Y-71213589D01*
X172748476Y-71116805D01*
X172706450Y-71082315D01*
X172523954Y-70984768D01*
X172325934Y-70924700D01*
X172325932Y-70924699D01*
X172325934Y-70924699D01*
X172120000Y-70904417D01*
X171914067Y-70924699D01*
X171716043Y-70984769D01*
X171605898Y-71043643D01*
X171533550Y-71082315D01*
X171533548Y-71082316D01*
X171533547Y-71082317D01*
X171373589Y-71213589D01*
X171242318Y-71373546D01*
X171242315Y-71373550D01*
X171203643Y-71445898D01*
X171144769Y-71556043D01*
X171084699Y-71754067D01*
X171064417Y-71960000D01*
X168095583Y-71960000D01*
X168075300Y-71754066D01*
X168015232Y-71556046D01*
X167917685Y-71373550D01*
X167865702Y-71310209D01*
X167786410Y-71213589D01*
X167668476Y-71116805D01*
X167626450Y-71082315D01*
X167443954Y-70984768D01*
X167245934Y-70924700D01*
X167245932Y-70924699D01*
X167245934Y-70924699D01*
X167040000Y-70904417D01*
X166834067Y-70924699D01*
X166636043Y-70984769D01*
X166468575Y-71074284D01*
X166400172Y-71088526D01*
X166334928Y-71063526D01*
X166293557Y-71007221D01*
X166289195Y-70937488D01*
X166316408Y-70883723D01*
X166325377Y-70873373D01*
X166385165Y-70742457D01*
X166405647Y-70600000D01*
X166385165Y-70457543D01*
X166325377Y-70326627D01*
X166231128Y-70217857D01*
X166110053Y-70140047D01*
X166110051Y-70140046D01*
X166110049Y-70140045D01*
X166110050Y-70140045D01*
X165971963Y-70099500D01*
X165971961Y-70099500D01*
X165875833Y-70099500D01*
X165808794Y-70079815D01*
X165788152Y-70063181D01*
X165734512Y-70009541D01*
X165734504Y-70009535D01*
X165665995Y-69969982D01*
X165665990Y-69969979D01*
X165640513Y-69963152D01*
X165589562Y-69949500D01*
X163630438Y-69949500D01*
X163592224Y-69959739D01*
X163554009Y-69969979D01*
X163554004Y-69969982D01*
X163485495Y-70009535D01*
X163485487Y-70009541D01*
X162524326Y-70970701D01*
X162463003Y-71004186D01*
X162393311Y-70999202D01*
X162378193Y-70992379D01*
X162363956Y-70984769D01*
X162363955Y-70984768D01*
X162363954Y-70984768D01*
X162165934Y-70924700D01*
X162165932Y-70924699D01*
X162165934Y-70924699D01*
X161960000Y-70904417D01*
X161754067Y-70924699D01*
X161556043Y-70984769D01*
X161445898Y-71043643D01*
X161373550Y-71082315D01*
X161373548Y-71082316D01*
X161373547Y-71082317D01*
X161213589Y-71213589D01*
X161082318Y-71373546D01*
X161082315Y-71373550D01*
X161043643Y-71445898D01*
X160984769Y-71556043D01*
X160924699Y-71754067D01*
X160904417Y-71960000D01*
X157935583Y-71960000D01*
X157915300Y-71754066D01*
X157855232Y-71556046D01*
X157757685Y-71373550D01*
X157705702Y-71310209D01*
X157626410Y-71213589D01*
X157508476Y-71116805D01*
X157466450Y-71082315D01*
X157283954Y-70984768D01*
X157085934Y-70924700D01*
X157085932Y-70924699D01*
X157085934Y-70924699D01*
X156880000Y-70904417D01*
X156674067Y-70924699D01*
X156476043Y-70984769D01*
X156365898Y-71043643D01*
X156293550Y-71082315D01*
X156293548Y-71082316D01*
X156293547Y-71082317D01*
X156133589Y-71213589D01*
X156002318Y-71373546D01*
X156002315Y-71373550D01*
X155963643Y-71445898D01*
X155904769Y-71556043D01*
X155844699Y-71754067D01*
X155824417Y-71960000D01*
X155395583Y-71960000D01*
X155375300Y-71754066D01*
X155315232Y-71556046D01*
X155217685Y-71373550D01*
X155165702Y-71310209D01*
X155086410Y-71213589D01*
X154968476Y-71116805D01*
X154926450Y-71082315D01*
X154743954Y-70984768D01*
X154545934Y-70924700D01*
X154545932Y-70924699D01*
X154545934Y-70924699D01*
X154340000Y-70904417D01*
X154134067Y-70924699D01*
X153936043Y-70984769D01*
X153825898Y-71043643D01*
X153753550Y-71082315D01*
X153753548Y-71082316D01*
X153753547Y-71082317D01*
X153593589Y-71213589D01*
X153462318Y-71373546D01*
X153462315Y-71373550D01*
X153423643Y-71445898D01*
X153364769Y-71556043D01*
X153304699Y-71754067D01*
X153284417Y-71960000D01*
X146500500Y-71960000D01*
X146500500Y-69250000D01*
X186744353Y-69250000D01*
X186764834Y-69392456D01*
X186824622Y-69523371D01*
X186824623Y-69523373D01*
X186918872Y-69632143D01*
X187039947Y-69709953D01*
X187039950Y-69709954D01*
X187039949Y-69709954D01*
X187178036Y-69750499D01*
X187178038Y-69750500D01*
X187178039Y-69750500D01*
X187321962Y-69750500D01*
X187321962Y-69750499D01*
X187460053Y-69709953D01*
X187581128Y-69632143D01*
X187675377Y-69523373D01*
X187735165Y-69392457D01*
X187755647Y-69250000D01*
X187735165Y-69107543D01*
X187675377Y-68976627D01*
X187581128Y-68867857D01*
X187460053Y-68790047D01*
X187460051Y-68790046D01*
X187460049Y-68790045D01*
X187460050Y-68790045D01*
X187321963Y-68749500D01*
X187321961Y-68749500D01*
X187178039Y-68749500D01*
X187178036Y-68749500D01*
X187039949Y-68790045D01*
X186918873Y-68867856D01*
X186824623Y-68976626D01*
X186824622Y-68976628D01*
X186764834Y-69107543D01*
X186744353Y-69250000D01*
X146500500Y-69250000D01*
X146500500Y-67303469D01*
X148699500Y-67303469D01*
X148739868Y-67506412D01*
X148739870Y-67506420D01*
X148819058Y-67697596D01*
X148934024Y-67869657D01*
X149080342Y-68015975D01*
X149080345Y-68015977D01*
X149252402Y-68130941D01*
X149443580Y-68210130D01*
X149644021Y-68250000D01*
X149646530Y-68250499D01*
X149646534Y-68250500D01*
X149646535Y-68250500D01*
X150153466Y-68250500D01*
X150153467Y-68250499D01*
X150155976Y-68250000D01*
X190594353Y-68250000D01*
X190614834Y-68392456D01*
X190674622Y-68523371D01*
X190674623Y-68523373D01*
X190768872Y-68632143D01*
X190889947Y-68709953D01*
X190889950Y-68709954D01*
X190889949Y-68709954D01*
X190997107Y-68741417D01*
X191024633Y-68749500D01*
X191028036Y-68750499D01*
X191028038Y-68750500D01*
X191028039Y-68750500D01*
X191171962Y-68750500D01*
X191171962Y-68750499D01*
X191310053Y-68709953D01*
X191431128Y-68632143D01*
X191525377Y-68523373D01*
X191585165Y-68392457D01*
X191605647Y-68250000D01*
X191585165Y-68107543D01*
X191525377Y-67976627D01*
X191431128Y-67867857D01*
X191310053Y-67790047D01*
X191310051Y-67790046D01*
X191310049Y-67790045D01*
X191310050Y-67790045D01*
X191171963Y-67749500D01*
X191171961Y-67749500D01*
X191028039Y-67749500D01*
X191028036Y-67749500D01*
X190889949Y-67790045D01*
X190768873Y-67867856D01*
X190674623Y-67976626D01*
X190674622Y-67976628D01*
X190614834Y-68107543D01*
X190594353Y-68250000D01*
X150155976Y-68250000D01*
X150356420Y-68210130D01*
X150547598Y-68130941D01*
X150719655Y-68015977D01*
X150865977Y-67869655D01*
X150980941Y-67697598D01*
X151060130Y-67506420D01*
X151100500Y-67303465D01*
X151100500Y-67096535D01*
X151085276Y-67020000D01*
X164644417Y-67020000D01*
X164664699Y-67225932D01*
X164688218Y-67303465D01*
X164724768Y-67423954D01*
X164822315Y-67606450D01*
X164822317Y-67606452D01*
X164953589Y-67766410D01*
X165050209Y-67845702D01*
X165113550Y-67897685D01*
X165296046Y-67995232D01*
X165494066Y-68055300D01*
X165494065Y-68055300D01*
X165512529Y-68057118D01*
X165700000Y-68075583D01*
X165905934Y-68055300D01*
X166103954Y-67995232D01*
X166286450Y-67897685D01*
X166446410Y-67766410D01*
X166577685Y-67606450D01*
X166675232Y-67423954D01*
X166735300Y-67225934D01*
X166755583Y-67020000D01*
X166743764Y-66900000D01*
X173194353Y-66900000D01*
X173214834Y-67042456D01*
X173239531Y-67096534D01*
X173274623Y-67173373D01*
X173368872Y-67282143D01*
X173489947Y-67359953D01*
X173489950Y-67359954D01*
X173489949Y-67359954D01*
X173628036Y-67400499D01*
X173628038Y-67400500D01*
X173628039Y-67400500D01*
X173771962Y-67400500D01*
X173771962Y-67400499D01*
X173910053Y-67359953D01*
X174031128Y-67282143D01*
X174125377Y-67173373D01*
X174185165Y-67042457D01*
X174205647Y-66900000D01*
X176594353Y-66900000D01*
X176614834Y-67042456D01*
X176639531Y-67096534D01*
X176674623Y-67173373D01*
X176768872Y-67282143D01*
X176889947Y-67359953D01*
X176889950Y-67359954D01*
X176889949Y-67359954D01*
X177028036Y-67400499D01*
X177028038Y-67400500D01*
X177028039Y-67400500D01*
X177171962Y-67400500D01*
X177171962Y-67400499D01*
X177310053Y-67359953D01*
X177431128Y-67282143D01*
X177525377Y-67173373D01*
X177585165Y-67042457D01*
X177605647Y-66900000D01*
X177585165Y-66757543D01*
X177525377Y-66626627D01*
X177431128Y-66517857D01*
X177310053Y-66440047D01*
X177310051Y-66440046D01*
X177310049Y-66440045D01*
X177310050Y-66440045D01*
X177171963Y-66399500D01*
X177171961Y-66399500D01*
X177028039Y-66399500D01*
X177028036Y-66399500D01*
X176889949Y-66440045D01*
X176768873Y-66517856D01*
X176674623Y-66626626D01*
X176674622Y-66626628D01*
X176614834Y-66757543D01*
X176594353Y-66900000D01*
X174205647Y-66900000D01*
X174185165Y-66757543D01*
X174125377Y-66626627D01*
X174031128Y-66517857D01*
X173910053Y-66440047D01*
X173910051Y-66440046D01*
X173910049Y-66440045D01*
X173910050Y-66440045D01*
X173771963Y-66399500D01*
X173771961Y-66399500D01*
X173628039Y-66399500D01*
X173628036Y-66399500D01*
X173489949Y-66440045D01*
X173368873Y-66517856D01*
X173274623Y-66626626D01*
X173274622Y-66626628D01*
X173214834Y-66757543D01*
X173194353Y-66900000D01*
X166743764Y-66900000D01*
X166735300Y-66814066D01*
X166675232Y-66616046D01*
X166577685Y-66433550D01*
X166525702Y-66370209D01*
X166446410Y-66273589D01*
X166286452Y-66142317D01*
X166286453Y-66142317D01*
X166286450Y-66142315D01*
X166103954Y-66044768D01*
X165905934Y-65984700D01*
X165905932Y-65984699D01*
X165905934Y-65984699D01*
X165700000Y-65964417D01*
X165494067Y-65984699D01*
X165296043Y-66044769D01*
X165187742Y-66102658D01*
X165113550Y-66142315D01*
X165113548Y-66142316D01*
X165113547Y-66142317D01*
X164953589Y-66273589D01*
X164822317Y-66433547D01*
X164822315Y-66433550D01*
X164817555Y-66442456D01*
X164724769Y-66616043D01*
X164664699Y-66814067D01*
X164644417Y-67020000D01*
X151085276Y-67020000D01*
X151060130Y-66893580D01*
X150980941Y-66702402D01*
X150865977Y-66530345D01*
X150865975Y-66530342D01*
X150719657Y-66384024D01*
X150594653Y-66300500D01*
X150547598Y-66269059D01*
X150525614Y-66259953D01*
X150356420Y-66189870D01*
X150356412Y-66189868D01*
X150153469Y-66149500D01*
X150153465Y-66149500D01*
X149646535Y-66149500D01*
X149646530Y-66149500D01*
X149443587Y-66189868D01*
X149443579Y-66189870D01*
X149252403Y-66269058D01*
X149080342Y-66384024D01*
X148934024Y-66530342D01*
X148819058Y-66702403D01*
X148739870Y-66893579D01*
X148739868Y-66893587D01*
X148699500Y-67096530D01*
X148699500Y-67303469D01*
X146500500Y-67303469D01*
X146500500Y-65354269D01*
X148699500Y-65354269D01*
X148702353Y-65384699D01*
X148702353Y-65384701D01*
X148727034Y-65455232D01*
X148747207Y-65512882D01*
X148827850Y-65622150D01*
X148937118Y-65702793D01*
X148979845Y-65717744D01*
X149065299Y-65747646D01*
X149095730Y-65750500D01*
X149095734Y-65750500D01*
X150704270Y-65750500D01*
X150734699Y-65747646D01*
X150734701Y-65747646D01*
X150798790Y-65725219D01*
X150862882Y-65702793D01*
X150972150Y-65622150D01*
X151052793Y-65512882D01*
X151075219Y-65448790D01*
X151092292Y-65400000D01*
X157594353Y-65400000D01*
X157614834Y-65542456D01*
X157670716Y-65664819D01*
X157674623Y-65673373D01*
X157768872Y-65782143D01*
X157889947Y-65859953D01*
X157889950Y-65859954D01*
X157889949Y-65859954D01*
X158028036Y-65900499D01*
X158028038Y-65900500D01*
X158028039Y-65900500D01*
X158171962Y-65900500D01*
X158171962Y-65900499D01*
X158310053Y-65859953D01*
X158431128Y-65782143D01*
X158525377Y-65673373D01*
X158585165Y-65542457D01*
X158605647Y-65400000D01*
X158585165Y-65257543D01*
X158525377Y-65126627D01*
X158431128Y-65017857D01*
X158310053Y-64940047D01*
X158310051Y-64940046D01*
X158310049Y-64940045D01*
X158310050Y-64940045D01*
X158171963Y-64899500D01*
X158171961Y-64899500D01*
X158028039Y-64899500D01*
X158028036Y-64899500D01*
X157889949Y-64940045D01*
X157768873Y-65017856D01*
X157674623Y-65126626D01*
X157674622Y-65126628D01*
X157614834Y-65257543D01*
X157594353Y-65400000D01*
X151092292Y-65400000D01*
X151097646Y-65384701D01*
X151097646Y-65384699D01*
X151100500Y-65354269D01*
X151100500Y-64480000D01*
X162104417Y-64480000D01*
X162124699Y-64685932D01*
X162149550Y-64767856D01*
X162184768Y-64883954D01*
X162282315Y-65066450D01*
X162282317Y-65066452D01*
X162413589Y-65226410D01*
X162494068Y-65292456D01*
X162573550Y-65357685D01*
X162756046Y-65455232D01*
X162954066Y-65515300D01*
X162954065Y-65515300D01*
X162972529Y-65517118D01*
X163160000Y-65535583D01*
X163365934Y-65515300D01*
X163563954Y-65455232D01*
X163746450Y-65357685D01*
X163906410Y-65226410D01*
X164037685Y-65066450D01*
X164135232Y-64883954D01*
X164195300Y-64685934D01*
X164215583Y-64480000D01*
X164644417Y-64480000D01*
X164664699Y-64685932D01*
X164689550Y-64767856D01*
X164724768Y-64883954D01*
X164822315Y-65066450D01*
X164822317Y-65066452D01*
X164953589Y-65226410D01*
X165034068Y-65292456D01*
X165113550Y-65357685D01*
X165296046Y-65455232D01*
X165494066Y-65515300D01*
X165494065Y-65515300D01*
X165512529Y-65517118D01*
X165700000Y-65535583D01*
X165905934Y-65515300D01*
X166103954Y-65455232D01*
X166286450Y-65357685D01*
X166446410Y-65226410D01*
X166509118Y-65150000D01*
X184694353Y-65150000D01*
X184714834Y-65292456D01*
X184744624Y-65357685D01*
X184774623Y-65423373D01*
X184868872Y-65532143D01*
X184989947Y-65609953D01*
X184989950Y-65609954D01*
X184989949Y-65609954D01*
X185097107Y-65641417D01*
X185125280Y-65649690D01*
X185128036Y-65650499D01*
X185128038Y-65650500D01*
X185128039Y-65650500D01*
X185271962Y-65650500D01*
X185271962Y-65650499D01*
X185410050Y-65609954D01*
X185410051Y-65609954D01*
X185461114Y-65577138D01*
X185531128Y-65532143D01*
X185531129Y-65532141D01*
X185532960Y-65530965D01*
X185600000Y-65511280D01*
X185667039Y-65530964D01*
X185667040Y-65530965D01*
X185668870Y-65532141D01*
X185668872Y-65532143D01*
X185738886Y-65577138D01*
X185789948Y-65609954D01*
X185908108Y-65644647D01*
X185925280Y-65649690D01*
X185928036Y-65650499D01*
X185928038Y-65650500D01*
X186024167Y-65650500D01*
X186091206Y-65670185D01*
X186111848Y-65686819D01*
X186209540Y-65784511D01*
X186265489Y-65840460D01*
X186265491Y-65840461D01*
X186265495Y-65840464D01*
X186334004Y-65880017D01*
X186334011Y-65880021D01*
X186410438Y-65900500D01*
X187615984Y-65900500D01*
X187683023Y-65920185D01*
X187728778Y-65972988D01*
X187753275Y-66026628D01*
X187774623Y-66073373D01*
X187868872Y-66182143D01*
X187989947Y-66259953D01*
X187989950Y-66259954D01*
X187989949Y-66259954D01*
X188097107Y-66291417D01*
X188126336Y-66300000D01*
X188128036Y-66300499D01*
X188128038Y-66300500D01*
X188128039Y-66300500D01*
X188271962Y-66300500D01*
X188271962Y-66300499D01*
X188410050Y-66259954D01*
X188410051Y-66259954D01*
X188410053Y-66259953D01*
X188531128Y-66182143D01*
X188531129Y-66182140D01*
X188532961Y-66180964D01*
X188600000Y-66161279D01*
X188667040Y-66180963D01*
X188667041Y-66180964D01*
X188668874Y-66182142D01*
X188668875Y-66182143D01*
X188728933Y-66220739D01*
X188789951Y-66259954D01*
X188908111Y-66294647D01*
X188926339Y-66300000D01*
X188928039Y-66300499D01*
X188928041Y-66300500D01*
X188928042Y-66300500D01*
X189071965Y-66300500D01*
X189071965Y-66300499D01*
X189210056Y-66259953D01*
X189331131Y-66182143D01*
X189425380Y-66073373D01*
X189485168Y-65942457D01*
X189505650Y-65800000D01*
X189485168Y-65657543D01*
X189425380Y-65526627D01*
X189331131Y-65417857D01*
X189210056Y-65340047D01*
X189210054Y-65340046D01*
X189210052Y-65340045D01*
X189210053Y-65340045D01*
X189071966Y-65299500D01*
X189071964Y-65299500D01*
X189024362Y-65299500D01*
X188957323Y-65279815D01*
X188936681Y-65263181D01*
X188633038Y-64959538D01*
X188633035Y-64959536D01*
X188631095Y-64958416D01*
X188631095Y-64958415D01*
X188631088Y-64958413D01*
X188564521Y-64919980D01*
X188564522Y-64919980D01*
X188555489Y-64917559D01*
X188488091Y-64899500D01*
X188488089Y-64899500D01*
X187074362Y-64899500D01*
X187007323Y-64879815D01*
X186986681Y-64863181D01*
X186433041Y-64309541D01*
X186433036Y-64309537D01*
X186417382Y-64300499D01*
X186417380Y-64300499D01*
X186371599Y-64274067D01*
X186364519Y-64269979D01*
X186327101Y-64259953D01*
X186288091Y-64249500D01*
X185791033Y-64249500D01*
X185711909Y-64249500D01*
X185635481Y-64269978D01*
X185566960Y-64309540D01*
X185566957Y-64309542D01*
X185263319Y-64613181D01*
X185201996Y-64646666D01*
X185175638Y-64649500D01*
X185128036Y-64649500D01*
X184989949Y-64690045D01*
X184868873Y-64767856D01*
X184774623Y-64876626D01*
X184774622Y-64876628D01*
X184714834Y-65007543D01*
X184694353Y-65150000D01*
X166509118Y-65150000D01*
X166577685Y-65066450D01*
X166675232Y-64883954D01*
X166735300Y-64685934D01*
X166755583Y-64480000D01*
X166735300Y-64274066D01*
X166675232Y-64076046D01*
X166577685Y-63893550D01*
X166500911Y-63800000D01*
X169094353Y-63800000D01*
X169114834Y-63942456D01*
X169174622Y-64073371D01*
X169174623Y-64073373D01*
X169268872Y-64182143D01*
X169389947Y-64259953D01*
X169389950Y-64259954D01*
X169389949Y-64259954D01*
X169528036Y-64300499D01*
X169528038Y-64300500D01*
X169528039Y-64300500D01*
X169671962Y-64300500D01*
X169671962Y-64300499D01*
X169810050Y-64259954D01*
X169810051Y-64259954D01*
X169826318Y-64249500D01*
X169931128Y-64182143D01*
X169931129Y-64182141D01*
X169932960Y-64180965D01*
X170000000Y-64161280D01*
X170067039Y-64180964D01*
X170067040Y-64180965D01*
X170068870Y-64182141D01*
X170068872Y-64182143D01*
X170146251Y-64231871D01*
X170189948Y-64259954D01*
X170328036Y-64300499D01*
X170328038Y-64300500D01*
X170328039Y-64300500D01*
X170471962Y-64300500D01*
X170471962Y-64300499D01*
X170610050Y-64259954D01*
X170610051Y-64259954D01*
X170626318Y-64249500D01*
X170731128Y-64182143D01*
X170731129Y-64182141D01*
X170732960Y-64180965D01*
X170800000Y-64161280D01*
X170867039Y-64180964D01*
X170867040Y-64180965D01*
X170868870Y-64182141D01*
X170868872Y-64182143D01*
X170946251Y-64231871D01*
X170989948Y-64259954D01*
X171128036Y-64300499D01*
X171128038Y-64300500D01*
X171128039Y-64300500D01*
X171271962Y-64300500D01*
X171271962Y-64300499D01*
X171410053Y-64259953D01*
X171531128Y-64182143D01*
X171625377Y-64073373D01*
X171685165Y-63942457D01*
X171705647Y-63800000D01*
X171685165Y-63657543D01*
X171625377Y-63526627D01*
X171531128Y-63417857D01*
X171410053Y-63340047D01*
X171410051Y-63340046D01*
X171410049Y-63340045D01*
X171410050Y-63340045D01*
X171271963Y-63299500D01*
X171271961Y-63299500D01*
X171128039Y-63299500D01*
X171128036Y-63299500D01*
X170989949Y-63340045D01*
X170867039Y-63419035D01*
X170800000Y-63438719D01*
X170732961Y-63419035D01*
X170701311Y-63398695D01*
X170610053Y-63340047D01*
X170610051Y-63340046D01*
X170610049Y-63340045D01*
X170610050Y-63340045D01*
X170471963Y-63299500D01*
X170471961Y-63299500D01*
X170328039Y-63299500D01*
X170328036Y-63299500D01*
X170189949Y-63340045D01*
X170067039Y-63419035D01*
X170000000Y-63438719D01*
X169932961Y-63419035D01*
X169901311Y-63398695D01*
X169810053Y-63340047D01*
X169810051Y-63340046D01*
X169810049Y-63340045D01*
X169810050Y-63340045D01*
X169671963Y-63299500D01*
X169671961Y-63299500D01*
X169528039Y-63299500D01*
X169528036Y-63299500D01*
X169389949Y-63340045D01*
X169268873Y-63417856D01*
X169174623Y-63526626D01*
X169174622Y-63526628D01*
X169114834Y-63657543D01*
X169094353Y-63800000D01*
X166500911Y-63800000D01*
X166465408Y-63756739D01*
X166446410Y-63733589D01*
X166286452Y-63602317D01*
X166286453Y-63602317D01*
X166286450Y-63602315D01*
X166103954Y-63504768D01*
X165905934Y-63444700D01*
X165905932Y-63444699D01*
X165905934Y-63444699D01*
X165700000Y-63424417D01*
X165494067Y-63444699D01*
X165296043Y-63504769D01*
X165185898Y-63563643D01*
X165113550Y-63602315D01*
X165113548Y-63602316D01*
X165113547Y-63602317D01*
X164953589Y-63733589D01*
X164822317Y-63893547D01*
X164822315Y-63893550D01*
X164783643Y-63965898D01*
X164724769Y-64076043D01*
X164664699Y-64274067D01*
X164644417Y-64480000D01*
X164215583Y-64480000D01*
X164195300Y-64274066D01*
X164135232Y-64076046D01*
X164037685Y-63893550D01*
X163925408Y-63756739D01*
X163906410Y-63733589D01*
X163746452Y-63602317D01*
X163746453Y-63602317D01*
X163746450Y-63602315D01*
X163563954Y-63504768D01*
X163365934Y-63444700D01*
X163365932Y-63444699D01*
X163365934Y-63444699D01*
X163160000Y-63424417D01*
X162954067Y-63444699D01*
X162756043Y-63504769D01*
X162645898Y-63563643D01*
X162573550Y-63602315D01*
X162573548Y-63602316D01*
X162573547Y-63602317D01*
X162413589Y-63733589D01*
X162282317Y-63893547D01*
X162282315Y-63893550D01*
X162243643Y-63965898D01*
X162184769Y-64076043D01*
X162124699Y-64274067D01*
X162104417Y-64480000D01*
X151100500Y-64480000D01*
X151100500Y-64045730D01*
X151097646Y-64015300D01*
X151097646Y-64015298D01*
X151064006Y-63919163D01*
X151052793Y-63887118D01*
X150972150Y-63777850D01*
X150862882Y-63697207D01*
X150862880Y-63697206D01*
X150734700Y-63652353D01*
X150704270Y-63649500D01*
X150704266Y-63649500D01*
X149095734Y-63649500D01*
X149095730Y-63649500D01*
X149065300Y-63652353D01*
X149065298Y-63652353D01*
X148937119Y-63697206D01*
X148937117Y-63697207D01*
X148827850Y-63777850D01*
X148747207Y-63887117D01*
X148747206Y-63887119D01*
X148702353Y-64015298D01*
X148702353Y-64015300D01*
X148699500Y-64045730D01*
X148699500Y-65354269D01*
X146500500Y-65354269D01*
X146500500Y-61940000D01*
X162104417Y-61940000D01*
X162124699Y-62145932D01*
X162135040Y-62180021D01*
X162184768Y-62343954D01*
X162282315Y-62526450D01*
X162316969Y-62568677D01*
X162413589Y-62686410D01*
X162481506Y-62742147D01*
X162573550Y-62817685D01*
X162756046Y-62915232D01*
X162954066Y-62975300D01*
X162954065Y-62975300D01*
X162972529Y-62977118D01*
X163160000Y-62995583D01*
X163365934Y-62975300D01*
X163563954Y-62915232D01*
X163746450Y-62817685D01*
X163906410Y-62686410D01*
X164037685Y-62526450D01*
X164135232Y-62343954D01*
X164195300Y-62145934D01*
X164215583Y-61940000D01*
X164195300Y-61734066D01*
X164135232Y-61536046D01*
X164037685Y-61353550D01*
X163985702Y-61290209D01*
X163906410Y-61193589D01*
X163746452Y-61062317D01*
X163746453Y-61062317D01*
X163746450Y-61062315D01*
X163563954Y-60964768D01*
X163365934Y-60904700D01*
X163365932Y-60904699D01*
X163365934Y-60904699D01*
X163160000Y-60884417D01*
X162954067Y-60904699D01*
X162756043Y-60964769D01*
X162680755Y-61005012D01*
X162573550Y-61062315D01*
X162573548Y-61062316D01*
X162573547Y-61062317D01*
X162413589Y-61193589D01*
X162282317Y-61353547D01*
X162184769Y-61536043D01*
X162124699Y-61734067D01*
X162104417Y-61940000D01*
X146500500Y-61940000D01*
X146500500Y-58603469D01*
X148699500Y-58603469D01*
X148739868Y-58806412D01*
X148739870Y-58806420D01*
X148807484Y-58969655D01*
X148819059Y-58997598D01*
X148839910Y-59028804D01*
X148934024Y-59169657D01*
X149080342Y-59315975D01*
X149080345Y-59315977D01*
X149252402Y-59430941D01*
X149443580Y-59510130D01*
X149646530Y-59550499D01*
X149646534Y-59550500D01*
X149646535Y-59550500D01*
X150153466Y-59550500D01*
X150153467Y-59550499D01*
X150356420Y-59510130D01*
X150547598Y-59430941D01*
X150593905Y-59400000D01*
X162104417Y-59400000D01*
X162124699Y-59605932D01*
X162130977Y-59626627D01*
X162184768Y-59803954D01*
X162282315Y-59986450D01*
X162315286Y-60026626D01*
X162413589Y-60146410D01*
X162510209Y-60225702D01*
X162573550Y-60277685D01*
X162756046Y-60375232D01*
X162954066Y-60435300D01*
X162954065Y-60435300D01*
X162972529Y-60437118D01*
X163160000Y-60455583D01*
X163365934Y-60435300D01*
X163563954Y-60375232D01*
X163746450Y-60277685D01*
X163906410Y-60146410D01*
X164037685Y-59986450D01*
X164135232Y-59803954D01*
X164195300Y-59605934D01*
X164215583Y-59400000D01*
X164644417Y-59400000D01*
X164664699Y-59605932D01*
X164670977Y-59626627D01*
X164724768Y-59803954D01*
X164822315Y-59986450D01*
X164855286Y-60026626D01*
X164953589Y-60146410D01*
X165050209Y-60225702D01*
X165113550Y-60277685D01*
X165296046Y-60375232D01*
X165494066Y-60435300D01*
X165494065Y-60435300D01*
X165512529Y-60437118D01*
X165700000Y-60455583D01*
X165905934Y-60435300D01*
X166103954Y-60375232D01*
X166244702Y-60300000D01*
X183594353Y-60300000D01*
X183614834Y-60442456D01*
X183674622Y-60573371D01*
X183674623Y-60573373D01*
X183768872Y-60682143D01*
X183889947Y-60759953D01*
X183889950Y-60759954D01*
X183889949Y-60759954D01*
X184028036Y-60800499D01*
X184028038Y-60800500D01*
X184028039Y-60800500D01*
X184171962Y-60800500D01*
X184171962Y-60800499D01*
X184310053Y-60759953D01*
X184431128Y-60682143D01*
X184525377Y-60573373D01*
X184585165Y-60442457D01*
X184605647Y-60300000D01*
X184585165Y-60157543D01*
X184585164Y-60157541D01*
X184585085Y-60157271D01*
X184585084Y-60156985D01*
X184583903Y-60148765D01*
X184585084Y-60148595D01*
X184585079Y-60087401D01*
X184622849Y-60028620D01*
X184686403Y-59999590D01*
X184721709Y-59999590D01*
X184728037Y-60000500D01*
X184728039Y-60000500D01*
X184871962Y-60000500D01*
X184871962Y-60000499D01*
X185010053Y-59959953D01*
X185131128Y-59882143D01*
X185164788Y-59843296D01*
X185223567Y-59805523D01*
X185258501Y-59800500D01*
X187572696Y-59800500D01*
X187639735Y-59820185D01*
X187660377Y-59836819D01*
X190308069Y-62484511D01*
X190364018Y-62540460D01*
X190364020Y-62540461D01*
X190364024Y-62540464D01*
X190383453Y-62551681D01*
X190432540Y-62580021D01*
X190508967Y-62600500D01*
X190508969Y-62600500D01*
X191006649Y-62600500D01*
X191073688Y-62620185D01*
X191119443Y-62672989D01*
X191129387Y-62742147D01*
X191100362Y-62805703D01*
X191073690Y-62828814D01*
X191032472Y-62855302D01*
X191003231Y-62874095D01*
X190908981Y-62982865D01*
X190908980Y-62982867D01*
X190849192Y-63113782D01*
X190828711Y-63256239D01*
X190849192Y-63398695D01*
X190894243Y-63497340D01*
X190908981Y-63529612D01*
X191003230Y-63638382D01*
X191124305Y-63716192D01*
X191124308Y-63716193D01*
X191124307Y-63716193D01*
X191262394Y-63756738D01*
X191262396Y-63756739D01*
X191262397Y-63756739D01*
X191406320Y-63756739D01*
X191406320Y-63756738D01*
X191544411Y-63716192D01*
X191665486Y-63638382D01*
X191759735Y-63529612D01*
X191819523Y-63398696D01*
X191840005Y-63256239D01*
X191819523Y-63113782D01*
X191759735Y-62982866D01*
X191665486Y-62874096D01*
X191595027Y-62828814D01*
X191549273Y-62776012D01*
X191539329Y-62706854D01*
X191568354Y-62643298D01*
X191627132Y-62605523D01*
X191662067Y-62600500D01*
X192479350Y-62600500D01*
X192479350Y-62601624D01*
X192519990Y-62604771D01*
X192547383Y-62612815D01*
X192691306Y-62612815D01*
X192691306Y-62612814D01*
X192829394Y-62572269D01*
X192829395Y-62572269D01*
X192861431Y-62551681D01*
X192928471Y-62531996D01*
X192995510Y-62551680D01*
X193041265Y-62604484D01*
X193052471Y-62655996D01*
X193052471Y-66392533D01*
X193054338Y-66399500D01*
X193072950Y-66468962D01*
X193072952Y-66468965D01*
X193111020Y-66534899D01*
X193111025Y-66534918D01*
X193111030Y-66534916D01*
X193112511Y-66537482D01*
X194060604Y-67485575D01*
X194094089Y-67546898D01*
X194095661Y-67590902D01*
X194094353Y-67599999D01*
X194114834Y-67742456D01*
X194172103Y-67867856D01*
X194174623Y-67873373D01*
X194268872Y-67982143D01*
X194389947Y-68059953D01*
X194389950Y-68059954D01*
X194389949Y-68059954D01*
X194528036Y-68100499D01*
X194528038Y-68100500D01*
X194528039Y-68100500D01*
X194671962Y-68100500D01*
X194671962Y-68100499D01*
X194810053Y-68059953D01*
X194931128Y-67982143D01*
X195025377Y-67873373D01*
X195085165Y-67742457D01*
X195105647Y-67600000D01*
X195091269Y-67500000D01*
X197994353Y-67500000D01*
X198014834Y-67642456D01*
X198060504Y-67742457D01*
X198074623Y-67773373D01*
X198168872Y-67882143D01*
X198289947Y-67959953D01*
X198289950Y-67959954D01*
X198289949Y-67959954D01*
X198428036Y-68000499D01*
X198428038Y-68000500D01*
X198428039Y-68000500D01*
X198571962Y-68000500D01*
X198571962Y-68000499D01*
X198710053Y-67959953D01*
X198831128Y-67882143D01*
X198925377Y-67773373D01*
X198985165Y-67642457D01*
X199005647Y-67500000D01*
X198985165Y-67357543D01*
X198925377Y-67226627D01*
X198831128Y-67117857D01*
X198710053Y-67040047D01*
X198710051Y-67040046D01*
X198710049Y-67040045D01*
X198710050Y-67040045D01*
X198571963Y-66999500D01*
X198571961Y-66999500D01*
X198428039Y-66999500D01*
X198428036Y-66999500D01*
X198289949Y-67040045D01*
X198168873Y-67117856D01*
X198074623Y-67226626D01*
X198074622Y-67226628D01*
X198014834Y-67357543D01*
X197994353Y-67500000D01*
X195091269Y-67500000D01*
X195085165Y-67457543D01*
X195025377Y-67326627D01*
X194931128Y-67217857D01*
X194810053Y-67140047D01*
X194810051Y-67140046D01*
X194810049Y-67140045D01*
X194810050Y-67140045D01*
X194671963Y-67099500D01*
X194671961Y-67099500D01*
X194575833Y-67099500D01*
X194508794Y-67079815D01*
X194488152Y-67063181D01*
X194437152Y-67012181D01*
X194403667Y-66950858D01*
X194408651Y-66881166D01*
X194450523Y-66825233D01*
X194515987Y-66800816D01*
X194524833Y-66800500D01*
X194571962Y-66800500D01*
X194571962Y-66800499D01*
X194710053Y-66759953D01*
X194831128Y-66682143D01*
X194925377Y-66573373D01*
X194985165Y-66442457D01*
X195005647Y-66300000D01*
X194985165Y-66157543D01*
X194925377Y-66026627D01*
X194831128Y-65917857D01*
X194710053Y-65840047D01*
X194710051Y-65840046D01*
X194710049Y-65840045D01*
X194710050Y-65840045D01*
X194571963Y-65799500D01*
X194571961Y-65799500D01*
X194428039Y-65799500D01*
X194428035Y-65799500D01*
X194341267Y-65824977D01*
X194271397Y-65824977D01*
X194218652Y-65793681D01*
X194089790Y-65664819D01*
X194056305Y-65603496D01*
X194053471Y-65577138D01*
X194053471Y-62204253D01*
X194073156Y-62137214D01*
X194125960Y-62091459D01*
X194195118Y-62081515D01*
X194212404Y-62085275D01*
X194233463Y-62091459D01*
X194280032Y-62105133D01*
X194376161Y-62105133D01*
X194443200Y-62124818D01*
X194457834Y-62136610D01*
X194462847Y-62140457D01*
X194462850Y-62140460D01*
X194462853Y-62140461D01*
X194462856Y-62140464D01*
X194531365Y-62180017D01*
X194531372Y-62180021D01*
X194607799Y-62200500D01*
X194607801Y-62200500D01*
X203639560Y-62200500D01*
X203639562Y-62200500D01*
X203715989Y-62180021D01*
X203784511Y-62140460D01*
X203840460Y-62084511D01*
X205021501Y-60903469D01*
X206024500Y-60903469D01*
X206064868Y-61106412D01*
X206064870Y-61106420D01*
X206104268Y-61201536D01*
X206144059Y-61297598D01*
X206166551Y-61331260D01*
X206259024Y-61469657D01*
X206405342Y-61615975D01*
X206405345Y-61615977D01*
X206577402Y-61730941D01*
X206768580Y-61810130D01*
X206913424Y-61838941D01*
X206971530Y-61850499D01*
X206971534Y-61850500D01*
X206971535Y-61850500D01*
X207428466Y-61850500D01*
X207428467Y-61850499D01*
X207631420Y-61810130D01*
X207822598Y-61730941D01*
X207994655Y-61615977D01*
X208140977Y-61469655D01*
X208255941Y-61297598D01*
X208335130Y-61106420D01*
X208375500Y-60903465D01*
X208375500Y-60696535D01*
X208335130Y-60493580D01*
X208255941Y-60302402D01*
X208140977Y-60130345D01*
X208140975Y-60130342D01*
X207994657Y-59984024D01*
X207868905Y-59900000D01*
X207822598Y-59869059D01*
X207760403Y-59843297D01*
X207631420Y-59789870D01*
X207631412Y-59789868D01*
X207428469Y-59749500D01*
X207428465Y-59749500D01*
X206971535Y-59749500D01*
X206971530Y-59749500D01*
X206768587Y-59789868D01*
X206768579Y-59789870D01*
X206577403Y-59869058D01*
X206405342Y-59984024D01*
X206259024Y-60130342D01*
X206144058Y-60302403D01*
X206064870Y-60493579D01*
X206064868Y-60493587D01*
X206024500Y-60696530D01*
X206024500Y-60903469D01*
X205021501Y-60903469D01*
X206601284Y-59323685D01*
X206662605Y-59290202D01*
X206732297Y-59295186D01*
X206736416Y-59296807D01*
X206768580Y-59310130D01*
X206971530Y-59350499D01*
X206971534Y-59350500D01*
X206971535Y-59350500D01*
X207428466Y-59350500D01*
X207428467Y-59350499D01*
X207631420Y-59310130D01*
X207822598Y-59230941D01*
X207994655Y-59115977D01*
X208140977Y-58969655D01*
X208255941Y-58797598D01*
X208335130Y-58606420D01*
X208375500Y-58403465D01*
X208375500Y-58196535D01*
X208335130Y-57993580D01*
X208255941Y-57802402D01*
X208140977Y-57630345D01*
X208140975Y-57630342D01*
X207994657Y-57484024D01*
X207863915Y-57396666D01*
X207822598Y-57369059D01*
X207808407Y-57363181D01*
X207631420Y-57289870D01*
X207631412Y-57289868D01*
X207428469Y-57249500D01*
X207428465Y-57249500D01*
X206971535Y-57249500D01*
X206971530Y-57249500D01*
X206768587Y-57289868D01*
X206768579Y-57289870D01*
X206577403Y-57369058D01*
X206405342Y-57484024D01*
X206259024Y-57630342D01*
X206144058Y-57802403D01*
X206064870Y-57993579D01*
X206064868Y-57993587D01*
X206024500Y-58196530D01*
X206024500Y-58403469D01*
X206064868Y-58606412D01*
X206064870Y-58606420D01*
X206144057Y-58797595D01*
X206146932Y-58802973D01*
X206144491Y-58804277D01*
X206161820Y-58859599D01*
X206143342Y-58926981D01*
X206125521Y-58949506D01*
X203511848Y-61563181D01*
X203450525Y-61596666D01*
X203424167Y-61599500D01*
X194964350Y-61599500D01*
X194897311Y-61579815D01*
X194851556Y-61527011D01*
X194841612Y-61493147D01*
X194837159Y-61462176D01*
X194777371Y-61331260D01*
X194683122Y-61222490D01*
X194562047Y-61144680D01*
X194562045Y-61144679D01*
X194562043Y-61144678D01*
X194562044Y-61144678D01*
X194423957Y-61104133D01*
X194423955Y-61104133D01*
X194280033Y-61104133D01*
X194280029Y-61104133D01*
X194212405Y-61123989D01*
X194142535Y-61123989D01*
X194083757Y-61086214D01*
X194054733Y-61022658D01*
X194053471Y-61005012D01*
X194053471Y-58364882D01*
X194053471Y-58364880D01*
X194037558Y-58305492D01*
X194032993Y-58288454D01*
X193993431Y-58219931D01*
X192940228Y-57166728D01*
X192906743Y-57105405D01*
X192905173Y-57096707D01*
X192885165Y-56957543D01*
X192825377Y-56826627D01*
X192731128Y-56717857D01*
X192610053Y-56640047D01*
X192610051Y-56640046D01*
X192610049Y-56640045D01*
X192610050Y-56640045D01*
X192471963Y-56599500D01*
X192471961Y-56599500D01*
X192328039Y-56599500D01*
X192328036Y-56599500D01*
X192189949Y-56640045D01*
X192068873Y-56717856D01*
X191974623Y-56826626D01*
X191974622Y-56826628D01*
X191914834Y-56957543D01*
X191894353Y-57100000D01*
X191914834Y-57242456D01*
X191974622Y-57373371D01*
X191974625Y-57373377D01*
X192013983Y-57418798D01*
X192043008Y-57482353D01*
X192033064Y-57551512D01*
X192013983Y-57581202D01*
X191974625Y-57626622D01*
X191974622Y-57626628D01*
X191914834Y-57757543D01*
X191894353Y-57900000D01*
X191914834Y-58042456D01*
X191974605Y-58173333D01*
X191974623Y-58173373D01*
X192068872Y-58282143D01*
X192189947Y-58359953D01*
X192189950Y-58359954D01*
X192189949Y-58359954D01*
X192297107Y-58391417D01*
X192325280Y-58399690D01*
X192328036Y-58400499D01*
X192328038Y-58400500D01*
X192424167Y-58400500D01*
X192491206Y-58420185D01*
X192511848Y-58436819D01*
X193016152Y-58941123D01*
X193049637Y-59002446D01*
X193052471Y-59028804D01*
X193052471Y-59300666D01*
X193032786Y-59367705D01*
X192979982Y-59413460D01*
X192910824Y-59423404D01*
X192893537Y-59419643D01*
X192824935Y-59399500D01*
X192824932Y-59399500D01*
X192681010Y-59399500D01*
X192681007Y-59399500D01*
X192542920Y-59440045D01*
X192421844Y-59517856D01*
X192327594Y-59626626D01*
X192327593Y-59626628D01*
X192267805Y-59757543D01*
X192247324Y-59900000D01*
X192267805Y-60042456D01*
X192320365Y-60157544D01*
X192327594Y-60173373D01*
X192421843Y-60282143D01*
X192421846Y-60282144D01*
X192422184Y-60282535D01*
X192451209Y-60346091D01*
X192452471Y-60363738D01*
X192452471Y-61556902D01*
X192432786Y-61623941D01*
X192395511Y-61661217D01*
X192288218Y-61730170D01*
X192193967Y-61838941D01*
X192193966Y-61838943D01*
X192153746Y-61927012D01*
X192107991Y-61979816D01*
X192040952Y-61999500D01*
X190724362Y-61999500D01*
X190657323Y-61979815D01*
X190636681Y-61963181D01*
X187933041Y-59259541D01*
X187933036Y-59259537D01*
X187917382Y-59250499D01*
X187917380Y-59250499D01*
X187883505Y-59230941D01*
X187864519Y-59219979D01*
X187839042Y-59213152D01*
X187788091Y-59199500D01*
X187788089Y-59199500D01*
X185258501Y-59199500D01*
X185191462Y-59179815D01*
X185164788Y-59156703D01*
X185131128Y-59117857D01*
X185010053Y-59040047D01*
X185010051Y-59040046D01*
X185010049Y-59040045D01*
X185010050Y-59040045D01*
X184871963Y-58999500D01*
X184871961Y-58999500D01*
X184728039Y-58999500D01*
X184728036Y-58999500D01*
X184589949Y-59040045D01*
X184468873Y-59117856D01*
X184374623Y-59226626D01*
X184374622Y-59226628D01*
X184314834Y-59357543D01*
X184294353Y-59500000D01*
X184314835Y-59642458D01*
X184314917Y-59642737D01*
X184314917Y-59643027D01*
X184316097Y-59651235D01*
X184314917Y-59651404D01*
X184314917Y-59712607D01*
X184277143Y-59771385D01*
X184213587Y-59800410D01*
X184178297Y-59800410D01*
X184171966Y-59799500D01*
X184171961Y-59799500D01*
X184028039Y-59799500D01*
X184028036Y-59799500D01*
X183889949Y-59840045D01*
X183768873Y-59917856D01*
X183674623Y-60026626D01*
X183674622Y-60026628D01*
X183614834Y-60157543D01*
X183594353Y-60300000D01*
X166244702Y-60300000D01*
X166286450Y-60277685D01*
X166446410Y-60146410D01*
X166577685Y-59986450D01*
X166675232Y-59803954D01*
X166735300Y-59605934D01*
X166735884Y-59600000D01*
X171694353Y-59600000D01*
X171714834Y-59742456D01*
X171772652Y-59869058D01*
X171774623Y-59873373D01*
X171868872Y-59982143D01*
X171989947Y-60059953D01*
X171989950Y-60059954D01*
X171989949Y-60059954D01*
X172128036Y-60100499D01*
X172128038Y-60100500D01*
X172128039Y-60100500D01*
X172271962Y-60100500D01*
X172271962Y-60100499D01*
X172410053Y-60059953D01*
X172531128Y-59982143D01*
X172625377Y-59873373D01*
X172685165Y-59742457D01*
X172705647Y-59600000D01*
X173094353Y-59600000D01*
X173114834Y-59742456D01*
X173172652Y-59869058D01*
X173174623Y-59873373D01*
X173268872Y-59982143D01*
X173389947Y-60059953D01*
X173389950Y-60059954D01*
X173389949Y-60059954D01*
X173528036Y-60100499D01*
X173528038Y-60100500D01*
X173528039Y-60100500D01*
X173671962Y-60100500D01*
X173671962Y-60100499D01*
X173810053Y-60059953D01*
X173931128Y-59982143D01*
X174025377Y-59873373D01*
X174085165Y-59742457D01*
X174105647Y-59600000D01*
X174494353Y-59600000D01*
X174514834Y-59742456D01*
X174572652Y-59869058D01*
X174574623Y-59873373D01*
X174668872Y-59982143D01*
X174789947Y-60059953D01*
X174789950Y-60059954D01*
X174789949Y-60059954D01*
X174928036Y-60100499D01*
X174928038Y-60100500D01*
X174928039Y-60100500D01*
X175071962Y-60100500D01*
X175071962Y-60100499D01*
X175210053Y-60059953D01*
X175331128Y-59982143D01*
X175425377Y-59873373D01*
X175485165Y-59742457D01*
X175505647Y-59600000D01*
X175485165Y-59457543D01*
X175425377Y-59326627D01*
X175331128Y-59217857D01*
X175210053Y-59140047D01*
X175210051Y-59140046D01*
X175210049Y-59140045D01*
X175210050Y-59140045D01*
X175071963Y-59099500D01*
X175071961Y-59099500D01*
X174928039Y-59099500D01*
X174928036Y-59099500D01*
X174789949Y-59140045D01*
X174668873Y-59217856D01*
X174574623Y-59326626D01*
X174574622Y-59326628D01*
X174514834Y-59457543D01*
X174494353Y-59600000D01*
X174105647Y-59600000D01*
X174085165Y-59457543D01*
X174025377Y-59326627D01*
X173931128Y-59217857D01*
X173810053Y-59140047D01*
X173810051Y-59140046D01*
X173810049Y-59140045D01*
X173810050Y-59140045D01*
X173671963Y-59099500D01*
X173671961Y-59099500D01*
X173528039Y-59099500D01*
X173528036Y-59099500D01*
X173389949Y-59140045D01*
X173268873Y-59217856D01*
X173174623Y-59326626D01*
X173174622Y-59326628D01*
X173114834Y-59457543D01*
X173094353Y-59600000D01*
X172705647Y-59600000D01*
X172685165Y-59457543D01*
X172625377Y-59326627D01*
X172531128Y-59217857D01*
X172410053Y-59140047D01*
X172410051Y-59140046D01*
X172410049Y-59140045D01*
X172410050Y-59140045D01*
X172271963Y-59099500D01*
X172271961Y-59099500D01*
X172128039Y-59099500D01*
X172128036Y-59099500D01*
X171989949Y-59140045D01*
X171868873Y-59217856D01*
X171774623Y-59326626D01*
X171774622Y-59326628D01*
X171714834Y-59457543D01*
X171694353Y-59600000D01*
X166735884Y-59600000D01*
X166755583Y-59400000D01*
X166735300Y-59194066D01*
X166675232Y-58996046D01*
X166667620Y-58981806D01*
X166653379Y-58913404D01*
X166678379Y-58848160D01*
X166689288Y-58835681D01*
X166788153Y-58736817D01*
X166849476Y-58703334D01*
X166875833Y-58700500D01*
X174339560Y-58700500D01*
X174339562Y-58700500D01*
X174415989Y-58680021D01*
X174484511Y-58640460D01*
X174540460Y-58584511D01*
X175088152Y-58036819D01*
X175149475Y-58003334D01*
X175175833Y-58000500D01*
X185339560Y-58000500D01*
X185339562Y-58000500D01*
X185415989Y-57980021D01*
X185484511Y-57940460D01*
X185540460Y-57884511D01*
X185888151Y-57536818D01*
X185949474Y-57503334D01*
X185975832Y-57500500D01*
X186071962Y-57500500D01*
X186071962Y-57500499D01*
X186210050Y-57459954D01*
X186210051Y-57459954D01*
X186226318Y-57449500D01*
X186331128Y-57382143D01*
X186331129Y-57382141D01*
X186332960Y-57380965D01*
X186400000Y-57361280D01*
X186467039Y-57380964D01*
X186467040Y-57380965D01*
X186468870Y-57382141D01*
X186468872Y-57382143D01*
X186534512Y-57424327D01*
X186589948Y-57459954D01*
X186671926Y-57484024D01*
X186726336Y-57500000D01*
X186728036Y-57500499D01*
X186728038Y-57500500D01*
X186728039Y-57500500D01*
X186871962Y-57500500D01*
X186871962Y-57500499D01*
X187010053Y-57459953D01*
X187131128Y-57382143D01*
X187225377Y-57273373D01*
X187285165Y-57142457D01*
X187305647Y-57000000D01*
X187285165Y-56857543D01*
X187225377Y-56726627D01*
X187131128Y-56617857D01*
X187010053Y-56540047D01*
X187010051Y-56540046D01*
X187010049Y-56540045D01*
X187010050Y-56540045D01*
X186871963Y-56499500D01*
X186871961Y-56499500D01*
X186824362Y-56499500D01*
X186757323Y-56479815D01*
X186736681Y-56463181D01*
X186433041Y-56159541D01*
X186433033Y-56159535D01*
X186364524Y-56119982D01*
X186364519Y-56119979D01*
X186339042Y-56113152D01*
X186288091Y-56099500D01*
X181460438Y-56099500D01*
X181422224Y-56109739D01*
X181384009Y-56119979D01*
X181384004Y-56119982D01*
X181315495Y-56159535D01*
X181315487Y-56159541D01*
X180511848Y-56963181D01*
X180450525Y-56996666D01*
X180424167Y-56999500D01*
X174794752Y-56999500D01*
X174758914Y-57009103D01*
X174718323Y-57019979D01*
X174718322Y-57019980D01*
X174675834Y-57044511D01*
X174649806Y-57059538D01*
X174649800Y-57059542D01*
X174046162Y-57663181D01*
X173984839Y-57696666D01*
X173958481Y-57699500D01*
X167015833Y-57699500D01*
X166948794Y-57679815D01*
X166928152Y-57663181D01*
X166689298Y-57424327D01*
X166655813Y-57363004D01*
X166660797Y-57293312D01*
X166667618Y-57278197D01*
X166675232Y-57263954D01*
X166735300Y-57065934D01*
X166755583Y-56860000D01*
X166735300Y-56654066D01*
X166675232Y-56456046D01*
X166577685Y-56273550D01*
X166484116Y-56159535D01*
X166446410Y-56113589D01*
X166296121Y-55990252D01*
X166286450Y-55982315D01*
X166103954Y-55884768D01*
X165905934Y-55824700D01*
X165905932Y-55824699D01*
X165905934Y-55824699D01*
X165700000Y-55804417D01*
X165494067Y-55824699D01*
X165296043Y-55884769D01*
X165208114Y-55931769D01*
X165113550Y-55982315D01*
X165113548Y-55982316D01*
X165113547Y-55982317D01*
X164953589Y-56113589D01*
X164822317Y-56273547D01*
X164724769Y-56456043D01*
X164664699Y-56654067D01*
X164644417Y-56860000D01*
X164664699Y-57065932D01*
X164676673Y-57105405D01*
X164724768Y-57263954D01*
X164822315Y-57446450D01*
X164851607Y-57482143D01*
X164953589Y-57606410D01*
X165022766Y-57663181D01*
X165113550Y-57737685D01*
X165296046Y-57835232D01*
X165494066Y-57895300D01*
X165494065Y-57895300D01*
X165512529Y-57897118D01*
X165700000Y-57915583D01*
X165905934Y-57895300D01*
X166103954Y-57835232D01*
X166118191Y-57827621D01*
X166186592Y-57813379D01*
X166251837Y-57838377D01*
X166264327Y-57849298D01*
X166457347Y-58042318D01*
X166490832Y-58103641D01*
X166485848Y-58173333D01*
X166457347Y-58217680D01*
X166264326Y-58410701D01*
X166203003Y-58444186D01*
X166133311Y-58439202D01*
X166118193Y-58432379D01*
X166103956Y-58424769D01*
X166103955Y-58424768D01*
X166103954Y-58424768D01*
X165905934Y-58364700D01*
X165905932Y-58364699D01*
X165905934Y-58364699D01*
X165700000Y-58344417D01*
X165494067Y-58364699D01*
X165296043Y-58424769D01*
X165185898Y-58483643D01*
X165113550Y-58522315D01*
X165113548Y-58522316D01*
X165113547Y-58522317D01*
X164953589Y-58653589D01*
X164828166Y-58806420D01*
X164822315Y-58813550D01*
X164797701Y-58859599D01*
X164724769Y-58996043D01*
X164664699Y-59194067D01*
X164644417Y-59400000D01*
X164215583Y-59400000D01*
X164195300Y-59194066D01*
X164135232Y-58996046D01*
X164037685Y-58813550D01*
X163944908Y-58700500D01*
X163906410Y-58653589D01*
X163746452Y-58522317D01*
X163746453Y-58522317D01*
X163746450Y-58522315D01*
X163563954Y-58424768D01*
X163365934Y-58364700D01*
X163365932Y-58364699D01*
X163365934Y-58364699D01*
X163160000Y-58344417D01*
X162954067Y-58364699D01*
X162756043Y-58424769D01*
X162645898Y-58483643D01*
X162573550Y-58522315D01*
X162573548Y-58522316D01*
X162573547Y-58522317D01*
X162413589Y-58653589D01*
X162288166Y-58806420D01*
X162282315Y-58813550D01*
X162257701Y-58859599D01*
X162184769Y-58996043D01*
X162124699Y-59194067D01*
X162104417Y-59400000D01*
X150593905Y-59400000D01*
X150719655Y-59315977D01*
X150865977Y-59169655D01*
X150980941Y-58997598D01*
X151060130Y-58806420D01*
X151100500Y-58603465D01*
X151100500Y-58396535D01*
X151060130Y-58193580D01*
X150980941Y-58002402D01*
X150865977Y-57830345D01*
X150865975Y-57830342D01*
X150765385Y-57729752D01*
X162109500Y-57729752D01*
X162121131Y-57788229D01*
X162121132Y-57788230D01*
X162165447Y-57854552D01*
X162231769Y-57898867D01*
X162231770Y-57898868D01*
X162290247Y-57910499D01*
X162290250Y-57910500D01*
X162290252Y-57910500D01*
X164029750Y-57910500D01*
X164029751Y-57910499D01*
X164044568Y-57907552D01*
X164088229Y-57898868D01*
X164088229Y-57898867D01*
X164088231Y-57898867D01*
X164154552Y-57854552D01*
X164198867Y-57788231D01*
X164198867Y-57788229D01*
X164198868Y-57788229D01*
X164210499Y-57729752D01*
X164210500Y-57729750D01*
X164210500Y-55990249D01*
X164210499Y-55990247D01*
X164198868Y-55931770D01*
X164198867Y-55931769D01*
X164154552Y-55865447D01*
X164088230Y-55821132D01*
X164088229Y-55821131D01*
X164029752Y-55809500D01*
X164029748Y-55809500D01*
X162290252Y-55809500D01*
X162290247Y-55809500D01*
X162231770Y-55821131D01*
X162231769Y-55821132D01*
X162165447Y-55865447D01*
X162121132Y-55931769D01*
X162121131Y-55931770D01*
X162109500Y-55990247D01*
X162109500Y-57729752D01*
X150765385Y-57729752D01*
X150719657Y-57684024D01*
X150565771Y-57581202D01*
X150547598Y-57569059D01*
X150356420Y-57489870D01*
X150356412Y-57489868D01*
X150153469Y-57449500D01*
X150153465Y-57449500D01*
X149646535Y-57449500D01*
X149646530Y-57449500D01*
X149443587Y-57489868D01*
X149443579Y-57489870D01*
X149252403Y-57569058D01*
X149080342Y-57684024D01*
X148934024Y-57830342D01*
X148819058Y-58002403D01*
X148739870Y-58193579D01*
X148739868Y-58193587D01*
X148699500Y-58396530D01*
X148699500Y-58603469D01*
X146500500Y-58603469D01*
X146500500Y-56654269D01*
X148699500Y-56654269D01*
X148702353Y-56684699D01*
X148702353Y-56684701D01*
X148745097Y-56806853D01*
X148747207Y-56812882D01*
X148827850Y-56922150D01*
X148937118Y-57002793D01*
X148979845Y-57017744D01*
X149065299Y-57047646D01*
X149095730Y-57050500D01*
X149095734Y-57050500D01*
X150704270Y-57050500D01*
X150734699Y-57047646D01*
X150734701Y-57047646D01*
X150813767Y-57019979D01*
X150862882Y-57002793D01*
X150972150Y-56922150D01*
X151052793Y-56812882D01*
X151077142Y-56743297D01*
X151097646Y-56684701D01*
X151097646Y-56684699D01*
X151100500Y-56654269D01*
X151100500Y-55345730D01*
X151097646Y-55315300D01*
X151097646Y-55315298D01*
X151052793Y-55187119D01*
X151052792Y-55187117D01*
X150972150Y-55077850D01*
X150862882Y-54997207D01*
X150862880Y-54997206D01*
X150734700Y-54952353D01*
X150704270Y-54949500D01*
X150704266Y-54949500D01*
X149095734Y-54949500D01*
X149095730Y-54949500D01*
X149065300Y-54952353D01*
X149065298Y-54952353D01*
X148937119Y-54997206D01*
X148937117Y-54997207D01*
X148827850Y-55077850D01*
X148747207Y-55187117D01*
X148747206Y-55187119D01*
X148702353Y-55315298D01*
X148702353Y-55315300D01*
X148699500Y-55345730D01*
X148699500Y-56654269D01*
X146500500Y-56654269D01*
X146500500Y-50003244D01*
X146500670Y-49996754D01*
X146504817Y-49917621D01*
X146516592Y-49692951D01*
X146517949Y-49680046D01*
X146529781Y-49605342D01*
X146565029Y-49382786D01*
X146567723Y-49370107D01*
X146645627Y-49079368D01*
X146649636Y-49067033D01*
X146736739Y-48840121D01*
X146757493Y-48786054D01*
X146762763Y-48774215D01*
X146899415Y-48506023D01*
X146905891Y-48494808D01*
X147069819Y-48242380D01*
X147077434Y-48231899D01*
X147266858Y-47997979D01*
X147275525Y-47988354D01*
X147488354Y-47775525D01*
X147497979Y-47766858D01*
X147731899Y-47577434D01*
X147742380Y-47569819D01*
X147994808Y-47405891D01*
X148006023Y-47399415D01*
X148274215Y-47262763D01*
X148286054Y-47257493D01*
X148567040Y-47149633D01*
X148579368Y-47145627D01*
X148870107Y-47067723D01*
X148882786Y-47065029D01*
X149180046Y-47017949D01*
X149192951Y-47016592D01*
X149496756Y-47000669D01*
X149503246Y-47000500D01*
X149565892Y-47000500D01*
X152870500Y-47000500D01*
X152937539Y-47020185D01*
G37*
%TD.AperFunction*%
%TA.AperFunction,Conductor*%
G36*
X158911513Y-49411957D02*
G01*
X158948130Y-49424771D01*
X158980804Y-49442038D01*
X159010164Y-49463706D01*
X159036298Y-49489841D01*
X159041854Y-49497369D01*
X159057957Y-49519189D01*
X159075223Y-49551858D01*
X159088039Y-49588478D01*
X159095000Y-49629439D01*
X159095000Y-51170559D01*
X159088041Y-51211515D01*
X159075228Y-51248131D01*
X159057958Y-51280807D01*
X159036296Y-51310159D01*
X159010156Y-51336299D01*
X158980810Y-51357956D01*
X158948138Y-51375224D01*
X158911516Y-51388040D01*
X158870557Y-51395000D01*
X157629441Y-51395000D01*
X157588486Y-51388041D01*
X157551861Y-51375225D01*
X157519188Y-51357956D01*
X157496181Y-51340977D01*
X157489839Y-51336296D01*
X157463704Y-51310162D01*
X157442036Y-51280802D01*
X157424770Y-51248131D01*
X157409618Y-51204830D01*
X157403198Y-51175429D01*
X157401093Y-51152944D01*
X157398982Y-51144624D01*
X157392087Y-51109305D01*
X157390838Y-51103374D01*
X157351326Y-51020893D01*
X157326264Y-50989333D01*
X157307878Y-50966180D01*
X157307868Y-50966169D01*
X157291065Y-50947481D01*
X157291066Y-50947481D01*
X157213235Y-50899459D01*
X157213226Y-50899455D01*
X157147107Y-50876924D01*
X157147093Y-50876920D01*
X157122853Y-50870283D01*
X157034596Y-50871903D01*
X157031414Y-50871962D01*
X157031411Y-50871962D01*
X157031408Y-50871963D01*
X156963614Y-50888751D01*
X156963596Y-50888756D01*
X156939252Y-50896392D01*
X156869394Y-50897673D01*
X156809933Y-50860982D01*
X156779748Y-50797969D01*
X156780524Y-50753887D01*
X156800500Y-50653465D01*
X156800500Y-50146535D01*
X156800311Y-50145586D01*
X156779785Y-50042390D01*
X156786012Y-49972798D01*
X156828875Y-49917621D01*
X156894765Y-49894377D01*
X156952915Y-49905405D01*
X156972485Y-49914343D01*
X156995949Y-49923368D01*
X156995950Y-49923368D01*
X156995953Y-49923369D01*
X157087096Y-49930822D01*
X157087098Y-49930822D01*
X157087098Y-49930821D01*
X157087100Y-49930822D01*
X157156258Y-49920878D01*
X157180873Y-49915786D01*
X157261585Y-49872776D01*
X157314389Y-49827021D01*
X157332343Y-49809430D01*
X157376990Y-49729613D01*
X157396675Y-49662574D01*
X157396676Y-49662566D01*
X157397617Y-49658246D01*
X157398631Y-49658466D01*
X157400384Y-49654628D01*
X157403199Y-49624567D01*
X157409615Y-49595177D01*
X157424773Y-49551859D01*
X157442037Y-49519196D01*
X157463707Y-49489833D01*
X157489834Y-49463706D01*
X157519194Y-49442037D01*
X157551868Y-49424770D01*
X157579850Y-49414978D01*
X157588483Y-49411958D01*
X157629435Y-49405000D01*
X158870561Y-49405000D01*
X158911513Y-49411957D01*
G37*
%TD.AperFunction*%
%TD*%
%TA.AperFunction,Conductor*%
%TO.N,+BATT*%
G36*
X165543039Y-47020185D02*
G01*
X165588794Y-47072989D01*
X165600000Y-47124500D01*
X165600000Y-52676000D01*
X165580315Y-52743039D01*
X165527511Y-52788794D01*
X165476000Y-52800000D01*
X153324000Y-52800000D01*
X153256961Y-52780315D01*
X153211206Y-52727511D01*
X153200000Y-52676000D01*
X153200000Y-50656246D01*
X154400000Y-50656246D01*
X154433242Y-50866127D01*
X154433242Y-50866130D01*
X154498904Y-51068217D01*
X154595379Y-51257557D01*
X154720272Y-51429459D01*
X154720276Y-51429464D01*
X154870535Y-51579723D01*
X154870540Y-51579727D01*
X155042442Y-51704620D01*
X155231782Y-51801095D01*
X155433871Y-51866757D01*
X155500000Y-51877231D01*
X155500000Y-50833012D01*
X155557007Y-50865925D01*
X155684174Y-50900000D01*
X155815826Y-50900000D01*
X155942993Y-50865925D01*
X156000000Y-50833012D01*
X156000000Y-51877230D01*
X156066126Y-51866757D01*
X156066129Y-51866757D01*
X156268217Y-51801095D01*
X156457557Y-51704620D01*
X156629459Y-51579727D01*
X156629464Y-51579723D01*
X156779723Y-51429464D01*
X156779727Y-51429459D01*
X156904620Y-51257557D01*
X156965015Y-51139028D01*
X157012990Y-51088232D01*
X157080811Y-51071437D01*
X157146946Y-51093974D01*
X157190397Y-51148690D01*
X157199500Y-51195323D01*
X157199500Y-51204269D01*
X157202353Y-51234699D01*
X157202353Y-51234701D01*
X157247206Y-51362880D01*
X157247207Y-51362882D01*
X157327850Y-51472150D01*
X157437118Y-51552793D01*
X157479845Y-51567744D01*
X157565299Y-51597646D01*
X157595730Y-51600500D01*
X157595734Y-51600500D01*
X158904270Y-51600500D01*
X158934699Y-51597646D01*
X158934701Y-51597646D01*
X158998790Y-51575219D01*
X159062882Y-51552793D01*
X159172150Y-51472150D01*
X159252793Y-51362882D01*
X159289648Y-51257557D01*
X159297646Y-51234701D01*
X159297646Y-51234699D01*
X159300500Y-51204269D01*
X159300500Y-50000001D01*
X160994891Y-50000001D01*
X161015300Y-50285362D01*
X161076109Y-50564895D01*
X161176091Y-50832958D01*
X161313191Y-51084038D01*
X161313196Y-51084046D01*
X161419882Y-51226561D01*
X161419883Y-51226562D01*
X162191497Y-50454947D01*
X162281505Y-50589653D01*
X162410347Y-50718495D01*
X162545050Y-50808501D01*
X161773436Y-51580115D01*
X161915960Y-51686807D01*
X161915961Y-51686808D01*
X162167042Y-51823908D01*
X162167041Y-51823908D01*
X162435104Y-51923890D01*
X162714637Y-51984699D01*
X162999999Y-52005109D01*
X163000001Y-52005109D01*
X163285362Y-51984699D01*
X163564895Y-51923890D01*
X163832958Y-51823908D01*
X164084047Y-51686803D01*
X164226561Y-51580116D01*
X164226562Y-51580115D01*
X163454949Y-50808501D01*
X163589653Y-50718495D01*
X163718495Y-50589653D01*
X163808501Y-50454948D01*
X164580115Y-51226562D01*
X164580116Y-51226561D01*
X164686803Y-51084047D01*
X164823908Y-50832958D01*
X164923890Y-50564895D01*
X164984699Y-50285362D01*
X165005109Y-50000001D01*
X165005109Y-49999998D01*
X164984699Y-49714637D01*
X164923890Y-49435104D01*
X164823908Y-49167041D01*
X164686808Y-48915961D01*
X164686807Y-48915960D01*
X164580115Y-48773436D01*
X163808501Y-49545050D01*
X163718495Y-49410347D01*
X163589653Y-49281505D01*
X163454948Y-49191497D01*
X164226562Y-48419883D01*
X164226561Y-48419882D01*
X164084046Y-48313196D01*
X164084038Y-48313191D01*
X163832957Y-48176091D01*
X163832958Y-48176091D01*
X163564895Y-48076109D01*
X163285362Y-48015300D01*
X163000001Y-47994891D01*
X162999999Y-47994891D01*
X162714637Y-48015300D01*
X162435104Y-48076109D01*
X162167041Y-48176091D01*
X161915961Y-48313191D01*
X161915953Y-48313196D01*
X161773437Y-48419882D01*
X161773436Y-48419883D01*
X162545051Y-49191498D01*
X162410347Y-49281505D01*
X162281505Y-49410347D01*
X162191498Y-49545051D01*
X161419883Y-48773436D01*
X161419882Y-48773437D01*
X161313196Y-48915953D01*
X161313191Y-48915961D01*
X161176091Y-49167041D01*
X161076109Y-49435104D01*
X161015300Y-49714637D01*
X160994891Y-49999998D01*
X160994891Y-50000001D01*
X159300500Y-50000001D01*
X159300500Y-49595730D01*
X159297646Y-49565300D01*
X159297646Y-49565298D01*
X159252793Y-49437119D01*
X159252792Y-49437117D01*
X159172150Y-49327850D01*
X159062882Y-49247207D01*
X159062880Y-49247206D01*
X158934700Y-49202353D01*
X158904270Y-49199500D01*
X158904266Y-49199500D01*
X157595734Y-49199500D01*
X157595730Y-49199500D01*
X157565300Y-49202353D01*
X157565298Y-49202353D01*
X157437119Y-49247206D01*
X157437117Y-49247207D01*
X157327850Y-49327850D01*
X157247207Y-49437117D01*
X157247206Y-49437119D01*
X157202353Y-49565298D01*
X157202353Y-49565300D01*
X157199500Y-49595730D01*
X157199500Y-49604676D01*
X157179815Y-49671715D01*
X157127011Y-49717470D01*
X157057853Y-49727414D01*
X156994297Y-49698389D01*
X156965015Y-49660971D01*
X156904620Y-49542442D01*
X156779727Y-49370540D01*
X156779723Y-49370535D01*
X156629464Y-49220276D01*
X156629459Y-49220272D01*
X156457557Y-49095379D01*
X156268215Y-48998903D01*
X156066124Y-48933241D01*
X156000000Y-48922768D01*
X156000000Y-49966988D01*
X155942993Y-49934075D01*
X155815826Y-49900000D01*
X155684174Y-49900000D01*
X155557007Y-49934075D01*
X155500000Y-49966988D01*
X155500000Y-48922768D01*
X155499999Y-48922768D01*
X155433875Y-48933241D01*
X155231784Y-48998903D01*
X155042442Y-49095379D01*
X154870540Y-49220272D01*
X154870535Y-49220276D01*
X154720276Y-49370535D01*
X154720272Y-49370540D01*
X154595379Y-49542442D01*
X154498904Y-49731782D01*
X154433242Y-49933869D01*
X154433242Y-49933872D01*
X154400000Y-50143753D01*
X154400000Y-50150000D01*
X155316988Y-50150000D01*
X155284075Y-50207007D01*
X155250000Y-50334174D01*
X155250000Y-50465826D01*
X155284075Y-50592993D01*
X155316988Y-50650000D01*
X154400000Y-50650000D01*
X154400000Y-50656246D01*
X153200000Y-50656246D01*
X153200000Y-47124500D01*
X153219685Y-47057461D01*
X153272489Y-47011706D01*
X153324000Y-47000500D01*
X165476000Y-47000500D01*
X165543039Y-47020185D01*
G37*
%TD.AperFunction*%
%TD*%
M02*
