%TF.GenerationSoftware,KiCad,Pcbnew,8.0.1-8.0.1-1~ubuntu22.04.1*%
%TF.CreationDate,2024-04-04T08:17:27+02:00*%
%TF.ProjectId,Ingenuity,496e6765-6e75-4697-9479-2e6b69636164,rev?*%
%TF.SameCoordinates,Original*%
%TF.FileFunction,Soldermask,Top*%
%TF.FilePolarity,Negative*%
%FSLAX46Y46*%
G04 Gerber Fmt 4.6, Leading zero omitted, Abs format (unit mm)*
G04 Created by KiCad (PCBNEW 8.0.1-8.0.1-1~ubuntu22.04.1) date 2024-04-04 08:17:27*
%MOMM*%
%LPD*%
G01*
G04 APERTURE LIST*
G04 Aperture macros list*
%AMRoundRect*
0 Rectangle with rounded corners*
0 $1 Rounding radius*
0 $2 $3 $4 $5 $6 $7 $8 $9 X,Y pos of 4 corners*
0 Add a 4 corners polygon primitive as box body*
4,1,4,$2,$3,$4,$5,$6,$7,$8,$9,$2,$3,0*
0 Add four circle primitives for the rounded corners*
1,1,$1+$1,$2,$3*
1,1,$1+$1,$4,$5*
1,1,$1+$1,$6,$7*
1,1,$1+$1,$8,$9*
0 Add four rect primitives between the rounded corners*
20,1,$1+$1,$2,$3,$4,$5,0*
20,1,$1+$1,$4,$5,$6,$7,0*
20,1,$1+$1,$6,$7,$8,$9,0*
20,1,$1+$1,$8,$9,$2,$3,0*%
G04 Aperture macros list end*
%ADD10RoundRect,0.250000X0.600000X0.725000X-0.600000X0.725000X-0.600000X-0.725000X0.600000X-0.725000X0*%
%ADD11O,1.700000X1.950000*%
%ADD12RoundRect,0.140000X0.170000X-0.140000X0.170000X0.140000X-0.170000X0.140000X-0.170000X-0.140000X0*%
%ADD13RoundRect,0.135000X-0.135000X-0.185000X0.135000X-0.185000X0.135000X0.185000X-0.135000X0.185000X0*%
%ADD14RoundRect,0.250000X0.600000X0.750000X-0.600000X0.750000X-0.600000X-0.750000X0.600000X-0.750000X0*%
%ADD15O,1.700000X2.000000*%
%ADD16RoundRect,0.087500X-0.225000X-0.087500X0.225000X-0.087500X0.225000X0.087500X-0.225000X0.087500X0*%
%ADD17RoundRect,0.087500X-0.087500X-0.225000X0.087500X-0.225000X0.087500X0.225000X-0.087500X0.225000X0*%
%ADD18RoundRect,0.218750X-0.218750X-0.256250X0.218750X-0.256250X0.218750X0.256250X-0.218750X0.256250X0*%
%ADD19RoundRect,0.135000X0.185000X-0.135000X0.185000X0.135000X-0.185000X0.135000X-0.185000X-0.135000X0*%
%ADD20C,4.700000*%
%ADD21RoundRect,0.135000X-0.185000X0.135000X-0.185000X-0.135000X0.185000X-0.135000X0.185000X0.135000X0*%
%ADD22R,1.550000X1.300000*%
%ADD23RoundRect,0.135000X0.135000X0.185000X-0.135000X0.185000X-0.135000X-0.185000X0.135000X-0.185000X0*%
%ADD24C,3.000000*%
%ADD25RoundRect,0.225000X0.250000X-0.225000X0.250000X0.225000X-0.250000X0.225000X-0.250000X-0.225000X0*%
%ADD26RoundRect,0.150000X0.150000X-0.587500X0.150000X0.587500X-0.150000X0.587500X-0.150000X-0.587500X0*%
%ADD27RoundRect,0.140000X-0.170000X0.140000X-0.170000X-0.140000X0.170000X-0.140000X0.170000X0.140000X0*%
%ADD28RoundRect,0.250000X-0.750000X0.600000X-0.750000X-0.600000X0.750000X-0.600000X0.750000X0.600000X0*%
%ADD29O,2.000000X1.700000*%
%ADD30R,1.700000X1.700000*%
%ADD31O,1.700000X1.700000*%
%ADD32C,2.000000*%
%ADD33RoundRect,0.218750X-0.256250X0.218750X-0.256250X-0.218750X0.256250X-0.218750X0.256250X0.218750X0*%
%ADD34RoundRect,0.225000X-0.225000X-0.250000X0.225000X-0.250000X0.225000X0.250000X-0.225000X0.250000X0*%
%ADD35RoundRect,0.250000X0.725000X-0.600000X0.725000X0.600000X-0.725000X0.600000X-0.725000X-0.600000X0*%
%ADD36O,1.950000X1.700000*%
%ADD37RoundRect,0.140000X0.140000X0.170000X-0.140000X0.170000X-0.140000X-0.170000X0.140000X-0.170000X0*%
%ADD38R,2.400000X0.740000*%
%ADD39RoundRect,0.375000X-0.625000X-0.375000X0.625000X-0.375000X0.625000X0.375000X-0.625000X0.375000X0*%
%ADD40RoundRect,0.500000X-0.500000X-1.400000X0.500000X-1.400000X0.500000X1.400000X-0.500000X1.400000X0*%
%ADD41RoundRect,0.125000X-0.625000X-0.125000X0.625000X-0.125000X0.625000X0.125000X-0.625000X0.125000X0*%
%ADD42RoundRect,0.125000X-0.125000X-0.625000X0.125000X-0.625000X0.125000X0.625000X-0.125000X0.625000X0*%
%ADD43RoundRect,0.225000X-0.250000X0.225000X-0.250000X-0.225000X0.250000X-0.225000X0.250000X0.225000X0*%
G04 APERTURE END LIST*
D10*
%TO.C,J4*%
X201600000Y-50400000D03*
D11*
X199100000Y-50400000D03*
X196600000Y-50400000D03*
%TD*%
D12*
%TO.C,C9*%
X190350000Y-68230000D03*
X190350000Y-67270000D03*
%TD*%
D13*
%TO.C,R3*%
X170890000Y-66900000D03*
X171910000Y-66900000D03*
%TD*%
D14*
%TO.C,J1*%
X158250000Y-50400000D03*
D15*
X155750000Y-50400000D03*
%TD*%
D16*
%TO.C,U4*%
X186925000Y-66850000D03*
X186925000Y-67350000D03*
X186925000Y-67850000D03*
X186925000Y-68350000D03*
D17*
X187587500Y-68512500D03*
X188087500Y-68512500D03*
X188587500Y-68512500D03*
D16*
X189250000Y-68350000D03*
X189250000Y-67850000D03*
X189250000Y-67350000D03*
X189250000Y-66850000D03*
D17*
X188587500Y-66687500D03*
X188087500Y-66687500D03*
X187587500Y-66687500D03*
%TD*%
D18*
%TO.C,D2*%
X170612500Y-65600000D03*
X172187500Y-65600000D03*
%TD*%
D19*
%TO.C,R6*%
X192910000Y-51220000D03*
X192910000Y-50200000D03*
%TD*%
D12*
%TO.C,C2*%
X180900000Y-56080000D03*
X180900000Y-55120000D03*
%TD*%
D20*
%TO.C,H3*%
X149500000Y-73000000D03*
%TD*%
D21*
%TO.C,R9*%
X156700000Y-66190000D03*
X156700000Y-67210000D03*
%TD*%
D22*
%TO.C,SW2*%
X202775000Y-58950000D03*
X194825000Y-58950000D03*
X202775000Y-54450000D03*
X194825000Y-54450000D03*
%TD*%
D23*
%TO.C,R1*%
X172410000Y-53900000D03*
X171390000Y-53900000D03*
%TD*%
D19*
%TO.C,R2*%
X187700000Y-51200000D03*
X187700000Y-50180000D03*
%TD*%
D12*
%TO.C,C6*%
X181900000Y-56080000D03*
X181900000Y-55120000D03*
%TD*%
D19*
%TO.C,R8*%
X182900000Y-56100000D03*
X182900000Y-55080000D03*
%TD*%
D24*
%TO.C,SW1*%
X172400000Y-50000000D03*
X167700000Y-50000000D03*
X163000000Y-50000000D03*
%TD*%
D25*
%TO.C,C7*%
X168300000Y-63575000D03*
X168300000Y-62025000D03*
%TD*%
D26*
%TO.C,Q1*%
X153550000Y-67200000D03*
X155450000Y-67200000D03*
X154500000Y-65325000D03*
%TD*%
D19*
%TO.C,R4*%
X190300000Y-51200000D03*
X190300000Y-50180000D03*
%TD*%
D27*
%TO.C,C3*%
X192900000Y-63100000D03*
X192900000Y-64060000D03*
%TD*%
D28*
%TO.C,J6*%
X149900000Y-64700000D03*
D29*
X149900000Y-67200000D03*
%TD*%
D30*
%TO.C,J3*%
X154340000Y-74500000D03*
D31*
X154340000Y-71960000D03*
X156880000Y-74500000D03*
X156880000Y-71960000D03*
X159420000Y-74500000D03*
X159420000Y-71960000D03*
X161960000Y-74500000D03*
X161960000Y-71960000D03*
X164500000Y-74500000D03*
X164500000Y-71960000D03*
X167040000Y-74500000D03*
X167040000Y-71960000D03*
X169580000Y-74500000D03*
X169580000Y-71960000D03*
X172120000Y-74500000D03*
X172120000Y-71960000D03*
X174660000Y-74500000D03*
X174660000Y-71960000D03*
X177200000Y-74500000D03*
X177200000Y-71960000D03*
X179740000Y-74500000D03*
X179740000Y-71960000D03*
X182280000Y-74500000D03*
X182280000Y-71960000D03*
X184820000Y-74500000D03*
X184820000Y-71960000D03*
X187360000Y-74500000D03*
X187360000Y-71960000D03*
X189900000Y-74500000D03*
X189900000Y-71960000D03*
X192440000Y-74500000D03*
X192440000Y-71960000D03*
X194980000Y-74500000D03*
X194980000Y-71960000D03*
X197520000Y-74500000D03*
X197520000Y-71960000D03*
X200060000Y-74500000D03*
X200060000Y-71960000D03*
X202600000Y-74500000D03*
X202600000Y-71960000D03*
%TD*%
D32*
%TO.C,U1*%
X177460000Y-52125000D03*
X180000000Y-52125000D03*
X182540000Y-52125000D03*
%TD*%
D33*
%TO.C,D5*%
X192900000Y-47412500D03*
X192900000Y-48987500D03*
%TD*%
D26*
%TO.C,Q2*%
X153550000Y-58500000D03*
X155450000Y-58500000D03*
X154500000Y-56625000D03*
%TD*%
D34*
%TO.C,C1*%
X177725000Y-55100000D03*
X179275000Y-55100000D03*
%TD*%
D13*
%TO.C,R5*%
X174380000Y-66900000D03*
X175400000Y-66900000D03*
%TD*%
D35*
%TO.C,J5*%
X207200000Y-63300000D03*
D36*
X207200000Y-60800000D03*
X207200000Y-58300000D03*
%TD*%
D18*
%TO.C,D6*%
X177512500Y-65600000D03*
X179087500Y-65600000D03*
%TD*%
D20*
%TO.C,H2*%
X207500000Y-50000000D03*
%TD*%
D33*
%TO.C,D1*%
X187700000Y-47412500D03*
X187700000Y-48987500D03*
%TD*%
D13*
%TO.C,R7*%
X177790000Y-66900000D03*
X178810000Y-66900000D03*
%TD*%
D28*
%TO.C,J7*%
X149900000Y-56000000D03*
D29*
X149900000Y-58500000D03*
%TD*%
D33*
%TO.C,D3*%
X190300000Y-47412500D03*
X190300000Y-48987500D03*
%TD*%
D30*
%TO.C,J2*%
X163160000Y-56860000D03*
D31*
X165700000Y-56860000D03*
X163160000Y-59400000D03*
X165700000Y-59400000D03*
X163160000Y-61940000D03*
X165700000Y-61940000D03*
X163160000Y-64480000D03*
X165700000Y-64480000D03*
X163160000Y-67020000D03*
X165700000Y-67020000D03*
%TD*%
D37*
%TO.C,C5*%
X181580000Y-60300000D03*
X180620000Y-60300000D03*
%TD*%
D38*
%TO.C,J8*%
X199950000Y-68810000D03*
X196050000Y-68810000D03*
X199950000Y-67540000D03*
X196050000Y-67540000D03*
X199950000Y-66270000D03*
X196050000Y-66270000D03*
X199950000Y-65000000D03*
X196050000Y-65000000D03*
X199950000Y-63730000D03*
X196050000Y-63730000D03*
X199950000Y-62460000D03*
X196050000Y-62460000D03*
X199950000Y-61190000D03*
X196050000Y-61190000D03*
%TD*%
D39*
%TO.C,U3*%
X170400000Y-57300000D03*
X170400000Y-59600000D03*
D40*
X176700000Y-59600000D03*
D39*
X170400000Y-61900000D03*
%TD*%
D41*
%TO.C,U2*%
X183025000Y-57100000D03*
X183025000Y-57900000D03*
X183025000Y-58700000D03*
X183025000Y-59500000D03*
X183025000Y-60300000D03*
X183025000Y-61100000D03*
X183025000Y-61900000D03*
X183025000Y-62700000D03*
D42*
X184400000Y-64075000D03*
X185200000Y-64075000D03*
X186000000Y-64075000D03*
X186800000Y-64075000D03*
X187600000Y-64075000D03*
X188400000Y-64075000D03*
X189200000Y-64075000D03*
X190000000Y-64075000D03*
D41*
X191375000Y-62700000D03*
X191375000Y-61900000D03*
X191375000Y-61100000D03*
X191375000Y-60300000D03*
X191375000Y-59500000D03*
X191375000Y-58700000D03*
X191375000Y-57900000D03*
X191375000Y-57100000D03*
D42*
X190000000Y-55725000D03*
X189200000Y-55725000D03*
X188400000Y-55725000D03*
X187600000Y-55725000D03*
X186800000Y-55725000D03*
X186000000Y-55725000D03*
X185200000Y-55725000D03*
X184400000Y-55725000D03*
%TD*%
D21*
%TO.C,R10*%
X156700000Y-57490000D03*
X156700000Y-58510000D03*
%TD*%
D20*
%TO.C,H4*%
X207500000Y-73000000D03*
%TD*%
D43*
%TO.C,C8*%
X178700000Y-58625000D03*
X178700000Y-60175000D03*
%TD*%
D20*
%TO.C,H1*%
X149500000Y-50000000D03*
%TD*%
D37*
%TO.C,C4*%
X181580000Y-59300000D03*
X180620000Y-59300000D03*
%TD*%
D18*
%TO.C,D4*%
X174112500Y-65600000D03*
X175687500Y-65600000D03*
%TD*%
M02*
