%TF.GenerationSoftware,KiCad,Pcbnew,8.0.1-8.0.1-1~ubuntu22.04.1*%
%TF.CreationDate,2024-04-04T08:17:27+02:00*%
%TF.ProjectId,Ingenuity,496e6765-6e75-4697-9479-2e6b69636164,rev?*%
%TF.SameCoordinates,Original*%
%TF.FileFunction,Legend,Top*%
%TF.FilePolarity,Positive*%
%FSLAX46Y46*%
G04 Gerber Fmt 4.6, Leading zero omitted, Abs format (unit mm)*
G04 Created by KiCad (PCBNEW 8.0.1-8.0.1-1~ubuntu22.04.1) date 2024-04-04 08:17:27*
%MOMM*%
%LPD*%
G01*
G04 APERTURE LIST*
%ADD10C,0.200000*%
%ADD11C,0.250000*%
%ADD12C,0.300000*%
%ADD13C,0.150000*%
%ADD14C,0.100000*%
%ADD15C,0.120000*%
G04 APERTURE END LIST*
D10*
G36*
X206572989Y-67006424D02*
G01*
X206591814Y-67042682D01*
X206317556Y-67098620D01*
X206317345Y-67054721D01*
X206339919Y-67007799D01*
X206383143Y-66985357D01*
X206526473Y-66984046D01*
X206572989Y-67006424D01*
G37*
G36*
X208824310Y-67012786D02*
G01*
X208850087Y-67037448D01*
X208881084Y-67097148D01*
X208882585Y-67335569D01*
X208853717Y-67395576D01*
X208829055Y-67421354D01*
X208769123Y-67452471D01*
X208673277Y-67453605D01*
X208613782Y-67424983D01*
X208588008Y-67400324D01*
X208557010Y-67340620D01*
X208555509Y-67102200D01*
X208584377Y-67042193D01*
X208609039Y-67016416D01*
X208668970Y-66985299D01*
X208764817Y-66984165D01*
X208824310Y-67012786D01*
G37*
G36*
X210144444Y-67763330D02*
G01*
X205055555Y-67763330D01*
X205055555Y-66742695D01*
X205166666Y-66742695D01*
X205168022Y-66823712D01*
X205167451Y-66825426D01*
X205168235Y-66836470D01*
X205168587Y-66857442D01*
X205169962Y-66860762D01*
X205170217Y-66864346D01*
X205177223Y-66882654D01*
X205226563Y-66977683D01*
X205231138Y-66988728D01*
X205234294Y-66992574D01*
X205235285Y-66994482D01*
X205237279Y-66996211D01*
X205243574Y-67003882D01*
X205293676Y-67051815D01*
X205300592Y-67059790D01*
X205304741Y-67062401D01*
X205306346Y-67063937D01*
X205308786Y-67064947D01*
X205317183Y-67070233D01*
X205407454Y-67113661D01*
X205414428Y-67118828D01*
X205429062Y-67124056D01*
X205430729Y-67124858D01*
X205431449Y-67124909D01*
X205432888Y-67125423D01*
X205606431Y-67167171D01*
X205681452Y-67203262D01*
X205707229Y-67227924D01*
X205738454Y-67288063D01*
X205739266Y-67336528D01*
X205710859Y-67395576D01*
X205686197Y-67421354D01*
X205626448Y-67452376D01*
X205430202Y-67453840D01*
X205279173Y-67405385D01*
X205240253Y-67408151D01*
X205205354Y-67425601D01*
X205179789Y-67455077D01*
X205167451Y-67492093D01*
X205170217Y-67531013D01*
X205187667Y-67565912D01*
X205217143Y-67591477D01*
X205235043Y-67599468D01*
X205378127Y-67645374D01*
X205390014Y-67650298D01*
X205395006Y-67650789D01*
X205397015Y-67651434D01*
X205399649Y-67651246D01*
X205409523Y-67652219D01*
X205632478Y-67650556D01*
X205635111Y-67651434D01*
X205649216Y-67650431D01*
X205667127Y-67650298D01*
X205670447Y-67648922D01*
X205674031Y-67648668D01*
X205692339Y-67641662D01*
X205787367Y-67592322D01*
X205798414Y-67587747D01*
X205802260Y-67584589D01*
X205804167Y-67583600D01*
X205805897Y-67581605D01*
X205813567Y-67575310D01*
X205861500Y-67525207D01*
X205869475Y-67518292D01*
X205872086Y-67514142D01*
X205873623Y-67512537D01*
X205874634Y-67510095D01*
X205879918Y-67501701D01*
X205919856Y-67418683D01*
X205921241Y-67417299D01*
X205925693Y-67406549D01*
X205934543Y-67388155D01*
X205934797Y-67384571D01*
X205936173Y-67381251D01*
X205938094Y-67361742D01*
X205936737Y-67280724D01*
X205937309Y-67279011D01*
X205936524Y-67267966D01*
X205936173Y-67246995D01*
X205934797Y-67243674D01*
X205934543Y-67240091D01*
X205927537Y-67221782D01*
X205926087Y-67218990D01*
X206119047Y-67218990D01*
X206119983Y-67223673D01*
X206120800Y-67393947D01*
X206119832Y-67396853D01*
X206120885Y-67411677D01*
X206120968Y-67428870D01*
X206122343Y-67432190D01*
X206122598Y-67435773D01*
X206129604Y-67454082D01*
X206176641Y-67544677D01*
X206179790Y-67554123D01*
X206184164Y-67559167D01*
X206187666Y-67565911D01*
X206197137Y-67574125D01*
X206205354Y-67583600D01*
X206215224Y-67589812D01*
X206217142Y-67591476D01*
X206218682Y-67591989D01*
X206221945Y-67594043D01*
X206304962Y-67633981D01*
X206306347Y-67635366D01*
X206317096Y-67639818D01*
X206335491Y-67648668D01*
X206339074Y-67648922D01*
X206342395Y-67650298D01*
X206361904Y-67652219D01*
X206537411Y-67650613D01*
X206539873Y-67651434D01*
X206553488Y-67650466D01*
X206571889Y-67650298D01*
X206575209Y-67648922D01*
X206578793Y-67648668D01*
X206597101Y-67641662D01*
X206708929Y-67583600D01*
X206734494Y-67554123D01*
X206746832Y-67517107D01*
X206744067Y-67478187D01*
X206726618Y-67443289D01*
X206697141Y-67417724D01*
X206660125Y-67405385D01*
X206621205Y-67408151D01*
X206602896Y-67415157D01*
X206531139Y-67452413D01*
X206387810Y-67453724D01*
X206341295Y-67431346D01*
X206318945Y-67388302D01*
X206318525Y-67300653D01*
X206705503Y-67221726D01*
X206714746Y-67221726D01*
X206723711Y-67218012D01*
X206733602Y-67215995D01*
X206741742Y-67210543D01*
X206750794Y-67206794D01*
X206757795Y-67199792D01*
X206766021Y-67194284D01*
X206771455Y-67186132D01*
X206778384Y-67179204D01*
X206782173Y-67170056D01*
X206787665Y-67161819D01*
X206789566Y-67152208D01*
X206793316Y-67143156D01*
X206795237Y-67123647D01*
X206795235Y-67123550D01*
X206795237Y-67123542D01*
X206795235Y-67123532D01*
X206793880Y-67042629D01*
X206794452Y-67040916D01*
X206793667Y-67029871D01*
X206793316Y-67008900D01*
X206791940Y-67005579D01*
X206791686Y-67001996D01*
X206784680Y-66983687D01*
X206737640Y-66893089D01*
X206735128Y-66885552D01*
X207023809Y-66885552D01*
X207025730Y-67571728D01*
X207040662Y-67607776D01*
X207068252Y-67635366D01*
X207104300Y-67650298D01*
X207143318Y-67650298D01*
X207179366Y-67635366D01*
X207206956Y-67607776D01*
X207221888Y-67571728D01*
X207223809Y-67552219D01*
X207222546Y-67101428D01*
X207251043Y-67042193D01*
X207275705Y-67016416D01*
X207335844Y-66985191D01*
X207429032Y-66983631D01*
X207465080Y-66968699D01*
X207492670Y-66941109D01*
X207507602Y-66905061D01*
X207507602Y-66900167D01*
X207548692Y-66900167D01*
X207553445Y-66919186D01*
X207788491Y-67571870D01*
X207788725Y-67576574D01*
X207794814Y-67589429D01*
X207799910Y-67603579D01*
X207803280Y-67607301D01*
X207805428Y-67611836D01*
X207816279Y-67621659D01*
X207826097Y-67632504D01*
X207830629Y-67634651D01*
X207834354Y-67638023D01*
X207848144Y-67642947D01*
X207861359Y-67649208D01*
X207866369Y-67649457D01*
X207871099Y-67651146D01*
X207885720Y-67650418D01*
X207900329Y-67651145D01*
X207905054Y-67649457D01*
X207910069Y-67649208D01*
X207923295Y-67642942D01*
X207937074Y-67638022D01*
X207940794Y-67634653D01*
X207945331Y-67632505D01*
X207955153Y-67621654D01*
X207966000Y-67611836D01*
X207968147Y-67607301D01*
X207971518Y-67603579D01*
X207979888Y-67585853D01*
X208160452Y-67076028D01*
X208357143Y-67076028D01*
X208358845Y-67346483D01*
X208357928Y-67349235D01*
X208358953Y-67363661D01*
X208359064Y-67381251D01*
X208360439Y-67384571D01*
X208360694Y-67388155D01*
X208367700Y-67406463D01*
X208417037Y-67501487D01*
X208421614Y-67512537D01*
X208424772Y-67516385D01*
X208425762Y-67518291D01*
X208427756Y-67520020D01*
X208434051Y-67527690D01*
X208484151Y-67575623D01*
X208491069Y-67583600D01*
X208495218Y-67586211D01*
X208496823Y-67587747D01*
X208499263Y-67588757D01*
X208507660Y-67594043D01*
X208590677Y-67633981D01*
X208592062Y-67635366D01*
X208602811Y-67639818D01*
X208621206Y-67648668D01*
X208624789Y-67648922D01*
X208628110Y-67650298D01*
X208647619Y-67652219D01*
X208775775Y-67650702D01*
X208777969Y-67651434D01*
X208790751Y-67650525D01*
X208809985Y-67650298D01*
X208813305Y-67648922D01*
X208816889Y-67648668D01*
X208835197Y-67641662D01*
X208930225Y-67592322D01*
X208941272Y-67587747D01*
X208945118Y-67584589D01*
X208947025Y-67583600D01*
X208948755Y-67581605D01*
X208956425Y-67575310D01*
X208959852Y-67571728D01*
X209216207Y-67571728D01*
X209231139Y-67607776D01*
X209258729Y-67635366D01*
X209294777Y-67650298D01*
X209314286Y-67652219D01*
X209952842Y-67650298D01*
X209988890Y-67635366D01*
X210016480Y-67607776D01*
X210031412Y-67571728D01*
X210031412Y-67532710D01*
X210016480Y-67496662D01*
X209988890Y-67469072D01*
X209952842Y-67454140D01*
X209933333Y-67452219D01*
X209553780Y-67453360D01*
X209944043Y-67061280D01*
X209947026Y-67059789D01*
X209957174Y-67048087D01*
X209968861Y-67036347D01*
X209970235Y-67033028D01*
X209972591Y-67030313D01*
X209980582Y-67012413D01*
X210026488Y-66869328D01*
X210031412Y-66857442D01*
X210031903Y-66852449D01*
X210032548Y-66850441D01*
X210032360Y-66847806D01*
X210033333Y-66837933D01*
X210031976Y-66756915D01*
X210032548Y-66755202D01*
X210031763Y-66744157D01*
X210031412Y-66723186D01*
X210030036Y-66719865D01*
X210029782Y-66716282D01*
X210022776Y-66697973D01*
X209973433Y-66602939D01*
X209968861Y-66591899D01*
X209965705Y-66588053D01*
X209964714Y-66586145D01*
X209962716Y-66584412D01*
X209956424Y-66576746D01*
X209906323Y-66528814D01*
X209899406Y-66520838D01*
X209895256Y-66518225D01*
X209893652Y-66516691D01*
X209891212Y-66515680D01*
X209882816Y-66510395D01*
X209799798Y-66470456D01*
X209798414Y-66469072D01*
X209787664Y-66464619D01*
X209769270Y-66455770D01*
X209765686Y-66455515D01*
X209762366Y-66454140D01*
X209742857Y-66452219D01*
X209519901Y-66453881D01*
X209517269Y-66453004D01*
X209503163Y-66454006D01*
X209485253Y-66454140D01*
X209481932Y-66455515D01*
X209478349Y-66455770D01*
X209460040Y-66462776D01*
X209365006Y-66512118D01*
X209353966Y-66516691D01*
X209350120Y-66519846D01*
X209348212Y-66520838D01*
X209346479Y-66522835D01*
X209338813Y-66529128D01*
X209278758Y-66591900D01*
X209263826Y-66627948D01*
X209263826Y-66666966D01*
X209278758Y-66703014D01*
X209306348Y-66730604D01*
X209342396Y-66745536D01*
X209381414Y-66745536D01*
X209417462Y-66730604D01*
X209432616Y-66718168D01*
X209466182Y-66683083D01*
X209525930Y-66652061D01*
X209716793Y-66650637D01*
X209776691Y-66679453D01*
X209802468Y-66704115D01*
X209833693Y-66764254D01*
X209834599Y-66818358D01*
X209800497Y-66924652D01*
X209231139Y-67496662D01*
X209216207Y-67532710D01*
X209216207Y-67571728D01*
X208959852Y-67571728D01*
X209004358Y-67525207D01*
X209012333Y-67518292D01*
X209014944Y-67514142D01*
X209016481Y-67512537D01*
X209017492Y-67510095D01*
X209022776Y-67501701D01*
X209062714Y-67418683D01*
X209064099Y-67417299D01*
X209068551Y-67406549D01*
X209077401Y-67388155D01*
X209077655Y-67384571D01*
X209079031Y-67381251D01*
X209080952Y-67361742D01*
X209079249Y-67091286D01*
X209080167Y-67088535D01*
X209079141Y-67074108D01*
X209079031Y-67056519D01*
X209077655Y-67053198D01*
X209077401Y-67049615D01*
X209070395Y-67031306D01*
X209021052Y-66936272D01*
X209016480Y-66925232D01*
X209013324Y-66921386D01*
X209012333Y-66919478D01*
X209010335Y-66917745D01*
X209004043Y-66910079D01*
X208953942Y-66862147D01*
X208947025Y-66854171D01*
X208942875Y-66851558D01*
X208941271Y-66850024D01*
X208938831Y-66849013D01*
X208930435Y-66843728D01*
X208847417Y-66803789D01*
X208846033Y-66802405D01*
X208835283Y-66797952D01*
X208816889Y-66789103D01*
X208813305Y-66788848D01*
X208809985Y-66787473D01*
X208790476Y-66785552D01*
X208662319Y-66787068D01*
X208660126Y-66786337D01*
X208647343Y-66787245D01*
X208628110Y-66787473D01*
X208624789Y-66788848D01*
X208621206Y-66789103D01*
X208602897Y-66796109D01*
X208507863Y-66845451D01*
X208496823Y-66850024D01*
X208492977Y-66853179D01*
X208491069Y-66854171D01*
X208489336Y-66856168D01*
X208481670Y-66862461D01*
X208433738Y-66912561D01*
X208425762Y-66919479D01*
X208423149Y-66923628D01*
X208421615Y-66925233D01*
X208420604Y-66927672D01*
X208415319Y-66936069D01*
X208375380Y-67019086D01*
X208373996Y-67020471D01*
X208369544Y-67031219D01*
X208360694Y-67049615D01*
X208360439Y-67053198D01*
X208359064Y-67056519D01*
X208357143Y-67076028D01*
X208160452Y-67076028D01*
X208222736Y-66900167D01*
X208220798Y-66861197D01*
X208204095Y-66825935D01*
X208175169Y-66799749D01*
X208138424Y-66786626D01*
X208099454Y-66788563D01*
X208064192Y-66805267D01*
X208038005Y-66834192D01*
X208029635Y-66851919D01*
X207885928Y-67257675D01*
X207733423Y-66834192D01*
X207707236Y-66805266D01*
X207671974Y-66788563D01*
X207633004Y-66786625D01*
X207596259Y-66799748D01*
X207567333Y-66825935D01*
X207550630Y-66861197D01*
X207548692Y-66900167D01*
X207507602Y-66900167D01*
X207507602Y-66866043D01*
X207492670Y-66829995D01*
X207465080Y-66802405D01*
X207429032Y-66787473D01*
X207409523Y-66785552D01*
X207328505Y-66786908D01*
X207326792Y-66786337D01*
X207315747Y-66787121D01*
X207294776Y-66787473D01*
X207291455Y-66788848D01*
X207287872Y-66789103D01*
X207269563Y-66796109D01*
X207206047Y-66829086D01*
X207179366Y-66802405D01*
X207143318Y-66787473D01*
X207104300Y-66787473D01*
X207068252Y-66802405D01*
X207040662Y-66829995D01*
X207025730Y-66866043D01*
X207023809Y-66885552D01*
X206735128Y-66885552D01*
X206734494Y-66883648D01*
X206730121Y-66878605D01*
X206726618Y-66871859D01*
X206717142Y-66863641D01*
X206708929Y-66854171D01*
X206699057Y-66847957D01*
X206697141Y-66846295D01*
X206695602Y-66845781D01*
X206692339Y-66843728D01*
X206609321Y-66803789D01*
X206607937Y-66802405D01*
X206597187Y-66797952D01*
X206578793Y-66789103D01*
X206575209Y-66788848D01*
X206571889Y-66787473D01*
X206552380Y-66785552D01*
X206376872Y-66787157D01*
X206374411Y-66786337D01*
X206360795Y-66787304D01*
X206342395Y-66787473D01*
X206339074Y-66788848D01*
X206335491Y-66789103D01*
X206317182Y-66796109D01*
X206226584Y-66843148D01*
X206217143Y-66846295D01*
X206212100Y-66850667D01*
X206205354Y-66854171D01*
X206197136Y-66863646D01*
X206187666Y-66871860D01*
X206181452Y-66881731D01*
X206179790Y-66883648D01*
X206179276Y-66885186D01*
X206177223Y-66888450D01*
X206137284Y-66971467D01*
X206135900Y-66972852D01*
X206131447Y-66983601D01*
X206122598Y-67001996D01*
X206122343Y-67005579D01*
X206120968Y-67008900D01*
X206119047Y-67028409D01*
X206119939Y-67214478D01*
X206119047Y-67218990D01*
X205926087Y-67218990D01*
X205878194Y-67126748D01*
X205873622Y-67115708D01*
X205870466Y-67111862D01*
X205869475Y-67109954D01*
X205867477Y-67108221D01*
X205861185Y-67100555D01*
X205811084Y-67052623D01*
X205804167Y-67044647D01*
X205800017Y-67042034D01*
X205798413Y-67040500D01*
X205795973Y-67039489D01*
X205787577Y-67034204D01*
X205697305Y-66990775D01*
X205690332Y-66985609D01*
X205675699Y-66980381D01*
X205674031Y-66979579D01*
X205673308Y-66979527D01*
X205671871Y-66979014D01*
X205498328Y-66937265D01*
X205423305Y-66901173D01*
X205397532Y-66876515D01*
X205366305Y-66816372D01*
X205365493Y-66767908D01*
X205393900Y-66708860D01*
X205418562Y-66683083D01*
X205478310Y-66652061D01*
X205674556Y-66650597D01*
X205825586Y-66699053D01*
X205864506Y-66696287D01*
X205899405Y-66678837D01*
X205924970Y-66649361D01*
X205937309Y-66612345D01*
X205934542Y-66573425D01*
X205917093Y-66538526D01*
X205887617Y-66512961D01*
X205869716Y-66504970D01*
X205726636Y-66459065D01*
X205714746Y-66454140D01*
X205709752Y-66453648D01*
X205707744Y-66453004D01*
X205705110Y-66453191D01*
X205695237Y-66452219D01*
X205472281Y-66453881D01*
X205469649Y-66453004D01*
X205455543Y-66454006D01*
X205437633Y-66454140D01*
X205434312Y-66455515D01*
X205430729Y-66455770D01*
X205412420Y-66462776D01*
X205317386Y-66512118D01*
X205306346Y-66516691D01*
X205302500Y-66519846D01*
X205300592Y-66520838D01*
X205298859Y-66522835D01*
X205291193Y-66529128D01*
X205243261Y-66579228D01*
X205235285Y-66586146D01*
X205232672Y-66590295D01*
X205231138Y-66591900D01*
X205230127Y-66594339D01*
X205224842Y-66602736D01*
X205184903Y-66685753D01*
X205183519Y-66687138D01*
X205179066Y-66697887D01*
X205170217Y-66716282D01*
X205169962Y-66719865D01*
X205168587Y-66723186D01*
X205166666Y-66742695D01*
X205055555Y-66742695D01*
X205055555Y-66341108D01*
X210144444Y-66341108D01*
X210144444Y-67763330D01*
G37*
G36*
X206372989Y-53406424D02*
G01*
X206391814Y-53442682D01*
X206117556Y-53498620D01*
X206117345Y-53454721D01*
X206139919Y-53407799D01*
X206183143Y-53385357D01*
X206326473Y-53384046D01*
X206372989Y-53406424D01*
G37*
G36*
X208624310Y-53412786D02*
G01*
X208650087Y-53437448D01*
X208681084Y-53497148D01*
X208682585Y-53735569D01*
X208653717Y-53795576D01*
X208629055Y-53821354D01*
X208569123Y-53852471D01*
X208473277Y-53853605D01*
X208413782Y-53824983D01*
X208388008Y-53800324D01*
X208357010Y-53740620D01*
X208355509Y-53502200D01*
X208384377Y-53442193D01*
X208409039Y-53416416D01*
X208468970Y-53385299D01*
X208564817Y-53384165D01*
X208624310Y-53412786D01*
G37*
G36*
X209942523Y-54163330D02*
G01*
X204855555Y-54163330D01*
X204855555Y-53142695D01*
X204966666Y-53142695D01*
X204968022Y-53223712D01*
X204967451Y-53225426D01*
X204968235Y-53236470D01*
X204968587Y-53257442D01*
X204969962Y-53260762D01*
X204970217Y-53264346D01*
X204977223Y-53282654D01*
X205026563Y-53377683D01*
X205031138Y-53388728D01*
X205034294Y-53392574D01*
X205035285Y-53394482D01*
X205037279Y-53396211D01*
X205043574Y-53403882D01*
X205093676Y-53451815D01*
X205100592Y-53459790D01*
X205104741Y-53462401D01*
X205106346Y-53463937D01*
X205108786Y-53464947D01*
X205117183Y-53470233D01*
X205207454Y-53513661D01*
X205214428Y-53518828D01*
X205229062Y-53524056D01*
X205230729Y-53524858D01*
X205231449Y-53524909D01*
X205232888Y-53525423D01*
X205406431Y-53567171D01*
X205481452Y-53603262D01*
X205507229Y-53627924D01*
X205538454Y-53688063D01*
X205539266Y-53736528D01*
X205510859Y-53795576D01*
X205486197Y-53821354D01*
X205426448Y-53852376D01*
X205230202Y-53853840D01*
X205079173Y-53805385D01*
X205040253Y-53808151D01*
X205005354Y-53825601D01*
X204979789Y-53855077D01*
X204967451Y-53892093D01*
X204970217Y-53931013D01*
X204987667Y-53965912D01*
X205017143Y-53991477D01*
X205035043Y-53999468D01*
X205178127Y-54045374D01*
X205190014Y-54050298D01*
X205195006Y-54050789D01*
X205197015Y-54051434D01*
X205199649Y-54051246D01*
X205209523Y-54052219D01*
X205432478Y-54050556D01*
X205435111Y-54051434D01*
X205449216Y-54050431D01*
X205467127Y-54050298D01*
X205470447Y-54048922D01*
X205474031Y-54048668D01*
X205492339Y-54041662D01*
X205587367Y-53992322D01*
X205598414Y-53987747D01*
X205602260Y-53984589D01*
X205604167Y-53983600D01*
X205605897Y-53981605D01*
X205613567Y-53975310D01*
X205661500Y-53925207D01*
X205669475Y-53918292D01*
X205672086Y-53914142D01*
X205673623Y-53912537D01*
X205674634Y-53910095D01*
X205679918Y-53901701D01*
X205719856Y-53818683D01*
X205721241Y-53817299D01*
X205725693Y-53806549D01*
X205734543Y-53788155D01*
X205734797Y-53784571D01*
X205736173Y-53781251D01*
X205738094Y-53761742D01*
X205736737Y-53680724D01*
X205737309Y-53679011D01*
X205736524Y-53667966D01*
X205736173Y-53646995D01*
X205734797Y-53643674D01*
X205734543Y-53640091D01*
X205727537Y-53621782D01*
X205726087Y-53618990D01*
X205919047Y-53618990D01*
X205919983Y-53623673D01*
X205920800Y-53793947D01*
X205919832Y-53796853D01*
X205920885Y-53811677D01*
X205920968Y-53828870D01*
X205922343Y-53832190D01*
X205922598Y-53835773D01*
X205929604Y-53854082D01*
X205976641Y-53944677D01*
X205979790Y-53954123D01*
X205984164Y-53959167D01*
X205987666Y-53965911D01*
X205997137Y-53974125D01*
X206005354Y-53983600D01*
X206015224Y-53989812D01*
X206017142Y-53991476D01*
X206018682Y-53991989D01*
X206021945Y-53994043D01*
X206104962Y-54033981D01*
X206106347Y-54035366D01*
X206117096Y-54039818D01*
X206135491Y-54048668D01*
X206139074Y-54048922D01*
X206142395Y-54050298D01*
X206161904Y-54052219D01*
X206337411Y-54050613D01*
X206339873Y-54051434D01*
X206353488Y-54050466D01*
X206371889Y-54050298D01*
X206375209Y-54048922D01*
X206378793Y-54048668D01*
X206397101Y-54041662D01*
X206508929Y-53983600D01*
X206534494Y-53954123D01*
X206546832Y-53917107D01*
X206544067Y-53878187D01*
X206526618Y-53843289D01*
X206497141Y-53817724D01*
X206460125Y-53805385D01*
X206421205Y-53808151D01*
X206402896Y-53815157D01*
X206331139Y-53852413D01*
X206187810Y-53853724D01*
X206141295Y-53831346D01*
X206118945Y-53788302D01*
X206118525Y-53700653D01*
X206505503Y-53621726D01*
X206514746Y-53621726D01*
X206523711Y-53618012D01*
X206533602Y-53615995D01*
X206541742Y-53610543D01*
X206550794Y-53606794D01*
X206557795Y-53599792D01*
X206566021Y-53594284D01*
X206571455Y-53586132D01*
X206578384Y-53579204D01*
X206582173Y-53570056D01*
X206587665Y-53561819D01*
X206589566Y-53552208D01*
X206593316Y-53543156D01*
X206595237Y-53523647D01*
X206595235Y-53523550D01*
X206595237Y-53523542D01*
X206595235Y-53523532D01*
X206593880Y-53442629D01*
X206594452Y-53440916D01*
X206593667Y-53429871D01*
X206593316Y-53408900D01*
X206591940Y-53405579D01*
X206591686Y-53401996D01*
X206584680Y-53383687D01*
X206537640Y-53293089D01*
X206535128Y-53285552D01*
X206823809Y-53285552D01*
X206825730Y-53971728D01*
X206840662Y-54007776D01*
X206868252Y-54035366D01*
X206904300Y-54050298D01*
X206943318Y-54050298D01*
X206979366Y-54035366D01*
X207006956Y-54007776D01*
X207021888Y-53971728D01*
X207023809Y-53952219D01*
X207022546Y-53501428D01*
X207051043Y-53442193D01*
X207075705Y-53416416D01*
X207135844Y-53385191D01*
X207229032Y-53383631D01*
X207265080Y-53368699D01*
X207292670Y-53341109D01*
X207307602Y-53305061D01*
X207307602Y-53300167D01*
X207348692Y-53300167D01*
X207353445Y-53319186D01*
X207588491Y-53971870D01*
X207588725Y-53976574D01*
X207594814Y-53989429D01*
X207599910Y-54003579D01*
X207603280Y-54007301D01*
X207605428Y-54011836D01*
X207616279Y-54021659D01*
X207626097Y-54032504D01*
X207630629Y-54034651D01*
X207634354Y-54038023D01*
X207648144Y-54042947D01*
X207661359Y-54049208D01*
X207666369Y-54049457D01*
X207671099Y-54051146D01*
X207685720Y-54050418D01*
X207700329Y-54051145D01*
X207705054Y-54049457D01*
X207710069Y-54049208D01*
X207723295Y-54042942D01*
X207737074Y-54038022D01*
X207740794Y-54034653D01*
X207745331Y-54032505D01*
X207755153Y-54021654D01*
X207766000Y-54011836D01*
X207768147Y-54007301D01*
X207771518Y-54003579D01*
X207779888Y-53985853D01*
X207960452Y-53476028D01*
X208157143Y-53476028D01*
X208158845Y-53746483D01*
X208157928Y-53749235D01*
X208158953Y-53763661D01*
X208159064Y-53781251D01*
X208160439Y-53784571D01*
X208160694Y-53788155D01*
X208167700Y-53806463D01*
X208217037Y-53901487D01*
X208221614Y-53912537D01*
X208224772Y-53916385D01*
X208225762Y-53918291D01*
X208227756Y-53920020D01*
X208234051Y-53927690D01*
X208284151Y-53975623D01*
X208291069Y-53983600D01*
X208295218Y-53986211D01*
X208296823Y-53987747D01*
X208299263Y-53988757D01*
X208307660Y-53994043D01*
X208390677Y-54033981D01*
X208392062Y-54035366D01*
X208402811Y-54039818D01*
X208421206Y-54048668D01*
X208424789Y-54048922D01*
X208428110Y-54050298D01*
X208447619Y-54052219D01*
X208575775Y-54050702D01*
X208577969Y-54051434D01*
X208590751Y-54050525D01*
X208609985Y-54050298D01*
X208613305Y-54048922D01*
X208616889Y-54048668D01*
X208635197Y-54041662D01*
X208730225Y-53992322D01*
X208741272Y-53987747D01*
X208745118Y-53984589D01*
X208747025Y-53983600D01*
X208748755Y-53981605D01*
X208756425Y-53975310D01*
X208804358Y-53925207D01*
X208812333Y-53918292D01*
X208814944Y-53914142D01*
X208816481Y-53912537D01*
X208817492Y-53910095D01*
X208822776Y-53901701D01*
X208862714Y-53818683D01*
X208864099Y-53817299D01*
X208868551Y-53806549D01*
X208877401Y-53788155D01*
X208877655Y-53784571D01*
X208879031Y-53781251D01*
X208880952Y-53761742D01*
X208879249Y-53491286D01*
X208880167Y-53488535D01*
X208879141Y-53474108D01*
X208879031Y-53456519D01*
X208877655Y-53453198D01*
X208877401Y-53449615D01*
X208870395Y-53431306D01*
X208821052Y-53336272D01*
X208816480Y-53325232D01*
X208813324Y-53321386D01*
X208812333Y-53319478D01*
X208810335Y-53317745D01*
X208804043Y-53310079D01*
X208753942Y-53262147D01*
X208747025Y-53254171D01*
X208742875Y-53251558D01*
X208741271Y-53250024D01*
X208738831Y-53249013D01*
X208730435Y-53243728D01*
X208692392Y-53225426D01*
X209062690Y-53225426D01*
X209065456Y-53264346D01*
X209082905Y-53299245D01*
X209112382Y-53324809D01*
X209149398Y-53337148D01*
X209188318Y-53334382D01*
X209206626Y-53327376D01*
X209301655Y-53278035D01*
X209312700Y-53273461D01*
X209316546Y-53270304D01*
X209318454Y-53269314D01*
X209320183Y-53267319D01*
X209327854Y-53261025D01*
X209348161Y-53240204D01*
X209349317Y-53853467D01*
X209142396Y-53854140D01*
X209106348Y-53869072D01*
X209078758Y-53896662D01*
X209063826Y-53932710D01*
X209063826Y-53971728D01*
X209078758Y-54007776D01*
X209106348Y-54035366D01*
X209142396Y-54050298D01*
X209161905Y-54052219D01*
X209752842Y-54050298D01*
X209788890Y-54035366D01*
X209816480Y-54007776D01*
X209831412Y-53971728D01*
X209831412Y-53932710D01*
X209816480Y-53896662D01*
X209788890Y-53869072D01*
X209752842Y-53854140D01*
X209733333Y-53852219D01*
X209547431Y-53852823D01*
X209545752Y-52961550D01*
X209547619Y-52952114D01*
X209545716Y-52942602D01*
X209545698Y-52932710D01*
X209541908Y-52923561D01*
X209539967Y-52913854D01*
X209534515Y-52905713D01*
X209530766Y-52896662D01*
X209523766Y-52889662D01*
X209518256Y-52881434D01*
X209510101Y-52875997D01*
X209503176Y-52869072D01*
X209494032Y-52865284D01*
X209485791Y-52859790D01*
X209476177Y-52857888D01*
X209467128Y-52854140D01*
X209457227Y-52854140D01*
X209447515Y-52852219D01*
X209437910Y-52854140D01*
X209428110Y-52854140D01*
X209418961Y-52857929D01*
X209409254Y-52859871D01*
X209401113Y-52865322D01*
X209392062Y-52869072D01*
X209385062Y-52876071D01*
X209376834Y-52881582D01*
X209364545Y-52896588D01*
X209364472Y-52896662D01*
X209364458Y-52896694D01*
X209364414Y-52896749D01*
X209280180Y-53025892D01*
X209201534Y-53106523D01*
X209100593Y-53158933D01*
X209075029Y-53188410D01*
X209062690Y-53225426D01*
X208692392Y-53225426D01*
X208647417Y-53203789D01*
X208646033Y-53202405D01*
X208635283Y-53197952D01*
X208616889Y-53189103D01*
X208613305Y-53188848D01*
X208609985Y-53187473D01*
X208590476Y-53185552D01*
X208462319Y-53187068D01*
X208460126Y-53186337D01*
X208447343Y-53187245D01*
X208428110Y-53187473D01*
X208424789Y-53188848D01*
X208421206Y-53189103D01*
X208402897Y-53196109D01*
X208307863Y-53245451D01*
X208296823Y-53250024D01*
X208292977Y-53253179D01*
X208291069Y-53254171D01*
X208289336Y-53256168D01*
X208281670Y-53262461D01*
X208233738Y-53312561D01*
X208225762Y-53319479D01*
X208223149Y-53323628D01*
X208221615Y-53325233D01*
X208220604Y-53327672D01*
X208215319Y-53336069D01*
X208175380Y-53419086D01*
X208173996Y-53420471D01*
X208169544Y-53431219D01*
X208160694Y-53449615D01*
X208160439Y-53453198D01*
X208159064Y-53456519D01*
X208157143Y-53476028D01*
X207960452Y-53476028D01*
X208022736Y-53300167D01*
X208020798Y-53261197D01*
X208004095Y-53225935D01*
X207975169Y-53199749D01*
X207938424Y-53186626D01*
X207899454Y-53188563D01*
X207864192Y-53205267D01*
X207838005Y-53234192D01*
X207829635Y-53251919D01*
X207685928Y-53657675D01*
X207533423Y-53234192D01*
X207507236Y-53205266D01*
X207471974Y-53188563D01*
X207433004Y-53186625D01*
X207396259Y-53199748D01*
X207367333Y-53225935D01*
X207350630Y-53261197D01*
X207348692Y-53300167D01*
X207307602Y-53300167D01*
X207307602Y-53266043D01*
X207292670Y-53229995D01*
X207265080Y-53202405D01*
X207229032Y-53187473D01*
X207209523Y-53185552D01*
X207128505Y-53186908D01*
X207126792Y-53186337D01*
X207115747Y-53187121D01*
X207094776Y-53187473D01*
X207091455Y-53188848D01*
X207087872Y-53189103D01*
X207069563Y-53196109D01*
X207006047Y-53229086D01*
X206979366Y-53202405D01*
X206943318Y-53187473D01*
X206904300Y-53187473D01*
X206868252Y-53202405D01*
X206840662Y-53229995D01*
X206825730Y-53266043D01*
X206823809Y-53285552D01*
X206535128Y-53285552D01*
X206534494Y-53283648D01*
X206530121Y-53278605D01*
X206526618Y-53271859D01*
X206517142Y-53263641D01*
X206508929Y-53254171D01*
X206499057Y-53247957D01*
X206497141Y-53246295D01*
X206495602Y-53245781D01*
X206492339Y-53243728D01*
X206409321Y-53203789D01*
X206407937Y-53202405D01*
X206397187Y-53197952D01*
X206378793Y-53189103D01*
X206375209Y-53188848D01*
X206371889Y-53187473D01*
X206352380Y-53185552D01*
X206176872Y-53187157D01*
X206174411Y-53186337D01*
X206160795Y-53187304D01*
X206142395Y-53187473D01*
X206139074Y-53188848D01*
X206135491Y-53189103D01*
X206117182Y-53196109D01*
X206026584Y-53243148D01*
X206017143Y-53246295D01*
X206012100Y-53250667D01*
X206005354Y-53254171D01*
X205997136Y-53263646D01*
X205987666Y-53271860D01*
X205981452Y-53281731D01*
X205979790Y-53283648D01*
X205979276Y-53285186D01*
X205977223Y-53288450D01*
X205937284Y-53371467D01*
X205935900Y-53372852D01*
X205931447Y-53383601D01*
X205922598Y-53401996D01*
X205922343Y-53405579D01*
X205920968Y-53408900D01*
X205919047Y-53428409D01*
X205919939Y-53614478D01*
X205919047Y-53618990D01*
X205726087Y-53618990D01*
X205678194Y-53526748D01*
X205673622Y-53515708D01*
X205670466Y-53511862D01*
X205669475Y-53509954D01*
X205667477Y-53508221D01*
X205661185Y-53500555D01*
X205611084Y-53452623D01*
X205604167Y-53444647D01*
X205600017Y-53442034D01*
X205598413Y-53440500D01*
X205595973Y-53439489D01*
X205587577Y-53434204D01*
X205497305Y-53390775D01*
X205490332Y-53385609D01*
X205475699Y-53380381D01*
X205474031Y-53379579D01*
X205473308Y-53379527D01*
X205471871Y-53379014D01*
X205298328Y-53337265D01*
X205223305Y-53301173D01*
X205197532Y-53276515D01*
X205166305Y-53216372D01*
X205165493Y-53167908D01*
X205193900Y-53108860D01*
X205218562Y-53083083D01*
X205278310Y-53052061D01*
X205474556Y-53050597D01*
X205625586Y-53099053D01*
X205664506Y-53096287D01*
X205699405Y-53078837D01*
X205724970Y-53049361D01*
X205737309Y-53012345D01*
X205734542Y-52973425D01*
X205717093Y-52938526D01*
X205687617Y-52912961D01*
X205669716Y-52904970D01*
X205526636Y-52859065D01*
X205514746Y-52854140D01*
X205509752Y-52853648D01*
X205507744Y-52853004D01*
X205505110Y-52853191D01*
X205495237Y-52852219D01*
X205272281Y-52853881D01*
X205269649Y-52853004D01*
X205255543Y-52854006D01*
X205237633Y-52854140D01*
X205234312Y-52855515D01*
X205230729Y-52855770D01*
X205212420Y-52862776D01*
X205117386Y-52912118D01*
X205106346Y-52916691D01*
X205102500Y-52919846D01*
X205100592Y-52920838D01*
X205098859Y-52922835D01*
X205091193Y-52929128D01*
X205043261Y-52979228D01*
X205035285Y-52986146D01*
X205032672Y-52990295D01*
X205031138Y-52991900D01*
X205030127Y-52994339D01*
X205024842Y-53002736D01*
X204984903Y-53085753D01*
X204983519Y-53087138D01*
X204979066Y-53097887D01*
X204970217Y-53116282D01*
X204969962Y-53119865D01*
X204968587Y-53123186D01*
X204966666Y-53142695D01*
X204855555Y-53142695D01*
X204855555Y-52741108D01*
X209942523Y-52741108D01*
X209942523Y-54163330D01*
G37*
G36*
X191319548Y-53479453D02*
G01*
X191345325Y-53504115D01*
X191376442Y-53564046D01*
X191377576Y-53659893D01*
X191348954Y-53719388D01*
X191324296Y-53745161D01*
X191264653Y-53776129D01*
X191144399Y-53776705D01*
X191140689Y-53776051D01*
X191137585Y-53776738D01*
X191003678Y-53777380D01*
X191003065Y-53451747D01*
X191259401Y-53450517D01*
X191319548Y-53479453D01*
G37*
G36*
X193494904Y-54563330D02*
G01*
X189646032Y-54563330D01*
X189646032Y-53352219D01*
X189757143Y-53352219D01*
X189759064Y-54371728D01*
X189773996Y-54407776D01*
X189801586Y-54435366D01*
X189837634Y-54450298D01*
X189876652Y-54450298D01*
X189912700Y-54435366D01*
X189940290Y-54407776D01*
X189955222Y-54371728D01*
X189957143Y-54352219D01*
X189955962Y-53725475D01*
X190340460Y-54395793D01*
X190345424Y-54407776D01*
X190349903Y-54412255D01*
X190353094Y-54417818D01*
X190363610Y-54425962D01*
X190373014Y-54435366D01*
X190378901Y-54437804D01*
X190383943Y-54441709D01*
X190396775Y-54445208D01*
X190409062Y-54450298D01*
X190415438Y-54450298D01*
X190421587Y-54451975D01*
X190434780Y-54450298D01*
X190448080Y-54450298D01*
X190453968Y-54447858D01*
X190460293Y-54447055D01*
X190471842Y-54440454D01*
X190484128Y-54435366D01*
X190488635Y-54430858D01*
X190494170Y-54427696D01*
X190502314Y-54417179D01*
X190511718Y-54407776D01*
X190514156Y-54401888D01*
X190518061Y-54396847D01*
X190521560Y-54384014D01*
X190526650Y-54371728D01*
X190527632Y-54361750D01*
X190528327Y-54359204D01*
X190528076Y-54357236D01*
X190528571Y-54352219D01*
X190526687Y-53352219D01*
X190804762Y-53352219D01*
X190806683Y-54371728D01*
X190821615Y-54407776D01*
X190849205Y-54435366D01*
X190885253Y-54450298D01*
X190924271Y-54450298D01*
X190960319Y-54435366D01*
X190987909Y-54407776D01*
X191002841Y-54371728D01*
X191004762Y-54352219D01*
X191004052Y-53975551D01*
X191090367Y-53975137D01*
X191407028Y-54424446D01*
X191439933Y-54445415D01*
X191478358Y-54452196D01*
X191516452Y-54443756D01*
X191548417Y-54421381D01*
X191569386Y-54388476D01*
X191576167Y-54350052D01*
X191567727Y-54311957D01*
X191558113Y-54294873D01*
X191326910Y-53966819D01*
X191330435Y-53965471D01*
X191425464Y-53916130D01*
X191436509Y-53911556D01*
X191440355Y-53908399D01*
X191442263Y-53907409D01*
X191443992Y-53905414D01*
X191451663Y-53899120D01*
X191499596Y-53849017D01*
X191507571Y-53842102D01*
X191510182Y-53837952D01*
X191511718Y-53836348D01*
X191512728Y-53833907D01*
X191518014Y-53825511D01*
X191557952Y-53742493D01*
X191559337Y-53741109D01*
X191563789Y-53730359D01*
X191572639Y-53711965D01*
X191572893Y-53708381D01*
X191574269Y-53705061D01*
X191576190Y-53685552D01*
X191574673Y-53557395D01*
X191575405Y-53555202D01*
X191574516Y-53542695D01*
X191757143Y-53542695D01*
X191758499Y-53623712D01*
X191757928Y-53625426D01*
X191758712Y-53636470D01*
X191759064Y-53657442D01*
X191760439Y-53660762D01*
X191760694Y-53664346D01*
X191767700Y-53682654D01*
X191817040Y-53777683D01*
X191821615Y-53788728D01*
X191824771Y-53792574D01*
X191825762Y-53794482D01*
X191827756Y-53796211D01*
X191834051Y-53803882D01*
X191884153Y-53851815D01*
X191891069Y-53859790D01*
X191895218Y-53862401D01*
X191896823Y-53863937D01*
X191899263Y-53864947D01*
X191907660Y-53870233D01*
X191997931Y-53913661D01*
X192004905Y-53918828D01*
X192019539Y-53924056D01*
X192021206Y-53924858D01*
X192021926Y-53924909D01*
X192023365Y-53925423D01*
X192196908Y-53967171D01*
X192271929Y-54003262D01*
X192297706Y-54027924D01*
X192328931Y-54088063D01*
X192329743Y-54136528D01*
X192301336Y-54195576D01*
X192276674Y-54221354D01*
X192216925Y-54252376D01*
X192020679Y-54253840D01*
X191869650Y-54205385D01*
X191830730Y-54208151D01*
X191795831Y-54225601D01*
X191770266Y-54255077D01*
X191757928Y-54292093D01*
X191760694Y-54331013D01*
X191778144Y-54365912D01*
X191807620Y-54391477D01*
X191825520Y-54399468D01*
X191968604Y-54445374D01*
X191980491Y-54450298D01*
X191985483Y-54450789D01*
X191987492Y-54451434D01*
X191990126Y-54451246D01*
X192000000Y-54452219D01*
X192222955Y-54450556D01*
X192225588Y-54451434D01*
X192239693Y-54450431D01*
X192257604Y-54450298D01*
X192260924Y-54448922D01*
X192264508Y-54448668D01*
X192282816Y-54441662D01*
X192377844Y-54392322D01*
X192388891Y-54387747D01*
X192392737Y-54384589D01*
X192394644Y-54383600D01*
X192396374Y-54381605D01*
X192404044Y-54375310D01*
X192451977Y-54325207D01*
X192459952Y-54318292D01*
X192462563Y-54314142D01*
X192464100Y-54312537D01*
X192465111Y-54310095D01*
X192470395Y-54301701D01*
X192510333Y-54218683D01*
X192511718Y-54217299D01*
X192516170Y-54206549D01*
X192525020Y-54188155D01*
X192525274Y-54184571D01*
X192526650Y-54181251D01*
X192528571Y-54161742D01*
X192527214Y-54080724D01*
X192527786Y-54079011D01*
X192527001Y-54067966D01*
X192526650Y-54046995D01*
X192525274Y-54043674D01*
X192525020Y-54040091D01*
X192518014Y-54021782D01*
X192468671Y-53926748D01*
X192464099Y-53915708D01*
X192460943Y-53911862D01*
X192459952Y-53909954D01*
X192457954Y-53908221D01*
X192451662Y-53900555D01*
X192401561Y-53852623D01*
X192394644Y-53844647D01*
X192390494Y-53842034D01*
X192388890Y-53840500D01*
X192386450Y-53839489D01*
X192378054Y-53834204D01*
X192287782Y-53790775D01*
X192280809Y-53785609D01*
X192266176Y-53780381D01*
X192264508Y-53779579D01*
X192263785Y-53779527D01*
X192262348Y-53779014D01*
X192088805Y-53737265D01*
X192013782Y-53701173D01*
X191988009Y-53676515D01*
X191956782Y-53616372D01*
X191955970Y-53567908D01*
X191984377Y-53508860D01*
X192009039Y-53483083D01*
X192068787Y-53452061D01*
X192265033Y-53450597D01*
X192416063Y-53499053D01*
X192454983Y-53496287D01*
X192489882Y-53478837D01*
X192515447Y-53449361D01*
X192527786Y-53412345D01*
X192525019Y-53373425D01*
X192524171Y-53371728D01*
X192616207Y-53371728D01*
X192631139Y-53407776D01*
X192658729Y-53435366D01*
X192694777Y-53450298D01*
X192714286Y-53452219D01*
X192900187Y-53451614D01*
X192901921Y-54371728D01*
X192916853Y-54407776D01*
X192944443Y-54435366D01*
X192980491Y-54450298D01*
X193019509Y-54450298D01*
X193055557Y-54435366D01*
X193083147Y-54407776D01*
X193098079Y-54371728D01*
X193100000Y-54352219D01*
X193098301Y-53450970D01*
X193305223Y-53450298D01*
X193341271Y-53435366D01*
X193368861Y-53407776D01*
X193383793Y-53371728D01*
X193383793Y-53332710D01*
X193368861Y-53296662D01*
X193341271Y-53269072D01*
X193305223Y-53254140D01*
X193285714Y-53252219D01*
X192694777Y-53254140D01*
X192658729Y-53269072D01*
X192631139Y-53296662D01*
X192616207Y-53332710D01*
X192616207Y-53371728D01*
X192524171Y-53371728D01*
X192507570Y-53338526D01*
X192478094Y-53312961D01*
X192460193Y-53304970D01*
X192317113Y-53259065D01*
X192305223Y-53254140D01*
X192300229Y-53253648D01*
X192298221Y-53253004D01*
X192295587Y-53253191D01*
X192285714Y-53252219D01*
X192062758Y-53253881D01*
X192060126Y-53253004D01*
X192046020Y-53254006D01*
X192028110Y-53254140D01*
X192024789Y-53255515D01*
X192021206Y-53255770D01*
X192002897Y-53262776D01*
X191907863Y-53312118D01*
X191896823Y-53316691D01*
X191892977Y-53319846D01*
X191891069Y-53320838D01*
X191889336Y-53322835D01*
X191881670Y-53329128D01*
X191833738Y-53379228D01*
X191825762Y-53386146D01*
X191823149Y-53390295D01*
X191821615Y-53391900D01*
X191820604Y-53394339D01*
X191815319Y-53402736D01*
X191775380Y-53485753D01*
X191773996Y-53487138D01*
X191769543Y-53497887D01*
X191760694Y-53516282D01*
X191760439Y-53519865D01*
X191759064Y-53523186D01*
X191757143Y-53542695D01*
X191574516Y-53542695D01*
X191574496Y-53542419D01*
X191574269Y-53523186D01*
X191572893Y-53519865D01*
X191572639Y-53516282D01*
X191565633Y-53497973D01*
X191516290Y-53402939D01*
X191511718Y-53391899D01*
X191508562Y-53388053D01*
X191507571Y-53386145D01*
X191505573Y-53384412D01*
X191499281Y-53376746D01*
X191449180Y-53328814D01*
X191442263Y-53320838D01*
X191438113Y-53318225D01*
X191436509Y-53316691D01*
X191434069Y-53315680D01*
X191425673Y-53310395D01*
X191342655Y-53270456D01*
X191341271Y-53269072D01*
X191330521Y-53264619D01*
X191312127Y-53255770D01*
X191308543Y-53255515D01*
X191305223Y-53254140D01*
X191285714Y-53252219D01*
X190885253Y-53254140D01*
X190849205Y-53269072D01*
X190821615Y-53296662D01*
X190806683Y-53332710D01*
X190804762Y-53352219D01*
X190526687Y-53352219D01*
X190526650Y-53332710D01*
X190511718Y-53296662D01*
X190484128Y-53269072D01*
X190448080Y-53254140D01*
X190409062Y-53254140D01*
X190373014Y-53269072D01*
X190345424Y-53296662D01*
X190330492Y-53332710D01*
X190328571Y-53352219D01*
X190329751Y-53978962D01*
X189945253Y-53308644D01*
X189940290Y-53296662D01*
X189935810Y-53292182D01*
X189932620Y-53286620D01*
X189922105Y-53278477D01*
X189912700Y-53269072D01*
X189906809Y-53266632D01*
X189901771Y-53262730D01*
X189888942Y-53259231D01*
X189876652Y-53254140D01*
X189870277Y-53254140D01*
X189864128Y-53252463D01*
X189850935Y-53254140D01*
X189837634Y-53254140D01*
X189831745Y-53256579D01*
X189825421Y-53257383D01*
X189813871Y-53263983D01*
X189801586Y-53269072D01*
X189797078Y-53273579D01*
X189791544Y-53276742D01*
X189783401Y-53287256D01*
X189773996Y-53296662D01*
X189771556Y-53302552D01*
X189767654Y-53307591D01*
X189764155Y-53320419D01*
X189759064Y-53332710D01*
X189758081Y-53342687D01*
X189757387Y-53345234D01*
X189757637Y-53347201D01*
X189757143Y-53352219D01*
X189646032Y-53352219D01*
X189646032Y-53141108D01*
X193494904Y-53141108D01*
X193494904Y-54563330D01*
G37*
D11*
G36*
X156021876Y-54180595D02*
G01*
X156034432Y-54192511D01*
X156061103Y-54243492D01*
X156062310Y-54327542D01*
X156038146Y-54378173D01*
X156019010Y-54398338D01*
X155968473Y-54424777D01*
X155738995Y-54426137D01*
X155738347Y-54149975D01*
X155921763Y-54148744D01*
X156021876Y-54180595D01*
G37*
G36*
X155966648Y-53697184D02*
G01*
X155986813Y-53716321D01*
X156013646Y-53767611D01*
X156014384Y-53804376D01*
X155990528Y-53854362D01*
X155971391Y-53874528D01*
X155920813Y-53900988D01*
X155737766Y-53902218D01*
X155737231Y-53673793D01*
X155915134Y-53672598D01*
X155966648Y-53697184D01*
G37*
G36*
X156919604Y-54424875D02*
G01*
X156741722Y-54426503D01*
X156707223Y-54410038D01*
X156691113Y-54379242D01*
X156690375Y-54342478D01*
X156706247Y-54309222D01*
X156736454Y-54293419D01*
X156919021Y-54291748D01*
X156919604Y-54424875D01*
G37*
G36*
X160433313Y-54799619D02*
G01*
X153366687Y-54799619D01*
X153366687Y-54193052D01*
X153491687Y-54193052D01*
X153510351Y-54238112D01*
X153544839Y-54272600D01*
X153589899Y-54291264D01*
X153614285Y-54293666D01*
X153871780Y-54292879D01*
X153872639Y-54574005D01*
X153891303Y-54619065D01*
X153925791Y-54653553D01*
X153970851Y-54672217D01*
X154019623Y-54672217D01*
X154064683Y-54653553D01*
X154099171Y-54619065D01*
X154117835Y-54574005D01*
X154120237Y-54549619D01*
X154119450Y-54292122D01*
X154400576Y-54291264D01*
X154445636Y-54272600D01*
X154480124Y-54238112D01*
X154498788Y-54193052D01*
X154498788Y-54144280D01*
X154480124Y-54099220D01*
X154445636Y-54064732D01*
X154400576Y-54046068D01*
X154376190Y-54043666D01*
X154118693Y-54044452D01*
X154117835Y-53763328D01*
X154099171Y-53718268D01*
X154064683Y-53683780D01*
X154019623Y-53665116D01*
X153970851Y-53665116D01*
X153925791Y-53683780D01*
X153891303Y-53718268D01*
X153872639Y-53763328D01*
X153870237Y-53787714D01*
X153871023Y-54045209D01*
X153589899Y-54046068D01*
X153544839Y-54064732D01*
X153510351Y-54099220D01*
X153491687Y-54144280D01*
X153491687Y-54193052D01*
X153366687Y-54193052D01*
X153366687Y-53549619D01*
X155489285Y-53549619D01*
X155491687Y-54574005D01*
X155510351Y-54619065D01*
X155544839Y-54653553D01*
X155589899Y-54672217D01*
X155614285Y-54674619D01*
X155976113Y-54672474D01*
X155979603Y-54673638D01*
X155997773Y-54672346D01*
X156019623Y-54672217D01*
X156023771Y-54670498D01*
X156028253Y-54670180D01*
X156051139Y-54661422D01*
X156146871Y-54611338D01*
X156159922Y-54605933D01*
X156164699Y-54602012D01*
X156167114Y-54600749D01*
X156169276Y-54598255D01*
X156178864Y-54590387D01*
X156227565Y-54539065D01*
X156236843Y-54531019D01*
X156240078Y-54525879D01*
X156242028Y-54523825D01*
X156243290Y-54520776D01*
X156249897Y-54510282D01*
X156288193Y-54430041D01*
X156289647Y-54428588D01*
X156294638Y-54416538D01*
X156306274Y-54392158D01*
X156306592Y-54387677D01*
X156308311Y-54383528D01*
X156310713Y-54359142D01*
X156310029Y-54311523D01*
X156441666Y-54311523D01*
X156443229Y-54389380D01*
X156442647Y-54391127D01*
X156443507Y-54403232D01*
X156444068Y-54431147D01*
X156445786Y-54435296D01*
X156446105Y-54439776D01*
X156454862Y-54462662D01*
X156501937Y-54552645D01*
X156505690Y-54563904D01*
X156511075Y-54570113D01*
X156515535Y-54578638D01*
X156527377Y-54588909D01*
X156537646Y-54600749D01*
X156549979Y-54608513D01*
X156552380Y-54610595D01*
X156554307Y-54611237D01*
X156558383Y-54613803D01*
X156638623Y-54652099D01*
X156640077Y-54653553D01*
X156652126Y-54658544D01*
X156676507Y-54670180D01*
X156680987Y-54670498D01*
X156685137Y-54672217D01*
X156709523Y-54674619D01*
X156928904Y-54672611D01*
X156931984Y-54673638D01*
X156949016Y-54672427D01*
X156972004Y-54672217D01*
X156976152Y-54670498D01*
X156980634Y-54670180D01*
X156997744Y-54663632D01*
X157018470Y-54672217D01*
X157067242Y-54672217D01*
X157112302Y-54653553D01*
X157146790Y-54619065D01*
X157165454Y-54574005D01*
X157167856Y-54549619D01*
X157166057Y-54139130D01*
X157166874Y-54136681D01*
X157165992Y-54124276D01*
X157165645Y-54045127D01*
X157166874Y-54041442D01*
X157165547Y-54022775D01*
X157165454Y-54001423D01*
X157163735Y-53997273D01*
X157163417Y-53992793D01*
X157154659Y-53969907D01*
X157121925Y-53907338D01*
X157253592Y-53907338D01*
X157272256Y-53952398D01*
X157306744Y-53986886D01*
X157351804Y-54005550D01*
X157376190Y-54007952D01*
X157395295Y-54007838D01*
X157396329Y-54387223D01*
X157395028Y-54391127D01*
X157396392Y-54410320D01*
X157396449Y-54431147D01*
X157398167Y-54435296D01*
X157398486Y-54439776D01*
X157407243Y-54462662D01*
X157454318Y-54552645D01*
X157458071Y-54563904D01*
X157463456Y-54570113D01*
X157467916Y-54578638D01*
X157479758Y-54588909D01*
X157490027Y-54600749D01*
X157502360Y-54608513D01*
X157504761Y-54610595D01*
X157506688Y-54611237D01*
X157510764Y-54613803D01*
X157591004Y-54652099D01*
X157592458Y-54653553D01*
X157604507Y-54658544D01*
X157628888Y-54670180D01*
X157633368Y-54670498D01*
X157637518Y-54672217D01*
X157661904Y-54674619D01*
X157781528Y-54672217D01*
X157826588Y-54653553D01*
X157861076Y-54619065D01*
X157879740Y-54574005D01*
X157879740Y-54525233D01*
X157861076Y-54480173D01*
X157826588Y-54445685D01*
X157781528Y-54427021D01*
X157757142Y-54424619D01*
X157692860Y-54425909D01*
X157659604Y-54410038D01*
X157643974Y-54380160D01*
X157642956Y-54006371D01*
X157781528Y-54005550D01*
X157826588Y-53986886D01*
X157852380Y-53961093D01*
X157878173Y-53986886D01*
X157923233Y-54005550D01*
X157947619Y-54007952D01*
X157966724Y-54007838D01*
X157967758Y-54387223D01*
X157966457Y-54391127D01*
X157967821Y-54410320D01*
X157967878Y-54431147D01*
X157969596Y-54435296D01*
X157969915Y-54439776D01*
X157978672Y-54462662D01*
X158025747Y-54552645D01*
X158029500Y-54563904D01*
X158034885Y-54570113D01*
X158039345Y-54578638D01*
X158051187Y-54588909D01*
X158061456Y-54600749D01*
X158073789Y-54608513D01*
X158076190Y-54610595D01*
X158078117Y-54611237D01*
X158082193Y-54613803D01*
X158162433Y-54652099D01*
X158163887Y-54653553D01*
X158175936Y-54658544D01*
X158200317Y-54670180D01*
X158204797Y-54670498D01*
X158208947Y-54672217D01*
X158233333Y-54674619D01*
X158352957Y-54672217D01*
X158398017Y-54653553D01*
X158432505Y-54619065D01*
X158451169Y-54574005D01*
X158451169Y-54525233D01*
X158432505Y-54480173D01*
X158398017Y-54445685D01*
X158352957Y-54427021D01*
X158328571Y-54424619D01*
X158264289Y-54425909D01*
X158231033Y-54410038D01*
X158215403Y-54380160D01*
X158214893Y-54193052D01*
X159301212Y-54193052D01*
X159319876Y-54238112D01*
X159354364Y-54272600D01*
X159399424Y-54291264D01*
X159423810Y-54293666D01*
X160210101Y-54291264D01*
X160255161Y-54272600D01*
X160289649Y-54238112D01*
X160308313Y-54193052D01*
X160308313Y-54144280D01*
X160289649Y-54099220D01*
X160255161Y-54064732D01*
X160210101Y-54046068D01*
X160185715Y-54043666D01*
X159399424Y-54046068D01*
X159354364Y-54064732D01*
X159319876Y-54099220D01*
X159301212Y-54144280D01*
X159301212Y-54193052D01*
X158214893Y-54193052D01*
X158214385Y-54006371D01*
X158352957Y-54005550D01*
X158398017Y-53986886D01*
X158432505Y-53952398D01*
X158451169Y-53907338D01*
X158451169Y-53858566D01*
X158432505Y-53813506D01*
X158398017Y-53779018D01*
X158352957Y-53760354D01*
X158328571Y-53757952D01*
X158213709Y-53758632D01*
X158213074Y-53525233D01*
X158194410Y-53480173D01*
X158159922Y-53445685D01*
X158114862Y-53427021D01*
X158066090Y-53427021D01*
X158021030Y-53445685D01*
X157986542Y-53480173D01*
X157967878Y-53525233D01*
X157965476Y-53549619D01*
X157966049Y-53760100D01*
X157923233Y-53760354D01*
X157878173Y-53779018D01*
X157852380Y-53804810D01*
X157826588Y-53779018D01*
X157781528Y-53760354D01*
X157757142Y-53757952D01*
X157642280Y-53758632D01*
X157641645Y-53525233D01*
X157622981Y-53480173D01*
X157588493Y-53445685D01*
X157543433Y-53427021D01*
X157494661Y-53427021D01*
X157449601Y-53445685D01*
X157415113Y-53480173D01*
X157396449Y-53525233D01*
X157394047Y-53549619D01*
X157394620Y-53760100D01*
X157351804Y-53760354D01*
X157306744Y-53779018D01*
X157272256Y-53813506D01*
X157253592Y-53858566D01*
X157253592Y-53907338D01*
X157121925Y-53907338D01*
X157107584Y-53879926D01*
X157103832Y-53868667D01*
X157098445Y-53862456D01*
X157093986Y-53853932D01*
X157082145Y-53843662D01*
X157071876Y-53831822D01*
X157059538Y-53824055D01*
X157057141Y-53821976D01*
X157055216Y-53821334D01*
X157051138Y-53818767D01*
X156970898Y-53780471D01*
X156969445Y-53779018D01*
X156957396Y-53774027D01*
X156933015Y-53762391D01*
X156928533Y-53762072D01*
X156924385Y-53760354D01*
X156899999Y-53757952D01*
X156727979Y-53759875D01*
X156725156Y-53758934D01*
X156708913Y-53760088D01*
X156685137Y-53760354D01*
X156680987Y-53762072D01*
X156676507Y-53762391D01*
X156653621Y-53771149D01*
X156537646Y-53831822D01*
X156505690Y-53868667D01*
X156490266Y-53914937D01*
X156493724Y-53963587D01*
X156515536Y-54007210D01*
X156552381Y-54039166D01*
X156598651Y-54054590D01*
X156647301Y-54051132D01*
X156670187Y-54042374D01*
X156736561Y-54007649D01*
X156868035Y-54006179D01*
X156902299Y-54022533D01*
X156913518Y-54043978D01*
X156728233Y-54045673D01*
X156725156Y-54044648D01*
X156708134Y-54045857D01*
X156685137Y-54046068D01*
X156680987Y-54047786D01*
X156676507Y-54048105D01*
X156653621Y-54056863D01*
X156563640Y-54103937D01*
X156552381Y-54107690D01*
X156546170Y-54113076D01*
X156537646Y-54117536D01*
X156527376Y-54129376D01*
X156515536Y-54139646D01*
X156507769Y-54151983D01*
X156505690Y-54154381D01*
X156505048Y-54156305D01*
X156502481Y-54160384D01*
X156464185Y-54240623D01*
X156462732Y-54242077D01*
X156457741Y-54254125D01*
X156446105Y-54278507D01*
X156445786Y-54282988D01*
X156444068Y-54287137D01*
X156441666Y-54311523D01*
X156310029Y-54311523D01*
X156308920Y-54234349D01*
X156309731Y-54231918D01*
X156308671Y-54217010D01*
X156308311Y-54191899D01*
X156306592Y-54187749D01*
X156306274Y-54183269D01*
X156297516Y-54160383D01*
X156247432Y-54064649D01*
X156242027Y-54051600D01*
X156238105Y-54046822D01*
X156236843Y-54044408D01*
X156234351Y-54042246D01*
X156226482Y-54032658D01*
X156193307Y-54001177D01*
X156194408Y-54000018D01*
X156195671Y-53996967D01*
X156202278Y-53986473D01*
X156240574Y-53906232D01*
X156242028Y-53904779D01*
X156247019Y-53892729D01*
X156258655Y-53868349D01*
X156258973Y-53863868D01*
X156260692Y-53859719D01*
X156263094Y-53835333D01*
X156261530Y-53757472D01*
X156262112Y-53755728D01*
X156261252Y-53743636D01*
X156260692Y-53715709D01*
X156258973Y-53711559D01*
X156258655Y-53707079D01*
X156249897Y-53684193D01*
X156199813Y-53588459D01*
X156194408Y-53575410D01*
X156190486Y-53570632D01*
X156189224Y-53568218D01*
X156186732Y-53566056D01*
X156178863Y-53556468D01*
X156127541Y-53507766D01*
X156119495Y-53498489D01*
X156114355Y-53495253D01*
X156112302Y-53493305D01*
X156109255Y-53492043D01*
X156098757Y-53485434D01*
X156018517Y-53447138D01*
X156017064Y-53445685D01*
X156005015Y-53440694D01*
X155980634Y-53429058D01*
X155976152Y-53428739D01*
X155972004Y-53427021D01*
X155947618Y-53424619D01*
X155589899Y-53427021D01*
X155544839Y-53445685D01*
X155510351Y-53480173D01*
X155491687Y-53525233D01*
X155489285Y-53549619D01*
X153366687Y-53549619D01*
X153366687Y-53299619D01*
X160433313Y-53299619D01*
X160433313Y-54799619D01*
G37*
G36*
X154499982Y-60230517D02*
G01*
X154520147Y-60249654D01*
X154546636Y-60300286D01*
X154548390Y-60526778D01*
X154523861Y-60578173D01*
X154504725Y-60598338D01*
X154453744Y-60625009D01*
X154369694Y-60626216D01*
X154319066Y-60602053D01*
X154298899Y-60582915D01*
X154272410Y-60532283D01*
X154270656Y-60305790D01*
X154295184Y-60254397D01*
X154314321Y-60234232D01*
X154365302Y-60207561D01*
X154449352Y-60206354D01*
X154499982Y-60230517D01*
G37*
G36*
X156442836Y-60999619D02*
G01*
X152802381Y-60999619D01*
X152802381Y-59749619D01*
X152927381Y-59749619D01*
X152929783Y-60774005D01*
X152948447Y-60819065D01*
X152982935Y-60853553D01*
X153027995Y-60872217D01*
X153076767Y-60872217D01*
X153121827Y-60853553D01*
X153156315Y-60819065D01*
X153174979Y-60774005D01*
X153177381Y-60749619D01*
X153176343Y-60306944D01*
X153272669Y-60511775D01*
X153278831Y-60528720D01*
X153282544Y-60532775D01*
X153284930Y-60537847D01*
X153298938Y-60550675D01*
X153311771Y-60564688D01*
X153316803Y-60567036D01*
X153320899Y-60570787D01*
X153338749Y-60577278D01*
X153355967Y-60585313D01*
X153361516Y-60585556D01*
X153366736Y-60587455D01*
X153385714Y-60586620D01*
X153404693Y-60587455D01*
X153409912Y-60585556D01*
X153415461Y-60585313D01*
X153432674Y-60577279D01*
X153450530Y-60570787D01*
X153454626Y-60567035D01*
X153459657Y-60564688D01*
X153472487Y-60550677D01*
X153486498Y-60537847D01*
X153490637Y-60530860D01*
X153492597Y-60528720D01*
X153493697Y-60525694D01*
X153498987Y-60516765D01*
X153595357Y-60308652D01*
X153596449Y-60774005D01*
X153615113Y-60819065D01*
X153649601Y-60853553D01*
X153694661Y-60872217D01*
X153743433Y-60872217D01*
X153788493Y-60853553D01*
X153822981Y-60819065D01*
X153841645Y-60774005D01*
X153844047Y-60749619D01*
X153842930Y-60273428D01*
X154022619Y-60273428D01*
X154024685Y-60540250D01*
X154023600Y-60543508D01*
X154024846Y-60561050D01*
X154025021Y-60583528D01*
X154026739Y-60587676D01*
X154027058Y-60592158D01*
X154035816Y-60615044D01*
X154085900Y-60710778D01*
X154091304Y-60723825D01*
X154095224Y-60728602D01*
X154096489Y-60731019D01*
X154098983Y-60733182D01*
X154106849Y-60742767D01*
X154158176Y-60791477D01*
X154166218Y-60800749D01*
X154171351Y-60803980D01*
X154173409Y-60805933D01*
X154176462Y-60807197D01*
X154186955Y-60813803D01*
X154267195Y-60852099D01*
X154268649Y-60853553D01*
X154280698Y-60858544D01*
X154305079Y-60870180D01*
X154309559Y-60870498D01*
X154313709Y-60872217D01*
X154338095Y-60874619D01*
X154462884Y-60872826D01*
X154465318Y-60873638D01*
X154480238Y-60872577D01*
X154505338Y-60872217D01*
X154509486Y-60870498D01*
X154513968Y-60870180D01*
X154536854Y-60861422D01*
X154632586Y-60811338D01*
X154645637Y-60805933D01*
X154650414Y-60802012D01*
X154652829Y-60800749D01*
X154654991Y-60798255D01*
X154664579Y-60790387D01*
X154713280Y-60739065D01*
X154722558Y-60731019D01*
X154725793Y-60725879D01*
X154727743Y-60723825D01*
X154729005Y-60720776D01*
X154735612Y-60710282D01*
X154773908Y-60630041D01*
X154775362Y-60628588D01*
X154780353Y-60616538D01*
X154791989Y-60592158D01*
X154792307Y-60587677D01*
X154794026Y-60583528D01*
X154796428Y-60559142D01*
X154794361Y-60292315D01*
X154795446Y-60289061D01*
X154794200Y-60271529D01*
X154794026Y-60249042D01*
X154792307Y-60244892D01*
X154791989Y-60240412D01*
X154783231Y-60217526D01*
X154733147Y-60121792D01*
X154727742Y-60108743D01*
X154726589Y-60107338D01*
X154834545Y-60107338D01*
X154853209Y-60152398D01*
X154887697Y-60186886D01*
X154932757Y-60205550D01*
X154957143Y-60207952D01*
X154976248Y-60207838D01*
X154977282Y-60587223D01*
X154975981Y-60591127D01*
X154977345Y-60610320D01*
X154977402Y-60631147D01*
X154979120Y-60635296D01*
X154979439Y-60639776D01*
X154988196Y-60662662D01*
X155035271Y-60752645D01*
X155039024Y-60763904D01*
X155044409Y-60770113D01*
X155048869Y-60778638D01*
X155060711Y-60788909D01*
X155070980Y-60800749D01*
X155083313Y-60808513D01*
X155085714Y-60810595D01*
X155087641Y-60811237D01*
X155091717Y-60813803D01*
X155171957Y-60852099D01*
X155173411Y-60853553D01*
X155185460Y-60858544D01*
X155209841Y-60870180D01*
X155214321Y-60870498D01*
X155218471Y-60872217D01*
X155242857Y-60874619D01*
X155362481Y-60872217D01*
X155407541Y-60853553D01*
X155442029Y-60819065D01*
X155460693Y-60774005D01*
X155460693Y-60725233D01*
X155442029Y-60680173D01*
X155407541Y-60645685D01*
X155362481Y-60627021D01*
X155338095Y-60624619D01*
X155273813Y-60625909D01*
X155240557Y-60610038D01*
X155224927Y-60580160D01*
X155223909Y-60206371D01*
X155362481Y-60205550D01*
X155407541Y-60186886D01*
X155442029Y-60152398D01*
X155460693Y-60107338D01*
X155460693Y-60058566D01*
X155444594Y-60019699D01*
X155499791Y-60019699D01*
X155503249Y-60068349D01*
X155525061Y-60111972D01*
X155561906Y-60143928D01*
X155608176Y-60159352D01*
X155656826Y-60155894D01*
X155679712Y-60147136D01*
X155775448Y-60097050D01*
X155785329Y-60092958D01*
X155786579Y-60626266D01*
X155599424Y-60627021D01*
X155554364Y-60645685D01*
X155519876Y-60680173D01*
X155501212Y-60725233D01*
X155501212Y-60774005D01*
X155519876Y-60819065D01*
X155554364Y-60853553D01*
X155599424Y-60872217D01*
X155623810Y-60874619D01*
X156219624Y-60872217D01*
X156264684Y-60853553D01*
X156299172Y-60819065D01*
X156317836Y-60774005D01*
X156317836Y-60725233D01*
X156299172Y-60680173D01*
X156264684Y-60645685D01*
X156219624Y-60627021D01*
X156195238Y-60624619D01*
X156034232Y-60625268D01*
X156032206Y-59761203D01*
X156034524Y-59749488D01*
X156032151Y-59737623D01*
X156032122Y-59725233D01*
X156027386Y-59713800D01*
X156024959Y-59701662D01*
X156018143Y-59691485D01*
X156013458Y-59680173D01*
X156004707Y-59671422D01*
X155997820Y-59661138D01*
X155987629Y-59654344D01*
X155978970Y-59645685D01*
X155967537Y-59640949D01*
X155957239Y-59634084D01*
X155945223Y-59631706D01*
X155933910Y-59627021D01*
X155921536Y-59627021D01*
X155909394Y-59624619D01*
X155897384Y-59627021D01*
X155885138Y-59627021D01*
X155873704Y-59631756D01*
X155861568Y-59634184D01*
X155851392Y-59640998D01*
X155840078Y-59645685D01*
X155831327Y-59654435D01*
X155821043Y-59661323D01*
X155805680Y-59680082D01*
X155805590Y-59680173D01*
X155805573Y-59680213D01*
X155805518Y-59680281D01*
X155723645Y-59806409D01*
X155649063Y-59883278D01*
X155547171Y-59936584D01*
X155515215Y-59973429D01*
X155499791Y-60019699D01*
X155444594Y-60019699D01*
X155442029Y-60013506D01*
X155407541Y-59979018D01*
X155362481Y-59960354D01*
X155338095Y-59957952D01*
X155223233Y-59958632D01*
X155222598Y-59725233D01*
X155203934Y-59680173D01*
X155169446Y-59645685D01*
X155124386Y-59627021D01*
X155075614Y-59627021D01*
X155030554Y-59645685D01*
X154996066Y-59680173D01*
X154977402Y-59725233D01*
X154975000Y-59749619D01*
X154975573Y-59960100D01*
X154932757Y-59960354D01*
X154887697Y-59979018D01*
X154853209Y-60013506D01*
X154834545Y-60058566D01*
X154834545Y-60107338D01*
X154726589Y-60107338D01*
X154723820Y-60103965D01*
X154722558Y-60101551D01*
X154720066Y-60099389D01*
X154712197Y-60089801D01*
X154660875Y-60041099D01*
X154652829Y-60031822D01*
X154647689Y-60028586D01*
X154645636Y-60026638D01*
X154642589Y-60025376D01*
X154632091Y-60018767D01*
X154551851Y-59980471D01*
X154550398Y-59979018D01*
X154538349Y-59974027D01*
X154513968Y-59962391D01*
X154509486Y-59962072D01*
X154505338Y-59960354D01*
X154480952Y-59957952D01*
X154356159Y-59959744D01*
X154353728Y-59958934D01*
X154338820Y-59959993D01*
X154313709Y-59960354D01*
X154309559Y-59962072D01*
X154305079Y-59962391D01*
X154282193Y-59971149D01*
X154186459Y-60021232D01*
X154173410Y-60026638D01*
X154168632Y-60030559D01*
X154166218Y-60031822D01*
X154164056Y-60034313D01*
X154154468Y-60042183D01*
X154105766Y-60093504D01*
X154096489Y-60101551D01*
X154093253Y-60106690D01*
X154091305Y-60108744D01*
X154090043Y-60111790D01*
X154083434Y-60122289D01*
X154045138Y-60202528D01*
X154043685Y-60203982D01*
X154038694Y-60216030D01*
X154027058Y-60240412D01*
X154026739Y-60244893D01*
X154025021Y-60249042D01*
X154022619Y-60273428D01*
X153842930Y-60273428D01*
X153841705Y-59750946D01*
X153842598Y-59730640D01*
X153841651Y-59728037D01*
X153841645Y-59725233D01*
X153833345Y-59705196D01*
X153825930Y-59684803D01*
X153824047Y-59682747D01*
X153822981Y-59680173D01*
X153807643Y-59664835D01*
X153792990Y-59648835D01*
X153790464Y-59647656D01*
X153788493Y-59645685D01*
X153768454Y-59637384D01*
X153748794Y-59628210D01*
X153746007Y-59628087D01*
X153743433Y-59627021D01*
X153721747Y-59627021D01*
X153700069Y-59626068D01*
X153697448Y-59627021D01*
X153694661Y-59627021D01*
X153674617Y-59635323D01*
X153654232Y-59642736D01*
X153652176Y-59644618D01*
X153649601Y-59645685D01*
X153634258Y-59661027D01*
X153618263Y-59675676D01*
X153616305Y-59678980D01*
X153615113Y-59680173D01*
X153613983Y-59682900D01*
X153605774Y-59696758D01*
X153386133Y-60171068D01*
X153163962Y-59698636D01*
X153156315Y-59680173D01*
X153154360Y-59678218D01*
X153153165Y-59675676D01*
X153137164Y-59661022D01*
X153121827Y-59645685D01*
X153119252Y-59644618D01*
X153117197Y-59642736D01*
X153096803Y-59635320D01*
X153076767Y-59627021D01*
X153073981Y-59627021D01*
X153071360Y-59626068D01*
X153049681Y-59627021D01*
X153027995Y-59627021D01*
X153025420Y-59628087D01*
X153022634Y-59628210D01*
X153002973Y-59637384D01*
X152982935Y-59645685D01*
X152980963Y-59647656D01*
X152978438Y-59648835D01*
X152963784Y-59664835D01*
X152948447Y-59680173D01*
X152947380Y-59682747D01*
X152945498Y-59684803D01*
X152938082Y-59705196D01*
X152929783Y-59725233D01*
X152929406Y-59729054D01*
X152928830Y-59730640D01*
X152928959Y-59733591D01*
X152927381Y-59749619D01*
X152802381Y-59749619D01*
X152802381Y-59499619D01*
X156442836Y-59499619D01*
X156442836Y-60999619D01*
G37*
G36*
X154499982Y-63530517D02*
G01*
X154520147Y-63549654D01*
X154546636Y-63600286D01*
X154548390Y-63826778D01*
X154523861Y-63878173D01*
X154504725Y-63898338D01*
X154453744Y-63925009D01*
X154369694Y-63926216D01*
X154319066Y-63902053D01*
X154298899Y-63882915D01*
X154272410Y-63832283D01*
X154270656Y-63605790D01*
X154295184Y-63554397D01*
X154314321Y-63534232D01*
X154365302Y-63507561D01*
X154449352Y-63506354D01*
X154499982Y-63530517D01*
G37*
G36*
X156445238Y-64299619D02*
G01*
X152802381Y-64299619D01*
X152802381Y-63049619D01*
X152927381Y-63049619D01*
X152929783Y-64074005D01*
X152948447Y-64119065D01*
X152982935Y-64153553D01*
X153027995Y-64172217D01*
X153076767Y-64172217D01*
X153121827Y-64153553D01*
X153156315Y-64119065D01*
X153174979Y-64074005D01*
X153177381Y-64049619D01*
X153176343Y-63606944D01*
X153272669Y-63811775D01*
X153278831Y-63828720D01*
X153282544Y-63832775D01*
X153284930Y-63837847D01*
X153298938Y-63850675D01*
X153311771Y-63864688D01*
X153316803Y-63867036D01*
X153320899Y-63870787D01*
X153338749Y-63877278D01*
X153355967Y-63885313D01*
X153361516Y-63885556D01*
X153366736Y-63887455D01*
X153385714Y-63886620D01*
X153404693Y-63887455D01*
X153409912Y-63885556D01*
X153415461Y-63885313D01*
X153432674Y-63877279D01*
X153450530Y-63870787D01*
X153454626Y-63867035D01*
X153459657Y-63864688D01*
X153472487Y-63850677D01*
X153486498Y-63837847D01*
X153490637Y-63830860D01*
X153492597Y-63828720D01*
X153493697Y-63825694D01*
X153498987Y-63816765D01*
X153595357Y-63608652D01*
X153596449Y-64074005D01*
X153615113Y-64119065D01*
X153649601Y-64153553D01*
X153694661Y-64172217D01*
X153743433Y-64172217D01*
X153788493Y-64153553D01*
X153822981Y-64119065D01*
X153841645Y-64074005D01*
X153844047Y-64049619D01*
X153842930Y-63573428D01*
X154022619Y-63573428D01*
X154024685Y-63840250D01*
X154023600Y-63843508D01*
X154024846Y-63861050D01*
X154025021Y-63883528D01*
X154026739Y-63887676D01*
X154027058Y-63892158D01*
X154035816Y-63915044D01*
X154085900Y-64010778D01*
X154091304Y-64023825D01*
X154095224Y-64028602D01*
X154096489Y-64031019D01*
X154098983Y-64033182D01*
X154106849Y-64042767D01*
X154158176Y-64091477D01*
X154166218Y-64100749D01*
X154171351Y-64103980D01*
X154173409Y-64105933D01*
X154176462Y-64107197D01*
X154186955Y-64113803D01*
X154267195Y-64152099D01*
X154268649Y-64153553D01*
X154280698Y-64158544D01*
X154305079Y-64170180D01*
X154309559Y-64170498D01*
X154313709Y-64172217D01*
X154338095Y-64174619D01*
X154462884Y-64172826D01*
X154465318Y-64173638D01*
X154480238Y-64172577D01*
X154505338Y-64172217D01*
X154509486Y-64170498D01*
X154513968Y-64170180D01*
X154536854Y-64161422D01*
X154632586Y-64111338D01*
X154645637Y-64105933D01*
X154650414Y-64102012D01*
X154652829Y-64100749D01*
X154654991Y-64098255D01*
X154664579Y-64090387D01*
X154713280Y-64039065D01*
X154722558Y-64031019D01*
X154725793Y-64025879D01*
X154727743Y-64023825D01*
X154729005Y-64020776D01*
X154735612Y-64010282D01*
X154773908Y-63930041D01*
X154775362Y-63928588D01*
X154780353Y-63916538D01*
X154791989Y-63892158D01*
X154792307Y-63887677D01*
X154794026Y-63883528D01*
X154796428Y-63859142D01*
X154794361Y-63592315D01*
X154795446Y-63589061D01*
X154794200Y-63571529D01*
X154794026Y-63549042D01*
X154792307Y-63544892D01*
X154791989Y-63540412D01*
X154783231Y-63517526D01*
X154733147Y-63421792D01*
X154727742Y-63408743D01*
X154726589Y-63407338D01*
X154834545Y-63407338D01*
X154853209Y-63452398D01*
X154887697Y-63486886D01*
X154932757Y-63505550D01*
X154957143Y-63507952D01*
X154976248Y-63507838D01*
X154977282Y-63887223D01*
X154975981Y-63891127D01*
X154977345Y-63910320D01*
X154977402Y-63931147D01*
X154979120Y-63935296D01*
X154979439Y-63939776D01*
X154988196Y-63962662D01*
X155035271Y-64052645D01*
X155039024Y-64063904D01*
X155044409Y-64070113D01*
X155048869Y-64078638D01*
X155060711Y-64088909D01*
X155070980Y-64100749D01*
X155083313Y-64108513D01*
X155085714Y-64110595D01*
X155087641Y-64111237D01*
X155091717Y-64113803D01*
X155171957Y-64152099D01*
X155173411Y-64153553D01*
X155185460Y-64158544D01*
X155209841Y-64170180D01*
X155214321Y-64170498D01*
X155218471Y-64172217D01*
X155242857Y-64174619D01*
X155362481Y-64172217D01*
X155407541Y-64153553D01*
X155442029Y-64119065D01*
X155457142Y-64082575D01*
X155459059Y-64087203D01*
X155472257Y-64119065D01*
X155506745Y-64153553D01*
X155538606Y-64166750D01*
X155551804Y-64172217D01*
X155551805Y-64172217D01*
X155576191Y-64174619D01*
X156219624Y-64172217D01*
X156264684Y-64153553D01*
X156299172Y-64119065D01*
X156317836Y-64074005D01*
X156317836Y-64025233D01*
X156299172Y-63980173D01*
X156264684Y-63945685D01*
X156219624Y-63927021D01*
X156195238Y-63924619D01*
X155875552Y-63925812D01*
X156220597Y-63578769D01*
X156224259Y-63576939D01*
X156236834Y-63562438D01*
X156251552Y-63547636D01*
X156253270Y-63543486D01*
X156256214Y-63540093D01*
X156266204Y-63517718D01*
X156311953Y-63373921D01*
X156317836Y-63359719D01*
X156318447Y-63353508D01*
X156319256Y-63350968D01*
X156319022Y-63347676D01*
X156320238Y-63335333D01*
X156318674Y-63257472D01*
X156319256Y-63255728D01*
X156318396Y-63243636D01*
X156317836Y-63215709D01*
X156316117Y-63211559D01*
X156315799Y-63207079D01*
X156307041Y-63184193D01*
X156256957Y-63088459D01*
X156251552Y-63075410D01*
X156247630Y-63070632D01*
X156246368Y-63068218D01*
X156243876Y-63066056D01*
X156236007Y-63056468D01*
X156184685Y-63007766D01*
X156176639Y-62998489D01*
X156171499Y-62995253D01*
X156169446Y-62993305D01*
X156166399Y-62992043D01*
X156155901Y-62985434D01*
X156075661Y-62947138D01*
X156074208Y-62945685D01*
X156062159Y-62940694D01*
X156037778Y-62929058D01*
X156033296Y-62928739D01*
X156029148Y-62927021D01*
X156004762Y-62924619D01*
X155785377Y-62926626D01*
X155782300Y-62925601D01*
X155765278Y-62926810D01*
X155742281Y-62927021D01*
X155738131Y-62928739D01*
X155733651Y-62929058D01*
X155710765Y-62937816D01*
X155615031Y-62987899D01*
X155601982Y-62993305D01*
X155597204Y-62997226D01*
X155594790Y-62998489D01*
X155592628Y-63000980D01*
X155583040Y-63008850D01*
X155519877Y-63075411D01*
X155501212Y-63120470D01*
X155501212Y-63169244D01*
X155519877Y-63214303D01*
X155554364Y-63248790D01*
X155599423Y-63267455D01*
X155648197Y-63267455D01*
X155693256Y-63248790D01*
X155712198Y-63233245D01*
X155742893Y-63200899D01*
X155793598Y-63174372D01*
X155972563Y-63172734D01*
X156023792Y-63197184D01*
X156043957Y-63216321D01*
X156070790Y-63267611D01*
X156071671Y-63311461D01*
X156040873Y-63408266D01*
X155472430Y-63979999D01*
X155472257Y-63980173D01*
X155459786Y-64010282D01*
X155457142Y-64016662D01*
X155442029Y-63980173D01*
X155407541Y-63945685D01*
X155362481Y-63927021D01*
X155338095Y-63924619D01*
X155273813Y-63925909D01*
X155240557Y-63910038D01*
X155224927Y-63880160D01*
X155223909Y-63506371D01*
X155362481Y-63505550D01*
X155407541Y-63486886D01*
X155442029Y-63452398D01*
X155460693Y-63407338D01*
X155460693Y-63358566D01*
X155442029Y-63313506D01*
X155407541Y-63279018D01*
X155362481Y-63260354D01*
X155338095Y-63257952D01*
X155223233Y-63258632D01*
X155222598Y-63025233D01*
X155203934Y-62980173D01*
X155169446Y-62945685D01*
X155124386Y-62927021D01*
X155075614Y-62927021D01*
X155030554Y-62945685D01*
X154996066Y-62980173D01*
X154977402Y-63025233D01*
X154975000Y-63049619D01*
X154975573Y-63260100D01*
X154932757Y-63260354D01*
X154887697Y-63279018D01*
X154853209Y-63313506D01*
X154834545Y-63358566D01*
X154834545Y-63407338D01*
X154726589Y-63407338D01*
X154723820Y-63403965D01*
X154722558Y-63401551D01*
X154720066Y-63399389D01*
X154712197Y-63389801D01*
X154660875Y-63341099D01*
X154652829Y-63331822D01*
X154647689Y-63328586D01*
X154645636Y-63326638D01*
X154642589Y-63325376D01*
X154632091Y-63318767D01*
X154551851Y-63280471D01*
X154550398Y-63279018D01*
X154538349Y-63274027D01*
X154513968Y-63262391D01*
X154509486Y-63262072D01*
X154505338Y-63260354D01*
X154480952Y-63257952D01*
X154356159Y-63259744D01*
X154353728Y-63258934D01*
X154338820Y-63259993D01*
X154313709Y-63260354D01*
X154309559Y-63262072D01*
X154305079Y-63262391D01*
X154282193Y-63271149D01*
X154186459Y-63321232D01*
X154173410Y-63326638D01*
X154168632Y-63330559D01*
X154166218Y-63331822D01*
X154164056Y-63334313D01*
X154154468Y-63342183D01*
X154105766Y-63393504D01*
X154096489Y-63401551D01*
X154093253Y-63406690D01*
X154091305Y-63408744D01*
X154090043Y-63411790D01*
X154083434Y-63422289D01*
X154045138Y-63502528D01*
X154043685Y-63503982D01*
X154038694Y-63516030D01*
X154027058Y-63540412D01*
X154026739Y-63544893D01*
X154025021Y-63549042D01*
X154022619Y-63573428D01*
X153842930Y-63573428D01*
X153841705Y-63050946D01*
X153842598Y-63030640D01*
X153841651Y-63028037D01*
X153841645Y-63025233D01*
X153833345Y-63005196D01*
X153825930Y-62984803D01*
X153824047Y-62982747D01*
X153822981Y-62980173D01*
X153807643Y-62964835D01*
X153792990Y-62948835D01*
X153790464Y-62947656D01*
X153788493Y-62945685D01*
X153768454Y-62937384D01*
X153748794Y-62928210D01*
X153746007Y-62928087D01*
X153743433Y-62927021D01*
X153721747Y-62927021D01*
X153700069Y-62926068D01*
X153697448Y-62927021D01*
X153694661Y-62927021D01*
X153674617Y-62935323D01*
X153654232Y-62942736D01*
X153652176Y-62944618D01*
X153649601Y-62945685D01*
X153634258Y-62961027D01*
X153618263Y-62975676D01*
X153616305Y-62978980D01*
X153615113Y-62980173D01*
X153613983Y-62982900D01*
X153605774Y-62996758D01*
X153386133Y-63471068D01*
X153163962Y-62998636D01*
X153156315Y-62980173D01*
X153154360Y-62978218D01*
X153153165Y-62975676D01*
X153137164Y-62961022D01*
X153121827Y-62945685D01*
X153119252Y-62944618D01*
X153117197Y-62942736D01*
X153096803Y-62935320D01*
X153076767Y-62927021D01*
X153073981Y-62927021D01*
X153071360Y-62926068D01*
X153049681Y-62927021D01*
X153027995Y-62927021D01*
X153025420Y-62928087D01*
X153022634Y-62928210D01*
X153002973Y-62937384D01*
X152982935Y-62945685D01*
X152980963Y-62947656D01*
X152978438Y-62948835D01*
X152963784Y-62964835D01*
X152948447Y-62980173D01*
X152947380Y-62982747D01*
X152945498Y-62984803D01*
X152938082Y-63005196D01*
X152929783Y-63025233D01*
X152929406Y-63029054D01*
X152928830Y-63030640D01*
X152928959Y-63033591D01*
X152927381Y-63049619D01*
X152802381Y-63049619D01*
X152802381Y-62799619D01*
X156445238Y-62799619D01*
X156445238Y-64299619D01*
G37*
D12*
G36*
X203617495Y-69932406D02*
G01*
X201484161Y-69932406D01*
X201484161Y-69188504D01*
X201650828Y-69188504D01*
X201653710Y-69202913D01*
X201653710Y-69217610D01*
X201659393Y-69231330D01*
X201662306Y-69245893D01*
X201670483Y-69258104D01*
X201676108Y-69271682D01*
X201686609Y-69282183D01*
X201694873Y-69294523D01*
X201717385Y-69312959D01*
X201717492Y-69313066D01*
X201717539Y-69313085D01*
X201717623Y-69313154D01*
X201911342Y-69439507D01*
X202032287Y-69557475D01*
X202110901Y-69708885D01*
X202155116Y-69747231D01*
X202210639Y-69765739D01*
X202269019Y-69761590D01*
X202321368Y-69735416D01*
X202359715Y-69691200D01*
X202378222Y-69635678D01*
X202374073Y-69577298D01*
X202363564Y-69549834D01*
X202289555Y-69407294D01*
X202282692Y-69390724D01*
X202277955Y-69384952D01*
X202276470Y-69382092D01*
X202273477Y-69379496D01*
X202264037Y-69367994D01*
X202232806Y-69337531D01*
X203152700Y-69335798D01*
X203153710Y-69646181D01*
X203176108Y-69700253D01*
X203217492Y-69741637D01*
X203271564Y-69764035D01*
X203330092Y-69764035D01*
X203384164Y-69741637D01*
X203425548Y-69700253D01*
X203447946Y-69646181D01*
X203450828Y-69616917D01*
X203447946Y-68730510D01*
X203425548Y-68676438D01*
X203384164Y-68635054D01*
X203330092Y-68612656D01*
X203271564Y-68612656D01*
X203217492Y-68635054D01*
X203176108Y-68676438D01*
X203153710Y-68730510D01*
X203150828Y-68759774D01*
X203151734Y-69038626D01*
X201814826Y-69041146D01*
X201800670Y-69038346D01*
X201786400Y-69041200D01*
X201771564Y-69041228D01*
X201757843Y-69046911D01*
X201743281Y-69049824D01*
X201731069Y-69058001D01*
X201717492Y-69063626D01*
X201706990Y-69074127D01*
X201694651Y-69082391D01*
X201686499Y-69094618D01*
X201676108Y-69105010D01*
X201670424Y-69118731D01*
X201662186Y-69131089D01*
X201659334Y-69145503D01*
X201653710Y-69159082D01*
X201653710Y-69173935D01*
X201650828Y-69188504D01*
X201484161Y-69188504D01*
X201484161Y-68445989D01*
X203617495Y-68445989D01*
X203617495Y-69932406D01*
G37*
D11*
G36*
X180659523Y-68999619D02*
G01*
X176590497Y-68999619D01*
X176590497Y-68393052D01*
X176715497Y-68393052D01*
X176734161Y-68438112D01*
X176768649Y-68472600D01*
X176813709Y-68491264D01*
X176838095Y-68493666D01*
X177095590Y-68492879D01*
X177096449Y-68774005D01*
X177115113Y-68819065D01*
X177149601Y-68853553D01*
X177194661Y-68872217D01*
X177243433Y-68872217D01*
X177288493Y-68853553D01*
X177322981Y-68819065D01*
X177341645Y-68774005D01*
X177344047Y-68749619D01*
X177343830Y-68678765D01*
X177858354Y-68678765D01*
X177877018Y-68723825D01*
X177892563Y-68742767D01*
X177943890Y-68791477D01*
X177951932Y-68800749D01*
X177957065Y-68803980D01*
X177959123Y-68805933D01*
X177962176Y-68807197D01*
X177972669Y-68813803D01*
X178052909Y-68852099D01*
X178054363Y-68853553D01*
X178066412Y-68858544D01*
X178090793Y-68870180D01*
X178095273Y-68870498D01*
X178099423Y-68872217D01*
X178123809Y-68874619D01*
X178390631Y-68872552D01*
X178393889Y-68873638D01*
X178411431Y-68872391D01*
X178433909Y-68872217D01*
X178438057Y-68870498D01*
X178442539Y-68870180D01*
X178465425Y-68861422D01*
X178561157Y-68811338D01*
X178574208Y-68805933D01*
X178578985Y-68802012D01*
X178581400Y-68800749D01*
X178583562Y-68798255D01*
X178593150Y-68790387D01*
X178641851Y-68739065D01*
X178651129Y-68731019D01*
X178654364Y-68725879D01*
X178656314Y-68723825D01*
X178657576Y-68720776D01*
X178664183Y-68710282D01*
X178702479Y-68630041D01*
X178703933Y-68628588D01*
X178708924Y-68616538D01*
X178720560Y-68592158D01*
X178720878Y-68587677D01*
X178722597Y-68583528D01*
X178724999Y-68559142D01*
X178722991Y-68339757D01*
X178724017Y-68336680D01*
X178722807Y-68319658D01*
X178722597Y-68296661D01*
X178720878Y-68292511D01*
X178720560Y-68288031D01*
X178711802Y-68265145D01*
X178661718Y-68169411D01*
X178656313Y-68156362D01*
X178652391Y-68151584D01*
X178651129Y-68149170D01*
X178648637Y-68147008D01*
X178640768Y-68137420D01*
X178589446Y-68088718D01*
X178581400Y-68079441D01*
X178576260Y-68076205D01*
X178574207Y-68074257D01*
X178571160Y-68072995D01*
X178560662Y-68066386D01*
X178509095Y-68041775D01*
X178690858Y-67832139D01*
X178703933Y-67819065D01*
X178705523Y-67815226D01*
X178708322Y-67811998D01*
X178714828Y-67792759D01*
X178722597Y-67774005D01*
X178722597Y-67769791D01*
X178723948Y-67765797D01*
X178723912Y-67765253D01*
X178761696Y-67765253D01*
X178767129Y-67789147D01*
X179097878Y-68774078D01*
X179098486Y-68782634D01*
X179105384Y-68796430D01*
X179110452Y-68811522D01*
X179116302Y-68818268D01*
X179120298Y-68826259D01*
X179132138Y-68836527D01*
X179142407Y-68848368D01*
X179150398Y-68852363D01*
X179157144Y-68858214D01*
X179172009Y-68863169D01*
X179186031Y-68870180D01*
X179194941Y-68870813D01*
X179203413Y-68873637D01*
X179219046Y-68872526D01*
X179234681Y-68873637D01*
X179243152Y-68870813D01*
X179252062Y-68870180D01*
X179266082Y-68863169D01*
X179280950Y-68858214D01*
X179287695Y-68852363D01*
X179295687Y-68848368D01*
X179305958Y-68836524D01*
X179317796Y-68826258D01*
X179321790Y-68818269D01*
X179327642Y-68811522D01*
X179337632Y-68789147D01*
X179671004Y-67781554D01*
X179686542Y-67819065D01*
X179721030Y-67853553D01*
X179766090Y-67872217D01*
X179790476Y-67874619D01*
X180136823Y-67873326D01*
X179985330Y-68048050D01*
X179972256Y-68061125D01*
X179970665Y-68064963D01*
X179967867Y-68068192D01*
X179961360Y-68087430D01*
X179953592Y-68106185D01*
X179953592Y-68110398D01*
X179952241Y-68114393D01*
X179953592Y-68134654D01*
X179953592Y-68154957D01*
X179955205Y-68158852D01*
X179955486Y-68163059D01*
X179964485Y-68181257D01*
X179972256Y-68200017D01*
X179975237Y-68202998D01*
X179977106Y-68206777D01*
X179992386Y-68220147D01*
X180006744Y-68234505D01*
X180010638Y-68236118D01*
X180013811Y-68238894D01*
X180033049Y-68245400D01*
X180051804Y-68253169D01*
X180057748Y-68253754D01*
X180060012Y-68254520D01*
X180063296Y-68254300D01*
X180076190Y-68255571D01*
X180187447Y-68253973D01*
X180238077Y-68278136D01*
X180258242Y-68297273D01*
X180284769Y-68347978D01*
X180286407Y-68526942D01*
X180261956Y-68578173D01*
X180242820Y-68598338D01*
X180192188Y-68624827D01*
X179965696Y-68626581D01*
X179914304Y-68602053D01*
X179859923Y-68550447D01*
X179814864Y-68531782D01*
X179766091Y-68531782D01*
X179721031Y-68550446D01*
X179686543Y-68584933D01*
X179667878Y-68629992D01*
X179667878Y-68678765D01*
X179686542Y-68723825D01*
X179702087Y-68742767D01*
X179753414Y-68791477D01*
X179761456Y-68800749D01*
X179766589Y-68803980D01*
X179768647Y-68805933D01*
X179771700Y-68807197D01*
X179782193Y-68813803D01*
X179862433Y-68852099D01*
X179863887Y-68853553D01*
X179875936Y-68858544D01*
X179900317Y-68870180D01*
X179904797Y-68870498D01*
X179908947Y-68872217D01*
X179933333Y-68874619D01*
X180200155Y-68872552D01*
X180203413Y-68873638D01*
X180220955Y-68872391D01*
X180243433Y-68872217D01*
X180247581Y-68870498D01*
X180252063Y-68870180D01*
X180274949Y-68861422D01*
X180370681Y-68811338D01*
X180383732Y-68805933D01*
X180388509Y-68802012D01*
X180390924Y-68800749D01*
X180393086Y-68798255D01*
X180402674Y-68790387D01*
X180451375Y-68739065D01*
X180460653Y-68731019D01*
X180463888Y-68725879D01*
X180465838Y-68723825D01*
X180467100Y-68720776D01*
X180473707Y-68710282D01*
X180512003Y-68630041D01*
X180513457Y-68628588D01*
X180518448Y-68616538D01*
X180530084Y-68592158D01*
X180530402Y-68587677D01*
X180532121Y-68583528D01*
X180534523Y-68559142D01*
X180532515Y-68339757D01*
X180533541Y-68336680D01*
X180532331Y-68319658D01*
X180532121Y-68296661D01*
X180530402Y-68292511D01*
X180530084Y-68288031D01*
X180521326Y-68265145D01*
X180471242Y-68169411D01*
X180465837Y-68156362D01*
X180461915Y-68151584D01*
X180460653Y-68149170D01*
X180458161Y-68147008D01*
X180450292Y-68137420D01*
X180398970Y-68088718D01*
X180390924Y-68079441D01*
X180385784Y-68076205D01*
X180383731Y-68074257D01*
X180380684Y-68072995D01*
X180370186Y-68066386D01*
X180318619Y-68041775D01*
X180500382Y-67832139D01*
X180513457Y-67819065D01*
X180515047Y-67815226D01*
X180517846Y-67811998D01*
X180524352Y-67792759D01*
X180532121Y-67774005D01*
X180532121Y-67769791D01*
X180533472Y-67765797D01*
X180532121Y-67745529D01*
X180532121Y-67725233D01*
X180530508Y-67721340D01*
X180530228Y-67717131D01*
X180521224Y-67698925D01*
X180513457Y-67680173D01*
X180510475Y-67677191D01*
X180508607Y-67673413D01*
X180493326Y-67660042D01*
X180478969Y-67645685D01*
X180475074Y-67644071D01*
X180471902Y-67641296D01*
X180452663Y-67634789D01*
X180433909Y-67627021D01*
X180427964Y-67626435D01*
X180425701Y-67625670D01*
X180422416Y-67625888D01*
X180409523Y-67624619D01*
X179766090Y-67627021D01*
X179721030Y-67645685D01*
X179686542Y-67680173D01*
X179672126Y-67714975D01*
X179651129Y-67672980D01*
X179614283Y-67641024D01*
X179568014Y-67625601D01*
X179519364Y-67629058D01*
X179475740Y-67650870D01*
X179443785Y-67687716D01*
X179433794Y-67710091D01*
X179219412Y-68358045D01*
X178994309Y-67687716D01*
X178962354Y-67650870D01*
X178918729Y-67629058D01*
X178870080Y-67625601D01*
X178823811Y-67641024D01*
X178786965Y-67672979D01*
X178765153Y-67716604D01*
X178761696Y-67765253D01*
X178723912Y-67765253D01*
X178722597Y-67745529D01*
X178722597Y-67725233D01*
X178720984Y-67721340D01*
X178720704Y-67717131D01*
X178711700Y-67698925D01*
X178703933Y-67680173D01*
X178700951Y-67677191D01*
X178699083Y-67673413D01*
X178683802Y-67660042D01*
X178669445Y-67645685D01*
X178665550Y-67644071D01*
X178662378Y-67641296D01*
X178643139Y-67634789D01*
X178624385Y-67627021D01*
X178618440Y-67626435D01*
X178616177Y-67625670D01*
X178612892Y-67625888D01*
X178599999Y-67624619D01*
X177956566Y-67627021D01*
X177911506Y-67645685D01*
X177877018Y-67680173D01*
X177858354Y-67725233D01*
X177858354Y-67774005D01*
X177877018Y-67819065D01*
X177911506Y-67853553D01*
X177956566Y-67872217D01*
X177980952Y-67874619D01*
X178327299Y-67873326D01*
X178175806Y-68048050D01*
X178162732Y-68061125D01*
X178161141Y-68064963D01*
X178158343Y-68068192D01*
X178151836Y-68087430D01*
X178144068Y-68106185D01*
X178144068Y-68110398D01*
X178142717Y-68114393D01*
X178144068Y-68134654D01*
X178144068Y-68154957D01*
X178145681Y-68158852D01*
X178145962Y-68163059D01*
X178154961Y-68181257D01*
X178162732Y-68200017D01*
X178165713Y-68202998D01*
X178167582Y-68206777D01*
X178182862Y-68220147D01*
X178197220Y-68234505D01*
X178201114Y-68236118D01*
X178204287Y-68238894D01*
X178223525Y-68245400D01*
X178242280Y-68253169D01*
X178248224Y-68253754D01*
X178250488Y-68254520D01*
X178253772Y-68254300D01*
X178266666Y-68255571D01*
X178377923Y-68253973D01*
X178428553Y-68278136D01*
X178448718Y-68297273D01*
X178475245Y-68347978D01*
X178476883Y-68526942D01*
X178452432Y-68578173D01*
X178433296Y-68598338D01*
X178382664Y-68624827D01*
X178156172Y-68626581D01*
X178104780Y-68602053D01*
X178050399Y-68550447D01*
X178005340Y-68531782D01*
X177956567Y-68531782D01*
X177911507Y-68550446D01*
X177877019Y-68584933D01*
X177858354Y-68629992D01*
X177858354Y-68678765D01*
X177343830Y-68678765D01*
X177343260Y-68492122D01*
X177624386Y-68491264D01*
X177669446Y-68472600D01*
X177703934Y-68438112D01*
X177722598Y-68393052D01*
X177722598Y-68344280D01*
X177703934Y-68299220D01*
X177669446Y-68264732D01*
X177624386Y-68246068D01*
X177600000Y-68243666D01*
X177342503Y-68244452D01*
X177341645Y-67963328D01*
X177322981Y-67918268D01*
X177288493Y-67883780D01*
X177243433Y-67865116D01*
X177194661Y-67865116D01*
X177149601Y-67883780D01*
X177115113Y-67918268D01*
X177096449Y-67963328D01*
X177094047Y-67987714D01*
X177094833Y-68245209D01*
X176813709Y-68246068D01*
X176768649Y-68264732D01*
X176734161Y-68299220D01*
X176715497Y-68344280D01*
X176715497Y-68393052D01*
X176590497Y-68393052D01*
X176590497Y-67499619D01*
X180659523Y-67499619D01*
X180659523Y-68999619D01*
G37*
G36*
X176477589Y-68999619D02*
G01*
X173266688Y-68999619D01*
X173266688Y-68393052D01*
X173391688Y-68393052D01*
X173410352Y-68438112D01*
X173444840Y-68472600D01*
X173489900Y-68491264D01*
X173514286Y-68493666D01*
X173771781Y-68492879D01*
X173772640Y-68774005D01*
X173791304Y-68819065D01*
X173825792Y-68853553D01*
X173870852Y-68872217D01*
X173919624Y-68872217D01*
X173964684Y-68853553D01*
X173999172Y-68819065D01*
X174017836Y-68774005D01*
X174020238Y-68749619D01*
X174019451Y-68492122D01*
X174300577Y-68491264D01*
X174345637Y-68472600D01*
X174380125Y-68438112D01*
X174398789Y-68393052D01*
X174398789Y-68344280D01*
X174380125Y-68299220D01*
X174345637Y-68264732D01*
X174300577Y-68246068D01*
X174276191Y-68243666D01*
X174018694Y-68244452D01*
X174018674Y-68237875D01*
X174580346Y-68237875D01*
X174582164Y-68243900D01*
X174582164Y-68250196D01*
X174589155Y-68267075D01*
X174594434Y-68284569D01*
X174598421Y-68289442D01*
X174600829Y-68295255D01*
X174613744Y-68308170D01*
X174625319Y-68322317D01*
X174630867Y-68325293D01*
X174635316Y-68329742D01*
X174652194Y-68336733D01*
X174668298Y-68345372D01*
X174674559Y-68345998D01*
X174680375Y-68348407D01*
X174698648Y-68348407D01*
X174716828Y-68350225D01*
X174722854Y-68348407D01*
X174729149Y-68348407D01*
X174746028Y-68341415D01*
X174763522Y-68336137D01*
X174768395Y-68332149D01*
X174774208Y-68329742D01*
X174793150Y-68314197D01*
X174823845Y-68281851D01*
X174874550Y-68255324D01*
X175053515Y-68253686D01*
X175104744Y-68278136D01*
X175124909Y-68297273D01*
X175151436Y-68347978D01*
X175153074Y-68526942D01*
X175128623Y-68578173D01*
X175109487Y-68598338D01*
X175058782Y-68624865D01*
X174879818Y-68626503D01*
X174828590Y-68602053D01*
X174774209Y-68550447D01*
X174729150Y-68531782D01*
X174680377Y-68531782D01*
X174635317Y-68550446D01*
X174600829Y-68584933D01*
X174582164Y-68629992D01*
X174582164Y-68678765D01*
X174600828Y-68723825D01*
X174616373Y-68742767D01*
X174667700Y-68791477D01*
X174675742Y-68800749D01*
X174680875Y-68803980D01*
X174682933Y-68805933D01*
X174685986Y-68807197D01*
X174696479Y-68813803D01*
X174776719Y-68852099D01*
X174778173Y-68853553D01*
X174790222Y-68858544D01*
X174814603Y-68870180D01*
X174819083Y-68870498D01*
X174823233Y-68872217D01*
X174847619Y-68874619D01*
X175067000Y-68872611D01*
X175070080Y-68873638D01*
X175087112Y-68872427D01*
X175110100Y-68872217D01*
X175114248Y-68870498D01*
X175118730Y-68870180D01*
X175141616Y-68861422D01*
X175237348Y-68811338D01*
X175250399Y-68805933D01*
X175255176Y-68802012D01*
X175257591Y-68800749D01*
X175259753Y-68798255D01*
X175269341Y-68790387D01*
X175318042Y-68739065D01*
X175327320Y-68731019D01*
X175330555Y-68725879D01*
X175332505Y-68723825D01*
X175333767Y-68720776D01*
X175340374Y-68710282D01*
X175378670Y-68630041D01*
X175380124Y-68628588D01*
X175385115Y-68616538D01*
X175396751Y-68592158D01*
X175397069Y-68587677D01*
X175398788Y-68583528D01*
X175401190Y-68559142D01*
X175399182Y-68339757D01*
X175400208Y-68336680D01*
X175398998Y-68319658D01*
X175398788Y-68296661D01*
X175397069Y-68292511D01*
X175396751Y-68288031D01*
X175387993Y-68265145D01*
X175337909Y-68169411D01*
X175332504Y-68156362D01*
X175328582Y-68151584D01*
X175327320Y-68149170D01*
X175324828Y-68147008D01*
X175316959Y-68137420D01*
X175265637Y-68088718D01*
X175257591Y-68079441D01*
X175252451Y-68076205D01*
X175250398Y-68074257D01*
X175247351Y-68072995D01*
X175236853Y-68066386D01*
X175156613Y-68028090D01*
X175155160Y-68026637D01*
X175143111Y-68021646D01*
X175118730Y-68010010D01*
X175114248Y-68009691D01*
X175110100Y-68007973D01*
X175085714Y-68005571D01*
X174866329Y-68007578D01*
X174863252Y-68006553D01*
X174851112Y-68007415D01*
X174863802Y-67874084D01*
X175252957Y-67872217D01*
X175298017Y-67853553D01*
X175332505Y-67819065D01*
X175351169Y-67774005D01*
X175351169Y-67765253D01*
X175437887Y-67765253D01*
X175443320Y-67789147D01*
X175774069Y-68774078D01*
X175774677Y-68782634D01*
X175781575Y-68796430D01*
X175786643Y-68811522D01*
X175792493Y-68818268D01*
X175796489Y-68826259D01*
X175808329Y-68836527D01*
X175818598Y-68848368D01*
X175826589Y-68852363D01*
X175833335Y-68858214D01*
X175848200Y-68863169D01*
X175862222Y-68870180D01*
X175871132Y-68870813D01*
X175879604Y-68873637D01*
X175895237Y-68872526D01*
X175910872Y-68873637D01*
X175919343Y-68870813D01*
X175928253Y-68870180D01*
X175942273Y-68863169D01*
X175957141Y-68858214D01*
X175963886Y-68852363D01*
X175971878Y-68848368D01*
X175982149Y-68836524D01*
X175993987Y-68826258D01*
X175997981Y-68818269D01*
X176003833Y-68811522D01*
X176013823Y-68789147D01*
X176352589Y-67765254D01*
X176349132Y-67716604D01*
X176327320Y-67672980D01*
X176290474Y-67641024D01*
X176244205Y-67625601D01*
X176195555Y-67629058D01*
X176151931Y-67650870D01*
X176119976Y-67687716D01*
X176109985Y-67710091D01*
X175895603Y-68358045D01*
X175670500Y-67687716D01*
X175638545Y-67650870D01*
X175594920Y-67629058D01*
X175546271Y-67625601D01*
X175500002Y-67641024D01*
X175463156Y-67672979D01*
X175441344Y-67716604D01*
X175437887Y-67765253D01*
X175351169Y-67765253D01*
X175351169Y-67725233D01*
X175332505Y-67680173D01*
X175298017Y-67645685D01*
X175252957Y-67627021D01*
X175228571Y-67624619D01*
X174757098Y-67626881D01*
X174740315Y-67625203D01*
X174734391Y-67626990D01*
X174727995Y-67627021D01*
X174711113Y-67634013D01*
X174693621Y-67639291D01*
X174688749Y-67643276D01*
X174682935Y-67645685D01*
X174670014Y-67658605D01*
X174655873Y-67670176D01*
X174652897Y-67675722D01*
X174648447Y-67680173D01*
X174641454Y-67697055D01*
X174632818Y-67713155D01*
X174630971Y-67722362D01*
X174629783Y-67725233D01*
X174629783Y-67728292D01*
X174628001Y-67737181D01*
X174584308Y-68196245D01*
X174582164Y-68201422D01*
X174582164Y-68218773D01*
X174580346Y-68237875D01*
X174018674Y-68237875D01*
X174017836Y-67963328D01*
X173999172Y-67918268D01*
X173964684Y-67883780D01*
X173919624Y-67865116D01*
X173870852Y-67865116D01*
X173825792Y-67883780D01*
X173791304Y-67918268D01*
X173772640Y-67963328D01*
X173770238Y-67987714D01*
X173771024Y-68245209D01*
X173489900Y-68246068D01*
X173444840Y-68264732D01*
X173410352Y-68299220D01*
X173391688Y-68344280D01*
X173391688Y-68393052D01*
X173266688Y-68393052D01*
X173266688Y-67499619D01*
X176477589Y-67499619D01*
X176477589Y-68999619D01*
G37*
G36*
X171080934Y-68230517D02*
G01*
X171101099Y-68249654D01*
X171127588Y-68300286D01*
X171129342Y-68526778D01*
X171104813Y-68578173D01*
X171085677Y-68598338D01*
X171034865Y-68624921D01*
X170903392Y-68626391D01*
X170900898Y-68625200D01*
X170899919Y-68207633D01*
X171029940Y-68206179D01*
X171080934Y-68230517D01*
G37*
G36*
X171986271Y-68624875D02*
G01*
X171808389Y-68626503D01*
X171773890Y-68610038D01*
X171757780Y-68579242D01*
X171757042Y-68542478D01*
X171772914Y-68509222D01*
X171803121Y-68493419D01*
X171985688Y-68491748D01*
X171986271Y-68624875D01*
G37*
G36*
X173071407Y-68999619D02*
G01*
X169527172Y-68999619D01*
X169527172Y-67765253D01*
X169652172Y-67765253D01*
X169657605Y-67789147D01*
X169988354Y-68774078D01*
X169988962Y-68782634D01*
X169995860Y-68796430D01*
X170000928Y-68811522D01*
X170006778Y-68818268D01*
X170010774Y-68826259D01*
X170022614Y-68836527D01*
X170032883Y-68848368D01*
X170040874Y-68852363D01*
X170047620Y-68858214D01*
X170062485Y-68863169D01*
X170076507Y-68870180D01*
X170085417Y-68870813D01*
X170093889Y-68873637D01*
X170109522Y-68872526D01*
X170125157Y-68873637D01*
X170133628Y-68870813D01*
X170142538Y-68870180D01*
X170156558Y-68863169D01*
X170171426Y-68858214D01*
X170178171Y-68852363D01*
X170186163Y-68848368D01*
X170196434Y-68836524D01*
X170208272Y-68826258D01*
X170212266Y-68818269D01*
X170218118Y-68811522D01*
X170228108Y-68789147D01*
X170566874Y-67765254D01*
X170565763Y-67749619D01*
X170651190Y-67749619D01*
X170653418Y-68700080D01*
X170652171Y-68717634D01*
X170653468Y-68721527D01*
X170653592Y-68774005D01*
X170672256Y-68819065D01*
X170706744Y-68853553D01*
X170751804Y-68872217D01*
X170800576Y-68872217D01*
X170823117Y-68862880D01*
X170838412Y-68870180D01*
X170842892Y-68870498D01*
X170847042Y-68872217D01*
X170871428Y-68874619D01*
X171043444Y-68872695D01*
X171046270Y-68873638D01*
X171062523Y-68872482D01*
X171086290Y-68872217D01*
X171090438Y-68870498D01*
X171094920Y-68870180D01*
X171117806Y-68861422D01*
X171213538Y-68811338D01*
X171226589Y-68805933D01*
X171231366Y-68802012D01*
X171233781Y-68800749D01*
X171235943Y-68798255D01*
X171245531Y-68790387D01*
X171294232Y-68739065D01*
X171303510Y-68731019D01*
X171306745Y-68725879D01*
X171308695Y-68723825D01*
X171309957Y-68720776D01*
X171316564Y-68710282D01*
X171354860Y-68630041D01*
X171356314Y-68628588D01*
X171361305Y-68616538D01*
X171372941Y-68592158D01*
X171373259Y-68587677D01*
X171374978Y-68583528D01*
X171377380Y-68559142D01*
X171377011Y-68511523D01*
X171508333Y-68511523D01*
X171509896Y-68589380D01*
X171509314Y-68591127D01*
X171510174Y-68603232D01*
X171510735Y-68631147D01*
X171512453Y-68635296D01*
X171512772Y-68639776D01*
X171521529Y-68662662D01*
X171568604Y-68752645D01*
X171572357Y-68763904D01*
X171577742Y-68770113D01*
X171582202Y-68778638D01*
X171594044Y-68788909D01*
X171604313Y-68800749D01*
X171616646Y-68808513D01*
X171619047Y-68810595D01*
X171620974Y-68811237D01*
X171625050Y-68813803D01*
X171705290Y-68852099D01*
X171706744Y-68853553D01*
X171718793Y-68858544D01*
X171743174Y-68870180D01*
X171747654Y-68870498D01*
X171751804Y-68872217D01*
X171776190Y-68874619D01*
X171995571Y-68872611D01*
X171998651Y-68873638D01*
X172015683Y-68872427D01*
X172038671Y-68872217D01*
X172042819Y-68870498D01*
X172047301Y-68870180D01*
X172064411Y-68863632D01*
X172085137Y-68872217D01*
X172133909Y-68872217D01*
X172178969Y-68853553D01*
X172213457Y-68819065D01*
X172232121Y-68774005D01*
X172234523Y-68749619D01*
X172232724Y-68339130D01*
X172233541Y-68336681D01*
X172232659Y-68324276D01*
X172232312Y-68245127D01*
X172233541Y-68241442D01*
X172232214Y-68222775D01*
X172232121Y-68201423D01*
X172230402Y-68197273D01*
X172230084Y-68192793D01*
X172221326Y-68169907D01*
X172188592Y-68107338D01*
X172320259Y-68107338D01*
X172338923Y-68152398D01*
X172373411Y-68186886D01*
X172418471Y-68205550D01*
X172442857Y-68207952D01*
X172461962Y-68207838D01*
X172462996Y-68587223D01*
X172461695Y-68591127D01*
X172463059Y-68610320D01*
X172463116Y-68631147D01*
X172464834Y-68635296D01*
X172465153Y-68639776D01*
X172473910Y-68662662D01*
X172520985Y-68752645D01*
X172524738Y-68763904D01*
X172530123Y-68770113D01*
X172534583Y-68778638D01*
X172546425Y-68788909D01*
X172556694Y-68800749D01*
X172569027Y-68808513D01*
X172571428Y-68810595D01*
X172573355Y-68811237D01*
X172577431Y-68813803D01*
X172657671Y-68852099D01*
X172659125Y-68853553D01*
X172671174Y-68858544D01*
X172695555Y-68870180D01*
X172700035Y-68870498D01*
X172704185Y-68872217D01*
X172728571Y-68874619D01*
X172848195Y-68872217D01*
X172893255Y-68853553D01*
X172927743Y-68819065D01*
X172946407Y-68774005D01*
X172946407Y-68725233D01*
X172927743Y-68680173D01*
X172893255Y-68645685D01*
X172848195Y-68627021D01*
X172823809Y-68624619D01*
X172759527Y-68625909D01*
X172726271Y-68610038D01*
X172710641Y-68580160D01*
X172709623Y-68206371D01*
X172848195Y-68205550D01*
X172893255Y-68186886D01*
X172927743Y-68152398D01*
X172946407Y-68107338D01*
X172946407Y-68058566D01*
X172927743Y-68013506D01*
X172893255Y-67979018D01*
X172848195Y-67960354D01*
X172823809Y-67957952D01*
X172708947Y-67958632D01*
X172708312Y-67725233D01*
X172689648Y-67680173D01*
X172655160Y-67645685D01*
X172610100Y-67627021D01*
X172561328Y-67627021D01*
X172516268Y-67645685D01*
X172481780Y-67680173D01*
X172463116Y-67725233D01*
X172460714Y-67749619D01*
X172461287Y-67960100D01*
X172418471Y-67960354D01*
X172373411Y-67979018D01*
X172338923Y-68013506D01*
X172320259Y-68058566D01*
X172320259Y-68107338D01*
X172188592Y-68107338D01*
X172174251Y-68079926D01*
X172170499Y-68068667D01*
X172165112Y-68062456D01*
X172160653Y-68053932D01*
X172148812Y-68043662D01*
X172138543Y-68031822D01*
X172126205Y-68024055D01*
X172123808Y-68021976D01*
X172121883Y-68021334D01*
X172117805Y-68018767D01*
X172037565Y-67980471D01*
X172036112Y-67979018D01*
X172024063Y-67974027D01*
X171999682Y-67962391D01*
X171995200Y-67962072D01*
X171991052Y-67960354D01*
X171966666Y-67957952D01*
X171794646Y-67959875D01*
X171791823Y-67958934D01*
X171775580Y-67960088D01*
X171751804Y-67960354D01*
X171747654Y-67962072D01*
X171743174Y-67962391D01*
X171720288Y-67971149D01*
X171604313Y-68031822D01*
X171572357Y-68068667D01*
X171556933Y-68114937D01*
X171560391Y-68163587D01*
X171582203Y-68207210D01*
X171619048Y-68239166D01*
X171665318Y-68254590D01*
X171713968Y-68251132D01*
X171736854Y-68242374D01*
X171803228Y-68207649D01*
X171934702Y-68206179D01*
X171968966Y-68222533D01*
X171980185Y-68243978D01*
X171794900Y-68245673D01*
X171791823Y-68244648D01*
X171774801Y-68245857D01*
X171751804Y-68246068D01*
X171747654Y-68247786D01*
X171743174Y-68248105D01*
X171720288Y-68256863D01*
X171630307Y-68303937D01*
X171619048Y-68307690D01*
X171612837Y-68313076D01*
X171604313Y-68317536D01*
X171594043Y-68329376D01*
X171582203Y-68339646D01*
X171574436Y-68351983D01*
X171572357Y-68354381D01*
X171571715Y-68356305D01*
X171569148Y-68360384D01*
X171530852Y-68440623D01*
X171529399Y-68442077D01*
X171524408Y-68454125D01*
X171512772Y-68478507D01*
X171512453Y-68482988D01*
X171510735Y-68487137D01*
X171508333Y-68511523D01*
X171377011Y-68511523D01*
X171375313Y-68292315D01*
X171376398Y-68289061D01*
X171375152Y-68271529D01*
X171374978Y-68249042D01*
X171373259Y-68244892D01*
X171372941Y-68240412D01*
X171364183Y-68217526D01*
X171314099Y-68121792D01*
X171308694Y-68108743D01*
X171304772Y-68103965D01*
X171303510Y-68101551D01*
X171301018Y-68099389D01*
X171293149Y-68089801D01*
X171241827Y-68041099D01*
X171233781Y-68031822D01*
X171228641Y-68028586D01*
X171226588Y-68026638D01*
X171223541Y-68025376D01*
X171213043Y-68018767D01*
X171132803Y-67980471D01*
X171131350Y-67979018D01*
X171119301Y-67974027D01*
X171094920Y-67962391D01*
X171090438Y-67962072D01*
X171086290Y-67960354D01*
X171061904Y-67957952D01*
X170899337Y-67959769D01*
X170898788Y-67725233D01*
X170880124Y-67680173D01*
X170845636Y-67645685D01*
X170800576Y-67627021D01*
X170751804Y-67627021D01*
X170706744Y-67645685D01*
X170672256Y-67680173D01*
X170653592Y-67725233D01*
X170651190Y-67749619D01*
X170565763Y-67749619D01*
X170563417Y-67716604D01*
X170541605Y-67672980D01*
X170504759Y-67641024D01*
X170458490Y-67625601D01*
X170409840Y-67629058D01*
X170366216Y-67650870D01*
X170334261Y-67687716D01*
X170324270Y-67710091D01*
X170109888Y-68358045D01*
X169884785Y-67687716D01*
X169852830Y-67650870D01*
X169809205Y-67629058D01*
X169760556Y-67625601D01*
X169714287Y-67641024D01*
X169677441Y-67672979D01*
X169655629Y-67716604D01*
X169652172Y-67765253D01*
X169527172Y-67765253D01*
X169527172Y-67500601D01*
X173071407Y-67500601D01*
X173071407Y-68999619D01*
G37*
D13*
X204766666Y-46854819D02*
X204766666Y-47569104D01*
X204766666Y-47569104D02*
X204719047Y-47711961D01*
X204719047Y-47711961D02*
X204623809Y-47807200D01*
X204623809Y-47807200D02*
X204480952Y-47854819D01*
X204480952Y-47854819D02*
X204385714Y-47854819D01*
X205671428Y-47188152D02*
X205671428Y-47854819D01*
X205433333Y-46807200D02*
X205195238Y-47521485D01*
X205195238Y-47521485D02*
X205814285Y-47521485D01*
X190466667Y-66586104D02*
X190428571Y-66624200D01*
X190428571Y-66624200D02*
X190314286Y-66662295D01*
X190314286Y-66662295D02*
X190238095Y-66662295D01*
X190238095Y-66662295D02*
X190123809Y-66624200D01*
X190123809Y-66624200D02*
X190047619Y-66548009D01*
X190047619Y-66548009D02*
X190009524Y-66471819D01*
X190009524Y-66471819D02*
X189971428Y-66319438D01*
X189971428Y-66319438D02*
X189971428Y-66205152D01*
X189971428Y-66205152D02*
X190009524Y-66052771D01*
X190009524Y-66052771D02*
X190047619Y-65976580D01*
X190047619Y-65976580D02*
X190123809Y-65900390D01*
X190123809Y-65900390D02*
X190238095Y-65862295D01*
X190238095Y-65862295D02*
X190314286Y-65862295D01*
X190314286Y-65862295D02*
X190428571Y-65900390D01*
X190428571Y-65900390D02*
X190466667Y-65938485D01*
X190847619Y-66662295D02*
X191000000Y-66662295D01*
X191000000Y-66662295D02*
X191076190Y-66624200D01*
X191076190Y-66624200D02*
X191114286Y-66586104D01*
X191114286Y-66586104D02*
X191190476Y-66471819D01*
X191190476Y-66471819D02*
X191228571Y-66319438D01*
X191228571Y-66319438D02*
X191228571Y-66014676D01*
X191228571Y-66014676D02*
X191190476Y-65938485D01*
X191190476Y-65938485D02*
X191152381Y-65900390D01*
X191152381Y-65900390D02*
X191076190Y-65862295D01*
X191076190Y-65862295D02*
X190923809Y-65862295D01*
X190923809Y-65862295D02*
X190847619Y-65900390D01*
X190847619Y-65900390D02*
X190809524Y-65938485D01*
X190809524Y-65938485D02*
X190771428Y-66014676D01*
X190771428Y-66014676D02*
X190771428Y-66205152D01*
X190771428Y-66205152D02*
X190809524Y-66281342D01*
X190809524Y-66281342D02*
X190847619Y-66319438D01*
X190847619Y-66319438D02*
X190923809Y-66357533D01*
X190923809Y-66357533D02*
X191076190Y-66357533D01*
X191076190Y-66357533D02*
X191152381Y-66319438D01*
X191152381Y-66319438D02*
X191190476Y-66281342D01*
X191190476Y-66281342D02*
X191228571Y-66205152D01*
X169466667Y-67362295D02*
X169200000Y-66981342D01*
X169009524Y-67362295D02*
X169009524Y-66562295D01*
X169009524Y-66562295D02*
X169314286Y-66562295D01*
X169314286Y-66562295D02*
X169390476Y-66600390D01*
X169390476Y-66600390D02*
X169428571Y-66638485D01*
X169428571Y-66638485D02*
X169466667Y-66714676D01*
X169466667Y-66714676D02*
X169466667Y-66828961D01*
X169466667Y-66828961D02*
X169428571Y-66905152D01*
X169428571Y-66905152D02*
X169390476Y-66943247D01*
X169390476Y-66943247D02*
X169314286Y-66981342D01*
X169314286Y-66981342D02*
X169009524Y-66981342D01*
X169733333Y-66562295D02*
X170228571Y-66562295D01*
X170228571Y-66562295D02*
X169961905Y-66867057D01*
X169961905Y-66867057D02*
X170076190Y-66867057D01*
X170076190Y-66867057D02*
X170152381Y-66905152D01*
X170152381Y-66905152D02*
X170190476Y-66943247D01*
X170190476Y-66943247D02*
X170228571Y-67019438D01*
X170228571Y-67019438D02*
X170228571Y-67209914D01*
X170228571Y-67209914D02*
X170190476Y-67286104D01*
X170190476Y-67286104D02*
X170152381Y-67324200D01*
X170152381Y-67324200D02*
X170076190Y-67362295D01*
X170076190Y-67362295D02*
X169847619Y-67362295D01*
X169847619Y-67362295D02*
X169771428Y-67324200D01*
X169771428Y-67324200D02*
X169733333Y-67286104D01*
X151666666Y-46854819D02*
X151666666Y-47569104D01*
X151666666Y-47569104D02*
X151619047Y-47711961D01*
X151619047Y-47711961D02*
X151523809Y-47807200D01*
X151523809Y-47807200D02*
X151380952Y-47854819D01*
X151380952Y-47854819D02*
X151285714Y-47854819D01*
X152666666Y-47854819D02*
X152095238Y-47854819D01*
X152380952Y-47854819D02*
X152380952Y-46854819D01*
X152380952Y-46854819D02*
X152285714Y-46997676D01*
X152285714Y-46997676D02*
X152190476Y-47092914D01*
X152190476Y-47092914D02*
X152095238Y-47140533D01*
X184190476Y-67162295D02*
X184190476Y-67809914D01*
X184190476Y-67809914D02*
X184228571Y-67886104D01*
X184228571Y-67886104D02*
X184266666Y-67924200D01*
X184266666Y-67924200D02*
X184342857Y-67962295D01*
X184342857Y-67962295D02*
X184495238Y-67962295D01*
X184495238Y-67962295D02*
X184571428Y-67924200D01*
X184571428Y-67924200D02*
X184609523Y-67886104D01*
X184609523Y-67886104D02*
X184647619Y-67809914D01*
X184647619Y-67809914D02*
X184647619Y-67162295D01*
X185371428Y-67428961D02*
X185371428Y-67962295D01*
X185180952Y-67124200D02*
X184990475Y-67695628D01*
X184990475Y-67695628D02*
X185485714Y-67695628D01*
X170809524Y-64662295D02*
X170809524Y-63862295D01*
X170809524Y-63862295D02*
X171000000Y-63862295D01*
X171000000Y-63862295D02*
X171114286Y-63900390D01*
X171114286Y-63900390D02*
X171190476Y-63976580D01*
X171190476Y-63976580D02*
X171228571Y-64052771D01*
X171228571Y-64052771D02*
X171266667Y-64205152D01*
X171266667Y-64205152D02*
X171266667Y-64319438D01*
X171266667Y-64319438D02*
X171228571Y-64471819D01*
X171228571Y-64471819D02*
X171190476Y-64548009D01*
X171190476Y-64548009D02*
X171114286Y-64624200D01*
X171114286Y-64624200D02*
X171000000Y-64662295D01*
X171000000Y-64662295D02*
X170809524Y-64662295D01*
X171571428Y-63938485D02*
X171609524Y-63900390D01*
X171609524Y-63900390D02*
X171685714Y-63862295D01*
X171685714Y-63862295D02*
X171876190Y-63862295D01*
X171876190Y-63862295D02*
X171952381Y-63900390D01*
X171952381Y-63900390D02*
X171990476Y-63938485D01*
X171990476Y-63938485D02*
X172028571Y-64014676D01*
X172028571Y-64014676D02*
X172028571Y-64090866D01*
X172028571Y-64090866D02*
X171990476Y-64205152D01*
X171990476Y-64205152D02*
X171533333Y-64662295D01*
X171533333Y-64662295D02*
X172028571Y-64662295D01*
X192262295Y-50833332D02*
X191881342Y-51099999D01*
X192262295Y-51290475D02*
X191462295Y-51290475D01*
X191462295Y-51290475D02*
X191462295Y-50985713D01*
X191462295Y-50985713D02*
X191500390Y-50909523D01*
X191500390Y-50909523D02*
X191538485Y-50871428D01*
X191538485Y-50871428D02*
X191614676Y-50833332D01*
X191614676Y-50833332D02*
X191728961Y-50833332D01*
X191728961Y-50833332D02*
X191805152Y-50871428D01*
X191805152Y-50871428D02*
X191843247Y-50909523D01*
X191843247Y-50909523D02*
X191881342Y-50985713D01*
X191881342Y-50985713D02*
X191881342Y-51290475D01*
X191462295Y-50147618D02*
X191462295Y-50299999D01*
X191462295Y-50299999D02*
X191500390Y-50376190D01*
X191500390Y-50376190D02*
X191538485Y-50414285D01*
X191538485Y-50414285D02*
X191652771Y-50490475D01*
X191652771Y-50490475D02*
X191805152Y-50528571D01*
X191805152Y-50528571D02*
X192109914Y-50528571D01*
X192109914Y-50528571D02*
X192186104Y-50490475D01*
X192186104Y-50490475D02*
X192224200Y-50452380D01*
X192224200Y-50452380D02*
X192262295Y-50376190D01*
X192262295Y-50376190D02*
X192262295Y-50223809D01*
X192262295Y-50223809D02*
X192224200Y-50147618D01*
X192224200Y-50147618D02*
X192186104Y-50109523D01*
X192186104Y-50109523D02*
X192109914Y-50071428D01*
X192109914Y-50071428D02*
X191919438Y-50071428D01*
X191919438Y-50071428D02*
X191843247Y-50109523D01*
X191843247Y-50109523D02*
X191805152Y-50147618D01*
X191805152Y-50147618D02*
X191767057Y-50223809D01*
X191767057Y-50223809D02*
X191767057Y-50376190D01*
X191767057Y-50376190D02*
X191805152Y-50452380D01*
X191805152Y-50452380D02*
X191843247Y-50490475D01*
X191843247Y-50490475D02*
X191919438Y-50528571D01*
X186786104Y-54033332D02*
X186824200Y-54071428D01*
X186824200Y-54071428D02*
X186862295Y-54185713D01*
X186862295Y-54185713D02*
X186862295Y-54261904D01*
X186862295Y-54261904D02*
X186824200Y-54376190D01*
X186824200Y-54376190D02*
X186748009Y-54452380D01*
X186748009Y-54452380D02*
X186671819Y-54490475D01*
X186671819Y-54490475D02*
X186519438Y-54528571D01*
X186519438Y-54528571D02*
X186405152Y-54528571D01*
X186405152Y-54528571D02*
X186252771Y-54490475D01*
X186252771Y-54490475D02*
X186176580Y-54452380D01*
X186176580Y-54452380D02*
X186100390Y-54376190D01*
X186100390Y-54376190D02*
X186062295Y-54261904D01*
X186062295Y-54261904D02*
X186062295Y-54185713D01*
X186062295Y-54185713D02*
X186100390Y-54071428D01*
X186100390Y-54071428D02*
X186138485Y-54033332D01*
X186138485Y-53728571D02*
X186100390Y-53690475D01*
X186100390Y-53690475D02*
X186062295Y-53614285D01*
X186062295Y-53614285D02*
X186062295Y-53423809D01*
X186062295Y-53423809D02*
X186100390Y-53347618D01*
X186100390Y-53347618D02*
X186138485Y-53309523D01*
X186138485Y-53309523D02*
X186214676Y-53271428D01*
X186214676Y-53271428D02*
X186290866Y-53271428D01*
X186290866Y-53271428D02*
X186405152Y-53309523D01*
X186405152Y-53309523D02*
X186862295Y-53766666D01*
X186862295Y-53766666D02*
X186862295Y-53271428D01*
X157833333Y-67154819D02*
X157500000Y-66678628D01*
X157261905Y-67154819D02*
X157261905Y-66154819D01*
X157261905Y-66154819D02*
X157642857Y-66154819D01*
X157642857Y-66154819D02*
X157738095Y-66202438D01*
X157738095Y-66202438D02*
X157785714Y-66250057D01*
X157785714Y-66250057D02*
X157833333Y-66345295D01*
X157833333Y-66345295D02*
X157833333Y-66488152D01*
X157833333Y-66488152D02*
X157785714Y-66583390D01*
X157785714Y-66583390D02*
X157738095Y-66631009D01*
X157738095Y-66631009D02*
X157642857Y-66678628D01*
X157642857Y-66678628D02*
X157261905Y-66678628D01*
X158309524Y-67154819D02*
X158500000Y-67154819D01*
X158500000Y-67154819D02*
X158595238Y-67107200D01*
X158595238Y-67107200D02*
X158642857Y-67059580D01*
X158642857Y-67059580D02*
X158738095Y-66916723D01*
X158738095Y-66916723D02*
X158785714Y-66726247D01*
X158785714Y-66726247D02*
X158785714Y-66345295D01*
X158785714Y-66345295D02*
X158738095Y-66250057D01*
X158738095Y-66250057D02*
X158690476Y-66202438D01*
X158690476Y-66202438D02*
X158595238Y-66154819D01*
X158595238Y-66154819D02*
X158404762Y-66154819D01*
X158404762Y-66154819D02*
X158309524Y-66202438D01*
X158309524Y-66202438D02*
X158261905Y-66250057D01*
X158261905Y-66250057D02*
X158214286Y-66345295D01*
X158214286Y-66345295D02*
X158214286Y-66583390D01*
X158214286Y-66583390D02*
X158261905Y-66678628D01*
X158261905Y-66678628D02*
X158309524Y-66726247D01*
X158309524Y-66726247D02*
X158404762Y-66773866D01*
X158404762Y-66773866D02*
X158595238Y-66773866D01*
X158595238Y-66773866D02*
X158690476Y-66726247D01*
X158690476Y-66726247D02*
X158738095Y-66678628D01*
X158738095Y-66678628D02*
X158785714Y-66583390D01*
X171766667Y-55362295D02*
X171500000Y-54981342D01*
X171309524Y-55362295D02*
X171309524Y-54562295D01*
X171309524Y-54562295D02*
X171614286Y-54562295D01*
X171614286Y-54562295D02*
X171690476Y-54600390D01*
X171690476Y-54600390D02*
X171728571Y-54638485D01*
X171728571Y-54638485D02*
X171766667Y-54714676D01*
X171766667Y-54714676D02*
X171766667Y-54828961D01*
X171766667Y-54828961D02*
X171728571Y-54905152D01*
X171728571Y-54905152D02*
X171690476Y-54943247D01*
X171690476Y-54943247D02*
X171614286Y-54981342D01*
X171614286Y-54981342D02*
X171309524Y-54981342D01*
X172528571Y-55362295D02*
X172071428Y-55362295D01*
X172300000Y-55362295D02*
X172300000Y-54562295D01*
X172300000Y-54562295D02*
X172223809Y-54676580D01*
X172223809Y-54676580D02*
X172147619Y-54752771D01*
X172147619Y-54752771D02*
X172071428Y-54790866D01*
X186762295Y-50833332D02*
X186381342Y-51099999D01*
X186762295Y-51290475D02*
X185962295Y-51290475D01*
X185962295Y-51290475D02*
X185962295Y-50985713D01*
X185962295Y-50985713D02*
X186000390Y-50909523D01*
X186000390Y-50909523D02*
X186038485Y-50871428D01*
X186038485Y-50871428D02*
X186114676Y-50833332D01*
X186114676Y-50833332D02*
X186228961Y-50833332D01*
X186228961Y-50833332D02*
X186305152Y-50871428D01*
X186305152Y-50871428D02*
X186343247Y-50909523D01*
X186343247Y-50909523D02*
X186381342Y-50985713D01*
X186381342Y-50985713D02*
X186381342Y-51290475D01*
X186038485Y-50528571D02*
X186000390Y-50490475D01*
X186000390Y-50490475D02*
X185962295Y-50414285D01*
X185962295Y-50414285D02*
X185962295Y-50223809D01*
X185962295Y-50223809D02*
X186000390Y-50147618D01*
X186000390Y-50147618D02*
X186038485Y-50109523D01*
X186038485Y-50109523D02*
X186114676Y-50071428D01*
X186114676Y-50071428D02*
X186190866Y-50071428D01*
X186190866Y-50071428D02*
X186305152Y-50109523D01*
X186305152Y-50109523D02*
X186762295Y-50566666D01*
X186762295Y-50566666D02*
X186762295Y-50071428D01*
X187786104Y-54033332D02*
X187824200Y-54071428D01*
X187824200Y-54071428D02*
X187862295Y-54185713D01*
X187862295Y-54185713D02*
X187862295Y-54261904D01*
X187862295Y-54261904D02*
X187824200Y-54376190D01*
X187824200Y-54376190D02*
X187748009Y-54452380D01*
X187748009Y-54452380D02*
X187671819Y-54490475D01*
X187671819Y-54490475D02*
X187519438Y-54528571D01*
X187519438Y-54528571D02*
X187405152Y-54528571D01*
X187405152Y-54528571D02*
X187252771Y-54490475D01*
X187252771Y-54490475D02*
X187176580Y-54452380D01*
X187176580Y-54452380D02*
X187100390Y-54376190D01*
X187100390Y-54376190D02*
X187062295Y-54261904D01*
X187062295Y-54261904D02*
X187062295Y-54185713D01*
X187062295Y-54185713D02*
X187100390Y-54071428D01*
X187100390Y-54071428D02*
X187138485Y-54033332D01*
X187062295Y-53347618D02*
X187062295Y-53499999D01*
X187062295Y-53499999D02*
X187100390Y-53576190D01*
X187100390Y-53576190D02*
X187138485Y-53614285D01*
X187138485Y-53614285D02*
X187252771Y-53690475D01*
X187252771Y-53690475D02*
X187405152Y-53728571D01*
X187405152Y-53728571D02*
X187709914Y-53728571D01*
X187709914Y-53728571D02*
X187786104Y-53690475D01*
X187786104Y-53690475D02*
X187824200Y-53652380D01*
X187824200Y-53652380D02*
X187862295Y-53576190D01*
X187862295Y-53576190D02*
X187862295Y-53423809D01*
X187862295Y-53423809D02*
X187824200Y-53347618D01*
X187824200Y-53347618D02*
X187786104Y-53309523D01*
X187786104Y-53309523D02*
X187709914Y-53271428D01*
X187709914Y-53271428D02*
X187519438Y-53271428D01*
X187519438Y-53271428D02*
X187443247Y-53309523D01*
X187443247Y-53309523D02*
X187405152Y-53347618D01*
X187405152Y-53347618D02*
X187367057Y-53423809D01*
X187367057Y-53423809D02*
X187367057Y-53576190D01*
X187367057Y-53576190D02*
X187405152Y-53652380D01*
X187405152Y-53652380D02*
X187443247Y-53690475D01*
X187443247Y-53690475D02*
X187519438Y-53728571D01*
X188862295Y-54033332D02*
X188481342Y-54299999D01*
X188862295Y-54490475D02*
X188062295Y-54490475D01*
X188062295Y-54490475D02*
X188062295Y-54185713D01*
X188062295Y-54185713D02*
X188100390Y-54109523D01*
X188100390Y-54109523D02*
X188138485Y-54071428D01*
X188138485Y-54071428D02*
X188214676Y-54033332D01*
X188214676Y-54033332D02*
X188328961Y-54033332D01*
X188328961Y-54033332D02*
X188405152Y-54071428D01*
X188405152Y-54071428D02*
X188443247Y-54109523D01*
X188443247Y-54109523D02*
X188481342Y-54185713D01*
X188481342Y-54185713D02*
X188481342Y-54490475D01*
X188405152Y-53576190D02*
X188367057Y-53652380D01*
X188367057Y-53652380D02*
X188328961Y-53690475D01*
X188328961Y-53690475D02*
X188252771Y-53728571D01*
X188252771Y-53728571D02*
X188214676Y-53728571D01*
X188214676Y-53728571D02*
X188138485Y-53690475D01*
X188138485Y-53690475D02*
X188100390Y-53652380D01*
X188100390Y-53652380D02*
X188062295Y-53576190D01*
X188062295Y-53576190D02*
X188062295Y-53423809D01*
X188062295Y-53423809D02*
X188100390Y-53347618D01*
X188100390Y-53347618D02*
X188138485Y-53309523D01*
X188138485Y-53309523D02*
X188214676Y-53271428D01*
X188214676Y-53271428D02*
X188252771Y-53271428D01*
X188252771Y-53271428D02*
X188328961Y-53309523D01*
X188328961Y-53309523D02*
X188367057Y-53347618D01*
X188367057Y-53347618D02*
X188405152Y-53423809D01*
X188405152Y-53423809D02*
X188405152Y-53576190D01*
X188405152Y-53576190D02*
X188443247Y-53652380D01*
X188443247Y-53652380D02*
X188481342Y-53690475D01*
X188481342Y-53690475D02*
X188557533Y-53728571D01*
X188557533Y-53728571D02*
X188709914Y-53728571D01*
X188709914Y-53728571D02*
X188786104Y-53690475D01*
X188786104Y-53690475D02*
X188824200Y-53652380D01*
X188824200Y-53652380D02*
X188862295Y-53576190D01*
X188862295Y-53576190D02*
X188862295Y-53423809D01*
X188862295Y-53423809D02*
X188824200Y-53347618D01*
X188824200Y-53347618D02*
X188786104Y-53309523D01*
X188786104Y-53309523D02*
X188709914Y-53271428D01*
X188709914Y-53271428D02*
X188557533Y-53271428D01*
X188557533Y-53271428D02*
X188481342Y-53309523D01*
X188481342Y-53309523D02*
X188443247Y-53347618D01*
X188443247Y-53347618D02*
X188405152Y-53423809D01*
D14*
X166366667Y-54409800D02*
X166509524Y-54457419D01*
X166509524Y-54457419D02*
X166747619Y-54457419D01*
X166747619Y-54457419D02*
X166842857Y-54409800D01*
X166842857Y-54409800D02*
X166890476Y-54362180D01*
X166890476Y-54362180D02*
X166938095Y-54266942D01*
X166938095Y-54266942D02*
X166938095Y-54171704D01*
X166938095Y-54171704D02*
X166890476Y-54076466D01*
X166890476Y-54076466D02*
X166842857Y-54028847D01*
X166842857Y-54028847D02*
X166747619Y-53981228D01*
X166747619Y-53981228D02*
X166557143Y-53933609D01*
X166557143Y-53933609D02*
X166461905Y-53885990D01*
X166461905Y-53885990D02*
X166414286Y-53838371D01*
X166414286Y-53838371D02*
X166366667Y-53743133D01*
X166366667Y-53743133D02*
X166366667Y-53647895D01*
X166366667Y-53647895D02*
X166414286Y-53552657D01*
X166414286Y-53552657D02*
X166461905Y-53505038D01*
X166461905Y-53505038D02*
X166557143Y-53457419D01*
X166557143Y-53457419D02*
X166795238Y-53457419D01*
X166795238Y-53457419D02*
X166938095Y-53505038D01*
X167271429Y-53457419D02*
X167509524Y-54457419D01*
X167509524Y-54457419D02*
X167700000Y-53743133D01*
X167700000Y-53743133D02*
X167890476Y-54457419D01*
X167890476Y-54457419D02*
X168128572Y-53457419D01*
X169033333Y-54457419D02*
X168461905Y-54457419D01*
X168747619Y-54457419D02*
X168747619Y-53457419D01*
X168747619Y-53457419D02*
X168652381Y-53600276D01*
X168652381Y-53600276D02*
X168557143Y-53695514D01*
X168557143Y-53695514D02*
X168461905Y-53743133D01*
D13*
X168166667Y-61086104D02*
X168128571Y-61124200D01*
X168128571Y-61124200D02*
X168014286Y-61162295D01*
X168014286Y-61162295D02*
X167938095Y-61162295D01*
X167938095Y-61162295D02*
X167823809Y-61124200D01*
X167823809Y-61124200D02*
X167747619Y-61048009D01*
X167747619Y-61048009D02*
X167709524Y-60971819D01*
X167709524Y-60971819D02*
X167671428Y-60819438D01*
X167671428Y-60819438D02*
X167671428Y-60705152D01*
X167671428Y-60705152D02*
X167709524Y-60552771D01*
X167709524Y-60552771D02*
X167747619Y-60476580D01*
X167747619Y-60476580D02*
X167823809Y-60400390D01*
X167823809Y-60400390D02*
X167938095Y-60362295D01*
X167938095Y-60362295D02*
X168014286Y-60362295D01*
X168014286Y-60362295D02*
X168128571Y-60400390D01*
X168128571Y-60400390D02*
X168166667Y-60438485D01*
X168433333Y-60362295D02*
X168966667Y-60362295D01*
X168966667Y-60362295D02*
X168623809Y-61162295D01*
X154404761Y-69450057D02*
X154309523Y-69402438D01*
X154309523Y-69402438D02*
X154214285Y-69307200D01*
X154214285Y-69307200D02*
X154071428Y-69164342D01*
X154071428Y-69164342D02*
X153976190Y-69116723D01*
X153976190Y-69116723D02*
X153880952Y-69116723D01*
X153928571Y-69354819D02*
X153833333Y-69307200D01*
X153833333Y-69307200D02*
X153738095Y-69211961D01*
X153738095Y-69211961D02*
X153690476Y-69021485D01*
X153690476Y-69021485D02*
X153690476Y-68688152D01*
X153690476Y-68688152D02*
X153738095Y-68497676D01*
X153738095Y-68497676D02*
X153833333Y-68402438D01*
X153833333Y-68402438D02*
X153928571Y-68354819D01*
X153928571Y-68354819D02*
X154119047Y-68354819D01*
X154119047Y-68354819D02*
X154214285Y-68402438D01*
X154214285Y-68402438D02*
X154309523Y-68497676D01*
X154309523Y-68497676D02*
X154357142Y-68688152D01*
X154357142Y-68688152D02*
X154357142Y-69021485D01*
X154357142Y-69021485D02*
X154309523Y-69211961D01*
X154309523Y-69211961D02*
X154214285Y-69307200D01*
X154214285Y-69307200D02*
X154119047Y-69354819D01*
X154119047Y-69354819D02*
X153928571Y-69354819D01*
X155309523Y-69354819D02*
X154738095Y-69354819D01*
X155023809Y-69354819D02*
X155023809Y-68354819D01*
X155023809Y-68354819D02*
X154928571Y-68497676D01*
X154928571Y-68497676D02*
X154833333Y-68592914D01*
X154833333Y-68592914D02*
X154738095Y-68640533D01*
X189662295Y-50833332D02*
X189281342Y-51099999D01*
X189662295Y-51290475D02*
X188862295Y-51290475D01*
X188862295Y-51290475D02*
X188862295Y-50985713D01*
X188862295Y-50985713D02*
X188900390Y-50909523D01*
X188900390Y-50909523D02*
X188938485Y-50871428D01*
X188938485Y-50871428D02*
X189014676Y-50833332D01*
X189014676Y-50833332D02*
X189128961Y-50833332D01*
X189128961Y-50833332D02*
X189205152Y-50871428D01*
X189205152Y-50871428D02*
X189243247Y-50909523D01*
X189243247Y-50909523D02*
X189281342Y-50985713D01*
X189281342Y-50985713D02*
X189281342Y-51290475D01*
X189128961Y-50147618D02*
X189662295Y-50147618D01*
X188824200Y-50338094D02*
X189395628Y-50528571D01*
X189395628Y-50528571D02*
X189395628Y-50033332D01*
X192766667Y-65466104D02*
X192728571Y-65504200D01*
X192728571Y-65504200D02*
X192614286Y-65542295D01*
X192614286Y-65542295D02*
X192538095Y-65542295D01*
X192538095Y-65542295D02*
X192423809Y-65504200D01*
X192423809Y-65504200D02*
X192347619Y-65428009D01*
X192347619Y-65428009D02*
X192309524Y-65351819D01*
X192309524Y-65351819D02*
X192271428Y-65199438D01*
X192271428Y-65199438D02*
X192271428Y-65085152D01*
X192271428Y-65085152D02*
X192309524Y-64932771D01*
X192309524Y-64932771D02*
X192347619Y-64856580D01*
X192347619Y-64856580D02*
X192423809Y-64780390D01*
X192423809Y-64780390D02*
X192538095Y-64742295D01*
X192538095Y-64742295D02*
X192614286Y-64742295D01*
X192614286Y-64742295D02*
X192728571Y-64780390D01*
X192728571Y-64780390D02*
X192766667Y-64818485D01*
X193033333Y-64742295D02*
X193528571Y-64742295D01*
X193528571Y-64742295D02*
X193261905Y-65047057D01*
X193261905Y-65047057D02*
X193376190Y-65047057D01*
X193376190Y-65047057D02*
X193452381Y-65085152D01*
X193452381Y-65085152D02*
X193490476Y-65123247D01*
X193490476Y-65123247D02*
X193528571Y-65199438D01*
X193528571Y-65199438D02*
X193528571Y-65389914D01*
X193528571Y-65389914D02*
X193490476Y-65466104D01*
X193490476Y-65466104D02*
X193452381Y-65504200D01*
X193452381Y-65504200D02*
X193376190Y-65542295D01*
X193376190Y-65542295D02*
X193147619Y-65542295D01*
X193147619Y-65542295D02*
X193071428Y-65504200D01*
X193071428Y-65504200D02*
X193033333Y-65466104D01*
X146566666Y-70054819D02*
X146566666Y-70769104D01*
X146566666Y-70769104D02*
X146519047Y-70911961D01*
X146519047Y-70911961D02*
X146423809Y-71007200D01*
X146423809Y-71007200D02*
X146280952Y-71054819D01*
X146280952Y-71054819D02*
X146185714Y-71054819D01*
X147471428Y-70054819D02*
X147280952Y-70054819D01*
X147280952Y-70054819D02*
X147185714Y-70102438D01*
X147185714Y-70102438D02*
X147138095Y-70150057D01*
X147138095Y-70150057D02*
X147042857Y-70292914D01*
X147042857Y-70292914D02*
X146995238Y-70483390D01*
X146995238Y-70483390D02*
X146995238Y-70864342D01*
X146995238Y-70864342D02*
X147042857Y-70959580D01*
X147042857Y-70959580D02*
X147090476Y-71007200D01*
X147090476Y-71007200D02*
X147185714Y-71054819D01*
X147185714Y-71054819D02*
X147376190Y-71054819D01*
X147376190Y-71054819D02*
X147471428Y-71007200D01*
X147471428Y-71007200D02*
X147519047Y-70959580D01*
X147519047Y-70959580D02*
X147566666Y-70864342D01*
X147566666Y-70864342D02*
X147566666Y-70626247D01*
X147566666Y-70626247D02*
X147519047Y-70531009D01*
X147519047Y-70531009D02*
X147471428Y-70483390D01*
X147471428Y-70483390D02*
X147376190Y-70435771D01*
X147376190Y-70435771D02*
X147185714Y-70435771D01*
X147185714Y-70435771D02*
X147090476Y-70483390D01*
X147090476Y-70483390D02*
X147042857Y-70531009D01*
X147042857Y-70531009D02*
X146995238Y-70626247D01*
X151666666Y-74754819D02*
X151666666Y-75469104D01*
X151666666Y-75469104D02*
X151619047Y-75611961D01*
X151619047Y-75611961D02*
X151523809Y-75707200D01*
X151523809Y-75707200D02*
X151380952Y-75754819D01*
X151380952Y-75754819D02*
X151285714Y-75754819D01*
X152047619Y-74754819D02*
X152666666Y-74754819D01*
X152666666Y-74754819D02*
X152333333Y-75135771D01*
X152333333Y-75135771D02*
X152476190Y-75135771D01*
X152476190Y-75135771D02*
X152571428Y-75183390D01*
X152571428Y-75183390D02*
X152619047Y-75231009D01*
X152619047Y-75231009D02*
X152666666Y-75326247D01*
X152666666Y-75326247D02*
X152666666Y-75564342D01*
X152666666Y-75564342D02*
X152619047Y-75659580D01*
X152619047Y-75659580D02*
X152571428Y-75707200D01*
X152571428Y-75707200D02*
X152476190Y-75754819D01*
X152476190Y-75754819D02*
X152190476Y-75754819D01*
X152190476Y-75754819D02*
X152095238Y-75707200D01*
X152095238Y-75707200D02*
X152047619Y-75659580D01*
D14*
X179238095Y-49757419D02*
X179238095Y-50566942D01*
X179238095Y-50566942D02*
X179285714Y-50662180D01*
X179285714Y-50662180D02*
X179333333Y-50709800D01*
X179333333Y-50709800D02*
X179428571Y-50757419D01*
X179428571Y-50757419D02*
X179619047Y-50757419D01*
X179619047Y-50757419D02*
X179714285Y-50709800D01*
X179714285Y-50709800D02*
X179761904Y-50662180D01*
X179761904Y-50662180D02*
X179809523Y-50566942D01*
X179809523Y-50566942D02*
X179809523Y-49757419D01*
X180809523Y-50757419D02*
X180238095Y-50757419D01*
X180523809Y-50757419D02*
X180523809Y-49757419D01*
X180523809Y-49757419D02*
X180428571Y-49900276D01*
X180428571Y-49900276D02*
X180333333Y-49995514D01*
X180333333Y-49995514D02*
X180238095Y-50043133D01*
D13*
X192062295Y-48790475D02*
X191262295Y-48790475D01*
X191262295Y-48790475D02*
X191262295Y-48599999D01*
X191262295Y-48599999D02*
X191300390Y-48485713D01*
X191300390Y-48485713D02*
X191376580Y-48409523D01*
X191376580Y-48409523D02*
X191452771Y-48371428D01*
X191452771Y-48371428D02*
X191605152Y-48333332D01*
X191605152Y-48333332D02*
X191719438Y-48333332D01*
X191719438Y-48333332D02*
X191871819Y-48371428D01*
X191871819Y-48371428D02*
X191948009Y-48409523D01*
X191948009Y-48409523D02*
X192024200Y-48485713D01*
X192024200Y-48485713D02*
X192062295Y-48599999D01*
X192062295Y-48599999D02*
X192062295Y-48790475D01*
X191262295Y-47609523D02*
X191262295Y-47990475D01*
X191262295Y-47990475D02*
X191643247Y-48028571D01*
X191643247Y-48028571D02*
X191605152Y-47990475D01*
X191605152Y-47990475D02*
X191567057Y-47914285D01*
X191567057Y-47914285D02*
X191567057Y-47723809D01*
X191567057Y-47723809D02*
X191605152Y-47647618D01*
X191605152Y-47647618D02*
X191643247Y-47609523D01*
X191643247Y-47609523D02*
X191719438Y-47571428D01*
X191719438Y-47571428D02*
X191909914Y-47571428D01*
X191909914Y-47571428D02*
X191986104Y-47609523D01*
X191986104Y-47609523D02*
X192024200Y-47647618D01*
X192024200Y-47647618D02*
X192062295Y-47723809D01*
X192062295Y-47723809D02*
X192062295Y-47914285D01*
X192062295Y-47914285D02*
X192024200Y-47990475D01*
X192024200Y-47990475D02*
X191986104Y-48028571D01*
X157104761Y-56850057D02*
X157009523Y-56802438D01*
X157009523Y-56802438D02*
X156914285Y-56707200D01*
X156914285Y-56707200D02*
X156771428Y-56564342D01*
X156771428Y-56564342D02*
X156676190Y-56516723D01*
X156676190Y-56516723D02*
X156580952Y-56516723D01*
X156628571Y-56754819D02*
X156533333Y-56707200D01*
X156533333Y-56707200D02*
X156438095Y-56611961D01*
X156438095Y-56611961D02*
X156390476Y-56421485D01*
X156390476Y-56421485D02*
X156390476Y-56088152D01*
X156390476Y-56088152D02*
X156438095Y-55897676D01*
X156438095Y-55897676D02*
X156533333Y-55802438D01*
X156533333Y-55802438D02*
X156628571Y-55754819D01*
X156628571Y-55754819D02*
X156819047Y-55754819D01*
X156819047Y-55754819D02*
X156914285Y-55802438D01*
X156914285Y-55802438D02*
X157009523Y-55897676D01*
X157009523Y-55897676D02*
X157057142Y-56088152D01*
X157057142Y-56088152D02*
X157057142Y-56421485D01*
X157057142Y-56421485D02*
X157009523Y-56611961D01*
X157009523Y-56611961D02*
X156914285Y-56707200D01*
X156914285Y-56707200D02*
X156819047Y-56754819D01*
X156819047Y-56754819D02*
X156628571Y-56754819D01*
X157438095Y-55850057D02*
X157485714Y-55802438D01*
X157485714Y-55802438D02*
X157580952Y-55754819D01*
X157580952Y-55754819D02*
X157819047Y-55754819D01*
X157819047Y-55754819D02*
X157914285Y-55802438D01*
X157914285Y-55802438D02*
X157961904Y-55850057D01*
X157961904Y-55850057D02*
X158009523Y-55945295D01*
X158009523Y-55945295D02*
X158009523Y-56040533D01*
X158009523Y-56040533D02*
X157961904Y-56183390D01*
X157961904Y-56183390D02*
X157390476Y-56754819D01*
X157390476Y-56754819D02*
X158009523Y-56754819D01*
X176066667Y-55386104D02*
X176028571Y-55424200D01*
X176028571Y-55424200D02*
X175914286Y-55462295D01*
X175914286Y-55462295D02*
X175838095Y-55462295D01*
X175838095Y-55462295D02*
X175723809Y-55424200D01*
X175723809Y-55424200D02*
X175647619Y-55348009D01*
X175647619Y-55348009D02*
X175609524Y-55271819D01*
X175609524Y-55271819D02*
X175571428Y-55119438D01*
X175571428Y-55119438D02*
X175571428Y-55005152D01*
X175571428Y-55005152D02*
X175609524Y-54852771D01*
X175609524Y-54852771D02*
X175647619Y-54776580D01*
X175647619Y-54776580D02*
X175723809Y-54700390D01*
X175723809Y-54700390D02*
X175838095Y-54662295D01*
X175838095Y-54662295D02*
X175914286Y-54662295D01*
X175914286Y-54662295D02*
X176028571Y-54700390D01*
X176028571Y-54700390D02*
X176066667Y-54738485D01*
X176828571Y-55462295D02*
X176371428Y-55462295D01*
X176600000Y-55462295D02*
X176600000Y-54662295D01*
X176600000Y-54662295D02*
X176523809Y-54776580D01*
X176523809Y-54776580D02*
X176447619Y-54852771D01*
X176447619Y-54852771D02*
X176371428Y-54890866D01*
X172966667Y-67362295D02*
X172700000Y-66981342D01*
X172509524Y-67362295D02*
X172509524Y-66562295D01*
X172509524Y-66562295D02*
X172814286Y-66562295D01*
X172814286Y-66562295D02*
X172890476Y-66600390D01*
X172890476Y-66600390D02*
X172928571Y-66638485D01*
X172928571Y-66638485D02*
X172966667Y-66714676D01*
X172966667Y-66714676D02*
X172966667Y-66828961D01*
X172966667Y-66828961D02*
X172928571Y-66905152D01*
X172928571Y-66905152D02*
X172890476Y-66943247D01*
X172890476Y-66943247D02*
X172814286Y-66981342D01*
X172814286Y-66981342D02*
X172509524Y-66981342D01*
X173690476Y-66562295D02*
X173309524Y-66562295D01*
X173309524Y-66562295D02*
X173271428Y-66943247D01*
X173271428Y-66943247D02*
X173309524Y-66905152D01*
X173309524Y-66905152D02*
X173385714Y-66867057D01*
X173385714Y-66867057D02*
X173576190Y-66867057D01*
X173576190Y-66867057D02*
X173652381Y-66905152D01*
X173652381Y-66905152D02*
X173690476Y-66943247D01*
X173690476Y-66943247D02*
X173728571Y-67019438D01*
X173728571Y-67019438D02*
X173728571Y-67209914D01*
X173728571Y-67209914D02*
X173690476Y-67286104D01*
X173690476Y-67286104D02*
X173652381Y-67324200D01*
X173652381Y-67324200D02*
X173576190Y-67362295D01*
X173576190Y-67362295D02*
X173385714Y-67362295D01*
X173385714Y-67362295D02*
X173309524Y-67324200D01*
X173309524Y-67324200D02*
X173271428Y-67286104D01*
X203054819Y-65933333D02*
X203769104Y-65933333D01*
X203769104Y-65933333D02*
X203911961Y-65980952D01*
X203911961Y-65980952D02*
X204007200Y-66076190D01*
X204007200Y-66076190D02*
X204054819Y-66219047D01*
X204054819Y-66219047D02*
X204054819Y-66314285D01*
X203054819Y-64980952D02*
X203054819Y-65457142D01*
X203054819Y-65457142D02*
X203531009Y-65504761D01*
X203531009Y-65504761D02*
X203483390Y-65457142D01*
X203483390Y-65457142D02*
X203435771Y-65361904D01*
X203435771Y-65361904D02*
X203435771Y-65123809D01*
X203435771Y-65123809D02*
X203483390Y-65028571D01*
X203483390Y-65028571D02*
X203531009Y-64980952D01*
X203531009Y-64980952D02*
X203626247Y-64933333D01*
X203626247Y-64933333D02*
X203864342Y-64933333D01*
X203864342Y-64933333D02*
X203959580Y-64980952D01*
X203959580Y-64980952D02*
X204007200Y-65028571D01*
X204007200Y-65028571D02*
X204054819Y-65123809D01*
X204054819Y-65123809D02*
X204054819Y-65361904D01*
X204054819Y-65361904D02*
X204007200Y-65457142D01*
X204007200Y-65457142D02*
X203959580Y-65504761D01*
X177709524Y-64662295D02*
X177709524Y-63862295D01*
X177709524Y-63862295D02*
X177900000Y-63862295D01*
X177900000Y-63862295D02*
X178014286Y-63900390D01*
X178014286Y-63900390D02*
X178090476Y-63976580D01*
X178090476Y-63976580D02*
X178128571Y-64052771D01*
X178128571Y-64052771D02*
X178166667Y-64205152D01*
X178166667Y-64205152D02*
X178166667Y-64319438D01*
X178166667Y-64319438D02*
X178128571Y-64471819D01*
X178128571Y-64471819D02*
X178090476Y-64548009D01*
X178090476Y-64548009D02*
X178014286Y-64624200D01*
X178014286Y-64624200D02*
X177900000Y-64662295D01*
X177900000Y-64662295D02*
X177709524Y-64662295D01*
X178852381Y-63862295D02*
X178700000Y-63862295D01*
X178700000Y-63862295D02*
X178623809Y-63900390D01*
X178623809Y-63900390D02*
X178585714Y-63938485D01*
X178585714Y-63938485D02*
X178509524Y-64052771D01*
X178509524Y-64052771D02*
X178471428Y-64205152D01*
X178471428Y-64205152D02*
X178471428Y-64509914D01*
X178471428Y-64509914D02*
X178509524Y-64586104D01*
X178509524Y-64586104D02*
X178547619Y-64624200D01*
X178547619Y-64624200D02*
X178623809Y-64662295D01*
X178623809Y-64662295D02*
X178776190Y-64662295D01*
X178776190Y-64662295D02*
X178852381Y-64624200D01*
X178852381Y-64624200D02*
X178890476Y-64586104D01*
X178890476Y-64586104D02*
X178928571Y-64509914D01*
X178928571Y-64509914D02*
X178928571Y-64319438D01*
X178928571Y-64319438D02*
X178890476Y-64243247D01*
X178890476Y-64243247D02*
X178852381Y-64205152D01*
X178852381Y-64205152D02*
X178776190Y-64167057D01*
X178776190Y-64167057D02*
X178623809Y-64167057D01*
X178623809Y-64167057D02*
X178547619Y-64205152D01*
X178547619Y-64205152D02*
X178509524Y-64243247D01*
X178509524Y-64243247D02*
X178471428Y-64319438D01*
X186762295Y-48790475D02*
X185962295Y-48790475D01*
X185962295Y-48790475D02*
X185962295Y-48599999D01*
X185962295Y-48599999D02*
X186000390Y-48485713D01*
X186000390Y-48485713D02*
X186076580Y-48409523D01*
X186076580Y-48409523D02*
X186152771Y-48371428D01*
X186152771Y-48371428D02*
X186305152Y-48333332D01*
X186305152Y-48333332D02*
X186419438Y-48333332D01*
X186419438Y-48333332D02*
X186571819Y-48371428D01*
X186571819Y-48371428D02*
X186648009Y-48409523D01*
X186648009Y-48409523D02*
X186724200Y-48485713D01*
X186724200Y-48485713D02*
X186762295Y-48599999D01*
X186762295Y-48599999D02*
X186762295Y-48790475D01*
X186762295Y-47571428D02*
X186762295Y-48028571D01*
X186762295Y-47799999D02*
X185962295Y-47799999D01*
X185962295Y-47799999D02*
X186076580Y-47876190D01*
X186076580Y-47876190D02*
X186152771Y-47952380D01*
X186152771Y-47952380D02*
X186190866Y-48028571D01*
X176466667Y-67462295D02*
X176200000Y-67081342D01*
X176009524Y-67462295D02*
X176009524Y-66662295D01*
X176009524Y-66662295D02*
X176314286Y-66662295D01*
X176314286Y-66662295D02*
X176390476Y-66700390D01*
X176390476Y-66700390D02*
X176428571Y-66738485D01*
X176428571Y-66738485D02*
X176466667Y-66814676D01*
X176466667Y-66814676D02*
X176466667Y-66928961D01*
X176466667Y-66928961D02*
X176428571Y-67005152D01*
X176428571Y-67005152D02*
X176390476Y-67043247D01*
X176390476Y-67043247D02*
X176314286Y-67081342D01*
X176314286Y-67081342D02*
X176009524Y-67081342D01*
X176733333Y-66662295D02*
X177266667Y-66662295D01*
X177266667Y-66662295D02*
X176923809Y-67462295D01*
X146466666Y-51854819D02*
X146466666Y-52569104D01*
X146466666Y-52569104D02*
X146419047Y-52711961D01*
X146419047Y-52711961D02*
X146323809Y-52807200D01*
X146323809Y-52807200D02*
X146180952Y-52854819D01*
X146180952Y-52854819D02*
X146085714Y-52854819D01*
X146847619Y-51854819D02*
X147514285Y-51854819D01*
X147514285Y-51854819D02*
X147085714Y-52854819D01*
X189462295Y-48790475D02*
X188662295Y-48790475D01*
X188662295Y-48790475D02*
X188662295Y-48599999D01*
X188662295Y-48599999D02*
X188700390Y-48485713D01*
X188700390Y-48485713D02*
X188776580Y-48409523D01*
X188776580Y-48409523D02*
X188852771Y-48371428D01*
X188852771Y-48371428D02*
X189005152Y-48333332D01*
X189005152Y-48333332D02*
X189119438Y-48333332D01*
X189119438Y-48333332D02*
X189271819Y-48371428D01*
X189271819Y-48371428D02*
X189348009Y-48409523D01*
X189348009Y-48409523D02*
X189424200Y-48485713D01*
X189424200Y-48485713D02*
X189462295Y-48599999D01*
X189462295Y-48599999D02*
X189462295Y-48790475D01*
X188662295Y-48066666D02*
X188662295Y-47571428D01*
X188662295Y-47571428D02*
X188967057Y-47838094D01*
X188967057Y-47838094D02*
X188967057Y-47723809D01*
X188967057Y-47723809D02*
X189005152Y-47647618D01*
X189005152Y-47647618D02*
X189043247Y-47609523D01*
X189043247Y-47609523D02*
X189119438Y-47571428D01*
X189119438Y-47571428D02*
X189309914Y-47571428D01*
X189309914Y-47571428D02*
X189386104Y-47609523D01*
X189386104Y-47609523D02*
X189424200Y-47647618D01*
X189424200Y-47647618D02*
X189462295Y-47723809D01*
X189462295Y-47723809D02*
X189462295Y-47952380D01*
X189462295Y-47952380D02*
X189424200Y-48028571D01*
X189424200Y-48028571D02*
X189386104Y-48066666D01*
X162866666Y-53854819D02*
X162866666Y-54569104D01*
X162866666Y-54569104D02*
X162819047Y-54711961D01*
X162819047Y-54711961D02*
X162723809Y-54807200D01*
X162723809Y-54807200D02*
X162580952Y-54854819D01*
X162580952Y-54854819D02*
X162485714Y-54854819D01*
X163295238Y-53950057D02*
X163342857Y-53902438D01*
X163342857Y-53902438D02*
X163438095Y-53854819D01*
X163438095Y-53854819D02*
X163676190Y-53854819D01*
X163676190Y-53854819D02*
X163771428Y-53902438D01*
X163771428Y-53902438D02*
X163819047Y-53950057D01*
X163819047Y-53950057D02*
X163866666Y-54045295D01*
X163866666Y-54045295D02*
X163866666Y-54140533D01*
X163866666Y-54140533D02*
X163819047Y-54283390D01*
X163819047Y-54283390D02*
X163247619Y-54854819D01*
X163247619Y-54854819D02*
X163866666Y-54854819D01*
X180966667Y-61686104D02*
X180928571Y-61724200D01*
X180928571Y-61724200D02*
X180814286Y-61762295D01*
X180814286Y-61762295D02*
X180738095Y-61762295D01*
X180738095Y-61762295D02*
X180623809Y-61724200D01*
X180623809Y-61724200D02*
X180547619Y-61648009D01*
X180547619Y-61648009D02*
X180509524Y-61571819D01*
X180509524Y-61571819D02*
X180471428Y-61419438D01*
X180471428Y-61419438D02*
X180471428Y-61305152D01*
X180471428Y-61305152D02*
X180509524Y-61152771D01*
X180509524Y-61152771D02*
X180547619Y-61076580D01*
X180547619Y-61076580D02*
X180623809Y-61000390D01*
X180623809Y-61000390D02*
X180738095Y-60962295D01*
X180738095Y-60962295D02*
X180814286Y-60962295D01*
X180814286Y-60962295D02*
X180928571Y-61000390D01*
X180928571Y-61000390D02*
X180966667Y-61038485D01*
X181690476Y-60962295D02*
X181309524Y-60962295D01*
X181309524Y-60962295D02*
X181271428Y-61343247D01*
X181271428Y-61343247D02*
X181309524Y-61305152D01*
X181309524Y-61305152D02*
X181385714Y-61267057D01*
X181385714Y-61267057D02*
X181576190Y-61267057D01*
X181576190Y-61267057D02*
X181652381Y-61305152D01*
X181652381Y-61305152D02*
X181690476Y-61343247D01*
X181690476Y-61343247D02*
X181728571Y-61419438D01*
X181728571Y-61419438D02*
X181728571Y-61609914D01*
X181728571Y-61609914D02*
X181690476Y-61686104D01*
X181690476Y-61686104D02*
X181652381Y-61724200D01*
X181652381Y-61724200D02*
X181576190Y-61762295D01*
X181576190Y-61762295D02*
X181385714Y-61762295D01*
X181385714Y-61762295D02*
X181309524Y-61724200D01*
X181309524Y-61724200D02*
X181271428Y-61686104D01*
X192566666Y-68754819D02*
X192566666Y-69469104D01*
X192566666Y-69469104D02*
X192519047Y-69611961D01*
X192519047Y-69611961D02*
X192423809Y-69707200D01*
X192423809Y-69707200D02*
X192280952Y-69754819D01*
X192280952Y-69754819D02*
X192185714Y-69754819D01*
X193185714Y-69183390D02*
X193090476Y-69135771D01*
X193090476Y-69135771D02*
X193042857Y-69088152D01*
X193042857Y-69088152D02*
X192995238Y-68992914D01*
X192995238Y-68992914D02*
X192995238Y-68945295D01*
X192995238Y-68945295D02*
X193042857Y-68850057D01*
X193042857Y-68850057D02*
X193090476Y-68802438D01*
X193090476Y-68802438D02*
X193185714Y-68754819D01*
X193185714Y-68754819D02*
X193376190Y-68754819D01*
X193376190Y-68754819D02*
X193471428Y-68802438D01*
X193471428Y-68802438D02*
X193519047Y-68850057D01*
X193519047Y-68850057D02*
X193566666Y-68945295D01*
X193566666Y-68945295D02*
X193566666Y-68992914D01*
X193566666Y-68992914D02*
X193519047Y-69088152D01*
X193519047Y-69088152D02*
X193471428Y-69135771D01*
X193471428Y-69135771D02*
X193376190Y-69183390D01*
X193376190Y-69183390D02*
X193185714Y-69183390D01*
X193185714Y-69183390D02*
X193090476Y-69231009D01*
X193090476Y-69231009D02*
X193042857Y-69278628D01*
X193042857Y-69278628D02*
X192995238Y-69373866D01*
X192995238Y-69373866D02*
X192995238Y-69564342D01*
X192995238Y-69564342D02*
X193042857Y-69659580D01*
X193042857Y-69659580D02*
X193090476Y-69707200D01*
X193090476Y-69707200D02*
X193185714Y-69754819D01*
X193185714Y-69754819D02*
X193376190Y-69754819D01*
X193376190Y-69754819D02*
X193471428Y-69707200D01*
X193471428Y-69707200D02*
X193519047Y-69659580D01*
X193519047Y-69659580D02*
X193566666Y-69564342D01*
X193566666Y-69564342D02*
X193566666Y-69373866D01*
X193566666Y-69373866D02*
X193519047Y-69278628D01*
X193519047Y-69278628D02*
X193471428Y-69231009D01*
X193471428Y-69231009D02*
X193376190Y-69183390D01*
X176038095Y-61954819D02*
X176038095Y-62764342D01*
X176038095Y-62764342D02*
X176085714Y-62859580D01*
X176085714Y-62859580D02*
X176133333Y-62907200D01*
X176133333Y-62907200D02*
X176228571Y-62954819D01*
X176228571Y-62954819D02*
X176419047Y-62954819D01*
X176419047Y-62954819D02*
X176514285Y-62907200D01*
X176514285Y-62907200D02*
X176561904Y-62859580D01*
X176561904Y-62859580D02*
X176609523Y-62764342D01*
X176609523Y-62764342D02*
X176609523Y-61954819D01*
X176990476Y-61954819D02*
X177609523Y-61954819D01*
X177609523Y-61954819D02*
X177276190Y-62335771D01*
X177276190Y-62335771D02*
X177419047Y-62335771D01*
X177419047Y-62335771D02*
X177514285Y-62383390D01*
X177514285Y-62383390D02*
X177561904Y-62431009D01*
X177561904Y-62431009D02*
X177609523Y-62526247D01*
X177609523Y-62526247D02*
X177609523Y-62764342D01*
X177609523Y-62764342D02*
X177561904Y-62859580D01*
X177561904Y-62859580D02*
X177514285Y-62907200D01*
X177514285Y-62907200D02*
X177419047Y-62954819D01*
X177419047Y-62954819D02*
X177133333Y-62954819D01*
X177133333Y-62954819D02*
X177038095Y-62907200D01*
X177038095Y-62907200D02*
X176990476Y-62859580D01*
X190738095Y-54854819D02*
X190738095Y-55664342D01*
X190738095Y-55664342D02*
X190785714Y-55759580D01*
X190785714Y-55759580D02*
X190833333Y-55807200D01*
X190833333Y-55807200D02*
X190928571Y-55854819D01*
X190928571Y-55854819D02*
X191119047Y-55854819D01*
X191119047Y-55854819D02*
X191214285Y-55807200D01*
X191214285Y-55807200D02*
X191261904Y-55759580D01*
X191261904Y-55759580D02*
X191309523Y-55664342D01*
X191309523Y-55664342D02*
X191309523Y-54854819D01*
X191738095Y-54950057D02*
X191785714Y-54902438D01*
X191785714Y-54902438D02*
X191880952Y-54854819D01*
X191880952Y-54854819D02*
X192119047Y-54854819D01*
X192119047Y-54854819D02*
X192214285Y-54902438D01*
X192214285Y-54902438D02*
X192261904Y-54950057D01*
X192261904Y-54950057D02*
X192309523Y-55045295D01*
X192309523Y-55045295D02*
X192309523Y-55140533D01*
X192309523Y-55140533D02*
X192261904Y-55283390D01*
X192261904Y-55283390D02*
X191690476Y-55854819D01*
X191690476Y-55854819D02*
X192309523Y-55854819D01*
X157857142Y-58454819D02*
X157523809Y-57978628D01*
X157285714Y-58454819D02*
X157285714Y-57454819D01*
X157285714Y-57454819D02*
X157666666Y-57454819D01*
X157666666Y-57454819D02*
X157761904Y-57502438D01*
X157761904Y-57502438D02*
X157809523Y-57550057D01*
X157809523Y-57550057D02*
X157857142Y-57645295D01*
X157857142Y-57645295D02*
X157857142Y-57788152D01*
X157857142Y-57788152D02*
X157809523Y-57883390D01*
X157809523Y-57883390D02*
X157761904Y-57931009D01*
X157761904Y-57931009D02*
X157666666Y-57978628D01*
X157666666Y-57978628D02*
X157285714Y-57978628D01*
X158809523Y-58454819D02*
X158238095Y-58454819D01*
X158523809Y-58454819D02*
X158523809Y-57454819D01*
X158523809Y-57454819D02*
X158428571Y-57597676D01*
X158428571Y-57597676D02*
X158333333Y-57692914D01*
X158333333Y-57692914D02*
X158238095Y-57740533D01*
X159428571Y-57454819D02*
X159523809Y-57454819D01*
X159523809Y-57454819D02*
X159619047Y-57502438D01*
X159619047Y-57502438D02*
X159666666Y-57550057D01*
X159666666Y-57550057D02*
X159714285Y-57645295D01*
X159714285Y-57645295D02*
X159761904Y-57835771D01*
X159761904Y-57835771D02*
X159761904Y-58073866D01*
X159761904Y-58073866D02*
X159714285Y-58264342D01*
X159714285Y-58264342D02*
X159666666Y-58359580D01*
X159666666Y-58359580D02*
X159619047Y-58407200D01*
X159619047Y-58407200D02*
X159523809Y-58454819D01*
X159523809Y-58454819D02*
X159428571Y-58454819D01*
X159428571Y-58454819D02*
X159333333Y-58407200D01*
X159333333Y-58407200D02*
X159285714Y-58359580D01*
X159285714Y-58359580D02*
X159238095Y-58264342D01*
X159238095Y-58264342D02*
X159190476Y-58073866D01*
X159190476Y-58073866D02*
X159190476Y-57835771D01*
X159190476Y-57835771D02*
X159238095Y-57645295D01*
X159238095Y-57645295D02*
X159285714Y-57550057D01*
X159285714Y-57550057D02*
X159333333Y-57502438D01*
X159333333Y-57502438D02*
X159428571Y-57454819D01*
X178566667Y-57686104D02*
X178528571Y-57724200D01*
X178528571Y-57724200D02*
X178414286Y-57762295D01*
X178414286Y-57762295D02*
X178338095Y-57762295D01*
X178338095Y-57762295D02*
X178223809Y-57724200D01*
X178223809Y-57724200D02*
X178147619Y-57648009D01*
X178147619Y-57648009D02*
X178109524Y-57571819D01*
X178109524Y-57571819D02*
X178071428Y-57419438D01*
X178071428Y-57419438D02*
X178071428Y-57305152D01*
X178071428Y-57305152D02*
X178109524Y-57152771D01*
X178109524Y-57152771D02*
X178147619Y-57076580D01*
X178147619Y-57076580D02*
X178223809Y-57000390D01*
X178223809Y-57000390D02*
X178338095Y-56962295D01*
X178338095Y-56962295D02*
X178414286Y-56962295D01*
X178414286Y-56962295D02*
X178528571Y-57000390D01*
X178528571Y-57000390D02*
X178566667Y-57038485D01*
X179023809Y-57305152D02*
X178947619Y-57267057D01*
X178947619Y-57267057D02*
X178909524Y-57228961D01*
X178909524Y-57228961D02*
X178871428Y-57152771D01*
X178871428Y-57152771D02*
X178871428Y-57114676D01*
X178871428Y-57114676D02*
X178909524Y-57038485D01*
X178909524Y-57038485D02*
X178947619Y-57000390D01*
X178947619Y-57000390D02*
X179023809Y-56962295D01*
X179023809Y-56962295D02*
X179176190Y-56962295D01*
X179176190Y-56962295D02*
X179252381Y-57000390D01*
X179252381Y-57000390D02*
X179290476Y-57038485D01*
X179290476Y-57038485D02*
X179328571Y-57114676D01*
X179328571Y-57114676D02*
X179328571Y-57152771D01*
X179328571Y-57152771D02*
X179290476Y-57228961D01*
X179290476Y-57228961D02*
X179252381Y-57267057D01*
X179252381Y-57267057D02*
X179176190Y-57305152D01*
X179176190Y-57305152D02*
X179023809Y-57305152D01*
X179023809Y-57305152D02*
X178947619Y-57343247D01*
X178947619Y-57343247D02*
X178909524Y-57381342D01*
X178909524Y-57381342D02*
X178871428Y-57457533D01*
X178871428Y-57457533D02*
X178871428Y-57609914D01*
X178871428Y-57609914D02*
X178909524Y-57686104D01*
X178909524Y-57686104D02*
X178947619Y-57724200D01*
X178947619Y-57724200D02*
X179023809Y-57762295D01*
X179023809Y-57762295D02*
X179176190Y-57762295D01*
X179176190Y-57762295D02*
X179252381Y-57724200D01*
X179252381Y-57724200D02*
X179290476Y-57686104D01*
X179290476Y-57686104D02*
X179328571Y-57609914D01*
X179328571Y-57609914D02*
X179328571Y-57457533D01*
X179328571Y-57457533D02*
X179290476Y-57381342D01*
X179290476Y-57381342D02*
X179252381Y-57343247D01*
X179252381Y-57343247D02*
X179176190Y-57305152D01*
X180966667Y-58586104D02*
X180928571Y-58624200D01*
X180928571Y-58624200D02*
X180814286Y-58662295D01*
X180814286Y-58662295D02*
X180738095Y-58662295D01*
X180738095Y-58662295D02*
X180623809Y-58624200D01*
X180623809Y-58624200D02*
X180547619Y-58548009D01*
X180547619Y-58548009D02*
X180509524Y-58471819D01*
X180509524Y-58471819D02*
X180471428Y-58319438D01*
X180471428Y-58319438D02*
X180471428Y-58205152D01*
X180471428Y-58205152D02*
X180509524Y-58052771D01*
X180509524Y-58052771D02*
X180547619Y-57976580D01*
X180547619Y-57976580D02*
X180623809Y-57900390D01*
X180623809Y-57900390D02*
X180738095Y-57862295D01*
X180738095Y-57862295D02*
X180814286Y-57862295D01*
X180814286Y-57862295D02*
X180928571Y-57900390D01*
X180928571Y-57900390D02*
X180966667Y-57938485D01*
X181652381Y-58128961D02*
X181652381Y-58662295D01*
X181461905Y-57824200D02*
X181271428Y-58395628D01*
X181271428Y-58395628D02*
X181766667Y-58395628D01*
X174309524Y-64662295D02*
X174309524Y-63862295D01*
X174309524Y-63862295D02*
X174500000Y-63862295D01*
X174500000Y-63862295D02*
X174614286Y-63900390D01*
X174614286Y-63900390D02*
X174690476Y-63976580D01*
X174690476Y-63976580D02*
X174728571Y-64052771D01*
X174728571Y-64052771D02*
X174766667Y-64205152D01*
X174766667Y-64205152D02*
X174766667Y-64319438D01*
X174766667Y-64319438D02*
X174728571Y-64471819D01*
X174728571Y-64471819D02*
X174690476Y-64548009D01*
X174690476Y-64548009D02*
X174614286Y-64624200D01*
X174614286Y-64624200D02*
X174500000Y-64662295D01*
X174500000Y-64662295D02*
X174309524Y-64662295D01*
X175452381Y-64128961D02*
X175452381Y-64662295D01*
X175261905Y-63824200D02*
X175071428Y-64395628D01*
X175071428Y-64395628D02*
X175566667Y-64395628D01*
D15*
%TO.C,J4*%
X194040000Y-46890000D02*
X194040000Y-52860000D01*
X194040000Y-52860000D02*
X204160000Y-52860000D01*
X194050000Y-50600000D02*
X194800000Y-50600000D01*
X194050000Y-52100000D02*
X194050000Y-52850000D01*
X194050000Y-52850000D02*
X195850000Y-52850000D01*
X194800000Y-47650000D02*
X199100000Y-47650000D01*
X194800000Y-50600000D02*
X194800000Y-47650000D01*
X195850000Y-52100000D02*
X194050000Y-52100000D01*
X195850000Y-52850000D02*
X195850000Y-52100000D01*
X197350000Y-52100000D02*
X197350000Y-52850000D01*
X197350000Y-52850000D02*
X200850000Y-52850000D01*
X200850000Y-52100000D02*
X197350000Y-52100000D01*
X200850000Y-52850000D02*
X200850000Y-52100000D01*
X202350000Y-52100000D02*
X202350000Y-52850000D01*
X202350000Y-52850000D02*
X204150000Y-52850000D01*
X203200000Y-53150000D02*
X204450000Y-53150000D01*
X203400000Y-47650000D02*
X199100000Y-47650000D01*
X203400000Y-50600000D02*
X203400000Y-47650000D01*
X204150000Y-50600000D02*
X203400000Y-50600000D01*
X204150000Y-52100000D02*
X202350000Y-52100000D01*
X204150000Y-52850000D02*
X204150000Y-52100000D01*
X204160000Y-46890000D02*
X194040000Y-46890000D01*
X204160000Y-52860000D02*
X204160000Y-46890000D01*
X204450000Y-53150000D02*
X204450000Y-51900000D01*
%TO.C,C9*%
X189990000Y-67857836D02*
X189990000Y-67642164D01*
X190710000Y-67857836D02*
X190710000Y-67642164D01*
%TO.C,R3*%
X171246359Y-66520000D02*
X171553641Y-66520000D01*
X171246359Y-67280000D02*
X171553641Y-67280000D01*
%TO.C,J1*%
X153190000Y-46890000D02*
X153190000Y-52860000D01*
X153190000Y-52860000D02*
X160810000Y-52860000D01*
X153200000Y-50600000D02*
X153950000Y-50600000D01*
X153200000Y-52100000D02*
X153200000Y-52850000D01*
X153200000Y-52850000D02*
X155000000Y-52850000D01*
X153950000Y-47650000D02*
X157000000Y-47650000D01*
X153950000Y-50600000D02*
X153950000Y-47650000D01*
X155000000Y-52100000D02*
X153200000Y-52100000D01*
X155000000Y-52850000D02*
X155000000Y-52100000D01*
X156500000Y-52100000D02*
X156500000Y-52850000D01*
X156500000Y-52850000D02*
X157500000Y-52850000D01*
X157500000Y-52100000D02*
X156500000Y-52100000D01*
X157500000Y-52850000D02*
X157500000Y-52100000D01*
X159000000Y-52100000D02*
X159000000Y-52850000D01*
X159000000Y-52850000D02*
X160800000Y-52850000D01*
X159850000Y-53150000D02*
X161100000Y-53150000D01*
X160050000Y-47650000D02*
X157000000Y-47650000D01*
X160050000Y-50600000D02*
X160050000Y-47650000D01*
X160800000Y-50600000D02*
X160050000Y-50600000D01*
X160800000Y-52100000D02*
X159000000Y-52100000D01*
X160800000Y-52850000D02*
X160800000Y-52100000D01*
X160810000Y-46890000D02*
X153190000Y-46890000D01*
X160810000Y-52860000D02*
X160810000Y-46890000D01*
X161100000Y-53150000D02*
X161100000Y-51900000D01*
%TO.C,U4*%
X186477500Y-68960000D02*
X186477500Y-68785000D01*
X187152500Y-66240000D02*
X186777500Y-66240000D01*
X187152500Y-68960000D02*
X186477500Y-68960000D01*
X189022500Y-66240000D02*
X189697500Y-66240000D01*
X189022500Y-68960000D02*
X189697500Y-68960000D01*
X189697500Y-66240000D02*
X189697500Y-66415000D01*
X189697500Y-68960000D02*
X189697500Y-68785000D01*
X186477500Y-66240000D02*
X186337500Y-66050000D01*
X186617500Y-66050000D01*
X186477500Y-66240000D01*
G36*
X186477500Y-66240000D02*
G01*
X186337500Y-66050000D01*
X186617500Y-66050000D01*
X186477500Y-66240000D01*
G37*
%TO.C,D2*%
X169915000Y-64865000D02*
X169915000Y-66335000D01*
X169915000Y-66335000D02*
X172200000Y-66335000D01*
X172200000Y-64865000D02*
X169915000Y-64865000D01*
%TO.C,R6*%
X192530000Y-50863641D02*
X192530000Y-50556359D01*
X193290000Y-50863641D02*
X193290000Y-50556359D01*
%TO.C,C2*%
X180540000Y-55707836D02*
X180540000Y-55492164D01*
X181260000Y-55707836D02*
X181260000Y-55492164D01*
%TO.C,R9*%
X156320000Y-66546359D02*
X156320000Y-66853641D01*
X157080000Y-66546359D02*
X157080000Y-66853641D01*
%TO.C,SW2*%
X202030000Y-59930000D02*
X202030000Y-59900000D01*
X202030000Y-55400000D02*
X202030000Y-58000000D01*
X202030000Y-53470000D02*
X202030000Y-53500000D01*
X195570000Y-59930000D02*
X202030000Y-59930000D01*
X195570000Y-59930000D02*
X195570000Y-59900000D01*
X195570000Y-55400000D02*
X195570000Y-58000000D01*
X195570000Y-53500000D02*
X195570000Y-53470000D01*
X195570000Y-53470000D02*
X202030000Y-53470000D01*
%TO.C,R1*%
X172053641Y-53520000D02*
X171746359Y-53520000D01*
X172053641Y-54280000D02*
X171746359Y-54280000D01*
%TO.C,R2*%
X187320000Y-50843641D02*
X187320000Y-50536359D01*
X188080000Y-50843641D02*
X188080000Y-50536359D01*
%TO.C,C6*%
X181540000Y-55707836D02*
X181540000Y-55492164D01*
X182260000Y-55707836D02*
X182260000Y-55492164D01*
%TO.C,R8*%
X182520000Y-55743641D02*
X182520000Y-55436359D01*
X183280000Y-55743641D02*
X183280000Y-55436359D01*
D14*
%TO.C,SW1*%
X161350000Y-46700000D02*
X174050000Y-46700000D01*
X161350000Y-53300000D02*
X161350000Y-46700000D01*
X174050000Y-46700000D02*
X174050000Y-53300000D01*
X174050000Y-53300000D02*
X161350000Y-53300000D01*
D15*
%TO.C,C7*%
X167790000Y-62940580D02*
X167790000Y-62659420D01*
X168810000Y-62940580D02*
X168810000Y-62659420D01*
%TO.C,Q1*%
X152940000Y-66262500D02*
X152940000Y-65612500D01*
X152940000Y-66262500D02*
X152940000Y-66912500D01*
X156060000Y-66262500D02*
X156060000Y-65612500D01*
X156060000Y-66262500D02*
X156060000Y-66912500D01*
X152990000Y-67425000D02*
X152660000Y-67665000D01*
X152660000Y-67185000D01*
X152990000Y-67425000D01*
G36*
X152990000Y-67425000D02*
G01*
X152660000Y-67665000D01*
X152660000Y-67185000D01*
X152990000Y-67425000D01*
G37*
%TO.C,R4*%
X189920000Y-50843641D02*
X189920000Y-50536359D01*
X190680000Y-50843641D02*
X190680000Y-50536359D01*
%TO.C,C3*%
X192540000Y-63472164D02*
X192540000Y-63687836D01*
X193260000Y-63472164D02*
X193260000Y-63687836D01*
%TO.C,J6*%
X146390000Y-62140000D02*
X146390000Y-69760000D01*
X146390000Y-69760000D02*
X152360000Y-69760000D01*
X147150000Y-62900000D02*
X147150000Y-65950000D01*
X147150000Y-69000000D02*
X147150000Y-65950000D01*
X150100000Y-62150000D02*
X150100000Y-62900000D01*
X150100000Y-62900000D02*
X147150000Y-62900000D01*
X150100000Y-69000000D02*
X147150000Y-69000000D01*
X150100000Y-69750000D02*
X150100000Y-69000000D01*
X151600000Y-62150000D02*
X151600000Y-63950000D01*
X151600000Y-63950000D02*
X152350000Y-63950000D01*
X151600000Y-65450000D02*
X151600000Y-66450000D01*
X151600000Y-66450000D02*
X152350000Y-66450000D01*
X151600000Y-67950000D02*
X151600000Y-69750000D01*
X151600000Y-69750000D02*
X152350000Y-69750000D01*
X152350000Y-62150000D02*
X151600000Y-62150000D01*
X152350000Y-63950000D02*
X152350000Y-62150000D01*
X152350000Y-65450000D02*
X151600000Y-65450000D01*
X152350000Y-66450000D02*
X152350000Y-65450000D01*
X152350000Y-67950000D02*
X151600000Y-67950000D01*
X152350000Y-69750000D02*
X152350000Y-67950000D01*
X152360000Y-62140000D02*
X146390000Y-62140000D01*
X152360000Y-69760000D02*
X152360000Y-62140000D01*
X152650000Y-61850000D02*
X151400000Y-61850000D01*
X152650000Y-63100000D02*
X152650000Y-61850000D01*
%TO.C,J3*%
X153010000Y-70630000D02*
X203930000Y-70630000D01*
X153010000Y-73230000D02*
X153010000Y-70630000D01*
X153010000Y-75830000D02*
X153010000Y-74500000D01*
X154340000Y-75830000D02*
X153010000Y-75830000D01*
X155610000Y-73230000D02*
X153010000Y-73230000D01*
X155610000Y-75830000D02*
X155610000Y-73230000D01*
X155610000Y-75830000D02*
X203930000Y-75830000D01*
X203930000Y-75830000D02*
X203930000Y-70630000D01*
%TO.C,U1*%
D14*
X174200000Y-46725000D02*
X185800000Y-46725000D01*
X185800000Y-54275000D01*
X174200000Y-54275000D01*
X174200000Y-46725000D01*
D15*
%TO.C,D5*%
X193635000Y-46715000D02*
X192165000Y-46715000D01*
X192165000Y-46715000D02*
X192165000Y-49000000D01*
X193635000Y-49000000D02*
X193635000Y-46715000D01*
%TO.C,Q2*%
X152940000Y-57562500D02*
X152940000Y-56912500D01*
X152940000Y-57562500D02*
X152940000Y-58212500D01*
X156060000Y-57562500D02*
X156060000Y-56912500D01*
X156060000Y-57562500D02*
X156060000Y-58212500D01*
X152990000Y-58725000D02*
X152660000Y-58965000D01*
X152660000Y-58485000D01*
X152990000Y-58725000D01*
G36*
X152990000Y-58725000D02*
G01*
X152660000Y-58965000D01*
X152660000Y-58485000D01*
X152990000Y-58725000D01*
G37*
%TO.C,C1*%
X178359420Y-54590000D02*
X178640580Y-54590000D01*
X178359420Y-55610000D02*
X178640580Y-55610000D01*
%TO.C,R5*%
X174736359Y-66520000D02*
X175043641Y-66520000D01*
X174736359Y-67280000D02*
X175043641Y-67280000D01*
%TO.C,J5*%
X204450000Y-64900000D02*
X204450000Y-66150000D01*
X204450000Y-66150000D02*
X205700000Y-66150000D01*
X204740000Y-55740000D02*
X204740000Y-65860000D01*
X204740000Y-65860000D02*
X210710000Y-65860000D01*
X204750000Y-55750000D02*
X204750000Y-57550000D01*
X204750000Y-57550000D02*
X205500000Y-57550000D01*
X204750000Y-59050000D02*
X204750000Y-62550000D01*
X204750000Y-62550000D02*
X205500000Y-62550000D01*
X204750000Y-64050000D02*
X204750000Y-65850000D01*
X204750000Y-65850000D02*
X205500000Y-65850000D01*
X205500000Y-55750000D02*
X204750000Y-55750000D01*
X205500000Y-57550000D02*
X205500000Y-55750000D01*
X205500000Y-59050000D02*
X204750000Y-59050000D01*
X205500000Y-62550000D02*
X205500000Y-59050000D01*
X205500000Y-64050000D02*
X204750000Y-64050000D01*
X205500000Y-65850000D02*
X205500000Y-64050000D01*
X207000000Y-55750000D02*
X207000000Y-56500000D01*
X207000000Y-56500000D02*
X209950000Y-56500000D01*
X207000000Y-65100000D02*
X209950000Y-65100000D01*
X207000000Y-65850000D02*
X207000000Y-65100000D01*
X209950000Y-56500000D02*
X209950000Y-60800000D01*
X209950000Y-65100000D02*
X209950000Y-60800000D01*
X210710000Y-55740000D02*
X204740000Y-55740000D01*
X210710000Y-65860000D02*
X210710000Y-55740000D01*
%TO.C,D6*%
X176815000Y-64865000D02*
X176815000Y-66335000D01*
X176815000Y-66335000D02*
X179100000Y-66335000D01*
X179100000Y-64865000D02*
X176815000Y-64865000D01*
%TO.C,D1*%
X188435000Y-46715000D02*
X186965000Y-46715000D01*
X186965000Y-46715000D02*
X186965000Y-49000000D01*
X188435000Y-49000000D02*
X188435000Y-46715000D01*
%TO.C,R7*%
X178146359Y-66520000D02*
X178453641Y-66520000D01*
X178146359Y-67280000D02*
X178453641Y-67280000D01*
%TO.C,J7*%
X146390000Y-53440000D02*
X146390000Y-61060000D01*
X146390000Y-61060000D02*
X152360000Y-61060000D01*
X147150000Y-54200000D02*
X147150000Y-57250000D01*
X147150000Y-60300000D02*
X147150000Y-57250000D01*
X150100000Y-53450000D02*
X150100000Y-54200000D01*
X150100000Y-54200000D02*
X147150000Y-54200000D01*
X150100000Y-60300000D02*
X147150000Y-60300000D01*
X150100000Y-61050000D02*
X150100000Y-60300000D01*
X151600000Y-53450000D02*
X151600000Y-55250000D01*
X151600000Y-55250000D02*
X152350000Y-55250000D01*
X151600000Y-56750000D02*
X151600000Y-57750000D01*
X151600000Y-57750000D02*
X152350000Y-57750000D01*
X151600000Y-59250000D02*
X151600000Y-61050000D01*
X151600000Y-61050000D02*
X152350000Y-61050000D01*
X152350000Y-53450000D02*
X151600000Y-53450000D01*
X152350000Y-55250000D02*
X152350000Y-53450000D01*
X152350000Y-56750000D02*
X151600000Y-56750000D01*
X152350000Y-57750000D02*
X152350000Y-56750000D01*
X152350000Y-59250000D02*
X151600000Y-59250000D01*
X152350000Y-61050000D02*
X152350000Y-59250000D01*
X152360000Y-53440000D02*
X146390000Y-53440000D01*
X152360000Y-61060000D02*
X152360000Y-53440000D01*
X152650000Y-53150000D02*
X151400000Y-53150000D01*
X152650000Y-54400000D02*
X152650000Y-53150000D01*
%TO.C,D3*%
X191035000Y-49000000D02*
X191035000Y-46715000D01*
X189565000Y-46715000D02*
X189565000Y-49000000D01*
X191035000Y-46715000D02*
X189565000Y-46715000D01*
%TO.C,J2*%
X161830000Y-55530000D02*
X163160000Y-55530000D01*
X161830000Y-56860000D02*
X161830000Y-55530000D01*
X161830000Y-58130000D02*
X161830000Y-68350000D01*
X161830000Y-58130000D02*
X164430000Y-58130000D01*
X161830000Y-68350000D02*
X167030000Y-68350000D01*
X164430000Y-55530000D02*
X167030000Y-55530000D01*
X164430000Y-58130000D02*
X164430000Y-55530000D01*
X167030000Y-55530000D02*
X167030000Y-68350000D01*
%TO.C,C5*%
X181207836Y-59940000D02*
X180992164Y-59940000D01*
X181207836Y-60660000D02*
X180992164Y-60660000D01*
%TO.C,J8*%
X196235000Y-60560000D02*
X196235000Y-60495000D01*
X196235000Y-69505000D02*
X196235000Y-69440000D01*
X199765000Y-60495000D02*
X196235000Y-60495000D01*
X199765000Y-60560000D02*
X199765000Y-60495000D01*
X199765000Y-69505000D02*
X196235000Y-69505000D01*
X199765000Y-69505000D02*
X199765000Y-69440000D01*
X201090000Y-69440000D02*
X199765000Y-69440000D01*
%TO.C,U3*%
X171700000Y-56190000D02*
X175460000Y-56190000D01*
X171700000Y-63010000D02*
X175460000Y-63010000D01*
X175460000Y-56190000D02*
X175460000Y-57450000D01*
X175460000Y-63010000D02*
X175460000Y-61750000D01*
X170420000Y-56290000D02*
X170180000Y-55960000D01*
X170660000Y-55960000D01*
X170420000Y-56290000D01*
G36*
X170420000Y-56290000D02*
G01*
X170180000Y-55960000D01*
X170660000Y-55960000D01*
X170420000Y-56290000D01*
G37*
%TO.C,U2*%
X183590000Y-56290000D02*
X183590000Y-56590000D01*
X183590000Y-63510000D02*
X183590000Y-63210000D01*
X183890000Y-56290000D02*
X183590000Y-56290000D01*
X183890000Y-63510000D02*
X183590000Y-63510000D01*
X190510000Y-56290000D02*
X190810000Y-56290000D01*
X190510000Y-63510000D02*
X190810000Y-63510000D01*
X190810000Y-56290000D02*
X190810000Y-56590000D01*
X190810000Y-63510000D02*
X190810000Y-63210000D01*
X182987500Y-56590000D02*
X182647500Y-56120000D01*
X183327500Y-56120000D01*
X182987500Y-56590000D01*
G36*
X182987500Y-56590000D02*
G01*
X182647500Y-56120000D01*
X183327500Y-56120000D01*
X182987500Y-56590000D01*
G37*
%TO.C,R10*%
X156320000Y-57846359D02*
X156320000Y-58153641D01*
X157080000Y-57846359D02*
X157080000Y-58153641D01*
%TO.C,C8*%
X178190000Y-59259420D02*
X178190000Y-59540580D01*
X179210000Y-59259420D02*
X179210000Y-59540580D01*
%TO.C,C4*%
X181207836Y-58940000D02*
X180992164Y-58940000D01*
X181207836Y-59660000D02*
X180992164Y-59660000D01*
%TO.C,D4*%
X173415000Y-64865000D02*
X173415000Y-66335000D01*
X173415000Y-66335000D02*
X175700000Y-66335000D01*
X175700000Y-64865000D02*
X173415000Y-64865000D01*
%TD*%
M02*
