%TF.GenerationSoftware,KiCad,Pcbnew,8.0.1-8.0.1-1~ubuntu22.04.1*%
%TF.CreationDate,2024-04-04T08:17:26+02:00*%
%TF.ProjectId,Ingenuity,496e6765-6e75-4697-9479-2e6b69636164,rev?*%
%TF.SameCoordinates,Original*%
%TF.FileFunction,Copper,L1,Top*%
%TF.FilePolarity,Positive*%
%FSLAX46Y46*%
G04 Gerber Fmt 4.6, Leading zero omitted, Abs format (unit mm)*
G04 Created by KiCad (PCBNEW 8.0.1-8.0.1-1~ubuntu22.04.1) date 2024-04-04 08:17:26*
%MOMM*%
%LPD*%
G01*
G04 APERTURE LIST*
G04 Aperture macros list*
%AMRoundRect*
0 Rectangle with rounded corners*
0 $1 Rounding radius*
0 $2 $3 $4 $5 $6 $7 $8 $9 X,Y pos of 4 corners*
0 Add a 4 corners polygon primitive as box body*
4,1,4,$2,$3,$4,$5,$6,$7,$8,$9,$2,$3,0*
0 Add four circle primitives for the rounded corners*
1,1,$1+$1,$2,$3*
1,1,$1+$1,$4,$5*
1,1,$1+$1,$6,$7*
1,1,$1+$1,$8,$9*
0 Add four rect primitives between the rounded corners*
20,1,$1+$1,$2,$3,$4,$5,0*
20,1,$1+$1,$4,$5,$6,$7,0*
20,1,$1+$1,$6,$7,$8,$9,0*
20,1,$1+$1,$8,$9,$2,$3,0*%
G04 Aperture macros list end*
%TA.AperFunction,ComponentPad*%
%ADD10RoundRect,0.250000X0.600000X0.725000X-0.600000X0.725000X-0.600000X-0.725000X0.600000X-0.725000X0*%
%TD*%
%TA.AperFunction,ComponentPad*%
%ADD11O,1.700000X1.950000*%
%TD*%
%TA.AperFunction,SMDPad,CuDef*%
%ADD12RoundRect,0.140000X0.170000X-0.140000X0.170000X0.140000X-0.170000X0.140000X-0.170000X-0.140000X0*%
%TD*%
%TA.AperFunction,SMDPad,CuDef*%
%ADD13RoundRect,0.135000X-0.135000X-0.185000X0.135000X-0.185000X0.135000X0.185000X-0.135000X0.185000X0*%
%TD*%
%TA.AperFunction,ComponentPad*%
%ADD14RoundRect,0.250000X0.600000X0.750000X-0.600000X0.750000X-0.600000X-0.750000X0.600000X-0.750000X0*%
%TD*%
%TA.AperFunction,ComponentPad*%
%ADD15O,1.700000X2.000000*%
%TD*%
%TA.AperFunction,SMDPad,CuDef*%
%ADD16RoundRect,0.087500X-0.225000X-0.087500X0.225000X-0.087500X0.225000X0.087500X-0.225000X0.087500X0*%
%TD*%
%TA.AperFunction,SMDPad,CuDef*%
%ADD17RoundRect,0.087500X-0.087500X-0.225000X0.087500X-0.225000X0.087500X0.225000X-0.087500X0.225000X0*%
%TD*%
%TA.AperFunction,SMDPad,CuDef*%
%ADD18RoundRect,0.218750X-0.218750X-0.256250X0.218750X-0.256250X0.218750X0.256250X-0.218750X0.256250X0*%
%TD*%
%TA.AperFunction,SMDPad,CuDef*%
%ADD19RoundRect,0.135000X0.185000X-0.135000X0.185000X0.135000X-0.185000X0.135000X-0.185000X-0.135000X0*%
%TD*%
%TA.AperFunction,ComponentPad*%
%ADD20C,4.700000*%
%TD*%
%TA.AperFunction,SMDPad,CuDef*%
%ADD21RoundRect,0.135000X-0.185000X0.135000X-0.185000X-0.135000X0.185000X-0.135000X0.185000X0.135000X0*%
%TD*%
%TA.AperFunction,SMDPad,CuDef*%
%ADD22R,1.550000X1.300000*%
%TD*%
%TA.AperFunction,SMDPad,CuDef*%
%ADD23RoundRect,0.135000X0.135000X0.185000X-0.135000X0.185000X-0.135000X-0.185000X0.135000X-0.185000X0*%
%TD*%
%TA.AperFunction,ComponentPad*%
%ADD24C,3.000000*%
%TD*%
%TA.AperFunction,SMDPad,CuDef*%
%ADD25RoundRect,0.225000X0.250000X-0.225000X0.250000X0.225000X-0.250000X0.225000X-0.250000X-0.225000X0*%
%TD*%
%TA.AperFunction,SMDPad,CuDef*%
%ADD26RoundRect,0.150000X0.150000X-0.587500X0.150000X0.587500X-0.150000X0.587500X-0.150000X-0.587500X0*%
%TD*%
%TA.AperFunction,SMDPad,CuDef*%
%ADD27RoundRect,0.140000X-0.170000X0.140000X-0.170000X-0.140000X0.170000X-0.140000X0.170000X0.140000X0*%
%TD*%
%TA.AperFunction,ComponentPad*%
%ADD28RoundRect,0.250000X-0.750000X0.600000X-0.750000X-0.600000X0.750000X-0.600000X0.750000X0.600000X0*%
%TD*%
%TA.AperFunction,ComponentPad*%
%ADD29O,2.000000X1.700000*%
%TD*%
%TA.AperFunction,ComponentPad*%
%ADD30R,1.700000X1.700000*%
%TD*%
%TA.AperFunction,ComponentPad*%
%ADD31O,1.700000X1.700000*%
%TD*%
%TA.AperFunction,ComponentPad*%
%ADD32C,2.000000*%
%TD*%
%TA.AperFunction,SMDPad,CuDef*%
%ADD33RoundRect,0.218750X-0.256250X0.218750X-0.256250X-0.218750X0.256250X-0.218750X0.256250X0.218750X0*%
%TD*%
%TA.AperFunction,SMDPad,CuDef*%
%ADD34RoundRect,0.225000X-0.225000X-0.250000X0.225000X-0.250000X0.225000X0.250000X-0.225000X0.250000X0*%
%TD*%
%TA.AperFunction,ComponentPad*%
%ADD35RoundRect,0.250000X0.725000X-0.600000X0.725000X0.600000X-0.725000X0.600000X-0.725000X-0.600000X0*%
%TD*%
%TA.AperFunction,ComponentPad*%
%ADD36O,1.950000X1.700000*%
%TD*%
%TA.AperFunction,SMDPad,CuDef*%
%ADD37RoundRect,0.140000X0.140000X0.170000X-0.140000X0.170000X-0.140000X-0.170000X0.140000X-0.170000X0*%
%TD*%
%TA.AperFunction,SMDPad,CuDef*%
%ADD38R,2.400000X0.740000*%
%TD*%
%TA.AperFunction,SMDPad,CuDef*%
%ADD39RoundRect,0.375000X-0.625000X-0.375000X0.625000X-0.375000X0.625000X0.375000X-0.625000X0.375000X0*%
%TD*%
%TA.AperFunction,SMDPad,CuDef*%
%ADD40RoundRect,0.500000X-0.500000X-1.400000X0.500000X-1.400000X0.500000X1.400000X-0.500000X1.400000X0*%
%TD*%
%TA.AperFunction,SMDPad,CuDef*%
%ADD41RoundRect,0.125000X-0.625000X-0.125000X0.625000X-0.125000X0.625000X0.125000X-0.625000X0.125000X0*%
%TD*%
%TA.AperFunction,SMDPad,CuDef*%
%ADD42RoundRect,0.125000X-0.125000X-0.625000X0.125000X-0.625000X0.125000X0.625000X-0.125000X0.625000X0*%
%TD*%
%TA.AperFunction,SMDPad,CuDef*%
%ADD43RoundRect,0.225000X-0.250000X0.225000X-0.250000X-0.225000X0.250000X-0.225000X0.250000X0.225000X0*%
%TD*%
%TA.AperFunction,ViaPad*%
%ADD44C,0.600000*%
%TD*%
%TA.AperFunction,Conductor*%
%ADD45C,0.200000*%
%TD*%
%TA.AperFunction,Conductor*%
%ADD46C,0.500000*%
%TD*%
%TA.AperFunction,Conductor*%
%ADD47C,0.600000*%
%TD*%
G04 APERTURE END LIST*
D10*
%TO.P,J4,1,Pin_1*%
%TO.N,GND*%
X201600000Y-50400000D03*
D11*
%TO.P,J4,2,Pin_2*%
%TO.N,+5V*%
X199100000Y-50400000D03*
%TO.P,J4,3,Pin_3*%
%TO.N,PWM3*%
X196600000Y-50400000D03*
%TD*%
D12*
%TO.P,C9,1*%
%TO.N,+3.3V*%
X190350000Y-68230000D03*
%TO.P,C9,2*%
%TO.N,GND*%
X190350000Y-67270000D03*
%TD*%
D13*
%TO.P,R3,1*%
%TO.N,+7.5V*%
X170890000Y-66900000D03*
%TO.P,R3,2*%
%TO.N,Net-(D2-A)*%
X171910000Y-66900000D03*
%TD*%
D14*
%TO.P,J1,1,Pin_1*%
%TO.N,GND*%
X158250000Y-50400000D03*
D15*
%TO.P,J1,2,Pin_2*%
%TO.N,+BATT*%
X155750000Y-50400000D03*
%TD*%
D16*
%TO.P,U4,1,SDO/SA0*%
%TO.N,SPI1_MISO*%
X186925000Y-66850000D03*
%TO.P,U4,2,SDX*%
%TO.N,GND*%
X186925000Y-67350000D03*
%TO.P,U4,3,SCX*%
X186925000Y-67850000D03*
%TO.P,U4,4,INT1*%
%TO.N,unconnected-(U4-INT1-Pad4)*%
X186925000Y-68350000D03*
D17*
%TO.P,U4,5,VDDIO*%
%TO.N,+3.3V*%
X187587500Y-68512500D03*
%TO.P,U4,6,GND*%
%TO.N,GND*%
X188087500Y-68512500D03*
%TO.P,U4,7,GND*%
X188587500Y-68512500D03*
D16*
%TO.P,U4,8,VDD*%
%TO.N,+3.3V*%
X189250000Y-68350000D03*
%TO.P,U4,9,INT2*%
%TO.N,unconnected-(U4-INT2-Pad9)*%
X189250000Y-67850000D03*
%TO.P,U4,10,OCS_Aux*%
%TO.N,unconnected-(U4-OCS_Aux-Pad10)*%
X189250000Y-67350000D03*
%TO.P,U4,11,SDO_Aux*%
%TO.N,unconnected-(U4-SDO_Aux-Pad11)*%
X189250000Y-66850000D03*
D17*
%TO.P,U4,12,CS*%
%TO.N,SPI_CS*%
X188587500Y-66687500D03*
%TO.P,U4,13,SCL*%
%TO.N,SPI1_SCK*%
X188087500Y-66687500D03*
%TO.P,U4,14,SDA*%
%TO.N,SPI1_MOSI*%
X187587500Y-66687500D03*
%TD*%
D18*
%TO.P,D2,1,K*%
%TO.N,GND*%
X170612500Y-65600000D03*
%TO.P,D2,2,A*%
%TO.N,Net-(D2-A)*%
X172187500Y-65600000D03*
%TD*%
D19*
%TO.P,R6,1*%
%TO.N,LED3*%
X192910000Y-51220000D03*
%TO.P,R6,2*%
%TO.N,Net-(D5-A)*%
X192910000Y-50200000D03*
%TD*%
D12*
%TO.P,C2,1*%
%TO.N,+3.3V*%
X180900000Y-56080000D03*
%TO.P,C2,2*%
%TO.N,GND*%
X180900000Y-55120000D03*
%TD*%
D20*
%TO.P,H3,1,1*%
%TO.N,GND*%
X149500000Y-73000000D03*
%TD*%
D21*
%TO.P,R9,1*%
%TO.N,PWM2*%
X156700000Y-66190000D03*
%TO.P,R9,2*%
%TO.N,Net-(Q1-G)*%
X156700000Y-67210000D03*
%TD*%
D22*
%TO.P,SW2,2,2*%
%TO.N,NRST*%
X202775000Y-58950000D03*
X194825000Y-58950000D03*
%TO.P,SW2,1,1*%
%TO.N,GND*%
X202775000Y-54450000D03*
X194825000Y-54450000D03*
%TD*%
D23*
%TO.P,R1,1*%
%TO.N,Net-(SW1-A)*%
X172410000Y-53900000D03*
%TO.P,R1,2*%
%TO.N,GND*%
X171390000Y-53900000D03*
%TD*%
D19*
%TO.P,R2,1*%
%TO.N,LED1*%
X187700000Y-51200000D03*
%TO.P,R2,2*%
%TO.N,Net-(D1-A)*%
X187700000Y-50180000D03*
%TD*%
D12*
%TO.P,C6,1*%
%TO.N,+3.3V*%
X181900000Y-56080000D03*
%TO.P,C6,2*%
%TO.N,GND*%
X181900000Y-55120000D03*
%TD*%
D19*
%TO.P,R8,1*%
%TO.N,Net-(U2-PH3)*%
X182900000Y-56100000D03*
%TO.P,R8,2*%
%TO.N,GND*%
X182900000Y-55080000D03*
%TD*%
D24*
%TO.P,SW1,1,A*%
%TO.N,Net-(SW1-A)*%
X172400000Y-50000000D03*
%TO.P,SW1,2,B*%
%TO.N,+7.5V*%
X167700000Y-50000000D03*
%TO.P,SW1,3,C*%
%TO.N,+BATT*%
X163000000Y-50000000D03*
%TD*%
D25*
%TO.P,C7,1*%
%TO.N,+5V*%
X168300000Y-63575000D03*
%TO.P,C7,2*%
%TO.N,GND*%
X168300000Y-62025000D03*
%TD*%
D26*
%TO.P,Q1,1,D*%
%TO.N,Net-(J6-Pin_2)*%
X153550000Y-67200000D03*
%TO.P,Q1,2,G*%
%TO.N,Net-(Q1-G)*%
X155450000Y-67200000D03*
%TO.P,Q1,3,S*%
%TO.N,GND*%
X154500000Y-65325000D03*
%TD*%
D19*
%TO.P,R4,1*%
%TO.N,LED2*%
X190300000Y-51200000D03*
%TO.P,R4,2*%
%TO.N,Net-(D3-A)*%
X190300000Y-50180000D03*
%TD*%
D27*
%TO.P,C3,1*%
%TO.N,+3.3V*%
X192900000Y-63100000D03*
%TO.P,C3,2*%
%TO.N,GND*%
X192900000Y-64060000D03*
%TD*%
D28*
%TO.P,J6,1,Pin_1*%
%TO.N,+7.5V*%
X149900000Y-64700000D03*
D29*
%TO.P,J6,2,Pin_2*%
%TO.N,Net-(J6-Pin_2)*%
X149900000Y-67200000D03*
%TD*%
D30*
%TO.P,J3,1,Pin_1*%
%TO.N,unconnected-(J3-Pin_1-Pad1)*%
X154340000Y-74500000D03*
D31*
%TO.P,J3,2,Pin_2*%
%TO.N,+5V*%
X154340000Y-71960000D03*
%TO.P,J3,3,Pin_3*%
%TO.N,unconnected-(J3-Pin_3-Pad3)*%
X156880000Y-74500000D03*
%TO.P,J3,4,Pin_4*%
%TO.N,+5V*%
X156880000Y-71960000D03*
%TO.P,J3,5,Pin_5*%
%TO.N,unconnected-(J3-Pin_5-Pad5)*%
X159420000Y-74500000D03*
%TO.P,J3,6,Pin_6*%
%TO.N,GND*%
X159420000Y-71960000D03*
%TO.P,J3,7,Pin_7*%
%TO.N,unconnected-(J3-Pin_7-Pad7)*%
X161960000Y-74500000D03*
%TO.P,J3,8,Pin_8*%
%TO.N,USART2_RX*%
X161960000Y-71960000D03*
%TO.P,J3,9,Pin_9*%
%TO.N,GND*%
X164500000Y-74500000D03*
%TO.P,J3,10,Pin_10*%
%TO.N,USART2_TX*%
X164500000Y-71960000D03*
%TO.P,J3,11,Pin_11*%
%TO.N,unconnected-(J3-Pin_11-Pad11)*%
X167040000Y-74500000D03*
%TO.P,J3,12,Pin_12*%
%TO.N,unconnected-(J3-Pin_12-Pad12)*%
X167040000Y-71960000D03*
%TO.P,J3,13,Pin_13*%
%TO.N,unconnected-(J3-Pin_13-Pad13)*%
X169580000Y-74500000D03*
%TO.P,J3,14,Pin_14*%
%TO.N,GND*%
X169580000Y-71960000D03*
%TO.P,J3,15,Pin_15*%
%TO.N,unconnected-(J3-Pin_15-Pad15)*%
X172120000Y-74500000D03*
%TO.P,J3,16,Pin_16*%
%TO.N,unconnected-(J3-Pin_16-Pad16)*%
X172120000Y-71960000D03*
%TO.P,J3,17,Pin_17*%
%TO.N,unconnected-(J3-Pin_17-Pad17)*%
X174660000Y-74500000D03*
%TO.P,J3,18,Pin_18*%
%TO.N,unconnected-(J3-Pin_18-Pad18)*%
X174660000Y-71960000D03*
%TO.P,J3,19,Pin_19*%
%TO.N,unconnected-(J3-Pin_19-Pad19)*%
X177200000Y-74500000D03*
%TO.P,J3,20,Pin_20*%
%TO.N,GND*%
X177200000Y-71960000D03*
%TO.P,J3,21,Pin_21*%
%TO.N,unconnected-(J3-Pin_21-Pad21)*%
X179740000Y-74500000D03*
%TO.P,J3,22,Pin_22*%
%TO.N,unconnected-(J3-Pin_22-Pad22)*%
X179740000Y-71960000D03*
%TO.P,J3,23,Pin_23*%
%TO.N,unconnected-(J3-Pin_23-Pad23)*%
X182280000Y-74500000D03*
%TO.P,J3,24,Pin_24*%
%TO.N,unconnected-(J3-Pin_24-Pad24)*%
X182280000Y-71960000D03*
%TO.P,J3,25,Pin_25*%
%TO.N,GND*%
X184820000Y-74500000D03*
%TO.P,J3,26,Pin_26*%
%TO.N,unconnected-(J3-Pin_26-Pad26)*%
X184820000Y-71960000D03*
%TO.P,J3,27,Pin_27*%
%TO.N,unconnected-(J3-Pin_27-Pad27)*%
X187360000Y-74500000D03*
%TO.P,J3,28,Pin_28*%
%TO.N,unconnected-(J3-Pin_28-Pad28)*%
X187360000Y-71960000D03*
%TO.P,J3,29,Pin_29*%
%TO.N,unconnected-(J3-Pin_29-Pad29)*%
X189900000Y-74500000D03*
%TO.P,J3,30,Pin_30*%
%TO.N,GND*%
X189900000Y-71960000D03*
%TO.P,J3,31,Pin_31*%
%TO.N,unconnected-(J3-Pin_31-Pad31)*%
X192440000Y-74500000D03*
%TO.P,J3,32,Pin_32*%
%TO.N,unconnected-(J3-Pin_32-Pad32)*%
X192440000Y-71960000D03*
%TO.P,J3,33,Pin_33*%
%TO.N,unconnected-(J3-Pin_33-Pad33)*%
X194980000Y-74500000D03*
%TO.P,J3,34,Pin_34*%
%TO.N,GND*%
X194980000Y-71960000D03*
%TO.P,J3,35,Pin_35*%
%TO.N,unconnected-(J3-Pin_35-Pad35)*%
X197520000Y-74500000D03*
%TO.P,J3,36,Pin_36*%
%TO.N,unconnected-(J3-Pin_36-Pad36)*%
X197520000Y-71960000D03*
%TO.P,J3,37,Pin_37*%
%TO.N,unconnected-(J3-Pin_37-Pad37)*%
X200060000Y-74500000D03*
%TO.P,J3,38,Pin_38*%
%TO.N,unconnected-(J3-Pin_38-Pad38)*%
X200060000Y-71960000D03*
%TO.P,J3,39,Pin_39*%
%TO.N,GND*%
X202600000Y-74500000D03*
%TO.P,J3,40,Pin_40*%
%TO.N,unconnected-(J3-Pin_40-Pad40)*%
X202600000Y-71960000D03*
%TD*%
D32*
%TO.P,U1,1,Vin*%
%TO.N,+7.5V*%
X177460000Y-52125000D03*
%TO.P,U1,2,GND*%
%TO.N,GND*%
X180000000Y-52125000D03*
%TO.P,U1,3,Vout*%
%TO.N,+5V*%
X182540000Y-52125000D03*
%TD*%
D33*
%TO.P,D5,1,K*%
%TO.N,GND*%
X192900000Y-47412500D03*
%TO.P,D5,2,A*%
%TO.N,Net-(D5-A)*%
X192900000Y-48987500D03*
%TD*%
D26*
%TO.P,Q2,1,D*%
%TO.N,Net-(J7-Pin_2)*%
X153550000Y-58500000D03*
%TO.P,Q2,2,G*%
%TO.N,Net-(Q2-G)*%
X155450000Y-58500000D03*
%TO.P,Q2,3,S*%
%TO.N,GND*%
X154500000Y-56625000D03*
%TD*%
D34*
%TO.P,C1,1*%
%TO.N,+7.5V*%
X177725000Y-55100000D03*
%TO.P,C1,2*%
%TO.N,GND*%
X179275000Y-55100000D03*
%TD*%
D13*
%TO.P,R5,1*%
%TO.N,+5V*%
X174380000Y-66900000D03*
%TO.P,R5,2*%
%TO.N,Net-(D4-A)*%
X175400000Y-66900000D03*
%TD*%
D35*
%TO.P,J5,1,Pin_1*%
%TO.N,GND*%
X207200000Y-63300000D03*
D36*
%TO.P,J5,2,Pin_2*%
%TO.N,+5V*%
X207200000Y-60800000D03*
%TO.P,J5,3,Pin_3*%
%TO.N,PWM4*%
X207200000Y-58300000D03*
%TD*%
D18*
%TO.P,D6,1,K*%
%TO.N,GND*%
X177512500Y-65600000D03*
%TO.P,D6,2,A*%
%TO.N,Net-(D6-A)*%
X179087500Y-65600000D03*
%TD*%
D20*
%TO.P,H2,1,1*%
%TO.N,GND*%
X207500000Y-50000000D03*
%TD*%
D33*
%TO.P,D1,1,K*%
%TO.N,GND*%
X187700000Y-47412500D03*
%TO.P,D1,2,A*%
%TO.N,Net-(D1-A)*%
X187700000Y-48987500D03*
%TD*%
D13*
%TO.P,R7,1*%
%TO.N,+3.3V*%
X177790000Y-66900000D03*
%TO.P,R7,2*%
%TO.N,Net-(D6-A)*%
X178810000Y-66900000D03*
%TD*%
D28*
%TO.P,J7,1,Pin_1*%
%TO.N,+7.5V*%
X149900000Y-56000000D03*
D29*
%TO.P,J7,2,Pin_2*%
%TO.N,Net-(J7-Pin_2)*%
X149900000Y-58500000D03*
%TD*%
D33*
%TO.P,D3,1,K*%
%TO.N,GND*%
X190300000Y-47412500D03*
%TO.P,D3,2,A*%
%TO.N,Net-(D3-A)*%
X190300000Y-48987500D03*
%TD*%
D30*
%TO.P,J2,1,Pin_1*%
%TO.N,unconnected-(J2-Pin_1-Pad1)*%
X163160000Y-56860000D03*
D31*
%TO.P,J2,2,Pin_2*%
%TO.N,I2C1_SCL*%
X165700000Y-56860000D03*
%TO.P,J2,3,Pin_3*%
%TO.N,+3.3V*%
X163160000Y-59400000D03*
%TO.P,J2,4,Pin_4*%
%TO.N,I2C1_SDA*%
X165700000Y-59400000D03*
%TO.P,J2,5,Pin_5*%
%TO.N,+3.3V*%
X163160000Y-61940000D03*
%TO.P,J2,6,Pin_6*%
%TO.N,GND*%
X165700000Y-61940000D03*
%TO.P,J2,7,Pin_7*%
%TO.N,unconnected-(J2-Pin_7-Pad7)*%
X163160000Y-64480000D03*
%TO.P,J2,8,Pin_8*%
%TO.N,unconnected-(J2-Pin_8-Pad8)*%
X165700000Y-64480000D03*
%TO.P,J2,9,Pin_9*%
%TO.N,GND*%
X163160000Y-67020000D03*
%TO.P,J2,10,Pin_10*%
%TO.N,unconnected-(J2-Pin_10-Pad10)*%
X165700000Y-67020000D03*
%TD*%
D37*
%TO.P,C5,1*%
%TO.N,+3.3V*%
X181580000Y-60300000D03*
%TO.P,C5,2*%
%TO.N,GND*%
X180620000Y-60300000D03*
%TD*%
D38*
%TO.P,J8,1,NC*%
%TO.N,unconnected-(J8-NC-Pad1)*%
X199950000Y-68810000D03*
%TO.P,J8,2,NC*%
%TO.N,unconnected-(J8-NC-Pad2)*%
X196050000Y-68810000D03*
%TO.P,J8,3,VCC*%
%TO.N,+3.3V*%
X199950000Y-67540000D03*
%TO.P,J8,4,JTMS/SWDIO*%
%TO.N,SWDIO*%
X196050000Y-67540000D03*
%TO.P,J8,5,GND*%
%TO.N,GND*%
X199950000Y-66270000D03*
%TO.P,J8,6,JCLK/SWCLK*%
%TO.N,SWCLK*%
X196050000Y-66270000D03*
%TO.P,J8,7,GND*%
%TO.N,GND*%
X199950000Y-65000000D03*
%TO.P,J8,8,JTDO/SWO*%
%TO.N,unconnected-(J8-JTDO{slash}SWO-Pad8)*%
X196050000Y-65000000D03*
%TO.P,J8,9,JRCLK/NC*%
%TO.N,unconnected-(J8-JRCLK{slash}NC-Pad9)*%
X199950000Y-63730000D03*
%TO.P,J8,10,JTDI/NC*%
%TO.N,unconnected-(J8-JTDI{slash}NC-Pad10)*%
X196050000Y-63730000D03*
%TO.P,J8,11,GNDDetect*%
%TO.N,GND*%
X199950000Y-62460000D03*
%TO.P,J8,12,~{RST}*%
%TO.N,NRST*%
X196050000Y-62460000D03*
%TO.P,J8,13,VCP_RX*%
%TO.N,USART1_RX*%
X199950000Y-61190000D03*
%TO.P,J8,14,VCP_TX*%
%TO.N,USART1_TX*%
X196050000Y-61190000D03*
%TD*%
D39*
%TO.P,U3,1,GND*%
%TO.N,GND*%
X170400000Y-57300000D03*
%TO.P,U3,2,VO*%
%TO.N,+3.3V*%
X170400000Y-59600000D03*
D40*
X176700000Y-59600000D03*
D39*
%TO.P,U3,3,VI*%
%TO.N,+5V*%
X170400000Y-61900000D03*
%TD*%
D41*
%TO.P,U2,1,VDD*%
%TO.N,+3.3V*%
X183025000Y-57100000D03*
%TO.P,U2,2,PC14*%
%TO.N,unconnected-(U2-PC14-Pad2)*%
X183025000Y-57900000D03*
%TO.P,U2,3,PC15*%
%TO.N,unconnected-(U2-PC15-Pad3)*%
X183025000Y-58700000D03*
%TO.P,U2,4,NRST*%
%TO.N,NRST*%
X183025000Y-59500000D03*
%TO.P,U2,5,VDDA*%
%TO.N,+3.3V*%
X183025000Y-60300000D03*
%TO.P,U2,6,PA0*%
%TO.N,PWM1*%
X183025000Y-61100000D03*
%TO.P,U2,7,PA1*%
%TO.N,PWM2*%
X183025000Y-61900000D03*
%TO.P,U2,8,PA2*%
%TO.N,USART2_TX*%
X183025000Y-62700000D03*
D42*
%TO.P,U2,9,PA3*%
%TO.N,USART2_RX*%
X184400000Y-64075000D03*
%TO.P,U2,10,PA4*%
%TO.N,SPI_CS*%
X185200000Y-64075000D03*
%TO.P,U2,11,PA5*%
%TO.N,SPI1_SCK*%
X186000000Y-64075000D03*
%TO.P,U2,12,PA6*%
%TO.N,SPI1_MISO*%
X186800000Y-64075000D03*
%TO.P,U2,13,PA7*%
%TO.N,SPI1_MOSI*%
X187600000Y-64075000D03*
%TO.P,U2,14,PB0*%
%TO.N,unconnected-(U2-PB0-Pad14)*%
X188400000Y-64075000D03*
%TO.P,U2,15,PB1*%
%TO.N,unconnected-(U2-PB1-Pad15)*%
X189200000Y-64075000D03*
%TO.P,U2,16,VSS*%
%TO.N,GND*%
X190000000Y-64075000D03*
D41*
%TO.P,U2,17,VDD*%
%TO.N,+3.3V*%
X191375000Y-62700000D03*
%TO.P,U2,18,PA8*%
%TO.N,PWM4*%
X191375000Y-61900000D03*
%TO.P,U2,19,PA9*%
%TO.N,USART1_TX*%
X191375000Y-61100000D03*
%TO.P,U2,20,PA10*%
%TO.N,USART1_RX*%
X191375000Y-60300000D03*
%TO.P,U2,21,PA11*%
%TO.N,PWM3*%
X191375000Y-59500000D03*
%TO.P,U2,22,PA12*%
%TO.N,unconnected-(U2-PA12-Pad22)*%
X191375000Y-58700000D03*
%TO.P,U2,23,PA13*%
%TO.N,SWDIO*%
X191375000Y-57900000D03*
%TO.P,U2,24,PA14*%
%TO.N,SWCLK*%
X191375000Y-57100000D03*
D42*
%TO.P,U2,25,PA15*%
%TO.N,LED3*%
X190000000Y-55725000D03*
%TO.P,U2,26,PB3*%
%TO.N,LED2*%
X189200000Y-55725000D03*
%TO.P,U2,27,PB4*%
%TO.N,LED1*%
X188400000Y-55725000D03*
%TO.P,U2,28,PB5*%
%TO.N,unconnected-(U2-PB5-Pad28)*%
X187600000Y-55725000D03*
%TO.P,U2,29,PB6*%
%TO.N,I2C1_SCL*%
X186800000Y-55725000D03*
%TO.P,U2,30,PB7*%
%TO.N,I2C1_SDA*%
X186000000Y-55725000D03*
%TO.P,U2,31,PH3*%
%TO.N,Net-(U2-PH3)*%
X185200000Y-55725000D03*
%TO.P,U2,32,VSS*%
%TO.N,GND*%
X184400000Y-55725000D03*
%TD*%
D21*
%TO.P,R10,1*%
%TO.N,PWM1*%
X156700000Y-57490000D03*
%TO.P,R10,2*%
%TO.N,Net-(Q2-G)*%
X156700000Y-58510000D03*
%TD*%
D20*
%TO.P,H4,1,1*%
%TO.N,GND*%
X207500000Y-73000000D03*
%TD*%
D43*
%TO.P,C8,1*%
%TO.N,+3.3V*%
X178700000Y-58625000D03*
%TO.P,C8,2*%
%TO.N,GND*%
X178700000Y-60175000D03*
%TD*%
D20*
%TO.P,H1,1,1*%
%TO.N,GND*%
X149500000Y-50000000D03*
%TD*%
D37*
%TO.P,C4,1*%
%TO.N,NRST*%
X181580000Y-59300000D03*
%TO.P,C4,2*%
%TO.N,GND*%
X180620000Y-59300000D03*
%TD*%
D18*
%TO.P,D4,1,K*%
%TO.N,GND*%
X174112500Y-65600000D03*
%TO.P,D4,2,A*%
%TO.N,Net-(D4-A)*%
X175687500Y-65600000D03*
%TD*%
D44*
%TO.N,GND*%
X191600000Y-47400000D03*
X189000000Y-47400000D03*
%TO.N,NRST*%
X192752971Y-59900000D03*
%TO.N,PWM4*%
X194351994Y-61604633D03*
%TO.N,+3.3V*%
X191334358Y-63256239D03*
%TO.N,NRST*%
X192619344Y-62112315D03*
%TO.N,+3.3V*%
X198500000Y-67500000D03*
%TO.N,SWCLK*%
X194500000Y-66300000D03*
%TO.N,SWDIO*%
X194600000Y-67600000D03*
%TO.N,GND*%
X201500000Y-62500000D03*
X201500000Y-66300000D03*
X201500000Y-65000000D03*
X192000000Y-63700000D03*
%TO.N,NRST*%
X184800000Y-59500000D03*
%TO.N,+5V*%
X169600000Y-63800000D03*
X171200000Y-63800000D03*
X173700000Y-66900000D03*
X170400000Y-63800000D03*
%TO.N,+3.3V*%
X173600000Y-59600000D03*
X191100000Y-68250000D03*
X181900000Y-57100000D03*
X172200000Y-59600000D03*
X175000000Y-59600000D03*
X187250000Y-69250000D03*
X177100000Y-66900000D03*
X184100000Y-60300000D03*
%TO.N,+7.5V*%
X158100000Y-65400000D03*
%TO.N,SWCLK*%
X192400000Y-57100000D03*
%TO.N,SWDIO*%
X192400000Y-57900000D03*
%TO.N,USART2_RX*%
X165900000Y-70600000D03*
%TO.N,I2C1_SDA*%
X186000000Y-57000000D03*
%TO.N,I2C1_SCL*%
X186800000Y-57000000D03*
%TO.N,SPI_CS*%
X189000003Y-65800000D03*
X185200000Y-65150000D03*
%TO.N,SPI1_SCK*%
X188200000Y-65800000D03*
X186000000Y-65150000D03*
%TO.N,GND*%
X180000000Y-69800000D03*
X180620000Y-61100000D03*
X184300000Y-62800000D03*
X171500000Y-68300000D03*
X153800000Y-55300000D03*
X170400000Y-56200000D03*
X155200000Y-64000000D03*
X184300000Y-65600000D03*
X176700000Y-53500000D03*
X180500000Y-65600000D03*
X159700000Y-69500000D03*
X195200000Y-55600000D03*
X184400000Y-54400000D03*
X191050000Y-67250000D03*
X190000000Y-57100000D03*
X169000000Y-57300000D03*
X171700000Y-57300000D03*
X185850000Y-67650000D03*
X180600000Y-58500000D03*
X170700000Y-53900000D03*
X193400000Y-55600000D03*
X188350000Y-69750000D03*
X153800000Y-64000000D03*
X181900000Y-54400000D03*
X161100000Y-67800000D03*
X180200000Y-55100000D03*
X155200000Y-55300000D03*
X154500000Y-55300000D03*
X169900000Y-67900000D03*
X177800000Y-68300000D03*
X178700000Y-61200000D03*
X154500000Y-64000000D03*
X190000000Y-62600000D03*
%TD*%
D45*
%TO.N,LED3*%
X190000000Y-55725000D02*
X190000000Y-54130000D01*
X190000000Y-54130000D02*
X192910000Y-51220000D01*
%TO.N,LED2*%
X189200000Y-55725000D02*
X189200000Y-52300000D01*
X189200000Y-52300000D02*
X190300000Y-51200000D01*
%TO.N,LED1*%
X188400000Y-55725000D02*
X188400000Y-51900000D01*
X188400000Y-51900000D02*
X187700000Y-51200000D01*
%TO.N,NRST*%
X193702971Y-58950000D02*
X192752971Y-59900000D01*
X194825000Y-58950000D02*
X193702971Y-58950000D01*
X194360000Y-62460000D02*
X196050000Y-62460000D01*
X192619344Y-62112315D02*
X194012315Y-62112315D01*
X194012315Y-62112315D02*
X194360000Y-62460000D01*
%TO.N,+3.3V*%
X191375000Y-62700000D02*
X192500000Y-62700000D01*
X192500000Y-62700000D02*
X192900000Y-63100000D01*
%TO.N,PWM4*%
X194351994Y-61604633D02*
X194087361Y-61340000D01*
X194087361Y-61340000D02*
X192525686Y-61340000D01*
X192525686Y-61340000D02*
X191965686Y-61900000D01*
X191965686Y-61900000D02*
X191375000Y-61900000D01*
%TO.N,+3.3V*%
X191375000Y-63215597D02*
X191334358Y-63256239D01*
X191375000Y-62700000D02*
X191375000Y-63215597D01*
X198540000Y-67540000D02*
X198500000Y-67500000D01*
X199950000Y-67540000D02*
X198540000Y-67540000D01*
%TO.N,SWDIO*%
X195990000Y-67600000D02*
X196050000Y-67540000D01*
X194600000Y-67600000D02*
X195990000Y-67600000D01*
%TO.N,SWCLK*%
X194500000Y-66300000D02*
X194530000Y-66270000D01*
X194530000Y-66270000D02*
X196050000Y-66270000D01*
%TO.N,PWM3*%
X191375000Y-59500000D02*
X192148529Y-59500000D01*
X192148529Y-59500000D02*
X196600000Y-55048529D01*
X196600000Y-55048529D02*
X196600000Y-50400000D01*
%TO.N,GND*%
X201460000Y-62460000D02*
X201500000Y-62500000D01*
X199950000Y-62460000D02*
X201460000Y-62460000D01*
X201470000Y-66270000D02*
X201500000Y-66300000D01*
X199950000Y-66270000D02*
X201470000Y-66270000D01*
X199950000Y-65000000D02*
X201500000Y-65000000D01*
%TO.N,USART1_TX*%
X191375000Y-61100000D02*
X192200000Y-61100000D01*
X192200000Y-61100000D02*
X192380000Y-60920000D01*
X192380000Y-60920000D02*
X194520000Y-60920000D01*
X194520000Y-60920000D02*
X194790000Y-61190000D01*
X194790000Y-61190000D02*
X196050000Y-61190000D01*
%TO.N,USART1_RX*%
X191375000Y-60300000D02*
X192200000Y-60300000D01*
X192200000Y-60300000D02*
X192420000Y-60520000D01*
X192420000Y-60520000D02*
X197520000Y-60520000D01*
X197520000Y-60520000D02*
X198190000Y-61190000D01*
X198190000Y-61190000D02*
X199950000Y-61190000D01*
%TO.N,NRST*%
X199100000Y-58950000D02*
X200450000Y-58950000D01*
X200450000Y-58950000D02*
X202775000Y-58950000D01*
X194825000Y-58950000D02*
X200450000Y-58950000D01*
%TO.N,Net-(D5-A)*%
X192900000Y-48987500D02*
X192900000Y-50190000D01*
X192900000Y-50190000D02*
X192910000Y-50200000D01*
%TO.N,Net-(D3-A)*%
X190300000Y-48987500D02*
X190300000Y-50180000D01*
%TO.N,Net-(D1-A)*%
X187700000Y-48987500D02*
X187700000Y-50180000D01*
%TO.N,NRST*%
X181780000Y-59500000D02*
X181580000Y-59300000D01*
X183025000Y-59500000D02*
X184800000Y-59500000D01*
X183025000Y-59500000D02*
X181780000Y-59500000D01*
%TO.N,+5V*%
X170400000Y-61900000D02*
X170400000Y-61500000D01*
X174380000Y-66900000D02*
X173700000Y-66900000D01*
X169600000Y-63800000D02*
X168525000Y-63800000D01*
X168525000Y-63800000D02*
X168300000Y-63575000D01*
%TO.N,+3.3V*%
X181900000Y-56060000D02*
X180920000Y-56060000D01*
X178700000Y-58625000D02*
X177675000Y-58625000D01*
X190230000Y-68350000D02*
X190350000Y-68230000D01*
X189250000Y-68350000D02*
X190230000Y-68350000D01*
X181900000Y-56080000D02*
X181900000Y-57100000D01*
D46*
X170400000Y-59600000D02*
X172200000Y-59600000D01*
X173600000Y-59600000D02*
X175000000Y-59600000D01*
D45*
X190350000Y-68230000D02*
X191080000Y-68230000D01*
X187587500Y-68512500D02*
X187587500Y-68912500D01*
X180920000Y-56060000D02*
X180900000Y-56080000D01*
D46*
X175000000Y-59600000D02*
X176700000Y-59600000D01*
D45*
X181580000Y-60300000D02*
X183025000Y-60300000D01*
D46*
X172200000Y-59600000D02*
X173600000Y-59600000D01*
D45*
X191080000Y-68230000D02*
X191100000Y-68250000D01*
X183025000Y-57100000D02*
X181900000Y-57100000D01*
X183025000Y-60300000D02*
X184100000Y-60300000D01*
X177790000Y-66900000D02*
X177100000Y-66900000D01*
X178080000Y-67100000D02*
X178080000Y-66969686D01*
X177675000Y-58625000D02*
X176700000Y-59600000D01*
X191395000Y-62720000D02*
X191375000Y-62700000D01*
X187587500Y-68912500D02*
X187250000Y-69250000D01*
%TO.N,+7.5V*%
X163600000Y-68550000D02*
X160881372Y-68550000D01*
X160881372Y-68550000D02*
X158615686Y-66284314D01*
X170890000Y-67960000D02*
X170300000Y-68550000D01*
X170300000Y-68550000D02*
X163600000Y-68550000D01*
X158100000Y-65768628D02*
X158100000Y-65400000D01*
X170890000Y-66900000D02*
X170890000Y-67960000D01*
D46*
X177725000Y-52390000D02*
X177460000Y-52125000D01*
X177725000Y-55100000D02*
X177725000Y-52390000D01*
D45*
X158615686Y-66284314D02*
X158100000Y-65768628D01*
%TO.N,Net-(D2-A)*%
X172187500Y-66622500D02*
X171910000Y-66900000D01*
X172187500Y-65600000D02*
X172187500Y-66622500D01*
%TO.N,Net-(D4-A)*%
X175687500Y-66612500D02*
X175400000Y-66900000D01*
X175687500Y-65600000D02*
X175687500Y-66612500D01*
%TO.N,Net-(D6-A)*%
X179087500Y-65600000D02*
X179087500Y-66622500D01*
X179087500Y-66622500D02*
X178810000Y-66900000D01*
%TO.N,USART2_TX*%
X164500000Y-71960000D02*
X164500000Y-70700000D01*
X183850000Y-63525000D02*
X183025000Y-62700000D01*
X183850000Y-64450000D02*
X183850000Y-63525000D01*
X164500000Y-70700000D02*
X165450000Y-69750000D01*
X165450000Y-69750000D02*
X178550000Y-69750000D01*
X178550000Y-69750000D02*
X183850000Y-64450000D01*
%TO.N,SWCLK*%
X191375000Y-57100000D02*
X192400000Y-57100000D01*
%TO.N,SWDIO*%
X192400000Y-57900000D02*
X191375000Y-57900000D01*
%TO.N,USART2_RX*%
X178715685Y-70150000D02*
X184400000Y-64465685D01*
X184400000Y-64465685D02*
X184400000Y-64075000D01*
X166350000Y-70150000D02*
X178715685Y-70150000D01*
X165900000Y-70600000D02*
X166350000Y-70150000D01*
D47*
%TO.N,Net-(J7-Pin_2)*%
X149900000Y-58500000D02*
X153550000Y-58500000D01*
%TO.N,Net-(J6-Pin_2)*%
X149900000Y-67200000D02*
X153550000Y-67200000D01*
D45*
%TO.N,Net-(U2-PH3)*%
X183400000Y-56100000D02*
X184100000Y-56800000D01*
X182900000Y-56100000D02*
X183400000Y-56100000D01*
X184800000Y-56800000D02*
X185200000Y-56400000D01*
X185200000Y-56400000D02*
X185200000Y-55725000D01*
X184100000Y-56800000D02*
X184800000Y-56800000D01*
D46*
%TO.N,Net-(SW1-A)*%
X172400000Y-50000000D02*
X172400000Y-53890000D01*
D45*
X172400000Y-53890000D02*
X172410000Y-53900000D01*
%TO.N,PWM1*%
X160715686Y-68950000D02*
X157500000Y-65734314D01*
X182275001Y-61100000D02*
X181200000Y-62175001D01*
X157500000Y-65734314D02*
X157500000Y-57900000D01*
X157090000Y-57490000D02*
X156700000Y-57490000D01*
X178218628Y-68950000D02*
X160715686Y-68950000D01*
X181200000Y-62175001D02*
X181200000Y-65968628D01*
X157500000Y-57900000D02*
X157090000Y-57490000D01*
X181200000Y-65968628D02*
X178218628Y-68950000D01*
X183025000Y-61100000D02*
X182275001Y-61100000D01*
%TO.N,Net-(Q2-G)*%
X156700000Y-58510000D02*
X155460000Y-58510000D01*
X155460000Y-58510000D02*
X155450000Y-58500000D01*
%TO.N,Net-(Q1-G)*%
X156700000Y-67210000D02*
X155460000Y-67210000D01*
X155460000Y-67210000D02*
X155450000Y-67200000D01*
%TO.N,PWM2*%
X157390000Y-66190000D02*
X156700000Y-66190000D01*
X181600000Y-66134314D02*
X178384314Y-69350000D01*
X183025000Y-61900000D02*
X182275001Y-61900000D01*
X178384314Y-69350000D02*
X160550000Y-69350000D01*
X160550000Y-69350000D02*
X157390000Y-66190000D01*
X182275001Y-61900000D02*
X181600000Y-62575001D01*
X181600000Y-62575001D02*
X181600000Y-66134314D01*
%TO.N,I2C1_SDA*%
X186000000Y-57000000D02*
X186000000Y-55725000D01*
%TO.N,I2C1_SCL*%
X186800000Y-55725000D02*
X186800000Y-57000000D01*
%TO.N,SPI_CS*%
X188587500Y-66375001D02*
X188587500Y-66687500D01*
X185200000Y-65150000D02*
X185200000Y-64075000D01*
X189000003Y-65800000D02*
X189000003Y-65962498D01*
X189000003Y-65962498D02*
X188587500Y-66375001D01*
%TO.N,SPI1_SCK*%
X186000000Y-64075000D02*
X186037500Y-64112500D01*
X186000000Y-65150000D02*
X186000000Y-64075000D01*
X188087500Y-66687500D02*
X188087500Y-65912500D01*
X188087500Y-65912500D02*
X188200000Y-65800000D01*
%TO.N,SPI1_MISO*%
X185850000Y-66500000D02*
X185850000Y-66150000D01*
X186925000Y-66850000D02*
X186200000Y-66850000D01*
X186800000Y-65200000D02*
X186800000Y-64075000D01*
X185850000Y-66150000D02*
X186800000Y-65200000D01*
X186200000Y-66850000D02*
X185850000Y-66500000D01*
%TO.N,SPI1_MOSI*%
X187600000Y-64075000D02*
X187600000Y-66675000D01*
X187600000Y-66675000D02*
X187587500Y-66687500D01*
%TO.N,GND*%
X170400000Y-57300000D02*
X170400000Y-56200000D01*
X170400000Y-57300000D02*
X169000000Y-57300000D01*
X179275000Y-55100000D02*
X180200000Y-55100000D01*
X181940000Y-55080000D02*
X181900000Y-55120000D01*
X181900000Y-55120000D02*
X180900000Y-55120000D01*
X184400000Y-55725000D02*
X184400000Y-54400000D01*
X180620000Y-59300000D02*
X180620000Y-58520000D01*
X182900000Y-55080000D02*
X181940000Y-55080000D01*
X185850000Y-67650000D02*
X186150000Y-67350000D01*
X188087500Y-69487500D02*
X188087500Y-68512500D01*
X186050000Y-67850000D02*
X186925000Y-67850000D01*
X170400000Y-57300000D02*
X171700000Y-57300000D01*
X188350000Y-69750000D02*
X188087500Y-69487500D01*
X191030000Y-67270000D02*
X191050000Y-67250000D01*
X180620000Y-58520000D02*
X180600000Y-58500000D01*
X180620000Y-61100000D02*
X180620000Y-60300000D01*
X190350000Y-67270000D02*
X191030000Y-67270000D01*
X185850000Y-67650000D02*
X186050000Y-67850000D01*
X186150000Y-67350000D02*
X186925000Y-67350000D01*
X188350000Y-69750000D02*
X188587500Y-69512500D01*
X178700000Y-60175000D02*
X178700000Y-61200000D01*
X188587500Y-69512500D02*
X188587500Y-68512500D01*
X171390000Y-53900000D02*
X170700000Y-53900000D01*
X181900000Y-55120000D02*
X181900000Y-54400000D01*
%TD*%
%TA.AperFunction,Conductor*%
%TO.N,+5V*%
G36*
X171543039Y-61019685D02*
G01*
X171588794Y-61072489D01*
X171600000Y-61124000D01*
X171600000Y-64076000D01*
X171580315Y-64143039D01*
X171527511Y-64188794D01*
X171476000Y-64200000D01*
X169324000Y-64200000D01*
X169256961Y-64180315D01*
X169211206Y-64127511D01*
X169200000Y-64076000D01*
X169200000Y-61124000D01*
X169219685Y-61056961D01*
X169272489Y-61011206D01*
X169324000Y-61000000D01*
X171476000Y-61000000D01*
X171543039Y-61019685D01*
G37*
%TD.AperFunction*%
%TD*%
%TA.AperFunction,Conductor*%
%TO.N,GND*%
G36*
X207503244Y-47000670D02*
G01*
X207807046Y-47016592D01*
X207819953Y-47017949D01*
X207951089Y-47038718D01*
X208117209Y-47065028D01*
X208129896Y-47067724D01*
X208420625Y-47145625D01*
X208432965Y-47149635D01*
X208713938Y-47257490D01*
X208725790Y-47262767D01*
X208993968Y-47399411D01*
X209005199Y-47405896D01*
X209257608Y-47569812D01*
X209268109Y-47577441D01*
X209502010Y-47766850D01*
X209511655Y-47775535D01*
X209724464Y-47988344D01*
X209733149Y-47997989D01*
X209922558Y-48231890D01*
X209930187Y-48242391D01*
X210094101Y-48494796D01*
X210100591Y-48506036D01*
X210237231Y-48774206D01*
X210242510Y-48786064D01*
X210350363Y-49067033D01*
X210354374Y-49079376D01*
X210432273Y-49370097D01*
X210434971Y-49382794D01*
X210482050Y-49680046D01*
X210483407Y-49692953D01*
X210499330Y-49996756D01*
X210499500Y-50003246D01*
X210499500Y-72996753D01*
X210499330Y-73003243D01*
X210483407Y-73307046D01*
X210482050Y-73319953D01*
X210434971Y-73617205D01*
X210432273Y-73629902D01*
X210354374Y-73920623D01*
X210350363Y-73932966D01*
X210242510Y-74213935D01*
X210237231Y-74225793D01*
X210100591Y-74493963D01*
X210094101Y-74505203D01*
X209930187Y-74757608D01*
X209922558Y-74768109D01*
X209733149Y-75002010D01*
X209724464Y-75011655D01*
X209511655Y-75224464D01*
X209502010Y-75233149D01*
X209268109Y-75422558D01*
X209257608Y-75430187D01*
X209005203Y-75594101D01*
X208993963Y-75600591D01*
X208725793Y-75737231D01*
X208713935Y-75742510D01*
X208432966Y-75850363D01*
X208420623Y-75854374D01*
X208129902Y-75932273D01*
X208117205Y-75934971D01*
X207819953Y-75982050D01*
X207807046Y-75983407D01*
X207503244Y-75999330D01*
X207496754Y-75999500D01*
X149503246Y-75999500D01*
X149496756Y-75999330D01*
X149192953Y-75983407D01*
X149180046Y-75982050D01*
X148882794Y-75934971D01*
X148870097Y-75932273D01*
X148579376Y-75854374D01*
X148567033Y-75850363D01*
X148286064Y-75742510D01*
X148274206Y-75737231D01*
X148006036Y-75600591D01*
X147994796Y-75594101D01*
X147742391Y-75430187D01*
X147731890Y-75422558D01*
X147666680Y-75369752D01*
X153289500Y-75369752D01*
X153301131Y-75428229D01*
X153301132Y-75428230D01*
X153345447Y-75494552D01*
X153411769Y-75538867D01*
X153411770Y-75538868D01*
X153470247Y-75550499D01*
X153470250Y-75550500D01*
X153470252Y-75550500D01*
X155209750Y-75550500D01*
X155209751Y-75550499D01*
X155224568Y-75547552D01*
X155268229Y-75538868D01*
X155268229Y-75538867D01*
X155268231Y-75538867D01*
X155334552Y-75494552D01*
X155378867Y-75428231D01*
X155378867Y-75428229D01*
X155378868Y-75428229D01*
X155390499Y-75369752D01*
X155390500Y-75369750D01*
X155390500Y-74500000D01*
X155824417Y-74500000D01*
X155844699Y-74705932D01*
X155844700Y-74705934D01*
X155904768Y-74903954D01*
X156002315Y-75086450D01*
X156002317Y-75086452D01*
X156133589Y-75246410D01*
X156230209Y-75325702D01*
X156293550Y-75377685D01*
X156476046Y-75475232D01*
X156674066Y-75535300D01*
X156674065Y-75535300D01*
X156692529Y-75537118D01*
X156880000Y-75555583D01*
X157085934Y-75535300D01*
X157283954Y-75475232D01*
X157466450Y-75377685D01*
X157626410Y-75246410D01*
X157757685Y-75086450D01*
X157855232Y-74903954D01*
X157915300Y-74705934D01*
X157935583Y-74500000D01*
X158364417Y-74500000D01*
X158384699Y-74705932D01*
X158384700Y-74705934D01*
X158444768Y-74903954D01*
X158542315Y-75086450D01*
X158542317Y-75086452D01*
X158673589Y-75246410D01*
X158770209Y-75325702D01*
X158833550Y-75377685D01*
X159016046Y-75475232D01*
X159214066Y-75535300D01*
X159214065Y-75535300D01*
X159232529Y-75537118D01*
X159420000Y-75555583D01*
X159625934Y-75535300D01*
X159823954Y-75475232D01*
X160006450Y-75377685D01*
X160166410Y-75246410D01*
X160297685Y-75086450D01*
X160395232Y-74903954D01*
X160455300Y-74705934D01*
X160475583Y-74500000D01*
X160904417Y-74500000D01*
X160924699Y-74705932D01*
X160924700Y-74705934D01*
X160984768Y-74903954D01*
X161082315Y-75086450D01*
X161082317Y-75086452D01*
X161213589Y-75246410D01*
X161310209Y-75325702D01*
X161373550Y-75377685D01*
X161556046Y-75475232D01*
X161754066Y-75535300D01*
X161754065Y-75535300D01*
X161772529Y-75537118D01*
X161960000Y-75555583D01*
X162165934Y-75535300D01*
X162363954Y-75475232D01*
X162546450Y-75377685D01*
X162706410Y-75246410D01*
X162837685Y-75086450D01*
X162935232Y-74903954D01*
X162995300Y-74705934D01*
X163015583Y-74500000D01*
X165984417Y-74500000D01*
X166004699Y-74705932D01*
X166004700Y-74705934D01*
X166064768Y-74903954D01*
X166162315Y-75086450D01*
X166162317Y-75086452D01*
X166293589Y-75246410D01*
X166390209Y-75325702D01*
X166453550Y-75377685D01*
X166636046Y-75475232D01*
X166834066Y-75535300D01*
X166834065Y-75535300D01*
X166852529Y-75537118D01*
X167040000Y-75555583D01*
X167245934Y-75535300D01*
X167443954Y-75475232D01*
X167626450Y-75377685D01*
X167786410Y-75246410D01*
X167917685Y-75086450D01*
X168015232Y-74903954D01*
X168075300Y-74705934D01*
X168095583Y-74500000D01*
X168524417Y-74500000D01*
X168544699Y-74705932D01*
X168544700Y-74705934D01*
X168604768Y-74903954D01*
X168702315Y-75086450D01*
X168702317Y-75086452D01*
X168833589Y-75246410D01*
X168930209Y-75325702D01*
X168993550Y-75377685D01*
X169176046Y-75475232D01*
X169374066Y-75535300D01*
X169374065Y-75535300D01*
X169392529Y-75537118D01*
X169580000Y-75555583D01*
X169785934Y-75535300D01*
X169983954Y-75475232D01*
X170166450Y-75377685D01*
X170326410Y-75246410D01*
X170457685Y-75086450D01*
X170555232Y-74903954D01*
X170615300Y-74705934D01*
X170635583Y-74500000D01*
X171064417Y-74500000D01*
X171084699Y-74705932D01*
X171084700Y-74705934D01*
X171144768Y-74903954D01*
X171242315Y-75086450D01*
X171242317Y-75086452D01*
X171373589Y-75246410D01*
X171470209Y-75325702D01*
X171533550Y-75377685D01*
X171716046Y-75475232D01*
X171914066Y-75535300D01*
X171914065Y-75535300D01*
X171932529Y-75537118D01*
X172120000Y-75555583D01*
X172325934Y-75535300D01*
X172523954Y-75475232D01*
X172706450Y-75377685D01*
X172866410Y-75246410D01*
X172997685Y-75086450D01*
X173095232Y-74903954D01*
X173155300Y-74705934D01*
X173175583Y-74500000D01*
X173604417Y-74500000D01*
X173624699Y-74705932D01*
X173624700Y-74705934D01*
X173684768Y-74903954D01*
X173782315Y-75086450D01*
X173782317Y-75086452D01*
X173913589Y-75246410D01*
X174010209Y-75325702D01*
X174073550Y-75377685D01*
X174256046Y-75475232D01*
X174454066Y-75535300D01*
X174454065Y-75535300D01*
X174472529Y-75537118D01*
X174660000Y-75555583D01*
X174865934Y-75535300D01*
X175063954Y-75475232D01*
X175246450Y-75377685D01*
X175406410Y-75246410D01*
X175537685Y-75086450D01*
X175635232Y-74903954D01*
X175695300Y-74705934D01*
X175715583Y-74500000D01*
X176144417Y-74500000D01*
X176164699Y-74705932D01*
X176164700Y-74705934D01*
X176224768Y-74903954D01*
X176322315Y-75086450D01*
X176322317Y-75086452D01*
X176453589Y-75246410D01*
X176550209Y-75325702D01*
X176613550Y-75377685D01*
X176796046Y-75475232D01*
X176994066Y-75535300D01*
X176994065Y-75535300D01*
X177012529Y-75537118D01*
X177200000Y-75555583D01*
X177405934Y-75535300D01*
X177603954Y-75475232D01*
X177786450Y-75377685D01*
X177946410Y-75246410D01*
X178077685Y-75086450D01*
X178175232Y-74903954D01*
X178235300Y-74705934D01*
X178255583Y-74500000D01*
X178684417Y-74500000D01*
X178704699Y-74705932D01*
X178704700Y-74705934D01*
X178764768Y-74903954D01*
X178862315Y-75086450D01*
X178862317Y-75086452D01*
X178993589Y-75246410D01*
X179090209Y-75325702D01*
X179153550Y-75377685D01*
X179336046Y-75475232D01*
X179534066Y-75535300D01*
X179534065Y-75535300D01*
X179552529Y-75537118D01*
X179740000Y-75555583D01*
X179945934Y-75535300D01*
X180143954Y-75475232D01*
X180326450Y-75377685D01*
X180486410Y-75246410D01*
X180617685Y-75086450D01*
X180715232Y-74903954D01*
X180775300Y-74705934D01*
X180795583Y-74500000D01*
X181224417Y-74500000D01*
X181244699Y-74705932D01*
X181244700Y-74705934D01*
X181304768Y-74903954D01*
X181402315Y-75086450D01*
X181402317Y-75086452D01*
X181533589Y-75246410D01*
X181630209Y-75325702D01*
X181693550Y-75377685D01*
X181876046Y-75475232D01*
X182074066Y-75535300D01*
X182074065Y-75535300D01*
X182092529Y-75537118D01*
X182280000Y-75555583D01*
X182485934Y-75535300D01*
X182683954Y-75475232D01*
X182866450Y-75377685D01*
X183026410Y-75246410D01*
X183157685Y-75086450D01*
X183255232Y-74903954D01*
X183315300Y-74705934D01*
X183335583Y-74500000D01*
X186304417Y-74500000D01*
X186324699Y-74705932D01*
X186324700Y-74705934D01*
X186384768Y-74903954D01*
X186482315Y-75086450D01*
X186482317Y-75086452D01*
X186613589Y-75246410D01*
X186710209Y-75325702D01*
X186773550Y-75377685D01*
X186956046Y-75475232D01*
X187154066Y-75535300D01*
X187154065Y-75535300D01*
X187172529Y-75537118D01*
X187360000Y-75555583D01*
X187565934Y-75535300D01*
X187763954Y-75475232D01*
X187946450Y-75377685D01*
X188106410Y-75246410D01*
X188237685Y-75086450D01*
X188335232Y-74903954D01*
X188395300Y-74705934D01*
X188415583Y-74500000D01*
X188844417Y-74500000D01*
X188864699Y-74705932D01*
X188864700Y-74705934D01*
X188924768Y-74903954D01*
X189022315Y-75086450D01*
X189022317Y-75086452D01*
X189153589Y-75246410D01*
X189250209Y-75325702D01*
X189313550Y-75377685D01*
X189496046Y-75475232D01*
X189694066Y-75535300D01*
X189694065Y-75535300D01*
X189712529Y-75537118D01*
X189900000Y-75555583D01*
X190105934Y-75535300D01*
X190303954Y-75475232D01*
X190486450Y-75377685D01*
X190646410Y-75246410D01*
X190777685Y-75086450D01*
X190875232Y-74903954D01*
X190935300Y-74705934D01*
X190955583Y-74500000D01*
X191384417Y-74500000D01*
X191404699Y-74705932D01*
X191404700Y-74705934D01*
X191464768Y-74903954D01*
X191562315Y-75086450D01*
X191562317Y-75086452D01*
X191693589Y-75246410D01*
X191790209Y-75325702D01*
X191853550Y-75377685D01*
X192036046Y-75475232D01*
X192234066Y-75535300D01*
X192234065Y-75535300D01*
X192252529Y-75537118D01*
X192440000Y-75555583D01*
X192645934Y-75535300D01*
X192843954Y-75475232D01*
X193026450Y-75377685D01*
X193186410Y-75246410D01*
X193317685Y-75086450D01*
X193415232Y-74903954D01*
X193475300Y-74705934D01*
X193495583Y-74500000D01*
X193924417Y-74500000D01*
X193944699Y-74705932D01*
X193944700Y-74705934D01*
X194004768Y-74903954D01*
X194102315Y-75086450D01*
X194102317Y-75086452D01*
X194233589Y-75246410D01*
X194330209Y-75325702D01*
X194393550Y-75377685D01*
X194576046Y-75475232D01*
X194774066Y-75535300D01*
X194774065Y-75535300D01*
X194792529Y-75537118D01*
X194980000Y-75555583D01*
X195185934Y-75535300D01*
X195383954Y-75475232D01*
X195566450Y-75377685D01*
X195726410Y-75246410D01*
X195857685Y-75086450D01*
X195955232Y-74903954D01*
X196015300Y-74705934D01*
X196035583Y-74500000D01*
X196464417Y-74500000D01*
X196484699Y-74705932D01*
X196484700Y-74705934D01*
X196544768Y-74903954D01*
X196642315Y-75086450D01*
X196642317Y-75086452D01*
X196773589Y-75246410D01*
X196870209Y-75325702D01*
X196933550Y-75377685D01*
X197116046Y-75475232D01*
X197314066Y-75535300D01*
X197314065Y-75535300D01*
X197332529Y-75537118D01*
X197520000Y-75555583D01*
X197725934Y-75535300D01*
X197923954Y-75475232D01*
X198106450Y-75377685D01*
X198266410Y-75246410D01*
X198397685Y-75086450D01*
X198495232Y-74903954D01*
X198555300Y-74705934D01*
X198575583Y-74500000D01*
X199004417Y-74500000D01*
X199024699Y-74705932D01*
X199024700Y-74705934D01*
X199084768Y-74903954D01*
X199182315Y-75086450D01*
X199182317Y-75086452D01*
X199313589Y-75246410D01*
X199410209Y-75325702D01*
X199473550Y-75377685D01*
X199656046Y-75475232D01*
X199854066Y-75535300D01*
X199854065Y-75535300D01*
X199872529Y-75537118D01*
X200060000Y-75555583D01*
X200265934Y-75535300D01*
X200463954Y-75475232D01*
X200646450Y-75377685D01*
X200806410Y-75246410D01*
X200937685Y-75086450D01*
X201035232Y-74903954D01*
X201095300Y-74705934D01*
X201115583Y-74500000D01*
X201095300Y-74294066D01*
X201035232Y-74096046D01*
X200937685Y-73913550D01*
X200885702Y-73850209D01*
X200806410Y-73753589D01*
X200656121Y-73630252D01*
X200646450Y-73622315D01*
X200463954Y-73524768D01*
X200265934Y-73464700D01*
X200265932Y-73464699D01*
X200265934Y-73464699D01*
X200060000Y-73444417D01*
X199854067Y-73464699D01*
X199656043Y-73524769D01*
X199568114Y-73571769D01*
X199473550Y-73622315D01*
X199473548Y-73622316D01*
X199473547Y-73622317D01*
X199313589Y-73753589D01*
X199182317Y-73913547D01*
X199182315Y-73913550D01*
X199171937Y-73932966D01*
X199084769Y-74096043D01*
X199024699Y-74294067D01*
X199004417Y-74500000D01*
X198575583Y-74500000D01*
X198555300Y-74294066D01*
X198495232Y-74096046D01*
X198397685Y-73913550D01*
X198345702Y-73850209D01*
X198266410Y-73753589D01*
X198116121Y-73630252D01*
X198106450Y-73622315D01*
X197923954Y-73524768D01*
X197725934Y-73464700D01*
X197725932Y-73464699D01*
X197725934Y-73464699D01*
X197520000Y-73444417D01*
X197314067Y-73464699D01*
X197116043Y-73524769D01*
X197028114Y-73571769D01*
X196933550Y-73622315D01*
X196933548Y-73622316D01*
X196933547Y-73622317D01*
X196773589Y-73753589D01*
X196642317Y-73913547D01*
X196642315Y-73913550D01*
X196631937Y-73932966D01*
X196544769Y-74096043D01*
X196484699Y-74294067D01*
X196464417Y-74500000D01*
X196035583Y-74500000D01*
X196015300Y-74294066D01*
X195955232Y-74096046D01*
X195857685Y-73913550D01*
X195805702Y-73850209D01*
X195726410Y-73753589D01*
X195576121Y-73630252D01*
X195566450Y-73622315D01*
X195383954Y-73524768D01*
X195185934Y-73464700D01*
X195185932Y-73464699D01*
X195185934Y-73464699D01*
X194980000Y-73444417D01*
X194774067Y-73464699D01*
X194576043Y-73524769D01*
X194488114Y-73571769D01*
X194393550Y-73622315D01*
X194393548Y-73622316D01*
X194393547Y-73622317D01*
X194233589Y-73753589D01*
X194102317Y-73913547D01*
X194102315Y-73913550D01*
X194091937Y-73932966D01*
X194004769Y-74096043D01*
X193944699Y-74294067D01*
X193924417Y-74500000D01*
X193495583Y-74500000D01*
X193475300Y-74294066D01*
X193415232Y-74096046D01*
X193317685Y-73913550D01*
X193265702Y-73850209D01*
X193186410Y-73753589D01*
X193036121Y-73630252D01*
X193026450Y-73622315D01*
X192843954Y-73524768D01*
X192645934Y-73464700D01*
X192645932Y-73464699D01*
X192645934Y-73464699D01*
X192440000Y-73444417D01*
X192234067Y-73464699D01*
X192036043Y-73524769D01*
X191948114Y-73571769D01*
X191853550Y-73622315D01*
X191853548Y-73622316D01*
X191853547Y-73622317D01*
X191693589Y-73753589D01*
X191562317Y-73913547D01*
X191562315Y-73913550D01*
X191551937Y-73932966D01*
X191464769Y-74096043D01*
X191404699Y-74294067D01*
X191384417Y-74500000D01*
X190955583Y-74500000D01*
X190935300Y-74294066D01*
X190875232Y-74096046D01*
X190777685Y-73913550D01*
X190725702Y-73850209D01*
X190646410Y-73753589D01*
X190496121Y-73630252D01*
X190486450Y-73622315D01*
X190303954Y-73524768D01*
X190105934Y-73464700D01*
X190105932Y-73464699D01*
X190105934Y-73464699D01*
X189900000Y-73444417D01*
X189694067Y-73464699D01*
X189496043Y-73524769D01*
X189408114Y-73571769D01*
X189313550Y-73622315D01*
X189313548Y-73622316D01*
X189313547Y-73622317D01*
X189153589Y-73753589D01*
X189022317Y-73913547D01*
X189022315Y-73913550D01*
X189011937Y-73932966D01*
X188924769Y-74096043D01*
X188864699Y-74294067D01*
X188844417Y-74500000D01*
X188415583Y-74500000D01*
X188395300Y-74294066D01*
X188335232Y-74096046D01*
X188237685Y-73913550D01*
X188185702Y-73850209D01*
X188106410Y-73753589D01*
X187956121Y-73630252D01*
X187946450Y-73622315D01*
X187763954Y-73524768D01*
X187565934Y-73464700D01*
X187565932Y-73464699D01*
X187565934Y-73464699D01*
X187360000Y-73444417D01*
X187154067Y-73464699D01*
X186956043Y-73524769D01*
X186868114Y-73571769D01*
X186773550Y-73622315D01*
X186773548Y-73622316D01*
X186773547Y-73622317D01*
X186613589Y-73753589D01*
X186482317Y-73913547D01*
X186482315Y-73913550D01*
X186471937Y-73932966D01*
X186384769Y-74096043D01*
X186324699Y-74294067D01*
X186304417Y-74500000D01*
X183335583Y-74500000D01*
X183315300Y-74294066D01*
X183255232Y-74096046D01*
X183157685Y-73913550D01*
X183105702Y-73850209D01*
X183026410Y-73753589D01*
X182876121Y-73630252D01*
X182866450Y-73622315D01*
X182683954Y-73524768D01*
X182485934Y-73464700D01*
X182485932Y-73464699D01*
X182485934Y-73464699D01*
X182280000Y-73444417D01*
X182074067Y-73464699D01*
X181876043Y-73524769D01*
X181788114Y-73571769D01*
X181693550Y-73622315D01*
X181693548Y-73622316D01*
X181693547Y-73622317D01*
X181533589Y-73753589D01*
X181402317Y-73913547D01*
X181402315Y-73913550D01*
X181391937Y-73932966D01*
X181304769Y-74096043D01*
X181244699Y-74294067D01*
X181224417Y-74500000D01*
X180795583Y-74500000D01*
X180775300Y-74294066D01*
X180715232Y-74096046D01*
X180617685Y-73913550D01*
X180565702Y-73850209D01*
X180486410Y-73753589D01*
X180336121Y-73630252D01*
X180326450Y-73622315D01*
X180143954Y-73524768D01*
X179945934Y-73464700D01*
X179945932Y-73464699D01*
X179945934Y-73464699D01*
X179740000Y-73444417D01*
X179534067Y-73464699D01*
X179336043Y-73524769D01*
X179248114Y-73571769D01*
X179153550Y-73622315D01*
X179153548Y-73622316D01*
X179153547Y-73622317D01*
X178993589Y-73753589D01*
X178862317Y-73913547D01*
X178862315Y-73913550D01*
X178851937Y-73932966D01*
X178764769Y-74096043D01*
X178704699Y-74294067D01*
X178684417Y-74500000D01*
X178255583Y-74500000D01*
X178235300Y-74294066D01*
X178175232Y-74096046D01*
X178077685Y-73913550D01*
X178025702Y-73850209D01*
X177946410Y-73753589D01*
X177796121Y-73630252D01*
X177786450Y-73622315D01*
X177603954Y-73524768D01*
X177405934Y-73464700D01*
X177405932Y-73464699D01*
X177405934Y-73464699D01*
X177200000Y-73444417D01*
X176994067Y-73464699D01*
X176796043Y-73524769D01*
X176708114Y-73571769D01*
X176613550Y-73622315D01*
X176613548Y-73622316D01*
X176613547Y-73622317D01*
X176453589Y-73753589D01*
X176322317Y-73913547D01*
X176322315Y-73913550D01*
X176311937Y-73932966D01*
X176224769Y-74096043D01*
X176164699Y-74294067D01*
X176144417Y-74500000D01*
X175715583Y-74500000D01*
X175695300Y-74294066D01*
X175635232Y-74096046D01*
X175537685Y-73913550D01*
X175485702Y-73850209D01*
X175406410Y-73753589D01*
X175256121Y-73630252D01*
X175246450Y-73622315D01*
X175063954Y-73524768D01*
X174865934Y-73464700D01*
X174865932Y-73464699D01*
X174865934Y-73464699D01*
X174660000Y-73444417D01*
X174454067Y-73464699D01*
X174256043Y-73524769D01*
X174168114Y-73571769D01*
X174073550Y-73622315D01*
X174073548Y-73622316D01*
X174073547Y-73622317D01*
X173913589Y-73753589D01*
X173782317Y-73913547D01*
X173782315Y-73913550D01*
X173771937Y-73932966D01*
X173684769Y-74096043D01*
X173624699Y-74294067D01*
X173604417Y-74500000D01*
X173175583Y-74500000D01*
X173155300Y-74294066D01*
X173095232Y-74096046D01*
X172997685Y-73913550D01*
X172945702Y-73850209D01*
X172866410Y-73753589D01*
X172716121Y-73630252D01*
X172706450Y-73622315D01*
X172523954Y-73524768D01*
X172325934Y-73464700D01*
X172325932Y-73464699D01*
X172325934Y-73464699D01*
X172120000Y-73444417D01*
X171914067Y-73464699D01*
X171716043Y-73524769D01*
X171628114Y-73571769D01*
X171533550Y-73622315D01*
X171533548Y-73622316D01*
X171533547Y-73622317D01*
X171373589Y-73753589D01*
X171242317Y-73913547D01*
X171242315Y-73913550D01*
X171231937Y-73932966D01*
X171144769Y-74096043D01*
X171084699Y-74294067D01*
X171064417Y-74500000D01*
X170635583Y-74500000D01*
X170615300Y-74294066D01*
X170555232Y-74096046D01*
X170457685Y-73913550D01*
X170405702Y-73850209D01*
X170326410Y-73753589D01*
X170176121Y-73630252D01*
X170166450Y-73622315D01*
X169983954Y-73524768D01*
X169785934Y-73464700D01*
X169785932Y-73464699D01*
X169785934Y-73464699D01*
X169580000Y-73444417D01*
X169374067Y-73464699D01*
X169176043Y-73524769D01*
X169088114Y-73571769D01*
X168993550Y-73622315D01*
X168993548Y-73622316D01*
X168993547Y-73622317D01*
X168833589Y-73753589D01*
X168702317Y-73913547D01*
X168702315Y-73913550D01*
X168691937Y-73932966D01*
X168604769Y-74096043D01*
X168544699Y-74294067D01*
X168524417Y-74500000D01*
X168095583Y-74500000D01*
X168075300Y-74294066D01*
X168015232Y-74096046D01*
X167917685Y-73913550D01*
X167865702Y-73850209D01*
X167786410Y-73753589D01*
X167636121Y-73630252D01*
X167626450Y-73622315D01*
X167443954Y-73524768D01*
X167245934Y-73464700D01*
X167245932Y-73464699D01*
X167245934Y-73464699D01*
X167040000Y-73444417D01*
X166834067Y-73464699D01*
X166636043Y-73524769D01*
X166548114Y-73571769D01*
X166453550Y-73622315D01*
X166453548Y-73622316D01*
X166453547Y-73622317D01*
X166293589Y-73753589D01*
X166162317Y-73913547D01*
X166162315Y-73913550D01*
X166151937Y-73932966D01*
X166064769Y-74096043D01*
X166004699Y-74294067D01*
X165984417Y-74500000D01*
X163015583Y-74500000D01*
X162995300Y-74294066D01*
X162935232Y-74096046D01*
X162837685Y-73913550D01*
X162785702Y-73850209D01*
X162706410Y-73753589D01*
X162556121Y-73630252D01*
X162546450Y-73622315D01*
X162363954Y-73524768D01*
X162165934Y-73464700D01*
X162165932Y-73464699D01*
X162165934Y-73464699D01*
X161960000Y-73444417D01*
X161754067Y-73464699D01*
X161556043Y-73524769D01*
X161468114Y-73571769D01*
X161373550Y-73622315D01*
X161373548Y-73622316D01*
X161373547Y-73622317D01*
X161213589Y-73753589D01*
X161082317Y-73913547D01*
X161082315Y-73913550D01*
X161071937Y-73932966D01*
X160984769Y-74096043D01*
X160924699Y-74294067D01*
X160904417Y-74500000D01*
X160475583Y-74500000D01*
X160455300Y-74294066D01*
X160395232Y-74096046D01*
X160297685Y-73913550D01*
X160245702Y-73850209D01*
X160166410Y-73753589D01*
X160016121Y-73630252D01*
X160006450Y-73622315D01*
X159823954Y-73524768D01*
X159625934Y-73464700D01*
X159625932Y-73464699D01*
X159625934Y-73464699D01*
X159420000Y-73444417D01*
X159214067Y-73464699D01*
X159016043Y-73524769D01*
X158928114Y-73571769D01*
X158833550Y-73622315D01*
X158833548Y-73622316D01*
X158833547Y-73622317D01*
X158673589Y-73753589D01*
X158542317Y-73913547D01*
X158542315Y-73913550D01*
X158531937Y-73932966D01*
X158444769Y-74096043D01*
X158384699Y-74294067D01*
X158364417Y-74500000D01*
X157935583Y-74500000D01*
X157915300Y-74294066D01*
X157855232Y-74096046D01*
X157757685Y-73913550D01*
X157705702Y-73850209D01*
X157626410Y-73753589D01*
X157476121Y-73630252D01*
X157466450Y-73622315D01*
X157283954Y-73524768D01*
X157085934Y-73464700D01*
X157085932Y-73464699D01*
X157085934Y-73464699D01*
X156880000Y-73444417D01*
X156674067Y-73464699D01*
X156476043Y-73524769D01*
X156388114Y-73571769D01*
X156293550Y-73622315D01*
X156293548Y-73622316D01*
X156293547Y-73622317D01*
X156133589Y-73753589D01*
X156002317Y-73913547D01*
X156002315Y-73913550D01*
X155991937Y-73932966D01*
X155904769Y-74096043D01*
X155844699Y-74294067D01*
X155824417Y-74500000D01*
X155390500Y-74500000D01*
X155390500Y-73630249D01*
X155390499Y-73630247D01*
X155378868Y-73571770D01*
X155378867Y-73571769D01*
X155334552Y-73505447D01*
X155268230Y-73461132D01*
X155268229Y-73461131D01*
X155209752Y-73449500D01*
X155209748Y-73449500D01*
X153470252Y-73449500D01*
X153470247Y-73449500D01*
X153411770Y-73461131D01*
X153411769Y-73461132D01*
X153345447Y-73505447D01*
X153301132Y-73571769D01*
X153301131Y-73571770D01*
X153289500Y-73630247D01*
X153289500Y-75369752D01*
X147666680Y-75369752D01*
X147497989Y-75233149D01*
X147488344Y-75224464D01*
X147275535Y-75011655D01*
X147266850Y-75002010D01*
X147077441Y-74768109D01*
X147069812Y-74757608D01*
X146905896Y-74505199D01*
X146899408Y-74493963D01*
X146797555Y-74294067D01*
X146762767Y-74225790D01*
X146757489Y-74213935D01*
X146649636Y-73932966D01*
X146645625Y-73920623D01*
X146643729Y-73913547D01*
X146567724Y-73629896D01*
X146565028Y-73617205D01*
X146517949Y-73319953D01*
X146516592Y-73307046D01*
X146500670Y-73003243D01*
X146500500Y-72996753D01*
X146500500Y-71960000D01*
X153284417Y-71960000D01*
X153304699Y-72165932D01*
X153304700Y-72165934D01*
X153364768Y-72363954D01*
X153462315Y-72546450D01*
X153462317Y-72546452D01*
X153593589Y-72706410D01*
X153690209Y-72785702D01*
X153753550Y-72837685D01*
X153936046Y-72935232D01*
X154134066Y-72995300D01*
X154134065Y-72995300D01*
X154148818Y-72996753D01*
X154340000Y-73015583D01*
X154545934Y-72995300D01*
X154743954Y-72935232D01*
X154926450Y-72837685D01*
X155086410Y-72706410D01*
X155217685Y-72546450D01*
X155315232Y-72363954D01*
X155375300Y-72165934D01*
X155395583Y-71960000D01*
X155824417Y-71960000D01*
X155844699Y-72165932D01*
X155844700Y-72165934D01*
X155904768Y-72363954D01*
X156002315Y-72546450D01*
X156002317Y-72546452D01*
X156133589Y-72706410D01*
X156230209Y-72785702D01*
X156293550Y-72837685D01*
X156476046Y-72935232D01*
X156674066Y-72995300D01*
X156674065Y-72995300D01*
X156688818Y-72996753D01*
X156880000Y-73015583D01*
X157085934Y-72995300D01*
X157283954Y-72935232D01*
X157466450Y-72837685D01*
X157626410Y-72706410D01*
X157757685Y-72546450D01*
X157855232Y-72363954D01*
X157915300Y-72165934D01*
X157935583Y-71960000D01*
X160904417Y-71960000D01*
X160924699Y-72165932D01*
X160924700Y-72165934D01*
X160984768Y-72363954D01*
X161082315Y-72546450D01*
X161082317Y-72546452D01*
X161213589Y-72706410D01*
X161310209Y-72785702D01*
X161373550Y-72837685D01*
X161556046Y-72935232D01*
X161754066Y-72995300D01*
X161754065Y-72995300D01*
X161768818Y-72996753D01*
X161960000Y-73015583D01*
X162165934Y-72995300D01*
X162363954Y-72935232D01*
X162546450Y-72837685D01*
X162706410Y-72706410D01*
X162837685Y-72546450D01*
X162935232Y-72363954D01*
X162995300Y-72165934D01*
X163015583Y-71960000D01*
X162995300Y-71754066D01*
X162935232Y-71556046D01*
X162837685Y-71373550D01*
X162785702Y-71310209D01*
X162706410Y-71213589D01*
X162588476Y-71116805D01*
X162546450Y-71082315D01*
X162363954Y-70984768D01*
X162165934Y-70924700D01*
X162165932Y-70924699D01*
X162165934Y-70924699D01*
X161960000Y-70904417D01*
X161754067Y-70924699D01*
X161590835Y-70974215D01*
X161556050Y-70984767D01*
X161556043Y-70984769D01*
X161445898Y-71043643D01*
X161373550Y-71082315D01*
X161373548Y-71082316D01*
X161373547Y-71082317D01*
X161213589Y-71213589D01*
X161082317Y-71373547D01*
X160984769Y-71556043D01*
X160924699Y-71754067D01*
X160904417Y-71960000D01*
X157935583Y-71960000D01*
X157915300Y-71754066D01*
X157855232Y-71556046D01*
X157757685Y-71373550D01*
X157705702Y-71310209D01*
X157626410Y-71213589D01*
X157508476Y-71116805D01*
X157466450Y-71082315D01*
X157283954Y-70984768D01*
X157085934Y-70924700D01*
X157085932Y-70924699D01*
X157085934Y-70924699D01*
X156880000Y-70904417D01*
X156674067Y-70924699D01*
X156510835Y-70974215D01*
X156476050Y-70984767D01*
X156476043Y-70984769D01*
X156365898Y-71043643D01*
X156293550Y-71082315D01*
X156293548Y-71082316D01*
X156293547Y-71082317D01*
X156133589Y-71213589D01*
X156002317Y-71373547D01*
X155904769Y-71556043D01*
X155844699Y-71754067D01*
X155824417Y-71960000D01*
X155395583Y-71960000D01*
X155375300Y-71754066D01*
X155315232Y-71556046D01*
X155217685Y-71373550D01*
X155165702Y-71310209D01*
X155086410Y-71213589D01*
X154968476Y-71116805D01*
X154926450Y-71082315D01*
X154743954Y-70984768D01*
X154545934Y-70924700D01*
X154545932Y-70924699D01*
X154545934Y-70924699D01*
X154340000Y-70904417D01*
X154134067Y-70924699D01*
X153970835Y-70974215D01*
X153936050Y-70984767D01*
X153936043Y-70984769D01*
X153825898Y-71043643D01*
X153753550Y-71082315D01*
X153753548Y-71082316D01*
X153753547Y-71082317D01*
X153593589Y-71213589D01*
X153462317Y-71373547D01*
X153364769Y-71556043D01*
X153304699Y-71754067D01*
X153284417Y-71960000D01*
X146500500Y-71960000D01*
X146500500Y-67303469D01*
X148699500Y-67303469D01*
X148739868Y-67506412D01*
X148739870Y-67506420D01*
X148786581Y-67619191D01*
X148819059Y-67697598D01*
X148858101Y-67756029D01*
X148934024Y-67869657D01*
X149080342Y-68015975D01*
X149080345Y-68015977D01*
X149252402Y-68130941D01*
X149443580Y-68210130D01*
X149616341Y-68244494D01*
X149646530Y-68250499D01*
X149646534Y-68250500D01*
X149646535Y-68250500D01*
X150153466Y-68250500D01*
X150153467Y-68250499D01*
X150356420Y-68210130D01*
X150547598Y-68130941D01*
X150719655Y-68015977D01*
X150865977Y-67869655D01*
X150942180Y-67755608D01*
X150995790Y-67710805D01*
X151045281Y-67700500D01*
X152925500Y-67700500D01*
X152992539Y-67720185D01*
X153038294Y-67772989D01*
X153047734Y-67816384D01*
X153049175Y-67816280D01*
X153049499Y-67820759D01*
X153059426Y-67888891D01*
X153110803Y-67993985D01*
X153193514Y-68076696D01*
X153193515Y-68076696D01*
X153193517Y-68076698D01*
X153298607Y-68128073D01*
X153332673Y-68133036D01*
X153366739Y-68138000D01*
X153366740Y-68138000D01*
X153733261Y-68138000D01*
X153755971Y-68134691D01*
X153801393Y-68128073D01*
X153906483Y-68076698D01*
X153989198Y-67993983D01*
X154040573Y-67888893D01*
X154050500Y-67820760D01*
X154949500Y-67820760D01*
X154959426Y-67888891D01*
X155010803Y-67993985D01*
X155093514Y-68076696D01*
X155093515Y-68076696D01*
X155093517Y-68076698D01*
X155198607Y-68128073D01*
X155232673Y-68133036D01*
X155266739Y-68138000D01*
X155266740Y-68138000D01*
X155633261Y-68138000D01*
X155655971Y-68134691D01*
X155701393Y-68128073D01*
X155806483Y-68076698D01*
X155889198Y-67993983D01*
X155940573Y-67888893D01*
X155950500Y-67820760D01*
X155950500Y-67634500D01*
X155970185Y-67567461D01*
X156022989Y-67521706D01*
X156074500Y-67510500D01*
X156154669Y-67510500D01*
X156221708Y-67530185D01*
X156242350Y-67546819D01*
X156319596Y-67624065D01*
X156426827Y-67674068D01*
X156475683Y-67680500D01*
X156475684Y-67680500D01*
X156924317Y-67680500D01*
X156940601Y-67678356D01*
X156973173Y-67674068D01*
X157080404Y-67624065D01*
X157164065Y-67540404D01*
X157214068Y-67433173D01*
X157220500Y-67384316D01*
X157220500Y-67035684D01*
X157219152Y-67025448D01*
X157216187Y-67002922D01*
X157214068Y-66986827D01*
X157164065Y-66879596D01*
X157080404Y-66795935D01*
X157072733Y-66788264D01*
X157075561Y-66785435D01*
X157044843Y-66747023D01*
X157037635Y-66677526D01*
X157069143Y-66615165D01*
X157072903Y-66611906D01*
X157072733Y-66611736D01*
X157142068Y-66542401D01*
X157203391Y-66508916D01*
X157273083Y-66513900D01*
X157317430Y-66542401D01*
X160309540Y-69534511D01*
X160365489Y-69590460D01*
X160365491Y-69590461D01*
X160365495Y-69590464D01*
X160434004Y-69630017D01*
X160434011Y-69630021D01*
X160510438Y-69650500D01*
X160589562Y-69650500D01*
X164825167Y-69650500D01*
X164892206Y-69670185D01*
X164937961Y-69722989D01*
X164947905Y-69792147D01*
X164918880Y-69855703D01*
X164912848Y-69862181D01*
X164259541Y-70515487D01*
X164259535Y-70515495D01*
X164219982Y-70584004D01*
X164219979Y-70584009D01*
X164199500Y-70660439D01*
X164199500Y-70861421D01*
X164179815Y-70928460D01*
X164127011Y-70974215D01*
X164111496Y-70980081D01*
X164096046Y-70984767D01*
X163965358Y-71054622D01*
X163913550Y-71082315D01*
X163913548Y-71082316D01*
X163913547Y-71082317D01*
X163753589Y-71213589D01*
X163622317Y-71373547D01*
X163524769Y-71556043D01*
X163464699Y-71754067D01*
X163444417Y-71960000D01*
X163464699Y-72165932D01*
X163464700Y-72165934D01*
X163524768Y-72363954D01*
X163622315Y-72546450D01*
X163622317Y-72546452D01*
X163753589Y-72706410D01*
X163850209Y-72785702D01*
X163913550Y-72837685D01*
X164096046Y-72935232D01*
X164294066Y-72995300D01*
X164294065Y-72995300D01*
X164308818Y-72996753D01*
X164500000Y-73015583D01*
X164705934Y-72995300D01*
X164903954Y-72935232D01*
X165086450Y-72837685D01*
X165246410Y-72706410D01*
X165377685Y-72546450D01*
X165475232Y-72363954D01*
X165535300Y-72165934D01*
X165555583Y-71960000D01*
X165535300Y-71754066D01*
X165475232Y-71556046D01*
X165377685Y-71373550D01*
X165325702Y-71310209D01*
X165246410Y-71213589D01*
X165128476Y-71116805D01*
X165086450Y-71082315D01*
X164903954Y-70984768D01*
X164899560Y-70983435D01*
X164841122Y-70945137D01*
X164812666Y-70881324D01*
X164823228Y-70812257D01*
X164847873Y-70777097D01*
X165192942Y-70432028D01*
X165254263Y-70398545D01*
X165323955Y-70403529D01*
X165379888Y-70445401D01*
X165404305Y-70510865D01*
X165403359Y-70537357D01*
X165394353Y-70599999D01*
X165414834Y-70742456D01*
X165430653Y-70777094D01*
X165474623Y-70873373D01*
X165568872Y-70982143D01*
X165689947Y-71059953D01*
X165689950Y-71059954D01*
X165689949Y-71059954D01*
X165828036Y-71100499D01*
X165828038Y-71100500D01*
X165828039Y-71100500D01*
X165971962Y-71100500D01*
X165971962Y-71100499D01*
X166095398Y-71064256D01*
X166110050Y-71059954D01*
X166110050Y-71059953D01*
X166110053Y-71059953D01*
X166110054Y-71059951D01*
X166118118Y-71056270D01*
X166119709Y-71059753D01*
X166169129Y-71044944D01*
X166236277Y-71064256D01*
X166282325Y-71116805D01*
X166292652Y-71185907D01*
X166265672Y-71247606D01*
X166162317Y-71373546D01*
X166064769Y-71556043D01*
X166004699Y-71754067D01*
X165984417Y-71960000D01*
X166004699Y-72165932D01*
X166004700Y-72165934D01*
X166064768Y-72363954D01*
X166162315Y-72546450D01*
X166162317Y-72546452D01*
X166293589Y-72706410D01*
X166390209Y-72785702D01*
X166453550Y-72837685D01*
X166636046Y-72935232D01*
X166834066Y-72995300D01*
X166834065Y-72995300D01*
X166848818Y-72996753D01*
X167040000Y-73015583D01*
X167245934Y-72995300D01*
X167443954Y-72935232D01*
X167626450Y-72837685D01*
X167786410Y-72706410D01*
X167917685Y-72546450D01*
X168015232Y-72363954D01*
X168075300Y-72165934D01*
X168095583Y-71960000D01*
X171064417Y-71960000D01*
X171084699Y-72165932D01*
X171084700Y-72165934D01*
X171144768Y-72363954D01*
X171242315Y-72546450D01*
X171242317Y-72546452D01*
X171373589Y-72706410D01*
X171470209Y-72785702D01*
X171533550Y-72837685D01*
X171716046Y-72935232D01*
X171914066Y-72995300D01*
X171914065Y-72995300D01*
X171928818Y-72996753D01*
X172120000Y-73015583D01*
X172325934Y-72995300D01*
X172523954Y-72935232D01*
X172706450Y-72837685D01*
X172866410Y-72706410D01*
X172997685Y-72546450D01*
X173095232Y-72363954D01*
X173155300Y-72165934D01*
X173175583Y-71960000D01*
X173604417Y-71960000D01*
X173624699Y-72165932D01*
X173624700Y-72165934D01*
X173684768Y-72363954D01*
X173782315Y-72546450D01*
X173782317Y-72546452D01*
X173913589Y-72706410D01*
X174010209Y-72785702D01*
X174073550Y-72837685D01*
X174256046Y-72935232D01*
X174454066Y-72995300D01*
X174454065Y-72995300D01*
X174468818Y-72996753D01*
X174660000Y-73015583D01*
X174865934Y-72995300D01*
X175063954Y-72935232D01*
X175246450Y-72837685D01*
X175406410Y-72706410D01*
X175537685Y-72546450D01*
X175635232Y-72363954D01*
X175695300Y-72165934D01*
X175715583Y-71960000D01*
X178684417Y-71960000D01*
X178704699Y-72165932D01*
X178704700Y-72165934D01*
X178764768Y-72363954D01*
X178862315Y-72546450D01*
X178862317Y-72546452D01*
X178993589Y-72706410D01*
X179090209Y-72785702D01*
X179153550Y-72837685D01*
X179336046Y-72935232D01*
X179534066Y-72995300D01*
X179534065Y-72995300D01*
X179548818Y-72996753D01*
X179740000Y-73015583D01*
X179945934Y-72995300D01*
X180143954Y-72935232D01*
X180326450Y-72837685D01*
X180486410Y-72706410D01*
X180617685Y-72546450D01*
X180715232Y-72363954D01*
X180775300Y-72165934D01*
X180795583Y-71960000D01*
X181224417Y-71960000D01*
X181244699Y-72165932D01*
X181244700Y-72165934D01*
X181304768Y-72363954D01*
X181402315Y-72546450D01*
X181402317Y-72546452D01*
X181533589Y-72706410D01*
X181630209Y-72785702D01*
X181693550Y-72837685D01*
X181876046Y-72935232D01*
X182074066Y-72995300D01*
X182074065Y-72995300D01*
X182088818Y-72996753D01*
X182280000Y-73015583D01*
X182485934Y-72995300D01*
X182683954Y-72935232D01*
X182866450Y-72837685D01*
X183026410Y-72706410D01*
X183157685Y-72546450D01*
X183255232Y-72363954D01*
X183315300Y-72165934D01*
X183335583Y-71960000D01*
X183764417Y-71960000D01*
X183784699Y-72165932D01*
X183784700Y-72165934D01*
X183844768Y-72363954D01*
X183942315Y-72546450D01*
X183942317Y-72546452D01*
X184073589Y-72706410D01*
X184170209Y-72785702D01*
X184233550Y-72837685D01*
X184416046Y-72935232D01*
X184614066Y-72995300D01*
X184614065Y-72995300D01*
X184628818Y-72996753D01*
X184820000Y-73015583D01*
X185025934Y-72995300D01*
X185223954Y-72935232D01*
X185406450Y-72837685D01*
X185566410Y-72706410D01*
X185697685Y-72546450D01*
X185795232Y-72363954D01*
X185855300Y-72165934D01*
X185875583Y-71960000D01*
X186304417Y-71960000D01*
X186324699Y-72165932D01*
X186324700Y-72165934D01*
X186384768Y-72363954D01*
X186482315Y-72546450D01*
X186482317Y-72546452D01*
X186613589Y-72706410D01*
X186710209Y-72785702D01*
X186773550Y-72837685D01*
X186956046Y-72935232D01*
X187154066Y-72995300D01*
X187154065Y-72995300D01*
X187168818Y-72996753D01*
X187360000Y-73015583D01*
X187565934Y-72995300D01*
X187763954Y-72935232D01*
X187946450Y-72837685D01*
X188106410Y-72706410D01*
X188237685Y-72546450D01*
X188335232Y-72363954D01*
X188395300Y-72165934D01*
X188415583Y-71960000D01*
X191384417Y-71960000D01*
X191404699Y-72165932D01*
X191404700Y-72165934D01*
X191464768Y-72363954D01*
X191562315Y-72546450D01*
X191562317Y-72546452D01*
X191693589Y-72706410D01*
X191790209Y-72785702D01*
X191853550Y-72837685D01*
X192036046Y-72935232D01*
X192234066Y-72995300D01*
X192234065Y-72995300D01*
X192248818Y-72996753D01*
X192440000Y-73015583D01*
X192645934Y-72995300D01*
X192843954Y-72935232D01*
X193026450Y-72837685D01*
X193186410Y-72706410D01*
X193317685Y-72546450D01*
X193415232Y-72363954D01*
X193475300Y-72165934D01*
X193495583Y-71960000D01*
X196464417Y-71960000D01*
X196484699Y-72165932D01*
X196484700Y-72165934D01*
X196544768Y-72363954D01*
X196642315Y-72546450D01*
X196642317Y-72546452D01*
X196773589Y-72706410D01*
X196870209Y-72785702D01*
X196933550Y-72837685D01*
X197116046Y-72935232D01*
X197314066Y-72995300D01*
X197314065Y-72995300D01*
X197328818Y-72996753D01*
X197520000Y-73015583D01*
X197725934Y-72995300D01*
X197923954Y-72935232D01*
X198106450Y-72837685D01*
X198266410Y-72706410D01*
X198397685Y-72546450D01*
X198495232Y-72363954D01*
X198555300Y-72165934D01*
X198575583Y-71960000D01*
X199004417Y-71960000D01*
X199024699Y-72165932D01*
X199024700Y-72165934D01*
X199084768Y-72363954D01*
X199182315Y-72546450D01*
X199182317Y-72546452D01*
X199313589Y-72706410D01*
X199410209Y-72785702D01*
X199473550Y-72837685D01*
X199656046Y-72935232D01*
X199854066Y-72995300D01*
X199854065Y-72995300D01*
X199868818Y-72996753D01*
X200060000Y-73015583D01*
X200265934Y-72995300D01*
X200463954Y-72935232D01*
X200646450Y-72837685D01*
X200806410Y-72706410D01*
X200937685Y-72546450D01*
X201035232Y-72363954D01*
X201095300Y-72165934D01*
X201115583Y-71960000D01*
X201544417Y-71960000D01*
X201564699Y-72165932D01*
X201564700Y-72165934D01*
X201624768Y-72363954D01*
X201722315Y-72546450D01*
X201722317Y-72546452D01*
X201853589Y-72706410D01*
X201950209Y-72785702D01*
X202013550Y-72837685D01*
X202196046Y-72935232D01*
X202394066Y-72995300D01*
X202394065Y-72995300D01*
X202408818Y-72996753D01*
X202600000Y-73015583D01*
X202805934Y-72995300D01*
X203003954Y-72935232D01*
X203186450Y-72837685D01*
X203346410Y-72706410D01*
X203477685Y-72546450D01*
X203575232Y-72363954D01*
X203635300Y-72165934D01*
X203655583Y-71960000D01*
X203635300Y-71754066D01*
X203575232Y-71556046D01*
X203477685Y-71373550D01*
X203425702Y-71310209D01*
X203346410Y-71213589D01*
X203228476Y-71116805D01*
X203186450Y-71082315D01*
X203003954Y-70984768D01*
X202805934Y-70924700D01*
X202805932Y-70924699D01*
X202805934Y-70924699D01*
X202600000Y-70904417D01*
X202394067Y-70924699D01*
X202230835Y-70974215D01*
X202196050Y-70984767D01*
X202196043Y-70984769D01*
X202085898Y-71043643D01*
X202013550Y-71082315D01*
X202013548Y-71082316D01*
X202013547Y-71082317D01*
X201853589Y-71213589D01*
X201722317Y-71373547D01*
X201624769Y-71556043D01*
X201564699Y-71754067D01*
X201544417Y-71960000D01*
X201115583Y-71960000D01*
X201095300Y-71754066D01*
X201035232Y-71556046D01*
X200937685Y-71373550D01*
X200885702Y-71310209D01*
X200806410Y-71213589D01*
X200688476Y-71116805D01*
X200646450Y-71082315D01*
X200463954Y-70984768D01*
X200265934Y-70924700D01*
X200265932Y-70924699D01*
X200265934Y-70924699D01*
X200060000Y-70904417D01*
X199854067Y-70924699D01*
X199690835Y-70974215D01*
X199656050Y-70984767D01*
X199656043Y-70984769D01*
X199545898Y-71043643D01*
X199473550Y-71082315D01*
X199473548Y-71082316D01*
X199473547Y-71082317D01*
X199313589Y-71213589D01*
X199182317Y-71373547D01*
X199084769Y-71556043D01*
X199024699Y-71754067D01*
X199004417Y-71960000D01*
X198575583Y-71960000D01*
X198555300Y-71754066D01*
X198495232Y-71556046D01*
X198397685Y-71373550D01*
X198345702Y-71310209D01*
X198266410Y-71213589D01*
X198148476Y-71116805D01*
X198106450Y-71082315D01*
X197923954Y-70984768D01*
X197725934Y-70924700D01*
X197725932Y-70924699D01*
X197725934Y-70924699D01*
X197520000Y-70904417D01*
X197314067Y-70924699D01*
X197150835Y-70974215D01*
X197116050Y-70984767D01*
X197116043Y-70984769D01*
X197005898Y-71043643D01*
X196933550Y-71082315D01*
X196933548Y-71082316D01*
X196933547Y-71082317D01*
X196773589Y-71213589D01*
X196642317Y-71373547D01*
X196544769Y-71556043D01*
X196484699Y-71754067D01*
X196464417Y-71960000D01*
X193495583Y-71960000D01*
X193475300Y-71754066D01*
X193415232Y-71556046D01*
X193317685Y-71373550D01*
X193265702Y-71310209D01*
X193186410Y-71213589D01*
X193068476Y-71116805D01*
X193026450Y-71082315D01*
X192843954Y-70984768D01*
X192645934Y-70924700D01*
X192645932Y-70924699D01*
X192645934Y-70924699D01*
X192440000Y-70904417D01*
X192234067Y-70924699D01*
X192070835Y-70974215D01*
X192036050Y-70984767D01*
X192036043Y-70984769D01*
X191925898Y-71043643D01*
X191853550Y-71082315D01*
X191853548Y-71082316D01*
X191853547Y-71082317D01*
X191693589Y-71213589D01*
X191562317Y-71373547D01*
X191464769Y-71556043D01*
X191404699Y-71754067D01*
X191384417Y-71960000D01*
X188415583Y-71960000D01*
X188395300Y-71754066D01*
X188335232Y-71556046D01*
X188237685Y-71373550D01*
X188185702Y-71310209D01*
X188106410Y-71213589D01*
X187988476Y-71116805D01*
X187946450Y-71082315D01*
X187763954Y-70984768D01*
X187565934Y-70924700D01*
X187565932Y-70924699D01*
X187565934Y-70924699D01*
X187360000Y-70904417D01*
X187154067Y-70924699D01*
X186990835Y-70974215D01*
X186956050Y-70984767D01*
X186956043Y-70984769D01*
X186845898Y-71043643D01*
X186773550Y-71082315D01*
X186773548Y-71082316D01*
X186773547Y-71082317D01*
X186613589Y-71213589D01*
X186482317Y-71373547D01*
X186384769Y-71556043D01*
X186324699Y-71754067D01*
X186304417Y-71960000D01*
X185875583Y-71960000D01*
X185855300Y-71754066D01*
X185795232Y-71556046D01*
X185697685Y-71373550D01*
X185645702Y-71310209D01*
X185566410Y-71213589D01*
X185448476Y-71116805D01*
X185406450Y-71082315D01*
X185223954Y-70984768D01*
X185025934Y-70924700D01*
X185025932Y-70924699D01*
X185025934Y-70924699D01*
X184820000Y-70904417D01*
X184614067Y-70924699D01*
X184450835Y-70974215D01*
X184416050Y-70984767D01*
X184416043Y-70984769D01*
X184305898Y-71043643D01*
X184233550Y-71082315D01*
X184233548Y-71082316D01*
X184233547Y-71082317D01*
X184073589Y-71213589D01*
X183942317Y-71373547D01*
X183844769Y-71556043D01*
X183784699Y-71754067D01*
X183764417Y-71960000D01*
X183335583Y-71960000D01*
X183315300Y-71754066D01*
X183255232Y-71556046D01*
X183157685Y-71373550D01*
X183105702Y-71310209D01*
X183026410Y-71213589D01*
X182908476Y-71116805D01*
X182866450Y-71082315D01*
X182683954Y-70984768D01*
X182485934Y-70924700D01*
X182485932Y-70924699D01*
X182485934Y-70924699D01*
X182280000Y-70904417D01*
X182074067Y-70924699D01*
X181910835Y-70974215D01*
X181876050Y-70984767D01*
X181876043Y-70984769D01*
X181765898Y-71043643D01*
X181693550Y-71082315D01*
X181693548Y-71082316D01*
X181693547Y-71082317D01*
X181533589Y-71213589D01*
X181402317Y-71373547D01*
X181304769Y-71556043D01*
X181244699Y-71754067D01*
X181224417Y-71960000D01*
X180795583Y-71960000D01*
X180775300Y-71754066D01*
X180715232Y-71556046D01*
X180617685Y-71373550D01*
X180565702Y-71310209D01*
X180486410Y-71213589D01*
X180368476Y-71116805D01*
X180326450Y-71082315D01*
X180143954Y-70984768D01*
X179945934Y-70924700D01*
X179945932Y-70924699D01*
X179945934Y-70924699D01*
X179740000Y-70904417D01*
X179534067Y-70924699D01*
X179370835Y-70974215D01*
X179336050Y-70984767D01*
X179336043Y-70984769D01*
X179225898Y-71043643D01*
X179153550Y-71082315D01*
X179153548Y-71082316D01*
X179153547Y-71082317D01*
X178993589Y-71213589D01*
X178862317Y-71373547D01*
X178764769Y-71556043D01*
X178704699Y-71754067D01*
X178684417Y-71960000D01*
X175715583Y-71960000D01*
X175695300Y-71754066D01*
X175635232Y-71556046D01*
X175537685Y-71373550D01*
X175485702Y-71310209D01*
X175406410Y-71213589D01*
X175288476Y-71116805D01*
X175246450Y-71082315D01*
X175063954Y-70984768D01*
X174865934Y-70924700D01*
X174865932Y-70924699D01*
X174865934Y-70924699D01*
X174660000Y-70904417D01*
X174454067Y-70924699D01*
X174290835Y-70974215D01*
X174256050Y-70984767D01*
X174256043Y-70984769D01*
X174145898Y-71043643D01*
X174073550Y-71082315D01*
X174073548Y-71082316D01*
X174073547Y-71082317D01*
X173913589Y-71213589D01*
X173782317Y-71373547D01*
X173684769Y-71556043D01*
X173624699Y-71754067D01*
X173604417Y-71960000D01*
X173175583Y-71960000D01*
X173155300Y-71754066D01*
X173095232Y-71556046D01*
X172997685Y-71373550D01*
X172945702Y-71310209D01*
X172866410Y-71213589D01*
X172748476Y-71116805D01*
X172706450Y-71082315D01*
X172523954Y-70984768D01*
X172325934Y-70924700D01*
X172325932Y-70924699D01*
X172325934Y-70924699D01*
X172120000Y-70904417D01*
X171914067Y-70924699D01*
X171750835Y-70974215D01*
X171716050Y-70984767D01*
X171716043Y-70984769D01*
X171605898Y-71043643D01*
X171533550Y-71082315D01*
X171533548Y-71082316D01*
X171533547Y-71082317D01*
X171373589Y-71213589D01*
X171242317Y-71373547D01*
X171144769Y-71556043D01*
X171084699Y-71754067D01*
X171064417Y-71960000D01*
X168095583Y-71960000D01*
X168075300Y-71754066D01*
X168015232Y-71556046D01*
X167917685Y-71373550D01*
X167865702Y-71310209D01*
X167786410Y-71213589D01*
X167668476Y-71116805D01*
X167626450Y-71082315D01*
X167443954Y-70984768D01*
X167245934Y-70924700D01*
X167245932Y-70924699D01*
X167245934Y-70924699D01*
X167040000Y-70904417D01*
X166834067Y-70924699D01*
X166670835Y-70974215D01*
X166636050Y-70984767D01*
X166636043Y-70984769D01*
X166468575Y-71074284D01*
X166400172Y-71088526D01*
X166334928Y-71063526D01*
X166293557Y-71007221D01*
X166289195Y-70937488D01*
X166316408Y-70883723D01*
X166325377Y-70873373D01*
X166385165Y-70742457D01*
X166405647Y-70600000D01*
X166404518Y-70592146D01*
X166414462Y-70522987D01*
X166460218Y-70470184D01*
X166527256Y-70450500D01*
X178755245Y-70450500D01*
X178755247Y-70450500D01*
X178831674Y-70430021D01*
X178900196Y-70390460D01*
X178956145Y-70334511D01*
X180810159Y-68480496D01*
X186412000Y-68480496D01*
X186412001Y-68480505D01*
X186414793Y-68504580D01*
X186414794Y-68504584D01*
X186458281Y-68603073D01*
X186458284Y-68603077D01*
X186458285Y-68603079D01*
X186534421Y-68679215D01*
X186632920Y-68722707D01*
X186656995Y-68725500D01*
X186770704Y-68725499D01*
X186837742Y-68745183D01*
X186883497Y-68797987D01*
X186893441Y-68867145D01*
X186864417Y-68930700D01*
X186824625Y-68976622D01*
X186824622Y-68976628D01*
X186764834Y-69107543D01*
X186744353Y-69250000D01*
X186764834Y-69392456D01*
X186824622Y-69523371D01*
X186824623Y-69523373D01*
X186918872Y-69632143D01*
X187039947Y-69709953D01*
X187039950Y-69709954D01*
X187039949Y-69709954D01*
X187178036Y-69750499D01*
X187178038Y-69750500D01*
X187178039Y-69750500D01*
X187321962Y-69750500D01*
X187321962Y-69750499D01*
X187460053Y-69709953D01*
X187581128Y-69632143D01*
X187675377Y-69523373D01*
X187735165Y-69392457D01*
X187755647Y-69250000D01*
X187754339Y-69240906D01*
X187764279Y-69171750D01*
X187789395Y-69135574D01*
X187827960Y-69097011D01*
X187846246Y-69065337D01*
X187855390Y-69049501D01*
X187867520Y-69028490D01*
X187867521Y-69028489D01*
X187886820Y-68956465D01*
X187911620Y-68913513D01*
X187910222Y-68912556D01*
X187916707Y-68903086D01*
X187916715Y-68903079D01*
X187960207Y-68804580D01*
X187963000Y-68780505D01*
X187962999Y-68244496D01*
X187960207Y-68220420D01*
X187955664Y-68210131D01*
X187916718Y-68121926D01*
X187916716Y-68121923D01*
X187916715Y-68121921D01*
X187840579Y-68045785D01*
X187792145Y-68024399D01*
X187742081Y-68002293D01*
X187718005Y-67999500D01*
X187457003Y-67999500D01*
X187456994Y-67999501D01*
X187432917Y-68002293D01*
X187403391Y-68015330D01*
X187334113Y-68024399D01*
X187303221Y-68015328D01*
X187217081Y-67977293D01*
X187193005Y-67974500D01*
X186657003Y-67974500D01*
X186656994Y-67974501D01*
X186632919Y-67977293D01*
X186632915Y-67977294D01*
X186534426Y-68020781D01*
X186534418Y-68020787D01*
X186458287Y-68096918D01*
X186458283Y-68096925D01*
X186414793Y-68195417D01*
X186414793Y-68195419D01*
X186412000Y-68219491D01*
X186412000Y-68480496D01*
X180810159Y-68480496D01*
X184228837Y-65061817D01*
X184290160Y-65028333D01*
X184316518Y-65025499D01*
X184567197Y-65025499D01*
X184567197Y-65026667D01*
X184630421Y-65040813D01*
X184679534Y-65090509D01*
X184692345Y-65141329D01*
X184693091Y-65141222D01*
X184694116Y-65148352D01*
X184694353Y-65149292D01*
X184694353Y-65149999D01*
X184714834Y-65292456D01*
X184762821Y-65397530D01*
X184774623Y-65423373D01*
X184868872Y-65532143D01*
X184989947Y-65609953D01*
X184989950Y-65609954D01*
X184989949Y-65609954D01*
X185128036Y-65650499D01*
X185128038Y-65650500D01*
X185128039Y-65650500D01*
X185271962Y-65650500D01*
X185271962Y-65650499D01*
X185410050Y-65609954D01*
X185410051Y-65609954D01*
X185410053Y-65609953D01*
X185531128Y-65532143D01*
X185531129Y-65532141D01*
X185532960Y-65530965D01*
X185600000Y-65511280D01*
X185667039Y-65530964D01*
X185667039Y-65530965D01*
X185767112Y-65595278D01*
X185812867Y-65648082D01*
X185822811Y-65717240D01*
X185793786Y-65780796D01*
X185787761Y-65787267D01*
X185665489Y-65909540D01*
X185609541Y-65965487D01*
X185609535Y-65965495D01*
X185569982Y-66034004D01*
X185569979Y-66034009D01*
X185567096Y-66044769D01*
X185549500Y-66110438D01*
X185549500Y-66539562D01*
X185564869Y-66596918D01*
X185569980Y-66615993D01*
X185569981Y-66615994D01*
X185596344Y-66661655D01*
X185596345Y-66661657D01*
X185609537Y-66684507D01*
X185609539Y-66684510D01*
X185609540Y-66684511D01*
X186015489Y-67090460D01*
X186084012Y-67130022D01*
X186160438Y-67150500D01*
X186239562Y-67150500D01*
X186454344Y-67150500D01*
X186521383Y-67170185D01*
X186524797Y-67172936D01*
X186524944Y-67172722D01*
X186534415Y-67179209D01*
X186534421Y-67179215D01*
X186632920Y-67222707D01*
X186656995Y-67225500D01*
X187193004Y-67225499D01*
X187217080Y-67222707D01*
X187303222Y-67184670D01*
X187372501Y-67175599D01*
X187403397Y-67184671D01*
X187432920Y-67197707D01*
X187456995Y-67200500D01*
X187718004Y-67200499D01*
X187742080Y-67197707D01*
X187787414Y-67177689D01*
X187856690Y-67168618D01*
X187887586Y-67177689D01*
X187932920Y-67197707D01*
X187956995Y-67200500D01*
X188218004Y-67200499D01*
X188242080Y-67197707D01*
X188287414Y-67177689D01*
X188356690Y-67168618D01*
X188387586Y-67177689D01*
X188432920Y-67197707D01*
X188456995Y-67200500D01*
X188613000Y-67200499D01*
X188680039Y-67220183D01*
X188725794Y-67272987D01*
X188737000Y-67324498D01*
X188737000Y-67480495D01*
X188737001Y-67480504D01*
X188739793Y-67504580D01*
X188759810Y-67549914D01*
X188768881Y-67619191D01*
X188759810Y-67650084D01*
X188739793Y-67695418D01*
X188737000Y-67719491D01*
X188737000Y-67980496D01*
X188737001Y-67980504D01*
X188739793Y-68004580D01*
X188759810Y-68049914D01*
X188768881Y-68119191D01*
X188759810Y-68150084D01*
X188739793Y-68195418D01*
X188737000Y-68219491D01*
X188737000Y-68480496D01*
X188737001Y-68480505D01*
X188739793Y-68504580D01*
X188739794Y-68504584D01*
X188783281Y-68603073D01*
X188783284Y-68603077D01*
X188783285Y-68603079D01*
X188859421Y-68679215D01*
X188957920Y-68722707D01*
X188981995Y-68725500D01*
X189518004Y-68725499D01*
X189542080Y-68722707D01*
X189584513Y-68703971D01*
X189640573Y-68679218D01*
X189640574Y-68679217D01*
X189640579Y-68679215D01*
X189640582Y-68679211D01*
X189650056Y-68672722D01*
X189652434Y-68676193D01*
X189694298Y-68653334D01*
X189720656Y-68650500D01*
X189948353Y-68650500D01*
X190000756Y-68662117D01*
X190090513Y-68703972D01*
X190140099Y-68710500D01*
X190559900Y-68710499D01*
X190609487Y-68703972D01*
X190704680Y-68659582D01*
X190773753Y-68649091D01*
X190824121Y-68667650D01*
X190889944Y-68709952D01*
X190889949Y-68709954D01*
X190997107Y-68741417D01*
X191024633Y-68749500D01*
X191028036Y-68750499D01*
X191028038Y-68750500D01*
X191028039Y-68750500D01*
X191171962Y-68750500D01*
X191171962Y-68750499D01*
X191308190Y-68710500D01*
X191310050Y-68709954D01*
X191310050Y-68709953D01*
X191310053Y-68709953D01*
X191431128Y-68632143D01*
X191525377Y-68523373D01*
X191585165Y-68392457D01*
X191605647Y-68250000D01*
X191585165Y-68107543D01*
X191525377Y-67976627D01*
X191431128Y-67867857D01*
X191310053Y-67790047D01*
X191310051Y-67790046D01*
X191310049Y-67790045D01*
X191310050Y-67790045D01*
X191171963Y-67749500D01*
X191171961Y-67749500D01*
X191028039Y-67749500D01*
X191028036Y-67749500D01*
X190889950Y-67790045D01*
X190889949Y-67790045D01*
X190857994Y-67810581D01*
X190790954Y-67830264D01*
X190723915Y-67810578D01*
X190719833Y-67807839D01*
X190718319Y-67806779D01*
X190718316Y-67806776D01*
X190609487Y-67756028D01*
X190609485Y-67756027D01*
X190609486Y-67756027D01*
X190559901Y-67749500D01*
X190140105Y-67749500D01*
X190124386Y-67751569D01*
X190090513Y-67756028D01*
X190090511Y-67756029D01*
X190090509Y-67756029D01*
X189981682Y-67806776D01*
X189974677Y-67813782D01*
X189913353Y-67847265D01*
X189843661Y-67842278D01*
X189787729Y-67800405D01*
X189763315Y-67734940D01*
X189762999Y-67726098D01*
X189762999Y-67719503D01*
X189762999Y-67719496D01*
X189760207Y-67695420D01*
X189740189Y-67650086D01*
X189731118Y-67580809D01*
X189740191Y-67549912D01*
X189760206Y-67504584D01*
X189760206Y-67504583D01*
X189760206Y-67504582D01*
X189760207Y-67504580D01*
X189763000Y-67480505D01*
X189762999Y-67219496D01*
X189760207Y-67195420D01*
X189740189Y-67150086D01*
X189731118Y-67080809D01*
X189740191Y-67049912D01*
X189760206Y-67004584D01*
X189760206Y-67004583D01*
X189760206Y-67004582D01*
X189760207Y-67004580D01*
X189763000Y-66980505D01*
X189762999Y-66719496D01*
X189760207Y-66695420D01*
X189755390Y-66684511D01*
X189716718Y-66596926D01*
X189716716Y-66596923D01*
X189716715Y-66596921D01*
X189640579Y-66520785D01*
X189571991Y-66490500D01*
X189542081Y-66477293D01*
X189518008Y-66474500D01*
X189298518Y-66474500D01*
X189231479Y-66454815D01*
X189185724Y-66402011D01*
X189175780Y-66332853D01*
X189204805Y-66269297D01*
X189231473Y-66246189D01*
X189331131Y-66182143D01*
X189425380Y-66073373D01*
X189485168Y-65942457D01*
X189505650Y-65800000D01*
X189485168Y-65657543D01*
X189425380Y-65526627D01*
X189331131Y-65417857D01*
X189210056Y-65340047D01*
X189210054Y-65340046D01*
X189210052Y-65340045D01*
X189210053Y-65340045D01*
X189071966Y-65299500D01*
X189071964Y-65299500D01*
X188928042Y-65299500D01*
X188928039Y-65299500D01*
X188789952Y-65340045D01*
X188667040Y-65419036D01*
X188600001Y-65438720D01*
X188532962Y-65419035D01*
X188410055Y-65340047D01*
X188410050Y-65340045D01*
X188271963Y-65299500D01*
X188271961Y-65299500D01*
X188128039Y-65299500D01*
X188128035Y-65299500D01*
X188059434Y-65319643D01*
X187989564Y-65319643D01*
X187930786Y-65281868D01*
X187901762Y-65218312D01*
X187900500Y-65200666D01*
X187900500Y-65079157D01*
X187920185Y-65012118D01*
X187972989Y-64966363D01*
X188042147Y-64956419D01*
X188076905Y-64966775D01*
X188085419Y-64970745D01*
X188085421Y-64970747D01*
X188189455Y-65019259D01*
X188236861Y-65025500D01*
X188563138Y-65025499D01*
X188610545Y-65019259D01*
X188714579Y-64970747D01*
X188714581Y-64970745D01*
X188723465Y-64964525D01*
X188724678Y-64966258D01*
X188773642Y-64939522D01*
X188843334Y-64944506D01*
X188875898Y-64965434D01*
X188876535Y-64964525D01*
X188885419Y-64970745D01*
X188885421Y-64970747D01*
X188989455Y-65019259D01*
X189036861Y-65025500D01*
X189363138Y-65025499D01*
X189410545Y-65019259D01*
X189514579Y-64970747D01*
X189595747Y-64889579D01*
X189644259Y-64785545D01*
X189650500Y-64738139D01*
X189650499Y-63411862D01*
X189644259Y-63364455D01*
X189595747Y-63260421D01*
X189514579Y-63179253D01*
X189410545Y-63130741D01*
X189410543Y-63130740D01*
X189410544Y-63130740D01*
X189363140Y-63124500D01*
X189036867Y-63124500D01*
X189021839Y-63126478D01*
X188989455Y-63130741D01*
X188989453Y-63130742D01*
X188989451Y-63130742D01*
X188885419Y-63179253D01*
X188876535Y-63185475D01*
X188875322Y-63183742D01*
X188826347Y-63210480D01*
X188756656Y-63205489D01*
X188724100Y-63184566D01*
X188723465Y-63185475D01*
X188714580Y-63179254D01*
X188714579Y-63179253D01*
X188610545Y-63130741D01*
X188610543Y-63130740D01*
X188610544Y-63130740D01*
X188563140Y-63124500D01*
X188236867Y-63124500D01*
X188221839Y-63126478D01*
X188189455Y-63130741D01*
X188189453Y-63130742D01*
X188189451Y-63130742D01*
X188085419Y-63179253D01*
X188076535Y-63185475D01*
X188075322Y-63183742D01*
X188026347Y-63210480D01*
X187956656Y-63205489D01*
X187924100Y-63184566D01*
X187923465Y-63185475D01*
X187914580Y-63179254D01*
X187914579Y-63179253D01*
X187810545Y-63130741D01*
X187810543Y-63130740D01*
X187810544Y-63130740D01*
X187763140Y-63124500D01*
X187436867Y-63124500D01*
X187421839Y-63126478D01*
X187389455Y-63130741D01*
X187389453Y-63130742D01*
X187389451Y-63130742D01*
X187285419Y-63179253D01*
X187276535Y-63185475D01*
X187275322Y-63183742D01*
X187226347Y-63210480D01*
X187156656Y-63205489D01*
X187124100Y-63184566D01*
X187123465Y-63185475D01*
X187114580Y-63179254D01*
X187114579Y-63179253D01*
X187010545Y-63130741D01*
X187010543Y-63130740D01*
X187010544Y-63130740D01*
X186963140Y-63124500D01*
X186636867Y-63124500D01*
X186621839Y-63126478D01*
X186589455Y-63130741D01*
X186589453Y-63130742D01*
X186589451Y-63130742D01*
X186485419Y-63179253D01*
X186476535Y-63185475D01*
X186475322Y-63183742D01*
X186426347Y-63210480D01*
X186356656Y-63205489D01*
X186324100Y-63184566D01*
X186323465Y-63185475D01*
X186314580Y-63179254D01*
X186314579Y-63179253D01*
X186210545Y-63130741D01*
X186210543Y-63130740D01*
X186210544Y-63130740D01*
X186163140Y-63124500D01*
X185836867Y-63124500D01*
X185821839Y-63126478D01*
X185789455Y-63130741D01*
X185789453Y-63130742D01*
X185789451Y-63130742D01*
X185685419Y-63179253D01*
X185676535Y-63185475D01*
X185675322Y-63183742D01*
X185626347Y-63210480D01*
X185556656Y-63205489D01*
X185524100Y-63184566D01*
X185523465Y-63185475D01*
X185514580Y-63179254D01*
X185514579Y-63179253D01*
X185410545Y-63130741D01*
X185410543Y-63130740D01*
X185410544Y-63130740D01*
X185363140Y-63124500D01*
X185036867Y-63124500D01*
X185021839Y-63126478D01*
X184989455Y-63130741D01*
X184989453Y-63130742D01*
X184989451Y-63130742D01*
X184885419Y-63179253D01*
X184876535Y-63185475D01*
X184875322Y-63183742D01*
X184826347Y-63210480D01*
X184756656Y-63205489D01*
X184724100Y-63184566D01*
X184723465Y-63185475D01*
X184714580Y-63179254D01*
X184714579Y-63179253D01*
X184610545Y-63130741D01*
X184610543Y-63130740D01*
X184610544Y-63130740D01*
X184563140Y-63124500D01*
X184236867Y-63124500D01*
X184221839Y-63126478D01*
X184189455Y-63130741D01*
X184189453Y-63130742D01*
X184189448Y-63130743D01*
X184085631Y-63179154D01*
X184016554Y-63189646D01*
X183952770Y-63161126D01*
X183914531Y-63102649D01*
X183913977Y-63032782D01*
X183920841Y-63014376D01*
X183969259Y-62910545D01*
X183975500Y-62863139D01*
X183975500Y-62863132D01*
X190424500Y-62863132D01*
X190424501Y-62863138D01*
X190430741Y-62910545D01*
X190430742Y-62910547D01*
X190430742Y-62910548D01*
X190470395Y-62995583D01*
X190479253Y-63014579D01*
X190560421Y-63095747D01*
X190664455Y-63144259D01*
X190711861Y-63150500D01*
X190711872Y-63150499D01*
X190714140Y-63150649D01*
X190714784Y-63150885D01*
X190715886Y-63151030D01*
X190715853Y-63151276D01*
X190779751Y-63174668D01*
X190821961Y-63230346D01*
X190828782Y-63256737D01*
X190849192Y-63398695D01*
X190895229Y-63499500D01*
X190908981Y-63529612D01*
X191003230Y-63638382D01*
X191124305Y-63716192D01*
X191124308Y-63716193D01*
X191124307Y-63716193D01*
X191262394Y-63756738D01*
X191262396Y-63756739D01*
X191262397Y-63756739D01*
X191406320Y-63756739D01*
X191406320Y-63756738D01*
X191544411Y-63716192D01*
X191665486Y-63638382D01*
X191759735Y-63529612D01*
X191819523Y-63398696D01*
X191836604Y-63279894D01*
X191839917Y-63256852D01*
X191868942Y-63193296D01*
X191927720Y-63155522D01*
X191962655Y-63150499D01*
X192038133Y-63150499D01*
X192038138Y-63150499D01*
X192085545Y-63144259D01*
X192189579Y-63095747D01*
X192189582Y-63095743D01*
X192194370Y-63092391D01*
X192260574Y-63070059D01*
X192328343Y-63087065D01*
X192376159Y-63138010D01*
X192389500Y-63193960D01*
X192389500Y-63279894D01*
X192389501Y-63279900D01*
X192396028Y-63329487D01*
X192396029Y-63329489D01*
X192396029Y-63329490D01*
X192440295Y-63424417D01*
X192446776Y-63438316D01*
X192531684Y-63523224D01*
X192640513Y-63573972D01*
X192690099Y-63580500D01*
X193109900Y-63580499D01*
X193159487Y-63573972D01*
X193268316Y-63523224D01*
X193353224Y-63438316D01*
X193403972Y-63329487D01*
X193410500Y-63279901D01*
X193410499Y-62920100D01*
X193403972Y-62870513D01*
X193353224Y-62761684D01*
X193268316Y-62676776D01*
X193209171Y-62649196D01*
X193156733Y-62603025D01*
X193137581Y-62535831D01*
X193157797Y-62468950D01*
X193210962Y-62423616D01*
X193261577Y-62412815D01*
X193836482Y-62412815D01*
X193903521Y-62432500D01*
X193924163Y-62449134D01*
X194119540Y-62644511D01*
X194175489Y-62700460D01*
X194175491Y-62700461D01*
X194175495Y-62700464D01*
X194244004Y-62740017D01*
X194244011Y-62740021D01*
X194320438Y-62760500D01*
X194399562Y-62760500D01*
X194529983Y-62760500D01*
X194597022Y-62780185D01*
X194642777Y-62832989D01*
X194651600Y-62860309D01*
X194661131Y-62908229D01*
X194661132Y-62908230D01*
X194705447Y-62974552D01*
X194731407Y-62991898D01*
X194776212Y-63045511D01*
X194784919Y-63114836D01*
X194754764Y-63177863D01*
X194731407Y-63198102D01*
X194705447Y-63215447D01*
X194661132Y-63281769D01*
X194661131Y-63281770D01*
X194649500Y-63340247D01*
X194649500Y-64119752D01*
X194661131Y-64178229D01*
X194661132Y-64178230D01*
X194705447Y-64244552D01*
X194731407Y-64261898D01*
X194776212Y-64315511D01*
X194784919Y-64384836D01*
X194754764Y-64447863D01*
X194731407Y-64468102D01*
X194705447Y-64485447D01*
X194661132Y-64551769D01*
X194661131Y-64551770D01*
X194649500Y-64610247D01*
X194649500Y-65389752D01*
X194661131Y-65448229D01*
X194661132Y-65448230D01*
X194705447Y-65514552D01*
X194731407Y-65531898D01*
X194776212Y-65585511D01*
X194784919Y-65654836D01*
X194754764Y-65717863D01*
X194731407Y-65738102D01*
X194705446Y-65755448D01*
X194696812Y-65764083D01*
X194694558Y-65761829D01*
X194655933Y-65794099D01*
X194586607Y-65802795D01*
X194572304Y-65799549D01*
X194571961Y-65799500D01*
X194428039Y-65799500D01*
X194428036Y-65799500D01*
X194289949Y-65840045D01*
X194168873Y-65917856D01*
X194074623Y-66026626D01*
X194074622Y-66026628D01*
X194014834Y-66157543D01*
X193994353Y-66300000D01*
X194014834Y-66442456D01*
X194055184Y-66530808D01*
X194074623Y-66573373D01*
X194168872Y-66682143D01*
X194289947Y-66759953D01*
X194289950Y-66759954D01*
X194289949Y-66759954D01*
X194397107Y-66791417D01*
X194416156Y-66797011D01*
X194428036Y-66800499D01*
X194428038Y-66800500D01*
X194428039Y-66800500D01*
X194571960Y-66800500D01*
X194571961Y-66800500D01*
X194625655Y-66784733D01*
X194695521Y-66784733D01*
X194729468Y-66800602D01*
X194731398Y-66801892D01*
X194776207Y-66855499D01*
X194784921Y-66924823D01*
X194754772Y-66987853D01*
X194731409Y-67008099D01*
X194705450Y-67025445D01*
X194705449Y-67025447D01*
X194705448Y-67025448D01*
X194694084Y-67042456D01*
X194692790Y-67044392D01*
X194639177Y-67089196D01*
X194589688Y-67099500D01*
X194528036Y-67099500D01*
X194389949Y-67140045D01*
X194268873Y-67217856D01*
X194268872Y-67217856D01*
X194268872Y-67217857D01*
X194262251Y-67225498D01*
X194174623Y-67326626D01*
X194174622Y-67326628D01*
X194114834Y-67457543D01*
X194094353Y-67600000D01*
X194114834Y-67742456D01*
X194174622Y-67873371D01*
X194174623Y-67873373D01*
X194268872Y-67982143D01*
X194389947Y-68059953D01*
X194389950Y-68059954D01*
X194389949Y-68059954D01*
X194457002Y-68079642D01*
X194526336Y-68100000D01*
X194528036Y-68100499D01*
X194528038Y-68100500D01*
X194603720Y-68100500D01*
X194670759Y-68120185D01*
X194716514Y-68172989D01*
X194726458Y-68242147D01*
X194706822Y-68293391D01*
X194661132Y-68361769D01*
X194661131Y-68361770D01*
X194649500Y-68420247D01*
X194649500Y-69199752D01*
X194661131Y-69258229D01*
X194661132Y-69258230D01*
X194705447Y-69324552D01*
X194771769Y-69368867D01*
X194771770Y-69368868D01*
X194830247Y-69380499D01*
X194830250Y-69380500D01*
X194830252Y-69380500D01*
X197269750Y-69380500D01*
X197269751Y-69380499D01*
X197284568Y-69377552D01*
X197328229Y-69368868D01*
X197328229Y-69368867D01*
X197328231Y-69368867D01*
X197394552Y-69324552D01*
X197438867Y-69258231D01*
X197438867Y-69258229D01*
X197438868Y-69258229D01*
X197450499Y-69199752D01*
X197450500Y-69199750D01*
X197450500Y-68420249D01*
X197450499Y-68420247D01*
X197438868Y-68361770D01*
X197438867Y-68361769D01*
X197394552Y-68295448D01*
X197394551Y-68295447D01*
X197368591Y-68278101D01*
X197323787Y-68224491D01*
X197315080Y-68155166D01*
X197345234Y-68092138D01*
X197368592Y-68071898D01*
X197394552Y-68054552D01*
X197438867Y-67988231D01*
X197438867Y-67988229D01*
X197438868Y-67988229D01*
X197450499Y-67929752D01*
X197450500Y-67929750D01*
X197450500Y-67500000D01*
X197994353Y-67500000D01*
X198014834Y-67642456D01*
X198060504Y-67742457D01*
X198074623Y-67773373D01*
X198168872Y-67882143D01*
X198289947Y-67959953D01*
X198289950Y-67959954D01*
X198289949Y-67959954D01*
X198359938Y-67980504D01*
X198424844Y-67999562D01*
X198428036Y-68000499D01*
X198428038Y-68000500D01*
X198428039Y-68000500D01*
X198503052Y-68000500D01*
X198570091Y-68020185D01*
X198596551Y-68046177D01*
X198596812Y-68045917D01*
X198605446Y-68054551D01*
X198631407Y-68071898D01*
X198676212Y-68125511D01*
X198684919Y-68194836D01*
X198654764Y-68257863D01*
X198631407Y-68278102D01*
X198605447Y-68295447D01*
X198561132Y-68361769D01*
X198561131Y-68361770D01*
X198549500Y-68420247D01*
X198549500Y-69199752D01*
X198561131Y-69258229D01*
X198561132Y-69258230D01*
X198605447Y-69324552D01*
X198671769Y-69368867D01*
X198671770Y-69368868D01*
X198730247Y-69380499D01*
X198730250Y-69380500D01*
X198730252Y-69380500D01*
X201169750Y-69380500D01*
X201169751Y-69380499D01*
X201184568Y-69377552D01*
X201228229Y-69368868D01*
X201228229Y-69368867D01*
X201228231Y-69368867D01*
X201294552Y-69324552D01*
X201338867Y-69258231D01*
X201338867Y-69258229D01*
X201338868Y-69258229D01*
X201350499Y-69199752D01*
X201350500Y-69199750D01*
X201350500Y-68420249D01*
X201350499Y-68420247D01*
X201338868Y-68361770D01*
X201338867Y-68361769D01*
X201294552Y-68295448D01*
X201294551Y-68295447D01*
X201268591Y-68278101D01*
X201223787Y-68224491D01*
X201215080Y-68155166D01*
X201245234Y-68092138D01*
X201268592Y-68071898D01*
X201294552Y-68054552D01*
X201338867Y-67988231D01*
X201338867Y-67988229D01*
X201338868Y-67988229D01*
X201350499Y-67929752D01*
X201350500Y-67929750D01*
X201350500Y-67150249D01*
X201350499Y-67150247D01*
X201338868Y-67091770D01*
X201338867Y-67091769D01*
X201294552Y-67025447D01*
X201228230Y-66981132D01*
X201228229Y-66981131D01*
X201169752Y-66969500D01*
X201169748Y-66969500D01*
X198730252Y-66969500D01*
X198730247Y-66969500D01*
X198671773Y-66981131D01*
X198671765Y-66981134D01*
X198670400Y-66982047D01*
X198666973Y-66983119D01*
X198660489Y-66985806D01*
X198660248Y-66985225D01*
X198603722Y-67002922D01*
X198580872Y-66999846D01*
X198580741Y-67000762D01*
X198571963Y-66999500D01*
X198571961Y-66999500D01*
X198428039Y-66999500D01*
X198428036Y-66999500D01*
X198289949Y-67040045D01*
X198168873Y-67117856D01*
X198074623Y-67226626D01*
X198074622Y-67226628D01*
X198014834Y-67357543D01*
X197994353Y-67500000D01*
X197450500Y-67500000D01*
X197450500Y-67150249D01*
X197450499Y-67150247D01*
X197438868Y-67091770D01*
X197438867Y-67091769D01*
X197394552Y-67025448D01*
X197394548Y-67025445D01*
X197368591Y-67008101D01*
X197323787Y-66954491D01*
X197315080Y-66885166D01*
X197345234Y-66822138D01*
X197368590Y-66801899D01*
X197394552Y-66784552D01*
X197438867Y-66718231D01*
X197438867Y-66718229D01*
X197438868Y-66718229D01*
X197450120Y-66661657D01*
X197450500Y-66659748D01*
X197450500Y-65880252D01*
X197450500Y-65880249D01*
X197450499Y-65880247D01*
X197438868Y-65821770D01*
X197438867Y-65821769D01*
X197394552Y-65755448D01*
X197385218Y-65749211D01*
X197368591Y-65738101D01*
X197323787Y-65684491D01*
X197315080Y-65615166D01*
X197345234Y-65552138D01*
X197368592Y-65531898D01*
X197394552Y-65514552D01*
X197438867Y-65448231D01*
X197438867Y-65448229D01*
X197438868Y-65448229D01*
X197450499Y-65389752D01*
X197450500Y-65389750D01*
X197450500Y-64610249D01*
X197450499Y-64610247D01*
X197438868Y-64551770D01*
X197438867Y-64551769D01*
X197394552Y-64485448D01*
X197394551Y-64485447D01*
X197368591Y-64468101D01*
X197323787Y-64414491D01*
X197315080Y-64345166D01*
X197345234Y-64282138D01*
X197368592Y-64261898D01*
X197394552Y-64244552D01*
X197438867Y-64178231D01*
X197438867Y-64178229D01*
X197438868Y-64178229D01*
X197450499Y-64119752D01*
X198549500Y-64119752D01*
X198561131Y-64178229D01*
X198561132Y-64178230D01*
X198605447Y-64244552D01*
X198671769Y-64288867D01*
X198671770Y-64288868D01*
X198730247Y-64300499D01*
X198730250Y-64300500D01*
X198730252Y-64300500D01*
X201169750Y-64300500D01*
X201169751Y-64300499D01*
X201184568Y-64297552D01*
X201228229Y-64288868D01*
X201228229Y-64288867D01*
X201228231Y-64288867D01*
X201294552Y-64244552D01*
X201338867Y-64178231D01*
X201338867Y-64178229D01*
X201338868Y-64178229D01*
X201350499Y-64119752D01*
X201350500Y-64119750D01*
X201350500Y-63340249D01*
X201350499Y-63340247D01*
X201338868Y-63281770D01*
X201338867Y-63281769D01*
X201294552Y-63215447D01*
X201228230Y-63171132D01*
X201228229Y-63171131D01*
X201169752Y-63159500D01*
X201169748Y-63159500D01*
X198730252Y-63159500D01*
X198730247Y-63159500D01*
X198671770Y-63171131D01*
X198671769Y-63171132D01*
X198605447Y-63215447D01*
X198561132Y-63281769D01*
X198561131Y-63281770D01*
X198549500Y-63340247D01*
X198549500Y-64119752D01*
X197450499Y-64119752D01*
X197450500Y-64119750D01*
X197450500Y-63340249D01*
X197450499Y-63340247D01*
X197438868Y-63281770D01*
X197438867Y-63281769D01*
X197394552Y-63215448D01*
X197387117Y-63210480D01*
X197368591Y-63198101D01*
X197323787Y-63144491D01*
X197315080Y-63075166D01*
X197345234Y-63012138D01*
X197368592Y-62991898D01*
X197394552Y-62974552D01*
X197438867Y-62908231D01*
X197438867Y-62908229D01*
X197438868Y-62908229D01*
X197450499Y-62849752D01*
X197450500Y-62849750D01*
X197450500Y-62070249D01*
X197450499Y-62070247D01*
X197438868Y-62011770D01*
X197438867Y-62011769D01*
X197394552Y-61945448D01*
X197368591Y-61928101D01*
X197323787Y-61874491D01*
X197315080Y-61805166D01*
X197345234Y-61742138D01*
X197368590Y-61721899D01*
X197394552Y-61704552D01*
X197438867Y-61638231D01*
X197438867Y-61638229D01*
X197438868Y-61638229D01*
X197448399Y-61590309D01*
X197450500Y-61579748D01*
X197450500Y-61174833D01*
X197470185Y-61107794D01*
X197522989Y-61062039D01*
X197592147Y-61052095D01*
X197655703Y-61081120D01*
X197662181Y-61087152D01*
X197949540Y-61374511D01*
X198005489Y-61430460D01*
X198005491Y-61430461D01*
X198005495Y-61430464D01*
X198074004Y-61470017D01*
X198074011Y-61470021D01*
X198150438Y-61490500D01*
X198429983Y-61490500D01*
X198497022Y-61510185D01*
X198542777Y-61562989D01*
X198551600Y-61590309D01*
X198561131Y-61638229D01*
X198561132Y-61638230D01*
X198605447Y-61704552D01*
X198671769Y-61748867D01*
X198671770Y-61748868D01*
X198730247Y-61760499D01*
X198730250Y-61760500D01*
X198730252Y-61760500D01*
X201169750Y-61760500D01*
X201169751Y-61760499D01*
X201184568Y-61757552D01*
X201228229Y-61748868D01*
X201228229Y-61748867D01*
X201228231Y-61748867D01*
X201294552Y-61704552D01*
X201338867Y-61638231D01*
X201338867Y-61638229D01*
X201338868Y-61638229D01*
X201348399Y-61590309D01*
X201350500Y-61579748D01*
X201350500Y-60903469D01*
X206024500Y-60903469D01*
X206064868Y-61106412D01*
X206064870Y-61106420D01*
X206144058Y-61297596D01*
X206259024Y-61469657D01*
X206405342Y-61615975D01*
X206405345Y-61615977D01*
X206577402Y-61730941D01*
X206768580Y-61810130D01*
X206971530Y-61850499D01*
X206971534Y-61850500D01*
X206971535Y-61850500D01*
X207428466Y-61850500D01*
X207428467Y-61850499D01*
X207631420Y-61810130D01*
X207822598Y-61730941D01*
X207994655Y-61615977D01*
X208140977Y-61469655D01*
X208255941Y-61297598D01*
X208335130Y-61106420D01*
X208375500Y-60903465D01*
X208375500Y-60696535D01*
X208335130Y-60493580D01*
X208255941Y-60302402D01*
X208140977Y-60130345D01*
X208140975Y-60130342D01*
X207994657Y-59984024D01*
X207868905Y-59900000D01*
X207822598Y-59869059D01*
X207768802Y-59846776D01*
X207631420Y-59789870D01*
X207631412Y-59789868D01*
X207428469Y-59749500D01*
X207428465Y-59749500D01*
X206971535Y-59749500D01*
X206971530Y-59749500D01*
X206768587Y-59789868D01*
X206768579Y-59789870D01*
X206577403Y-59869058D01*
X206405342Y-59984024D01*
X206259024Y-60130342D01*
X206144058Y-60302403D01*
X206064870Y-60493579D01*
X206064868Y-60493587D01*
X206024500Y-60696530D01*
X206024500Y-60903469D01*
X201350500Y-60903469D01*
X201350500Y-60800252D01*
X201350500Y-60800249D01*
X201350499Y-60800247D01*
X201338868Y-60741770D01*
X201338867Y-60741769D01*
X201294552Y-60675447D01*
X201228230Y-60631132D01*
X201228229Y-60631131D01*
X201169752Y-60619500D01*
X201169748Y-60619500D01*
X198730252Y-60619500D01*
X198730247Y-60619500D01*
X198671770Y-60631131D01*
X198671769Y-60631132D01*
X198605447Y-60675447D01*
X198561132Y-60741769D01*
X198561131Y-60741770D01*
X198551600Y-60789691D01*
X198519215Y-60851602D01*
X198458500Y-60886176D01*
X198429983Y-60889500D01*
X198365833Y-60889500D01*
X198298794Y-60869815D01*
X198278152Y-60853181D01*
X197704512Y-60279541D01*
X197704511Y-60279540D01*
X197671425Y-60260438D01*
X197671423Y-60260437D01*
X197671422Y-60260435D01*
X197635994Y-60239981D01*
X197635991Y-60239979D01*
X197597775Y-60229739D01*
X197559562Y-60219500D01*
X197559560Y-60219500D01*
X193350231Y-60219500D01*
X193283192Y-60199815D01*
X193237437Y-60147011D01*
X193227493Y-60077853D01*
X193237435Y-60043991D01*
X193238136Y-60042457D01*
X193258618Y-59900000D01*
X193257310Y-59890905D01*
X193267250Y-59821749D01*
X193292363Y-59785577D01*
X193637820Y-59440121D01*
X193699142Y-59406637D01*
X193768834Y-59411621D01*
X193824767Y-59453493D01*
X193849184Y-59518957D01*
X193849500Y-59527803D01*
X193849500Y-59619752D01*
X193861131Y-59678229D01*
X193861132Y-59678230D01*
X193905447Y-59744552D01*
X193971769Y-59788867D01*
X193971770Y-59788868D01*
X194030247Y-59800499D01*
X194030250Y-59800500D01*
X194030252Y-59800500D01*
X195619750Y-59800500D01*
X195619751Y-59800499D01*
X195634568Y-59797552D01*
X195678229Y-59788868D01*
X195678229Y-59788867D01*
X195678231Y-59788867D01*
X195744552Y-59744552D01*
X195788867Y-59678231D01*
X195788867Y-59678229D01*
X195788868Y-59678229D01*
X195800499Y-59619752D01*
X195800500Y-59619750D01*
X195800500Y-59374500D01*
X195820185Y-59307461D01*
X195872989Y-59261706D01*
X195924500Y-59250500D01*
X199060438Y-59250500D01*
X200410438Y-59250500D01*
X201675500Y-59250500D01*
X201742539Y-59270185D01*
X201788294Y-59322989D01*
X201799500Y-59374500D01*
X201799500Y-59619752D01*
X201811131Y-59678229D01*
X201811132Y-59678230D01*
X201855447Y-59744552D01*
X201921769Y-59788867D01*
X201921770Y-59788868D01*
X201980247Y-59800499D01*
X201980250Y-59800500D01*
X201980252Y-59800500D01*
X203569750Y-59800500D01*
X203569751Y-59800499D01*
X203584568Y-59797552D01*
X203628229Y-59788868D01*
X203628229Y-59788867D01*
X203628231Y-59788867D01*
X203694552Y-59744552D01*
X203738867Y-59678231D01*
X203738867Y-59678229D01*
X203738868Y-59678229D01*
X203750499Y-59619752D01*
X203750500Y-59619750D01*
X203750500Y-58403469D01*
X206024500Y-58403469D01*
X206064282Y-58603465D01*
X206064870Y-58606420D01*
X206144059Y-58797598D01*
X206190740Y-58867461D01*
X206259024Y-58969657D01*
X206405342Y-59115975D01*
X206405345Y-59115977D01*
X206577402Y-59230941D01*
X206768580Y-59310130D01*
X206902957Y-59336859D01*
X206971530Y-59350499D01*
X206971534Y-59350500D01*
X206971535Y-59350500D01*
X207428466Y-59350500D01*
X207428467Y-59350499D01*
X207631420Y-59310130D01*
X207822598Y-59230941D01*
X207994655Y-59115977D01*
X208140977Y-58969655D01*
X208255941Y-58797598D01*
X208335130Y-58606420D01*
X208375500Y-58403465D01*
X208375500Y-58196535D01*
X208335130Y-57993580D01*
X208255941Y-57802402D01*
X208140977Y-57630345D01*
X208140975Y-57630342D01*
X207994657Y-57484024D01*
X207890724Y-57414579D01*
X207822598Y-57369059D01*
X207631420Y-57289870D01*
X207631412Y-57289868D01*
X207428469Y-57249500D01*
X207428465Y-57249500D01*
X206971535Y-57249500D01*
X206971530Y-57249500D01*
X206768587Y-57289868D01*
X206768579Y-57289870D01*
X206577403Y-57369058D01*
X206405342Y-57484024D01*
X206259024Y-57630342D01*
X206144058Y-57802403D01*
X206064870Y-57993579D01*
X206064868Y-57993587D01*
X206024500Y-58196530D01*
X206024500Y-58403469D01*
X203750500Y-58403469D01*
X203750500Y-58280249D01*
X203750499Y-58280247D01*
X203738868Y-58221770D01*
X203738867Y-58221769D01*
X203694552Y-58155447D01*
X203628230Y-58111132D01*
X203628229Y-58111131D01*
X203569752Y-58099500D01*
X203569748Y-58099500D01*
X201980252Y-58099500D01*
X201980247Y-58099500D01*
X201921770Y-58111131D01*
X201921769Y-58111132D01*
X201855447Y-58155447D01*
X201811132Y-58221769D01*
X201811131Y-58221770D01*
X201799500Y-58280247D01*
X201799500Y-58525500D01*
X201779815Y-58592539D01*
X201727011Y-58638294D01*
X201675500Y-58649500D01*
X195924500Y-58649500D01*
X195857461Y-58629815D01*
X195811706Y-58577011D01*
X195800500Y-58525500D01*
X195800500Y-58280249D01*
X195800499Y-58280247D01*
X195788868Y-58221770D01*
X195788867Y-58221769D01*
X195744552Y-58155447D01*
X195678230Y-58111132D01*
X195678229Y-58111131D01*
X195619752Y-58099500D01*
X195619748Y-58099500D01*
X194273361Y-58099500D01*
X194206322Y-58079815D01*
X194160567Y-58027011D01*
X194150623Y-57957853D01*
X194179648Y-57894297D01*
X194185680Y-57887819D01*
X195390904Y-56682595D01*
X196840460Y-55233040D01*
X196880022Y-55164517D01*
X196900500Y-55088091D01*
X196900500Y-55008967D01*
X196900500Y-51620435D01*
X196920185Y-51553396D01*
X196972989Y-51507641D01*
X196977012Y-51505889D01*
X197097598Y-51455941D01*
X197269655Y-51340977D01*
X197415977Y-51194655D01*
X197530941Y-51022598D01*
X197610130Y-50831420D01*
X197650499Y-50628469D01*
X198049500Y-50628469D01*
X198089868Y-50831412D01*
X198089870Y-50831420D01*
X198169059Y-51022598D01*
X198226541Y-51108626D01*
X198284024Y-51194657D01*
X198430342Y-51340975D01*
X198430345Y-51340977D01*
X198602402Y-51455941D01*
X198793580Y-51535130D01*
X198996530Y-51575499D01*
X198996534Y-51575500D01*
X198996535Y-51575500D01*
X199203466Y-51575500D01*
X199203467Y-51575499D01*
X199406420Y-51535130D01*
X199597598Y-51455941D01*
X199769655Y-51340977D01*
X199915977Y-51194655D01*
X200030941Y-51022598D01*
X200110130Y-50831420D01*
X200150500Y-50628465D01*
X200150500Y-50171535D01*
X200110130Y-49968580D01*
X200030941Y-49777402D01*
X199915977Y-49605345D01*
X199915975Y-49605342D01*
X199769657Y-49459024D01*
X199655569Y-49382794D01*
X199597598Y-49344059D01*
X199581570Y-49337420D01*
X199406420Y-49264870D01*
X199406412Y-49264868D01*
X199203469Y-49224500D01*
X199203465Y-49224500D01*
X198996535Y-49224500D01*
X198996530Y-49224500D01*
X198793587Y-49264868D01*
X198793579Y-49264870D01*
X198602403Y-49344058D01*
X198430342Y-49459024D01*
X198284024Y-49605342D01*
X198169058Y-49777403D01*
X198089870Y-49968579D01*
X198089868Y-49968587D01*
X198049500Y-50171530D01*
X198049500Y-50628469D01*
X197650499Y-50628469D01*
X197650500Y-50628465D01*
X197650500Y-50171535D01*
X197610130Y-49968580D01*
X197530941Y-49777402D01*
X197415977Y-49605345D01*
X197415975Y-49605342D01*
X197269657Y-49459024D01*
X197155569Y-49382794D01*
X197097598Y-49344059D01*
X197081570Y-49337420D01*
X196906420Y-49264870D01*
X196906412Y-49264868D01*
X196703469Y-49224500D01*
X196703465Y-49224500D01*
X196496535Y-49224500D01*
X196496530Y-49224500D01*
X196293587Y-49264868D01*
X196293579Y-49264870D01*
X196102403Y-49344058D01*
X195930342Y-49459024D01*
X195784024Y-49605342D01*
X195669058Y-49777403D01*
X195589870Y-49968579D01*
X195589868Y-49968587D01*
X195549500Y-50171530D01*
X195549500Y-50628469D01*
X195589868Y-50831412D01*
X195589870Y-50831420D01*
X195669059Y-51022598D01*
X195726541Y-51108626D01*
X195784024Y-51194657D01*
X195930342Y-51340975D01*
X195930345Y-51340977D01*
X196102402Y-51455941D01*
X196222953Y-51505875D01*
X196277356Y-51549714D01*
X196299421Y-51616008D01*
X196299500Y-51620435D01*
X196299500Y-54872695D01*
X196279815Y-54939734D01*
X196263181Y-54960376D01*
X193098910Y-58124646D01*
X193037587Y-58158131D01*
X192967895Y-58153147D01*
X192911962Y-58111275D01*
X192887545Y-58045811D01*
X192888490Y-58019326D01*
X192905647Y-57900000D01*
X192885165Y-57757543D01*
X192825377Y-57626627D01*
X192825375Y-57626625D01*
X192825374Y-57626622D01*
X192786017Y-57581203D01*
X192756991Y-57517648D01*
X192766934Y-57448489D01*
X192786017Y-57418797D01*
X192825374Y-57373377D01*
X192825374Y-57373375D01*
X192825377Y-57373373D01*
X192885165Y-57242457D01*
X192905647Y-57100000D01*
X192885165Y-56957543D01*
X192825377Y-56826627D01*
X192731128Y-56717857D01*
X192610053Y-56640047D01*
X192610051Y-56640046D01*
X192610049Y-56640045D01*
X192610050Y-56640045D01*
X192471963Y-56599500D01*
X192471961Y-56599500D01*
X192328039Y-56599500D01*
X192328036Y-56599500D01*
X192189951Y-56640044D01*
X192189943Y-56640048D01*
X192188077Y-56641248D01*
X192185949Y-56641872D01*
X192181880Y-56643731D01*
X192181612Y-56643145D01*
X192121036Y-56660928D01*
X192086344Y-56655974D01*
X192085542Y-56655740D01*
X192038139Y-56649500D01*
X190711867Y-56649500D01*
X190696839Y-56651478D01*
X190664455Y-56655741D01*
X190664453Y-56655742D01*
X190664448Y-56655743D01*
X190560631Y-56704154D01*
X190491554Y-56714646D01*
X190485584Y-56711976D01*
X190486023Y-56767216D01*
X190479154Y-56785631D01*
X190430741Y-56889454D01*
X190430740Y-56889455D01*
X190424500Y-56936859D01*
X190424500Y-57263132D01*
X190424987Y-57266828D01*
X190430741Y-57310545D01*
X190430742Y-57310547D01*
X190430742Y-57310548D01*
X190479253Y-57414580D01*
X190485475Y-57423465D01*
X190483742Y-57424677D01*
X190510480Y-57473653D01*
X190505489Y-57543344D01*
X190484566Y-57575899D01*
X190485475Y-57576535D01*
X190479254Y-57585419D01*
X190430740Y-57689456D01*
X190424500Y-57736859D01*
X190424500Y-58063132D01*
X190424501Y-58063138D01*
X190430741Y-58110545D01*
X190430742Y-58110547D01*
X190430742Y-58110548D01*
X190479253Y-58214580D01*
X190485475Y-58223465D01*
X190483742Y-58224677D01*
X190510480Y-58273653D01*
X190505489Y-58343344D01*
X190484566Y-58375899D01*
X190485475Y-58376535D01*
X190479254Y-58385419D01*
X190430740Y-58489456D01*
X190424500Y-58536859D01*
X190424500Y-58863132D01*
X190424501Y-58863138D01*
X190430741Y-58910545D01*
X190430742Y-58910547D01*
X190430742Y-58910548D01*
X190479253Y-59014580D01*
X190485475Y-59023465D01*
X190483742Y-59024677D01*
X190510480Y-59073653D01*
X190505489Y-59143344D01*
X190484566Y-59175899D01*
X190485475Y-59176535D01*
X190479254Y-59185419D01*
X190430740Y-59289456D01*
X190424500Y-59336859D01*
X190424500Y-59663132D01*
X190425716Y-59672373D01*
X190430741Y-59710545D01*
X190430742Y-59710547D01*
X190430742Y-59710548D01*
X190479253Y-59814580D01*
X190485475Y-59823465D01*
X190483742Y-59824677D01*
X190510480Y-59873653D01*
X190505489Y-59943344D01*
X190484566Y-59975899D01*
X190485475Y-59976535D01*
X190479254Y-59985419D01*
X190430740Y-60089456D01*
X190424500Y-60136859D01*
X190424500Y-60463132D01*
X190424501Y-60463138D01*
X190430741Y-60510545D01*
X190430742Y-60510547D01*
X190430742Y-60510548D01*
X190479253Y-60614580D01*
X190485475Y-60623465D01*
X190483742Y-60624677D01*
X190510480Y-60673653D01*
X190505489Y-60743344D01*
X190484566Y-60775899D01*
X190485475Y-60776535D01*
X190479254Y-60785419D01*
X190430740Y-60889456D01*
X190424500Y-60936859D01*
X190424500Y-61263132D01*
X190424501Y-61263138D01*
X190430741Y-61310545D01*
X190430742Y-61310547D01*
X190430742Y-61310548D01*
X190479253Y-61414580D01*
X190485475Y-61423465D01*
X190483742Y-61424677D01*
X190510480Y-61473653D01*
X190505489Y-61543344D01*
X190484566Y-61575899D01*
X190485475Y-61576535D01*
X190479254Y-61585419D01*
X190430740Y-61689456D01*
X190424500Y-61736859D01*
X190424500Y-62063132D01*
X190425437Y-62070247D01*
X190430741Y-62110545D01*
X190430742Y-62110547D01*
X190430742Y-62110548D01*
X190479253Y-62214580D01*
X190485475Y-62223465D01*
X190483742Y-62224677D01*
X190510480Y-62273653D01*
X190505489Y-62343344D01*
X190484566Y-62375899D01*
X190485475Y-62376535D01*
X190479254Y-62385419D01*
X190430740Y-62489456D01*
X190424500Y-62536859D01*
X190424500Y-62863132D01*
X183975500Y-62863132D01*
X183975499Y-62536862D01*
X183969259Y-62489455D01*
X183920747Y-62385421D01*
X183920746Y-62385420D01*
X183920746Y-62385419D01*
X183914525Y-62376535D01*
X183916258Y-62375321D01*
X183889522Y-62326358D01*
X183894506Y-62256666D01*
X183915434Y-62224101D01*
X183914525Y-62223465D01*
X183920742Y-62214583D01*
X183920747Y-62214579D01*
X183969259Y-62110545D01*
X183975500Y-62063139D01*
X183975499Y-61736862D01*
X183969259Y-61689455D01*
X183920747Y-61585421D01*
X183920746Y-61585420D01*
X183920746Y-61585419D01*
X183914525Y-61576535D01*
X183916258Y-61575321D01*
X183889522Y-61526358D01*
X183894506Y-61456666D01*
X183915434Y-61424101D01*
X183914525Y-61423465D01*
X183920742Y-61414583D01*
X183920747Y-61414579D01*
X183969259Y-61310545D01*
X183975500Y-61263139D01*
X183975499Y-60936862D01*
X183975499Y-60936859D01*
X183975499Y-60936858D01*
X183975234Y-60932816D01*
X183977268Y-60932682D01*
X183986731Y-60871727D01*
X184033075Y-60819440D01*
X184098941Y-60800500D01*
X184171962Y-60800500D01*
X184171962Y-60800499D01*
X184279121Y-60769035D01*
X184310050Y-60759954D01*
X184310050Y-60759953D01*
X184310053Y-60759953D01*
X184431128Y-60682143D01*
X184525377Y-60573373D01*
X184585165Y-60442457D01*
X184605647Y-60300000D01*
X184585165Y-60157543D01*
X184585164Y-60157541D01*
X184585085Y-60157271D01*
X184585084Y-60156985D01*
X184583903Y-60148765D01*
X184585084Y-60148595D01*
X184585079Y-60087401D01*
X184622849Y-60028620D01*
X184686403Y-59999590D01*
X184721709Y-59999590D01*
X184728037Y-60000500D01*
X184728039Y-60000500D01*
X184871962Y-60000500D01*
X184871962Y-60000499D01*
X185010053Y-59959953D01*
X185131128Y-59882143D01*
X185225377Y-59773373D01*
X185285165Y-59642457D01*
X185305647Y-59500000D01*
X185285165Y-59357543D01*
X185225377Y-59226627D01*
X185131128Y-59117857D01*
X185010053Y-59040047D01*
X185010051Y-59040046D01*
X185010049Y-59040045D01*
X185010050Y-59040045D01*
X184871963Y-58999500D01*
X184871961Y-58999500D01*
X184728039Y-58999500D01*
X184728036Y-58999500D01*
X184589949Y-59040045D01*
X184468873Y-59117856D01*
X184468872Y-59117856D01*
X184468872Y-59117857D01*
X184446788Y-59143344D01*
X184435212Y-59156703D01*
X184376433Y-59194477D01*
X184341499Y-59199500D01*
X184029158Y-59199500D01*
X183962119Y-59179815D01*
X183916364Y-59127011D01*
X183906420Y-59057853D01*
X183916776Y-59023096D01*
X183969259Y-58910545D01*
X183969259Y-58910544D01*
X183972821Y-58883488D01*
X183975500Y-58863139D01*
X183975499Y-58536862D01*
X183969259Y-58489455D01*
X183920747Y-58385421D01*
X183920746Y-58385420D01*
X183920746Y-58385419D01*
X183914525Y-58376535D01*
X183916258Y-58375321D01*
X183889522Y-58326358D01*
X183894506Y-58256666D01*
X183915434Y-58224101D01*
X183914525Y-58223465D01*
X183920742Y-58214583D01*
X183920747Y-58214579D01*
X183969259Y-58110545D01*
X183975500Y-58063139D01*
X183975499Y-57736862D01*
X183969259Y-57689455D01*
X183920747Y-57585421D01*
X183920746Y-57585420D01*
X183920746Y-57585419D01*
X183914525Y-57576535D01*
X183916258Y-57575321D01*
X183889522Y-57526358D01*
X183894506Y-57456666D01*
X183915434Y-57424101D01*
X183914525Y-57423465D01*
X183920742Y-57414583D01*
X183920747Y-57414579D01*
X183969259Y-57310545D01*
X183975500Y-57263139D01*
X183975500Y-57224500D01*
X183995185Y-57157461D01*
X184047989Y-57111706D01*
X184099500Y-57100500D01*
X184839560Y-57100500D01*
X184839562Y-57100500D01*
X184915989Y-57080021D01*
X184984511Y-57040460D01*
X185040460Y-56984511D01*
X185317637Y-56707332D01*
X185378956Y-56673850D01*
X185389091Y-56672082D01*
X185390998Y-56671831D01*
X185460029Y-56682595D01*
X185512286Y-56728973D01*
X185531174Y-56796241D01*
X185519979Y-56846278D01*
X185514834Y-56857542D01*
X185494353Y-57000000D01*
X185514834Y-57142456D01*
X185571634Y-57266828D01*
X185574623Y-57273373D01*
X185668872Y-57382143D01*
X185789947Y-57459953D01*
X185789950Y-57459954D01*
X185789949Y-57459954D01*
X185836605Y-57473653D01*
X185926336Y-57500000D01*
X185928036Y-57500499D01*
X185928038Y-57500500D01*
X185928039Y-57500500D01*
X186071962Y-57500500D01*
X186071962Y-57500499D01*
X186210050Y-57459954D01*
X186210051Y-57459954D01*
X186210053Y-57459953D01*
X186331128Y-57382143D01*
X186331129Y-57382141D01*
X186332960Y-57380965D01*
X186400000Y-57361280D01*
X186467039Y-57380964D01*
X186467040Y-57380965D01*
X186468870Y-57382141D01*
X186468872Y-57382143D01*
X186534160Y-57424101D01*
X186589948Y-57459954D01*
X186671926Y-57484024D01*
X186726336Y-57500000D01*
X186728036Y-57500499D01*
X186728038Y-57500500D01*
X186728039Y-57500500D01*
X186871962Y-57500500D01*
X186871962Y-57500499D01*
X187010053Y-57459953D01*
X187131128Y-57382143D01*
X187225377Y-57273373D01*
X187285165Y-57142457D01*
X187305647Y-57000000D01*
X187285165Y-56857543D01*
X187280022Y-56846282D01*
X187270078Y-56777127D01*
X187299101Y-56713571D01*
X187357878Y-56675795D01*
X187409000Y-56671832D01*
X187436861Y-56675500D01*
X187763138Y-56675499D01*
X187810545Y-56669259D01*
X187914579Y-56620747D01*
X187914581Y-56620745D01*
X187923465Y-56614525D01*
X187924678Y-56616258D01*
X187973642Y-56589522D01*
X188043334Y-56594506D01*
X188075898Y-56615434D01*
X188076535Y-56614525D01*
X188085419Y-56620745D01*
X188085421Y-56620747D01*
X188189455Y-56669259D01*
X188236861Y-56675500D01*
X188563138Y-56675499D01*
X188610545Y-56669259D01*
X188714579Y-56620747D01*
X188714581Y-56620745D01*
X188723465Y-56614525D01*
X188724678Y-56616258D01*
X188773642Y-56589522D01*
X188843334Y-56594506D01*
X188875898Y-56615434D01*
X188876535Y-56614525D01*
X188885419Y-56620745D01*
X188885421Y-56620747D01*
X188989455Y-56669259D01*
X189036861Y-56675500D01*
X189363138Y-56675499D01*
X189410545Y-56669259D01*
X189514579Y-56620747D01*
X189514581Y-56620745D01*
X189523465Y-56614525D01*
X189524678Y-56616258D01*
X189573642Y-56589522D01*
X189643334Y-56594506D01*
X189675898Y-56615434D01*
X189676535Y-56614525D01*
X189685419Y-56620745D01*
X189685421Y-56620747D01*
X189789455Y-56669259D01*
X189836861Y-56675500D01*
X190163138Y-56675499D01*
X190210545Y-56669259D01*
X190314370Y-56620844D01*
X190383444Y-56610353D01*
X190389415Y-56613022D01*
X190388977Y-56557782D01*
X190395841Y-56539376D01*
X190444259Y-56435545D01*
X190450500Y-56388139D01*
X190450499Y-55061862D01*
X190444259Y-55014455D01*
X190395747Y-54910421D01*
X190336819Y-54851493D01*
X190303334Y-54790170D01*
X190300500Y-54763812D01*
X190300500Y-54305833D01*
X190320185Y-54238794D01*
X190336819Y-54218152D01*
X192828152Y-51726819D01*
X192889475Y-51693334D01*
X192915833Y-51690500D01*
X193134317Y-51690500D01*
X193150601Y-51688356D01*
X193183173Y-51684068D01*
X193290404Y-51634065D01*
X193374065Y-51550404D01*
X193424068Y-51443173D01*
X193430500Y-51394316D01*
X193430500Y-51045684D01*
X193424068Y-50996827D01*
X193374065Y-50889596D01*
X193290404Y-50805935D01*
X193282733Y-50798264D01*
X193285561Y-50795435D01*
X193254843Y-50757023D01*
X193247635Y-50687526D01*
X193279143Y-50625165D01*
X193282903Y-50621906D01*
X193282733Y-50621736D01*
X193310404Y-50594065D01*
X193374065Y-50530404D01*
X193424068Y-50423173D01*
X193430500Y-50374316D01*
X193430500Y-50025684D01*
X193424068Y-49976827D01*
X193374065Y-49869596D01*
X193293496Y-49789027D01*
X193260011Y-49727704D01*
X193264995Y-49658012D01*
X193306867Y-49602079D01*
X193324869Y-49590869D01*
X193405751Y-49549658D01*
X193499658Y-49455751D01*
X193559951Y-49337420D01*
X193559951Y-49337418D01*
X193559952Y-49337417D01*
X193575500Y-49239251D01*
X193575500Y-48735748D01*
X193559952Y-48637582D01*
X193559951Y-48637580D01*
X193499658Y-48519249D01*
X193499654Y-48519245D01*
X193499653Y-48519243D01*
X193405756Y-48425346D01*
X193405753Y-48425344D01*
X193405751Y-48425342D01*
X193287420Y-48365049D01*
X193287419Y-48365048D01*
X193287416Y-48365047D01*
X193287417Y-48365047D01*
X193189251Y-48349500D01*
X193189246Y-48349500D01*
X192610754Y-48349500D01*
X192610749Y-48349500D01*
X192512582Y-48365047D01*
X192433692Y-48405244D01*
X192394249Y-48425342D01*
X192394248Y-48425343D01*
X192394243Y-48425346D01*
X192300346Y-48519243D01*
X192300343Y-48519248D01*
X192300342Y-48519249D01*
X192280244Y-48558692D01*
X192240047Y-48637582D01*
X192224500Y-48735748D01*
X192224500Y-49239251D01*
X192240047Y-49337417D01*
X192256699Y-49370097D01*
X192300342Y-49455751D01*
X192300344Y-49455753D01*
X192300346Y-49455756D01*
X192394243Y-49549653D01*
X192394247Y-49549656D01*
X192394249Y-49549658D01*
X192488368Y-49597614D01*
X192539162Y-49645586D01*
X192555957Y-49713407D01*
X192533420Y-49779542D01*
X192519753Y-49795778D01*
X192445934Y-49869597D01*
X192395931Y-49976828D01*
X192389500Y-50025683D01*
X192389500Y-50374316D01*
X192395931Y-50423171D01*
X192445935Y-50530404D01*
X192537267Y-50621736D01*
X192534443Y-50624559D01*
X192565183Y-50663042D01*
X192572352Y-50732542D01*
X192540808Y-50794886D01*
X192537101Y-50798098D01*
X192537267Y-50798264D01*
X192445935Y-50889595D01*
X192395931Y-50996828D01*
X192389500Y-51045683D01*
X192389500Y-51264167D01*
X192369815Y-51331206D01*
X192353181Y-51351848D01*
X189759541Y-53945487D01*
X189759537Y-53945492D01*
X189731887Y-53993385D01*
X189681320Y-54041600D01*
X189612713Y-54054824D01*
X189547848Y-54028856D01*
X189507320Y-53971942D01*
X189500500Y-53931385D01*
X189500500Y-52475833D01*
X189520185Y-52408794D01*
X189536819Y-52388152D01*
X190218152Y-51706819D01*
X190279475Y-51673334D01*
X190305833Y-51670500D01*
X190524317Y-51670500D01*
X190540601Y-51668356D01*
X190573173Y-51664068D01*
X190680404Y-51614065D01*
X190764065Y-51530404D01*
X190814068Y-51423173D01*
X190820500Y-51374316D01*
X190820500Y-51025684D01*
X190820093Y-51022596D01*
X190814068Y-50976828D01*
X190808731Y-50965382D01*
X190764065Y-50869596D01*
X190680404Y-50785935D01*
X190672733Y-50778264D01*
X190675561Y-50775435D01*
X190644843Y-50737023D01*
X190637635Y-50667526D01*
X190669143Y-50605165D01*
X190672903Y-50601906D01*
X190672733Y-50601736D01*
X190680404Y-50594065D01*
X190764065Y-50510404D01*
X190814068Y-50403173D01*
X190820500Y-50354316D01*
X190820500Y-50005684D01*
X190814068Y-49956827D01*
X190764065Y-49849596D01*
X190700121Y-49785652D01*
X190666636Y-49724329D01*
X190671620Y-49654637D01*
X190713492Y-49598704D01*
X190731499Y-49587491D01*
X190805751Y-49549658D01*
X190899658Y-49455751D01*
X190959951Y-49337420D01*
X190959951Y-49337418D01*
X190959952Y-49337417D01*
X190975500Y-49239251D01*
X190975500Y-48735748D01*
X190959952Y-48637582D01*
X190959951Y-48637580D01*
X190899658Y-48519249D01*
X190899654Y-48519245D01*
X190899653Y-48519243D01*
X190805756Y-48425346D01*
X190805753Y-48425344D01*
X190805751Y-48425342D01*
X190687420Y-48365049D01*
X190687419Y-48365048D01*
X190687416Y-48365047D01*
X190687417Y-48365047D01*
X190589251Y-48349500D01*
X190589246Y-48349500D01*
X190010754Y-48349500D01*
X190010749Y-48349500D01*
X189912582Y-48365047D01*
X189833692Y-48405244D01*
X189794249Y-48425342D01*
X189794248Y-48425343D01*
X189794243Y-48425346D01*
X189700346Y-48519243D01*
X189700343Y-48519248D01*
X189700342Y-48519249D01*
X189680244Y-48558692D01*
X189640047Y-48637582D01*
X189624500Y-48735748D01*
X189624500Y-49239251D01*
X189640047Y-49337417D01*
X189656699Y-49370097D01*
X189700342Y-49455751D01*
X189700344Y-49455753D01*
X189700346Y-49455756D01*
X189794243Y-49549653D01*
X189794247Y-49549656D01*
X189794249Y-49549658D01*
X189868494Y-49587487D01*
X189919288Y-49635461D01*
X189936083Y-49703281D01*
X189913546Y-49769416D01*
X189899879Y-49785652D01*
X189835934Y-49849597D01*
X189785931Y-49956828D01*
X189779500Y-50005683D01*
X189779500Y-50354316D01*
X189785931Y-50403171D01*
X189835935Y-50510404D01*
X189927267Y-50601736D01*
X189924443Y-50604559D01*
X189955183Y-50643042D01*
X189962352Y-50712542D01*
X189930808Y-50774886D01*
X189927101Y-50778098D01*
X189927267Y-50778264D01*
X189835935Y-50869595D01*
X189785931Y-50976828D01*
X189779500Y-51025683D01*
X189779500Y-51244167D01*
X189759815Y-51311206D01*
X189743181Y-51331848D01*
X188959541Y-52115487D01*
X188959537Y-52115492D01*
X188931887Y-52163385D01*
X188881320Y-52211600D01*
X188812713Y-52224824D01*
X188747848Y-52198856D01*
X188707320Y-52141942D01*
X188700500Y-52101385D01*
X188700500Y-51860439D01*
X188680020Y-51784009D01*
X188680017Y-51784004D01*
X188640464Y-51715495D01*
X188640458Y-51715487D01*
X188256819Y-51331848D01*
X188223334Y-51270525D01*
X188220500Y-51244167D01*
X188220500Y-51025683D01*
X188214068Y-50976828D01*
X188208731Y-50965382D01*
X188164065Y-50869596D01*
X188080404Y-50785935D01*
X188072733Y-50778264D01*
X188075561Y-50775435D01*
X188044843Y-50737023D01*
X188037635Y-50667526D01*
X188069143Y-50605165D01*
X188072903Y-50601906D01*
X188072733Y-50601736D01*
X188080404Y-50594065D01*
X188164065Y-50510404D01*
X188214068Y-50403173D01*
X188220500Y-50354316D01*
X188220500Y-50005684D01*
X188214068Y-49956827D01*
X188164065Y-49849596D01*
X188100121Y-49785652D01*
X188066636Y-49724329D01*
X188071620Y-49654637D01*
X188113492Y-49598704D01*
X188131499Y-49587491D01*
X188205751Y-49549658D01*
X188299658Y-49455751D01*
X188359951Y-49337420D01*
X188359951Y-49337418D01*
X188359952Y-49337417D01*
X188375500Y-49239251D01*
X188375500Y-48735748D01*
X188359952Y-48637582D01*
X188359951Y-48637580D01*
X188299658Y-48519249D01*
X188299654Y-48519245D01*
X188299653Y-48519243D01*
X188205756Y-48425346D01*
X188205753Y-48425344D01*
X188205751Y-48425342D01*
X188087420Y-48365049D01*
X188087419Y-48365048D01*
X188087416Y-48365047D01*
X188087417Y-48365047D01*
X187989251Y-48349500D01*
X187989246Y-48349500D01*
X187410754Y-48349500D01*
X187410749Y-48349500D01*
X187312582Y-48365047D01*
X187233692Y-48405244D01*
X187194249Y-48425342D01*
X187194248Y-48425343D01*
X187194243Y-48425346D01*
X187100346Y-48519243D01*
X187100343Y-48519248D01*
X187100342Y-48519249D01*
X187080244Y-48558692D01*
X187040047Y-48637582D01*
X187024500Y-48735748D01*
X187024500Y-49239251D01*
X187040047Y-49337417D01*
X187056699Y-49370097D01*
X187100342Y-49455751D01*
X187100344Y-49455753D01*
X187100346Y-49455756D01*
X187194243Y-49549653D01*
X187194247Y-49549656D01*
X187194249Y-49549658D01*
X187268494Y-49587487D01*
X187319288Y-49635461D01*
X187336083Y-49703281D01*
X187313546Y-49769416D01*
X187299879Y-49785652D01*
X187235934Y-49849597D01*
X187185931Y-49956828D01*
X187179500Y-50005683D01*
X187179500Y-50354316D01*
X187185931Y-50403171D01*
X187235935Y-50510404D01*
X187327267Y-50601736D01*
X187324443Y-50604559D01*
X187355183Y-50643042D01*
X187362352Y-50712542D01*
X187330808Y-50774886D01*
X187327101Y-50778098D01*
X187327267Y-50778264D01*
X187235935Y-50869595D01*
X187185931Y-50976828D01*
X187179500Y-51025683D01*
X187179500Y-51374316D01*
X187185931Y-51423171D01*
X187224496Y-51505874D01*
X187235935Y-51530404D01*
X187319596Y-51614065D01*
X187426827Y-51664068D01*
X187475683Y-51670500D01*
X187475684Y-51670500D01*
X187694167Y-51670500D01*
X187761206Y-51690185D01*
X187781848Y-51706819D01*
X188063181Y-51988152D01*
X188096666Y-52049475D01*
X188099500Y-52075833D01*
X188099500Y-54720842D01*
X188079815Y-54787881D01*
X188027011Y-54833636D01*
X187957853Y-54843580D01*
X187923096Y-54833224D01*
X187810544Y-54780740D01*
X187763140Y-54774500D01*
X187436867Y-54774500D01*
X187421839Y-54776478D01*
X187389455Y-54780741D01*
X187389453Y-54780742D01*
X187389451Y-54780742D01*
X187285419Y-54829253D01*
X187276535Y-54835475D01*
X187275322Y-54833742D01*
X187226347Y-54860480D01*
X187156656Y-54855489D01*
X187124100Y-54834566D01*
X187123465Y-54835475D01*
X187114580Y-54829254D01*
X187114579Y-54829253D01*
X187010545Y-54780741D01*
X187010543Y-54780740D01*
X187010544Y-54780740D01*
X186963140Y-54774500D01*
X186636867Y-54774500D01*
X186621839Y-54776478D01*
X186589455Y-54780741D01*
X186589453Y-54780742D01*
X186589451Y-54780742D01*
X186485419Y-54829253D01*
X186476535Y-54835475D01*
X186475322Y-54833742D01*
X186426347Y-54860480D01*
X186356656Y-54855489D01*
X186324100Y-54834566D01*
X186323465Y-54835475D01*
X186314580Y-54829254D01*
X186314579Y-54829253D01*
X186210545Y-54780741D01*
X186210543Y-54780740D01*
X186210544Y-54780740D01*
X186163140Y-54774500D01*
X185836867Y-54774500D01*
X185821839Y-54776478D01*
X185789455Y-54780741D01*
X185789453Y-54780742D01*
X185789451Y-54780742D01*
X185685419Y-54829253D01*
X185676535Y-54835475D01*
X185675322Y-54833742D01*
X185626347Y-54860480D01*
X185556656Y-54855489D01*
X185524100Y-54834566D01*
X185523465Y-54835475D01*
X185514580Y-54829254D01*
X185514579Y-54829253D01*
X185410545Y-54780741D01*
X185410543Y-54780740D01*
X185410544Y-54780740D01*
X185363140Y-54774500D01*
X185036867Y-54774500D01*
X185021839Y-54776478D01*
X184989455Y-54780741D01*
X184989453Y-54780742D01*
X184989451Y-54780742D01*
X184885420Y-54829253D01*
X184804253Y-54910420D01*
X184755740Y-55014456D01*
X184749500Y-55061860D01*
X184749500Y-56374164D01*
X184729815Y-56441203D01*
X184713247Y-56461780D01*
X184711913Y-56463116D01*
X184650615Y-56496646D01*
X184624166Y-56499500D01*
X184275833Y-56499500D01*
X184208794Y-56479815D01*
X184188152Y-56463181D01*
X183584512Y-55859541D01*
X183584504Y-55859535D01*
X183515995Y-55819982D01*
X183515990Y-55819979D01*
X183439559Y-55799499D01*
X183431503Y-55798439D01*
X183431883Y-55795551D01*
X183378292Y-55779815D01*
X183357650Y-55763181D01*
X183280404Y-55685935D01*
X183280402Y-55685934D01*
X183173173Y-55635932D01*
X183173171Y-55635931D01*
X183173172Y-55635931D01*
X183124317Y-55629500D01*
X183124316Y-55629500D01*
X182675684Y-55629500D01*
X182675683Y-55629500D01*
X182626828Y-55635931D01*
X182519596Y-55685934D01*
X182496215Y-55709316D01*
X182434891Y-55742800D01*
X182365200Y-55737814D01*
X182320854Y-55709314D01*
X182268316Y-55656776D01*
X182223614Y-55635931D01*
X182159487Y-55606028D01*
X182159485Y-55606027D01*
X182159486Y-55606027D01*
X182109901Y-55599500D01*
X181690105Y-55599500D01*
X181674386Y-55601569D01*
X181640513Y-55606028D01*
X181640511Y-55606029D01*
X181640509Y-55606029D01*
X181531683Y-55656776D01*
X181487681Y-55700779D01*
X181426358Y-55734264D01*
X181356666Y-55729280D01*
X181312319Y-55700779D01*
X181268316Y-55656776D01*
X181223614Y-55635931D01*
X181159487Y-55606028D01*
X181159485Y-55606027D01*
X181159486Y-55606027D01*
X181109901Y-55599500D01*
X180690105Y-55599500D01*
X180674386Y-55601569D01*
X180640513Y-55606028D01*
X180640511Y-55606029D01*
X180640509Y-55606029D01*
X180531683Y-55656776D01*
X180446776Y-55741683D01*
X180396027Y-55850514D01*
X180389500Y-55900097D01*
X180389500Y-56259894D01*
X180389501Y-56259900D01*
X180396028Y-56309487D01*
X180396029Y-56309489D01*
X180396029Y-56309490D01*
X180432704Y-56388138D01*
X180446776Y-56418316D01*
X180531684Y-56503224D01*
X180640513Y-56553972D01*
X180690099Y-56560500D01*
X181109900Y-56560499D01*
X181159487Y-56553972D01*
X181268316Y-56503224D01*
X181312319Y-56459221D01*
X181373642Y-56425736D01*
X181443334Y-56430720D01*
X181487681Y-56459221D01*
X181531684Y-56503224D01*
X181540571Y-56509447D01*
X181539198Y-56511407D01*
X181580339Y-56547625D01*
X181599500Y-56613843D01*
X181599500Y-56636260D01*
X181579815Y-56703299D01*
X181569213Y-56717462D01*
X181474625Y-56826622D01*
X181474622Y-56826628D01*
X181414834Y-56957543D01*
X181394353Y-57100000D01*
X181414834Y-57242456D01*
X181448277Y-57315684D01*
X181474623Y-57373373D01*
X181568872Y-57482143D01*
X181689947Y-57559953D01*
X181689950Y-57559954D01*
X181689949Y-57559954D01*
X181828036Y-57600499D01*
X181828038Y-57600500D01*
X181951057Y-57600500D01*
X182018096Y-57620185D01*
X182063851Y-57672989D01*
X182072866Y-57732686D01*
X182074765Y-57732811D01*
X182074500Y-57736853D01*
X182074500Y-58063132D01*
X182074501Y-58063138D01*
X182080741Y-58110545D01*
X182080742Y-58110547D01*
X182080742Y-58110548D01*
X182129253Y-58214580D01*
X182135475Y-58223465D01*
X182133742Y-58224677D01*
X182160480Y-58273653D01*
X182155489Y-58343344D01*
X182134566Y-58375899D01*
X182135475Y-58376535D01*
X182129254Y-58385419D01*
X182080740Y-58489456D01*
X182074500Y-58536860D01*
X182074500Y-58724965D01*
X182054815Y-58792004D01*
X182002011Y-58837759D01*
X181932853Y-58847703D01*
X181898096Y-58837347D01*
X181809487Y-58796028D01*
X181809485Y-58796027D01*
X181809486Y-58796027D01*
X181759902Y-58789500D01*
X181400105Y-58789500D01*
X181384386Y-58791569D01*
X181350513Y-58796028D01*
X181350511Y-58796029D01*
X181350509Y-58796029D01*
X181241683Y-58846776D01*
X181156776Y-58931683D01*
X181106027Y-59040514D01*
X181099500Y-59090098D01*
X181099500Y-59509894D01*
X181099501Y-59509900D01*
X181106028Y-59559487D01*
X181106029Y-59559489D01*
X181106029Y-59559490D01*
X181156776Y-59668316D01*
X181200779Y-59712319D01*
X181234264Y-59773642D01*
X181229280Y-59843334D01*
X181200779Y-59887681D01*
X181156776Y-59931683D01*
X181106027Y-60040514D01*
X181099500Y-60090098D01*
X181099500Y-60509894D01*
X181099501Y-60509900D01*
X181106028Y-60559487D01*
X181106029Y-60559489D01*
X181106029Y-60559490D01*
X181136427Y-60624677D01*
X181156776Y-60668316D01*
X181241684Y-60753224D01*
X181350513Y-60803972D01*
X181400099Y-60810500D01*
X181759900Y-60810499D01*
X181809487Y-60803972D01*
X181809496Y-60803967D01*
X181818599Y-60801316D01*
X181819543Y-60804558D01*
X181871816Y-60796600D01*
X181935610Y-60825097D01*
X181973871Y-60883561D01*
X181974450Y-60953428D01*
X181942868Y-61007161D01*
X181015489Y-61934541D01*
X180959541Y-61990488D01*
X180959535Y-61990496D01*
X180919982Y-62059005D01*
X180919979Y-62059010D01*
X180899500Y-62135440D01*
X180899500Y-65792795D01*
X180879815Y-65859834D01*
X180863181Y-65880476D01*
X179487427Y-67256229D01*
X179426104Y-67289714D01*
X179356412Y-67284730D01*
X179300479Y-67242858D01*
X179276062Y-67177394D01*
X179276806Y-67152370D01*
X179280500Y-67124316D01*
X179280500Y-66905833D01*
X179300185Y-66838794D01*
X179316819Y-66818152D01*
X179320905Y-66814066D01*
X179327960Y-66807011D01*
X179340567Y-66785175D01*
X179367521Y-66738489D01*
X179388000Y-66662062D01*
X179388000Y-66361118D01*
X179407685Y-66294079D01*
X179455701Y-66250635D01*
X179555751Y-66199658D01*
X179649658Y-66105751D01*
X179709951Y-65987420D01*
X179709951Y-65987418D01*
X179709952Y-65987417D01*
X179725500Y-65889251D01*
X179725500Y-65310748D01*
X179709952Y-65212582D01*
X179703880Y-65200666D01*
X179649658Y-65094249D01*
X179649654Y-65094245D01*
X179649653Y-65094243D01*
X179555756Y-65000346D01*
X179555753Y-65000344D01*
X179555751Y-65000342D01*
X179437420Y-64940049D01*
X179437419Y-64940048D01*
X179437416Y-64940047D01*
X179437417Y-64940047D01*
X179339251Y-64924500D01*
X179339246Y-64924500D01*
X178835754Y-64924500D01*
X178835749Y-64924500D01*
X178737582Y-64940047D01*
X178677336Y-64970745D01*
X178619249Y-65000342D01*
X178619248Y-65000343D01*
X178619243Y-65000346D01*
X178525346Y-65094243D01*
X178525343Y-65094248D01*
X178525342Y-65094249D01*
X178508844Y-65126628D01*
X178465047Y-65212582D01*
X178449500Y-65310748D01*
X178449500Y-65889251D01*
X178465047Y-65987417D01*
X178465049Y-65987420D01*
X178525342Y-66105751D01*
X178525344Y-66105753D01*
X178525346Y-66105756D01*
X178610752Y-66191162D01*
X178644237Y-66252485D01*
X178639253Y-66322177D01*
X178597381Y-66378110D01*
X178575476Y-66391225D01*
X178479595Y-66435935D01*
X178388264Y-66527267D01*
X178385440Y-66524443D01*
X178346958Y-66555183D01*
X178277458Y-66562352D01*
X178215114Y-66530808D01*
X178211901Y-66527101D01*
X178211736Y-66527267D01*
X178120404Y-66435935D01*
X178115283Y-66433547D01*
X178013173Y-66385932D01*
X178013171Y-66385931D01*
X178013172Y-66385931D01*
X177964317Y-66379500D01*
X177964316Y-66379500D01*
X177615684Y-66379500D01*
X177615683Y-66379500D01*
X177566828Y-66385931D01*
X177459591Y-66435937D01*
X177453120Y-66440468D01*
X177386912Y-66462791D01*
X177319146Y-66445775D01*
X177314965Y-66443203D01*
X177310055Y-66440047D01*
X177310050Y-66440045D01*
X177171963Y-66399500D01*
X177171961Y-66399500D01*
X177028039Y-66399500D01*
X177028036Y-66399500D01*
X176889949Y-66440045D01*
X176768873Y-66517856D01*
X176674623Y-66626626D01*
X176674622Y-66626628D01*
X176614834Y-66757543D01*
X176594353Y-66900000D01*
X176614834Y-67042456D01*
X176666494Y-67155574D01*
X176674623Y-67173373D01*
X176768872Y-67282143D01*
X176889947Y-67359953D01*
X176889950Y-67359954D01*
X176889949Y-67359954D01*
X177028036Y-67400499D01*
X177028038Y-67400500D01*
X177028039Y-67400500D01*
X177171962Y-67400500D01*
X177171962Y-67400499D01*
X177310053Y-67359953D01*
X177314964Y-67356796D01*
X177382002Y-67337111D01*
X177449042Y-67356794D01*
X177453129Y-67359536D01*
X177459591Y-67364060D01*
X177459596Y-67364065D01*
X177566827Y-67414068D01*
X177615683Y-67420500D01*
X177615684Y-67420500D01*
X177964317Y-67420500D01*
X177980601Y-67418356D01*
X178013173Y-67414068D01*
X178017355Y-67412117D01*
X178069759Y-67400500D01*
X178119560Y-67400500D01*
X178119562Y-67400500D01*
X178195989Y-67380021D01*
X178264511Y-67340460D01*
X178272570Y-67332401D01*
X178333893Y-67298916D01*
X178403585Y-67303900D01*
X178447932Y-67332401D01*
X178479596Y-67364065D01*
X178586827Y-67414068D01*
X178635683Y-67420500D01*
X178635684Y-67420500D01*
X178984313Y-67420500D01*
X178984316Y-67420500D01*
X179012363Y-67416807D01*
X179081396Y-67427572D01*
X179133653Y-67473951D01*
X179152539Y-67541219D01*
X179132060Y-67608020D01*
X179116229Y-67627427D01*
X178130476Y-68613181D01*
X178069153Y-68646666D01*
X178042795Y-68649500D01*
X170924833Y-68649500D01*
X170857794Y-68629815D01*
X170812039Y-68577011D01*
X170802095Y-68507853D01*
X170831120Y-68444297D01*
X170837152Y-68437819D01*
X170981580Y-68293391D01*
X171130460Y-68144511D01*
X171134219Y-68138000D01*
X171170021Y-68075989D01*
X171190500Y-67999562D01*
X171190500Y-67445331D01*
X171210185Y-67378292D01*
X171226819Y-67357650D01*
X171311736Y-67272733D01*
X171314564Y-67275561D01*
X171352977Y-67244843D01*
X171422474Y-67237635D01*
X171484835Y-67269143D01*
X171488093Y-67272903D01*
X171488264Y-67272733D01*
X171495935Y-67280404D01*
X171579596Y-67364065D01*
X171686827Y-67414068D01*
X171735683Y-67420500D01*
X171735684Y-67420500D01*
X172084317Y-67420500D01*
X172100601Y-67418356D01*
X172133173Y-67414068D01*
X172240404Y-67364065D01*
X172324065Y-67280404D01*
X172374068Y-67173173D01*
X172380500Y-67124316D01*
X172380500Y-66905833D01*
X172382213Y-66900000D01*
X173194353Y-66900000D01*
X173214834Y-67042456D01*
X173266494Y-67155574D01*
X173274623Y-67173373D01*
X173368872Y-67282143D01*
X173489947Y-67359953D01*
X173489950Y-67359954D01*
X173489949Y-67359954D01*
X173628036Y-67400499D01*
X173628038Y-67400500D01*
X173628039Y-67400500D01*
X173771962Y-67400500D01*
X173771962Y-67400499D01*
X173910053Y-67359953D01*
X173910054Y-67359951D01*
X173918118Y-67356270D01*
X173918690Y-67357522D01*
X173976789Y-67340462D01*
X174043829Y-67360145D01*
X174047916Y-67362888D01*
X174049593Y-67364062D01*
X174049596Y-67364065D01*
X174156827Y-67414068D01*
X174205683Y-67420500D01*
X174205684Y-67420500D01*
X174554317Y-67420500D01*
X174570601Y-67418356D01*
X174603173Y-67414068D01*
X174710404Y-67364065D01*
X174794065Y-67280404D01*
X174794065Y-67280403D01*
X174801736Y-67272733D01*
X174804564Y-67275561D01*
X174842977Y-67244843D01*
X174912474Y-67237635D01*
X174974835Y-67269143D01*
X174978093Y-67272903D01*
X174978264Y-67272733D01*
X174985935Y-67280404D01*
X175069596Y-67364065D01*
X175176827Y-67414068D01*
X175225683Y-67420500D01*
X175225684Y-67420500D01*
X175574317Y-67420500D01*
X175590601Y-67418356D01*
X175623173Y-67414068D01*
X175730404Y-67364065D01*
X175814065Y-67280404D01*
X175864068Y-67173173D01*
X175870500Y-67124316D01*
X175870500Y-66905833D01*
X175890185Y-66838794D01*
X175906819Y-66818152D01*
X175910905Y-66814066D01*
X175927960Y-66797011D01*
X175935465Y-66784012D01*
X175967521Y-66728489D01*
X175988000Y-66652062D01*
X175988000Y-66361118D01*
X176007685Y-66294079D01*
X176055701Y-66250635D01*
X176155751Y-66199658D01*
X176249658Y-66105751D01*
X176309951Y-65987420D01*
X176309951Y-65987418D01*
X176309952Y-65987417D01*
X176325500Y-65889251D01*
X176325500Y-65310748D01*
X176309952Y-65212582D01*
X176303880Y-65200666D01*
X176249658Y-65094249D01*
X176249654Y-65094245D01*
X176249653Y-65094243D01*
X176155756Y-65000346D01*
X176155753Y-65000344D01*
X176155751Y-65000342D01*
X176037420Y-64940049D01*
X176037419Y-64940048D01*
X176037416Y-64940047D01*
X176037417Y-64940047D01*
X175939251Y-64924500D01*
X175939246Y-64924500D01*
X175435754Y-64924500D01*
X175435749Y-64924500D01*
X175337582Y-64940047D01*
X175277336Y-64970745D01*
X175219249Y-65000342D01*
X175219248Y-65000343D01*
X175219243Y-65000346D01*
X175125346Y-65094243D01*
X175125343Y-65094248D01*
X175125342Y-65094249D01*
X175108844Y-65126628D01*
X175065047Y-65212582D01*
X175049500Y-65310748D01*
X175049500Y-65889251D01*
X175065047Y-65987417D01*
X175065049Y-65987420D01*
X175125342Y-66105751D01*
X175125344Y-66105753D01*
X175125346Y-66105756D01*
X175207572Y-66187982D01*
X175241057Y-66249305D01*
X175236073Y-66318997D01*
X175194201Y-66374930D01*
X175172296Y-66388045D01*
X175069595Y-66435935D01*
X174978264Y-66527267D01*
X174975440Y-66524443D01*
X174936958Y-66555183D01*
X174867458Y-66562352D01*
X174805114Y-66530808D01*
X174801901Y-66527101D01*
X174801736Y-66527267D01*
X174710404Y-66435935D01*
X174705283Y-66433547D01*
X174603173Y-66385932D01*
X174603171Y-66385931D01*
X174603172Y-66385931D01*
X174554317Y-66379500D01*
X174554316Y-66379500D01*
X174205684Y-66379500D01*
X174205683Y-66379500D01*
X174156828Y-66385931D01*
X174049592Y-66435936D01*
X174047904Y-66437119D01*
X174044847Y-66438149D01*
X174039764Y-66440520D01*
X174039499Y-66439952D01*
X173981696Y-66459440D01*
X173918224Y-66443501D01*
X173918120Y-66443731D01*
X173916875Y-66443162D01*
X173913930Y-66442423D01*
X173910109Y-66440072D01*
X173910048Y-66440044D01*
X173771963Y-66399500D01*
X173771961Y-66399500D01*
X173628039Y-66399500D01*
X173628036Y-66399500D01*
X173489949Y-66440045D01*
X173368873Y-66517856D01*
X173274623Y-66626626D01*
X173274622Y-66626628D01*
X173214834Y-66757543D01*
X173194353Y-66900000D01*
X172382213Y-66900000D01*
X172400185Y-66838794D01*
X172416819Y-66818152D01*
X172420905Y-66814066D01*
X172427960Y-66807011D01*
X172440567Y-66785175D01*
X172467521Y-66738489D01*
X172488000Y-66662062D01*
X172488000Y-66361118D01*
X172507685Y-66294079D01*
X172555701Y-66250635D01*
X172655751Y-66199658D01*
X172749658Y-66105751D01*
X172809951Y-65987420D01*
X172809951Y-65987418D01*
X172809952Y-65987417D01*
X172825500Y-65889251D01*
X172825500Y-65310748D01*
X172809952Y-65212582D01*
X172803880Y-65200666D01*
X172749658Y-65094249D01*
X172749654Y-65094245D01*
X172749653Y-65094243D01*
X172655756Y-65000346D01*
X172655753Y-65000344D01*
X172655751Y-65000342D01*
X172537420Y-64940049D01*
X172537419Y-64940048D01*
X172537416Y-64940047D01*
X172537417Y-64940047D01*
X172439251Y-64924500D01*
X172439246Y-64924500D01*
X171935754Y-64924500D01*
X171935749Y-64924500D01*
X171837582Y-64940047D01*
X171777336Y-64970745D01*
X171719249Y-65000342D01*
X171719248Y-65000343D01*
X171719243Y-65000346D01*
X171625346Y-65094243D01*
X171625343Y-65094248D01*
X171625342Y-65094249D01*
X171608844Y-65126628D01*
X171565047Y-65212582D01*
X171549500Y-65310748D01*
X171549500Y-65889251D01*
X171565047Y-65987417D01*
X171565049Y-65987420D01*
X171625342Y-66105751D01*
X171625344Y-66105753D01*
X171625346Y-66105756D01*
X171710752Y-66191162D01*
X171744237Y-66252485D01*
X171739253Y-66322177D01*
X171697381Y-66378110D01*
X171675476Y-66391225D01*
X171579595Y-66435935D01*
X171488264Y-66527267D01*
X171485440Y-66524443D01*
X171446958Y-66555183D01*
X171377458Y-66562352D01*
X171315114Y-66530808D01*
X171311901Y-66527101D01*
X171311736Y-66527267D01*
X171220404Y-66435935D01*
X171215283Y-66433547D01*
X171113173Y-66385932D01*
X171113171Y-66385931D01*
X171113172Y-66385931D01*
X171064317Y-66379500D01*
X171064316Y-66379500D01*
X170715684Y-66379500D01*
X170715683Y-66379500D01*
X170666828Y-66385931D01*
X170559595Y-66435935D01*
X170475935Y-66519595D01*
X170425931Y-66626828D01*
X170419500Y-66675683D01*
X170419500Y-67124316D01*
X170425931Y-67173171D01*
X170475935Y-67280404D01*
X170553181Y-67357650D01*
X170586666Y-67418973D01*
X170589500Y-67445331D01*
X170589500Y-67784167D01*
X170569815Y-67851206D01*
X170553181Y-67871848D01*
X170211848Y-68213181D01*
X170150525Y-68246666D01*
X170124167Y-68249500D01*
X166101684Y-68249500D01*
X166034645Y-68229815D01*
X165988890Y-68177011D01*
X165978946Y-68107853D01*
X166007971Y-68044297D01*
X166065687Y-68006839D01*
X166103954Y-67995232D01*
X166286450Y-67897685D01*
X166446410Y-67766410D01*
X166577685Y-67606450D01*
X166675232Y-67423954D01*
X166735300Y-67225934D01*
X166755583Y-67020000D01*
X166735300Y-66814066D01*
X166675232Y-66616046D01*
X166577685Y-66433550D01*
X166525702Y-66370209D01*
X166446410Y-66273589D01*
X166286452Y-66142317D01*
X166286453Y-66142317D01*
X166286450Y-66142315D01*
X166103954Y-66044768D01*
X165905934Y-65984700D01*
X165905932Y-65984699D01*
X165905934Y-65984699D01*
X165700000Y-65964417D01*
X165494067Y-65984699D01*
X165296043Y-66044769D01*
X165242530Y-66073373D01*
X165113550Y-66142315D01*
X165113548Y-66142316D01*
X165113547Y-66142317D01*
X164953589Y-66273589D01*
X164829765Y-66424472D01*
X164822315Y-66433550D01*
X164788430Y-66496944D01*
X164724769Y-66616043D01*
X164664699Y-66814067D01*
X164644417Y-67020000D01*
X164664699Y-67225932D01*
X164688094Y-67303055D01*
X164724768Y-67423954D01*
X164822315Y-67606450D01*
X164836771Y-67624065D01*
X164953589Y-67766410D01*
X165019815Y-67820759D01*
X165113550Y-67897685D01*
X165296046Y-67995232D01*
X165334312Y-68006839D01*
X165392750Y-68045137D01*
X165421206Y-68108949D01*
X165410646Y-68178016D01*
X165364422Y-68230410D01*
X165298316Y-68249500D01*
X161057205Y-68249500D01*
X160990166Y-68229815D01*
X160969524Y-68213181D01*
X158556264Y-65799921D01*
X158522779Y-65738598D01*
X158527763Y-65668906D01*
X158531142Y-65660747D01*
X158585165Y-65542457D01*
X158605647Y-65400000D01*
X158585165Y-65257543D01*
X158525377Y-65126627D01*
X158431128Y-65017857D01*
X158310053Y-64940047D01*
X158310051Y-64940046D01*
X158310049Y-64940045D01*
X158310050Y-64940045D01*
X158171963Y-64899500D01*
X158171961Y-64899500D01*
X158028039Y-64899500D01*
X158028035Y-64899500D01*
X157959434Y-64919643D01*
X157889564Y-64919643D01*
X157830786Y-64881868D01*
X157801762Y-64818312D01*
X157800500Y-64800666D01*
X157800500Y-64480000D01*
X162104417Y-64480000D01*
X162124699Y-64685932D01*
X162124700Y-64685934D01*
X162184768Y-64883954D01*
X162282315Y-65066450D01*
X162293037Y-65079515D01*
X162413589Y-65226410D01*
X162481166Y-65281868D01*
X162573550Y-65357685D01*
X162756046Y-65455232D01*
X162954066Y-65515300D01*
X162954065Y-65515300D01*
X162972529Y-65517118D01*
X163160000Y-65535583D01*
X163365934Y-65515300D01*
X163563954Y-65455232D01*
X163746450Y-65357685D01*
X163906410Y-65226410D01*
X164037685Y-65066450D01*
X164135232Y-64883954D01*
X164195300Y-64685934D01*
X164215583Y-64480000D01*
X164644417Y-64480000D01*
X164664699Y-64685932D01*
X164664700Y-64685934D01*
X164724768Y-64883954D01*
X164822315Y-65066450D01*
X164833037Y-65079515D01*
X164953589Y-65226410D01*
X165021166Y-65281868D01*
X165113550Y-65357685D01*
X165296046Y-65455232D01*
X165494066Y-65515300D01*
X165494065Y-65515300D01*
X165512529Y-65517118D01*
X165700000Y-65535583D01*
X165905934Y-65515300D01*
X166103954Y-65455232D01*
X166286450Y-65357685D01*
X166446410Y-65226410D01*
X166577685Y-65066450D01*
X166675232Y-64883954D01*
X166735300Y-64685934D01*
X166755583Y-64480000D01*
X166735300Y-64274066D01*
X166675232Y-64076046D01*
X166577685Y-63893550D01*
X166528398Y-63833493D01*
X167624500Y-63833493D01*
X167640279Y-63933121D01*
X167640280Y-63933124D01*
X167640281Y-63933126D01*
X167697656Y-64045730D01*
X167701473Y-64053221D01*
X167701476Y-64053225D01*
X167796774Y-64148523D01*
X167796778Y-64148526D01*
X167796780Y-64148528D01*
X167916874Y-64209719D01*
X167916876Y-64209719D01*
X167916878Y-64209720D01*
X168016507Y-64225500D01*
X168016512Y-64225500D01*
X168583493Y-64225500D01*
X168683121Y-64209720D01*
X168683121Y-64209719D01*
X168683126Y-64209719D01*
X168803220Y-64148528D01*
X168810595Y-64141153D01*
X168871917Y-64107666D01*
X168941608Y-64112648D01*
X168997544Y-64154517D01*
X169008720Y-64174802D01*
X169009241Y-64174525D01*
X169012889Y-64181372D01*
X169012890Y-64181373D01*
X169055900Y-64262085D01*
X169066369Y-64274167D01*
X169101660Y-64314895D01*
X169119242Y-64332839D01*
X169119246Y-64332843D01*
X169119247Y-64332844D01*
X169119249Y-64332845D01*
X169141276Y-64345166D01*
X169199063Y-64377490D01*
X169266102Y-64397175D01*
X169324000Y-64405500D01*
X169324004Y-64405500D01*
X171475991Y-64405500D01*
X171476000Y-64405500D01*
X171519684Y-64400803D01*
X171548875Y-64394452D01*
X171571174Y-64389602D01*
X171571190Y-64389598D01*
X171571195Y-64389597D01*
X171581373Y-64387110D01*
X171662085Y-64344100D01*
X171714889Y-64298345D01*
X171732843Y-64280754D01*
X171777490Y-64200937D01*
X171797175Y-64133898D01*
X171805500Y-64076000D01*
X171805500Y-61124000D01*
X171800803Y-61080316D01*
X171794664Y-61052095D01*
X171789602Y-61028825D01*
X171789348Y-61027789D01*
X171787110Y-61018627D01*
X171744100Y-60937915D01*
X171698345Y-60885111D01*
X171698339Y-60885104D01*
X171680757Y-60867160D01*
X171680756Y-60867159D01*
X171680754Y-60867157D01*
X171680752Y-60867156D01*
X171680750Y-60867154D01*
X171600940Y-60822511D01*
X171600935Y-60822509D01*
X171533903Y-60802826D01*
X171533899Y-60802825D01*
X171533898Y-60802825D01*
X171476000Y-60794500D01*
X171101230Y-60794500D01*
X171034191Y-60774815D01*
X170988436Y-60722011D01*
X170978492Y-60652853D01*
X171007517Y-60589297D01*
X171066295Y-60551523D01*
X171085044Y-60547561D01*
X171085668Y-60547478D01*
X171175236Y-60535687D01*
X171315233Y-60477698D01*
X171435451Y-60385451D01*
X171527698Y-60265233D01*
X171584937Y-60127047D01*
X171628778Y-60072644D01*
X171695072Y-60050579D01*
X171699498Y-60050500D01*
X171942273Y-60050500D01*
X171981004Y-60058926D01*
X171981437Y-60057455D01*
X172128036Y-60100499D01*
X172128038Y-60100500D01*
X172128039Y-60100500D01*
X172271962Y-60100500D01*
X172271962Y-60100499D01*
X172324797Y-60084985D01*
X172418563Y-60057455D01*
X172418995Y-60058926D01*
X172457727Y-60050500D01*
X173342273Y-60050500D01*
X173381004Y-60058926D01*
X173381437Y-60057455D01*
X173528036Y-60100499D01*
X173528038Y-60100500D01*
X173528039Y-60100500D01*
X173671962Y-60100500D01*
X173671962Y-60100499D01*
X173724797Y-60084985D01*
X173818563Y-60057455D01*
X173818995Y-60058926D01*
X173857727Y-60050500D01*
X174742273Y-60050500D01*
X174781004Y-60058926D01*
X174781437Y-60057455D01*
X174928036Y-60100499D01*
X174928038Y-60100500D01*
X174928039Y-60100500D01*
X175071962Y-60100500D01*
X175071962Y-60100499D01*
X175124797Y-60084985D01*
X175218563Y-60057455D01*
X175218995Y-60058926D01*
X175257727Y-60050500D01*
X175375500Y-60050500D01*
X175442539Y-60070185D01*
X175488294Y-60122989D01*
X175499500Y-60174500D01*
X175499500Y-61056613D01*
X175505913Y-61127192D01*
X175505913Y-61127194D01*
X175505914Y-61127196D01*
X175556522Y-61289606D01*
X175641670Y-61430458D01*
X175644530Y-61435188D01*
X175764811Y-61555469D01*
X175764813Y-61555470D01*
X175764815Y-61555472D01*
X175910394Y-61643478D01*
X176072804Y-61694086D01*
X176143384Y-61700500D01*
X176143387Y-61700500D01*
X177256613Y-61700500D01*
X177256616Y-61700500D01*
X177327196Y-61694086D01*
X177489606Y-61643478D01*
X177635185Y-61555472D01*
X177755472Y-61435185D01*
X177843478Y-61289606D01*
X177894086Y-61127196D01*
X177900500Y-61056616D01*
X177900500Y-59201611D01*
X177920185Y-59134572D01*
X177972989Y-59088817D01*
X178042147Y-59078873D01*
X178105703Y-59107898D01*
X178112181Y-59113930D01*
X178196774Y-59198523D01*
X178196778Y-59198526D01*
X178196780Y-59198528D01*
X178316874Y-59259719D01*
X178316876Y-59259719D01*
X178316878Y-59259720D01*
X178416507Y-59275500D01*
X178416512Y-59275500D01*
X178983493Y-59275500D01*
X179083121Y-59259720D01*
X179083121Y-59259719D01*
X179083126Y-59259719D01*
X179203220Y-59198528D01*
X179298528Y-59103220D01*
X179359719Y-58983126D01*
X179361154Y-58974068D01*
X179375500Y-58883493D01*
X179375500Y-58366506D01*
X179359720Y-58266878D01*
X179359719Y-58266876D01*
X179359719Y-58266874D01*
X179298528Y-58146780D01*
X179298526Y-58146778D01*
X179298523Y-58146774D01*
X179203225Y-58051476D01*
X179203221Y-58051473D01*
X179203220Y-58051472D01*
X179083126Y-57990281D01*
X179083124Y-57990280D01*
X179083121Y-57990279D01*
X178983493Y-57974500D01*
X178983488Y-57974500D01*
X178416512Y-57974500D01*
X178416507Y-57974500D01*
X178316878Y-57990279D01*
X178196778Y-58051473D01*
X178104735Y-58143516D01*
X178043411Y-58177000D01*
X177973720Y-58172016D01*
X177917787Y-58130144D01*
X177898051Y-58078704D01*
X177895366Y-58079239D01*
X177894087Y-58072811D01*
X177894086Y-58072807D01*
X177894086Y-58072804D01*
X177843478Y-57910394D01*
X177755472Y-57764815D01*
X177755470Y-57764813D01*
X177755469Y-57764811D01*
X177635188Y-57644530D01*
X177611723Y-57630345D01*
X177489606Y-57556522D01*
X177327196Y-57505914D01*
X177327194Y-57505913D01*
X177327192Y-57505913D01*
X177277778Y-57501423D01*
X177256616Y-57499500D01*
X176143384Y-57499500D01*
X176124145Y-57501248D01*
X176072807Y-57505913D01*
X175910393Y-57556522D01*
X175764811Y-57644530D01*
X175644530Y-57764811D01*
X175556522Y-57910393D01*
X175505913Y-58072807D01*
X175499500Y-58143386D01*
X175499500Y-59025500D01*
X175479815Y-59092539D01*
X175427011Y-59138294D01*
X175375500Y-59149500D01*
X175257727Y-59149500D01*
X175218995Y-59141073D01*
X175218563Y-59142545D01*
X175071963Y-59099500D01*
X175071961Y-59099500D01*
X174928039Y-59099500D01*
X174928036Y-59099500D01*
X174781437Y-59142545D01*
X174781004Y-59141073D01*
X174742273Y-59149500D01*
X173857727Y-59149500D01*
X173818995Y-59141073D01*
X173818563Y-59142545D01*
X173671963Y-59099500D01*
X173671961Y-59099500D01*
X173528039Y-59099500D01*
X173528036Y-59099500D01*
X173381437Y-59142545D01*
X173381004Y-59141073D01*
X173342273Y-59149500D01*
X172457727Y-59149500D01*
X172418995Y-59141073D01*
X172418563Y-59142545D01*
X172271963Y-59099500D01*
X172271961Y-59099500D01*
X172128039Y-59099500D01*
X172128036Y-59099500D01*
X171981437Y-59142545D01*
X171981004Y-59141073D01*
X171942273Y-59149500D01*
X171699498Y-59149500D01*
X171632459Y-59129815D01*
X171586704Y-59077011D01*
X171584937Y-59072953D01*
X171553081Y-58996046D01*
X171527698Y-58934767D01*
X171435451Y-58814549D01*
X171315233Y-58722302D01*
X171315229Y-58722300D01*
X171248140Y-58694511D01*
X171175236Y-58664313D01*
X171161171Y-58662461D01*
X171062727Y-58649500D01*
X171062720Y-58649500D01*
X169737280Y-58649500D01*
X169737272Y-58649500D01*
X169624764Y-58664313D01*
X169624763Y-58664313D01*
X169484770Y-58722300D01*
X169484767Y-58722301D01*
X169484767Y-58722302D01*
X169364549Y-58814549D01*
X169274669Y-58931683D01*
X169272300Y-58934770D01*
X169214313Y-59074763D01*
X169214313Y-59074764D01*
X169199500Y-59187272D01*
X169199500Y-60012727D01*
X169214313Y-60125235D01*
X169214313Y-60125236D01*
X169270316Y-60260440D01*
X169272302Y-60265233D01*
X169364549Y-60385451D01*
X169484767Y-60477698D01*
X169624764Y-60535687D01*
X169714249Y-60547468D01*
X169714956Y-60547561D01*
X169778852Y-60575828D01*
X169817323Y-60634152D01*
X169818154Y-60704017D01*
X169781082Y-60763240D01*
X169717876Y-60793019D01*
X169698770Y-60794500D01*
X169323992Y-60794500D01*
X169280313Y-60799197D01*
X169228825Y-60810397D01*
X169218627Y-60812890D01*
X169218624Y-60812891D01*
X169137916Y-60855899D01*
X169137913Y-60855901D01*
X169085104Y-60901660D01*
X169067160Y-60919242D01*
X169067154Y-60919249D01*
X169022511Y-60999059D01*
X169022509Y-60999064D01*
X169002826Y-61066096D01*
X169002825Y-61066101D01*
X169002825Y-61066102D01*
X168994502Y-61123992D01*
X168994500Y-61124003D01*
X168994500Y-62897081D01*
X168974815Y-62964120D01*
X168922011Y-63009875D01*
X168852853Y-63019819D01*
X168813052Y-63003669D01*
X168811915Y-63005903D01*
X168803221Y-63001473D01*
X168803220Y-63001472D01*
X168683126Y-62940281D01*
X168683124Y-62940280D01*
X168683121Y-62940279D01*
X168583493Y-62924500D01*
X168583488Y-62924500D01*
X168016512Y-62924500D01*
X168016507Y-62924500D01*
X167916878Y-62940279D01*
X167796778Y-63001473D01*
X167796774Y-63001476D01*
X167701476Y-63096774D01*
X167701473Y-63096778D01*
X167640279Y-63216878D01*
X167624500Y-63316506D01*
X167624500Y-63833493D01*
X166528398Y-63833493D01*
X166465408Y-63756739D01*
X166446410Y-63733589D01*
X166286452Y-63602317D01*
X166286453Y-63602317D01*
X166286450Y-63602315D01*
X166103954Y-63504768D01*
X165905934Y-63444700D01*
X165905932Y-63444699D01*
X165905934Y-63444699D01*
X165700000Y-63424417D01*
X165494067Y-63444699D01*
X165318692Y-63497898D01*
X165313413Y-63499500D01*
X165296043Y-63504769D01*
X165185898Y-63563643D01*
X165113550Y-63602315D01*
X165113548Y-63602316D01*
X165113547Y-63602317D01*
X164953589Y-63733589D01*
X164822317Y-63893547D01*
X164724769Y-64076043D01*
X164664699Y-64274067D01*
X164644417Y-64480000D01*
X164215583Y-64480000D01*
X164195300Y-64274066D01*
X164135232Y-64076046D01*
X164037685Y-63893550D01*
X163925408Y-63756739D01*
X163906410Y-63733589D01*
X163746452Y-63602317D01*
X163746453Y-63602317D01*
X163746450Y-63602315D01*
X163563954Y-63504768D01*
X163365934Y-63444700D01*
X163365932Y-63444699D01*
X163365934Y-63444699D01*
X163160000Y-63424417D01*
X162954067Y-63444699D01*
X162778692Y-63497898D01*
X162773413Y-63499500D01*
X162756043Y-63504769D01*
X162645898Y-63563643D01*
X162573550Y-63602315D01*
X162573548Y-63602316D01*
X162573547Y-63602317D01*
X162413589Y-63733589D01*
X162282317Y-63893547D01*
X162184769Y-64076043D01*
X162124699Y-64274067D01*
X162104417Y-64480000D01*
X157800500Y-64480000D01*
X157800500Y-61940000D01*
X162104417Y-61940000D01*
X162124699Y-62145932D01*
X162124700Y-62145934D01*
X162184768Y-62343954D01*
X162282315Y-62526450D01*
X162290859Y-62536861D01*
X162413589Y-62686410D01*
X162503869Y-62760500D01*
X162573550Y-62817685D01*
X162756046Y-62915232D01*
X162954066Y-62975300D01*
X162954065Y-62975300D01*
X162972529Y-62977118D01*
X163160000Y-62995583D01*
X163365934Y-62975300D01*
X163563954Y-62915232D01*
X163746450Y-62817685D01*
X163906410Y-62686410D01*
X164037685Y-62526450D01*
X164135232Y-62343954D01*
X164195300Y-62145934D01*
X164215583Y-61940000D01*
X164195300Y-61734066D01*
X164135232Y-61536046D01*
X164037685Y-61353550D01*
X163963486Y-61263138D01*
X163906410Y-61193589D01*
X163768381Y-61080313D01*
X163746450Y-61062315D01*
X163563954Y-60964768D01*
X163365934Y-60904700D01*
X163365932Y-60904699D01*
X163365934Y-60904699D01*
X163160000Y-60884417D01*
X162954067Y-60904699D01*
X162756043Y-60964769D01*
X162691885Y-60999063D01*
X162573550Y-61062315D01*
X162573548Y-61062316D01*
X162573547Y-61062317D01*
X162413589Y-61193589D01*
X162282317Y-61353547D01*
X162282315Y-61353550D01*
X162244944Y-61423465D01*
X162184769Y-61536043D01*
X162124699Y-61734067D01*
X162104417Y-61940000D01*
X157800500Y-61940000D01*
X157800500Y-59400000D01*
X162104417Y-59400000D01*
X162124699Y-59605932D01*
X162142052Y-59663138D01*
X162184768Y-59803954D01*
X162282315Y-59986450D01*
X162303874Y-60012720D01*
X162413589Y-60146410D01*
X162502651Y-60219500D01*
X162573550Y-60277685D01*
X162756046Y-60375232D01*
X162954066Y-60435300D01*
X162954065Y-60435300D01*
X162972529Y-60437118D01*
X163160000Y-60455583D01*
X163365934Y-60435300D01*
X163563954Y-60375232D01*
X163746450Y-60277685D01*
X163906410Y-60146410D01*
X164037685Y-59986450D01*
X164135232Y-59803954D01*
X164195300Y-59605934D01*
X164215583Y-59400000D01*
X164644417Y-59400000D01*
X164664699Y-59605932D01*
X164682052Y-59663138D01*
X164724768Y-59803954D01*
X164822315Y-59986450D01*
X164843874Y-60012720D01*
X164953589Y-60146410D01*
X165042651Y-60219500D01*
X165113550Y-60277685D01*
X165296046Y-60375232D01*
X165494066Y-60435300D01*
X165494065Y-60435300D01*
X165512529Y-60437118D01*
X165700000Y-60455583D01*
X165905934Y-60435300D01*
X166103954Y-60375232D01*
X166286450Y-60277685D01*
X166446410Y-60146410D01*
X166577685Y-59986450D01*
X166675232Y-59803954D01*
X166735300Y-59605934D01*
X166755583Y-59400000D01*
X166735300Y-59194066D01*
X166675232Y-58996046D01*
X166577685Y-58813550D01*
X166479993Y-58694511D01*
X166446410Y-58653589D01*
X166304182Y-58536867D01*
X166286450Y-58522315D01*
X166103954Y-58424768D01*
X165905934Y-58364700D01*
X165905932Y-58364699D01*
X165905934Y-58364699D01*
X165700000Y-58344417D01*
X165494067Y-58364699D01*
X165296043Y-58424769D01*
X165185898Y-58483643D01*
X165113550Y-58522315D01*
X165113548Y-58522316D01*
X165113547Y-58522317D01*
X164953589Y-58653589D01*
X164828166Y-58806420D01*
X164822315Y-58813550D01*
X164795809Y-58863139D01*
X164724769Y-58996043D01*
X164664699Y-59194067D01*
X164644417Y-59400000D01*
X164215583Y-59400000D01*
X164195300Y-59194066D01*
X164135232Y-58996046D01*
X164037685Y-58813550D01*
X163939993Y-58694511D01*
X163906410Y-58653589D01*
X163764182Y-58536867D01*
X163746450Y-58522315D01*
X163563954Y-58424768D01*
X163365934Y-58364700D01*
X163365932Y-58364699D01*
X163365934Y-58364699D01*
X163160000Y-58344417D01*
X162954067Y-58364699D01*
X162756043Y-58424769D01*
X162645898Y-58483643D01*
X162573550Y-58522315D01*
X162573548Y-58522316D01*
X162573547Y-58522317D01*
X162413589Y-58653589D01*
X162288166Y-58806420D01*
X162282315Y-58813550D01*
X162255809Y-58863139D01*
X162184769Y-58996043D01*
X162124699Y-59194067D01*
X162104417Y-59400000D01*
X157800500Y-59400000D01*
X157800500Y-57860439D01*
X157800500Y-57860438D01*
X157793661Y-57834916D01*
X157780022Y-57784012D01*
X157748695Y-57729752D01*
X162109500Y-57729752D01*
X162121131Y-57788229D01*
X162121132Y-57788230D01*
X162165447Y-57854552D01*
X162231769Y-57898867D01*
X162231770Y-57898868D01*
X162290247Y-57910499D01*
X162290250Y-57910500D01*
X162290252Y-57910500D01*
X164029750Y-57910500D01*
X164029751Y-57910499D01*
X164044568Y-57907552D01*
X164088229Y-57898868D01*
X164088229Y-57898867D01*
X164088231Y-57898867D01*
X164154552Y-57854552D01*
X164198867Y-57788231D01*
X164198867Y-57788229D01*
X164198868Y-57788229D01*
X164209085Y-57736861D01*
X164210500Y-57729748D01*
X164210500Y-56860000D01*
X164644417Y-56860000D01*
X164664699Y-57065932D01*
X164687912Y-57142456D01*
X164724768Y-57263954D01*
X164822315Y-57446450D01*
X164844640Y-57473653D01*
X164953589Y-57606410D01*
X165024149Y-57664316D01*
X165113550Y-57737685D01*
X165296046Y-57835232D01*
X165494066Y-57895300D01*
X165494065Y-57895300D01*
X165512529Y-57897118D01*
X165700000Y-57915583D01*
X165905934Y-57895300D01*
X166103954Y-57835232D01*
X166286450Y-57737685D01*
X166446410Y-57606410D01*
X166577685Y-57446450D01*
X166675232Y-57263954D01*
X166735300Y-57065934D01*
X166755583Y-56860000D01*
X166735300Y-56654066D01*
X166675232Y-56456046D01*
X166577685Y-56273550D01*
X166525702Y-56210209D01*
X166446410Y-56113589D01*
X166296121Y-55990252D01*
X166286450Y-55982315D01*
X166103954Y-55884768D01*
X165905934Y-55824700D01*
X165905932Y-55824699D01*
X165905934Y-55824699D01*
X165700000Y-55804417D01*
X165494067Y-55824699D01*
X165296043Y-55884769D01*
X165208114Y-55931769D01*
X165113550Y-55982315D01*
X165113548Y-55982316D01*
X165113547Y-55982317D01*
X164953589Y-56113589D01*
X164822317Y-56273547D01*
X164724769Y-56456043D01*
X164664699Y-56654067D01*
X164644417Y-56860000D01*
X164210500Y-56860000D01*
X164210500Y-55990252D01*
X164210500Y-55990249D01*
X164210499Y-55990247D01*
X164198868Y-55931770D01*
X164198867Y-55931769D01*
X164154552Y-55865447D01*
X164088230Y-55821132D01*
X164088229Y-55821131D01*
X164029752Y-55809500D01*
X164029748Y-55809500D01*
X162290252Y-55809500D01*
X162290247Y-55809500D01*
X162231770Y-55821131D01*
X162231769Y-55821132D01*
X162165447Y-55865447D01*
X162121132Y-55931769D01*
X162121131Y-55931770D01*
X162109500Y-55990247D01*
X162109500Y-57729752D01*
X157748695Y-57729752D01*
X157740460Y-57715489D01*
X157274511Y-57249540D01*
X157255115Y-57238342D01*
X157255115Y-57238341D01*
X157255113Y-57238341D01*
X157214628Y-57214967D01*
X157170298Y-57168475D01*
X157170288Y-57168483D01*
X157170240Y-57168415D01*
X157166412Y-57164400D01*
X157164245Y-57159983D01*
X157164065Y-57159596D01*
X157080404Y-57075935D01*
X156973173Y-57025932D01*
X156973171Y-57025931D01*
X156973172Y-57025931D01*
X156924317Y-57019500D01*
X156924316Y-57019500D01*
X156475684Y-57019500D01*
X156475683Y-57019500D01*
X156426828Y-57025931D01*
X156319595Y-57075935D01*
X156235935Y-57159595D01*
X156185931Y-57266828D01*
X156179500Y-57315683D01*
X156179500Y-57664316D01*
X156185931Y-57713171D01*
X156235935Y-57820404D01*
X156327267Y-57911736D01*
X156324443Y-57914559D01*
X156355183Y-57953042D01*
X156362352Y-58022542D01*
X156330808Y-58084886D01*
X156327101Y-58088098D01*
X156327267Y-58088264D01*
X156242350Y-58173181D01*
X156181027Y-58206666D01*
X156154669Y-58209500D01*
X156074500Y-58209500D01*
X156007461Y-58189815D01*
X155961706Y-58137011D01*
X155950500Y-58085500D01*
X155950500Y-57879239D01*
X155943376Y-57830345D01*
X155940573Y-57811107D01*
X155889198Y-57706017D01*
X155889196Y-57706015D01*
X155889196Y-57706014D01*
X155806485Y-57623303D01*
X155701391Y-57571926D01*
X155633261Y-57562000D01*
X155633260Y-57562000D01*
X155266740Y-57562000D01*
X155266739Y-57562000D01*
X155198608Y-57571926D01*
X155093514Y-57623303D01*
X155010803Y-57706014D01*
X154959426Y-57811108D01*
X154949500Y-57879239D01*
X154949500Y-59120760D01*
X154959426Y-59188891D01*
X155010803Y-59293985D01*
X155093514Y-59376696D01*
X155093515Y-59376696D01*
X155093517Y-59376698D01*
X155198607Y-59428073D01*
X155232673Y-59433036D01*
X155266739Y-59438000D01*
X155266740Y-59438000D01*
X155633261Y-59438000D01*
X155655971Y-59434691D01*
X155701393Y-59428073D01*
X155806483Y-59376698D01*
X155889198Y-59293983D01*
X155940573Y-59188893D01*
X155950500Y-59120760D01*
X155950500Y-58934500D01*
X155970185Y-58867461D01*
X156022989Y-58821706D01*
X156074500Y-58810500D01*
X156154669Y-58810500D01*
X156221708Y-58830185D01*
X156242350Y-58846819D01*
X156319596Y-58924065D01*
X156426827Y-58974068D01*
X156475683Y-58980500D01*
X156475684Y-58980500D01*
X156924317Y-58980500D01*
X156934087Y-58979213D01*
X156973173Y-58974068D01*
X157023098Y-58950787D01*
X157092172Y-58940296D01*
X157155956Y-58968815D01*
X157194196Y-59027291D01*
X157199500Y-59063170D01*
X157199500Y-65636829D01*
X157179815Y-65703868D01*
X157127011Y-65749623D01*
X157057853Y-65759567D01*
X157023096Y-65749211D01*
X156973172Y-65725931D01*
X156924317Y-65719500D01*
X156924316Y-65719500D01*
X156475684Y-65719500D01*
X156475683Y-65719500D01*
X156426828Y-65725931D01*
X156319595Y-65775935D01*
X156235935Y-65859595D01*
X156185931Y-65966828D01*
X156179500Y-66015683D01*
X156179500Y-66364316D01*
X156185931Y-66413171D01*
X156235935Y-66520404D01*
X156327267Y-66611736D01*
X156324443Y-66614559D01*
X156355183Y-66653042D01*
X156362352Y-66722542D01*
X156330808Y-66784886D01*
X156327101Y-66788098D01*
X156327267Y-66788264D01*
X156242350Y-66873181D01*
X156181027Y-66906666D01*
X156154669Y-66909500D01*
X156074500Y-66909500D01*
X156007461Y-66889815D01*
X155961706Y-66837011D01*
X155950500Y-66785500D01*
X155950500Y-66579239D01*
X155943376Y-66530345D01*
X155940573Y-66511107D01*
X155889198Y-66406017D01*
X155889196Y-66406015D01*
X155889196Y-66406014D01*
X155806485Y-66323303D01*
X155701391Y-66271926D01*
X155633261Y-66262000D01*
X155633260Y-66262000D01*
X155266740Y-66262000D01*
X155266739Y-66262000D01*
X155198608Y-66271926D01*
X155093514Y-66323303D01*
X155010803Y-66406014D01*
X154959426Y-66511108D01*
X154949500Y-66579239D01*
X154949500Y-67820760D01*
X154050500Y-67820760D01*
X154050500Y-66579240D01*
X154040573Y-66511107D01*
X153989198Y-66406017D01*
X153989196Y-66406015D01*
X153989196Y-66406014D01*
X153906485Y-66323303D01*
X153801391Y-66271926D01*
X153733261Y-66262000D01*
X153733260Y-66262000D01*
X153366740Y-66262000D01*
X153366739Y-66262000D01*
X153298608Y-66271926D01*
X153193514Y-66323303D01*
X153110803Y-66406014D01*
X153059426Y-66511108D01*
X153049499Y-66579240D01*
X153049175Y-66583720D01*
X153047129Y-66583571D01*
X153029815Y-66642539D01*
X152977011Y-66688294D01*
X152925500Y-66699500D01*
X151045281Y-66699500D01*
X150978242Y-66679815D01*
X150942180Y-66644392D01*
X150865977Y-66530345D01*
X150865975Y-66530342D01*
X150719657Y-66384024D01*
X150593905Y-66300000D01*
X150547598Y-66269059D01*
X150544505Y-66267778D01*
X150356420Y-66189870D01*
X150356412Y-66189868D01*
X150153469Y-66149500D01*
X150153465Y-66149500D01*
X149646535Y-66149500D01*
X149646530Y-66149500D01*
X149443587Y-66189868D01*
X149443579Y-66189870D01*
X149252403Y-66269058D01*
X149080342Y-66384024D01*
X148934024Y-66530342D01*
X148819058Y-66702403D01*
X148739870Y-66893579D01*
X148739868Y-66893587D01*
X148699500Y-67096530D01*
X148699500Y-67303469D01*
X146500500Y-67303469D01*
X146500500Y-65354269D01*
X148699500Y-65354269D01*
X148702353Y-65384699D01*
X148702353Y-65384701D01*
X148727034Y-65455232D01*
X148747207Y-65512882D01*
X148827850Y-65622150D01*
X148937118Y-65702793D01*
X148978405Y-65717240D01*
X149065299Y-65747646D01*
X149095730Y-65750500D01*
X149095734Y-65750500D01*
X150704270Y-65750500D01*
X150734699Y-65747646D01*
X150734701Y-65747646D01*
X150800492Y-65724624D01*
X150862882Y-65702793D01*
X150972150Y-65622150D01*
X151052793Y-65512882D01*
X151078743Y-65438720D01*
X151097646Y-65384701D01*
X151097646Y-65384699D01*
X151100500Y-65354269D01*
X151100500Y-64045730D01*
X151097646Y-64015300D01*
X151097646Y-64015298D01*
X151064006Y-63919163D01*
X151052793Y-63887118D01*
X150972150Y-63777850D01*
X150862882Y-63697207D01*
X150862880Y-63697206D01*
X150734700Y-63652353D01*
X150704270Y-63649500D01*
X150704266Y-63649500D01*
X149095734Y-63649500D01*
X149095730Y-63649500D01*
X149065300Y-63652353D01*
X149065298Y-63652353D01*
X148937119Y-63697206D01*
X148937117Y-63697207D01*
X148827850Y-63777850D01*
X148747207Y-63887117D01*
X148747206Y-63887119D01*
X148702353Y-64015298D01*
X148702353Y-64015300D01*
X148699500Y-64045730D01*
X148699500Y-65354269D01*
X146500500Y-65354269D01*
X146500500Y-58603469D01*
X148699500Y-58603469D01*
X148739868Y-58806412D01*
X148739870Y-58806420D01*
X148807484Y-58969655D01*
X148819059Y-58997598D01*
X148857821Y-59055610D01*
X148934024Y-59169657D01*
X149080342Y-59315975D01*
X149080345Y-59315977D01*
X149252402Y-59430941D01*
X149443580Y-59510130D01*
X149646530Y-59550499D01*
X149646534Y-59550500D01*
X149646535Y-59550500D01*
X150153466Y-59550500D01*
X150153467Y-59550499D01*
X150356420Y-59510130D01*
X150547598Y-59430941D01*
X150719655Y-59315977D01*
X150865977Y-59169655D01*
X150942180Y-59055608D01*
X150995790Y-59010805D01*
X151045281Y-59000500D01*
X152925500Y-59000500D01*
X152992539Y-59020185D01*
X153038294Y-59072989D01*
X153047734Y-59116384D01*
X153049175Y-59116280D01*
X153049499Y-59120759D01*
X153059426Y-59188891D01*
X153110803Y-59293985D01*
X153193514Y-59376696D01*
X153193515Y-59376696D01*
X153193517Y-59376698D01*
X153298607Y-59428073D01*
X153332673Y-59433036D01*
X153366739Y-59438000D01*
X153366740Y-59438000D01*
X153733261Y-59438000D01*
X153755971Y-59434691D01*
X153801393Y-59428073D01*
X153906483Y-59376698D01*
X153989198Y-59293983D01*
X154040573Y-59188893D01*
X154050500Y-59120760D01*
X154050500Y-57879240D01*
X154040573Y-57811107D01*
X153989198Y-57706017D01*
X153989196Y-57706015D01*
X153989196Y-57706014D01*
X153906485Y-57623303D01*
X153801391Y-57571926D01*
X153733261Y-57562000D01*
X153733260Y-57562000D01*
X153366740Y-57562000D01*
X153366739Y-57562000D01*
X153298608Y-57571926D01*
X153193514Y-57623303D01*
X153110803Y-57706014D01*
X153059426Y-57811108D01*
X153049499Y-57879240D01*
X153049175Y-57883720D01*
X153047129Y-57883571D01*
X153029815Y-57942539D01*
X152977011Y-57988294D01*
X152925500Y-57999500D01*
X151045281Y-57999500D01*
X150978242Y-57979815D01*
X150942180Y-57944392D01*
X150865977Y-57830345D01*
X150865975Y-57830342D01*
X150719657Y-57684024D01*
X150594653Y-57600500D01*
X150547598Y-57569059D01*
X150530556Y-57562000D01*
X150356420Y-57489870D01*
X150356412Y-57489868D01*
X150153469Y-57449500D01*
X150153465Y-57449500D01*
X149646535Y-57449500D01*
X149646530Y-57449500D01*
X149443587Y-57489868D01*
X149443579Y-57489870D01*
X149252403Y-57569058D01*
X149080342Y-57684024D01*
X148934024Y-57830342D01*
X148819058Y-58002403D01*
X148739870Y-58193579D01*
X148739868Y-58193587D01*
X148699500Y-58396530D01*
X148699500Y-58603469D01*
X146500500Y-58603469D01*
X146500500Y-56654269D01*
X148699500Y-56654269D01*
X148702353Y-56684699D01*
X148702353Y-56684701D01*
X148737671Y-56785631D01*
X148747207Y-56812882D01*
X148827850Y-56922150D01*
X148937118Y-57002793D01*
X148979845Y-57017744D01*
X149065299Y-57047646D01*
X149095730Y-57050500D01*
X149095734Y-57050500D01*
X150704270Y-57050500D01*
X150734699Y-57047646D01*
X150734701Y-57047646D01*
X150798790Y-57025219D01*
X150862882Y-57002793D01*
X150972150Y-56922150D01*
X151052793Y-56812882D01*
X151086182Y-56717462D01*
X151097646Y-56684701D01*
X151097646Y-56684699D01*
X151100500Y-56654269D01*
X151100500Y-55345730D01*
X151097646Y-55315300D01*
X151097646Y-55315298D01*
X151052793Y-55187119D01*
X151052792Y-55187117D01*
X150972150Y-55077850D01*
X150862882Y-54997207D01*
X150862880Y-54997206D01*
X150734700Y-54952353D01*
X150704270Y-54949500D01*
X150704266Y-54949500D01*
X149095734Y-54949500D01*
X149095730Y-54949500D01*
X149065300Y-54952353D01*
X149065298Y-54952353D01*
X148937119Y-54997206D01*
X148937117Y-54997207D01*
X148827850Y-55077850D01*
X148747207Y-55187117D01*
X148747206Y-55187119D01*
X148702353Y-55315298D01*
X148702353Y-55315300D01*
X148699500Y-55345730D01*
X148699500Y-56654269D01*
X146500500Y-56654269D01*
X146500500Y-50653469D01*
X154699500Y-50653469D01*
X154739868Y-50856412D01*
X154739870Y-50856420D01*
X154819058Y-51047596D01*
X154934024Y-51219657D01*
X155080342Y-51365975D01*
X155080345Y-51365977D01*
X155252402Y-51480941D01*
X155443580Y-51560130D01*
X155646530Y-51600499D01*
X155646534Y-51600500D01*
X155646535Y-51600500D01*
X155853466Y-51600500D01*
X155853467Y-51600499D01*
X156056420Y-51560130D01*
X156247598Y-51480941D01*
X156419655Y-51365977D01*
X156565977Y-51219655D01*
X156680941Y-51047598D01*
X156760130Y-50856420D01*
X156800500Y-50653465D01*
X156800500Y-50146535D01*
X156771353Y-50000004D01*
X161294732Y-50000004D01*
X161313777Y-50254154D01*
X161352354Y-50423173D01*
X161370492Y-50502637D01*
X161463607Y-50739888D01*
X161591041Y-50960612D01*
X161749950Y-51159877D01*
X161936783Y-51333232D01*
X162147366Y-51476805D01*
X162147371Y-51476807D01*
X162147372Y-51476808D01*
X162147373Y-51476809D01*
X162258665Y-51530404D01*
X162376992Y-51587387D01*
X162376993Y-51587387D01*
X162376996Y-51587389D01*
X162620542Y-51662513D01*
X162872565Y-51700500D01*
X163127435Y-51700500D01*
X163379458Y-51662513D01*
X163623004Y-51587389D01*
X163852634Y-51476805D01*
X164063217Y-51333232D01*
X164250050Y-51159877D01*
X164408959Y-50960612D01*
X164536393Y-50739888D01*
X164629508Y-50502637D01*
X164686222Y-50254157D01*
X164694384Y-50145232D01*
X164705268Y-50000004D01*
X165994732Y-50000004D01*
X166013777Y-50254154D01*
X166052354Y-50423173D01*
X166070492Y-50502637D01*
X166163607Y-50739888D01*
X166291041Y-50960612D01*
X166449950Y-51159877D01*
X166636783Y-51333232D01*
X166847366Y-51476805D01*
X166847371Y-51476807D01*
X166847372Y-51476808D01*
X166847373Y-51476809D01*
X166958665Y-51530404D01*
X167076992Y-51587387D01*
X167076993Y-51587387D01*
X167076996Y-51587389D01*
X167320542Y-51662513D01*
X167572565Y-51700500D01*
X167827435Y-51700500D01*
X168079458Y-51662513D01*
X168323004Y-51587389D01*
X168552634Y-51476805D01*
X168763217Y-51333232D01*
X168950050Y-51159877D01*
X169108959Y-50960612D01*
X169236393Y-50739888D01*
X169329508Y-50502637D01*
X169386222Y-50254157D01*
X169394384Y-50145232D01*
X169405268Y-50000004D01*
X170694732Y-50000004D01*
X170713777Y-50254154D01*
X170752354Y-50423173D01*
X170770492Y-50502637D01*
X170863607Y-50739888D01*
X170991041Y-50960612D01*
X171149950Y-51159877D01*
X171336783Y-51333232D01*
X171547366Y-51476805D01*
X171547371Y-51476807D01*
X171547372Y-51476808D01*
X171547373Y-51476809D01*
X171658665Y-51530404D01*
X171776996Y-51587389D01*
X171777001Y-51587390D01*
X171777012Y-51587395D01*
X171862048Y-51613624D01*
X171920308Y-51652193D01*
X171948466Y-51716137D01*
X171949500Y-51732115D01*
X171949500Y-53596883D01*
X171946579Y-53617344D01*
X171947170Y-53617422D01*
X171939500Y-53675683D01*
X171939500Y-54124316D01*
X171945931Y-54173171D01*
X171945932Y-54173173D01*
X171995935Y-54280404D01*
X172079596Y-54364065D01*
X172186827Y-54414068D01*
X172235683Y-54420500D01*
X172235684Y-54420500D01*
X172584317Y-54420500D01*
X172600601Y-54418356D01*
X172633173Y-54414068D01*
X172740404Y-54364065D01*
X172824065Y-54280404D01*
X172874068Y-54173173D01*
X172880500Y-54124316D01*
X172880500Y-53675684D01*
X172874068Y-53626827D01*
X172862118Y-53601200D01*
X172850500Y-53548795D01*
X172850500Y-52125000D01*
X176254357Y-52125000D01*
X176274884Y-52346535D01*
X176274885Y-52346537D01*
X176335769Y-52560523D01*
X176335775Y-52560538D01*
X176434938Y-52759683D01*
X176434943Y-52759691D01*
X176569020Y-52937238D01*
X176733437Y-53087123D01*
X176733439Y-53087125D01*
X176922595Y-53204245D01*
X176922601Y-53204248D01*
X177130057Y-53284617D01*
X177130060Y-53284618D01*
X177173286Y-53292698D01*
X177235565Y-53324364D01*
X177270839Y-53384676D01*
X177274500Y-53414586D01*
X177274500Y-54422389D01*
X177254815Y-54489428D01*
X177238181Y-54510070D01*
X177151476Y-54596774D01*
X177151473Y-54596778D01*
X177090279Y-54716878D01*
X177074500Y-54816506D01*
X177074500Y-55383493D01*
X177090279Y-55483121D01*
X177090280Y-55483124D01*
X177090281Y-55483126D01*
X177151472Y-55603220D01*
X177151473Y-55603221D01*
X177151476Y-55603225D01*
X177246774Y-55698523D01*
X177246778Y-55698526D01*
X177246780Y-55698528D01*
X177366874Y-55759719D01*
X177366876Y-55759719D01*
X177366878Y-55759720D01*
X177466507Y-55775500D01*
X177466512Y-55775500D01*
X177983493Y-55775500D01*
X178083121Y-55759720D01*
X178083121Y-55759719D01*
X178083126Y-55759719D01*
X178203220Y-55698528D01*
X178298528Y-55603220D01*
X178359719Y-55483126D01*
X178359720Y-55483121D01*
X178375500Y-55383493D01*
X178375500Y-54816506D01*
X178359720Y-54716878D01*
X178359719Y-54716876D01*
X178359719Y-54716874D01*
X178298528Y-54596780D01*
X178298526Y-54596778D01*
X178298523Y-54596774D01*
X178211819Y-54510070D01*
X178178334Y-54448747D01*
X178175500Y-54422389D01*
X178175500Y-53151959D01*
X178195185Y-53084920D01*
X178215962Y-53060322D01*
X178350979Y-52937238D01*
X178485056Y-52759691D01*
X178485058Y-52759689D01*
X178584229Y-52560528D01*
X178645115Y-52346536D01*
X178665643Y-52125000D01*
X181334357Y-52125000D01*
X181354884Y-52346535D01*
X181354885Y-52346537D01*
X181415769Y-52560523D01*
X181415775Y-52560538D01*
X181514938Y-52759683D01*
X181514943Y-52759691D01*
X181649020Y-52937238D01*
X181813437Y-53087123D01*
X181813439Y-53087125D01*
X182002595Y-53204245D01*
X182002596Y-53204245D01*
X182002599Y-53204247D01*
X182210060Y-53284618D01*
X182428757Y-53325500D01*
X182428759Y-53325500D01*
X182651241Y-53325500D01*
X182651243Y-53325500D01*
X182869940Y-53284618D01*
X183077401Y-53204247D01*
X183266562Y-53087124D01*
X183430981Y-52937236D01*
X183565058Y-52759689D01*
X183664229Y-52560528D01*
X183725115Y-52346536D01*
X183745643Y-52125000D01*
X183725115Y-51903464D01*
X183664229Y-51689472D01*
X183664224Y-51689461D01*
X183565061Y-51490316D01*
X183565056Y-51490308D01*
X183430979Y-51312761D01*
X183266562Y-51162876D01*
X183266560Y-51162874D01*
X183077404Y-51045754D01*
X183077398Y-51045752D01*
X182869940Y-50965382D01*
X182651243Y-50924500D01*
X182428757Y-50924500D01*
X182210060Y-50965382D01*
X182128889Y-50996828D01*
X182002601Y-51045752D01*
X182002595Y-51045754D01*
X181813439Y-51162874D01*
X181813437Y-51162876D01*
X181649020Y-51312761D01*
X181514943Y-51490308D01*
X181514938Y-51490316D01*
X181415775Y-51689461D01*
X181415769Y-51689476D01*
X181354885Y-51903462D01*
X181354884Y-51903464D01*
X181334357Y-52124999D01*
X181334357Y-52125000D01*
X178665643Y-52125000D01*
X178645115Y-51903464D01*
X178584229Y-51689472D01*
X178584224Y-51689461D01*
X178485061Y-51490316D01*
X178485056Y-51490308D01*
X178350979Y-51312761D01*
X178186562Y-51162876D01*
X178186560Y-51162874D01*
X177997404Y-51045754D01*
X177997398Y-51045752D01*
X177789940Y-50965382D01*
X177571243Y-50924500D01*
X177348757Y-50924500D01*
X177130060Y-50965382D01*
X177048889Y-50996828D01*
X176922601Y-51045752D01*
X176922595Y-51045754D01*
X176733439Y-51162874D01*
X176733437Y-51162876D01*
X176569020Y-51312761D01*
X176434943Y-51490308D01*
X176434938Y-51490316D01*
X176335775Y-51689461D01*
X176335769Y-51689476D01*
X176274885Y-51903462D01*
X176274884Y-51903464D01*
X176254357Y-52124999D01*
X176254357Y-52125000D01*
X172850500Y-52125000D01*
X172850500Y-51732115D01*
X172870185Y-51665076D01*
X172922989Y-51619321D01*
X172937952Y-51613624D01*
X173022987Y-51587395D01*
X173022994Y-51587391D01*
X173023004Y-51587389D01*
X173252634Y-51476805D01*
X173463217Y-51333232D01*
X173650050Y-51159877D01*
X173808959Y-50960612D01*
X173936393Y-50739888D01*
X174029508Y-50502637D01*
X174086222Y-50254157D01*
X174094384Y-50145232D01*
X174105268Y-50000004D01*
X174105268Y-49999995D01*
X174088587Y-49777402D01*
X174086222Y-49745843D01*
X174029508Y-49497363D01*
X173936393Y-49260112D01*
X173808959Y-49039388D01*
X173650050Y-48840123D01*
X173463217Y-48666768D01*
X173252634Y-48523195D01*
X173252630Y-48523193D01*
X173252627Y-48523191D01*
X173252626Y-48523190D01*
X173023006Y-48412612D01*
X173023008Y-48412612D01*
X172779466Y-48337489D01*
X172779462Y-48337488D01*
X172779458Y-48337487D01*
X172658231Y-48319214D01*
X172527440Y-48299500D01*
X172527435Y-48299500D01*
X172272565Y-48299500D01*
X172272559Y-48299500D01*
X172115609Y-48323157D01*
X172020542Y-48337487D01*
X172020539Y-48337488D01*
X172020533Y-48337489D01*
X171776992Y-48412612D01*
X171547373Y-48523190D01*
X171547372Y-48523191D01*
X171336782Y-48666768D01*
X171149952Y-48840121D01*
X171149950Y-48840123D01*
X170991041Y-49039388D01*
X170863608Y-49260109D01*
X170770492Y-49497362D01*
X170770490Y-49497369D01*
X170713777Y-49745845D01*
X170694732Y-49999995D01*
X170694732Y-50000004D01*
X169405268Y-50000004D01*
X169405268Y-49999995D01*
X169388587Y-49777402D01*
X169386222Y-49745843D01*
X169329508Y-49497363D01*
X169236393Y-49260112D01*
X169108959Y-49039388D01*
X168950050Y-48840123D01*
X168763217Y-48666768D01*
X168552634Y-48523195D01*
X168552630Y-48523193D01*
X168552627Y-48523191D01*
X168552626Y-48523190D01*
X168323006Y-48412612D01*
X168323008Y-48412612D01*
X168079466Y-48337489D01*
X168079462Y-48337488D01*
X168079458Y-48337487D01*
X167958231Y-48319214D01*
X167827440Y-48299500D01*
X167827435Y-48299500D01*
X167572565Y-48299500D01*
X167572559Y-48299500D01*
X167415609Y-48323157D01*
X167320542Y-48337487D01*
X167320539Y-48337488D01*
X167320533Y-48337489D01*
X167076992Y-48412612D01*
X166847373Y-48523190D01*
X166847372Y-48523191D01*
X166636782Y-48666768D01*
X166449952Y-48840121D01*
X166449950Y-48840123D01*
X166291041Y-49039388D01*
X166163608Y-49260109D01*
X166070492Y-49497362D01*
X166070490Y-49497369D01*
X166013777Y-49745845D01*
X165994732Y-49999995D01*
X165994732Y-50000004D01*
X164705268Y-50000004D01*
X164705268Y-49999995D01*
X164688587Y-49777402D01*
X164686222Y-49745843D01*
X164629508Y-49497363D01*
X164536393Y-49260112D01*
X164408959Y-49039388D01*
X164250050Y-48840123D01*
X164063217Y-48666768D01*
X163852634Y-48523195D01*
X163852630Y-48523193D01*
X163852627Y-48523191D01*
X163852626Y-48523190D01*
X163623006Y-48412612D01*
X163623008Y-48412612D01*
X163379466Y-48337489D01*
X163379462Y-48337488D01*
X163379458Y-48337487D01*
X163258231Y-48319214D01*
X163127440Y-48299500D01*
X163127435Y-48299500D01*
X162872565Y-48299500D01*
X162872559Y-48299500D01*
X162715609Y-48323157D01*
X162620542Y-48337487D01*
X162620539Y-48337488D01*
X162620533Y-48337489D01*
X162376992Y-48412612D01*
X162147373Y-48523190D01*
X162147372Y-48523191D01*
X161936782Y-48666768D01*
X161749952Y-48840121D01*
X161749950Y-48840123D01*
X161591041Y-49039388D01*
X161463608Y-49260109D01*
X161370492Y-49497362D01*
X161370490Y-49497369D01*
X161313777Y-49745845D01*
X161294732Y-49999995D01*
X161294732Y-50000004D01*
X156771353Y-50000004D01*
X156760130Y-49943580D01*
X156680941Y-49752402D01*
X156565977Y-49580345D01*
X156565975Y-49580342D01*
X156419657Y-49434024D01*
X156275073Y-49337417D01*
X156247598Y-49319059D01*
X156056420Y-49239870D01*
X156056412Y-49239868D01*
X155853469Y-49199500D01*
X155853465Y-49199500D01*
X155646535Y-49199500D01*
X155646530Y-49199500D01*
X155443587Y-49239868D01*
X155443579Y-49239870D01*
X155252403Y-49319058D01*
X155080342Y-49434024D01*
X154934024Y-49580342D01*
X154819058Y-49752403D01*
X154739870Y-49943579D01*
X154739868Y-49943587D01*
X154699500Y-50146530D01*
X154699500Y-50653469D01*
X146500500Y-50653469D01*
X146500500Y-50003246D01*
X146500670Y-49996756D01*
X146516592Y-49692953D01*
X146517949Y-49680046D01*
X146529781Y-49605342D01*
X146565029Y-49382786D01*
X146567723Y-49370107D01*
X146645627Y-49079368D01*
X146649636Y-49067033D01*
X146736739Y-48840121D01*
X146757493Y-48786054D01*
X146762763Y-48774215D01*
X146899415Y-48506023D01*
X146905891Y-48494808D01*
X147069819Y-48242380D01*
X147077434Y-48231899D01*
X147266858Y-47997979D01*
X147275525Y-47988354D01*
X147488354Y-47775525D01*
X147497979Y-47766858D01*
X147731899Y-47577434D01*
X147742380Y-47569819D01*
X147994808Y-47405891D01*
X148006023Y-47399415D01*
X148274215Y-47262763D01*
X148286054Y-47257493D01*
X148567040Y-47149633D01*
X148579368Y-47145627D01*
X148870107Y-47067723D01*
X148882786Y-47065029D01*
X149180046Y-47017949D01*
X149192951Y-47016592D01*
X149496756Y-47000669D01*
X149503246Y-47000500D01*
X149565892Y-47000500D01*
X207434108Y-47000500D01*
X207496754Y-47000500D01*
X207503244Y-47000670D01*
G37*
%TD.AperFunction*%
%TD*%
M02*
