%TF.GenerationSoftware,KiCad,Pcbnew,8.0.1-8.0.1-1~ubuntu22.04.1*%
%TF.CreationDate,2024-04-04T08:17:27+02:00*%
%TF.ProjectId,Ingenuity,496e6765-6e75-4697-9479-2e6b69636164,rev?*%
%TF.SameCoordinates,Original*%
%TF.FileFunction,Copper,L2,Inr*%
%TF.FilePolarity,Positive*%
%FSLAX46Y46*%
G04 Gerber Fmt 4.6, Leading zero omitted, Abs format (unit mm)*
G04 Created by KiCad (PCBNEW 8.0.1-8.0.1-1~ubuntu22.04.1) date 2024-04-04 08:17:27*
%MOMM*%
%LPD*%
G01*
G04 APERTURE LIST*
G04 Aperture macros list*
%AMRoundRect*
0 Rectangle with rounded corners*
0 $1 Rounding radius*
0 $2 $3 $4 $5 $6 $7 $8 $9 X,Y pos of 4 corners*
0 Add a 4 corners polygon primitive as box body*
4,1,4,$2,$3,$4,$5,$6,$7,$8,$9,$2,$3,0*
0 Add four circle primitives for the rounded corners*
1,1,$1+$1,$2,$3*
1,1,$1+$1,$4,$5*
1,1,$1+$1,$6,$7*
1,1,$1+$1,$8,$9*
0 Add four rect primitives between the rounded corners*
20,1,$1+$1,$2,$3,$4,$5,0*
20,1,$1+$1,$4,$5,$6,$7,0*
20,1,$1+$1,$6,$7,$8,$9,0*
20,1,$1+$1,$8,$9,$2,$3,0*%
G04 Aperture macros list end*
%TA.AperFunction,ComponentPad*%
%ADD10RoundRect,0.250000X0.600000X0.725000X-0.600000X0.725000X-0.600000X-0.725000X0.600000X-0.725000X0*%
%TD*%
%TA.AperFunction,ComponentPad*%
%ADD11O,1.700000X1.950000*%
%TD*%
%TA.AperFunction,ComponentPad*%
%ADD12RoundRect,0.250000X0.600000X0.750000X-0.600000X0.750000X-0.600000X-0.750000X0.600000X-0.750000X0*%
%TD*%
%TA.AperFunction,ComponentPad*%
%ADD13O,1.700000X2.000000*%
%TD*%
%TA.AperFunction,ComponentPad*%
%ADD14C,4.700000*%
%TD*%
%TA.AperFunction,ComponentPad*%
%ADD15C,3.000000*%
%TD*%
%TA.AperFunction,ComponentPad*%
%ADD16RoundRect,0.250000X-0.750000X0.600000X-0.750000X-0.600000X0.750000X-0.600000X0.750000X0.600000X0*%
%TD*%
%TA.AperFunction,ComponentPad*%
%ADD17O,2.000000X1.700000*%
%TD*%
%TA.AperFunction,ComponentPad*%
%ADD18R,1.700000X1.700000*%
%TD*%
%TA.AperFunction,ComponentPad*%
%ADD19O,1.700000X1.700000*%
%TD*%
%TA.AperFunction,ComponentPad*%
%ADD20C,2.000000*%
%TD*%
%TA.AperFunction,ComponentPad*%
%ADD21RoundRect,0.250000X0.725000X-0.600000X0.725000X0.600000X-0.725000X0.600000X-0.725000X-0.600000X0*%
%TD*%
%TA.AperFunction,ComponentPad*%
%ADD22O,1.950000X1.700000*%
%TD*%
%TA.AperFunction,ViaPad*%
%ADD23C,0.600000*%
%TD*%
%TA.AperFunction,Conductor*%
%ADD24C,0.200000*%
%TD*%
G04 APERTURE END LIST*
D10*
%TO.N,GND*%
%TO.C,J4*%
X201600000Y-50400000D03*
D11*
%TO.N,+5V*%
X199100000Y-50400000D03*
%TO.N,PWM3*%
X196600000Y-50400000D03*
%TD*%
D12*
%TO.N,GND*%
%TO.C,J1*%
X158250000Y-50400000D03*
D13*
%TO.N,+BATT*%
X155750000Y-50400000D03*
%TD*%
D14*
%TO.N,GND*%
%TO.C,H3*%
X149500000Y-73000000D03*
%TD*%
D15*
%TO.N,Net-(SW1-A)*%
%TO.C,SW1*%
X172400000Y-50000000D03*
%TO.N,+7.5V*%
X167700000Y-50000000D03*
%TO.N,+BATT*%
X163000000Y-50000000D03*
%TD*%
D16*
%TO.N,+7.5V*%
%TO.C,J6*%
X149900000Y-64700000D03*
D17*
%TO.N,Net-(J6-Pin_2)*%
X149900000Y-67200000D03*
%TD*%
D18*
%TO.N,unconnected-(J3-Pin_1-Pad1)*%
%TO.C,J3*%
X154340000Y-74500000D03*
D19*
%TO.N,+5V*%
X154340000Y-71960000D03*
%TO.N,unconnected-(J3-Pin_3-Pad3)*%
X156880000Y-74500000D03*
%TO.N,+5V*%
X156880000Y-71960000D03*
%TO.N,unconnected-(J3-Pin_5-Pad5)*%
X159420000Y-74500000D03*
%TO.N,GND*%
X159420000Y-71960000D03*
%TO.N,unconnected-(J3-Pin_7-Pad7)*%
X161960000Y-74500000D03*
%TO.N,USART2_RX*%
X161960000Y-71960000D03*
%TO.N,GND*%
X164500000Y-74500000D03*
%TO.N,USART2_TX*%
X164500000Y-71960000D03*
%TO.N,unconnected-(J3-Pin_11-Pad11)*%
X167040000Y-74500000D03*
%TO.N,unconnected-(J3-Pin_12-Pad12)*%
X167040000Y-71960000D03*
%TO.N,unconnected-(J3-Pin_13-Pad13)*%
X169580000Y-74500000D03*
%TO.N,GND*%
X169580000Y-71960000D03*
%TO.N,unconnected-(J3-Pin_15-Pad15)*%
X172120000Y-74500000D03*
%TO.N,unconnected-(J3-Pin_16-Pad16)*%
X172120000Y-71960000D03*
%TO.N,unconnected-(J3-Pin_17-Pad17)*%
X174660000Y-74500000D03*
%TO.N,unconnected-(J3-Pin_18-Pad18)*%
X174660000Y-71960000D03*
%TO.N,unconnected-(J3-Pin_19-Pad19)*%
X177200000Y-74500000D03*
%TO.N,GND*%
X177200000Y-71960000D03*
%TO.N,unconnected-(J3-Pin_21-Pad21)*%
X179740000Y-74500000D03*
%TO.N,unconnected-(J3-Pin_22-Pad22)*%
X179740000Y-71960000D03*
%TO.N,unconnected-(J3-Pin_23-Pad23)*%
X182280000Y-74500000D03*
%TO.N,unconnected-(J3-Pin_24-Pad24)*%
X182280000Y-71960000D03*
%TO.N,GND*%
X184820000Y-74500000D03*
%TO.N,unconnected-(J3-Pin_26-Pad26)*%
X184820000Y-71960000D03*
%TO.N,unconnected-(J3-Pin_27-Pad27)*%
X187360000Y-74500000D03*
%TO.N,unconnected-(J3-Pin_28-Pad28)*%
X187360000Y-71960000D03*
%TO.N,unconnected-(J3-Pin_29-Pad29)*%
X189900000Y-74500000D03*
%TO.N,GND*%
X189900000Y-71960000D03*
%TO.N,unconnected-(J3-Pin_31-Pad31)*%
X192440000Y-74500000D03*
%TO.N,unconnected-(J3-Pin_32-Pad32)*%
X192440000Y-71960000D03*
%TO.N,unconnected-(J3-Pin_33-Pad33)*%
X194980000Y-74500000D03*
%TO.N,GND*%
X194980000Y-71960000D03*
%TO.N,unconnected-(J3-Pin_35-Pad35)*%
X197520000Y-74500000D03*
%TO.N,unconnected-(J3-Pin_36-Pad36)*%
X197520000Y-71960000D03*
%TO.N,unconnected-(J3-Pin_37-Pad37)*%
X200060000Y-74500000D03*
%TO.N,unconnected-(J3-Pin_38-Pad38)*%
X200060000Y-71960000D03*
%TO.N,GND*%
X202600000Y-74500000D03*
%TO.N,unconnected-(J3-Pin_40-Pad40)*%
X202600000Y-71960000D03*
%TD*%
D20*
%TO.N,+7.5V*%
%TO.C,U1*%
X177460000Y-52125000D03*
%TO.N,GND*%
X180000000Y-52125000D03*
%TO.N,+5V*%
X182540000Y-52125000D03*
%TD*%
D21*
%TO.N,GND*%
%TO.C,J5*%
X207200000Y-63300000D03*
D22*
%TO.N,+5V*%
X207200000Y-60800000D03*
%TO.N,PWM4*%
X207200000Y-58300000D03*
%TD*%
D14*
%TO.N,GND*%
%TO.C,H2*%
X207500000Y-50000000D03*
%TD*%
D16*
%TO.N,+7.5V*%
%TO.C,J7*%
X149900000Y-56000000D03*
D17*
%TO.N,Net-(J7-Pin_2)*%
X149900000Y-58500000D03*
%TD*%
D18*
%TO.N,unconnected-(J2-Pin_1-Pad1)*%
%TO.C,J2*%
X163160000Y-56860000D03*
D19*
%TO.N,I2C1_SCL*%
X165700000Y-56860000D03*
%TO.N,+3.3V*%
X163160000Y-59400000D03*
%TO.N,I2C1_SDA*%
X165700000Y-59400000D03*
%TO.N,+3.3V*%
X163160000Y-61940000D03*
%TO.N,GND*%
X165700000Y-61940000D03*
%TO.N,unconnected-(J2-Pin_7-Pad7)*%
X163160000Y-64480000D03*
%TO.N,unconnected-(J2-Pin_8-Pad8)*%
X165700000Y-64480000D03*
%TO.N,GND*%
X163160000Y-67020000D03*
%TO.N,unconnected-(J2-Pin_10-Pad10)*%
X165700000Y-67020000D03*
%TD*%
D14*
%TO.N,GND*%
%TO.C,H4*%
X207500000Y-73000000D03*
%TD*%
%TO.N,GND*%
%TO.C,H1*%
X149500000Y-50000000D03*
%TD*%
D23*
%TO.N,GND*%
X191600000Y-47400000D03*
X189000000Y-47400000D03*
%TO.N,NRST*%
X192752971Y-59900000D03*
%TO.N,PWM4*%
X194351994Y-61604633D03*
%TO.N,+3.3V*%
X191334358Y-63256239D03*
%TO.N,NRST*%
X192619344Y-62112315D03*
%TO.N,+3.3V*%
X198500000Y-67500000D03*
%TO.N,SWCLK*%
X194500000Y-66300000D03*
%TO.N,SWDIO*%
X194600000Y-67600000D03*
%TO.N,GND*%
X201500000Y-62500000D03*
X201500000Y-66300000D03*
X201500000Y-65000000D03*
X192000000Y-63700000D03*
%TO.N,NRST*%
X184800000Y-59500000D03*
%TO.N,+5V*%
X169600000Y-63800000D03*
X171200000Y-63800000D03*
X173700000Y-66900000D03*
X170400000Y-63800000D03*
%TO.N,+3.3V*%
X173600000Y-59600000D03*
X191100000Y-68250000D03*
X181900000Y-57100000D03*
X172200000Y-59600000D03*
X175000000Y-59600000D03*
X187250000Y-69250000D03*
X177100000Y-66900000D03*
X184100000Y-60300000D03*
%TO.N,+7.5V*%
X158100000Y-65400000D03*
%TO.N,SWCLK*%
X192400000Y-57100000D03*
%TO.N,SWDIO*%
X192400000Y-57900000D03*
%TO.N,USART2_RX*%
X165900000Y-70600000D03*
%TO.N,I2C1_SDA*%
X186000000Y-57000000D03*
%TO.N,I2C1_SCL*%
X186800000Y-57000000D03*
%TO.N,SPI_CS*%
X189000003Y-65800000D03*
X185200000Y-65150000D03*
%TO.N,SPI1_SCK*%
X188200000Y-65800000D03*
X186000000Y-65150000D03*
%TO.N,GND*%
X180000000Y-69800000D03*
X180620000Y-61100000D03*
X184300000Y-62800000D03*
X171500000Y-68300000D03*
X153800000Y-55300000D03*
X170400000Y-56200000D03*
X155200000Y-64000000D03*
X184300000Y-65600000D03*
X176700000Y-53500000D03*
X180500000Y-65600000D03*
X159700000Y-69500000D03*
X195200000Y-55600000D03*
X184400000Y-54400000D03*
X191050000Y-67250000D03*
X190000000Y-57100000D03*
X169000000Y-57300000D03*
X171700000Y-57300000D03*
X185850000Y-67650000D03*
X180600000Y-58500000D03*
X170700000Y-53900000D03*
X193400000Y-55600000D03*
X188350000Y-69750000D03*
X153800000Y-64000000D03*
X181900000Y-54400000D03*
X161100000Y-67800000D03*
X180200000Y-55100000D03*
X155200000Y-55300000D03*
X154500000Y-55300000D03*
X169900000Y-67900000D03*
X177800000Y-68300000D03*
X178700000Y-61200000D03*
X154500000Y-64000000D03*
X190000000Y-62600000D03*
%TD*%
D24*
%TO.N,+7.5V*%
X158100000Y-65400000D02*
X156600000Y-65400000D01*
%TD*%
%TA.AperFunction,Conductor*%
%TO.N,+5V*%
G36*
X188506314Y-47020185D02*
G01*
X188552069Y-47072989D01*
X188562013Y-47142147D01*
X188552069Y-47176011D01*
X188514835Y-47257541D01*
X188514834Y-47257542D01*
X188494353Y-47400000D01*
X188514834Y-47542456D01*
X188574622Y-47673371D01*
X188574623Y-47673373D01*
X188668872Y-47782143D01*
X188789947Y-47859953D01*
X188789950Y-47859954D01*
X188789949Y-47859954D01*
X188928036Y-47900499D01*
X188928038Y-47900500D01*
X188928039Y-47900500D01*
X189071962Y-47900500D01*
X189071962Y-47900499D01*
X189210053Y-47859953D01*
X189331128Y-47782143D01*
X189425377Y-47673373D01*
X189485165Y-47542457D01*
X189505647Y-47400000D01*
X189485916Y-47262768D01*
X189485165Y-47257542D01*
X189485164Y-47257541D01*
X189447931Y-47176011D01*
X189437987Y-47106853D01*
X189467012Y-47043297D01*
X189525790Y-47005523D01*
X189560725Y-47000500D01*
X191039275Y-47000500D01*
X191106314Y-47020185D01*
X191152069Y-47072989D01*
X191162013Y-47142147D01*
X191152069Y-47176011D01*
X191114835Y-47257541D01*
X191114834Y-47257542D01*
X191094353Y-47400000D01*
X191114834Y-47542456D01*
X191174622Y-47673371D01*
X191174623Y-47673373D01*
X191268872Y-47782143D01*
X191389947Y-47859953D01*
X191389950Y-47859954D01*
X191389949Y-47859954D01*
X191528036Y-47900499D01*
X191528038Y-47900500D01*
X191528039Y-47900500D01*
X191671962Y-47900500D01*
X191671962Y-47900499D01*
X191810053Y-47859953D01*
X191931128Y-47782143D01*
X192025377Y-47673373D01*
X192085165Y-47542457D01*
X192105647Y-47400000D01*
X192085916Y-47262768D01*
X192085165Y-47257542D01*
X192085164Y-47257541D01*
X192047931Y-47176011D01*
X192037987Y-47106853D01*
X192067012Y-47043297D01*
X192125790Y-47005523D01*
X192160725Y-47000500D01*
X207434108Y-47000500D01*
X207496754Y-47000500D01*
X207503244Y-47000670D01*
X207807046Y-47016592D01*
X207819953Y-47017949D01*
X207891654Y-47029305D01*
X208117209Y-47065028D01*
X208129896Y-47067724D01*
X208420625Y-47145625D01*
X208432965Y-47149635D01*
X208713938Y-47257490D01*
X208725790Y-47262767D01*
X208993968Y-47399411D01*
X209005199Y-47405896D01*
X209215485Y-47542457D01*
X209257608Y-47569812D01*
X209268109Y-47577441D01*
X209502010Y-47766850D01*
X209511655Y-47775535D01*
X209724464Y-47988344D01*
X209733149Y-47997989D01*
X209922558Y-48231890D01*
X209930187Y-48242391D01*
X210094101Y-48494796D01*
X210100591Y-48506036D01*
X210237231Y-48774206D01*
X210242510Y-48786064D01*
X210350363Y-49067033D01*
X210354374Y-49079376D01*
X210432273Y-49370097D01*
X210434971Y-49382794D01*
X210482050Y-49680046D01*
X210483407Y-49692953D01*
X210499330Y-49996756D01*
X210499500Y-50003246D01*
X210499500Y-72996753D01*
X210499330Y-73003243D01*
X210483407Y-73307046D01*
X210482050Y-73319953D01*
X210434971Y-73617205D01*
X210432273Y-73629902D01*
X210354374Y-73920623D01*
X210350363Y-73932966D01*
X210242510Y-74213935D01*
X210237231Y-74225793D01*
X210100591Y-74493963D01*
X210094101Y-74505203D01*
X209930187Y-74757608D01*
X209922558Y-74768109D01*
X209733149Y-75002010D01*
X209724464Y-75011655D01*
X209511655Y-75224464D01*
X209502010Y-75233149D01*
X209268109Y-75422558D01*
X209257608Y-75430187D01*
X209005203Y-75594101D01*
X208993963Y-75600591D01*
X208725793Y-75737231D01*
X208713935Y-75742510D01*
X208432966Y-75850363D01*
X208420623Y-75854374D01*
X208129902Y-75932273D01*
X208117205Y-75934971D01*
X207819953Y-75982050D01*
X207807046Y-75983407D01*
X207503244Y-75999330D01*
X207496754Y-75999500D01*
X149503246Y-75999500D01*
X149496756Y-75999330D01*
X149192953Y-75983407D01*
X149180046Y-75982050D01*
X148882794Y-75934971D01*
X148870097Y-75932273D01*
X148579376Y-75854374D01*
X148567033Y-75850363D01*
X148286064Y-75742510D01*
X148274206Y-75737231D01*
X148006036Y-75600591D01*
X147994796Y-75594101D01*
X147742391Y-75430187D01*
X147731890Y-75422558D01*
X147497989Y-75233149D01*
X147488344Y-75224464D01*
X147275535Y-75011655D01*
X147266850Y-75002010D01*
X147077441Y-74768109D01*
X147069812Y-74757608D01*
X147064474Y-74749388D01*
X146905896Y-74505199D01*
X146899408Y-74493963D01*
X146797555Y-74294067D01*
X146762767Y-74225790D01*
X146757489Y-74213935D01*
X146649636Y-73932966D01*
X146645625Y-73920623D01*
X146643729Y-73913547D01*
X146567724Y-73629896D01*
X146565028Y-73617205D01*
X146517949Y-73319953D01*
X146516592Y-73307046D01*
X146500670Y-73003243D01*
X146500585Y-73000005D01*
X146944457Y-73000005D01*
X146964606Y-73320283D01*
X146964607Y-73320290D01*
X146964608Y-73320294D01*
X147012579Y-73571769D01*
X147024745Y-73635542D01*
X147123916Y-73940759D01*
X147123918Y-73940764D01*
X147260558Y-74231138D01*
X147260562Y-74231144D01*
X147432520Y-74502108D01*
X147432522Y-74502111D01*
X147637087Y-74749388D01*
X147871034Y-74969078D01*
X147871044Y-74969086D01*
X148130660Y-75157708D01*
X148130666Y-75157711D01*
X148130672Y-75157716D01*
X148411903Y-75312324D01*
X148710294Y-75430466D01*
X148710293Y-75430466D01*
X148884639Y-75475230D01*
X149021139Y-75510277D01*
X149087935Y-75518715D01*
X149339524Y-75550499D01*
X149339533Y-75550499D01*
X149339536Y-75550500D01*
X149339538Y-75550500D01*
X149660462Y-75550500D01*
X149660464Y-75550500D01*
X149660467Y-75550499D01*
X149660475Y-75550499D01*
X149850463Y-75526497D01*
X149978861Y-75510277D01*
X150289706Y-75430466D01*
X150443051Y-75369752D01*
X153289500Y-75369752D01*
X153301131Y-75428229D01*
X153301132Y-75428230D01*
X153345447Y-75494552D01*
X153411769Y-75538867D01*
X153411770Y-75538868D01*
X153470247Y-75550499D01*
X153470250Y-75550500D01*
X153470252Y-75550500D01*
X155209750Y-75550500D01*
X155209751Y-75550499D01*
X155224568Y-75547552D01*
X155268229Y-75538868D01*
X155268229Y-75538867D01*
X155268231Y-75538867D01*
X155334552Y-75494552D01*
X155378867Y-75428231D01*
X155378867Y-75428229D01*
X155378868Y-75428229D01*
X155390499Y-75369752D01*
X155390500Y-75369750D01*
X155390500Y-74500000D01*
X155824417Y-74500000D01*
X155844699Y-74705932D01*
X155844700Y-74705934D01*
X155904768Y-74903954D01*
X156002315Y-75086450D01*
X156002317Y-75086452D01*
X156133589Y-75246410D01*
X156213907Y-75312324D01*
X156293550Y-75377685D01*
X156476046Y-75475232D01*
X156674066Y-75535300D01*
X156674065Y-75535300D01*
X156692529Y-75537118D01*
X156880000Y-75555583D01*
X157085934Y-75535300D01*
X157283954Y-75475232D01*
X157466450Y-75377685D01*
X157626410Y-75246410D01*
X157757685Y-75086450D01*
X157855232Y-74903954D01*
X157915300Y-74705934D01*
X157935583Y-74500000D01*
X158364417Y-74500000D01*
X158384699Y-74705932D01*
X158384700Y-74705934D01*
X158444768Y-74903954D01*
X158542315Y-75086450D01*
X158542317Y-75086452D01*
X158673589Y-75246410D01*
X158753907Y-75312324D01*
X158833550Y-75377685D01*
X159016046Y-75475232D01*
X159214066Y-75535300D01*
X159214065Y-75535300D01*
X159232529Y-75537118D01*
X159420000Y-75555583D01*
X159625934Y-75535300D01*
X159823954Y-75475232D01*
X160006450Y-75377685D01*
X160166410Y-75246410D01*
X160297685Y-75086450D01*
X160395232Y-74903954D01*
X160455300Y-74705934D01*
X160475583Y-74500000D01*
X160904417Y-74500000D01*
X160924699Y-74705932D01*
X160924700Y-74705934D01*
X160984768Y-74903954D01*
X161082315Y-75086450D01*
X161082317Y-75086452D01*
X161213589Y-75246410D01*
X161293907Y-75312324D01*
X161373550Y-75377685D01*
X161556046Y-75475232D01*
X161754066Y-75535300D01*
X161754065Y-75535300D01*
X161772529Y-75537118D01*
X161960000Y-75555583D01*
X162165934Y-75535300D01*
X162363954Y-75475232D01*
X162546450Y-75377685D01*
X162706410Y-75246410D01*
X162837685Y-75086450D01*
X162935232Y-74903954D01*
X162995300Y-74705934D01*
X163015583Y-74500000D01*
X163444417Y-74500000D01*
X163464699Y-74705932D01*
X163464700Y-74705934D01*
X163524768Y-74903954D01*
X163622315Y-75086450D01*
X163622317Y-75086452D01*
X163753589Y-75246410D01*
X163833907Y-75312324D01*
X163913550Y-75377685D01*
X164096046Y-75475232D01*
X164294066Y-75535300D01*
X164294065Y-75535300D01*
X164312529Y-75537118D01*
X164500000Y-75555583D01*
X164705934Y-75535300D01*
X164903954Y-75475232D01*
X165086450Y-75377685D01*
X165246410Y-75246410D01*
X165377685Y-75086450D01*
X165475232Y-74903954D01*
X165535300Y-74705934D01*
X165555583Y-74500000D01*
X165984417Y-74500000D01*
X166004699Y-74705932D01*
X166004700Y-74705934D01*
X166064768Y-74903954D01*
X166162315Y-75086450D01*
X166162317Y-75086452D01*
X166293589Y-75246410D01*
X166373907Y-75312324D01*
X166453550Y-75377685D01*
X166636046Y-75475232D01*
X166834066Y-75535300D01*
X166834065Y-75535300D01*
X166852529Y-75537118D01*
X167040000Y-75555583D01*
X167245934Y-75535300D01*
X167443954Y-75475232D01*
X167626450Y-75377685D01*
X167786410Y-75246410D01*
X167917685Y-75086450D01*
X168015232Y-74903954D01*
X168075300Y-74705934D01*
X168095583Y-74500000D01*
X168524417Y-74500000D01*
X168544699Y-74705932D01*
X168544700Y-74705934D01*
X168604768Y-74903954D01*
X168702315Y-75086450D01*
X168702317Y-75086452D01*
X168833589Y-75246410D01*
X168913907Y-75312324D01*
X168993550Y-75377685D01*
X169176046Y-75475232D01*
X169374066Y-75535300D01*
X169374065Y-75535300D01*
X169392529Y-75537118D01*
X169580000Y-75555583D01*
X169785934Y-75535300D01*
X169983954Y-75475232D01*
X170166450Y-75377685D01*
X170326410Y-75246410D01*
X170457685Y-75086450D01*
X170555232Y-74903954D01*
X170615300Y-74705934D01*
X170635583Y-74500000D01*
X171064417Y-74500000D01*
X171084699Y-74705932D01*
X171084700Y-74705934D01*
X171144768Y-74903954D01*
X171242315Y-75086450D01*
X171242317Y-75086452D01*
X171373589Y-75246410D01*
X171453907Y-75312324D01*
X171533550Y-75377685D01*
X171716046Y-75475232D01*
X171914066Y-75535300D01*
X171914065Y-75535300D01*
X171932529Y-75537118D01*
X172120000Y-75555583D01*
X172325934Y-75535300D01*
X172523954Y-75475232D01*
X172706450Y-75377685D01*
X172866410Y-75246410D01*
X172997685Y-75086450D01*
X173095232Y-74903954D01*
X173155300Y-74705934D01*
X173175583Y-74500000D01*
X173604417Y-74500000D01*
X173624699Y-74705932D01*
X173624700Y-74705934D01*
X173684768Y-74903954D01*
X173782315Y-75086450D01*
X173782317Y-75086452D01*
X173913589Y-75246410D01*
X173993907Y-75312324D01*
X174073550Y-75377685D01*
X174256046Y-75475232D01*
X174454066Y-75535300D01*
X174454065Y-75535300D01*
X174472529Y-75537118D01*
X174660000Y-75555583D01*
X174865934Y-75535300D01*
X175063954Y-75475232D01*
X175246450Y-75377685D01*
X175406410Y-75246410D01*
X175537685Y-75086450D01*
X175635232Y-74903954D01*
X175695300Y-74705934D01*
X175715583Y-74500000D01*
X176144417Y-74500000D01*
X176164699Y-74705932D01*
X176164700Y-74705934D01*
X176224768Y-74903954D01*
X176322315Y-75086450D01*
X176322317Y-75086452D01*
X176453589Y-75246410D01*
X176533907Y-75312324D01*
X176613550Y-75377685D01*
X176796046Y-75475232D01*
X176994066Y-75535300D01*
X176994065Y-75535300D01*
X177012529Y-75537118D01*
X177200000Y-75555583D01*
X177405934Y-75535300D01*
X177603954Y-75475232D01*
X177786450Y-75377685D01*
X177946410Y-75246410D01*
X178077685Y-75086450D01*
X178175232Y-74903954D01*
X178235300Y-74705934D01*
X178255583Y-74500000D01*
X178684417Y-74500000D01*
X178704699Y-74705932D01*
X178704700Y-74705934D01*
X178764768Y-74903954D01*
X178862315Y-75086450D01*
X178862317Y-75086452D01*
X178993589Y-75246410D01*
X179073907Y-75312324D01*
X179153550Y-75377685D01*
X179336046Y-75475232D01*
X179534066Y-75535300D01*
X179534065Y-75535300D01*
X179552529Y-75537118D01*
X179740000Y-75555583D01*
X179945934Y-75535300D01*
X180143954Y-75475232D01*
X180326450Y-75377685D01*
X180486410Y-75246410D01*
X180617685Y-75086450D01*
X180715232Y-74903954D01*
X180775300Y-74705934D01*
X180795583Y-74500000D01*
X181224417Y-74500000D01*
X181244699Y-74705932D01*
X181244700Y-74705934D01*
X181304768Y-74903954D01*
X181402315Y-75086450D01*
X181402317Y-75086452D01*
X181533589Y-75246410D01*
X181613907Y-75312324D01*
X181693550Y-75377685D01*
X181876046Y-75475232D01*
X182074066Y-75535300D01*
X182074065Y-75535300D01*
X182092529Y-75537118D01*
X182280000Y-75555583D01*
X182485934Y-75535300D01*
X182683954Y-75475232D01*
X182866450Y-75377685D01*
X183026410Y-75246410D01*
X183157685Y-75086450D01*
X183255232Y-74903954D01*
X183315300Y-74705934D01*
X183335583Y-74500000D01*
X183764417Y-74500000D01*
X183784699Y-74705932D01*
X183784700Y-74705934D01*
X183844768Y-74903954D01*
X183942315Y-75086450D01*
X183942317Y-75086452D01*
X184073589Y-75246410D01*
X184153907Y-75312324D01*
X184233550Y-75377685D01*
X184416046Y-75475232D01*
X184614066Y-75535300D01*
X184614065Y-75535300D01*
X184632529Y-75537118D01*
X184820000Y-75555583D01*
X185025934Y-75535300D01*
X185223954Y-75475232D01*
X185406450Y-75377685D01*
X185566410Y-75246410D01*
X185697685Y-75086450D01*
X185795232Y-74903954D01*
X185855300Y-74705934D01*
X185875583Y-74500000D01*
X186304417Y-74500000D01*
X186324699Y-74705932D01*
X186324700Y-74705934D01*
X186384768Y-74903954D01*
X186482315Y-75086450D01*
X186482317Y-75086452D01*
X186613589Y-75246410D01*
X186693907Y-75312324D01*
X186773550Y-75377685D01*
X186956046Y-75475232D01*
X187154066Y-75535300D01*
X187154065Y-75535300D01*
X187172529Y-75537118D01*
X187360000Y-75555583D01*
X187565934Y-75535300D01*
X187763954Y-75475232D01*
X187946450Y-75377685D01*
X188106410Y-75246410D01*
X188237685Y-75086450D01*
X188335232Y-74903954D01*
X188395300Y-74705934D01*
X188415583Y-74500000D01*
X188844417Y-74500000D01*
X188864699Y-74705932D01*
X188864700Y-74705934D01*
X188924768Y-74903954D01*
X189022315Y-75086450D01*
X189022317Y-75086452D01*
X189153589Y-75246410D01*
X189233907Y-75312324D01*
X189313550Y-75377685D01*
X189496046Y-75475232D01*
X189694066Y-75535300D01*
X189694065Y-75535300D01*
X189712529Y-75537118D01*
X189900000Y-75555583D01*
X190105934Y-75535300D01*
X190303954Y-75475232D01*
X190486450Y-75377685D01*
X190646410Y-75246410D01*
X190777685Y-75086450D01*
X190875232Y-74903954D01*
X190935300Y-74705934D01*
X190955583Y-74500000D01*
X191384417Y-74500000D01*
X191404699Y-74705932D01*
X191404700Y-74705934D01*
X191464768Y-74903954D01*
X191562315Y-75086450D01*
X191562317Y-75086452D01*
X191693589Y-75246410D01*
X191773907Y-75312324D01*
X191853550Y-75377685D01*
X192036046Y-75475232D01*
X192234066Y-75535300D01*
X192234065Y-75535300D01*
X192252529Y-75537118D01*
X192440000Y-75555583D01*
X192645934Y-75535300D01*
X192843954Y-75475232D01*
X193026450Y-75377685D01*
X193186410Y-75246410D01*
X193317685Y-75086450D01*
X193415232Y-74903954D01*
X193475300Y-74705934D01*
X193495583Y-74500000D01*
X193924417Y-74500000D01*
X193944699Y-74705932D01*
X193944700Y-74705934D01*
X194004768Y-74903954D01*
X194102315Y-75086450D01*
X194102317Y-75086452D01*
X194233589Y-75246410D01*
X194313907Y-75312324D01*
X194393550Y-75377685D01*
X194576046Y-75475232D01*
X194774066Y-75535300D01*
X194774065Y-75535300D01*
X194792529Y-75537118D01*
X194980000Y-75555583D01*
X195185934Y-75535300D01*
X195383954Y-75475232D01*
X195566450Y-75377685D01*
X195726410Y-75246410D01*
X195857685Y-75086450D01*
X195955232Y-74903954D01*
X196015300Y-74705934D01*
X196035583Y-74500000D01*
X196464417Y-74500000D01*
X196484699Y-74705932D01*
X196484700Y-74705934D01*
X196544768Y-74903954D01*
X196642315Y-75086450D01*
X196642317Y-75086452D01*
X196773589Y-75246410D01*
X196853907Y-75312324D01*
X196933550Y-75377685D01*
X197116046Y-75475232D01*
X197314066Y-75535300D01*
X197314065Y-75535300D01*
X197332529Y-75537118D01*
X197520000Y-75555583D01*
X197725934Y-75535300D01*
X197923954Y-75475232D01*
X198106450Y-75377685D01*
X198266410Y-75246410D01*
X198397685Y-75086450D01*
X198495232Y-74903954D01*
X198555300Y-74705934D01*
X198575583Y-74500000D01*
X199004417Y-74500000D01*
X199024699Y-74705932D01*
X199024700Y-74705934D01*
X199084768Y-74903954D01*
X199182315Y-75086450D01*
X199182317Y-75086452D01*
X199313589Y-75246410D01*
X199393907Y-75312324D01*
X199473550Y-75377685D01*
X199656046Y-75475232D01*
X199854066Y-75535300D01*
X199854065Y-75535300D01*
X199872529Y-75537118D01*
X200060000Y-75555583D01*
X200265934Y-75535300D01*
X200463954Y-75475232D01*
X200646450Y-75377685D01*
X200806410Y-75246410D01*
X200937685Y-75086450D01*
X201035232Y-74903954D01*
X201095300Y-74705934D01*
X201115583Y-74500000D01*
X201544417Y-74500000D01*
X201564699Y-74705932D01*
X201564700Y-74705934D01*
X201624768Y-74903954D01*
X201722315Y-75086450D01*
X201722317Y-75086452D01*
X201853589Y-75246410D01*
X201933907Y-75312324D01*
X202013550Y-75377685D01*
X202196046Y-75475232D01*
X202394066Y-75535300D01*
X202394065Y-75535300D01*
X202412529Y-75537118D01*
X202600000Y-75555583D01*
X202805934Y-75535300D01*
X203003954Y-75475232D01*
X203186450Y-75377685D01*
X203346410Y-75246410D01*
X203477685Y-75086450D01*
X203575232Y-74903954D01*
X203635300Y-74705934D01*
X203655583Y-74500000D01*
X203635300Y-74294066D01*
X203575232Y-74096046D01*
X203477685Y-73913550D01*
X203425702Y-73850209D01*
X203346410Y-73753589D01*
X203196121Y-73630252D01*
X203186450Y-73622315D01*
X203003954Y-73524768D01*
X202805934Y-73464700D01*
X202805932Y-73464699D01*
X202805934Y-73464699D01*
X202600000Y-73444417D01*
X202394067Y-73464699D01*
X202196043Y-73524769D01*
X202108114Y-73571769D01*
X202013550Y-73622315D01*
X202013548Y-73622316D01*
X202013547Y-73622317D01*
X201853589Y-73753589D01*
X201722317Y-73913547D01*
X201722315Y-73913550D01*
X201707769Y-73940764D01*
X201624769Y-74096043D01*
X201564699Y-74294067D01*
X201544417Y-74500000D01*
X201115583Y-74500000D01*
X201095300Y-74294066D01*
X201035232Y-74096046D01*
X200937685Y-73913550D01*
X200885702Y-73850209D01*
X200806410Y-73753589D01*
X200656121Y-73630252D01*
X200646450Y-73622315D01*
X200463954Y-73524768D01*
X200265934Y-73464700D01*
X200265932Y-73464699D01*
X200265934Y-73464699D01*
X200060000Y-73444417D01*
X199854067Y-73464699D01*
X199656043Y-73524769D01*
X199568114Y-73571769D01*
X199473550Y-73622315D01*
X199473548Y-73622316D01*
X199473547Y-73622317D01*
X199313589Y-73753589D01*
X199182317Y-73913547D01*
X199182315Y-73913550D01*
X199167769Y-73940764D01*
X199084769Y-74096043D01*
X199024699Y-74294067D01*
X199004417Y-74500000D01*
X198575583Y-74500000D01*
X198555300Y-74294066D01*
X198495232Y-74096046D01*
X198397685Y-73913550D01*
X198345702Y-73850209D01*
X198266410Y-73753589D01*
X198116121Y-73630252D01*
X198106450Y-73622315D01*
X197923954Y-73524768D01*
X197725934Y-73464700D01*
X197725932Y-73464699D01*
X197725934Y-73464699D01*
X197520000Y-73444417D01*
X197314067Y-73464699D01*
X197116043Y-73524769D01*
X197028114Y-73571769D01*
X196933550Y-73622315D01*
X196933548Y-73622316D01*
X196933547Y-73622317D01*
X196773589Y-73753589D01*
X196642317Y-73913547D01*
X196642315Y-73913550D01*
X196627769Y-73940764D01*
X196544769Y-74096043D01*
X196484699Y-74294067D01*
X196464417Y-74500000D01*
X196035583Y-74500000D01*
X196015300Y-74294066D01*
X195955232Y-74096046D01*
X195857685Y-73913550D01*
X195805702Y-73850209D01*
X195726410Y-73753589D01*
X195576121Y-73630252D01*
X195566450Y-73622315D01*
X195383954Y-73524768D01*
X195185934Y-73464700D01*
X195185932Y-73464699D01*
X195185934Y-73464699D01*
X194980000Y-73444417D01*
X194774067Y-73464699D01*
X194576043Y-73524769D01*
X194488114Y-73571769D01*
X194393550Y-73622315D01*
X194393548Y-73622316D01*
X194393547Y-73622317D01*
X194233589Y-73753589D01*
X194102317Y-73913547D01*
X194102315Y-73913550D01*
X194087769Y-73940764D01*
X194004769Y-74096043D01*
X193944699Y-74294067D01*
X193924417Y-74500000D01*
X193495583Y-74500000D01*
X193475300Y-74294066D01*
X193415232Y-74096046D01*
X193317685Y-73913550D01*
X193265702Y-73850209D01*
X193186410Y-73753589D01*
X193036121Y-73630252D01*
X193026450Y-73622315D01*
X192843954Y-73524768D01*
X192645934Y-73464700D01*
X192645932Y-73464699D01*
X192645934Y-73464699D01*
X192440000Y-73444417D01*
X192234067Y-73464699D01*
X192036043Y-73524769D01*
X191948114Y-73571769D01*
X191853550Y-73622315D01*
X191853548Y-73622316D01*
X191853547Y-73622317D01*
X191693589Y-73753589D01*
X191562317Y-73913547D01*
X191562315Y-73913550D01*
X191547769Y-73940764D01*
X191464769Y-74096043D01*
X191404699Y-74294067D01*
X191384417Y-74500000D01*
X190955583Y-74500000D01*
X190935300Y-74294066D01*
X190875232Y-74096046D01*
X190777685Y-73913550D01*
X190725702Y-73850209D01*
X190646410Y-73753589D01*
X190496121Y-73630252D01*
X190486450Y-73622315D01*
X190303954Y-73524768D01*
X190105934Y-73464700D01*
X190105932Y-73464699D01*
X190105934Y-73464699D01*
X189900000Y-73444417D01*
X189694067Y-73464699D01*
X189496043Y-73524769D01*
X189408114Y-73571769D01*
X189313550Y-73622315D01*
X189313548Y-73622316D01*
X189313547Y-73622317D01*
X189153589Y-73753589D01*
X189022317Y-73913547D01*
X189022315Y-73913550D01*
X189007769Y-73940764D01*
X188924769Y-74096043D01*
X188864699Y-74294067D01*
X188844417Y-74500000D01*
X188415583Y-74500000D01*
X188395300Y-74294066D01*
X188335232Y-74096046D01*
X188237685Y-73913550D01*
X188185702Y-73850209D01*
X188106410Y-73753589D01*
X187956121Y-73630252D01*
X187946450Y-73622315D01*
X187763954Y-73524768D01*
X187565934Y-73464700D01*
X187565932Y-73464699D01*
X187565934Y-73464699D01*
X187360000Y-73444417D01*
X187154067Y-73464699D01*
X186956043Y-73524769D01*
X186868114Y-73571769D01*
X186773550Y-73622315D01*
X186773548Y-73622316D01*
X186773547Y-73622317D01*
X186613589Y-73753589D01*
X186482317Y-73913547D01*
X186482315Y-73913550D01*
X186467769Y-73940764D01*
X186384769Y-74096043D01*
X186324699Y-74294067D01*
X186304417Y-74500000D01*
X185875583Y-74500000D01*
X185855300Y-74294066D01*
X185795232Y-74096046D01*
X185697685Y-73913550D01*
X185645702Y-73850209D01*
X185566410Y-73753589D01*
X185416121Y-73630252D01*
X185406450Y-73622315D01*
X185223954Y-73524768D01*
X185025934Y-73464700D01*
X185025932Y-73464699D01*
X185025934Y-73464699D01*
X184820000Y-73444417D01*
X184614067Y-73464699D01*
X184416043Y-73524769D01*
X184328114Y-73571769D01*
X184233550Y-73622315D01*
X184233548Y-73622316D01*
X184233547Y-73622317D01*
X184073589Y-73753589D01*
X183942317Y-73913547D01*
X183942315Y-73913550D01*
X183927769Y-73940764D01*
X183844769Y-74096043D01*
X183784699Y-74294067D01*
X183764417Y-74500000D01*
X183335583Y-74500000D01*
X183315300Y-74294066D01*
X183255232Y-74096046D01*
X183157685Y-73913550D01*
X183105702Y-73850209D01*
X183026410Y-73753589D01*
X182876121Y-73630252D01*
X182866450Y-73622315D01*
X182683954Y-73524768D01*
X182485934Y-73464700D01*
X182485932Y-73464699D01*
X182485934Y-73464699D01*
X182280000Y-73444417D01*
X182074067Y-73464699D01*
X181876043Y-73524769D01*
X181788114Y-73571769D01*
X181693550Y-73622315D01*
X181693548Y-73622316D01*
X181693547Y-73622317D01*
X181533589Y-73753589D01*
X181402317Y-73913547D01*
X181402315Y-73913550D01*
X181387769Y-73940764D01*
X181304769Y-74096043D01*
X181244699Y-74294067D01*
X181224417Y-74500000D01*
X180795583Y-74500000D01*
X180775300Y-74294066D01*
X180715232Y-74096046D01*
X180617685Y-73913550D01*
X180565702Y-73850209D01*
X180486410Y-73753589D01*
X180336121Y-73630252D01*
X180326450Y-73622315D01*
X180143954Y-73524768D01*
X179945934Y-73464700D01*
X179945932Y-73464699D01*
X179945934Y-73464699D01*
X179740000Y-73444417D01*
X179534067Y-73464699D01*
X179336043Y-73524769D01*
X179248114Y-73571769D01*
X179153550Y-73622315D01*
X179153548Y-73622316D01*
X179153547Y-73622317D01*
X178993589Y-73753589D01*
X178862317Y-73913547D01*
X178862315Y-73913550D01*
X178847769Y-73940764D01*
X178764769Y-74096043D01*
X178704699Y-74294067D01*
X178684417Y-74500000D01*
X178255583Y-74500000D01*
X178235300Y-74294066D01*
X178175232Y-74096046D01*
X178077685Y-73913550D01*
X178025702Y-73850209D01*
X177946410Y-73753589D01*
X177796121Y-73630252D01*
X177786450Y-73622315D01*
X177603954Y-73524768D01*
X177405934Y-73464700D01*
X177405932Y-73464699D01*
X177405934Y-73464699D01*
X177200000Y-73444417D01*
X176994067Y-73464699D01*
X176796043Y-73524769D01*
X176708114Y-73571769D01*
X176613550Y-73622315D01*
X176613548Y-73622316D01*
X176613547Y-73622317D01*
X176453589Y-73753589D01*
X176322317Y-73913547D01*
X176322315Y-73913550D01*
X176307769Y-73940764D01*
X176224769Y-74096043D01*
X176164699Y-74294067D01*
X176144417Y-74500000D01*
X175715583Y-74500000D01*
X175695300Y-74294066D01*
X175635232Y-74096046D01*
X175537685Y-73913550D01*
X175485702Y-73850209D01*
X175406410Y-73753589D01*
X175256121Y-73630252D01*
X175246450Y-73622315D01*
X175063954Y-73524768D01*
X174865934Y-73464700D01*
X174865932Y-73464699D01*
X174865934Y-73464699D01*
X174660000Y-73444417D01*
X174454067Y-73464699D01*
X174256043Y-73524769D01*
X174168114Y-73571769D01*
X174073550Y-73622315D01*
X174073548Y-73622316D01*
X174073547Y-73622317D01*
X173913589Y-73753589D01*
X173782317Y-73913547D01*
X173782315Y-73913550D01*
X173767769Y-73940764D01*
X173684769Y-74096043D01*
X173624699Y-74294067D01*
X173604417Y-74500000D01*
X173175583Y-74500000D01*
X173155300Y-74294066D01*
X173095232Y-74096046D01*
X172997685Y-73913550D01*
X172945702Y-73850209D01*
X172866410Y-73753589D01*
X172716121Y-73630252D01*
X172706450Y-73622315D01*
X172523954Y-73524768D01*
X172325934Y-73464700D01*
X172325932Y-73464699D01*
X172325934Y-73464699D01*
X172120000Y-73444417D01*
X171914067Y-73464699D01*
X171716043Y-73524769D01*
X171628114Y-73571769D01*
X171533550Y-73622315D01*
X171533548Y-73622316D01*
X171533547Y-73622317D01*
X171373589Y-73753589D01*
X171242317Y-73913547D01*
X171242315Y-73913550D01*
X171227769Y-73940764D01*
X171144769Y-74096043D01*
X171084699Y-74294067D01*
X171064417Y-74500000D01*
X170635583Y-74500000D01*
X170615300Y-74294066D01*
X170555232Y-74096046D01*
X170457685Y-73913550D01*
X170405702Y-73850209D01*
X170326410Y-73753589D01*
X170176121Y-73630252D01*
X170166450Y-73622315D01*
X169983954Y-73524768D01*
X169785934Y-73464700D01*
X169785932Y-73464699D01*
X169785934Y-73464699D01*
X169580000Y-73444417D01*
X169374067Y-73464699D01*
X169176043Y-73524769D01*
X169088114Y-73571769D01*
X168993550Y-73622315D01*
X168993548Y-73622316D01*
X168993547Y-73622317D01*
X168833589Y-73753589D01*
X168702317Y-73913547D01*
X168702315Y-73913550D01*
X168687769Y-73940764D01*
X168604769Y-74096043D01*
X168544699Y-74294067D01*
X168524417Y-74500000D01*
X168095583Y-74500000D01*
X168075300Y-74294066D01*
X168015232Y-74096046D01*
X167917685Y-73913550D01*
X167865702Y-73850209D01*
X167786410Y-73753589D01*
X167636121Y-73630252D01*
X167626450Y-73622315D01*
X167443954Y-73524768D01*
X167245934Y-73464700D01*
X167245932Y-73464699D01*
X167245934Y-73464699D01*
X167040000Y-73444417D01*
X166834067Y-73464699D01*
X166636043Y-73524769D01*
X166548114Y-73571769D01*
X166453550Y-73622315D01*
X166453548Y-73622316D01*
X166453547Y-73622317D01*
X166293589Y-73753589D01*
X166162317Y-73913547D01*
X166162315Y-73913550D01*
X166147769Y-73940764D01*
X166064769Y-74096043D01*
X166004699Y-74294067D01*
X165984417Y-74500000D01*
X165555583Y-74500000D01*
X165535300Y-74294066D01*
X165475232Y-74096046D01*
X165377685Y-73913550D01*
X165325702Y-73850209D01*
X165246410Y-73753589D01*
X165096121Y-73630252D01*
X165086450Y-73622315D01*
X164903954Y-73524768D01*
X164705934Y-73464700D01*
X164705932Y-73464699D01*
X164705934Y-73464699D01*
X164500000Y-73444417D01*
X164294067Y-73464699D01*
X164096043Y-73524769D01*
X164008114Y-73571769D01*
X163913550Y-73622315D01*
X163913548Y-73622316D01*
X163913547Y-73622317D01*
X163753589Y-73753589D01*
X163622317Y-73913547D01*
X163622315Y-73913550D01*
X163607769Y-73940764D01*
X163524769Y-74096043D01*
X163464699Y-74294067D01*
X163444417Y-74500000D01*
X163015583Y-74500000D01*
X162995300Y-74294066D01*
X162935232Y-74096046D01*
X162837685Y-73913550D01*
X162785702Y-73850209D01*
X162706410Y-73753589D01*
X162556121Y-73630252D01*
X162546450Y-73622315D01*
X162363954Y-73524768D01*
X162165934Y-73464700D01*
X162165932Y-73464699D01*
X162165934Y-73464699D01*
X161960000Y-73444417D01*
X161754067Y-73464699D01*
X161556043Y-73524769D01*
X161468114Y-73571769D01*
X161373550Y-73622315D01*
X161373548Y-73622316D01*
X161373547Y-73622317D01*
X161213589Y-73753589D01*
X161082317Y-73913547D01*
X161082315Y-73913550D01*
X161067769Y-73940764D01*
X160984769Y-74096043D01*
X160924699Y-74294067D01*
X160904417Y-74500000D01*
X160475583Y-74500000D01*
X160455300Y-74294066D01*
X160395232Y-74096046D01*
X160297685Y-73913550D01*
X160245702Y-73850209D01*
X160166410Y-73753589D01*
X160016121Y-73630252D01*
X160006450Y-73622315D01*
X159823954Y-73524768D01*
X159625934Y-73464700D01*
X159625932Y-73464699D01*
X159625934Y-73464699D01*
X159420000Y-73444417D01*
X159214067Y-73464699D01*
X159016043Y-73524769D01*
X158928114Y-73571769D01*
X158833550Y-73622315D01*
X158833548Y-73622316D01*
X158833547Y-73622317D01*
X158673589Y-73753589D01*
X158542317Y-73913547D01*
X158542315Y-73913550D01*
X158527769Y-73940764D01*
X158444769Y-74096043D01*
X158384699Y-74294067D01*
X158364417Y-74500000D01*
X157935583Y-74500000D01*
X157915300Y-74294066D01*
X157855232Y-74096046D01*
X157757685Y-73913550D01*
X157705702Y-73850209D01*
X157626410Y-73753589D01*
X157476121Y-73630252D01*
X157466450Y-73622315D01*
X157283954Y-73524768D01*
X157085934Y-73464700D01*
X157085932Y-73464699D01*
X157085934Y-73464699D01*
X156880000Y-73444417D01*
X156674067Y-73464699D01*
X156476043Y-73524769D01*
X156388114Y-73571769D01*
X156293550Y-73622315D01*
X156293548Y-73622316D01*
X156293547Y-73622317D01*
X156133589Y-73753589D01*
X156002317Y-73913547D01*
X156002315Y-73913550D01*
X155987769Y-73940764D01*
X155904769Y-74096043D01*
X155844699Y-74294067D01*
X155824417Y-74500000D01*
X155390500Y-74500000D01*
X155390500Y-73630249D01*
X155390499Y-73630247D01*
X155378868Y-73571770D01*
X155378867Y-73571769D01*
X155334552Y-73505447D01*
X155268230Y-73461132D01*
X155268229Y-73461131D01*
X155209752Y-73449500D01*
X155209748Y-73449500D01*
X153470252Y-73449500D01*
X153470247Y-73449500D01*
X153411770Y-73461131D01*
X153411769Y-73461132D01*
X153345447Y-73505447D01*
X153301132Y-73571769D01*
X153301131Y-73571770D01*
X153289500Y-73630247D01*
X153289500Y-75369752D01*
X150443051Y-75369752D01*
X150588097Y-75312324D01*
X150869328Y-75157716D01*
X151128964Y-74969080D01*
X151362911Y-74749390D01*
X151567478Y-74502110D01*
X151739439Y-74231142D01*
X151876084Y-73940758D01*
X151975256Y-73635538D01*
X152035392Y-73320294D01*
X152035393Y-73320283D01*
X152055543Y-73000005D01*
X152055543Y-72999994D01*
X152035393Y-72679716D01*
X152035392Y-72679709D01*
X152035392Y-72679706D01*
X151975256Y-72364462D01*
X151876084Y-72059242D01*
X151829384Y-71960000D01*
X158364417Y-71960000D01*
X158384699Y-72165932D01*
X158444769Y-72363956D01*
X158451502Y-72376554D01*
X158542315Y-72546450D01*
X158542317Y-72546452D01*
X158673589Y-72706410D01*
X158770209Y-72785702D01*
X158833550Y-72837685D01*
X159016046Y-72935232D01*
X159214066Y-72995300D01*
X159214065Y-72995300D01*
X159228818Y-72996753D01*
X159420000Y-73015583D01*
X159625934Y-72995300D01*
X159823954Y-72935232D01*
X160006450Y-72837685D01*
X160166410Y-72706410D01*
X160297685Y-72546450D01*
X160395232Y-72363954D01*
X160455300Y-72165934D01*
X160475583Y-71960000D01*
X160904417Y-71960000D01*
X160924699Y-72165932D01*
X160984769Y-72363956D01*
X160991502Y-72376554D01*
X161082315Y-72546450D01*
X161082317Y-72546452D01*
X161213589Y-72706410D01*
X161310209Y-72785702D01*
X161373550Y-72837685D01*
X161556046Y-72935232D01*
X161754066Y-72995300D01*
X161754065Y-72995300D01*
X161768818Y-72996753D01*
X161960000Y-73015583D01*
X162165934Y-72995300D01*
X162363954Y-72935232D01*
X162546450Y-72837685D01*
X162706410Y-72706410D01*
X162837685Y-72546450D01*
X162935232Y-72363954D01*
X162995300Y-72165934D01*
X163015583Y-71960000D01*
X163444417Y-71960000D01*
X163464699Y-72165932D01*
X163524769Y-72363956D01*
X163531502Y-72376554D01*
X163622315Y-72546450D01*
X163622317Y-72546452D01*
X163753589Y-72706410D01*
X163850209Y-72785702D01*
X163913550Y-72837685D01*
X164096046Y-72935232D01*
X164294066Y-72995300D01*
X164294065Y-72995300D01*
X164308818Y-72996753D01*
X164500000Y-73015583D01*
X164705934Y-72995300D01*
X164903954Y-72935232D01*
X165086450Y-72837685D01*
X165246410Y-72706410D01*
X165377685Y-72546450D01*
X165475232Y-72363954D01*
X165535300Y-72165934D01*
X165555583Y-71960000D01*
X165535300Y-71754066D01*
X165475232Y-71556046D01*
X165377685Y-71373550D01*
X165325702Y-71310209D01*
X165246410Y-71213589D01*
X165128476Y-71116805D01*
X165086450Y-71082315D01*
X164903954Y-70984768D01*
X164705934Y-70924700D01*
X164705932Y-70924699D01*
X164705934Y-70924699D01*
X164500000Y-70904417D01*
X164294067Y-70924699D01*
X164096043Y-70984769D01*
X163985898Y-71043643D01*
X163913550Y-71082315D01*
X163913548Y-71082316D01*
X163913547Y-71082317D01*
X163753589Y-71213589D01*
X163622317Y-71373547D01*
X163524769Y-71556043D01*
X163464699Y-71754067D01*
X163444417Y-71960000D01*
X163015583Y-71960000D01*
X162995300Y-71754066D01*
X162935232Y-71556046D01*
X162837685Y-71373550D01*
X162785702Y-71310209D01*
X162706410Y-71213589D01*
X162588476Y-71116805D01*
X162546450Y-71082315D01*
X162363954Y-70984768D01*
X162165934Y-70924700D01*
X162165932Y-70924699D01*
X162165934Y-70924699D01*
X161960000Y-70904417D01*
X161754067Y-70924699D01*
X161556043Y-70984769D01*
X161445898Y-71043643D01*
X161373550Y-71082315D01*
X161373548Y-71082316D01*
X161373547Y-71082317D01*
X161213589Y-71213589D01*
X161082317Y-71373547D01*
X160984769Y-71556043D01*
X160924699Y-71754067D01*
X160904417Y-71960000D01*
X160475583Y-71960000D01*
X160455300Y-71754066D01*
X160395232Y-71556046D01*
X160297685Y-71373550D01*
X160245702Y-71310209D01*
X160166410Y-71213589D01*
X160048476Y-71116805D01*
X160006450Y-71082315D01*
X159823954Y-70984768D01*
X159625934Y-70924700D01*
X159625932Y-70924699D01*
X159625934Y-70924699D01*
X159420000Y-70904417D01*
X159214067Y-70924699D01*
X159016043Y-70984769D01*
X158905898Y-71043643D01*
X158833550Y-71082315D01*
X158833548Y-71082316D01*
X158833547Y-71082317D01*
X158673589Y-71213589D01*
X158542317Y-71373547D01*
X158444769Y-71556043D01*
X158384699Y-71754067D01*
X158364417Y-71960000D01*
X151829384Y-71960000D01*
X151739441Y-71768861D01*
X151739437Y-71768855D01*
X151567479Y-71497891D01*
X151567477Y-71497888D01*
X151362912Y-71250611D01*
X151323489Y-71213590D01*
X151128964Y-71030920D01*
X151128961Y-71030918D01*
X151128955Y-71030913D01*
X150869339Y-70842291D01*
X150869321Y-70842280D01*
X150588096Y-70687675D01*
X150588093Y-70687674D01*
X150366654Y-70600000D01*
X165394353Y-70600000D01*
X165414834Y-70742456D01*
X165460423Y-70842280D01*
X165474623Y-70873373D01*
X165568872Y-70982143D01*
X165689947Y-71059953D01*
X165689950Y-71059954D01*
X165689949Y-71059954D01*
X165828036Y-71100499D01*
X165828038Y-71100500D01*
X165828039Y-71100500D01*
X165971962Y-71100500D01*
X165971962Y-71100499D01*
X166095398Y-71064256D01*
X166110050Y-71059954D01*
X166110050Y-71059953D01*
X166110053Y-71059953D01*
X166110054Y-71059951D01*
X166118118Y-71056270D01*
X166119709Y-71059753D01*
X166169129Y-71044944D01*
X166236277Y-71064256D01*
X166282325Y-71116805D01*
X166292652Y-71185907D01*
X166265672Y-71247606D01*
X166162317Y-71373546D01*
X166064769Y-71556043D01*
X166004699Y-71754067D01*
X165984417Y-71960000D01*
X166004699Y-72165932D01*
X166064769Y-72363956D01*
X166071502Y-72376554D01*
X166162315Y-72546450D01*
X166162317Y-72546452D01*
X166293589Y-72706410D01*
X166390209Y-72785702D01*
X166453550Y-72837685D01*
X166636046Y-72935232D01*
X166834066Y-72995300D01*
X166834065Y-72995300D01*
X166848818Y-72996753D01*
X167040000Y-73015583D01*
X167245934Y-72995300D01*
X167443954Y-72935232D01*
X167626450Y-72837685D01*
X167786410Y-72706410D01*
X167917685Y-72546450D01*
X168015232Y-72363954D01*
X168075300Y-72165934D01*
X168095583Y-71960000D01*
X168524417Y-71960000D01*
X168544699Y-72165932D01*
X168604769Y-72363956D01*
X168611502Y-72376554D01*
X168702315Y-72546450D01*
X168702317Y-72546452D01*
X168833589Y-72706410D01*
X168930209Y-72785702D01*
X168993550Y-72837685D01*
X169176046Y-72935232D01*
X169374066Y-72995300D01*
X169374065Y-72995300D01*
X169388818Y-72996753D01*
X169580000Y-73015583D01*
X169785934Y-72995300D01*
X169983954Y-72935232D01*
X170166450Y-72837685D01*
X170326410Y-72706410D01*
X170457685Y-72546450D01*
X170555232Y-72363954D01*
X170615300Y-72165934D01*
X170635583Y-71960000D01*
X171064417Y-71960000D01*
X171084699Y-72165932D01*
X171144769Y-72363956D01*
X171151502Y-72376554D01*
X171242315Y-72546450D01*
X171242317Y-72546452D01*
X171373589Y-72706410D01*
X171470209Y-72785702D01*
X171533550Y-72837685D01*
X171716046Y-72935232D01*
X171914066Y-72995300D01*
X171914065Y-72995300D01*
X171928818Y-72996753D01*
X172120000Y-73015583D01*
X172325934Y-72995300D01*
X172523954Y-72935232D01*
X172706450Y-72837685D01*
X172866410Y-72706410D01*
X172997685Y-72546450D01*
X173095232Y-72363954D01*
X173155300Y-72165934D01*
X173175583Y-71960000D01*
X173604417Y-71960000D01*
X173624699Y-72165932D01*
X173684769Y-72363956D01*
X173691502Y-72376554D01*
X173782315Y-72546450D01*
X173782317Y-72546452D01*
X173913589Y-72706410D01*
X174010209Y-72785702D01*
X174073550Y-72837685D01*
X174256046Y-72935232D01*
X174454066Y-72995300D01*
X174454065Y-72995300D01*
X174468818Y-72996753D01*
X174660000Y-73015583D01*
X174865934Y-72995300D01*
X175063954Y-72935232D01*
X175246450Y-72837685D01*
X175406410Y-72706410D01*
X175537685Y-72546450D01*
X175635232Y-72363954D01*
X175695300Y-72165934D01*
X175715583Y-71960000D01*
X176144417Y-71960000D01*
X176164699Y-72165932D01*
X176224769Y-72363956D01*
X176231502Y-72376554D01*
X176322315Y-72546450D01*
X176322317Y-72546452D01*
X176453589Y-72706410D01*
X176550209Y-72785702D01*
X176613550Y-72837685D01*
X176796046Y-72935232D01*
X176994066Y-72995300D01*
X176994065Y-72995300D01*
X177008818Y-72996753D01*
X177200000Y-73015583D01*
X177405934Y-72995300D01*
X177603954Y-72935232D01*
X177786450Y-72837685D01*
X177946410Y-72706410D01*
X178077685Y-72546450D01*
X178175232Y-72363954D01*
X178235300Y-72165934D01*
X178255583Y-71960000D01*
X178684417Y-71960000D01*
X178704699Y-72165932D01*
X178764769Y-72363956D01*
X178771502Y-72376554D01*
X178862315Y-72546450D01*
X178862317Y-72546452D01*
X178993589Y-72706410D01*
X179090209Y-72785702D01*
X179153550Y-72837685D01*
X179336046Y-72935232D01*
X179534066Y-72995300D01*
X179534065Y-72995300D01*
X179548818Y-72996753D01*
X179740000Y-73015583D01*
X179945934Y-72995300D01*
X180143954Y-72935232D01*
X180326450Y-72837685D01*
X180486410Y-72706410D01*
X180617685Y-72546450D01*
X180715232Y-72363954D01*
X180775300Y-72165934D01*
X180795583Y-71960000D01*
X181224417Y-71960000D01*
X181244699Y-72165932D01*
X181304769Y-72363956D01*
X181311502Y-72376554D01*
X181402315Y-72546450D01*
X181402317Y-72546452D01*
X181533589Y-72706410D01*
X181630209Y-72785702D01*
X181693550Y-72837685D01*
X181876046Y-72935232D01*
X182074066Y-72995300D01*
X182074065Y-72995300D01*
X182088818Y-72996753D01*
X182280000Y-73015583D01*
X182485934Y-72995300D01*
X182683954Y-72935232D01*
X182866450Y-72837685D01*
X183026410Y-72706410D01*
X183157685Y-72546450D01*
X183255232Y-72363954D01*
X183315300Y-72165934D01*
X183335583Y-71960000D01*
X183764417Y-71960000D01*
X183784699Y-72165932D01*
X183844769Y-72363956D01*
X183851502Y-72376554D01*
X183942315Y-72546450D01*
X183942317Y-72546452D01*
X184073589Y-72706410D01*
X184170209Y-72785702D01*
X184233550Y-72837685D01*
X184416046Y-72935232D01*
X184614066Y-72995300D01*
X184614065Y-72995300D01*
X184628818Y-72996753D01*
X184820000Y-73015583D01*
X185025934Y-72995300D01*
X185223954Y-72935232D01*
X185406450Y-72837685D01*
X185566410Y-72706410D01*
X185697685Y-72546450D01*
X185795232Y-72363954D01*
X185855300Y-72165934D01*
X185875583Y-71960000D01*
X186304417Y-71960000D01*
X186324699Y-72165932D01*
X186384769Y-72363956D01*
X186391502Y-72376554D01*
X186482315Y-72546450D01*
X186482317Y-72546452D01*
X186613589Y-72706410D01*
X186710209Y-72785702D01*
X186773550Y-72837685D01*
X186956046Y-72935232D01*
X187154066Y-72995300D01*
X187154065Y-72995300D01*
X187168818Y-72996753D01*
X187360000Y-73015583D01*
X187565934Y-72995300D01*
X187763954Y-72935232D01*
X187946450Y-72837685D01*
X188106410Y-72706410D01*
X188237685Y-72546450D01*
X188335232Y-72363954D01*
X188395300Y-72165934D01*
X188415583Y-71960000D01*
X188844417Y-71960000D01*
X188864699Y-72165932D01*
X188924769Y-72363956D01*
X188931502Y-72376554D01*
X189022315Y-72546450D01*
X189022317Y-72546452D01*
X189153589Y-72706410D01*
X189250209Y-72785702D01*
X189313550Y-72837685D01*
X189496046Y-72935232D01*
X189694066Y-72995300D01*
X189694065Y-72995300D01*
X189708818Y-72996753D01*
X189900000Y-73015583D01*
X190105934Y-72995300D01*
X190303954Y-72935232D01*
X190486450Y-72837685D01*
X190646410Y-72706410D01*
X190777685Y-72546450D01*
X190875232Y-72363954D01*
X190935300Y-72165934D01*
X190955583Y-71960000D01*
X191384417Y-71960000D01*
X191404699Y-72165932D01*
X191464769Y-72363956D01*
X191471502Y-72376554D01*
X191562315Y-72546450D01*
X191562317Y-72546452D01*
X191693589Y-72706410D01*
X191790209Y-72785702D01*
X191853550Y-72837685D01*
X192036046Y-72935232D01*
X192234066Y-72995300D01*
X192234065Y-72995300D01*
X192248818Y-72996753D01*
X192440000Y-73015583D01*
X192645934Y-72995300D01*
X192843954Y-72935232D01*
X193026450Y-72837685D01*
X193186410Y-72706410D01*
X193317685Y-72546450D01*
X193415232Y-72363954D01*
X193475300Y-72165934D01*
X193495583Y-71960000D01*
X193924417Y-71960000D01*
X193944699Y-72165932D01*
X194004769Y-72363956D01*
X194011502Y-72376554D01*
X194102315Y-72546450D01*
X194102317Y-72546452D01*
X194233589Y-72706410D01*
X194330209Y-72785702D01*
X194393550Y-72837685D01*
X194576046Y-72935232D01*
X194774066Y-72995300D01*
X194774065Y-72995300D01*
X194788818Y-72996753D01*
X194980000Y-73015583D01*
X195185934Y-72995300D01*
X195383954Y-72935232D01*
X195566450Y-72837685D01*
X195726410Y-72706410D01*
X195857685Y-72546450D01*
X195955232Y-72363954D01*
X196015300Y-72165934D01*
X196035583Y-71960000D01*
X196464417Y-71960000D01*
X196484699Y-72165932D01*
X196544769Y-72363956D01*
X196551502Y-72376554D01*
X196642315Y-72546450D01*
X196642317Y-72546452D01*
X196773589Y-72706410D01*
X196870209Y-72785702D01*
X196933550Y-72837685D01*
X197116046Y-72935232D01*
X197314066Y-72995300D01*
X197314065Y-72995300D01*
X197328818Y-72996753D01*
X197520000Y-73015583D01*
X197725934Y-72995300D01*
X197923954Y-72935232D01*
X198106450Y-72837685D01*
X198266410Y-72706410D01*
X198397685Y-72546450D01*
X198495232Y-72363954D01*
X198555300Y-72165934D01*
X198575583Y-71960000D01*
X199004417Y-71960000D01*
X199024699Y-72165932D01*
X199084769Y-72363956D01*
X199091502Y-72376554D01*
X199182315Y-72546450D01*
X199182317Y-72546452D01*
X199313589Y-72706410D01*
X199410209Y-72785702D01*
X199473550Y-72837685D01*
X199656046Y-72935232D01*
X199854066Y-72995300D01*
X199854065Y-72995300D01*
X199868818Y-72996753D01*
X200060000Y-73015583D01*
X200265934Y-72995300D01*
X200463954Y-72935232D01*
X200646450Y-72837685D01*
X200806410Y-72706410D01*
X200937685Y-72546450D01*
X201035232Y-72363954D01*
X201095300Y-72165934D01*
X201115583Y-71960000D01*
X201544417Y-71960000D01*
X201564699Y-72165932D01*
X201624769Y-72363956D01*
X201631502Y-72376554D01*
X201722315Y-72546450D01*
X201722317Y-72546452D01*
X201853589Y-72706410D01*
X201950209Y-72785702D01*
X202013550Y-72837685D01*
X202196046Y-72935232D01*
X202394066Y-72995300D01*
X202394065Y-72995300D01*
X202408818Y-72996753D01*
X202600000Y-73015583D01*
X202758164Y-73000005D01*
X204944457Y-73000005D01*
X204964606Y-73320283D01*
X204964607Y-73320290D01*
X204964608Y-73320294D01*
X205012579Y-73571769D01*
X205024745Y-73635542D01*
X205123916Y-73940759D01*
X205123918Y-73940764D01*
X205260558Y-74231138D01*
X205260562Y-74231144D01*
X205432520Y-74502108D01*
X205432522Y-74502111D01*
X205637087Y-74749388D01*
X205871034Y-74969078D01*
X205871044Y-74969086D01*
X206130660Y-75157708D01*
X206130666Y-75157711D01*
X206130672Y-75157716D01*
X206411903Y-75312324D01*
X206710294Y-75430466D01*
X206710293Y-75430466D01*
X206884639Y-75475230D01*
X207021139Y-75510277D01*
X207087935Y-75518715D01*
X207339524Y-75550499D01*
X207339533Y-75550499D01*
X207339536Y-75550500D01*
X207339538Y-75550500D01*
X207660462Y-75550500D01*
X207660464Y-75550500D01*
X207660467Y-75550499D01*
X207660475Y-75550499D01*
X207850463Y-75526497D01*
X207978861Y-75510277D01*
X208289706Y-75430466D01*
X208588097Y-75312324D01*
X208869328Y-75157716D01*
X209128964Y-74969080D01*
X209362911Y-74749390D01*
X209567478Y-74502110D01*
X209739439Y-74231142D01*
X209876084Y-73940758D01*
X209975256Y-73635538D01*
X210035392Y-73320294D01*
X210035393Y-73320283D01*
X210055543Y-73000005D01*
X210055543Y-72999994D01*
X210035393Y-72679716D01*
X210035392Y-72679709D01*
X210035392Y-72679706D01*
X209975256Y-72364462D01*
X209876084Y-72059242D01*
X209829384Y-71960000D01*
X209739441Y-71768861D01*
X209739437Y-71768855D01*
X209567479Y-71497891D01*
X209567477Y-71497888D01*
X209362912Y-71250611D01*
X209323489Y-71213590D01*
X209128964Y-71030920D01*
X209128961Y-71030918D01*
X209128955Y-71030913D01*
X208869339Y-70842291D01*
X208869321Y-70842280D01*
X208588096Y-70687675D01*
X208588093Y-70687674D01*
X208289703Y-70569533D01*
X208289706Y-70569533D01*
X207978864Y-70489723D01*
X207978851Y-70489721D01*
X207660475Y-70449500D01*
X207660464Y-70449500D01*
X207339536Y-70449500D01*
X207339524Y-70449500D01*
X207021148Y-70489721D01*
X207021135Y-70489723D01*
X206710294Y-70569533D01*
X206411906Y-70687674D01*
X206411903Y-70687675D01*
X206130678Y-70842280D01*
X206130660Y-70842291D01*
X205871044Y-71030913D01*
X205871034Y-71030921D01*
X205637087Y-71250611D01*
X205432522Y-71497888D01*
X205432520Y-71497891D01*
X205260562Y-71768855D01*
X205260558Y-71768861D01*
X205123918Y-72059235D01*
X205123916Y-72059240D01*
X205024745Y-72364457D01*
X204964607Y-72679709D01*
X204964606Y-72679716D01*
X204944457Y-72999994D01*
X204944457Y-73000005D01*
X202758164Y-73000005D01*
X202805934Y-72995300D01*
X203003954Y-72935232D01*
X203186450Y-72837685D01*
X203346410Y-72706410D01*
X203477685Y-72546450D01*
X203575232Y-72363954D01*
X203635300Y-72165934D01*
X203655583Y-71960000D01*
X203635300Y-71754066D01*
X203575232Y-71556046D01*
X203477685Y-71373550D01*
X203425702Y-71310209D01*
X203346410Y-71213589D01*
X203228476Y-71116805D01*
X203186450Y-71082315D01*
X203003954Y-70984768D01*
X202805934Y-70924700D01*
X202805932Y-70924699D01*
X202805934Y-70924699D01*
X202600000Y-70904417D01*
X202394067Y-70924699D01*
X202196043Y-70984769D01*
X202085898Y-71043643D01*
X202013550Y-71082315D01*
X202013548Y-71082316D01*
X202013547Y-71082317D01*
X201853589Y-71213589D01*
X201722317Y-71373547D01*
X201624769Y-71556043D01*
X201564699Y-71754067D01*
X201544417Y-71960000D01*
X201115583Y-71960000D01*
X201095300Y-71754066D01*
X201035232Y-71556046D01*
X200937685Y-71373550D01*
X200885702Y-71310209D01*
X200806410Y-71213589D01*
X200688476Y-71116805D01*
X200646450Y-71082315D01*
X200463954Y-70984768D01*
X200265934Y-70924700D01*
X200265932Y-70924699D01*
X200265934Y-70924699D01*
X200060000Y-70904417D01*
X199854067Y-70924699D01*
X199656043Y-70984769D01*
X199545898Y-71043643D01*
X199473550Y-71082315D01*
X199473548Y-71082316D01*
X199473547Y-71082317D01*
X199313589Y-71213589D01*
X199182317Y-71373547D01*
X199084769Y-71556043D01*
X199024699Y-71754067D01*
X199004417Y-71960000D01*
X198575583Y-71960000D01*
X198555300Y-71754066D01*
X198495232Y-71556046D01*
X198397685Y-71373550D01*
X198345702Y-71310209D01*
X198266410Y-71213589D01*
X198148476Y-71116805D01*
X198106450Y-71082315D01*
X197923954Y-70984768D01*
X197725934Y-70924700D01*
X197725932Y-70924699D01*
X197725934Y-70924699D01*
X197520000Y-70904417D01*
X197314067Y-70924699D01*
X197116043Y-70984769D01*
X197005898Y-71043643D01*
X196933550Y-71082315D01*
X196933548Y-71082316D01*
X196933547Y-71082317D01*
X196773589Y-71213589D01*
X196642317Y-71373547D01*
X196544769Y-71556043D01*
X196484699Y-71754067D01*
X196464417Y-71960000D01*
X196035583Y-71960000D01*
X196015300Y-71754066D01*
X195955232Y-71556046D01*
X195857685Y-71373550D01*
X195805702Y-71310209D01*
X195726410Y-71213589D01*
X195608476Y-71116805D01*
X195566450Y-71082315D01*
X195383954Y-70984768D01*
X195185934Y-70924700D01*
X195185932Y-70924699D01*
X195185934Y-70924699D01*
X194980000Y-70904417D01*
X194774067Y-70924699D01*
X194576043Y-70984769D01*
X194465898Y-71043643D01*
X194393550Y-71082315D01*
X194393548Y-71082316D01*
X194393547Y-71082317D01*
X194233589Y-71213589D01*
X194102317Y-71373547D01*
X194004769Y-71556043D01*
X193944699Y-71754067D01*
X193924417Y-71960000D01*
X193495583Y-71960000D01*
X193475300Y-71754066D01*
X193415232Y-71556046D01*
X193317685Y-71373550D01*
X193265702Y-71310209D01*
X193186410Y-71213589D01*
X193068476Y-71116805D01*
X193026450Y-71082315D01*
X192843954Y-70984768D01*
X192645934Y-70924700D01*
X192645932Y-70924699D01*
X192645934Y-70924699D01*
X192440000Y-70904417D01*
X192234067Y-70924699D01*
X192036043Y-70984769D01*
X191925898Y-71043643D01*
X191853550Y-71082315D01*
X191853548Y-71082316D01*
X191853547Y-71082317D01*
X191693589Y-71213589D01*
X191562317Y-71373547D01*
X191464769Y-71556043D01*
X191404699Y-71754067D01*
X191384417Y-71960000D01*
X190955583Y-71960000D01*
X190935300Y-71754066D01*
X190875232Y-71556046D01*
X190777685Y-71373550D01*
X190725702Y-71310209D01*
X190646410Y-71213589D01*
X190528476Y-71116805D01*
X190486450Y-71082315D01*
X190303954Y-70984768D01*
X190105934Y-70924700D01*
X190105932Y-70924699D01*
X190105934Y-70924699D01*
X189900000Y-70904417D01*
X189694067Y-70924699D01*
X189496043Y-70984769D01*
X189385898Y-71043643D01*
X189313550Y-71082315D01*
X189313548Y-71082316D01*
X189313547Y-71082317D01*
X189153589Y-71213589D01*
X189022317Y-71373547D01*
X188924769Y-71556043D01*
X188864699Y-71754067D01*
X188844417Y-71960000D01*
X188415583Y-71960000D01*
X188395300Y-71754066D01*
X188335232Y-71556046D01*
X188237685Y-71373550D01*
X188185702Y-71310209D01*
X188106410Y-71213589D01*
X187988476Y-71116805D01*
X187946450Y-71082315D01*
X187763954Y-70984768D01*
X187565934Y-70924700D01*
X187565932Y-70924699D01*
X187565934Y-70924699D01*
X187360000Y-70904417D01*
X187154067Y-70924699D01*
X186956043Y-70984769D01*
X186845898Y-71043643D01*
X186773550Y-71082315D01*
X186773548Y-71082316D01*
X186773547Y-71082317D01*
X186613589Y-71213589D01*
X186482317Y-71373547D01*
X186384769Y-71556043D01*
X186324699Y-71754067D01*
X186304417Y-71960000D01*
X185875583Y-71960000D01*
X185855300Y-71754066D01*
X185795232Y-71556046D01*
X185697685Y-71373550D01*
X185645702Y-71310209D01*
X185566410Y-71213589D01*
X185448476Y-71116805D01*
X185406450Y-71082315D01*
X185223954Y-70984768D01*
X185025934Y-70924700D01*
X185025932Y-70924699D01*
X185025934Y-70924699D01*
X184820000Y-70904417D01*
X184614067Y-70924699D01*
X184416043Y-70984769D01*
X184305898Y-71043643D01*
X184233550Y-71082315D01*
X184233548Y-71082316D01*
X184233547Y-71082317D01*
X184073589Y-71213589D01*
X183942317Y-71373547D01*
X183844769Y-71556043D01*
X183784699Y-71754067D01*
X183764417Y-71960000D01*
X183335583Y-71960000D01*
X183315300Y-71754066D01*
X183255232Y-71556046D01*
X183157685Y-71373550D01*
X183105702Y-71310209D01*
X183026410Y-71213589D01*
X182908476Y-71116805D01*
X182866450Y-71082315D01*
X182683954Y-70984768D01*
X182485934Y-70924700D01*
X182485932Y-70924699D01*
X182485934Y-70924699D01*
X182280000Y-70904417D01*
X182074067Y-70924699D01*
X181876043Y-70984769D01*
X181765898Y-71043643D01*
X181693550Y-71082315D01*
X181693548Y-71082316D01*
X181693547Y-71082317D01*
X181533589Y-71213589D01*
X181402317Y-71373547D01*
X181304769Y-71556043D01*
X181244699Y-71754067D01*
X181224417Y-71960000D01*
X180795583Y-71960000D01*
X180775300Y-71754066D01*
X180715232Y-71556046D01*
X180617685Y-71373550D01*
X180565702Y-71310209D01*
X180486410Y-71213589D01*
X180368476Y-71116805D01*
X180326450Y-71082315D01*
X180143954Y-70984768D01*
X179945934Y-70924700D01*
X179945932Y-70924699D01*
X179945934Y-70924699D01*
X179740000Y-70904417D01*
X179534067Y-70924699D01*
X179336043Y-70984769D01*
X179225898Y-71043643D01*
X179153550Y-71082315D01*
X179153548Y-71082316D01*
X179153547Y-71082317D01*
X178993589Y-71213589D01*
X178862317Y-71373547D01*
X178764769Y-71556043D01*
X178704699Y-71754067D01*
X178684417Y-71960000D01*
X178255583Y-71960000D01*
X178235300Y-71754066D01*
X178175232Y-71556046D01*
X178077685Y-71373550D01*
X178025702Y-71310209D01*
X177946410Y-71213589D01*
X177828476Y-71116805D01*
X177786450Y-71082315D01*
X177603954Y-70984768D01*
X177405934Y-70924700D01*
X177405932Y-70924699D01*
X177405934Y-70924699D01*
X177200000Y-70904417D01*
X176994067Y-70924699D01*
X176796043Y-70984769D01*
X176685898Y-71043643D01*
X176613550Y-71082315D01*
X176613548Y-71082316D01*
X176613547Y-71082317D01*
X176453589Y-71213589D01*
X176322317Y-71373547D01*
X176224769Y-71556043D01*
X176164699Y-71754067D01*
X176144417Y-71960000D01*
X175715583Y-71960000D01*
X175695300Y-71754066D01*
X175635232Y-71556046D01*
X175537685Y-71373550D01*
X175485702Y-71310209D01*
X175406410Y-71213589D01*
X175288476Y-71116805D01*
X175246450Y-71082315D01*
X175063954Y-70984768D01*
X174865934Y-70924700D01*
X174865932Y-70924699D01*
X174865934Y-70924699D01*
X174660000Y-70904417D01*
X174454067Y-70924699D01*
X174256043Y-70984769D01*
X174145898Y-71043643D01*
X174073550Y-71082315D01*
X174073548Y-71082316D01*
X174073547Y-71082317D01*
X173913589Y-71213589D01*
X173782317Y-71373547D01*
X173684769Y-71556043D01*
X173624699Y-71754067D01*
X173604417Y-71960000D01*
X173175583Y-71960000D01*
X173155300Y-71754066D01*
X173095232Y-71556046D01*
X172997685Y-71373550D01*
X172945702Y-71310209D01*
X172866410Y-71213589D01*
X172748476Y-71116805D01*
X172706450Y-71082315D01*
X172523954Y-70984768D01*
X172325934Y-70924700D01*
X172325932Y-70924699D01*
X172325934Y-70924699D01*
X172120000Y-70904417D01*
X171914067Y-70924699D01*
X171716043Y-70984769D01*
X171605898Y-71043643D01*
X171533550Y-71082315D01*
X171533548Y-71082316D01*
X171533547Y-71082317D01*
X171373589Y-71213589D01*
X171242317Y-71373547D01*
X171144769Y-71556043D01*
X171084699Y-71754067D01*
X171064417Y-71960000D01*
X170635583Y-71960000D01*
X170615300Y-71754066D01*
X170555232Y-71556046D01*
X170457685Y-71373550D01*
X170405702Y-71310209D01*
X170326410Y-71213589D01*
X170208476Y-71116805D01*
X170166450Y-71082315D01*
X169983954Y-70984768D01*
X169785934Y-70924700D01*
X169785932Y-70924699D01*
X169785934Y-70924699D01*
X169580000Y-70904417D01*
X169374067Y-70924699D01*
X169176043Y-70984769D01*
X169065898Y-71043643D01*
X168993550Y-71082315D01*
X168993548Y-71082316D01*
X168993547Y-71082317D01*
X168833589Y-71213589D01*
X168702317Y-71373547D01*
X168604769Y-71556043D01*
X168544699Y-71754067D01*
X168524417Y-71960000D01*
X168095583Y-71960000D01*
X168075300Y-71754066D01*
X168015232Y-71556046D01*
X167917685Y-71373550D01*
X167865702Y-71310209D01*
X167786410Y-71213589D01*
X167668476Y-71116805D01*
X167626450Y-71082315D01*
X167443954Y-70984768D01*
X167245934Y-70924700D01*
X167245932Y-70924699D01*
X167245934Y-70924699D01*
X167040000Y-70904417D01*
X166834067Y-70924699D01*
X166636043Y-70984769D01*
X166468575Y-71074284D01*
X166400172Y-71088526D01*
X166334928Y-71063526D01*
X166293557Y-71007221D01*
X166289195Y-70937488D01*
X166316408Y-70883723D01*
X166325377Y-70873373D01*
X166385165Y-70742457D01*
X166405647Y-70600000D01*
X166385165Y-70457543D01*
X166325377Y-70326627D01*
X166231128Y-70217857D01*
X166110053Y-70140047D01*
X166110051Y-70140046D01*
X166110049Y-70140045D01*
X166110050Y-70140045D01*
X165971963Y-70099500D01*
X165971961Y-70099500D01*
X165828039Y-70099500D01*
X165828036Y-70099500D01*
X165689949Y-70140045D01*
X165568873Y-70217856D01*
X165474623Y-70326626D01*
X165474622Y-70326628D01*
X165414834Y-70457543D01*
X165394353Y-70600000D01*
X150366654Y-70600000D01*
X150289703Y-70569533D01*
X150289706Y-70569533D01*
X149978864Y-70489723D01*
X149978851Y-70489721D01*
X149660475Y-70449500D01*
X149660464Y-70449500D01*
X149339536Y-70449500D01*
X149339524Y-70449500D01*
X149021148Y-70489721D01*
X149021135Y-70489723D01*
X148710294Y-70569533D01*
X148411906Y-70687674D01*
X148411903Y-70687675D01*
X148130678Y-70842280D01*
X148130660Y-70842291D01*
X147871044Y-71030913D01*
X147871034Y-71030921D01*
X147637087Y-71250611D01*
X147432522Y-71497888D01*
X147432520Y-71497891D01*
X147260562Y-71768855D01*
X147260558Y-71768861D01*
X147123918Y-72059235D01*
X147123916Y-72059240D01*
X147024745Y-72364457D01*
X146964607Y-72679709D01*
X146964606Y-72679716D01*
X146944457Y-72999994D01*
X146944457Y-73000005D01*
X146500585Y-73000005D01*
X146500500Y-72996753D01*
X146500500Y-69500000D01*
X159194353Y-69500000D01*
X159214834Y-69642456D01*
X159271460Y-69766448D01*
X159274623Y-69773373D01*
X159368872Y-69882143D01*
X159489947Y-69959953D01*
X159489950Y-69959954D01*
X159489949Y-69959954D01*
X159628036Y-70000499D01*
X159628038Y-70000500D01*
X159628039Y-70000500D01*
X159771962Y-70000500D01*
X159771962Y-70000499D01*
X159910053Y-69959953D01*
X160031128Y-69882143D01*
X160125377Y-69773373D01*
X160185165Y-69642457D01*
X160205647Y-69500000D01*
X160185165Y-69357543D01*
X160125377Y-69226627D01*
X160031128Y-69117857D01*
X159910053Y-69040047D01*
X159910051Y-69040046D01*
X159910049Y-69040045D01*
X159910050Y-69040045D01*
X159771963Y-68999500D01*
X159771961Y-68999500D01*
X159628039Y-68999500D01*
X159628036Y-68999500D01*
X159489949Y-69040045D01*
X159368873Y-69117856D01*
X159368872Y-69117856D01*
X159368872Y-69117857D01*
X159361378Y-69126506D01*
X159274623Y-69226626D01*
X159274622Y-69226628D01*
X159214834Y-69357543D01*
X159194353Y-69500000D01*
X146500500Y-69500000D01*
X146500500Y-66329500D01*
X146520185Y-66262461D01*
X146572989Y-66216706D01*
X146624500Y-66205500D01*
X148959505Y-66205500D01*
X149026544Y-66225185D01*
X149072299Y-66277989D01*
X149082243Y-66347147D01*
X149053218Y-66410703D01*
X149047186Y-66417181D01*
X148934025Y-66530341D01*
X148934024Y-66530342D01*
X148819058Y-66702403D01*
X148739870Y-66893579D01*
X148739868Y-66893587D01*
X148699500Y-67096530D01*
X148699500Y-67303469D01*
X148739868Y-67506412D01*
X148739870Y-67506420D01*
X148819058Y-67697596D01*
X148934024Y-67869657D01*
X149080342Y-68015975D01*
X149080345Y-68015977D01*
X149252402Y-68130941D01*
X149443580Y-68210130D01*
X149646530Y-68250499D01*
X149646534Y-68250500D01*
X149646535Y-68250500D01*
X150153466Y-68250500D01*
X150153467Y-68250499D01*
X150356420Y-68210130D01*
X150547598Y-68130941D01*
X150719655Y-68015977D01*
X150865977Y-67869655D01*
X150912519Y-67800000D01*
X160594353Y-67800000D01*
X160614834Y-67942456D01*
X160660504Y-68042457D01*
X160674623Y-68073373D01*
X160768872Y-68182143D01*
X160889947Y-68259953D01*
X160889950Y-68259954D01*
X160889949Y-68259954D01*
X160965520Y-68282143D01*
X161026336Y-68300000D01*
X161028036Y-68300499D01*
X161028038Y-68300500D01*
X161028039Y-68300500D01*
X161171962Y-68300500D01*
X161171962Y-68300499D01*
X161310053Y-68259953D01*
X161431128Y-68182143D01*
X161525377Y-68073373D01*
X161585165Y-67942457D01*
X161605647Y-67800000D01*
X161585165Y-67657543D01*
X161525377Y-67526627D01*
X161431128Y-67417857D01*
X161310053Y-67340047D01*
X161310051Y-67340046D01*
X161310049Y-67340045D01*
X161310050Y-67340045D01*
X161171963Y-67299500D01*
X161171961Y-67299500D01*
X161028039Y-67299500D01*
X161028036Y-67299500D01*
X160889949Y-67340045D01*
X160768873Y-67417856D01*
X160674623Y-67526626D01*
X160674622Y-67526628D01*
X160614834Y-67657543D01*
X160594353Y-67800000D01*
X150912519Y-67800000D01*
X150980941Y-67697598D01*
X151060130Y-67506420D01*
X151100500Y-67303465D01*
X151100500Y-67096535D01*
X151085276Y-67020000D01*
X162104417Y-67020000D01*
X162124699Y-67225932D01*
X162124700Y-67225934D01*
X162184768Y-67423954D01*
X162282315Y-67606450D01*
X162282317Y-67606452D01*
X162413589Y-67766410D01*
X162464108Y-67807869D01*
X162573550Y-67897685D01*
X162756046Y-67995232D01*
X162954066Y-68055300D01*
X162954065Y-68055300D01*
X162972529Y-68057118D01*
X163160000Y-68075583D01*
X163365934Y-68055300D01*
X163563954Y-67995232D01*
X163746450Y-67897685D01*
X163906410Y-67766410D01*
X164037685Y-67606450D01*
X164135232Y-67423954D01*
X164195300Y-67225934D01*
X164215583Y-67020000D01*
X164644417Y-67020000D01*
X164664699Y-67225932D01*
X164664700Y-67225934D01*
X164724768Y-67423954D01*
X164822315Y-67606450D01*
X164822317Y-67606452D01*
X164953589Y-67766410D01*
X165004108Y-67807869D01*
X165113550Y-67897685D01*
X165296046Y-67995232D01*
X165494066Y-68055300D01*
X165494065Y-68055300D01*
X165512529Y-68057118D01*
X165700000Y-68075583D01*
X165905934Y-68055300D01*
X166103954Y-67995232D01*
X166282119Y-67900000D01*
X169394353Y-67900000D01*
X169414834Y-68042456D01*
X169474622Y-68173371D01*
X169474623Y-68173373D01*
X169568872Y-68282143D01*
X169689947Y-68359953D01*
X169689950Y-68359954D01*
X169689949Y-68359954D01*
X169828036Y-68400499D01*
X169828038Y-68400500D01*
X169828039Y-68400500D01*
X169971962Y-68400500D01*
X169971962Y-68400499D01*
X170110053Y-68359953D01*
X170203342Y-68300000D01*
X170994353Y-68300000D01*
X171014834Y-68442456D01*
X171054119Y-68528476D01*
X171074623Y-68573373D01*
X171168872Y-68682143D01*
X171289947Y-68759953D01*
X171289950Y-68759954D01*
X171289949Y-68759954D01*
X171428036Y-68800499D01*
X171428038Y-68800500D01*
X171428039Y-68800500D01*
X171571962Y-68800500D01*
X171571962Y-68800499D01*
X171710053Y-68759953D01*
X171831128Y-68682143D01*
X171925377Y-68573373D01*
X171985165Y-68442457D01*
X172005647Y-68300000D01*
X171985165Y-68157543D01*
X171925377Y-68026627D01*
X171831128Y-67917857D01*
X171710053Y-67840047D01*
X171710051Y-67840046D01*
X171710049Y-67840045D01*
X171710050Y-67840045D01*
X171571963Y-67799500D01*
X171571961Y-67799500D01*
X171428039Y-67799500D01*
X171428036Y-67799500D01*
X171289949Y-67840045D01*
X171168873Y-67917856D01*
X171074623Y-68026626D01*
X171074622Y-68026628D01*
X171014834Y-68157543D01*
X170994353Y-68300000D01*
X170203342Y-68300000D01*
X170231128Y-68282143D01*
X170325377Y-68173373D01*
X170385165Y-68042457D01*
X170405647Y-67900000D01*
X170385165Y-67757543D01*
X170325377Y-67626627D01*
X170231128Y-67517857D01*
X170110053Y-67440047D01*
X170110051Y-67440046D01*
X170110049Y-67440045D01*
X170110050Y-67440045D01*
X169971963Y-67399500D01*
X169971961Y-67399500D01*
X169828039Y-67399500D01*
X169828036Y-67399500D01*
X169689949Y-67440045D01*
X169568873Y-67517856D01*
X169474623Y-67626626D01*
X169474622Y-67626628D01*
X169414834Y-67757543D01*
X169394353Y-67900000D01*
X166282119Y-67900000D01*
X166286450Y-67897685D01*
X166446410Y-67766410D01*
X166577685Y-67606450D01*
X166675232Y-67423954D01*
X166735300Y-67225934D01*
X166755583Y-67020000D01*
X166735300Y-66814066D01*
X166675232Y-66616046D01*
X166577685Y-66433550D01*
X166513925Y-66355858D01*
X166446410Y-66273589D01*
X166288625Y-66144100D01*
X166286450Y-66142315D01*
X166103954Y-66044768D01*
X165905934Y-65984700D01*
X165905932Y-65984699D01*
X165905934Y-65984699D01*
X165700000Y-65964417D01*
X165494067Y-65984699D01*
X165296043Y-66044769D01*
X165195811Y-66098345D01*
X165113550Y-66142315D01*
X165113548Y-66142316D01*
X165113547Y-66142317D01*
X164953589Y-66273589D01*
X164822317Y-66433547D01*
X164724769Y-66616043D01*
X164664699Y-66814067D01*
X164644417Y-67020000D01*
X164215583Y-67020000D01*
X164195300Y-66814066D01*
X164135232Y-66616046D01*
X164037685Y-66433550D01*
X163973925Y-66355858D01*
X163906410Y-66273589D01*
X163748625Y-66144100D01*
X163746450Y-66142315D01*
X163563954Y-66044768D01*
X163365934Y-65984700D01*
X163365932Y-65984699D01*
X163365934Y-65984699D01*
X163160000Y-65964417D01*
X162954067Y-65984699D01*
X162756043Y-66044769D01*
X162655811Y-66098345D01*
X162573550Y-66142315D01*
X162573548Y-66142316D01*
X162573547Y-66142317D01*
X162413589Y-66273589D01*
X162282317Y-66433547D01*
X162184769Y-66616043D01*
X162124699Y-66814067D01*
X162104417Y-67020000D01*
X151085276Y-67020000D01*
X151060130Y-66893580D01*
X150980941Y-66702402D01*
X150865977Y-66530345D01*
X150865975Y-66530342D01*
X150752814Y-66417181D01*
X150719329Y-66355858D01*
X150724313Y-66286166D01*
X150766185Y-66230233D01*
X150831649Y-66205816D01*
X150840495Y-66205500D01*
X156875991Y-66205500D01*
X156876000Y-66205500D01*
X156919684Y-66200803D01*
X156948875Y-66194452D01*
X156971174Y-66189602D01*
X156971190Y-66189598D01*
X156971195Y-66189597D01*
X156981373Y-66187110D01*
X157062085Y-66144100D01*
X157114889Y-66098345D01*
X157132843Y-66080754D01*
X157177490Y-66000937D01*
X157197175Y-65933898D01*
X157205500Y-65876000D01*
X157205500Y-65824500D01*
X157225185Y-65757461D01*
X157277989Y-65711706D01*
X157329500Y-65700500D01*
X157641499Y-65700500D01*
X157708538Y-65720185D01*
X157735211Y-65743296D01*
X157768872Y-65782143D01*
X157889947Y-65859953D01*
X157889950Y-65859954D01*
X157889949Y-65859954D01*
X158028036Y-65900499D01*
X158028038Y-65900500D01*
X158028039Y-65900500D01*
X158171962Y-65900500D01*
X158171962Y-65900499D01*
X158310053Y-65859953D01*
X158431128Y-65782143D01*
X158525377Y-65673373D01*
X158585165Y-65542457D01*
X158605647Y-65400000D01*
X158585165Y-65257543D01*
X158525377Y-65126627D01*
X158431128Y-65017857D01*
X158310053Y-64940047D01*
X158310051Y-64940046D01*
X158310049Y-64940045D01*
X158310050Y-64940045D01*
X158171963Y-64899500D01*
X158171961Y-64899500D01*
X158028039Y-64899500D01*
X158028036Y-64899500D01*
X157889949Y-64940045D01*
X157768873Y-65017856D01*
X157735212Y-65056703D01*
X157676433Y-65094477D01*
X157641499Y-65099500D01*
X157329500Y-65099500D01*
X157262461Y-65079815D01*
X157216706Y-65027011D01*
X157205500Y-64975500D01*
X157205500Y-62784761D01*
X161594500Y-62784761D01*
X161594939Y-62798205D01*
X161595057Y-62799996D01*
X161595056Y-62799996D01*
X161595998Y-62814366D01*
X161597320Y-62827789D01*
X161611164Y-62932940D01*
X161616404Y-62959287D01*
X161616406Y-62959297D01*
X161616408Y-62959304D01*
X161624786Y-62990571D01*
X161624788Y-62990579D01*
X161624789Y-62990580D01*
X161633428Y-63016028D01*
X161670874Y-63106431D01*
X161670876Y-63106437D01*
X161670882Y-63106449D01*
X161682770Y-63130556D01*
X161682771Y-63130557D01*
X161698955Y-63158590D01*
X161698960Y-63158598D01*
X161713894Y-63180949D01*
X161772535Y-63257370D01*
X161778469Y-63265103D01*
X161781761Y-63269115D01*
X161786997Y-63275496D01*
X161797715Y-63287716D01*
X161806883Y-63297504D01*
X162102494Y-63593115D01*
X162112282Y-63602283D01*
X162112293Y-63602292D01*
X162112303Y-63602302D01*
X162118909Y-63608095D01*
X162124502Y-63613001D01*
X162129606Y-63617189D01*
X162134896Y-63621530D01*
X162153610Y-63635890D01*
X162219049Y-63686104D01*
X162239571Y-63699816D01*
X162241409Y-63701044D01*
X162241423Y-63701052D01*
X162249784Y-63705879D01*
X162298002Y-63756444D01*
X162311227Y-63825051D01*
X162285261Y-63889917D01*
X162283652Y-63891920D01*
X162282313Y-63893550D01*
X162282312Y-63893553D01*
X162184769Y-64076041D01*
X162124699Y-64274067D01*
X162104417Y-64480000D01*
X162124699Y-64685932D01*
X162137044Y-64726627D01*
X162184768Y-64883954D01*
X162282315Y-65066450D01*
X162305316Y-65094477D01*
X162413589Y-65226410D01*
X162470812Y-65273371D01*
X162573550Y-65357685D01*
X162756046Y-65455232D01*
X162954066Y-65515300D01*
X162954065Y-65515300D01*
X162972529Y-65517118D01*
X163160000Y-65535583D01*
X163365934Y-65515300D01*
X163563954Y-65455232D01*
X163746450Y-65357685D01*
X163906410Y-65226410D01*
X164037685Y-65066450D01*
X164135232Y-64883954D01*
X164195300Y-64685934D01*
X164215583Y-64480000D01*
X164195300Y-64274066D01*
X164135232Y-64076046D01*
X164135230Y-64076043D01*
X164135230Y-64076041D01*
X164088146Y-63987953D01*
X164073904Y-63919550D01*
X164098904Y-63854307D01*
X164155209Y-63812936D01*
X164197504Y-63805500D01*
X164662496Y-63805500D01*
X164729535Y-63825185D01*
X164775290Y-63877989D01*
X164785234Y-63947147D01*
X164771854Y-63987953D01*
X164724769Y-64076041D01*
X164664699Y-64274067D01*
X164644417Y-64480000D01*
X164664699Y-64685932D01*
X164677044Y-64726627D01*
X164724768Y-64883954D01*
X164822315Y-65066450D01*
X164845316Y-65094477D01*
X164953589Y-65226410D01*
X165010812Y-65273371D01*
X165113550Y-65357685D01*
X165296046Y-65455232D01*
X165494066Y-65515300D01*
X165494065Y-65515300D01*
X165512529Y-65517118D01*
X165700000Y-65535583D01*
X165905934Y-65515300D01*
X166103954Y-65455232D01*
X166286450Y-65357685D01*
X166446410Y-65226410D01*
X166577685Y-65066450D01*
X166675232Y-64883954D01*
X166735300Y-64685934D01*
X166755583Y-64480000D01*
X166735300Y-64274066D01*
X166675232Y-64076046D01*
X166675230Y-64076043D01*
X166675230Y-64076041D01*
X166628146Y-63987953D01*
X166613904Y-63919550D01*
X166638904Y-63854307D01*
X166695209Y-63812936D01*
X166737504Y-63805500D01*
X169061425Y-63805500D01*
X169061428Y-63805500D01*
X169119328Y-63797175D01*
X169186367Y-63777489D01*
X169210008Y-63768944D01*
X169283777Y-63714884D01*
X169324299Y-63668117D01*
X169324297Y-63668116D01*
X169328890Y-63662815D01*
X169328891Y-63662816D01*
X169329527Y-63662082D01*
X169329529Y-63662078D01*
X169356452Y-63631006D01*
X169357898Y-63628921D01*
X169393160Y-63588226D01*
X169419823Y-63565123D01*
X169461200Y-63538531D01*
X169493295Y-63523875D01*
X169540478Y-63510021D01*
X169575408Y-63505000D01*
X169624590Y-63505000D01*
X169659521Y-63510022D01*
X169673988Y-63514269D01*
X169706694Y-63523872D01*
X169738796Y-63538531D01*
X169821859Y-63591913D01*
X169875066Y-63616211D01*
X169875068Y-63616211D01*
X169875069Y-63616212D01*
X169925454Y-63631006D01*
X169942105Y-63635895D01*
X169966610Y-63641488D01*
X170057895Y-63635895D01*
X170124934Y-63616211D01*
X170178141Y-63591912D01*
X170261203Y-63538529D01*
X170293295Y-63523875D01*
X170340477Y-63510021D01*
X170375408Y-63505000D01*
X170424590Y-63505000D01*
X170459521Y-63510022D01*
X170473988Y-63514269D01*
X170506694Y-63523872D01*
X170538796Y-63538531D01*
X170621859Y-63591913D01*
X170675066Y-63616211D01*
X170675068Y-63616211D01*
X170675069Y-63616212D01*
X170725454Y-63631006D01*
X170742105Y-63635895D01*
X170766610Y-63641488D01*
X170857895Y-63635895D01*
X170924934Y-63616211D01*
X170978141Y-63591912D01*
X171061203Y-63538529D01*
X171093295Y-63523875D01*
X171140477Y-63510021D01*
X171175408Y-63505000D01*
X171224590Y-63505000D01*
X171259521Y-63510022D01*
X171273988Y-63514269D01*
X171306694Y-63523872D01*
X171338798Y-63538533D01*
X171372123Y-63559949D01*
X171380174Y-63565124D01*
X171406844Y-63588234D01*
X171439046Y-63625396D01*
X171458128Y-63655089D01*
X171478554Y-63699816D01*
X171488432Y-63733228D01*
X171488459Y-63733411D01*
X171488525Y-63733864D01*
X171503500Y-63838025D01*
X171504191Y-63841442D01*
X171504172Y-63841445D01*
X171505913Y-63849859D01*
X171508249Y-63865057D01*
X171540659Y-63948258D01*
X171540662Y-63948262D01*
X171579559Y-64006299D01*
X171618705Y-64049755D01*
X171618709Y-64049758D01*
X173188222Y-65357685D01*
X173478999Y-65599999D01*
X173668443Y-65757869D01*
X174318999Y-66299999D01*
X175458999Y-67249999D01*
X175938999Y-67649999D01*
X176128443Y-67807869D01*
X176965050Y-68505042D01*
X176999863Y-68528476D01*
X177044311Y-68552194D01*
X177051893Y-68556040D01*
X177141051Y-68576390D01*
X177141056Y-68576391D01*
X177210927Y-68576391D01*
X177217198Y-68576006D01*
X177236016Y-68574854D01*
X177262454Y-68565298D01*
X177332191Y-68561024D01*
X177393170Y-68595132D01*
X177398313Y-68600713D01*
X177468872Y-68682143D01*
X177578022Y-68752289D01*
X177623776Y-68805092D01*
X177632891Y-68868490D01*
X177634340Y-68868625D01*
X177633694Y-68875557D01*
X177635040Y-68945420D01*
X177637060Y-68970473D01*
X177637061Y-68970475D01*
X177669796Y-69055872D01*
X177669797Y-69055873D01*
X177708696Y-69113913D01*
X177747837Y-69157363D01*
X177747844Y-69157370D01*
X178290537Y-69609615D01*
X178318944Y-69633287D01*
X178333322Y-69644234D01*
X178344404Y-69651926D01*
X178351230Y-69656665D01*
X178366514Y-69666307D01*
X178366523Y-69666312D01*
X178489943Y-69736769D01*
X178509488Y-69745749D01*
X178522754Y-69751846D01*
X178522760Y-69751848D01*
X178522766Y-69751851D01*
X178538103Y-69757323D01*
X178563650Y-69766439D01*
X178563657Y-69766441D01*
X178563665Y-69766444D01*
X178563671Y-69766445D01*
X178563679Y-69766448D01*
X178590270Y-69773371D01*
X178598624Y-69775546D01*
X178738763Y-69799127D01*
X178742882Y-69799635D01*
X178756702Y-69801340D01*
X178767564Y-69802196D01*
X178778424Y-69803053D01*
X178796494Y-69803680D01*
X179385495Y-69798201D01*
X179452712Y-69817260D01*
X179498956Y-69869636D01*
X179509384Y-69904547D01*
X179514834Y-69942456D01*
X179574622Y-70073371D01*
X179574623Y-70073373D01*
X179668872Y-70182143D01*
X179789947Y-70259953D01*
X179789950Y-70259954D01*
X179789949Y-70259954D01*
X179928036Y-70300499D01*
X179928038Y-70300500D01*
X179928039Y-70300500D01*
X180071962Y-70300500D01*
X180071962Y-70300499D01*
X180210053Y-70259953D01*
X180331128Y-70182143D01*
X180425377Y-70073373D01*
X180485165Y-69942457D01*
X180492258Y-69893122D01*
X180521283Y-69829567D01*
X180580060Y-69791792D01*
X180613839Y-69786774D01*
X187077796Y-69726644D01*
X187113880Y-69731661D01*
X187178039Y-69750500D01*
X187321960Y-69750500D01*
X187321961Y-69750500D01*
X187397315Y-69728373D01*
X187431086Y-69723357D01*
X187731520Y-69720563D01*
X187798739Y-69739624D01*
X187844983Y-69792000D01*
X187855411Y-69826911D01*
X187864834Y-69892456D01*
X187895660Y-69959954D01*
X187924623Y-70023373D01*
X188018872Y-70132143D01*
X188139947Y-70209953D01*
X188139950Y-70209954D01*
X188139949Y-70209954D01*
X188278036Y-70250499D01*
X188278038Y-70250500D01*
X188278039Y-70250500D01*
X188421962Y-70250500D01*
X188421962Y-70250499D01*
X188560053Y-70209953D01*
X188681128Y-70132143D01*
X188775377Y-70023373D01*
X188835165Y-69892457D01*
X188846242Y-69815409D01*
X188875266Y-69751855D01*
X188934044Y-69714080D01*
X188967823Y-69709062D01*
X199598496Y-69610173D01*
X199611850Y-69609614D01*
X199627905Y-69608418D01*
X199627908Y-69608417D01*
X199627917Y-69608417D01*
X199631713Y-69608009D01*
X199641198Y-69606992D01*
X199745641Y-69592335D01*
X199771813Y-69586907D01*
X199802829Y-69578337D01*
X199828061Y-69569563D01*
X199917693Y-69531702D01*
X199941578Y-69519728D01*
X199969347Y-69503466D01*
X199991482Y-69488489D01*
X200068355Y-69428837D01*
X200088358Y-69411116D01*
X200111006Y-69388256D01*
X200128537Y-69368093D01*
X200187475Y-69290665D01*
X200202243Y-69268395D01*
X200218247Y-69240476D01*
X200230002Y-69216476D01*
X200267027Y-69126497D01*
X200275566Y-69101180D01*
X200283847Y-69070084D01*
X200289031Y-69043868D01*
X200302715Y-68939304D01*
X200304017Y-68925995D01*
X200305065Y-68909905D01*
X200305500Y-68896548D01*
X200305500Y-66300000D01*
X200994353Y-66300000D01*
X201014834Y-66442456D01*
X201074622Y-66573371D01*
X201074623Y-66573373D01*
X201168872Y-66682143D01*
X201289947Y-66759953D01*
X201289950Y-66759954D01*
X201289949Y-66759954D01*
X201428036Y-66800499D01*
X201428038Y-66800500D01*
X201428039Y-66800500D01*
X201571962Y-66800500D01*
X201571962Y-66800499D01*
X201710053Y-66759953D01*
X201831128Y-66682143D01*
X201925377Y-66573373D01*
X201985165Y-66442457D01*
X202005647Y-66300000D01*
X201985165Y-66157543D01*
X201925377Y-66026627D01*
X201831128Y-65917857D01*
X201710053Y-65840047D01*
X201710051Y-65840046D01*
X201710049Y-65840045D01*
X201710050Y-65840045D01*
X201571963Y-65799500D01*
X201571961Y-65799500D01*
X201428039Y-65799500D01*
X201428036Y-65799500D01*
X201289949Y-65840045D01*
X201168873Y-65917856D01*
X201074623Y-66026626D01*
X201074622Y-66026628D01*
X201014834Y-66157543D01*
X200994353Y-66300000D01*
X200305500Y-66300000D01*
X200305500Y-65000000D01*
X200994353Y-65000000D01*
X201014834Y-65142456D01*
X201074622Y-65273371D01*
X201074623Y-65273373D01*
X201168872Y-65382143D01*
X201289947Y-65459953D01*
X201289950Y-65459954D01*
X201289949Y-65459954D01*
X201428036Y-65500499D01*
X201428038Y-65500500D01*
X201428039Y-65500500D01*
X201571962Y-65500500D01*
X201571962Y-65500499D01*
X201710053Y-65459953D01*
X201831128Y-65382143D01*
X201925377Y-65273373D01*
X201985165Y-65142457D01*
X202005647Y-65000000D01*
X201985165Y-64857543D01*
X201925377Y-64726627D01*
X201831128Y-64617857D01*
X201710053Y-64540047D01*
X201710051Y-64540046D01*
X201710049Y-64540045D01*
X201710050Y-64540045D01*
X201571963Y-64499500D01*
X201571961Y-64499500D01*
X201428039Y-64499500D01*
X201428036Y-64499500D01*
X201289949Y-64540045D01*
X201168873Y-64617856D01*
X201074623Y-64726626D01*
X201074622Y-64726628D01*
X201014834Y-64857543D01*
X200994353Y-65000000D01*
X200305500Y-65000000D01*
X200305500Y-63954269D01*
X206024500Y-63954269D01*
X206027353Y-63984699D01*
X206027353Y-63984701D01*
X206072206Y-64112880D01*
X206072207Y-64112882D01*
X206152850Y-64222150D01*
X206262118Y-64302793D01*
X206304845Y-64317744D01*
X206390299Y-64347646D01*
X206420730Y-64350500D01*
X206420734Y-64350500D01*
X207979270Y-64350500D01*
X208009699Y-64347646D01*
X208009701Y-64347646D01*
X208073790Y-64325219D01*
X208137882Y-64302793D01*
X208247150Y-64222150D01*
X208327793Y-64112882D01*
X208365089Y-64006297D01*
X208372646Y-63984701D01*
X208372646Y-63984699D01*
X208375500Y-63954269D01*
X208375500Y-62645730D01*
X208372646Y-62615300D01*
X208372646Y-62615298D01*
X208339006Y-62519163D01*
X208327793Y-62487118D01*
X208247150Y-62377850D01*
X208137882Y-62297207D01*
X208137880Y-62297206D01*
X208009700Y-62252353D01*
X207979270Y-62249500D01*
X207979266Y-62249500D01*
X206420734Y-62249500D01*
X206420730Y-62249500D01*
X206390300Y-62252353D01*
X206390298Y-62252353D01*
X206262119Y-62297206D01*
X206262117Y-62297207D01*
X206152850Y-62377850D01*
X206072207Y-62487117D01*
X206072206Y-62487119D01*
X206027353Y-62615298D01*
X206027353Y-62615300D01*
X206024500Y-62645730D01*
X206024500Y-63954269D01*
X200305500Y-63954269D01*
X200305500Y-62500000D01*
X200994353Y-62500000D01*
X201014834Y-62642456D01*
X201074622Y-62773371D01*
X201074623Y-62773373D01*
X201168872Y-62882143D01*
X201289947Y-62959953D01*
X201289950Y-62959954D01*
X201289949Y-62959954D01*
X201428036Y-63000499D01*
X201428038Y-63000500D01*
X201428039Y-63000500D01*
X201571962Y-63000500D01*
X201571962Y-63000499D01*
X201710053Y-62959953D01*
X201831128Y-62882143D01*
X201925377Y-62773373D01*
X201985165Y-62642457D01*
X202005647Y-62500000D01*
X201985165Y-62357543D01*
X201925377Y-62226627D01*
X201831128Y-62117857D01*
X201710053Y-62040047D01*
X201710051Y-62040046D01*
X201710049Y-62040045D01*
X201710050Y-62040045D01*
X201571963Y-61999500D01*
X201571961Y-61999500D01*
X201428039Y-61999500D01*
X201428036Y-61999500D01*
X201289949Y-62040045D01*
X201168873Y-62117856D01*
X201074623Y-62226626D01*
X201074622Y-62226628D01*
X201014834Y-62357543D01*
X200994353Y-62500000D01*
X200305500Y-62500000D01*
X200305500Y-60757826D01*
X200304894Y-60742051D01*
X200303433Y-60723075D01*
X200301618Y-60707401D01*
X200282599Y-60584586D01*
X200275396Y-60553882D01*
X200263918Y-60517709D01*
X200252103Y-60488476D01*
X200252104Y-60488476D01*
X200201121Y-60385804D01*
X200201113Y-60385790D01*
X200184965Y-60358712D01*
X200184965Y-60358711D01*
X200163085Y-60327707D01*
X200163079Y-60327698D01*
X200142969Y-60303400D01*
X200142953Y-60303383D01*
X200056618Y-60214021D01*
X200045234Y-60203109D01*
X200030989Y-60190467D01*
X200018788Y-60180450D01*
X197676406Y-58403469D01*
X206024500Y-58403469D01*
X206064868Y-58606412D01*
X206064870Y-58606420D01*
X206144058Y-58797596D01*
X206259024Y-58969657D01*
X206405342Y-59115975D01*
X206405345Y-59115977D01*
X206577402Y-59230941D01*
X206768580Y-59310130D01*
X206971530Y-59350499D01*
X206971534Y-59350500D01*
X206971535Y-59350500D01*
X207428466Y-59350500D01*
X207428467Y-59350499D01*
X207631420Y-59310130D01*
X207822598Y-59230941D01*
X207994655Y-59115977D01*
X208140977Y-58969655D01*
X208255941Y-58797598D01*
X208335130Y-58606420D01*
X208375500Y-58403465D01*
X208375500Y-58196535D01*
X208335130Y-57993580D01*
X208255941Y-57802402D01*
X208140977Y-57630345D01*
X208140975Y-57630342D01*
X207994657Y-57484024D01*
X207860673Y-57394500D01*
X207822598Y-57369059D01*
X207809141Y-57363485D01*
X207631420Y-57289870D01*
X207631412Y-57289868D01*
X207428469Y-57249500D01*
X207428465Y-57249500D01*
X206971535Y-57249500D01*
X206971530Y-57249500D01*
X206768587Y-57289868D01*
X206768579Y-57289870D01*
X206577403Y-57369058D01*
X206405342Y-57484024D01*
X206259024Y-57630342D01*
X206144058Y-57802403D01*
X206064870Y-57993579D01*
X206064868Y-57993587D01*
X206024500Y-58196530D01*
X206024500Y-58403469D01*
X197676406Y-58403469D01*
X197454556Y-58235169D01*
X197413043Y-58178968D01*
X197405500Y-58136379D01*
X197405500Y-57502474D01*
X197405500Y-57502461D01*
X197405046Y-57488803D01*
X197403951Y-57472364D01*
X197402591Y-57458778D01*
X197388308Y-57351993D01*
X197385603Y-57338613D01*
X197382903Y-57325250D01*
X197382902Y-57325247D01*
X197382901Y-57325244D01*
X197382899Y-57325233D01*
X197374259Y-57293511D01*
X197365349Y-57267700D01*
X197326743Y-57176105D01*
X197314490Y-57151705D01*
X197297817Y-57123369D01*
X197282438Y-57100809D01*
X197282424Y-57100790D01*
X197241114Y-57048089D01*
X197221118Y-57022579D01*
X197202882Y-57002255D01*
X197179348Y-56979297D01*
X197158583Y-56961573D01*
X197158578Y-56961569D01*
X197158573Y-56961565D01*
X197072189Y-56897240D01*
X197060941Y-56889431D01*
X197047109Y-56880495D01*
X197035430Y-56873489D01*
X196902250Y-56799500D01*
X195632099Y-56093860D01*
X195583059Y-56044098D01*
X195568706Y-55975718D01*
X195593600Y-55910434D01*
X195598597Y-55904278D01*
X195625377Y-55873373D01*
X195685165Y-55742457D01*
X195705647Y-55600000D01*
X195685165Y-55457543D01*
X195625377Y-55326627D01*
X195531128Y-55217857D01*
X195410053Y-55140047D01*
X195410051Y-55140046D01*
X195410049Y-55140045D01*
X195410050Y-55140045D01*
X195271963Y-55099500D01*
X195271961Y-55099500D01*
X195128039Y-55099500D01*
X195128036Y-55099500D01*
X194989949Y-55140045D01*
X194868873Y-55217856D01*
X194774623Y-55326626D01*
X194774622Y-55326628D01*
X194714834Y-55457543D01*
X194694353Y-55600000D01*
X194714834Y-55742456D01*
X194749786Y-55818988D01*
X194759730Y-55888147D01*
X194730705Y-55951702D01*
X194671927Y-55989477D01*
X194636992Y-55994500D01*
X193963008Y-55994500D01*
X193895969Y-55974815D01*
X193850214Y-55922011D01*
X193840270Y-55852853D01*
X193850214Y-55818988D01*
X193854547Y-55809500D01*
X193885165Y-55742457D01*
X193905647Y-55600000D01*
X193885165Y-55457543D01*
X193825377Y-55326627D01*
X193731128Y-55217857D01*
X193610053Y-55140047D01*
X193610051Y-55140046D01*
X193610049Y-55140045D01*
X193610050Y-55140045D01*
X193471963Y-55099500D01*
X193471961Y-55099500D01*
X193328039Y-55099500D01*
X193328036Y-55099500D01*
X193189949Y-55140045D01*
X193068873Y-55217856D01*
X192974623Y-55326626D01*
X192974622Y-55326628D01*
X192914834Y-55457543D01*
X192894353Y-55600000D01*
X192914834Y-55742456D01*
X192949786Y-55818988D01*
X192959730Y-55888147D01*
X192930705Y-55951702D01*
X192871927Y-55989477D01*
X192836992Y-55994500D01*
X178252531Y-55994500D01*
X178247531Y-55994562D01*
X178241413Y-55994713D01*
X178241397Y-55994713D01*
X178241380Y-55994714D01*
X178236323Y-55994901D01*
X178236269Y-55994903D01*
X178196213Y-55996880D01*
X178186099Y-55997630D01*
X178173959Y-55998832D01*
X178163901Y-56000079D01*
X178124108Y-56006014D01*
X178119170Y-56006814D01*
X178119162Y-56006815D01*
X178119115Y-56006823D01*
X178113134Y-56007867D01*
X178113106Y-56007872D01*
X178113073Y-56007878D01*
X178108181Y-56008794D01*
X174159697Y-56798491D01*
X173152156Y-56999999D01*
X172296479Y-57171134D01*
X172226881Y-57164979D01*
X172171659Y-57122174D01*
X172159367Y-57101054D01*
X172125377Y-57026628D01*
X172125376Y-57026626D01*
X172121868Y-57022577D01*
X172031128Y-56917857D01*
X171910053Y-56840047D01*
X171910051Y-56840046D01*
X171910049Y-56840045D01*
X171910050Y-56840045D01*
X171771963Y-56799500D01*
X171771961Y-56799500D01*
X171628039Y-56799500D01*
X171628036Y-56799500D01*
X171489949Y-56840045D01*
X171368873Y-56917856D01*
X171274623Y-57026626D01*
X171274622Y-57026628D01*
X171214834Y-57157543D01*
X171196057Y-57288147D01*
X171167032Y-57351703D01*
X171108254Y-57389477D01*
X171073319Y-57394500D01*
X169626681Y-57394500D01*
X169559642Y-57374815D01*
X169513887Y-57322011D01*
X169503943Y-57288147D01*
X169485165Y-57157543D01*
X169459367Y-57101054D01*
X169425377Y-57026627D01*
X169331128Y-56917857D01*
X169210053Y-56840047D01*
X169210051Y-56840046D01*
X169210049Y-56840045D01*
X169210050Y-56840045D01*
X169071963Y-56799500D01*
X169071961Y-56799500D01*
X168928039Y-56799500D01*
X168928036Y-56799500D01*
X168789949Y-56840045D01*
X168668873Y-56917856D01*
X168574623Y-57026626D01*
X168574622Y-57026628D01*
X168514834Y-57157543D01*
X168496057Y-57288147D01*
X168467032Y-57351703D01*
X168408254Y-57389477D01*
X168373319Y-57394500D01*
X166802826Y-57394500D01*
X166735787Y-57374815D01*
X166690032Y-57322011D01*
X166680088Y-57252853D01*
X166684165Y-57234505D01*
X166735300Y-57065934D01*
X166755583Y-56860000D01*
X166735300Y-56654066D01*
X166675232Y-56456046D01*
X166577685Y-56273550D01*
X166525702Y-56210209D01*
X166517324Y-56200000D01*
X169894353Y-56200000D01*
X169914834Y-56342456D01*
X169966710Y-56456046D01*
X169974623Y-56473373D01*
X170068872Y-56582143D01*
X170189947Y-56659953D01*
X170189950Y-56659954D01*
X170189949Y-56659954D01*
X170328036Y-56700499D01*
X170328038Y-56700500D01*
X170328039Y-56700500D01*
X170471962Y-56700500D01*
X170471962Y-56700499D01*
X170610053Y-56659953D01*
X170731128Y-56582143D01*
X170825377Y-56473373D01*
X170885165Y-56342457D01*
X170905647Y-56200000D01*
X170885165Y-56057543D01*
X170825377Y-55926627D01*
X170731128Y-55817857D01*
X170610053Y-55740047D01*
X170610051Y-55740046D01*
X170610049Y-55740045D01*
X170610050Y-55740045D01*
X170471963Y-55699500D01*
X170471961Y-55699500D01*
X170328039Y-55699500D01*
X170328036Y-55699500D01*
X170189949Y-55740045D01*
X170068873Y-55817856D01*
X169974623Y-55926626D01*
X169974622Y-55926628D01*
X169914834Y-56057543D01*
X169894353Y-56200000D01*
X166517324Y-56200000D01*
X166446410Y-56113589D01*
X166328677Y-56016969D01*
X166286450Y-55982315D01*
X166103954Y-55884768D01*
X165905934Y-55824700D01*
X165905932Y-55824699D01*
X165905934Y-55824699D01*
X165700000Y-55804417D01*
X165494067Y-55824699D01*
X165296043Y-55884769D01*
X165217736Y-55926626D01*
X165113550Y-55982315D01*
X165113548Y-55982316D01*
X165113547Y-55982317D01*
X164953589Y-56113589D01*
X164822317Y-56273547D01*
X164724769Y-56456043D01*
X164664699Y-56654067D01*
X164644417Y-56860000D01*
X164664699Y-57065932D01*
X164715835Y-57234505D01*
X164716458Y-57304372D01*
X164679210Y-57363485D01*
X164615915Y-57393076D01*
X164597174Y-57394500D01*
X164334500Y-57394500D01*
X164267461Y-57374815D01*
X164221706Y-57322011D01*
X164210500Y-57270500D01*
X164210500Y-55990249D01*
X164210499Y-55990247D01*
X164198868Y-55931770D01*
X164198867Y-55931769D01*
X164154552Y-55865447D01*
X164088230Y-55821132D01*
X164088229Y-55821131D01*
X164029752Y-55809500D01*
X164029748Y-55809500D01*
X162290252Y-55809500D01*
X162290247Y-55809500D01*
X162231770Y-55821131D01*
X162231769Y-55821132D01*
X162165447Y-55865447D01*
X162121132Y-55931769D01*
X162121131Y-55931770D01*
X162109500Y-55990247D01*
X162109500Y-57535427D01*
X162089815Y-57602466D01*
X162037011Y-57648221D01*
X162019220Y-57654754D01*
X161984398Y-57664593D01*
X161984392Y-57664596D01*
X161923071Y-57698079D01*
X161876247Y-57733132D01*
X161876235Y-57733142D01*
X161806882Y-57802495D01*
X161797696Y-57812304D01*
X161797682Y-57812319D01*
X161786995Y-57824506D01*
X161786983Y-57824520D01*
X161778472Y-57834891D01*
X161746371Y-57876726D01*
X161728514Y-57899999D01*
X161721202Y-57909528D01*
X161713891Y-57919055D01*
X161698960Y-57941400D01*
X161698955Y-57941408D01*
X161682771Y-57969441D01*
X161670877Y-57993559D01*
X161633428Y-58083971D01*
X161624787Y-58109425D01*
X161624786Y-58109431D01*
X161616410Y-58140685D01*
X161611165Y-58167051D01*
X161611163Y-58167066D01*
X161597320Y-58272207D01*
X161596001Y-58285604D01*
X161594940Y-58301786D01*
X161594500Y-58315245D01*
X161594500Y-62784761D01*
X157205500Y-62784761D01*
X157205500Y-55100000D01*
X179694353Y-55100000D01*
X179714834Y-55242456D01*
X179753275Y-55326628D01*
X179774623Y-55373373D01*
X179868872Y-55482143D01*
X179989947Y-55559953D01*
X179989950Y-55559954D01*
X179989949Y-55559954D01*
X180097107Y-55591417D01*
X180126336Y-55600000D01*
X180128036Y-55600499D01*
X180128038Y-55600500D01*
X180128039Y-55600500D01*
X180271962Y-55600500D01*
X180271962Y-55600499D01*
X180410053Y-55559953D01*
X180531128Y-55482143D01*
X180625377Y-55373373D01*
X180685165Y-55242457D01*
X180705647Y-55100000D01*
X180685165Y-54957543D01*
X180625377Y-54826627D01*
X180531128Y-54717857D01*
X180410053Y-54640047D01*
X180410051Y-54640046D01*
X180410049Y-54640045D01*
X180410050Y-54640045D01*
X180271963Y-54599500D01*
X180271961Y-54599500D01*
X180128039Y-54599500D01*
X180128036Y-54599500D01*
X179989949Y-54640045D01*
X179868873Y-54717856D01*
X179774623Y-54826626D01*
X179774622Y-54826628D01*
X179714834Y-54957543D01*
X179694353Y-55100000D01*
X157205500Y-55100000D01*
X157205500Y-53529500D01*
X157225185Y-53462461D01*
X157277989Y-53416706D01*
X157329500Y-53405500D01*
X170194708Y-53405500D01*
X170261747Y-53425185D01*
X170307502Y-53477989D01*
X170317446Y-53547147D01*
X170288422Y-53610702D01*
X170274623Y-53626627D01*
X170274622Y-53626628D01*
X170214834Y-53757543D01*
X170194353Y-53900000D01*
X170214834Y-54042456D01*
X170253275Y-54126628D01*
X170274623Y-54173373D01*
X170368872Y-54282143D01*
X170489947Y-54359953D01*
X170489950Y-54359954D01*
X170489949Y-54359954D01*
X170597107Y-54391417D01*
X170626336Y-54400000D01*
X170628036Y-54400499D01*
X170628038Y-54400500D01*
X170628039Y-54400500D01*
X170771962Y-54400500D01*
X170771962Y-54400499D01*
X170773661Y-54400000D01*
X181394353Y-54400000D01*
X181414834Y-54542456D01*
X181440886Y-54599500D01*
X181474623Y-54673373D01*
X181568872Y-54782143D01*
X181689947Y-54859953D01*
X181689950Y-54859954D01*
X181689949Y-54859954D01*
X181828036Y-54900499D01*
X181828038Y-54900500D01*
X181828039Y-54900500D01*
X181971962Y-54900500D01*
X181971962Y-54900499D01*
X182110053Y-54859953D01*
X182231128Y-54782143D01*
X182325377Y-54673373D01*
X182385165Y-54542457D01*
X182405647Y-54400000D01*
X183894353Y-54400000D01*
X183914834Y-54542456D01*
X183940886Y-54599500D01*
X183974623Y-54673373D01*
X184068872Y-54782143D01*
X184189947Y-54859953D01*
X184189950Y-54859954D01*
X184189949Y-54859954D01*
X184328036Y-54900499D01*
X184328038Y-54900500D01*
X184328039Y-54900500D01*
X184471962Y-54900500D01*
X184471962Y-54900499D01*
X184610053Y-54859953D01*
X184731128Y-54782143D01*
X184825377Y-54673373D01*
X184885165Y-54542457D01*
X184905647Y-54400000D01*
X184885165Y-54257543D01*
X184825377Y-54126627D01*
X184731128Y-54017857D01*
X184610053Y-53940047D01*
X184610051Y-53940046D01*
X184610049Y-53940045D01*
X184610050Y-53940045D01*
X184471963Y-53899500D01*
X184471961Y-53899500D01*
X184328039Y-53899500D01*
X184328036Y-53899500D01*
X184189949Y-53940045D01*
X184068873Y-54017856D01*
X183974623Y-54126626D01*
X183974622Y-54126628D01*
X183914834Y-54257543D01*
X183894353Y-54400000D01*
X182405647Y-54400000D01*
X182385165Y-54257543D01*
X182325377Y-54126627D01*
X182231128Y-54017857D01*
X182110053Y-53940047D01*
X182110051Y-53940046D01*
X182110049Y-53940045D01*
X182110050Y-53940045D01*
X181971963Y-53899500D01*
X181971961Y-53899500D01*
X181828039Y-53899500D01*
X181828036Y-53899500D01*
X181689949Y-53940045D01*
X181568873Y-54017856D01*
X181474623Y-54126626D01*
X181474622Y-54126628D01*
X181414834Y-54257543D01*
X181394353Y-54400000D01*
X170773661Y-54400000D01*
X170910053Y-54359953D01*
X171031128Y-54282143D01*
X171125377Y-54173373D01*
X171185165Y-54042457D01*
X171205647Y-53900000D01*
X171185165Y-53757543D01*
X171125377Y-53626627D01*
X171111577Y-53610701D01*
X171082554Y-53547146D01*
X171092498Y-53477987D01*
X171138254Y-53425184D01*
X171205292Y-53405500D01*
X176073319Y-53405500D01*
X176140358Y-53425185D01*
X176186113Y-53477989D01*
X176196057Y-53511853D01*
X176214834Y-53642456D01*
X176274622Y-53773371D01*
X176274623Y-53773373D01*
X176368872Y-53882143D01*
X176489947Y-53959953D01*
X176489950Y-53959954D01*
X176489949Y-53959954D01*
X176628036Y-54000499D01*
X176628038Y-54000500D01*
X176628039Y-54000500D01*
X176771962Y-54000500D01*
X176771962Y-54000499D01*
X176910053Y-53959953D01*
X177031128Y-53882143D01*
X177125377Y-53773373D01*
X177185165Y-53642457D01*
X177203943Y-53511853D01*
X177232968Y-53448297D01*
X177291746Y-53410523D01*
X177326681Y-53405500D01*
X178575991Y-53405500D01*
X178576000Y-53405500D01*
X178619684Y-53400803D01*
X178648875Y-53394452D01*
X178671174Y-53389602D01*
X178671190Y-53389598D01*
X178671195Y-53389597D01*
X178681373Y-53387110D01*
X178762085Y-53344100D01*
X178814889Y-53298345D01*
X178832843Y-53280754D01*
X178877490Y-53200937D01*
X178897175Y-53133898D01*
X178905500Y-53076000D01*
X178905500Y-53032537D01*
X178925185Y-52965498D01*
X178977989Y-52919743D01*
X179047147Y-52909799D01*
X179110703Y-52938824D01*
X179113038Y-52940900D01*
X179273437Y-53087123D01*
X179273439Y-53087125D01*
X179462595Y-53204245D01*
X179462596Y-53204245D01*
X179462599Y-53204247D01*
X179670060Y-53284618D01*
X179888757Y-53325500D01*
X179888759Y-53325500D01*
X180111241Y-53325500D01*
X180111243Y-53325500D01*
X180329940Y-53284618D01*
X180537401Y-53204247D01*
X180726562Y-53087124D01*
X180890981Y-52937236D01*
X181025058Y-52759689D01*
X181124229Y-52560528D01*
X181185115Y-52346536D01*
X181205643Y-52125000D01*
X181185115Y-51903464D01*
X181124229Y-51689472D01*
X181094500Y-51629768D01*
X181025061Y-51490316D01*
X181025056Y-51490308D01*
X180890979Y-51312761D01*
X180726562Y-51162876D01*
X180726560Y-51162874D01*
X180537404Y-51045754D01*
X180537398Y-51045752D01*
X180329940Y-50965382D01*
X180111243Y-50924500D01*
X179888757Y-50924500D01*
X179670060Y-50965382D01*
X179538864Y-51016207D01*
X179462601Y-51045752D01*
X179462595Y-51045754D01*
X179273439Y-51162874D01*
X179273437Y-51162876D01*
X179113038Y-51309099D01*
X179050234Y-51339716D01*
X178980847Y-51331518D01*
X178926907Y-51287108D01*
X178905539Y-51220586D01*
X178905500Y-51217462D01*
X178905500Y-50628469D01*
X195549500Y-50628469D01*
X195589868Y-50831412D01*
X195589870Y-50831420D01*
X195669058Y-51022596D01*
X195784024Y-51194657D01*
X195930342Y-51340975D01*
X195930345Y-51340977D01*
X196102402Y-51455941D01*
X196293580Y-51535130D01*
X196482187Y-51572646D01*
X196496530Y-51575499D01*
X196496534Y-51575500D01*
X196496535Y-51575500D01*
X196703466Y-51575500D01*
X196703467Y-51575499D01*
X196906420Y-51535130D01*
X197097598Y-51455941D01*
X197269655Y-51340977D01*
X197415977Y-51194655D01*
X197426258Y-51179269D01*
X200549500Y-51179269D01*
X200552353Y-51209699D01*
X200552353Y-51209701D01*
X200594980Y-51331518D01*
X200597207Y-51337882D01*
X200677850Y-51447150D01*
X200787118Y-51527793D01*
X200808089Y-51535131D01*
X200915299Y-51572646D01*
X200945730Y-51575500D01*
X200945734Y-51575500D01*
X202254270Y-51575500D01*
X202284699Y-51572646D01*
X202284701Y-51572646D01*
X202348790Y-51550219D01*
X202412882Y-51527793D01*
X202522150Y-51447150D01*
X202602793Y-51337882D01*
X202625219Y-51273790D01*
X202647646Y-51209701D01*
X202647646Y-51209699D01*
X202650500Y-51179269D01*
X202650500Y-50000005D01*
X204944457Y-50000005D01*
X204964606Y-50320283D01*
X204964607Y-50320290D01*
X205024745Y-50635542D01*
X205123916Y-50940759D01*
X205123918Y-50940764D01*
X205260558Y-51231138D01*
X205260562Y-51231144D01*
X205432520Y-51502108D01*
X205432522Y-51502111D01*
X205637087Y-51749388D01*
X205871034Y-51969078D01*
X205871044Y-51969086D01*
X206130660Y-52157708D01*
X206130666Y-52157711D01*
X206130672Y-52157716D01*
X206411903Y-52312324D01*
X206710294Y-52430466D01*
X206710293Y-52430466D01*
X207021135Y-52510276D01*
X207021139Y-52510277D01*
X207087935Y-52518715D01*
X207339524Y-52550499D01*
X207339533Y-52550499D01*
X207339536Y-52550500D01*
X207339538Y-52550500D01*
X207660462Y-52550500D01*
X207660464Y-52550500D01*
X207660467Y-52550499D01*
X207660475Y-52550499D01*
X207850463Y-52526497D01*
X207978861Y-52510277D01*
X208289706Y-52430466D01*
X208588097Y-52312324D01*
X208869328Y-52157716D01*
X209128964Y-51969080D01*
X209362911Y-51749390D01*
X209567478Y-51502110D01*
X209739439Y-51231142D01*
X209749529Y-51209701D01*
X209876081Y-50940764D01*
X209876084Y-50940758D01*
X209975256Y-50635538D01*
X210035392Y-50320294D01*
X210044751Y-50171534D01*
X210055543Y-50000005D01*
X210055543Y-49999994D01*
X210035393Y-49679716D01*
X210035392Y-49679709D01*
X210035392Y-49679706D01*
X209975256Y-49364462D01*
X209876084Y-49059242D01*
X209741956Y-48774206D01*
X209739441Y-48768861D01*
X209739437Y-48768855D01*
X209567479Y-48497891D01*
X209567477Y-48497888D01*
X209362912Y-48250611D01*
X209128965Y-48030921D01*
X209128955Y-48030913D01*
X208869339Y-47842291D01*
X208869321Y-47842280D01*
X208588096Y-47687675D01*
X208588093Y-47687674D01*
X208382465Y-47606260D01*
X208289706Y-47569534D01*
X208289704Y-47569533D01*
X208289706Y-47569533D01*
X207978864Y-47489723D01*
X207978851Y-47489721D01*
X207660475Y-47449500D01*
X207660464Y-47449500D01*
X207339536Y-47449500D01*
X207339524Y-47449500D01*
X207021148Y-47489721D01*
X207021135Y-47489723D01*
X206710294Y-47569533D01*
X206411906Y-47687674D01*
X206411903Y-47687675D01*
X206130678Y-47842280D01*
X206130660Y-47842291D01*
X205871044Y-48030913D01*
X205871034Y-48030921D01*
X205637087Y-48250611D01*
X205432522Y-48497888D01*
X205432520Y-48497891D01*
X205260562Y-48768855D01*
X205260558Y-48768861D01*
X205123918Y-49059235D01*
X205123916Y-49059240D01*
X205024745Y-49364457D01*
X204964607Y-49679709D01*
X204964606Y-49679716D01*
X204944457Y-49999994D01*
X204944457Y-50000005D01*
X202650500Y-50000005D01*
X202650500Y-49620730D01*
X202647646Y-49590300D01*
X202647646Y-49590298D01*
X202602793Y-49462119D01*
X202602792Y-49462117D01*
X202522150Y-49352850D01*
X202412882Y-49272207D01*
X202412880Y-49272206D01*
X202284700Y-49227353D01*
X202254270Y-49224500D01*
X202254266Y-49224500D01*
X200945734Y-49224500D01*
X200945730Y-49224500D01*
X200915300Y-49227353D01*
X200915298Y-49227353D01*
X200787119Y-49272206D01*
X200787117Y-49272207D01*
X200677850Y-49352850D01*
X200597207Y-49462117D01*
X200597206Y-49462119D01*
X200552353Y-49590298D01*
X200552353Y-49590300D01*
X200549500Y-49620730D01*
X200549500Y-51179269D01*
X197426258Y-51179269D01*
X197530941Y-51022598D01*
X197610130Y-50831420D01*
X197650500Y-50628465D01*
X197650500Y-50171535D01*
X197610130Y-49968580D01*
X197530941Y-49777402D01*
X197415977Y-49605345D01*
X197415975Y-49605342D01*
X197269657Y-49459024D01*
X197155569Y-49382794D01*
X197097598Y-49344059D01*
X196906420Y-49264870D01*
X196906412Y-49264868D01*
X196703469Y-49224500D01*
X196703465Y-49224500D01*
X196496535Y-49224500D01*
X196496530Y-49224500D01*
X196293587Y-49264868D01*
X196293579Y-49264870D01*
X196102403Y-49344058D01*
X195930342Y-49459024D01*
X195784024Y-49605342D01*
X195669058Y-49777403D01*
X195589870Y-49968579D01*
X195589868Y-49968587D01*
X195549500Y-50171530D01*
X195549500Y-50628469D01*
X178905500Y-50628469D01*
X178905500Y-47124500D01*
X178925185Y-47057461D01*
X178977989Y-47011706D01*
X179029500Y-47000500D01*
X188439275Y-47000500D01*
X188506314Y-47020185D01*
G37*
%TD.AperFunction*%
%TD*%
%TA.AperFunction,Conductor*%
%TO.N,+3.3V*%
G36*
X195278242Y-56200995D02*
G01*
X195296610Y-56203336D01*
X195380181Y-56213987D01*
X195410528Y-56221851D01*
X195505960Y-56260003D01*
X195520136Y-56266742D01*
X196935603Y-57053113D01*
X196949438Y-57062051D01*
X197035849Y-57126396D01*
X197059383Y-57149354D01*
X197120703Y-57227584D01*
X197137376Y-57255920D01*
X197175982Y-57347515D01*
X197184622Y-57379237D01*
X197198905Y-57486022D01*
X197200000Y-57502461D01*
X197200000Y-58300000D01*
X198175514Y-59040045D01*
X199894588Y-60344171D01*
X199908822Y-60356803D01*
X199995178Y-60446186D01*
X200017061Y-60477195D01*
X200068042Y-60579862D01*
X200079520Y-60616035D01*
X200098539Y-60738850D01*
X200100000Y-60757826D01*
X200100000Y-68896548D01*
X200098952Y-68912638D01*
X200085268Y-69017202D01*
X200076987Y-69048298D01*
X200039962Y-69138277D01*
X200023958Y-69166196D01*
X199965020Y-69243624D01*
X199942372Y-69266484D01*
X199865499Y-69326136D01*
X199837730Y-69342398D01*
X199748098Y-69380259D01*
X199717082Y-69388829D01*
X199673011Y-69395014D01*
X199612639Y-69403486D01*
X199596584Y-69404682D01*
X188857385Y-69504581D01*
X188790168Y-69485522D01*
X188762521Y-69461790D01*
X188748665Y-69445799D01*
X188681128Y-69367857D01*
X188560053Y-69290047D01*
X188560051Y-69290046D01*
X188560049Y-69290045D01*
X188560050Y-69290045D01*
X188421963Y-69249500D01*
X188421961Y-69249500D01*
X188278039Y-69249500D01*
X188278036Y-69249500D01*
X188139949Y-69290045D01*
X188018873Y-69367856D01*
X187929252Y-69471284D01*
X187870473Y-69509058D01*
X187836692Y-69514076D01*
X180529859Y-69582047D01*
X180462640Y-69562987D01*
X180431995Y-69532627D01*
X180431185Y-69533330D01*
X180425376Y-69526626D01*
X180331128Y-69417857D01*
X180210053Y-69340047D01*
X180210051Y-69340046D01*
X180210049Y-69340045D01*
X180210050Y-69340045D01*
X180071963Y-69299500D01*
X180071961Y-69299500D01*
X179928039Y-69299500D01*
X179928036Y-69299500D01*
X179789949Y-69340045D01*
X179668873Y-69417856D01*
X179574623Y-69526626D01*
X179569829Y-69534087D01*
X179566881Y-69532192D01*
X179532055Y-69572317D01*
X179466256Y-69591941D01*
X179353325Y-69592991D01*
X178794582Y-69598189D01*
X178772863Y-69596476D01*
X178687112Y-69582047D01*
X178632724Y-69572895D01*
X178591825Y-69558302D01*
X178468405Y-69487845D01*
X178450502Y-69475418D01*
X177879401Y-68999500D01*
X177840502Y-68941461D01*
X177839156Y-68871604D01*
X177875792Y-68812109D01*
X177923847Y-68785264D01*
X178010053Y-68759953D01*
X178131128Y-68682143D01*
X178225377Y-68573373D01*
X178285165Y-68442457D01*
X178305647Y-68300000D01*
X178285165Y-68157543D01*
X178225377Y-68026627D01*
X178131128Y-67917857D01*
X178010053Y-67840047D01*
X178010051Y-67840046D01*
X178010049Y-67840045D01*
X178010050Y-67840045D01*
X177871963Y-67799500D01*
X177871961Y-67799500D01*
X177728039Y-67799500D01*
X177728036Y-67799500D01*
X177589949Y-67840045D01*
X177468873Y-67917856D01*
X177374623Y-68026626D01*
X177374622Y-68026628D01*
X177314834Y-68157543D01*
X177298729Y-68269561D01*
X177269704Y-68333117D01*
X177210926Y-68370891D01*
X177141056Y-68370891D01*
X177096608Y-68347173D01*
X176260001Y-67650000D01*
X185344353Y-67650000D01*
X185364834Y-67792456D01*
X185413949Y-67900000D01*
X185424623Y-67923373D01*
X185518872Y-68032143D01*
X185639947Y-68109953D01*
X185639950Y-68109954D01*
X185639949Y-68109954D01*
X185778036Y-68150499D01*
X185778038Y-68150500D01*
X185778039Y-68150500D01*
X185921962Y-68150500D01*
X185921962Y-68150499D01*
X186060053Y-68109953D01*
X186181128Y-68032143D01*
X186275377Y-67923373D01*
X186335165Y-67792457D01*
X186355647Y-67650000D01*
X186335165Y-67507543D01*
X186275377Y-67376627D01*
X186181128Y-67267857D01*
X186153342Y-67250000D01*
X190544353Y-67250000D01*
X190564834Y-67392456D01*
X190622104Y-67517857D01*
X190624623Y-67523373D01*
X190718872Y-67632143D01*
X190839947Y-67709953D01*
X190839950Y-67709954D01*
X190839949Y-67709954D01*
X190978036Y-67750499D01*
X190978038Y-67750500D01*
X190978039Y-67750500D01*
X191121962Y-67750500D01*
X191121962Y-67750499D01*
X191260053Y-67709953D01*
X191381128Y-67632143D01*
X191408980Y-67600000D01*
X194094353Y-67600000D01*
X194114834Y-67742456D01*
X194125774Y-67766410D01*
X194174623Y-67873373D01*
X194268872Y-67982143D01*
X194389947Y-68059953D01*
X194389950Y-68059954D01*
X194389949Y-68059954D01*
X194528036Y-68100499D01*
X194528038Y-68100500D01*
X194528039Y-68100500D01*
X194671962Y-68100500D01*
X194671962Y-68100499D01*
X194810053Y-68059953D01*
X194931128Y-67982143D01*
X195025377Y-67873373D01*
X195085165Y-67742457D01*
X195105647Y-67600000D01*
X195085165Y-67457543D01*
X195025377Y-67326627D01*
X194931128Y-67217857D01*
X194810053Y-67140047D01*
X194810051Y-67140046D01*
X194810049Y-67140045D01*
X194810050Y-67140045D01*
X194671963Y-67099500D01*
X194671961Y-67099500D01*
X194528039Y-67099500D01*
X194528036Y-67099500D01*
X194389949Y-67140045D01*
X194268873Y-67217856D01*
X194174623Y-67326626D01*
X194174622Y-67326628D01*
X194114834Y-67457543D01*
X194094353Y-67600000D01*
X191408980Y-67600000D01*
X191475377Y-67523373D01*
X191535165Y-67392457D01*
X191555647Y-67250000D01*
X191535165Y-67107543D01*
X191475377Y-66976627D01*
X191381128Y-66867857D01*
X191260053Y-66790047D01*
X191260051Y-66790046D01*
X191260049Y-66790045D01*
X191260050Y-66790045D01*
X191121963Y-66749500D01*
X191121961Y-66749500D01*
X190978039Y-66749500D01*
X190978036Y-66749500D01*
X190839949Y-66790045D01*
X190718873Y-66867856D01*
X190624623Y-66976626D01*
X190624622Y-66976628D01*
X190564834Y-67107543D01*
X190544353Y-67250000D01*
X186153342Y-67250000D01*
X186060053Y-67190047D01*
X186060051Y-67190046D01*
X186060049Y-67190045D01*
X186060050Y-67190045D01*
X185921963Y-67149500D01*
X185921961Y-67149500D01*
X185778039Y-67149500D01*
X185778036Y-67149500D01*
X185639949Y-67190045D01*
X185518873Y-67267856D01*
X185424623Y-67376626D01*
X185424622Y-67376628D01*
X185364834Y-67507543D01*
X185344353Y-67650000D01*
X176260001Y-67650000D01*
X173800001Y-65600000D01*
X179994353Y-65600000D01*
X180014834Y-65742456D01*
X180040886Y-65799500D01*
X180074623Y-65873373D01*
X180168872Y-65982143D01*
X180289947Y-66059953D01*
X180289950Y-66059954D01*
X180289949Y-66059954D01*
X180428036Y-66100499D01*
X180428038Y-66100500D01*
X180428039Y-66100500D01*
X180571962Y-66100500D01*
X180571962Y-66100499D01*
X180710053Y-66059953D01*
X180831128Y-65982143D01*
X180925377Y-65873373D01*
X180985165Y-65742457D01*
X181005647Y-65600000D01*
X183794353Y-65600000D01*
X183814834Y-65742456D01*
X183840886Y-65799500D01*
X183874623Y-65873373D01*
X183968872Y-65982143D01*
X184089947Y-66059953D01*
X184089950Y-66059954D01*
X184089949Y-66059954D01*
X184228036Y-66100499D01*
X184228038Y-66100500D01*
X184228039Y-66100500D01*
X184371962Y-66100500D01*
X184371962Y-66100499D01*
X184510053Y-66059953D01*
X184631128Y-65982143D01*
X184725377Y-65873373D01*
X184758886Y-65800000D01*
X187694353Y-65800000D01*
X187714834Y-65942456D01*
X187753275Y-66026628D01*
X187774623Y-66073373D01*
X187868872Y-66182143D01*
X187989947Y-66259953D01*
X187989950Y-66259954D01*
X187989949Y-66259954D01*
X188097107Y-66291417D01*
X188126336Y-66300000D01*
X188128036Y-66300499D01*
X188128038Y-66300500D01*
X188128039Y-66300500D01*
X188271962Y-66300500D01*
X188271962Y-66300499D01*
X188410050Y-66259954D01*
X188410051Y-66259954D01*
X188410053Y-66259953D01*
X188531128Y-66182143D01*
X188531129Y-66182140D01*
X188532961Y-66180964D01*
X188600000Y-66161279D01*
X188667040Y-66180963D01*
X188667041Y-66180964D01*
X188668874Y-66182142D01*
X188668875Y-66182143D01*
X188728933Y-66220739D01*
X188789951Y-66259954D01*
X188908111Y-66294647D01*
X188926339Y-66300000D01*
X188928039Y-66300499D01*
X188928041Y-66300500D01*
X188928042Y-66300500D01*
X189071965Y-66300500D01*
X189071965Y-66300499D01*
X189073664Y-66300000D01*
X193994353Y-66300000D01*
X194014834Y-66442456D01*
X194049269Y-66517857D01*
X194074623Y-66573373D01*
X194168872Y-66682143D01*
X194289947Y-66759953D01*
X194289950Y-66759954D01*
X194289949Y-66759954D01*
X194428036Y-66800499D01*
X194428038Y-66800500D01*
X194428039Y-66800500D01*
X194571962Y-66800500D01*
X194571962Y-66800499D01*
X194710053Y-66759953D01*
X194831128Y-66682143D01*
X194925377Y-66573373D01*
X194985165Y-66442457D01*
X195005647Y-66300000D01*
X194985165Y-66157543D01*
X194925377Y-66026627D01*
X194831128Y-65917857D01*
X194710053Y-65840047D01*
X194710051Y-65840046D01*
X194710049Y-65840045D01*
X194710050Y-65840045D01*
X194571963Y-65799500D01*
X194571961Y-65799500D01*
X194428039Y-65799500D01*
X194428036Y-65799500D01*
X194289949Y-65840045D01*
X194168873Y-65917856D01*
X194074623Y-66026626D01*
X194074622Y-66026628D01*
X194014834Y-66157543D01*
X193994353Y-66300000D01*
X189073664Y-66300000D01*
X189210056Y-66259953D01*
X189331131Y-66182143D01*
X189425380Y-66073373D01*
X189485168Y-65942457D01*
X189505650Y-65800000D01*
X189485168Y-65657543D01*
X189425380Y-65526627D01*
X189331131Y-65417857D01*
X189210056Y-65340047D01*
X189210054Y-65340046D01*
X189210052Y-65340045D01*
X189210053Y-65340045D01*
X189071966Y-65299500D01*
X189071964Y-65299500D01*
X188928042Y-65299500D01*
X188928039Y-65299500D01*
X188789952Y-65340045D01*
X188667040Y-65419036D01*
X188600001Y-65438720D01*
X188532962Y-65419035D01*
X188410055Y-65340047D01*
X188410050Y-65340045D01*
X188271963Y-65299500D01*
X188271961Y-65299500D01*
X188128039Y-65299500D01*
X188128036Y-65299500D01*
X187989949Y-65340045D01*
X187868873Y-65417856D01*
X187868872Y-65417856D01*
X187868872Y-65417857D01*
X187864094Y-65423371D01*
X187774623Y-65526626D01*
X187774622Y-65526628D01*
X187714834Y-65657543D01*
X187694353Y-65800000D01*
X184758886Y-65800000D01*
X184785165Y-65742457D01*
X184792466Y-65691671D01*
X184821490Y-65628117D01*
X184880267Y-65590341D01*
X184950137Y-65590340D01*
X184982242Y-65605002D01*
X184989945Y-65609952D01*
X184989949Y-65609954D01*
X185128036Y-65650499D01*
X185128038Y-65650500D01*
X185128039Y-65650500D01*
X185271962Y-65650500D01*
X185271962Y-65650499D01*
X185410050Y-65609954D01*
X185410051Y-65609954D01*
X185410053Y-65609953D01*
X185531128Y-65532143D01*
X185531129Y-65532141D01*
X185532960Y-65530965D01*
X185600000Y-65511280D01*
X185667039Y-65530964D01*
X185667040Y-65530965D01*
X185668870Y-65532141D01*
X185668872Y-65532143D01*
X185746251Y-65581871D01*
X185789948Y-65609954D01*
X185928036Y-65650499D01*
X185928038Y-65650500D01*
X185928039Y-65650500D01*
X186071962Y-65650500D01*
X186071962Y-65650499D01*
X186210053Y-65609953D01*
X186331128Y-65532143D01*
X186425377Y-65423373D01*
X186485165Y-65292457D01*
X186505647Y-65150000D01*
X186485165Y-65007543D01*
X186425377Y-64876627D01*
X186331128Y-64767857D01*
X186210053Y-64690047D01*
X186210051Y-64690046D01*
X186210049Y-64690045D01*
X186210050Y-64690045D01*
X186071963Y-64649500D01*
X186071961Y-64649500D01*
X185928039Y-64649500D01*
X185928036Y-64649500D01*
X185789949Y-64690045D01*
X185667039Y-64769035D01*
X185600000Y-64788719D01*
X185532961Y-64769035D01*
X185531126Y-64767856D01*
X185410053Y-64690047D01*
X185410051Y-64690046D01*
X185410049Y-64690045D01*
X185410050Y-64690045D01*
X185271963Y-64649500D01*
X185271961Y-64649500D01*
X185128039Y-64649500D01*
X185128036Y-64649500D01*
X184989949Y-64690045D01*
X184868873Y-64767856D01*
X184774623Y-64876626D01*
X184774622Y-64876628D01*
X184714834Y-65007543D01*
X184707533Y-65058328D01*
X184678508Y-65121884D01*
X184619730Y-65159658D01*
X184549860Y-65159658D01*
X184517759Y-65144999D01*
X184510050Y-65140045D01*
X184371963Y-65099500D01*
X184371961Y-65099500D01*
X184228039Y-65099500D01*
X184228036Y-65099500D01*
X184089949Y-65140045D01*
X183968873Y-65217856D01*
X183874623Y-65326626D01*
X183874622Y-65326628D01*
X183814834Y-65457543D01*
X183794353Y-65600000D01*
X181005647Y-65600000D01*
X180985165Y-65457543D01*
X180925377Y-65326627D01*
X180831128Y-65217857D01*
X180710053Y-65140047D01*
X180710051Y-65140046D01*
X180710049Y-65140045D01*
X180710050Y-65140045D01*
X180571963Y-65099500D01*
X180571961Y-65099500D01*
X180428039Y-65099500D01*
X180428036Y-65099500D01*
X180289949Y-65140045D01*
X180168873Y-65217856D01*
X180074623Y-65326626D01*
X180074622Y-65326628D01*
X180014834Y-65457543D01*
X179994353Y-65600000D01*
X173800001Y-65600000D01*
X171750264Y-63891886D01*
X171711365Y-63833847D01*
X171707500Y-63808693D01*
X171706909Y-63808779D01*
X171691269Y-63700000D01*
X191494353Y-63700000D01*
X191514834Y-63842456D01*
X191560504Y-63942457D01*
X191574623Y-63973373D01*
X191668872Y-64082143D01*
X191789947Y-64159953D01*
X191789950Y-64159954D01*
X191789949Y-64159954D01*
X191928036Y-64200499D01*
X191928038Y-64200500D01*
X191928039Y-64200500D01*
X192071962Y-64200500D01*
X192071962Y-64200499D01*
X192210053Y-64159953D01*
X192331128Y-64082143D01*
X192425377Y-63973373D01*
X192485165Y-63842457D01*
X192505647Y-63700000D01*
X192485165Y-63557543D01*
X192425377Y-63426627D01*
X192331128Y-63317857D01*
X192210053Y-63240047D01*
X192210051Y-63240046D01*
X192210049Y-63240045D01*
X192210050Y-63240045D01*
X192071963Y-63199500D01*
X192071961Y-63199500D01*
X191928039Y-63199500D01*
X191928036Y-63199500D01*
X191789949Y-63240045D01*
X191668873Y-63317856D01*
X191574623Y-63426626D01*
X191574622Y-63426628D01*
X191514834Y-63557543D01*
X191494353Y-63700000D01*
X171691269Y-63700000D01*
X171685165Y-63657543D01*
X171659943Y-63602315D01*
X171625377Y-63526627D01*
X171531128Y-63417857D01*
X171410053Y-63340047D01*
X171410051Y-63340046D01*
X171410049Y-63340045D01*
X171410050Y-63340045D01*
X171271963Y-63299500D01*
X171271961Y-63299500D01*
X171128039Y-63299500D01*
X171128036Y-63299500D01*
X170989949Y-63340045D01*
X170867039Y-63419035D01*
X170800000Y-63438719D01*
X170732961Y-63419035D01*
X170731126Y-63417856D01*
X170610053Y-63340047D01*
X170610051Y-63340046D01*
X170610049Y-63340045D01*
X170610050Y-63340045D01*
X170471963Y-63299500D01*
X170471961Y-63299500D01*
X170328039Y-63299500D01*
X170328036Y-63299500D01*
X170189949Y-63340045D01*
X170067039Y-63419035D01*
X170000000Y-63438719D01*
X169932961Y-63419035D01*
X169931126Y-63417856D01*
X169810053Y-63340047D01*
X169810051Y-63340046D01*
X169810049Y-63340045D01*
X169810050Y-63340045D01*
X169671963Y-63299500D01*
X169671961Y-63299500D01*
X169528039Y-63299500D01*
X169528036Y-63299500D01*
X169389949Y-63340045D01*
X169268873Y-63417856D01*
X169174624Y-63526625D01*
X169174623Y-63526626D01*
X169174623Y-63526627D01*
X169174219Y-63527510D01*
X169173583Y-63528244D01*
X169169829Y-63534087D01*
X169168989Y-63533547D01*
X169128467Y-63580314D01*
X169061428Y-63600000D01*
X166313180Y-63600000D01*
X166254726Y-63585358D01*
X166103956Y-63504769D01*
X166103955Y-63504768D01*
X166103954Y-63504768D01*
X165905934Y-63444700D01*
X165905932Y-63444699D01*
X165905934Y-63444699D01*
X165700000Y-63424417D01*
X165494067Y-63444699D01*
X165296043Y-63504769D01*
X165145274Y-63585358D01*
X165086820Y-63600000D01*
X163773180Y-63600000D01*
X163714726Y-63585358D01*
X163563956Y-63504769D01*
X163563955Y-63504768D01*
X163563954Y-63504768D01*
X163365934Y-63444700D01*
X163365932Y-63444699D01*
X163365934Y-63444699D01*
X163160000Y-63424417D01*
X162954067Y-63444699D01*
X162837149Y-63480165D01*
X162756046Y-63504768D01*
X162756043Y-63504769D01*
X162756041Y-63504770D01*
X162618791Y-63578131D01*
X162550389Y-63592372D01*
X162544154Y-63591711D01*
X162493883Y-63585093D01*
X162462616Y-63576715D01*
X162372191Y-63539260D01*
X162344157Y-63523075D01*
X162259996Y-63458496D01*
X162247801Y-63447801D01*
X161952198Y-63152198D01*
X161941503Y-63140003D01*
X161876924Y-63055842D01*
X161860739Y-63027808D01*
X161823284Y-62937383D01*
X161814906Y-62906116D01*
X161801061Y-62800952D01*
X161800000Y-62784767D01*
X161800000Y-61940000D01*
X164644417Y-61940000D01*
X164664699Y-62145932D01*
X164664700Y-62145934D01*
X164724768Y-62343954D01*
X164822315Y-62526450D01*
X164822461Y-62526628D01*
X164953589Y-62686410D01*
X165021884Y-62742457D01*
X165113550Y-62817685D01*
X165296046Y-62915232D01*
X165494066Y-62975300D01*
X165494065Y-62975300D01*
X165512529Y-62977118D01*
X165700000Y-62995583D01*
X165905934Y-62975300D01*
X166103954Y-62915232D01*
X166286450Y-62817685D01*
X166307999Y-62800000D01*
X183794353Y-62800000D01*
X183814834Y-62942456D01*
X183839097Y-62995583D01*
X183874623Y-63073373D01*
X183968872Y-63182143D01*
X184089947Y-63259953D01*
X184089950Y-63259954D01*
X184089949Y-63259954D01*
X184197107Y-63291417D01*
X184224633Y-63299500D01*
X184228036Y-63300499D01*
X184228038Y-63300500D01*
X184228039Y-63300500D01*
X184371962Y-63300500D01*
X184371962Y-63300499D01*
X184510053Y-63259953D01*
X184631128Y-63182143D01*
X184725377Y-63073373D01*
X184785165Y-62942457D01*
X184805647Y-62800000D01*
X184785165Y-62657543D01*
X184758886Y-62600000D01*
X189494353Y-62600000D01*
X189514834Y-62742456D01*
X189541114Y-62800000D01*
X189574623Y-62873373D01*
X189668872Y-62982143D01*
X189789947Y-63059953D01*
X189789950Y-63059954D01*
X189789949Y-63059954D01*
X189928036Y-63100499D01*
X189928038Y-63100500D01*
X189928039Y-63100500D01*
X190071962Y-63100500D01*
X190071962Y-63100499D01*
X190210053Y-63059953D01*
X190331128Y-62982143D01*
X190425377Y-62873373D01*
X190485165Y-62742457D01*
X190505647Y-62600000D01*
X190485165Y-62457543D01*
X190425377Y-62326627D01*
X190331128Y-62217857D01*
X190210053Y-62140047D01*
X190210051Y-62140046D01*
X190210049Y-62140045D01*
X190210050Y-62140045D01*
X190115608Y-62112315D01*
X192113697Y-62112315D01*
X192134178Y-62254771D01*
X192174908Y-62343956D01*
X192193967Y-62385688D01*
X192288216Y-62494458D01*
X192409291Y-62572268D01*
X192409294Y-62572269D01*
X192409293Y-62572269D01*
X192547380Y-62612814D01*
X192547382Y-62612815D01*
X192547383Y-62612815D01*
X192691306Y-62612815D01*
X192691306Y-62612814D01*
X192829397Y-62572268D01*
X192950472Y-62494458D01*
X193044721Y-62385688D01*
X193104509Y-62254772D01*
X193124991Y-62112315D01*
X193104509Y-61969858D01*
X193044721Y-61838942D01*
X192950472Y-61730172D01*
X192829397Y-61652362D01*
X192829395Y-61652361D01*
X192829393Y-61652360D01*
X192829394Y-61652360D01*
X192691307Y-61611815D01*
X192691305Y-61611815D01*
X192547383Y-61611815D01*
X192547380Y-61611815D01*
X192409293Y-61652360D01*
X192288217Y-61730171D01*
X192193967Y-61838941D01*
X192193966Y-61838943D01*
X192134178Y-61969858D01*
X192113697Y-62112315D01*
X190115608Y-62112315D01*
X190071963Y-62099500D01*
X190071961Y-62099500D01*
X189928039Y-62099500D01*
X189928036Y-62099500D01*
X189789949Y-62140045D01*
X189668873Y-62217856D01*
X189574623Y-62326626D01*
X189574622Y-62326628D01*
X189514834Y-62457543D01*
X189494353Y-62600000D01*
X184758886Y-62600000D01*
X184725377Y-62526627D01*
X184631128Y-62417857D01*
X184510053Y-62340047D01*
X184510051Y-62340046D01*
X184510049Y-62340045D01*
X184510050Y-62340045D01*
X184371963Y-62299500D01*
X184371961Y-62299500D01*
X184228039Y-62299500D01*
X184228036Y-62299500D01*
X184089949Y-62340045D01*
X183968873Y-62417856D01*
X183874623Y-62526626D01*
X183874622Y-62526628D01*
X183814834Y-62657543D01*
X183794353Y-62800000D01*
X166307999Y-62800000D01*
X166446410Y-62686410D01*
X166577685Y-62526450D01*
X166675232Y-62343954D01*
X166735300Y-62145934D01*
X166755583Y-61940000D01*
X166735300Y-61734066D01*
X166675232Y-61536046D01*
X166577685Y-61353550D01*
X166486513Y-61242456D01*
X166451671Y-61200000D01*
X178194353Y-61200000D01*
X178214834Y-61342456D01*
X178219901Y-61353550D01*
X178274623Y-61473373D01*
X178368872Y-61582143D01*
X178489947Y-61659953D01*
X178489950Y-61659954D01*
X178489949Y-61659954D01*
X178628036Y-61700499D01*
X178628038Y-61700500D01*
X178628039Y-61700500D01*
X178771962Y-61700500D01*
X178771962Y-61700499D01*
X178910053Y-61659953D01*
X178996133Y-61604633D01*
X193846347Y-61604633D01*
X193866828Y-61747089D01*
X193908776Y-61838941D01*
X193926617Y-61878006D01*
X194020866Y-61986776D01*
X194141941Y-62064586D01*
X194141944Y-62064587D01*
X194141943Y-62064587D01*
X194280030Y-62105132D01*
X194280032Y-62105133D01*
X194280033Y-62105133D01*
X194423956Y-62105133D01*
X194423956Y-62105132D01*
X194562047Y-62064586D01*
X194683122Y-61986776D01*
X194777371Y-61878006D01*
X194837159Y-61747090D01*
X194857641Y-61604633D01*
X194837159Y-61462176D01*
X194777371Y-61331260D01*
X194683122Y-61222490D01*
X194562047Y-61144680D01*
X194562045Y-61144679D01*
X194562043Y-61144678D01*
X194562044Y-61144678D01*
X194423957Y-61104133D01*
X194423955Y-61104133D01*
X194280033Y-61104133D01*
X194280030Y-61104133D01*
X194141943Y-61144678D01*
X194020867Y-61222489D01*
X193926617Y-61331259D01*
X193926616Y-61331261D01*
X193866828Y-61462176D01*
X193846347Y-61604633D01*
X178996133Y-61604633D01*
X179031128Y-61582143D01*
X179125377Y-61473373D01*
X179185165Y-61342457D01*
X179205647Y-61200000D01*
X179191269Y-61100000D01*
X180114353Y-61100000D01*
X180134834Y-61242456D01*
X180180504Y-61342457D01*
X180194623Y-61373373D01*
X180288872Y-61482143D01*
X180409947Y-61559953D01*
X180409950Y-61559954D01*
X180409949Y-61559954D01*
X180548036Y-61600499D01*
X180548038Y-61600500D01*
X180548039Y-61600500D01*
X180691962Y-61600500D01*
X180691962Y-61600499D01*
X180830053Y-61559953D01*
X180951128Y-61482143D01*
X181045377Y-61373373D01*
X181105165Y-61242457D01*
X181125647Y-61100000D01*
X181105165Y-60957543D01*
X181045377Y-60826627D01*
X180951128Y-60717857D01*
X180830053Y-60640047D01*
X180830051Y-60640046D01*
X180830049Y-60640045D01*
X180830050Y-60640045D01*
X180691963Y-60599500D01*
X180691961Y-60599500D01*
X180548039Y-60599500D01*
X180548036Y-60599500D01*
X180409949Y-60640045D01*
X180288873Y-60717856D01*
X180194623Y-60826626D01*
X180194622Y-60826628D01*
X180134834Y-60957543D01*
X180114353Y-61100000D01*
X179191269Y-61100000D01*
X179185165Y-61057543D01*
X179125377Y-60926627D01*
X179031128Y-60817857D01*
X178910053Y-60740047D01*
X178910051Y-60740046D01*
X178910049Y-60740045D01*
X178910050Y-60740045D01*
X178771963Y-60699500D01*
X178771961Y-60699500D01*
X178628039Y-60699500D01*
X178628036Y-60699500D01*
X178489949Y-60740045D01*
X178368873Y-60817856D01*
X178274623Y-60926626D01*
X178274622Y-60926628D01*
X178214834Y-61057543D01*
X178194353Y-61200000D01*
X166451671Y-61200000D01*
X166446410Y-61193589D01*
X166286452Y-61062317D01*
X166286453Y-61062317D01*
X166286450Y-61062315D01*
X166103954Y-60964768D01*
X165905934Y-60904700D01*
X165905932Y-60904699D01*
X165905934Y-60904699D01*
X165700000Y-60884417D01*
X165494067Y-60904699D01*
X165296043Y-60964769D01*
X165185898Y-61023643D01*
X165113550Y-61062315D01*
X165113548Y-61062316D01*
X165113547Y-61062317D01*
X164953589Y-61193589D01*
X164822317Y-61353547D01*
X164822315Y-61353550D01*
X164783643Y-61425898D01*
X164724769Y-61536043D01*
X164664699Y-61734067D01*
X164644417Y-61940000D01*
X161800000Y-61940000D01*
X161800000Y-59400000D01*
X164644417Y-59400000D01*
X164664699Y-59605932D01*
X164675779Y-59642457D01*
X164724768Y-59803954D01*
X164822315Y-59986450D01*
X164856969Y-60028677D01*
X164953589Y-60146410D01*
X165050209Y-60225702D01*
X165113550Y-60277685D01*
X165296046Y-60375232D01*
X165494066Y-60435300D01*
X165494065Y-60435300D01*
X165512529Y-60437118D01*
X165700000Y-60455583D01*
X165905934Y-60435300D01*
X166103954Y-60375232D01*
X166286450Y-60277685D01*
X166446410Y-60146410D01*
X166577685Y-59986450D01*
X166675232Y-59803954D01*
X166735300Y-59605934D01*
X166745734Y-59500000D01*
X184294353Y-59500000D01*
X184314834Y-59642456D01*
X184374622Y-59773371D01*
X184374623Y-59773373D01*
X184468872Y-59882143D01*
X184589947Y-59959953D01*
X184589950Y-59959954D01*
X184589949Y-59959954D01*
X184728036Y-60000499D01*
X184728038Y-60000500D01*
X184728039Y-60000500D01*
X184871962Y-60000500D01*
X184871962Y-60000499D01*
X185010053Y-59959953D01*
X185103342Y-59900000D01*
X192247324Y-59900000D01*
X192267805Y-60042456D01*
X192315280Y-60146410D01*
X192327594Y-60173373D01*
X192421843Y-60282143D01*
X192542918Y-60359953D01*
X192542921Y-60359954D01*
X192542920Y-60359954D01*
X192681007Y-60400499D01*
X192681009Y-60400500D01*
X192681010Y-60400500D01*
X192824933Y-60400500D01*
X192824933Y-60400499D01*
X192963024Y-60359953D01*
X193084099Y-60282143D01*
X193178348Y-60173373D01*
X193238136Y-60042457D01*
X193258618Y-59900000D01*
X193238136Y-59757543D01*
X193178348Y-59626627D01*
X193084099Y-59517857D01*
X192963024Y-59440047D01*
X192963022Y-59440046D01*
X192963020Y-59440045D01*
X192963021Y-59440045D01*
X192824934Y-59399500D01*
X192824932Y-59399500D01*
X192681010Y-59399500D01*
X192681007Y-59399500D01*
X192542920Y-59440045D01*
X192421844Y-59517856D01*
X192327594Y-59626626D01*
X192327593Y-59626628D01*
X192267805Y-59757543D01*
X192247324Y-59900000D01*
X185103342Y-59900000D01*
X185131128Y-59882143D01*
X185225377Y-59773373D01*
X185285165Y-59642457D01*
X185305647Y-59500000D01*
X185285165Y-59357543D01*
X185225377Y-59226627D01*
X185131128Y-59117857D01*
X185010053Y-59040047D01*
X185010051Y-59040046D01*
X185010049Y-59040045D01*
X185010050Y-59040045D01*
X184871963Y-58999500D01*
X184871961Y-58999500D01*
X184728039Y-58999500D01*
X184728036Y-58999500D01*
X184589949Y-59040045D01*
X184468873Y-59117856D01*
X184374623Y-59226626D01*
X184374622Y-59226628D01*
X184314834Y-59357543D01*
X184294353Y-59500000D01*
X166745734Y-59500000D01*
X166755583Y-59400000D01*
X166735300Y-59194066D01*
X166675232Y-58996046D01*
X166577685Y-58813550D01*
X166525702Y-58750209D01*
X166446410Y-58653589D01*
X166286452Y-58522317D01*
X166286453Y-58522317D01*
X166286450Y-58522315D01*
X166244702Y-58500000D01*
X180094353Y-58500000D01*
X180114834Y-58642456D01*
X180119919Y-58653590D01*
X180174623Y-58773373D01*
X180268872Y-58882143D01*
X180389947Y-58959953D01*
X180389950Y-58959954D01*
X180389949Y-58959954D01*
X180497107Y-58991417D01*
X180524633Y-58999500D01*
X180528036Y-59000499D01*
X180528038Y-59000500D01*
X180528039Y-59000500D01*
X180671962Y-59000500D01*
X180671962Y-59000499D01*
X180810053Y-58959953D01*
X180931128Y-58882143D01*
X181025377Y-58773373D01*
X181085165Y-58642457D01*
X181105647Y-58500000D01*
X181085165Y-58357543D01*
X181025377Y-58226627D01*
X180931128Y-58117857D01*
X180810053Y-58040047D01*
X180810051Y-58040046D01*
X180810049Y-58040045D01*
X180810050Y-58040045D01*
X180671963Y-57999500D01*
X180671961Y-57999500D01*
X180528039Y-57999500D01*
X180528036Y-57999500D01*
X180389949Y-58040045D01*
X180268873Y-58117856D01*
X180174623Y-58226626D01*
X180174622Y-58226628D01*
X180114834Y-58357543D01*
X180094353Y-58500000D01*
X166244702Y-58500000D01*
X166103954Y-58424768D01*
X165905934Y-58364700D01*
X165905932Y-58364699D01*
X165905934Y-58364699D01*
X165700000Y-58344417D01*
X165494067Y-58364699D01*
X165296043Y-58424769D01*
X165185898Y-58483643D01*
X165113550Y-58522315D01*
X165113548Y-58522316D01*
X165113547Y-58522317D01*
X164953589Y-58653589D01*
X164822317Y-58813547D01*
X164724769Y-58996043D01*
X164664699Y-59194067D01*
X164644417Y-59400000D01*
X161800000Y-59400000D01*
X161800000Y-58315232D01*
X161801061Y-58299047D01*
X161803287Y-58282143D01*
X161814906Y-58193882D01*
X161823284Y-58162616D01*
X161860739Y-58072191D01*
X161876924Y-58044157D01*
X161941503Y-57959996D01*
X161952190Y-57947809D01*
X162021556Y-57878443D01*
X162082877Y-57844960D01*
X162152569Y-57849944D01*
X162178126Y-57863024D01*
X162231769Y-57898867D01*
X162231770Y-57898868D01*
X162290247Y-57910499D01*
X162290250Y-57910500D01*
X162290252Y-57910500D01*
X164029750Y-57910500D01*
X164029751Y-57910499D01*
X164044568Y-57907552D01*
X164088229Y-57898868D01*
X164088229Y-57898867D01*
X164088231Y-57898867D01*
X164154552Y-57854552D01*
X164198867Y-57788231D01*
X164198867Y-57788229D01*
X164198868Y-57788229D01*
X164210499Y-57729752D01*
X164210500Y-57729750D01*
X164210500Y-57724000D01*
X164230185Y-57656961D01*
X164282989Y-57611206D01*
X164334500Y-57600000D01*
X164901411Y-57600000D01*
X164968450Y-57619685D01*
X164980075Y-57628146D01*
X164997928Y-57642797D01*
X165113550Y-57737685D01*
X165296046Y-57835232D01*
X165494066Y-57895300D01*
X165494065Y-57895300D01*
X165512529Y-57897118D01*
X165700000Y-57915583D01*
X165858215Y-57900000D01*
X191894353Y-57900000D01*
X191914834Y-58042456D01*
X191915611Y-58044157D01*
X191974623Y-58173373D01*
X192068872Y-58282143D01*
X192189947Y-58359953D01*
X192189950Y-58359954D01*
X192189949Y-58359954D01*
X192328036Y-58400499D01*
X192328038Y-58400500D01*
X192328039Y-58400500D01*
X192471962Y-58400500D01*
X192471962Y-58400499D01*
X192593886Y-58364700D01*
X192610050Y-58359954D01*
X192610050Y-58359953D01*
X192610053Y-58359953D01*
X192731128Y-58282143D01*
X192825377Y-58173373D01*
X192885165Y-58042457D01*
X192905647Y-57900000D01*
X192885165Y-57757543D01*
X192825377Y-57626627D01*
X192825375Y-57626625D01*
X192825374Y-57626622D01*
X192786017Y-57581203D01*
X192756991Y-57517648D01*
X192766934Y-57448489D01*
X192786017Y-57418797D01*
X192825374Y-57373377D01*
X192825374Y-57373375D01*
X192825377Y-57373373D01*
X192885165Y-57242457D01*
X192905647Y-57100000D01*
X192885165Y-56957543D01*
X192825377Y-56826627D01*
X192731128Y-56717857D01*
X192610053Y-56640047D01*
X192610051Y-56640046D01*
X192610049Y-56640045D01*
X192610050Y-56640045D01*
X192471963Y-56599500D01*
X192471961Y-56599500D01*
X192328039Y-56599500D01*
X192328036Y-56599500D01*
X192189949Y-56640045D01*
X192068873Y-56717856D01*
X191974623Y-56826626D01*
X191974622Y-56826628D01*
X191914834Y-56957543D01*
X191894353Y-57100000D01*
X191914834Y-57242456D01*
X191974622Y-57373371D01*
X191974625Y-57373377D01*
X192013983Y-57418798D01*
X192043008Y-57482353D01*
X192033064Y-57551512D01*
X192013983Y-57581202D01*
X191974625Y-57626622D01*
X191974622Y-57626628D01*
X191914834Y-57757543D01*
X191894353Y-57900000D01*
X165858215Y-57900000D01*
X165905934Y-57895300D01*
X166103954Y-57835232D01*
X166286450Y-57737685D01*
X166402072Y-57642797D01*
X166419925Y-57628146D01*
X166484235Y-57600834D01*
X166498589Y-57600000D01*
X168541066Y-57600000D01*
X168608105Y-57619685D01*
X168634778Y-57642796D01*
X168668872Y-57682143D01*
X168789947Y-57759953D01*
X168789950Y-57759954D01*
X168789949Y-57759954D01*
X168928036Y-57800499D01*
X168928038Y-57800500D01*
X168928039Y-57800500D01*
X169071962Y-57800500D01*
X169071962Y-57800499D01*
X169210053Y-57759953D01*
X169331128Y-57682143D01*
X169365221Y-57642796D01*
X169423999Y-57605023D01*
X169458934Y-57600000D01*
X171150489Y-57600000D01*
X171150490Y-57600000D01*
X171200000Y-57600000D01*
X171221937Y-57595612D01*
X171286439Y-57604539D01*
X171329236Y-57636400D01*
X171368872Y-57682143D01*
X171489947Y-57759953D01*
X171489950Y-57759954D01*
X171489949Y-57759954D01*
X171628036Y-57800499D01*
X171628038Y-57800500D01*
X171628039Y-57800500D01*
X171771962Y-57800500D01*
X171771962Y-57800499D01*
X171910053Y-57759953D01*
X172031128Y-57682143D01*
X172125377Y-57573373D01*
X172178685Y-57456645D01*
X172224440Y-57403842D01*
X172267152Y-57386569D01*
X174199999Y-57000000D01*
X185494353Y-57000000D01*
X185514834Y-57142456D01*
X185560504Y-57242457D01*
X185574623Y-57273373D01*
X185668872Y-57382143D01*
X185789947Y-57459953D01*
X185789950Y-57459954D01*
X185789949Y-57459954D01*
X185865520Y-57482143D01*
X185926336Y-57500000D01*
X185928036Y-57500499D01*
X185928038Y-57500500D01*
X185928039Y-57500500D01*
X186071962Y-57500500D01*
X186071962Y-57500499D01*
X186210050Y-57459954D01*
X186210051Y-57459954D01*
X186210053Y-57459953D01*
X186331128Y-57382143D01*
X186331129Y-57382141D01*
X186332960Y-57380965D01*
X186400000Y-57361280D01*
X186467039Y-57380964D01*
X186467040Y-57380965D01*
X186468870Y-57382141D01*
X186468872Y-57382143D01*
X186546251Y-57431871D01*
X186589948Y-57459954D01*
X186708108Y-57494647D01*
X186726336Y-57500000D01*
X186728036Y-57500499D01*
X186728038Y-57500500D01*
X186728039Y-57500500D01*
X186871962Y-57500500D01*
X186871962Y-57500499D01*
X187010053Y-57459953D01*
X187131128Y-57382143D01*
X187225377Y-57273373D01*
X187285165Y-57142457D01*
X187291269Y-57100000D01*
X189494353Y-57100000D01*
X189514834Y-57242456D01*
X189562814Y-57347515D01*
X189574623Y-57373373D01*
X189668872Y-57482143D01*
X189789947Y-57559953D01*
X189789950Y-57559954D01*
X189789949Y-57559954D01*
X189897107Y-57591417D01*
X189926336Y-57600000D01*
X189928036Y-57600499D01*
X189928038Y-57600500D01*
X189928039Y-57600500D01*
X190071962Y-57600500D01*
X190071962Y-57600499D01*
X190210053Y-57559953D01*
X190331128Y-57482143D01*
X190425377Y-57373373D01*
X190485165Y-57242457D01*
X190505647Y-57100000D01*
X190485165Y-56957543D01*
X190425377Y-56826627D01*
X190331128Y-56717857D01*
X190210053Y-56640047D01*
X190210051Y-56640046D01*
X190210049Y-56640045D01*
X190210050Y-56640045D01*
X190071963Y-56599500D01*
X190071961Y-56599500D01*
X189928039Y-56599500D01*
X189928036Y-56599500D01*
X189789949Y-56640045D01*
X189668873Y-56717856D01*
X189574623Y-56826626D01*
X189574622Y-56826628D01*
X189514834Y-56957543D01*
X189494353Y-57100000D01*
X187291269Y-57100000D01*
X187305647Y-57000000D01*
X187285165Y-56857543D01*
X187225377Y-56726627D01*
X187131128Y-56617857D01*
X187010053Y-56540047D01*
X187010051Y-56540046D01*
X187010049Y-56540045D01*
X187010050Y-56540045D01*
X186871963Y-56499500D01*
X186871961Y-56499500D01*
X186728039Y-56499500D01*
X186728036Y-56499500D01*
X186589949Y-56540045D01*
X186467039Y-56619035D01*
X186400000Y-56638719D01*
X186332961Y-56619035D01*
X186302564Y-56599500D01*
X186210053Y-56540047D01*
X186210051Y-56540046D01*
X186210049Y-56540045D01*
X186210050Y-56540045D01*
X186071963Y-56499500D01*
X186071961Y-56499500D01*
X185928039Y-56499500D01*
X185928036Y-56499500D01*
X185789949Y-56540045D01*
X185668873Y-56617856D01*
X185574623Y-56726626D01*
X185574622Y-56726628D01*
X185514834Y-56857543D01*
X185494353Y-57000000D01*
X174199999Y-57000000D01*
X174700000Y-56900000D01*
X178148470Y-56210306D01*
X178154451Y-56209262D01*
X178194204Y-56203333D01*
X178206343Y-56202131D01*
X178240745Y-56200432D01*
X178246455Y-56200151D01*
X178252568Y-56200000D01*
X195262565Y-56200000D01*
X195278242Y-56200995D01*
G37*
%TD.AperFunction*%
%TD*%
%TA.AperFunction,Conductor*%
%TO.N,+7.5V*%
G36*
X178643039Y-47020185D02*
G01*
X178688794Y-47072989D01*
X178700000Y-47124500D01*
X178700000Y-53076000D01*
X178680315Y-53143039D01*
X178627511Y-53188794D01*
X178576000Y-53200000D01*
X177158934Y-53200000D01*
X177091895Y-53180315D01*
X177065221Y-53157203D01*
X177052948Y-53143039D01*
X177031128Y-53117857D01*
X176910053Y-53040047D01*
X176910051Y-53040046D01*
X176910049Y-53040045D01*
X176910050Y-53040045D01*
X176771963Y-52999500D01*
X176771961Y-52999500D01*
X176628039Y-52999500D01*
X176628036Y-52999500D01*
X176489949Y-53040045D01*
X176368873Y-53117856D01*
X176334779Y-53157203D01*
X176276001Y-53194977D01*
X176241066Y-53200000D01*
X157000000Y-53200000D01*
X157000000Y-65876000D01*
X156980315Y-65943039D01*
X156927511Y-65988794D01*
X156876000Y-66000000D01*
X146624500Y-66000000D01*
X146557461Y-65980315D01*
X146511706Y-65927511D01*
X146500500Y-65876000D01*
X146500500Y-64000000D01*
X153294353Y-64000000D01*
X153314834Y-64142456D01*
X153332959Y-64182143D01*
X153374623Y-64273373D01*
X153468872Y-64382143D01*
X153589947Y-64459953D01*
X153589950Y-64459954D01*
X153589949Y-64459954D01*
X153728036Y-64500499D01*
X153728038Y-64500500D01*
X153728039Y-64500500D01*
X153871962Y-64500500D01*
X153871962Y-64500499D01*
X154010053Y-64459953D01*
X154082961Y-64413098D01*
X154150000Y-64393414D01*
X154217039Y-64413098D01*
X154289947Y-64459953D01*
X154289950Y-64459954D01*
X154289949Y-64459954D01*
X154428036Y-64500499D01*
X154428038Y-64500500D01*
X154428039Y-64500500D01*
X154571962Y-64500500D01*
X154571962Y-64500499D01*
X154710053Y-64459953D01*
X154782961Y-64413098D01*
X154850000Y-64393414D01*
X154917039Y-64413098D01*
X154989947Y-64459953D01*
X154989950Y-64459954D01*
X154989949Y-64459954D01*
X155128036Y-64500499D01*
X155128038Y-64500500D01*
X155128039Y-64500500D01*
X155271962Y-64500500D01*
X155271962Y-64500499D01*
X155410053Y-64459953D01*
X155531128Y-64382143D01*
X155625377Y-64273373D01*
X155685165Y-64142457D01*
X155705647Y-64000000D01*
X155685165Y-63857543D01*
X155625377Y-63726627D01*
X155531128Y-63617857D01*
X155410053Y-63540047D01*
X155410051Y-63540046D01*
X155410049Y-63540045D01*
X155410050Y-63540045D01*
X155271963Y-63499500D01*
X155271961Y-63499500D01*
X155128039Y-63499500D01*
X155128036Y-63499500D01*
X154989949Y-63540045D01*
X154917039Y-63586902D01*
X154850000Y-63606586D01*
X154782961Y-63586902D01*
X154780557Y-63585357D01*
X154710053Y-63540047D01*
X154710051Y-63540046D01*
X154710049Y-63540045D01*
X154710050Y-63540045D01*
X154571963Y-63499500D01*
X154571961Y-63499500D01*
X154428039Y-63499500D01*
X154428036Y-63499500D01*
X154289949Y-63540045D01*
X154217039Y-63586902D01*
X154150000Y-63606586D01*
X154082961Y-63586902D01*
X154080557Y-63585357D01*
X154010053Y-63540047D01*
X154010051Y-63540046D01*
X154010049Y-63540045D01*
X154010050Y-63540045D01*
X153871963Y-63499500D01*
X153871961Y-63499500D01*
X153728039Y-63499500D01*
X153728036Y-63499500D01*
X153589949Y-63540045D01*
X153468873Y-63617856D01*
X153374623Y-63726626D01*
X153374622Y-63726628D01*
X153314834Y-63857543D01*
X153294353Y-64000000D01*
X146500500Y-64000000D01*
X146500500Y-58603469D01*
X148699500Y-58603469D01*
X148739868Y-58806412D01*
X148739870Y-58806420D01*
X148819058Y-58997596D01*
X148934024Y-59169657D01*
X149080342Y-59315975D01*
X149080345Y-59315977D01*
X149252402Y-59430941D01*
X149443580Y-59510130D01*
X149646530Y-59550499D01*
X149646534Y-59550500D01*
X149646535Y-59550500D01*
X150153466Y-59550500D01*
X150153467Y-59550499D01*
X150356420Y-59510130D01*
X150547598Y-59430941D01*
X150719655Y-59315977D01*
X150865977Y-59169655D01*
X150980941Y-58997598D01*
X151060130Y-58806420D01*
X151100500Y-58603465D01*
X151100500Y-58396535D01*
X151060130Y-58193580D01*
X150980941Y-58002402D01*
X150865977Y-57830345D01*
X150865975Y-57830342D01*
X150719657Y-57684024D01*
X150554054Y-57573373D01*
X150547598Y-57569059D01*
X150356420Y-57489870D01*
X150356412Y-57489868D01*
X150153469Y-57449500D01*
X150153465Y-57449500D01*
X149646535Y-57449500D01*
X149646530Y-57449500D01*
X149443587Y-57489868D01*
X149443579Y-57489870D01*
X149252403Y-57569058D01*
X149080342Y-57684024D01*
X148934024Y-57830342D01*
X148819058Y-58002403D01*
X148739870Y-58193579D01*
X148739868Y-58193587D01*
X148699500Y-58396530D01*
X148699500Y-58603469D01*
X146500500Y-58603469D01*
X146500500Y-55300000D01*
X153294353Y-55300000D01*
X153314834Y-55442456D01*
X153374622Y-55573371D01*
X153374623Y-55573373D01*
X153468872Y-55682143D01*
X153589947Y-55759953D01*
X153589950Y-55759954D01*
X153589949Y-55759954D01*
X153728036Y-55800499D01*
X153728038Y-55800500D01*
X153728039Y-55800500D01*
X153871962Y-55800500D01*
X153871962Y-55800499D01*
X154010053Y-55759953D01*
X154082961Y-55713098D01*
X154150000Y-55693414D01*
X154217039Y-55713098D01*
X154289947Y-55759953D01*
X154289950Y-55759954D01*
X154289949Y-55759954D01*
X154428036Y-55800499D01*
X154428038Y-55800500D01*
X154428039Y-55800500D01*
X154571962Y-55800500D01*
X154571962Y-55800499D01*
X154710053Y-55759953D01*
X154782961Y-55713098D01*
X154850000Y-55693414D01*
X154917039Y-55713098D01*
X154989947Y-55759953D01*
X154989950Y-55759954D01*
X154989949Y-55759954D01*
X155128036Y-55800499D01*
X155128038Y-55800500D01*
X155128039Y-55800500D01*
X155271962Y-55800500D01*
X155271962Y-55800499D01*
X155410053Y-55759953D01*
X155531128Y-55682143D01*
X155625377Y-55573373D01*
X155685165Y-55442457D01*
X155705647Y-55300000D01*
X155685165Y-55157543D01*
X155625377Y-55026627D01*
X155531128Y-54917857D01*
X155410053Y-54840047D01*
X155410051Y-54840046D01*
X155410049Y-54840045D01*
X155410050Y-54840045D01*
X155271963Y-54799500D01*
X155271961Y-54799500D01*
X155128039Y-54799500D01*
X155128036Y-54799500D01*
X154989949Y-54840045D01*
X154917039Y-54886902D01*
X154850000Y-54906586D01*
X154782961Y-54886902D01*
X154780557Y-54885357D01*
X154710053Y-54840047D01*
X154710051Y-54840046D01*
X154710049Y-54840045D01*
X154710050Y-54840045D01*
X154571963Y-54799500D01*
X154571961Y-54799500D01*
X154428039Y-54799500D01*
X154428036Y-54799500D01*
X154289949Y-54840045D01*
X154217039Y-54886902D01*
X154150000Y-54906586D01*
X154082961Y-54886902D01*
X154080557Y-54885357D01*
X154010053Y-54840047D01*
X154010051Y-54840046D01*
X154010049Y-54840045D01*
X154010050Y-54840045D01*
X153871963Y-54799500D01*
X153871961Y-54799500D01*
X153728039Y-54799500D01*
X153728036Y-54799500D01*
X153589949Y-54840045D01*
X153468873Y-54917856D01*
X153374623Y-55026626D01*
X153374622Y-55026628D01*
X153314834Y-55157543D01*
X153294353Y-55300000D01*
X146500500Y-55300000D01*
X146500500Y-50003246D01*
X146500585Y-50000005D01*
X146944457Y-50000005D01*
X146964606Y-50320283D01*
X146964607Y-50320290D01*
X147024745Y-50635542D01*
X147123916Y-50940759D01*
X147123918Y-50940764D01*
X147260558Y-51231138D01*
X147260562Y-51231144D01*
X147432520Y-51502108D01*
X147432522Y-51502111D01*
X147637087Y-51749388D01*
X147871034Y-51969078D01*
X147871044Y-51969086D01*
X148130660Y-52157708D01*
X148130666Y-52157711D01*
X148130672Y-52157716D01*
X148411903Y-52312324D01*
X148710294Y-52430466D01*
X148710293Y-52430466D01*
X149021135Y-52510276D01*
X149021139Y-52510277D01*
X149087935Y-52518715D01*
X149339524Y-52550499D01*
X149339533Y-52550499D01*
X149339536Y-52550500D01*
X149339538Y-52550500D01*
X149660462Y-52550500D01*
X149660464Y-52550500D01*
X149660467Y-52550499D01*
X149660475Y-52550499D01*
X149850463Y-52526497D01*
X149978861Y-52510277D01*
X150289706Y-52430466D01*
X150588097Y-52312324D01*
X150869328Y-52157716D01*
X151128964Y-51969080D01*
X151362911Y-51749390D01*
X151567478Y-51502110D01*
X151739439Y-51231142D01*
X151744844Y-51219657D01*
X151876081Y-50940764D01*
X151876084Y-50940758D01*
X151969430Y-50653469D01*
X154699500Y-50653469D01*
X154739868Y-50856412D01*
X154739870Y-50856420D01*
X154819058Y-51047596D01*
X154934024Y-51219657D01*
X155080342Y-51365975D01*
X155080345Y-51365977D01*
X155252402Y-51480941D01*
X155443580Y-51560130D01*
X155632187Y-51597646D01*
X155646530Y-51600499D01*
X155646534Y-51600500D01*
X155646535Y-51600500D01*
X155853466Y-51600500D01*
X155853467Y-51600499D01*
X156056420Y-51560130D01*
X156247598Y-51480941D01*
X156419655Y-51365977D01*
X156565977Y-51219655D01*
X156576258Y-51204269D01*
X157199500Y-51204269D01*
X157202353Y-51234699D01*
X157202353Y-51234701D01*
X157247206Y-51362880D01*
X157247207Y-51362882D01*
X157327850Y-51472150D01*
X157437118Y-51552793D01*
X157458089Y-51560131D01*
X157565299Y-51597646D01*
X157595730Y-51600500D01*
X157595734Y-51600500D01*
X158904270Y-51600500D01*
X158934699Y-51597646D01*
X158934701Y-51597646D01*
X158998790Y-51575219D01*
X159062882Y-51552793D01*
X159172150Y-51472150D01*
X159252793Y-51362882D01*
X159275219Y-51298790D01*
X159297646Y-51234701D01*
X159297646Y-51234699D01*
X159300500Y-51204269D01*
X159300500Y-50000004D01*
X161294732Y-50000004D01*
X161313777Y-50254154D01*
X161313778Y-50254157D01*
X161370492Y-50502637D01*
X161463607Y-50739888D01*
X161591041Y-50960612D01*
X161749950Y-51159877D01*
X161936783Y-51333232D01*
X162147366Y-51476805D01*
X162147371Y-51476807D01*
X162147372Y-51476808D01*
X162147373Y-51476809D01*
X162199912Y-51502110D01*
X162376992Y-51587387D01*
X162376993Y-51587387D01*
X162376996Y-51587389D01*
X162620542Y-51662513D01*
X162872565Y-51700500D01*
X163127435Y-51700500D01*
X163379458Y-51662513D01*
X163623004Y-51587389D01*
X163852634Y-51476805D01*
X164063217Y-51333232D01*
X164250050Y-51159877D01*
X164408959Y-50960612D01*
X164536393Y-50739888D01*
X164629508Y-50502637D01*
X164686222Y-50254157D01*
X164705268Y-50000004D01*
X170694732Y-50000004D01*
X170713777Y-50254154D01*
X170713778Y-50254157D01*
X170770492Y-50502637D01*
X170863607Y-50739888D01*
X170991041Y-50960612D01*
X171149950Y-51159877D01*
X171336783Y-51333232D01*
X171547366Y-51476805D01*
X171547371Y-51476807D01*
X171547372Y-51476808D01*
X171547373Y-51476809D01*
X171599912Y-51502110D01*
X171776992Y-51587387D01*
X171776993Y-51587387D01*
X171776996Y-51587389D01*
X172020542Y-51662513D01*
X172272565Y-51700500D01*
X172527435Y-51700500D01*
X172779458Y-51662513D01*
X173023004Y-51587389D01*
X173252634Y-51476805D01*
X173463217Y-51333232D01*
X173650050Y-51159877D01*
X173808959Y-50960612D01*
X173936393Y-50739888D01*
X174029508Y-50502637D01*
X174086222Y-50254157D01*
X174105268Y-50000000D01*
X174086222Y-49745843D01*
X174029508Y-49497363D01*
X173936393Y-49260112D01*
X173808959Y-49039388D01*
X173650050Y-48840123D01*
X173463217Y-48666768D01*
X173252634Y-48523195D01*
X173252630Y-48523193D01*
X173252627Y-48523191D01*
X173252626Y-48523190D01*
X173023006Y-48412612D01*
X173023008Y-48412612D01*
X172779466Y-48337489D01*
X172779462Y-48337488D01*
X172779458Y-48337487D01*
X172658231Y-48319214D01*
X172527440Y-48299500D01*
X172527435Y-48299500D01*
X172272565Y-48299500D01*
X172272559Y-48299500D01*
X172115609Y-48323157D01*
X172020542Y-48337487D01*
X172020539Y-48337488D01*
X172020533Y-48337489D01*
X171776992Y-48412612D01*
X171547373Y-48523190D01*
X171547372Y-48523191D01*
X171336782Y-48666768D01*
X171149952Y-48840121D01*
X171149950Y-48840123D01*
X170991041Y-49039388D01*
X170863608Y-49260109D01*
X170770492Y-49497362D01*
X170770490Y-49497369D01*
X170713777Y-49745845D01*
X170694732Y-49999995D01*
X170694732Y-50000004D01*
X164705268Y-50000004D01*
X164705268Y-50000000D01*
X164686222Y-49745843D01*
X164629508Y-49497363D01*
X164536393Y-49260112D01*
X164408959Y-49039388D01*
X164250050Y-48840123D01*
X164063217Y-48666768D01*
X163852634Y-48523195D01*
X163852630Y-48523193D01*
X163852627Y-48523191D01*
X163852626Y-48523190D01*
X163623006Y-48412612D01*
X163623008Y-48412612D01*
X163379466Y-48337489D01*
X163379462Y-48337488D01*
X163379458Y-48337487D01*
X163258231Y-48319214D01*
X163127440Y-48299500D01*
X163127435Y-48299500D01*
X162872565Y-48299500D01*
X162872559Y-48299500D01*
X162715609Y-48323157D01*
X162620542Y-48337487D01*
X162620539Y-48337488D01*
X162620533Y-48337489D01*
X162376992Y-48412612D01*
X162147373Y-48523190D01*
X162147372Y-48523191D01*
X161936782Y-48666768D01*
X161749952Y-48840121D01*
X161749950Y-48840123D01*
X161591041Y-49039388D01*
X161463608Y-49260109D01*
X161370492Y-49497362D01*
X161370490Y-49497369D01*
X161313777Y-49745845D01*
X161294732Y-49999995D01*
X161294732Y-50000004D01*
X159300500Y-50000004D01*
X159300500Y-49595730D01*
X159297646Y-49565300D01*
X159297646Y-49565298D01*
X159252793Y-49437119D01*
X159252792Y-49437117D01*
X159172150Y-49327850D01*
X159062882Y-49247207D01*
X159062880Y-49247206D01*
X158934700Y-49202353D01*
X158904270Y-49199500D01*
X158904266Y-49199500D01*
X157595734Y-49199500D01*
X157595730Y-49199500D01*
X157565300Y-49202353D01*
X157565298Y-49202353D01*
X157437119Y-49247206D01*
X157437117Y-49247207D01*
X157327850Y-49327850D01*
X157247207Y-49437117D01*
X157247206Y-49437119D01*
X157202353Y-49565298D01*
X157202353Y-49565300D01*
X157199500Y-49595730D01*
X157199500Y-51204269D01*
X156576258Y-51204269D01*
X156680941Y-51047598D01*
X156760130Y-50856420D01*
X156800500Y-50653465D01*
X156800500Y-50146535D01*
X156760130Y-49943580D01*
X156680941Y-49752402D01*
X156565977Y-49580345D01*
X156565975Y-49580342D01*
X156419657Y-49434024D01*
X156315541Y-49364457D01*
X156247598Y-49319059D01*
X156056420Y-49239870D01*
X156056412Y-49239868D01*
X155853469Y-49199500D01*
X155853465Y-49199500D01*
X155646535Y-49199500D01*
X155646530Y-49199500D01*
X155443587Y-49239868D01*
X155443579Y-49239870D01*
X155252403Y-49319058D01*
X155080342Y-49434024D01*
X154934024Y-49580342D01*
X154819058Y-49752403D01*
X154739870Y-49943579D01*
X154739868Y-49943587D01*
X154699500Y-50146530D01*
X154699500Y-50653469D01*
X151969430Y-50653469D01*
X151975256Y-50635538D01*
X152035392Y-50320294D01*
X152046324Y-50146534D01*
X152055543Y-50000005D01*
X152055543Y-49999994D01*
X152035393Y-49679716D01*
X152035392Y-49679709D01*
X152035392Y-49679706D01*
X151975256Y-49364462D01*
X151876084Y-49059242D01*
X151876081Y-49059235D01*
X151739441Y-48768861D01*
X151739437Y-48768855D01*
X151567479Y-48497891D01*
X151567477Y-48497888D01*
X151362912Y-48250611D01*
X151128965Y-48030921D01*
X151128955Y-48030913D01*
X150869339Y-47842291D01*
X150869321Y-47842280D01*
X150588096Y-47687675D01*
X150588093Y-47687674D01*
X150382465Y-47606260D01*
X150289706Y-47569534D01*
X150289704Y-47569533D01*
X150289706Y-47569533D01*
X149978864Y-47489723D01*
X149978851Y-47489721D01*
X149660475Y-47449500D01*
X149660464Y-47449500D01*
X149339536Y-47449500D01*
X149339524Y-47449500D01*
X149021148Y-47489721D01*
X149021135Y-47489723D01*
X148710294Y-47569533D01*
X148411906Y-47687674D01*
X148411903Y-47687675D01*
X148130678Y-47842280D01*
X148130660Y-47842291D01*
X147871044Y-48030913D01*
X147871034Y-48030921D01*
X147637087Y-48250611D01*
X147432522Y-48497888D01*
X147432520Y-48497891D01*
X147260562Y-48768855D01*
X147260558Y-48768861D01*
X147123918Y-49059235D01*
X147123916Y-49059240D01*
X147024745Y-49364457D01*
X146964607Y-49679709D01*
X146964606Y-49679716D01*
X146944457Y-49999994D01*
X146944457Y-50000005D01*
X146500585Y-50000005D01*
X146500670Y-49996756D01*
X146516592Y-49692953D01*
X146517949Y-49680046D01*
X146533740Y-49580342D01*
X146565029Y-49382786D01*
X146567723Y-49370107D01*
X146645627Y-49079368D01*
X146649636Y-49067033D01*
X146652627Y-49059242D01*
X146757493Y-48786054D01*
X146762763Y-48774215D01*
X146899415Y-48506023D01*
X146905891Y-48494808D01*
X147069819Y-48242380D01*
X147077434Y-48231899D01*
X147266858Y-47997979D01*
X147275525Y-47988354D01*
X147488354Y-47775525D01*
X147497979Y-47766858D01*
X147731899Y-47577434D01*
X147742380Y-47569819D01*
X147994808Y-47405891D01*
X148006023Y-47399415D01*
X148274215Y-47262763D01*
X148286054Y-47257493D01*
X148567040Y-47149633D01*
X148579368Y-47145627D01*
X148870107Y-47067723D01*
X148882786Y-47065029D01*
X149180046Y-47017949D01*
X149192951Y-47016592D01*
X149496756Y-47000669D01*
X149503246Y-47000500D01*
X178576000Y-47000500D01*
X178643039Y-47020185D01*
G37*
%TD.AperFunction*%
%TD*%
M02*
